<?xml version="1.0" encoding="UTF-8"?>
<svg id="Guides" xmlns="http://www.w3.org/2000/svg" viewBox="0 0 96.34 52.36">
  <defs>
    <style>
      .cls-1 {
        isolation: isolate;
      }
    </style>
  </defs>
  <path d="M0,52.36V0h11.79v41.72s28.28-.24,28.28-.24v10.88H0Z"/>
  <g class="cls-1">
    <g class="cls-1">
      <g class="cls-1">
        <path d="M55.61,52.36V0h21.63c3.92,0,7.31.76,10.16,2.29,2.85,1.53,5.06,3.65,6.61,6.37,1.55,2.72,2.33,5.88,2.33,9.47s-.79,6.77-2.37,9.47c-1.58,2.7-3.82,4.79-6.74,6.28-2.92,1.48-6.38,2.22-10.38,2.22h-13.35v-9.97h10.99c1.91,0,3.51-.33,4.79-1,1.29-.66,2.26-1.6,2.93-2.8.66-1.2,1-2.6,1-4.21s-.33-3.02-1-4.21c-.67-1.18-1.65-2.1-2.94-2.75-1.29-.65-2.89-.97-4.78-.97h-6.24v42.16h-12.66Z"/>
      </g>
    </g>
  </g>
</svg>