<?xml version="1.0" encoding="UTF-8"?>
<svg id="Layer_1" data-name="Layer 1" xmlns="http://www.w3.org/2000/svg" viewBox="0 0 96.98 52.24">
  <path d="M0,0h12.96v42.26h27.74v9.97H0V0Z"/>
  <path d="M54.76.04h21.28c6.4,0,11.49,1.14,15.27,3.42,3.78,2.28,5.67,6.18,5.67,11.7,0,3.72-.94,6.78-2.82,9.18-1.88,2.4-4.38,4.15-7.48,5.24-3.1,1.09-6.54,1.64-10.3,1.64h-8.62v21.02h-13V.04ZM78.69,21.82c1.4-.24,2.55-.87,3.44-1.89.89-1.02,1.34-2.62,1.34-4.81,0-2.52-.79-4.24-2.36-5.17-1.57-.92-3.65-1.39-6.22-1.39h-7.14v13.61h5.18c2.44,0,4.35-.12,5.76-.36Z"/>
</svg>