<?xml version="1.0" encoding="UTF-8"?>
<svg id="Layer_1" data-name="Layer 1" xmlns="http://www.w3.org/2000/svg" viewBox="0 0 98.43 53.06">
  <path d="M8.54,50.56c-3.06-1.67-5.25-4.12-6.56-7.34-1.32-3.23-1.98-7.35-1.98-12.37V0h12.91v30.35c0,3.12.24,5.62.72,7.49.48,1.87,1.32,3.26,2.51,4.18,1.19.91,2.87,1.37,5.05,1.37,2.07,0,3.67-.45,4.8-1.35,1.13-.9,1.92-2.28,2.36-4.14.44-1.86.66-4.37.66-7.54V0h12.91v30.85c0,5.06-.62,9.2-1.85,12.42-1.23,3.22-3.38,5.65-6.44,7.31-3.06,1.66-7.29,2.48-12.7,2.48s-9.35-.83-12.4-2.5Z"/>
  <path d="M56.2,0h21.28c6.4,0,11.49,1.14,15.27,3.42,3.78,2.28,5.67,6.18,5.67,11.7,0,3.72-.94,6.78-2.82,9.18-1.88,2.4-4.38,4.15-7.48,5.24-3.1,1.09-6.54,1.64-10.3,1.64h-8.62v21.02h-13V0ZM80.14,21.78c1.4-.24,2.55-.87,3.44-1.89.89-1.02,1.34-2.62,1.34-4.81,0-2.52-.79-4.24-2.36-5.17-1.57-.92-3.65-1.39-6.22-1.39h-7.14v13.61h5.18c2.44,0,4.35-.12,5.76-.36Z"/>
</svg>