<svg version="1.2" xmlns="http://www.w3.org/2000/svg" viewBox="0 0 189 189" width="189" height="189">

	<style>
		.s0 { opacity: .9;fill: currentColor }
	</style>
	<path id="Path 0" class="s0" d="m175.9 16.3c-1.2 0.7-5.7 6-9.8 11.8-4.2 5.8-10.7 14.3-14.6 19-3.8 4.6-11.5 13.4-17.1 19.4-5.6 6-14.8 15.1-20.5 20.2-5.7 5.1-14.7 12.6-19.9 16.8-5.2 4.2-16.5 12.3-25 18-8.5 5.6-21.8 13.7-29.5 17.9-7.7 4.2-14.6 7.6-15.3 7.6-0.6 0 1-3 3.7-6.7 2.7-3.8 7.5-9.7 10.5-13.3 3.2-3.7 5.6-7.5 5.6-8.7 0-1.3-0.9-3.2-2-4.3-1.1-1.1-2.9-2-4-2-1.1 0-3.9 2.1-6.3 4.6-2.3 2.5-8 9.6-12.7 15.8-4.7 6.3-9.3 12.9-10.4 14.7-1.2 2.3-1.7 4.3-1.2 6.2 0.5 2.1 2.2 3.6 7.3 6.4 3.8 2 10.2 4.8 14.3 6.1 4.1 1.3 10.5 2.7 14.1 3 5.2 0.6 7 0.4 8.3-0.8 0.9-0.8 1.7-2.8 1.7-4.5 0-1.7-0.6-3.6-1.3-4.2-0.7-0.7-4.7-1.8-8.8-2.4-6.9-1.1-7.3-1.3-5.5-2.6 1.1-0.8 6.9-4.1 13-7.5 6-3.3 17.5-10.3 25.5-15.5 8-5.3 18.5-12.7 23.5-16.6 4.9-3.9 14.6-12.1 21.5-18.2 6.9-6.1 16.9-15.8 22.2-21.6 5.3-5.7 12.5-13.8 16-18 3.5-4.2 10.5-13.3 15.5-20.3 6.3-8.5 9.3-13.5 9.3-15.3 0.1-1.6-0.5-3.3-1.2-3.9-0.7-0.6-2.1-1.3-3-1.7-0.9-0.3-2.7 0-3.9 0.6z"/>
</svg>