<svg version="1.2" xmlns="http://www.w3.org/2000/svg" viewBox="0 0 270 185" width="270" height="185">

	<style>
		.s0 { opacity: .9;fill: currentColor }
	</style>
	<path id="Path 0" class="s0" d="m2.4 3.1c-1.2 1.3-1.8 3.3-1.7 5.2 0.1 1.8 1.2 7.5 2.4 12.7 1.2 5.2 3.2 12.3 4.5 15.8 1.3 3.4 4.7 10.8 7.5 16.4 2.8 5.7 7.9 14.3 11.3 19.2 3.3 4.9 9.5 12.8 13.7 17.5 4.2 4.7 11.4 11.8 16 15.7 4.6 4 12.8 10.1 18.1 13.8 5.4 3.6 15.3 9.3 22 12.6 6.8 3.3 16.8 7.6 22.3 9.5 5.5 2 15.2 4.9 21.5 6.5 6.3 1.6 15.8 3.6 21 4.4 5.2 0.9 16 2.1 24 2.7 8.5 0.7 21 0.9 30 0.5 8.5-0.3 19.6-1.1 24.5-1.7 7-0.8 9.5-1.5 11.3-3.2 1.3-1.2 2.2-1.7 2.2-0.9 0 0.6-3 3.4-6.8 6.2-3.7 2.7-10.1 6.7-14.2 8.9-4.1 2.1-9.8 4.6-12.5 5.6-2.8 1-5.6 2.3-6.4 2.9-0.7 0.6-1.8 2.1-2.2 3.4-0.6 1.3-0.5 3 0.1 4.2 0.6 1.1 1.9 2.4 3 3 1.6 0.8 4.3 0.1 12.2-3.1 5.7-2.2 13.9-6.2 18.3-8.9 4.4-2.7 11.5-7.8 15.7-11.4 4.3-3.6 8.4-7.7 9-9 1.1-2.1 1-2.9-0.3-4.8-0.8-1.3-11-9-22.5-17.1-11.5-8.1-21.8-14.8-22.9-14.8-1.1 0-2.8 0.8-3.7 1.8-1 1-1.8 3-1.8 4.6 0 1.5 0.6 3.3 1.3 4 0.8 0.6 5.9 4.4 11.5 8.2 5.5 3.8 10.1 7.3 10.2 7.8 0 0.4-5.3 1-11.8 1.3-6.4 0.4-20.5 0.4-31.2 0.1-10.7-0.2-24.7-1.2-31-2.2-6.3-0.9-17.3-3.2-24.5-5-7.2-1.8-17.5-5-23-7-5.5-2.1-13.6-5.5-18-7.7-4.4-2.2-10.7-5.6-14-7.6-3.3-2-10.1-6.6-15-10.2-5-3.7-13.2-10.9-18.3-16.1-5.1-5.2-12.2-13.4-15.7-18.4-3.6-4.9-9.2-14.4-12.4-21-3.3-6.6-6.9-14.9-8-18.5-1.2-3.6-3-10.8-4.1-16-1.1-5.2-2.6-10.1-3.3-10.8-0.6-0.7-2.4-1.3-3.8-1.2-1.4 0-3.5 0.9-4.5 2.1z"/>
</svg>