<svg version="1.2" xmlns="http://www.w3.org/2000/svg" viewBox="0 0 32 32" width="32" height="32">
	<title>RunesIcon</title>
	<style>
		.s0 { fill: currentColor }
	</style>
	<path id="Path 0" class="s0" d="m12.6 5.3c-0.9 2-3.1 5.4-5 7.5l-3.5 3.7 11.4 5.6c3.5-3.6 4.6-5 4.6-5.6 0-0.6-1.2-2.1-2.7-3.5-2.5-2.5-2.6-2.5-4-0.5-0.8 1.1-1.4 2.3-1.4 2.8 0 0.4 0.4 0.7 1 0.7 0.6 0 1.2-0.4 1.5-1 0.3-0.6 0.9-0.8 1.5-0.5 0.6 0.3 1 1.1 1 1.8 0 0.6-0.4 1.8-0.8 2.5-0.5 1-1.4 0.9-3.9-0.5-1.8-1-3.3-2.1-3.3-2.5 0-0.5 1.4-2.5 3-4.5 2.4-2.9 3-4.5 2.6-6.8l-0.5-3zm5.6 4.2c-0.1 0.3 1.1 2.2 2.6 4.1l2.8 3.6c-7.8 7.5-8.6 8.9-8.3 11.4l0.3 3c2.7-5.1 5.3-8.5 7.4-10.8l4-4.2c-6.8-5.9-8.8-7.4-8.8-7.1z"/>
</svg>