<svg width="20" height="20" viewBox="0 0 20 20" fill="none" xmlns="http://www.w3.org/2000/svg">
<path d="M2.25891 13.7097C2.23521 13.7353 2.20289 13.752 2.16768 13.7567C2.13247 13.7614 2.09667 13.7539 2.06664 13.7356C2.03661 13.7172 2.0143 13.6891 2.00368 13.6563C1.99306 13.6235 1.99482 13.5881 2.00865 13.5565C2.45078 12.0968 3.75213 8.08065 4.89499 7.53227C6.29645 6.83872 13.5457 4.36291 14.9555 3.68549C15.956 3.28316 16.8894 2.73962 17.725 2.07259C17.7467 2.04977 17.775 2.03382 17.8062 2.02687C17.8374 2.01991 17.8701 2.02226 17.8999 2.03361C17.9297 2.04497 17.9553 2.06479 17.9732 2.09046C17.9911 2.11613 18.0006 2.14646 18.0003 2.17743C18.0003 3.46775 17.725 6.9113 15.6562 8.00807C13.0785 9.36291 6.64681 10.8307 5.24535 11.5081C4.16313 12.1249 3.16062 12.864 2.25891 13.7097Z" fill="currentColor"/>
<path d="M4.50265 14.2177C4.47316 14.2209 4.44338 14.2146 4.41804 14.1997C4.39269 14.1847 4.37321 14.1621 4.36268 14.1352C4.35215 14.1084 4.35118 14.0789 4.35991 14.0515C4.36864 14.0241 4.38658 14.0003 4.41089 13.9838C5.7369 12.9864 7.25356 12.2519 8.87387 11.8225C10.9677 11.4193 12.878 11.5564 13.7623 11.1048C13.7844 11.0939 13.8091 11.0893 13.8338 11.0913C13.8585 11.0933 13.8821 11.1019 13.902 11.1161C13.9219 11.1303 13.9373 11.1496 13.9465 11.1718C13.9557 11.194 13.9584 11.2183 13.9542 11.2419C13.754 12.137 12.9865 14.5402 10.5089 14.5402C7.73935 14.5402 6.32955 13.9757 4.50265 14.2177Z" fill="currentColor6"/>
<path d="M4.96996 16.2015C4.95065 16.1921 4.93443 16.1777 4.9231 16.1599C4.91176 16.1421 4.90576 16.1216 4.90576 16.1007C4.90576 16.0798 4.91176 16.0593 4.9231 16.0415C4.93443 16.0237 4.95065 16.0093 4.96996 15.9999C5.84452 15.6993 6.79291 15.6628 7.68946 15.895C8.44689 16.1446 9.23505 16.2964 10.0336 16.3467C10.0538 16.3487 10.0732 16.3558 10.0898 16.3673C10.1063 16.3788 10.1195 16.3943 10.1279 16.4122C10.1363 16.4302 10.1398 16.4499 10.1378 16.4696C10.1359 16.4892 10.1287 16.508 10.117 16.5241C9.6832 17.008 8.44858 18.2983 7.45588 17.9354C6.46318 17.5725 5.62898 16.516 4.96996 16.2015Z" fill="currentColor"/>
</svg>
