<svg version="1.2" xmlns="http://www.w3.org/2000/svg" viewBox="0 0 40 40" width="40" height="40">
	<title>40px-Keyword_Attune</title>
	<style>
		.s0 { opacity: .99;fill: #000000 } 
		.s1 { opacity: .55;fill: #000000 } 
	</style>
	<g id="Background">
		<path id="Path 0" fill-rule="evenodd" class="s0" d="m19 2v-1h2v1l1 2v2l1 1h1l2 1h1l5 5v1l1 2v1l1 1h2l2 1h1v2h-1l-2 1h-2l-1 1v1l-1 1v2l1 1v1l1 1v1l2 2v1l1 1v2h-2l-1-1h-1l-1-1-2-1-1-1h-1l-1-1h-2l-1 1h-1l-1 1v2l-1 2v1h-2v-1l-1-2v-2l-1-1h-1l-1-1h-1l-1-1-2-1-1-1-1-2-1-1v-1l-1-1v-1l-1-1h-2l-2-1h-1v-2h1l2-1h2l1-1v-1l1-1v-2l-1-1v-1l-1-1v-1l-2-2v-1l-1-1v-2h2l1 1h1l1 1 2 1 1 1h1l1 1h2l1-1h1l1-1v-2zm-3 11l-3 3v8l2 2 2 1h7l3-3v-1l1-2v-3l-1-1v-1l-3-3h-1l-1-1h-4l-1 1z"/>
		<path id="Path 1" class="s1" d="m19 1v-1h2v1zm-19 20v-2h1v2zm39 0v-2h1v2zm-20 19v-1h2v1zm-16-38h1v1h-1zm-1 1h1v1h-1zm3 0h1v1h-1zm2 1h1v1h-1zm-4 1h1v1h-1zm7 1h1v1h-1zm7 0h1v1h-1zm5 0h1v1h-1zm-18 1h1v1h-1zm8 0h1v1h-1zm3 0h1v1h-1zm-10 1h1v1h-1zm22 0h1v1h-1zm1 1h1v1h-1zm-22 1h1v1h-1zm23 0h1v1h-1zm1 1h1v1h-1zm-23 1h1v1h-1zm10 0h1v1h-1zm5 0h1v1h-1zm9 0h1v1h-1zm-16 1h1v1h-1zm9 0h1v1h-1zm-10 1h1v1h-1zm11 0h1v1h-1zm-18 1h1v1h-1zm6 0h1v1h-1zm13 0h1v1h-1zm-20 2h1v1h-1zm21 0h1v1h-1zm6 0h1v1h-1zm-27 5h1v1h-1zm27 0h1v1h-1zm-26 2h1v1h-1zm25 0h1v1h-1zm-24 2h1v1h-1zm24 1h1v1h-1zm-22 2h1v1h-1zm23 0h1v1h-1zm-20 2h1v1h-1zm21 0h1v1h-1zm-19 1h1v1h-1zm9 0h1v1h-1zm3 0h1v1h-1zm8 0h1v1h-1zm-18 1h1v1h-1zm5 0h1v1h-1zm7 0h1v1h-1zm7 1h1v1h-1zm-4 1h1v1h-1zm2 1h1v1h-1zm3 0h1v1h-1zm-1 1h1v1h-1zm-23-13h1v1h-1zm13 0h1v1h-1zm-12 1h1v1h-1zm11 0h1v1h-1zm-1 1h1v1h-1z"/>
	</g>
</svg>