<svg version="1.2" xmlns="http://www.w3.org/2000/svg" viewBox="0 0 144 144" width="144" height="144">
	<title>baron-200</title>
	<style>
		.s0 { opacity: .95;fill: currentColor }
	</style>
	<path id="Path 0" fill-rule="evenodd" class="s0" d="m62.5 0c3.4-0.1 5.5 0.4 6.5 1.5 0.8 0.9 2 1.6 2.5 1.6 0.5 0 1.7-0.7 2.5-1.6 1-1.1 3.2-1.6 6.5-1.6 4.3 0.1 7.9 1.5 25 10 11 5.5 22.7 11.7 26 13.9 3.3 2.2 7.5 5.7 9.4 7.8 3.2 3.7 3.3 4.2 2.9 9.9-0.2 3.4-1.5 8.2-2.8 11-1.3 2.8-4.7 9-7.5 14-3.1 5.3-6.5 13.3-8.4 19.5-1.8 5.8-5.5 16.1-8.2 23-2.8 7.2-7.1 15.9-10.1 20.5-2.9 4.4-7.2 9.4-9.6 11.2-3.2 2.5-5.2 3.3-8.5 3.3-2.6 0.1-5.1-0.6-6.5-1.7-1.5-1.2-2.7-3.8-4.7-12.8h-12l-0.8 5q-0.8 5-3.2 7.3c-1.7 1.5-3.8 2.2-6.5 2.2-2.2 0-5.2-0.6-6.8-1.4-1.5-0.7-4.7-3.5-7-6.2-2.4-2.7-5.9-7.6-7.7-10.9-1.9-3.3-5.1-10.5-7.3-16-2.2-5.5-5.4-15-7.2-21-2.1-7.1-5.1-14.4-8.5-20.5-3-5.2-6.5-12-7.9-15-2-4.2-2.6-7.1-2.6-12.2 0-6.1 0.3-7.1 2.9-10 1.6-1.8 7.5-6.1 13.2-9.5 5.7-3.4 17.4-9.6 25.9-13.7 12.7-6.2 16.4-7.5 20.5-7.6zm-47.9 33.7c-2.7 2.1-5.4 4.5-5.9 5.3-0.7 1-0.5 2.9 0.7 6 0.9 2.5 4.6 9.7 8.1 16 4.5 7.9 7.5 14.8 9.6 22 1.7 5.8 4.5 14.1 6.1 18.5 1.6 4.4 4.7 11.6 7 16 2.2 4.4 5.4 9.7 7.1 11.9 1.8 2.1 4.4 4.5 6 5.2l2.7 1.4v-16h32v16c4.3-2.1 7-4.7 8.8-7.1 1.9-2.4 5.4-8.7 7.9-13.9 2.6-5.2 7.1-17.2 10.2-26.5 4-11.9 7.3-20 11.3-27 3.1-5.5 6.7-12.4 8-15.3 1.8-4.1 2-5.8 1.2-7-0.6-1-3.3-3.4-6-5.5-2.7-2.1-14.5-8.6-26.2-14.5-11.6-5.9-21.4-10.5-21.7-10.2-0.3 0.3 4.6 9.2 11 19.8 9.7 16.2 11.3 19.4 10.3 20.8-0.7 0.8-3.5 2.6-6.3 4-2.7 1.3-6.3 2.4-8 2.4-1.7 0-4.6-1-6.5-2.2-1.9-1.3-4.8-4.7-6.5-7.5-1.7-2.9-3.2-5.2-3.5-5.2-0.3 0-1.8 2.3-3.5 5.2-1.7 2.8-4.6 6.2-6.5 7.5-1.9 1.2-4.8 2.2-6.5 2.2-1.6 0-5.2-1.1-8-2.4-2.7-1.4-5.6-3.2-6.2-4-1.1-1.4 0.5-4.6 10.2-20.6 6.3-10.4 11.5-19.2 11.5-19.5 0-0.3-0.4-0.5-0.8-0.5-0.4 0-10.2 4.7-21.8 10.5-11.5 5.7-23.1 12.1-25.8 14.2zm46-2.8c-4.1 6.9-7.6 13.1-7.6 13.8 0 0.7 0.8 1.3 1.8 1.3 0.9 0.1 2.4-0.7 3.3-1.7 0.9-1 2.8-3.9 4.3-6.6 1.9-3.4 3.5-5 5.9-5.7 1.8-0.5 4.5-0.6 6.2-0.2 2.2 0.6 4.2 2.6 7.2 7.3 2.9 4.3 4.9 6.4 6.3 6.4 1.1 0 2.1-0.4 2.3-0.9 0.1-0.4-3.8-7.5-8.8-15.7-5-8.2-9.3-14.9-9.7-14.9-0.4 0-1.4 1-2.2 2.2-0.8 1.3-4.8 7.9-9 14.7zm11.4 33.1c1.9 0 3.9 0.9 5.5 2.5 1.6 1.6 2.5 3.6 2.5 5.7 0 2.3-0.8 4.1-2.6 5.8-1.5 1.5-3.7 2.5-5.4 2.5-1.7 0-3.9-1-5.4-2.5-1.9-1.7-2.6-3.5-2.6-5.8 0.1-2.1 1-4.2 2.5-5.7 1.5-1.6 3.5-2.5 5.5-2.5zm-16.1 16c2.4 0 4.4 0.8 5.9 2.3 1.5 1.5 2.2 3.3 2.2 5.7 0 2.2-0.9 4.3-2.3 5.8-1.5 1.5-3.3 2.2-5.7 2.2-2.2 0-4.3-0.9-5.8-2.3-1.4-1.3-2.3-3.5-2.4-5.6-0.1-2.5 0.5-4.1 2.2-5.8 1.6-1.5 3.5-2.3 5.9-2.3zm32 0c2.4 0 4.4 0.8 5.9 2.3 1.5 1.5 2.2 3.3 2.2 5.7 0 2.2-0.9 4.3-2.3 5.8-1.5 1.5-3.3 2.2-5.7 2.2-2.2 0-4.3-0.9-5.8-2.3-1.4-1.3-2.3-3.5-2.4-5.6-0.1-2.5 0.5-4.1 2.2-5.8 1.6-1.5 3.5-2.3 5.9-2.3zm-15.9 16c1.9 0 3.9 0.9 5.5 2.5 1.6 1.6 2.5 3.6 2.5 5.7q0.1 3.3-2.4 5.7c-1.7 1.6-3.5 2.4-5.8 2.3-2-0.1-4.2-1.1-5.6-2.4-1.5-1.5-2.2-3.4-2.2-5.6 0.1-2.1 1-4.2 2.5-5.7 1.5-1.6 3.5-2.5 5.5-2.5z"/>
</svg>