<svg version="1.2" xmlns="http://www.w3.org/2000/svg" viewBox="0 0 150 150" width="150" height="150">
	<title>andmyaxe_large</title>
	<style>
		.s0 { opacity: .96;fill: #000000 } 
	</style>
	<path id="Path 0" class="s0" d="m43.3 21.3c-2.8 1.8-5.4 3.5-5.7 3.9-0.3 0.5 0.7 3.2 2.4 6l3 5.3-8.5 8.4c-7.7-4.5-10.3-5.9-10.7-5.9-0.5 0-2.4 2.8-4.4 6.3-2.7 4.8-3.2 6.4-2.2 7 0.7 0.4 3 1.7 5.1 2.7 2 1.1 3.9 2.3 4.1 2.7 0.3 0.5-0.3 3.4-1.2 6.6l-1.7 5.7h-12.5v15c10.1 0 13 0.3 13 0.7 0 0.5 0.7 2.9 1.5 5.5l1.5 4.8c-8.5 4.7-11 6.2-11 6.5 0 0.3 1.6 3.2 3.5 6.5 1.9 3.3 3.7 6 4 6 0.3 0 2.9-1.3 5.8-3l5.2-3 8.4 8.5c-4.5 7.8-5.9 10.3-5.9 10.8 0 0.4 2.7 2.4 6.1 4.4 5.2 3.2 6.3 3.6 7 2.3 0.6-0.8 1.9-3.2 2.9-5.3 1.1-2 2.3-3.9 2.8-4.1 0.4-0.3 3.3 0.3 6.5 1.2l5.7 1.7v12.5h14v-13c10.8-2.7 12.2-2.7 12.9-1.8 0.5 0.7 1.6 2.6 2.4 4.3 0.9 1.7 2 3.6 2.4 4.3 0.6 1 2.2 0.5 7.1-2.2 3.4-2 6.2-3.8 6.2-4.1 0-0.3-1.3-2.9-3-5.8l-2.9-5.2 8.4-8.5c8.1 4.7 10.7 6 11 6 0.3 0 2.1-2.8 4-6.3 2-3.4 3.4-6.3 3.3-6.3-0.2-0.1-2.7-1.6-5.5-3.3l-5.3-3.1c-18.5 4.6-22.6 6.2-25.5 8.4-2.2 1.7-6.5 4.1-9.5 5.3-4.1 1.7-7.5 2.3-13.5 2.3-6.3 0-9.1-0.5-13-2.3-2.7-1.3-6.5-3.4-8.3-4.8-1.9-1.3-4.9-4.4-6.7-6.9-1.9-2.5-4.1-6.5-5-9-1.1-2.9-1.6-7.3-1.6-12.5 0.1-6.8 0.6-8.9 3.1-14 1.6-3.3 3.9-7.1 5-8.5 1.1-1.4 3.4-7.6 5-13.8l3-11.2c-5-8.5-6.7-11-7-10.9-0.3 0-2.8 1.5-5.7 3.2zm24.9 11.7l-6.2 24c9.7 8.6 12.7 11 13 11 0.3 0 3.3-2.5 6.8-5.5l6.2-5.5c-9.3-37.2-12.4-48-12.9-48-0.4 0-3.5 10.8-6.9 24zm29-9.5l-3.2 5.5c4.7 17.4 6.2 22.6 6.3 22.7 0.1 0.2 5.3 1.6 11.5 3.3l11.2 3c8.1-4.8 10.6-6.3 10.8-6.4 0.1 0-1.3-2.9-3.3-6.3-1.9-3.5-3.8-6.3-4.2-6.3-0.5 0-3 1.4-5.8 3l-5 2.9-8.5-8.4c4.7-8.1 6-10.7 6-11 0-0.3-2.7-2.1-6-4-3.3-1.9-6.1-3.5-6.3-3.5-0.2 0-1.8 2.5-3.5 5.5zm-8.2 46.6l-5.5 6c-1.9-4-3.4-5.6-4.5-6.1-1.1-0.5-3.1-1-4.5-1-1.4 0-3.7 1.1-5 2.5-1.6 1.5-2.5 3.7-2.5 5.5 0 1.9 0.9 3.9 2.5 5.5 1.6 1.6 3.6 2.5 5.5 2.5 2 0 4-0.9 5.5-2.5 1.4-1.4 2.5-3.3 2.5-4.3 0-1.1 2.1 0.6 5.9 4.8l5.9 6.5c36.2-9 47-12 47.4-12.3 0.4-0.4-9.2-3.3-21.5-6.4-12.2-3.2-23.1-6-24.2-6.2-1.4-0.3-3.5 1.2-7.5 5.5z"/>
</svg>