<svg version="1.2" xmlns="http://www.w3.org/2000/svg" viewBox="0 0 40 40" width="40" height="40">
	<title>40px-LoR_Tutorial_Plunder_icon</title>
	<style>
		.s0 { opacity: .99;fill: #080808 } 
	</style>
	<path id="Path 0" class="s0" d="m16.3 6c-2.9 1.8-3.2 2.3-2.5 4.8 0.7 2.1 1.5 2.8 4.1 3 1.9 0.2 4-0.3 4.7-1 0.8-0.7 1.5-2.4 1.7-3.8 0.1-1.3-0.5-3-1.3-3.7-0.8-0.7-1.9-1.3-2.5-1.3-0.6 0-2.5 0.9-4.3 2zm-3.2 11.6c-1.2 1.5-2.2 3.4-2.1 4.3 0 0.9 1.1 2 2.3 2.6 1.8 0.8 2.4 2 2.6 5 0.1 2.2 0.5 4.6 0.7 5.3 0.3 0.8 1.5 0.2 3.5-1.8 2.4-2.4 3.6-2.9 6-2.5 1.6 0.3 4.4 0.8 6 1.3 2.2 0.5 3 0.3 3-0.6 0-0.7-1.4-1.2-3.3-1.3-1.7 0-2.6-0.2-2-0.5 1-0.3 1-0.7 0-2-0.6-1-2.3-4-3.7-6.8-2.3-4.8-2.8-5.1-6.6-5.4-3.5-0.3-4.5 0.1-6.4 2.4zm15.3 2c-1.1 0.3-1.1 0.9-0.1 2.8 1 1.8 1.9 2.4 3.8 2.1 1.4-0.2 3-0.9 3.5-1.5 0.7-0.8 0.4-1.6-1-2.6-1.1-0.8-2.7-1.4-3.5-1.3-0.8 0-2.1 0.2-2.8 0.5zm-23.7 6.4c-0.3 0.6 0.1 1.7 0.8 2.5 0.6 0.9 2.2 1.6 3.5 1.5 1.2 0 2.9-0.2 3.7-0.5 0.8-0.3 1.5-1.2 1.5-2 0-0.8-0.7-1.7-1.5-2-0.8-0.3-2.8-0.5-4.5-0.5-1.6 0-3.1 0.4-3.5 1zm28.2-0.3c-1.5 0.2-2.5 0.7-2.2 1.3 0.3 0.6 1.6 1 3 1 1.4 0 2.7-0.4 3-1 0.3-0.6 0.2-1.1-0.3-1.3-0.4-0.1-1.9-0.1-3.5 0zm-27.4 6.8c0.2 0.5 1.9 1.1 3.8 1.3 2.3 0.2 3.8-0.2 4.5-1.2 0.9-1.5 0.5-1.6-3.8-1.4-2.6 0.2-4.7 0.7-4.5 1.3zm16 1c-0.4 0.9-0.4 2 0.2 2.6 0.5 0.5 2.8 0.8 5 0.7 3.2-0.2 4-0.7 4-2.3 0-1.6-0.8-2.1-4.2-2.3-3.1-0.2-4.4 0.1-5 1.3zm-16.7 1.3c-0.3 0.4-0.3 1-0.1 1.4 0.3 0.5 2.5 0.8 5 0.8 2.5 0 4.5-0.3 4.5-0.8 0-0.4-1-0.7-2.3-0.6-1.2 0-3.2-0.3-4.4-0.7-1.2-0.4-2.4-0.5-2.7-0.1z"/>
</svg>