<svg version="1.2" xmlns="http://www.w3.org/2000/svg" viewBox="0 0 100 128" width="100" height="128">
	<title>rune</title>
	<style>
		.s0 { opacity: 1;fill: currentColor }
		.s1 { opacity: .5;fill: none;stroke:currentColor;stroke-miterlimit:100 }
	</style>
	<g id="Layer 1">
		<path id="Path 0" class="s0" d="m37.5 13.8c-1.5 2.6-5.1 7.8-7.9 11.7-2.7 3.9-8.9 12-13.6 18-4.7 6-9.4 12.2-10.3 13.8-0.9 1.5-1.7 2.9-1.7 3.2 0 0.3 3.9 3.1 8.8 6.3 4.8 3.3 12.7 9.2 17.7 13.3 5 4.1 10 8.7 11.3 10.2 1.2 1.5 2.7 2.7 3.2 2.7 0.5 0 3.4-2.6 6.3-5.8 2.8-3.2 8.2-9.7 11.9-14.5 3.9-5 6.6-9.3 6.3-10.2-0.3-0.8-3.2-3.6-6.6-6.3-3.3-2.6-7.9-5.9-10.2-7.5-2.3-1.5-5.1-2.8-6.2-2.7-1.1 0-3.2 1.2-4.6 2.7-1.5 1.6-3.2 3.8-3.8 5-0.6 1.3-1.1 3-1.1 3.8 0 0.8 0.9 1.7 2 2 1.1 0.3 3.5-0.2 5.2-1.1 1.9-0.9 4.4-1.4 5.8-1.1 1.4 0.3 3.7 1.7 5.2 3.1 1.6 1.4 2.8 3.6 2.8 4.8 0 1.5-2.4 4.6-6.4 8.5-3.4 3.5-6.8 6.3-7.4 6.3-0.7 0-5.1-3.3-10-7.4-4.8-4-10.2-8.7-12-10.5-1.7-1.7-3.2-3.4-3.2-3.9 0-0.4 3.1-5.2 7-10.7 3.9-5.5 8.9-13.6 11-18 2.8-5.7 4.1-9.8 4.5-14.3 0.3-3.4 0.2-6.2-0.3-6.2-0.4 0-2.1 2.1-3.7 4.7zm22.6 23.2c-0.1 0.6 3.6 3.9 8.1 7.2 4.6 3.4 10.2 8 12.6 10.3 2.3 2.3 4.2 4.8 4.2 5.6 0 0.8-1.3 3.5-2.9 6-1.5 2.5-8.1 11.5-14.5 20-6.3 8.5-12.8 18-14.3 21q-2.7 5.5-3 11.3c-0.2 3.3 0.1 5.7 0.7 5.7 0.5 0 4.9-6 9.7-13.3 4.7-7.2 11.4-17 14.8-21.7 3.5-4.7 9.2-12.1 12.9-16.5 3.6-4.4 7.4-9.4 8.3-11.2 1.7-3.1 1.7-3.3-0.2-5.4-1.1-1.2-4-3.5-6.5-5.2-2.5-1.7-9.2-5.4-15-8.3-5.8-2.9-11.5-5.5-12.7-5.9-1.2-0.4-2.2-0.2-2.2 0.4z"/>
		<path id="Stroke" class="s1" d="m37.5 13.8c-1.5 2.6-5.1 7.8-7.9 11.7-2.7 3.9-8.9 12-13.6 18-4.7 6-9.4 12.2-10.3 13.8-0.9 1.5-1.7 2.9-1.7 3.2 0 0.3 3.9 3.1 8.8 6.3 4.8 3.3 12.7 9.2 17.7 13.3 5 4.1 10 8.7 11.3 10.2 1.2 1.5 2.7 2.7 3.2 2.7 0.5 0 3.4-2.6 6.3-5.8 2.8-3.2 8.2-9.7 11.9-14.5 3.9-5 6.6-9.3 6.3-10.2-0.3-0.8-3.2-3.6-6.6-6.3-3.3-2.6-7.9-5.9-10.2-7.5-2.3-1.5-5.1-2.8-6.2-2.7-1.1 0-3.2 1.2-4.6 2.7-1.5 1.6-3.2 3.8-3.8 5-0.6 1.3-1.1 3-1.1 3.8 0 0.8 0.9 1.7 2 2 1.1 0.3 3.5-0.2 5.2-1.1 1.9-0.9 4.4-1.4 5.8-1.1 1.4 0.3 3.7 1.7 5.2 3.1 1.6 1.4 2.8 3.6 2.8 4.8 0 1.5-2.4 4.6-6.4 8.5-3.4 3.5-6.8 6.3-7.4 6.3-0.7 0-5.1-3.3-10-7.4-4.8-4-10.2-8.7-12-10.5-1.7-1.7-3.2-3.4-3.2-3.9 0-0.4 3.1-5.2 7-10.7 3.9-5.5 8.9-13.6 11-18 2.8-5.7 4.1-9.8 4.5-14.3 0.3-3.4 0.2-6.2-0.3-6.2-0.4 0-2.1 2.1-3.7 4.7zm22.6 23.2c-0.1 0.6 3.6 3.9 8.1 7.2 4.6 3.4 10.2 8 12.6 10.3 2.3 2.3 4.2 4.8 4.2 5.6 0 0.8-1.3 3.5-2.9 6-1.5 2.5-8.1 11.5-14.5 20-6.3 8.5-12.8 18-14.3 21q-2.7 5.5-3 11.3c-0.2 3.3 0.1 5.7 0.7 5.7 0.5 0 4.9-6 9.7-13.3 4.7-7.2 11.4-17 14.8-21.7 3.5-4.7 9.2-12.1 12.9-16.5 3.6-4.4 7.4-9.4 8.3-11.2 1.7-3.1 1.7-3.3-0.2-5.4-1.1-1.2-4-3.5-6.5-5.2-2.5-1.7-9.2-5.4-15-8.3-5.8-2.9-11.5-5.5-12.7-5.9-1.2-0.4-2.2-0.2-2.2 0.4z"/>
	</g>
</svg>