<svg version="1.2" xmlns="http://www.w3.org/2000/svg" viewBox="0 0 32 41" width="32" height="41">
	<title>Image Layer copy 3</title>
	<style>
		.s0 { fill: #000000 } 
	</style>
	<path id="Path 0" class="s0" d="m21.5 14.5c2.8 2.1 5.1 4 5.3 4.2 0.1 0.2-2.3 3.4-5.3 7.3-3.3 4.2-5.5 8-5.5 9.5 0 1.4 0.2 2.5 0.5 2.5 0.3 0 1.6-1.9 2.9-4.3 1.3-2.3 4.5-6.7 7.1-9.7l4.7-5.5c-3.6-2.8-5.8-4.2-7.2-4.9-1.4-0.7-3.6-1.7-5-2.1-1.7-0.5-0.9 0.4 2.5 3zm-11.5-8.9c-1 2.2-3.4 5.9-5.4 8.4-2.1 2.5-3.6 4.8-3.4 5.1 0.2 0.4 3.2 2.9 6.8 5.7l6.5 5c5.8-7.6 7.5-9.9 7.5-10.1 0.1-0.1-1.8-1.6-4.1-3.2l-4.1-3c-3.5 4.4-3.6 5.2-2.6 5.7 0.7 0.4 1.9 0.1 2.6-0.5 1-0.9 1.6-0.9 2.7 0.3 1.2 1.3 1.1 1.8-0.6 3.7l-1.9 2.3c-6.5-4.9-7.7-6.5-7.3-7.3 0.4-0.6 2-2.8 3.5-4.7 2.4-3 2.8-4.1 2.2-7.4l-0.6-3.9z"/>
</svg>