<svg version="1.2" xmlns="http://www.w3.org/2000/svg" viewBox="0 0 100 100" width="100" height="100">
	<title>icon-leaver-v2 (3)</title>
	<style>
		.s0 { opacity: 1;fill: #000000 } 
	</style>
	<g id="Background">
		<path id="Path 0" fill-rule="evenodd" class="s0" d="m51 0.3c37.8 0.2 39.6 0.3 42.2 2.2 1.5 1.1 3.6 3.7 4.7 5.8 2 3.6 2.1 4.9 1.8 43-0.2 37.4-0.3 39.3-2.2 41.9-1.1 1.5-3.8 3.7-6 4.8-3.8 1.9-6 2-41.5 2-35.5 0-37.7-0.1-41.5-2-2.2-1.1-4.9-3.3-6-4.8-1.9-2.6-2-4.5-2.3-41.9-0.2-33.3 0-39.8 1.3-42.3 0.8-1.7 2.4-4 3.6-5.2 1.2-1.2 3.1-2.5 4.3-2.9 1.1-0.5 19.9-0.7 41.6-0.6zm-41.2 49.8c0.1 33.5 0.3 36.5 1.9 38.1 1.6 1.6 5.1 1.8 38.3 1.8 33.7 0.1 36.6-0.1 38.2-1.7 1.6-1.6 1.8-5.1 1.8-38.3 0.1-33.7-0.1-36.6-1.7-38.2-1.6-1.6-5.1-1.8-38.4-1.8-34.1 0-36.7 0.1-38.4 1.8-1.7 1.7-1.9 4.2-1.7 38.3zm39.5-32c17.2-0.1 22.8 0.2 23.3 1.2 0.4 0.7-9.5 11.4-25.2 27.1-19.8 19.7-26.3 25.7-27.7 25.2-1.6-0.5-1.7-2.5-1.5-24 0.3-21 0.5-23.6 2.1-25.6 1-1.3 2.8-2.6 4-3.1 1.2-0.4 12.4-0.8 24.9-0.8zm32.3 11c0.6 0.6 1 9.1 1 23.4 0 21.1-0.1 22.5-2.1 25.2-1.1 1.5-3.6 3.3-5.5 4-2.2 0.8-10.9 1.2-24.6 1.2-16.1 0.1-21.5-0.2-21.9-1.1-0.4-0.8 9.5-11.4 25.7-27.5 18.2-18.2 26.6-25.9 27.4-25.2z"/>
	</g>
</svg>