<svg version="1.2" xmlns="http://www.w3.org/2000/svg" viewBox="0 0 336 336" width="336" height="336">
	<title>icon-leaver-v2</title>
	<style>
		.s0 { opacity: .98;fill: #000000 } 
	</style>
	<path id="Path 0" fill-rule="evenodd" class="s0" d="m269.5 23.5l6.5 2.8c3.6 1.6 8.7 4.5 11.3 6.5 2.7 2 7.3 6 10.2 8.7 2.9 2.8 7.2 7.9 9.4 11.5 2.3 3.6 4.9 8.8 5.7 11.5 1.2 4.2 1.4 20 1.4 203l-2.3 6.5c-1.3 3.6-4.1 9.2-6.4 12.5-2.2 3.3-7.4 9.2-11.4 13-4.1 3.9-9.7 8.4-12.4 10-2.7 1.6-8.4 3.7-12.5 4.7-6.9 1.6-15.4 1.7-195.5 1.8l-8-2.4c-4.4-1.4-10.5-4.2-13.6-6.3-3.1-2.1-8.1-6-11-8.6-3-2.7-6.9-6.7-8.6-9-1.8-2.3-4.3-6.2-5.6-8.7-1.3-2.5-2.9-6.5-3.6-9-0.9-3.4-1.1-29.2-0.6-205.5l2.8-6c1.6-3.3 3.9-7.2 5-8.8 1.2-1.5 4.2-5.2 6.7-8.2 2.5-3 7.2-7.5 10.5-10.1 3.3-2.5 7.7-5.5 9.8-6.5 2-1 5.4-2.3 7.4-2.8 2.2-0.5 46.4-0.9 204.8-0.6zm-190.5 20.4c-3 0.7-7.4 2.2-9.7 3.4-2.3 1.2-6.8 4.2-10 6.7-3.4 2.7-7 6.6-8.6 9.5-1.6 2.8-4.1 8.2-5.6 12-1.6 3.8-3.2 9.3-3.6 12-0.5 2.8-0.7 40.3-0.6 83.5 0.2 64.3 0.5 79.7 1.7 85 0.8 3.6 1.9 7.9 2.6 9.5 0.6 1.6 3.6 6.3 6.7 10.4 3.1 4 7.2 8.3 9.1 9.4 1.9 1.2 6 3.3 9 4.8 3 1.5 8.4 3.5 12 4.5 6 1.7 12.1 1.8 86.5 1.7 68.8-0.1 80.9-0.4 86.7-1.7 3.8-0.9 9.2-2.7 12-4.1 2.9-1.3 7.9-4.9 11-8 4.2-3.9 6.9-7.8 9.8-13.8 2.2-4.5 4.8-11.8 5.7-16.2 1.6-7.3 1.8-15.2 1.8-87 0-78.5 0-79-2.2-86-1.2-3.8-4.1-9.9-6.5-13.5-2.4-3.5-5.9-8-7.8-9.8-1.9-1.9-7-5.2-11.3-7.3-4.2-2.1-10.5-4.6-14-5.5-5.3-1.3-17-1.6-82.7-1.8-42.1-0.2-78.8 0-81.5 0.4-2.8 0.4-7.5 1.3-10.5 1.9zm80.8 30.5c52.4 0.1 60.4 0.3 61.2 1.6 0.6 0.8 1.3 2.6 1.6 4 0.5 1.9 0 3.1-2 5-1.5 1.4-6.6 6.4-11.4 11.2-4.8 4.8-19.7 19.8-33.2 33.2-13.5 13.5-25.7 25.8-27.1 27.3-1.5 1.5-7.8 7.8-14 14-6.3 6.1-20.8 20.6-32.4 32.2-13.5 13.6-21.7 21.1-23 21.1-1.1 0-2.9-0.6-4-1.4-2-1.3-2-2.5-1.9-133.1l2.7-5.8c2.1-4.4 3.3-5.8 5.4-6.3 1.6-0.4 3.2-1 3.8-1.5 0.5-0.4 3.9-1 7.5-1.2 3.6-0.3 33.6-0.4 66.8-0.3zm94.4 32.6c0.5 0 1.9 0.6 3.3 1.2 1.3 0.7 2.7 2.4 3 3.8 0.3 1.4 1 15.3 1.5 31 0.5 15.7 0.9 45 0.9 65.2 0.1 34.6 0 37.1-1.9 42.5-1.2 3.2-2.8 6.6-3.8 7.7-0.9 1-3.1 2.5-4.7 3.4-2.7 1.5-10 1.6-141 1.1l-2.8-3c-1.5-1.6-2.7-3.4-2.7-3.9 0-0.6 2.5-3.8 5.6-7.3 3.1-3.4 8.6-9.2 12.3-12.8 3.6-3.7 7-7.1 7.6-7.7 0.5-0.6 10.7-10.7 22.5-22.5 11.8-11.8 22-22.1 22.6-22.8 0.6-0.8 2.7-2.9 4.7-4.7 2.1-1.7 3.7-3.7 3.7-4.2 0-0.6 0.6-1 1.2-1 0.7 0 4.8-3.7 9.2-8.2 4.3-4.6 8.1-8.7 8.5-9.1 0.3-0.4 4.3-4.2 8.8-8.5 4.5-4.2 8.3-8.2 8.3-8.7 0.1-0.6 1.8-2.4 3.9-4 2-1.7 6.9-6.5 10.7-10.8 3.8-4.3 7.2-7.7 7.6-7.7 0.5 0 2.9-2 5.5-4.5 2.7-2.5 5.1-4.5 5.5-4.5z"/>
</svg>