<svg version="1.2" xmlns="http://www.w3.org/2000/svg" viewBox="0 0 136 136" width="136" height="136">
	<title>social-icon-leaver (3)</title>
	<style>
		.s0 { opacity: .99;fill: #000000 } 
	</style>
	<path id="Path 0" fill-rule="evenodd" class="s0" d="m74.5 5h27c20.5 0 27.3 0.3 28.3 1.2 0.9 1 1.2 7.8 1.2 55.3l-16 16v17.5c0 12.4-0.3 17.9-1.2 18.8-0.9 0.9-6 1.2-36.3 1.2l-16 16h-27c-20.5 0-27.3-0.3-28.3-1.2-0.9-1-1.2-7.8-1.2-55.3l16-16v-17.5c0-12.4 0.3-17.9 1.2-18.8 0.9-0.9 6-1.2 36.3-1.2zm-11 26.9l-31.5 0.1v31.5l-15.9 16-0.1 40.5h40.5l16-15.9 31.5-0.1v-30.5l16.1-16-0.1-41.5h-40.5zm22.5-6.9l24.5 0.5 0.4 9.5c0.1 5.2 0 11.1-0.4 13-0.6 2.9-5.7 8.6-60 63.1l-25-0.6-0.5-23.5 5.2-5.7c2.8-3.2 16.5-17.2 30.4-31.1zm-37.7 15.1c3.8 0 6.8 0.3 6.8 0.8 0 0.4-3 3.7-6.7 7.5-3.7 3.7-7.1 6.7-7.5 6.7-0.4 0-0.8-3.1-0.9-6.8-0.1-3.8 0.2-7.2 0.6-7.5 0.5-0.4 4-0.7 7.7-0.7zm47.1 41c0.4 0 0.7 3.3 0.2 14.5l-7.2 0.3c-4 0.1-7.4-0.1-7.5-0.5-0.1-0.4 2.9-3.8 6.7-7.5 3.9-3.7 7.3-6.8 7.8-6.8z"/>
</svg>