<svg version="1.2" xmlns="http://www.w3.org/2000/svg" viewBox="0 0 24 24" width="24" height="24">
	<title>icons8-recycle-bin-24</title>
	<style>
		.s0 { opacity: .2;fill: currentColor } 
		.s1 { opacity: .9;fill: currentColor } 
		.s2 { opacity: 1;fill: currentColor } 
		.s3 { opacity: .8;fill: currentColor } 
		.s4 { opacity: .3;fill: currentColor } 
		.s5 { opacity: .7;fill: currentColor } 
		.s6 { opacity: .4;fill: currentColor } 
		.s7 { opacity: .1;fill: currentColor } 
		.s8 { opacity: .5;fill: currentColor } 
		.s9 { opacity: .6;fill: currentColor } 
	</style>
	<g id="Background">
		<path id="Path 0" class="s0" d="m8 3h1v1h-1z"/>
		<path id="Path 1" class="s1" d="m9 2h1v1h-1z"/>
		<path id="Path 2" class="s2" d="m10 3v-1h4v1z"/>
		<path id="Path 3" class="s1" d="m14 2h1v1h-1z"/>
		<path id="Path 4" class="s0" d="m15 3h1v1h-1z"/>
		<path id="Path 5" class="s3" d="m9 3h1v1h-1z"/>
		<path id="Path 6" class="s3" d="m14 3h1v1h-1z"/>
		<path id="Path 7" class="s4" d="m8 4h1v1h-1z"/>
		<path id="Path 8" class="s5" d="m9 4h1v1h-1z"/>
		<path id="Path 9" class="s5" d="m14 4h1v1h-1z"/>
		<path id="Path 10" class="s4" d="m15 4h1v1h-1z"/>
		<path id="Path 11" class="s1" d="m2 5h1v1h-1z"/>
		<path id="Path 12" class="s2" d="m3 6v-1h2v1h-1z"/>
		<path id="Path 13" class="s2" d="m5 6v-1h3 1 1 4 1 1 2v1z"/>
		<path id="Path 14" class="s2" d="m18 6v-1h3v1h-1z"/>
		<path id="Path 15" class="s3" d="m21 5h1v1h-1z"/>
		<path id="Path 16" class="s2" d="m3 6h1v1h-1z"/>
		<path id="Path 17" class="s5" d="m16 17h1v1h-1z"/>
		<path id="Path 18" class="s2" d="m13 18v-1h2 1v1z"/>
		<path id="Path 19" class="s3" d="m12 17h1v1h-1z"/>
		<path id="Path 20" class="s3" d="m9 17h1v1h-1z"/>
		<path id="Path 21" class="s2" d="m8 17h1v1h-1z"/>
		<path id="Path 22" class="s5" d="m7 17h1v1h-1z"/>
		<path id="Path 23" class="s1" d="m16 16h1v1h-1z"/>
		<path id="Path 24" class="s0" d="m15 16h1v1h-1z"/>
		<path id="Path 25" class="s0" d="m8 16h1v1h-1z"/>
		<path id="Path 26" class="s1" d="m7 16h1v1h-1z"/>
		<path id="Path 27" class="s6" d="m16 15h1v1h-1z"/>
		<path id="Path 28" class="s3" d="m15 15h1v1h-1z"/>
		<path id="Path 29" class="s6" d="m7 15h1v1h-1z"/>
		<path id="Path 30" class="s7" d="m15 14h1v1h-1z"/>
		<path id="Path 31" class="s6" d="m9 14h1v1h-1z"/>
		<path id="Path 32" class="s3" d="m8 15v-1h1v1 1h-1z"/>
		<path id="Path 33" class="s3" d="m9 13h1v1h-1z"/>
		<path id="Path 34" class="s0" d="m8 13h1v1h-1z"/>
		<path id="Path 35" class="s8" d="m14 12h1v1h-1z"/>
		<path id="Path 36" class="s6" d="m13 12h1v1h-1z"/>
		<path id="Path 37" class="s7" d="m14 11h1v1h-1z"/>
		<path id="Path 38" class="s1" d="m13 11h1v1h-1z"/>
		<path id="Path 39" class="s0" d="m10 11h1v1h-1z"/>
		<path id="Path 40" class="s8" d="m13 10h1v1h-1z"/>
		<path id="Path 41" class="s5" d="m12 10h1v1h-1z"/>
		<path id="Path 42" class="s5" d="m11 10h1v1h-1z"/>
		<path id="Path 43" class="s8" d="m10 10h1v1h-1z"/>
		<path id="Path 44" class="s3" d="m12 9h1v1h-1z"/>
		<path id="Path 45" class="s3" d="m11 9h1v1h-1z"/>
		<path id="Path 46" class="s0" d="m19 8h1v1h-1z"/>
		<path id="Path 47" class="s0" d="m4 8h1v1h-1z"/>
		<path id="Path 48" class="s2" d="m20 6h1v1h-1z"/>
		<path id="Path 49" class="s1" d="m3 7h1v1h-1z"/>
		<path id="Path 50" class="s1" d="m20 7h1v1h-1z"/>
		<path id="Path 51" class="s3" d="m3 8h1v1h-1z"/>
		<path id="Path 52" class="s3" d="m20 8h1v1h-1z"/>
		<path id="Path 53" class="s3" d="m3 9h1v1h-1z"/>
		<path id="Path 54" class="s4" d="m4 9h1v1h-1z"/>
		<path id="Path 55" class="s4" d="m19 9h1v1h-1z"/>
		<path id="Path 56" class="s3" d="m20 9h1v1h-1z"/>
		<path id="Path 57" class="s5" d="m3 10h1v1h-1z"/>
		<path id="Path 58" class="s4" d="m4 10h1v1h-1z"/>
		<path id="Path 59" class="s4" d="m19 10h1v1h-1z"/>
		<path id="Path 60" class="s5" d="m20 10h1v1h-1z"/>
		<path id="Path 61" class="s9" d="m3 11h1v1h-1z"/>
		<path id="Path 62" class="s6" d="m4 11h1v1h-1z"/>
		<path id="Path 63" class="s6" d="m19 11h1v1h-1z"/>
		<path id="Path 64" class="s9" d="m20 11h1v1h-1z"/>
		<path id="Path 65" class="s9" d="m3 12h1v1h-1z"/>
		<path id="Path 66" class="s6" d="m4 12h1v1h-1z"/>
		<path id="Path 67" class="s6" d="m19 12h1v1h-1z"/>
		<path id="Path 68" class="s9" d="m20 12h1v1h-1z"/>
		<path id="Path 69" class="s8" d="m3 13h1v1h-1z"/>
		<path id="Path 70" class="s8" d="m4 13h1v1h-1z"/>
		<path id="Path 71" class="s8" d="m19 13h1v1h-1z"/>
		<path id="Path 72" class="s8" d="m20 13h1v1h-1z"/>
		<path id="Path 73" class="s6" d="m3 14h1v1h-1z"/>
		<path id="Path 74" class="s9" d="m4 14h1v1h-1z"/>
		<path id="Path 75" class="s9" d="m19 14h1v1h-1z"/>
		<path id="Path 76" class="s6" d="m20 14h1v1h-1z"/>
		<path id="Path 77" class="s6" d="m3 15h1v1h-1z"/>
		<path id="Path 78" class="s9" d="m4 15h1v1h-1z"/>
		<path id="Path 79" class="s9" d="m19 15h1v1h-1z"/>
		<path id="Path 80" class="s6" d="m20 15h1v1h-1z"/>
		<path id="Path 81" class="s4" d="m3 16h1v1h-1z"/>
		<path id="Path 82" class="s5" d="m4 16h1v1h-1z"/>
		<path id="Path 83" class="s5" d="m19 16h1v1h-1z"/>
		<path id="Path 84" class="s4" d="m20 16h1v1h-1z"/>
		<path id="Path 85" class="s4" d="m3 17h1v1h-1z"/>
		<path id="Path 86" class="s3" d="m4 17h1v1h-1z"/>
		<path id="Path 87" class="s3" d="m19 17h1v1h-1z"/>
		<path id="Path 88" class="s4" d="m20 17h1v1h-1z"/>
		<path id="Path 89" class="s0" d="m3 18h1v1h-1z"/>
		<path id="Path 90" class="s3" d="m4 18h1v1h-1z"/>
		<path id="Path 91" class="s3" d="m19 18h1v1h-1z"/>
		<path id="Path 92" class="s0" d="m20 18h1v1h-1z"/>
		<path id="Path 93" class="s1" d="m4 19h1v1h-1z"/>
		<path id="Path 94" class="s1" d="m19 19h1v1h-1z"/>
		<path id="Path 95" class="s2" d="m4 20h1v1h-1z"/>
		<path id="Path 96" class="s2" d="m19 20h1v1h-1z"/>
		<path id="Path 97" class="s9" d="m4 21h1v1h-1z"/>
		<path id="Path 98" class="s1" d="m5 21h1v1h-1z"/>
		<path id="Path 99" class="s2" d="m6 22v-1h12v1z"/>
		<path id="Path 100" class="s1" d="m18 21h1v1h-1z"/>
		<path id="Path 101" class="s9" d="m19 21h1v1h-1z"/>
	</g>
</svg>