<svg version="1.2" xmlns="http://www.w3.org/2000/svg" viewBox="0 0 184 156" width="184" height="156">

	<style>
		.s0 { opacity: .98;fill: #000000 }
		.s1 { opacity: .5;fill: none;stroke: #000000;stroke-miterlimit:100 }
	</style>
	<g id="Layer 1">
		<path id="Path 0" fill-rule="evenodd" class="s0" d="m93 0.3c23.8 0.2 25.7 0.3 28.2 2.2 1.5 1.1 3.6 3.6 4.7 5.5 1.1 1.9 2 5 2.1 10h20.3c19.3 0 20.4 0.1 24.7 2.3 2.5 1.3 5.8 4.2 10.5 10.9v37.4l-5.5 8.4-0.5 65.8-3 4.3c-1.7 2.4-5 5.3-12 8.9h-141l-4.5-2.3c-2.5-1.3-5.8-4.2-10.5-10.9l-0.5-65.8-5.5-8.4v-37.4l3.3-4.3c1.8-2.3 5.1-5.3 7.5-6.6 4-2.2 5-2.3 44.7-2.3v-3.3c0-1.7 1-4.8 2.1-6.7 1.2-1.9 3.1-4.2 4.3-5 1.1-0.8 2.7-1.8 3.6-2.2 0.8-0.4 13-0.6 27-0.5zm-27 10.3c-1.2 1.5-2.2 3.7-2.1 5l0.1 2.4h56c0-3.9-1.1-6.1-2.5-7.5l-2.5-2.5h-46.9zm-55.1 19.8c-2.2 2.6-2.3 3.3-2.3 19.6v16.9c6.5 6.5 6.6 6.6 17.7 6.9l11.3 0.4c1.1-7.4 2.3-9.6 4.4-11.5 2.5-2.2 4-2.7 8.1-2.7 4 0 5.6 0.5 8 2.7 2.1 1.9 3.3 4.1 3.8 7l0.7 4.3h59c1.1-7.2 2.3-9.4 4.4-11.3 2.5-2.2 4-2.7 8.1-2.7 4 0 5.6 0.5 8 2.7 2.2 1.9 3.3 4.1 3.8 7.1l0.7 4.4c22.4-0.7 22.5-0.8 25.7-4l3.3-3.3v-33.9l-6.6-6.5c-117.4-0.3-152.4-0.1-153.6 0.4-1.2 0.4-3.2 2-4.5 3.5zm35.4 48.6l0.3 8.5h7v-19c-5.3-0.5-6.7-0.2-7 0.7-0.3 0.8-0.5 5.2-0.3 9.8zm84 0l0.3 8.5h7v-19c-5.3-0.5-6.7-0.2-7 0.7-0.3 0.8-0.5 5.2-0.3 9.8zm-115.7 61.9l6.5 6.6h141.9l6.6-6.6 0.6-59.4-24.1 0.5c0 5.9-0.9 7.9-2.9 10.2-2.7 3-3.4 3.3-9.1 3.3-5.7 0-6.4-0.3-9.1-3.3-2.1-2.3-2.9-4.3-2.9-6.7v-3.5h-60c0 5.9-0.9 7.9-2.9 10.2-2.7 3-3.4 3.3-9.1 3.3-5.7 0-6.4-0.3-9.1-3.3-2.1-2.3-2.9-4.3-2.9-6.7v-3.5l-24.1-0.5z"/>
		<path id="Stroke" fill-rule="evenodd" class="s1" d="m93 0.3c23.8 0.2 25.7 0.3 28.2 2.2 1.5 1.1 3.6 3.6 4.7 5.5 1.1 1.9 2 5 2.1 10h20.3c19.3 0 20.4 0.1 24.7 2.3 2.5 1.3 5.8 4.2 10.5 10.9v37.4l-5.5 8.4-0.5 65.8-3 4.3c-1.7 2.4-5 5.3-12 8.9h-141l-4.5-2.3c-2.5-1.3-5.8-4.2-10.5-10.9l-0.5-65.8-5.5-8.4v-37.4l3.3-4.3c1.8-2.3 5.1-5.3 7.5-6.6 4-2.2 5-2.3 44.7-2.3v-3.3c0-1.7 1-4.8 2.1-6.7 1.2-1.9 3.1-4.2 4.3-5 1.1-0.8 2.7-1.8 3.6-2.2 0.8-0.4 13-0.6 27-0.5zm-27 10.3c-1.2 1.5-2.2 3.7-2.1 5l0.1 2.4h56c0-3.9-1.1-6.1-2.5-7.5l-2.5-2.5h-46.9zm-55.1 19.8c-2.2 2.6-2.3 3.3-2.3 19.6v16.9c6.5 6.5 6.6 6.6 17.7 6.9l11.3 0.4c1.1-7.4 2.3-9.6 4.4-11.5 2.5-2.2 4-2.7 8.1-2.7 4 0 5.6 0.5 8 2.7 2.1 1.9 3.3 4.1 3.8 7l0.7 4.3h59c1.1-7.2 2.3-9.4 4.4-11.3 2.5-2.2 4-2.7 8.1-2.7 4 0 5.6 0.5 8 2.7 2.2 1.9 3.3 4.1 3.8 7.1l0.7 4.4c22.4-0.7 22.5-0.8 25.7-4l3.3-3.3v-33.9l-6.6-6.5c-117.4-0.3-152.4-0.1-153.6 0.4-1.2 0.4-3.2 2-4.5 3.5zm35.4 48.6l0.3 8.5h7v-19c-5.3-0.5-6.7-0.2-7 0.7-0.3 0.8-0.5 5.2-0.3 9.8zm84 0l0.3 8.5h7v-19c-5.3-0.5-6.7-0.2-7 0.7-0.3 0.8-0.5 5.2-0.3 9.8zm-115.7 61.9l6.5 6.6h141.9l6.6-6.6 0.6-59.4-24.1 0.5c0 5.9-0.9 7.9-2.9 10.2-2.7 3-3.4 3.3-9.1 3.3-5.7 0-6.4-0.3-9.1-3.3-2.1-2.3-2.9-4.3-2.9-6.7v-3.5h-60c0 5.9-0.9 7.9-2.9 10.2-2.7 3-3.4 3.3-9.1 3.3-5.7 0-6.4-0.3-9.1-3.3-2.1-2.3-2.9-4.3-2.9-6.7v-3.5l-24.1-0.5z"/>
	</g>
</svg>