<?xml version="1.0" encoding="iso-8859-1"?>
<!-- Uploaded to: SVG Repo, www.svgrepo.com, Generator: SVG Repo Mixer Tools -->
<svg height="800px" width="800px" version="1.1" id="Capa_1" xmlns="http://www.w3.org/2000/svg" xmlns:xlink="http://www.w3.org/1999/xlink"
	 viewBox="0 0 29.107 29.107" xml:space="preserve">
<g>
	<g id="c150_moon">
		<path style="fill:currentColor;" d="M29.033,16.006c0.049-0.479,0.074-0.963,0.074-1.454l0,0l0,0C29.107,6.562,22.549,0,14.555,0l0,0
			l0,0C7.26,0,1.187,5.459,0.169,12.482c-0.029,0.195-0.072,0.389-0.091,0.591c0,0.007,0,0.016-0.002,0.027
			c-0.05,0.475-0.075,0.962-0.075,1.452l0,0l0,0c0,7.99,6.554,14.555,14.554,14.555l0,0l0,0c7.235,0,13.273-5.376,14.36-12.322
			c0.04-0.249,0.092-0.499,0.118-0.752C29.033,16.023,29.033,16.016,29.033,16.006z M2.08,14.552
			c0-6.599,5.156-12.005,11.652-12.432c4.77,2.126,9.139,6.876,9.139,12.432c0,5.557-4.369,10.312-9.139,12.433
			C7.236,26.56,2.08,21.151,2.08,14.552z"/>
	</g>
</g>
</svg>