<svg version="1.2" xmlns="http://www.w3.org/2000/svg" viewBox="0 0 72 72" width="72" height="72">

	<style>
		.s0 { fill: currentColor }
	</style>
	<path id="Path 0" fill-rule="evenodd" class="s0" d="m45.5 6.3c9.6 0.2 11.7 0.5 16.8 3 3.7 1.7 6.4 3.9 7.7 6 1.4 2.3 1.9 5 2 9.9 0 4.1-0.6 8-1.5 9.8-0.8 1.6-3.4 4.4-5.8 6-2.3 1.7-5.2 3-6.5 3-1.9 0-2.2 0.5-2.2 3.7 0 2.1-0.6 5.5-1.5 7.5-1 2.6-3 4.8-6.3 6.8-2.6 1.7-6.3 3.5-8.2 4-1.9 0.6-7.8 1-13 1-8 0-10.3-0.4-14.5-2.5-2.8-1.3-5.9-3.2-7.1-4.2-1.1-1-2.8-3.3-3.7-5.1-1-1.9-1.7-5.6-1.7-9.2 0-5.7 0.2-6.2 4.4-10.8 2.4-2.6 6-5.6 7.9-6.7 3.1-1.8 3.6-2.6 4.1-7 0.4-4.2 1.1-5.6 4.4-8.5 2.1-1.9 6.1-4.3 8.8-5.2 3.7-1.4 7.5-1.7 15.9-1.5zm-38.5 35.2c-0.6 1.4-1 3.2-1 4 0 0.8 1.2 2.9 2.7 4.7 1.6 1.7 4.6 4 6.8 4.9 2.8 1.3 6.5 1.9 12.5 1.9 7 0 9.3-0.4 12.8-2.2 2.4-1.3 5.2-3.7 6.2-5.3l1.9-3c-10.4 0.5-13.5 0.1-15.9-1-1.9-0.9-5-2.4-6.8-3.3-1.8-0.9-4.5-2.9-6-4.5-1.5-1.5-3.4-2.7-4.2-2.7-0.8 0-3 0.9-4.8 2-1.7 1.1-3.7 3.1-4.2 4.5z"/>
</svg>