<svg version="1.2" xmlns="http://www.w3.org/2000/svg" viewBox="0 0 100 100" width="100" height="100">

	<style>
		.s0 { opacity: .89;fill: #000000 }
	</style>
	<path id="Path 0" class="s0" d="m61.1 20.3c-2.3 1.6-3.5 3.4-3.7 5.5-0.3 2.4 0.2 3.7 1.8 5.2 1.3 1.2 3.9 2.6 5.8 3.2 2.6 0.8 4.6 0.8 7.7 0 2.4-0.7 5.4-2.3 6.8-3.7 1.4-1.4 2.5-3.3 2.5-4.3 0-0.9-1.4-3.1-3.1-4.7-2.5-2.5-4-3.1-8.7-3.3-4.8-0.3-6.3 0-9.1 2.1zm17.2 17.9c-2.4 1.4-4.4 1.8-7.5 1.4-2.4-0.2-5.1-0.7-6.1-1-1.5-0.5-1.6-0.1-1 3.2 0.3 2 1.1 4 1.7 4.4 0.6 0.4 3.5 0.8 6.3 0.8 2.9 0 6.5-0.6 8-1.4 1.6-0.7 3.1-2.1 3.5-3 0.5-0.9 0.8-2.7 0.8-4.1 0-1.4-0.6-2.4-1.3-2.4-0.6 0.1-2.7 1-4.4 2.1zm-57.8-0.2c-1.2 0.5-2.6 1.8-3.3 2.9-0.7 1.2-1.1 3.3-1 4.8 0.2 1.4 1.4 3.5 2.8 4.5 1.4 1.1 4.3 2 6.5 2.1l3.9 0.2c1.2-7.8 2-11.2 2.6-12.8l1-2.7c-8.1 0.1-11.4 0.5-12.5 1zm58 13.7q-3 1.6-8.2 1.2l-5.3-0.4c0 7.1 0.5 8.7 1.5 9 0.8 0.3 3.4 0.5 5.7 0.5 2.9 0 5.5-0.7 7.8-2.3 2.9-1.9 3.5-2.9 3.5-5.7 0-1.8-0.5-3.5-1-3.6-0.6-0.2-2.3 0.4-4 1.3zm-62 4.5c-0.4 0.7-0.5 2.4-0.3 3.8 0.2 1.5 1.7 3.3 3.8 4.7 1.9 1.3 5 2.3 6.7 2.3 3.2 0 3.3-0.1 3-3.7-0.2-3.5-0.5-3.8-3.7-4.3-1.9-0.3-4.7-1.3-6.2-2.3-2.2-1.4-2.9-1.5-3.3-0.5zm61.5 10c-2.3 1.2-5.1 1.8-8 1.6-4.4-0.2-4.5-0.2-4.8 3-0.2 3 0 3.2 3.5 3.8 2.4 0.4 5.4 0 8-1 2.4-0.9 5-2.7 5.8-4.1 0.8-1.4 1.3-3.2 1-4-0.3-0.8-0.8-1.4-1.3-1.4-0.4 0.1-2.3 1-4.2 2.1zm-42.8 8c0.2 2.4 1.2 3.8 3.8 5.5 2.3 1.6 4.9 2.3 7.7 2.3 2.4 0 6.1-0.9 8.3-2 2.8-1.4 4.2-2.8 4.6-4.7 0.3-1.6 0.1-3.2-0.5-3.8q-1.2-1-1.9 0.1c-0.4 0.6-1.7 1.6-3 2.3-1.2 0.6-4.3 1.1-7 1.1-2.9 0-5.9-0.7-8-2-1.7-1.1-3.5-2-3.8-2-0.3 0-0.4 1.4-0.2 3.2zm5.8-34.4c-1.9 0.9-4.1 2.9-5 4.3-1.4 2.4-1.3 2.9 0.2 5.3 1 1.4 3.4 3.3 5.3 4.1 1.9 0.8 5 1.5 6.7 1.5 1.8 0 4.9-0.8 6.8-1.9 1.9-1 4.2-2.9 5-4.3 1.4-2.3 1.3-2.8-0.3-5.2-0.9-1.4-3.3-3.3-5.2-4.1-1.9-0.8-5-1.5-6.8-1.5-1.7 0-4.8 0.8-6.7 1.8zm-5 19.2c-0.5 1.1-0.8 2.9-0.5 4 0.3 1.1 1.7 2.9 3.2 4 1.6 1.1 4.6 2.3 6.8 2.6 2.9 0.5 5.3 0 8.7-1.5 3-1.3 5.2-3 5.8-4.6q1-2.5 0-4.5c-1-1.9-1.1-1.9-3.8-0.3-1.7 1.1-4.8 1.7-8.2 1.8-3.7 0-6.5-0.6-8.3-1.7-2.5-1.7-2.7-1.7-3.7 0.2z"/>
</svg>