<?xml version="1.0" encoding="iso-8859-1"?>
<!-- Uploaded to: SVG Repo, www.svgrepo.com, Generator: SVG Repo Mixer Tools -->
<svg fill="currentColor" height="800px" width="800px" version="1.1" id="Layer_1" xmlns="http://www.w3.org/2000/svg" xmlns:xlink="http://www.w3.org/1999/xlink"
	 viewBox="0 0 512 512" xml:space="preserve">
<g>
	<g>
		<g>
			<path d="M345.969,171.983h11.398c4.4,0,7.967-3.567,7.967-7.967s-3.567-7.967-7.967-7.967h-11.398
				c-4.4,0-7.967,3.567-7.967,7.967S341.568,171.983,345.969,171.983z"/>
			<path d="M154.639,171.983h11.399c4.4,0,7.967-3.567,7.967-7.967s-3.567-7.967-7.967-7.967h-11.399
				c-4.4,0-7.967,3.567-7.967,7.967S150.239,171.983,154.639,171.983z"/>
			<path d="M161.495,236.111c-58.263,0-105.663,47.401-105.663,105.663s47.401,105.663,105.663,105.663
				c58.263,0,105.663-47.4,105.663-105.663S219.759,236.111,161.495,236.111z M161.495,431.503
				c-49.477,0-89.729-40.252-89.729-89.729s40.253-89.729,89.729-89.729c49.477,0,89.729,40.253,89.729,89.729
				S210.972,431.503,161.495,431.503z"/>
			<path d="M437.019,74.981C388.667,26.63,324.38,0.001,256,0.001S123.333,26.63,74.981,74.981C26.628,123.333,0,187.621,0,256.001
				s26.628,132.667,74.981,181.019c48.352,48.352,112.639,74.98,181.019,74.98s132.667-26.628,181.019-74.98
				C485.371,388.667,512,324.38,512,256.001S485.372,123.333,437.019,74.981z M86.248,86.249
				c26.323-26.323,57.69-45.765,91.914-57.457c0.232,2.743,0.356,5.5,0.356,8.254c0,53.47-43.502,96.973-96.973,96.973
				c-10.162,0-20.084-1.551-29.609-4.608C61.575,113.941,73.04,99.458,86.248,86.249z M425.752,425.752
				C380.409,471.095,320.123,496.066,256,496.066s-124.409-24.971-169.752-70.313C40.906,380.41,15.935,320.125,15.935,256.001
				c0-39.883,9.665-78.278,27.879-112.52c12.084,4.293,24.743,6.473,37.733,6.473c62.258,0,112.907-50.65,112.907-112.907
				c0-4.335-0.275-8.673-0.768-12.972c20.076-5.358,40.98-8.138,62.314-8.138c64.123,0,124.409,24.971,169.752,70.313
				s70.313,105.628,70.313,169.752S471.094,380.41,425.752,425.752z"/>
			<path d="M256.003,165.544c-18.647,0-33.818,15.17-33.818,33.817c0,18.647,15.17,33.817,33.818,33.817
				c18.647,0,33.817-15.17,33.817-33.817C289.82,180.714,274.65,165.544,256.003,165.544z M256.003,217.244
				c-9.861,0-17.883-8.022-17.883-17.882s8.022-17.882,17.883-17.882c9.861,0,17.882,8.022,17.882,17.882
				C273.885,209.222,265.864,217.244,256.003,217.244z"/>
			<path d="M355.394,298.662c-34.396,0-62.38,27.984-62.38,62.381c0,34.396,27.984,62.38,62.38,62.38
				c34.397,0,62.381-27.984,62.381-62.38C417.775,326.645,389.791,298.662,355.394,298.662z M355.394,407.488
				c-25.61,0-46.445-20.836-46.445-46.445c0-25.611,20.835-46.446,46.445-46.446c25.611,0,46.446,20.835,46.446,46.446
				C401.84,386.653,381.004,407.488,355.394,407.488z"/>
		</g>
	</g>
</g>
</svg>