<svg version="1.2" xmlns="http://www.w3.org/2000/svg" viewBox="0 0 495 382" width="495" height="382">
	<title>112-logo-1711890580</title>
	<style>
		.s0 { opacity: 1;fill: currentColor }
	</style>
	<g>
		<path id="Path 0" fill-rule="evenodd" class="s0" d="m250 1.6c8.5 0.2 21.1 1.3 28 2.4 6.9 1 17.9 3.4 24.5 5.4 6.6 1.9 16.1 5.2 21 7.3 4.9 2.2 11.7 5.3 21 10l-4.5 3c-2.5 1.6-9.1 5.7-25 15.3l-11.3-4.4c-6.1-2.4-16.1-5.5-22.2-6.8-10-2.1-13.4-2.3-38-2.3-22.3 0-28.2 0.4-34 1.8-3.8 1-13.5 3.9-35.8 11.2l-5.6-3.1c-3.1-1.7-9.9-5.7-24.6-14.8l10-4.7c5.5-2.6 15.2-6.7 21.5-9 6.3-2.3 17.8-5.5 25.5-7.1 7.7-1.6 18.5-3.3 24-3.8 5.5-0.5 17-0.7 25.5-0.4zm-180.7 19.5c1.2 0.7 5.6 3.3 9.7 5.9 4.1 2.6 19.6 12 34.5 21 14.8 9 34.9 21.1 44.5 27 9.6 5.8 20.2 12.2 29.5 17.3l8.5-2.6c4.7-1.5 12.3-3.6 17-4.7 4.7-1.1 13.7-2.5 20-3.1 8.3-0.7 14.7-0.7 23 0.1 6.3 0.6 13.5 1.6 16 2.1 2.5 0.5 10.1 2.5 29.5 8.1l13-7.8c7.1-4.2 31.2-18.9 53.5-32.4 22.3-13.6 43.2-26.2 52.4-31.5l-0.7 2.5c-0.3 1.4-6.2 30.2-13.1 64-6.8 33.8-13.2 65.7-14 70.8-1.2 7.1-1.4 10.3-0.5 14 0.5 2.6 2.3 9 3.9 14.2 1.6 5.2 3.4 12.4 4 16 0.7 4 1 14.4 0.7 27.5-0.4 18.3-0.7 22.3-3 31-1.4 5.5-3.7 13.4-5.1 17.5-1.5 4.1-4.1 10.6-9.1 21.2l-5.5-0.7c-3.9-0.5-8-2.1-14-5.6-4.9-2.7-11.3-5.5-15-6.4-3.6-0.8-9.2-1.5-12.5-1.5-3.3 0-8.5 0.4-11.5 1-3 0.6-8.4 2.4-12 4.2-3.9 1.9-8.9 5.6-12.5 9.3-3.7 3.6-7.5 8.7-9.6 13-2.2 4.3-4.1 9.9-4.8 14.5-1 5.9-1 9-0.1 14.5 0.7 3.9 2.2 9.3 3.5 12 1.2 2.8 4.3 7.6 6.8 10.8 2.6 3.1 4.7 5.9 4.7 6.2 0 0.3-4.2 1.8-9.3 3.4-5 1.6-13.7 3.7-19.2 4.7-7.8 1.5-14.6 1.9-30.5 1.8-15.6 0-22.5-0.5-29-1.8-4.7-1-13.5-3.4-19.5-5.3-6.1-1.9-16-5.9-22-8.9-6.1-3-15.1-8.3-20-11.8-5-3.6-14.2-11.6-20.5-17.9-6.3-6.3-14.2-15.2-17.5-19.8-3.3-4.6-8.5-13.3-11.5-19.4-3.1-6-6.8-14.6-8.2-19-1.5-4.4-3.7-12.7-4.9-18.5-1.9-8.9-2.3-13.6-2.3-31 0-17.7 0.3-22 2.3-31 1.2-5.8 3.6-14.8 8.3-29.5l-4.6-21.5c-2.5-11.8-9-43.8-14.6-71-5.5-27.2-10.2-50.5-10.4-51.8-0.5-2.1-0.3-2.2 1.7-1.1zm85.4 173.9c-2.1 1.4-4.8 4.1-6.2 6-1.4 1.9-3.4 5.9-4.5 8.8-1.2 3.2-2 7.6-2 11.5 0 4.7 0.7 7.6 2.8 12.2 1.6 3.3 4.4 7.5 6.3 9.4 1.9 1.8 5 4.2 6.9 5.1 1.9 1 6.2 2.4 9.5 3 4.8 1 7 1 11 0 2.7-0.7 6.8-2.2 9-3.3 2.2-1 5.3-3.1 6.8-4.6 1.6-1.4 3.9-4.6 5.2-7.1 1.2-2.5 2.8-7 3.4-10 0.9-4.1 0.9-6.9 0-11-0.6-3-2-7.3-3.1-9.5-1.1-2.2-3.7-5.7-5.7-7.8-2-2.1-5.9-4.6-8.6-5.6-2.8-1.1-7.7-2.2-11-2.5-4.3-0.4-7.4-0.1-11 1.2-2.8 0.9-6.8 2.8-8.8 4.2zm145.8-2.6c-2.2 0.9-5.5 3.1-7.3 4.9-1.9 1.8-4.2 4.9-5.3 7-1 2-2.6 6.5-3.5 10-1.3 5.1-1.3 7.1-0.4 11.7 0.7 3 2.3 7.5 3.5 10 1.3 2.5 3.6 5.7 5.2 7.1 1.5 1.5 4.6 3.6 6.8 4.7 2.2 1.1 6.5 2.5 9.5 3.1 4.1 0.9 6.9 0.9 11 0 3-0.6 7.1-2 9-2.9 1.9-1 5.1-3.6 7.1-5.7 2-2.1 4.6-5.6 5.6-7.8 1.1-2.2 2.5-6.2 3.2-9 0.9-3.9 1-6.1 0-10-0.6-2.7-2.1-6.8-3.1-9-1.1-2.2-3.7-5.7-5.7-7.8-2-2.1-5-4.6-6.6-5.4-1.7-0.9-5-2.2-7.5-2.9-2.5-0.8-5.6-1.3-7-1.3-1.4 0.1-4.3 0.5-6.5 0.9-2.2 0.3-5.8 1.4-8 2.4zm-79.9 60.3c-2.3 2.2-3 3.7-2.8 6.4 0.1 1.8 1.1 4.9 2.2 6.7 1.1 1.7 3.2 3.8 4.7 4.6 1.6 0.7 4 1.6 5.5 2 2.8 0.6 2.8 0.7 2.8 8.4 0 4.2-0.5 9.3-1.1 11.2-0.7 1.9-2.2 5-3.5 6.8-1.3 1.7-4.3 4.4-6.6 6-3.6 2.3-5.2 2.7-11.4 2.7-6 0-7.7 0.4-9.5 2q-2.1 2-2.2 6.1c-0.2 3 0.4 4.8 1.8 6.3 1.1 1.2 3.8 2.9 6 3.7 2.6 1 6.1 1.4 10 1.2 3.7-0.2 7.9-1.3 11-2.8 2.7-1.4 7.5-4.8 10.5-7.7l5.5-5.2c8.5 8.5 13.2 12.1 16 13.4 3 1.5 6.7 2.5 9.2 2.5 2.4 0 5.6-0.7 7.3-1.5 1.6-0.8 3.7-2.5 4.5-3.7 0.8-1.3 1.5-4 1.5-6 0-2.5-0.7-4.5-2-5.8-1.2-1.2-4-2.3-6.8-2.6-2.6-0.4-6.1-1.4-7.7-2.4-1.7-1-4.2-3.3-5.6-5.1-1.4-1.9-3.3-4.9-4.3-6.6-1.1-2.3-1.6-5.9-1.6-11.8 0-8.5 0-8.5 2.7-9 1.6-0.3 4.4-1.3 6.3-2.3 2.1-1 4.2-3.1 5.2-5.2 1.2-2.6 1.4-4.4 0.7-7-0.5-1.9-1.7-4.3-2.6-5.3-1.6-1.6-4.2-1.9-22.3-2.4l-20.5-0.5zm-169.2-157.1l1.5 7c1.3 5.8 1.5 20.2 1.6 94.5 0 48.3-0.3 88.1-0.7 88.5-0.4 0.5-2.2 0.2-4-0.5-1.8-0.8-6.4-3-10.3-4.9-3.8-1.9-9.6-5.3-12.8-7.6-3.2-2.3-8.3-7.3-11.2-11.1-2.9-3.9-6.7-9.9-8.3-13.5-1.6-3.6-3.7-10.3-4.7-15-1.3-6.2-1.6-10.9-1.1-17.5 0.3-5 1.5-12.2 2.7-16 1.2-3.9 3.2-9 4.5-11.5 1.2-2.5 4.2-7.2 6.6-10.5 2.5-3.3 8.7-9.4 23.3-21.2l0.7-10.4c0.4-5.7 1.5-14 2.3-18.4 0.9-4.4 3.5-13.4 5.8-19.9zm384.8-0.2l3 8c1.6 4.4 4.2 12.9 5.8 19 1.7 6 3.7 15.7 4.5 21.5 1 7 2.1 11.1 3.3 12.4 0.9 1 4 3.3 6.7 5.1 2.8 1.7 7.5 5.3 10.5 7.9 3 2.6 7.4 7 9.8 9.9 2.3 2.9 5.3 7.4 6.6 10.2 1.3 2.7 3.4 8.6 4.7 13 1.8 6.2 2.3 10.4 2.3 18.5-0.1 8.6-0.5 12-2.7 18.5-1.4 4.4-4.3 10.8-6.4 14.2-2.1 3.4-6.5 9.3-16 19.8l-0.6 17c-0.5 13.4-1.1 18.3-2.7 23-1.2 3.3-3.6 8.9-5.5 12.5-1.9 3.6-6 9.1-9.2 12.3-3.2 3.2-8.5 7.4-11.8 9.2-3.3 1.8-9.1 4.3-13 5.5-5.5 1.8-10.2 2.4-22 2.7-10.4 0.3-18.6 0-27-1.1-6.6-0.9-15.8-1.6-20.5-1.6-4.7 0-11.4 0.7-15 1.6-5.6 1.4-7.1 1.4-11 0.3-2.5-0.7-6-2.7-7.9-4.4-1.9-1.6-4.2-4.8-5.2-7-1.1-2.3-1.8-6.3-1.8-9.5-0.1-3.9 0.6-6.7 2.2-9.5 1.2-2.1 3.8-5 5.7-6.3 1.9-1.2 5.3-2.8 7.5-3.3 2.2-0.6 5.8-0.8 8-0.5 2.2 0.3 6.2 2.1 8.9 3.8 2.7 1.8 6.1 4.1 7.5 5 1.4 0.9 5.5 2.2 9.1 2.8 3.6 0.6 15.7 1.4 47.5 2.4l6.5-3.1c3.6-1.7 8.5-5.1 11-7.5 2.5-2.4 5.6-6.6 6.9-9.3 1.4-3.1 2.6-7.5 2.8-11.5 0.5-6 0.3-6.7-4.7-11l0.5-89.8c0.2-49.3 0.7-92.2 1.1-95.2z"/>
	</g>
</svg>