<?xml version="1.0" encoding="utf-8"?>
<!-- Generator: Adobe Illustrator 26.1.0, SVG Export Plug-In . SVG Version: 6.00 Build 0)  -->
<svg version="1.1" xmlns="http://www.w3.org/2000/svg" xmlns:xlink="http://www.w3.org/1999/xlink" x="0px" y="0px"
	 viewBox="0 0 22 18" style="enable-background:new 0 0 22 18;" xml:space="preserve">
<style type="text/css">
	.st0{fill-rule:evenodd;clip-rule:evenodd;fill:#8D523B;}
	.st1{display:none;}
	.st2{display:inline;fill-rule:evenodd;clip-rule:evenodd;fill:#199C49;}
</style>
<g id="Layer_1">
	<path class="st0" d="M7,10.5c0-0.6,0.1-1.1,0.4-1.7c0.2-0.5,0.6-1,1.1-1.3c-2-0.7-4.8-2-5.6-4.3c0,0-0.2,2.3,1.2,4.8
		c0,0,1.5,1,2.1,2.2L5,9.6c0.3,0.9,0.6,1.8,1.1,2.7C6.8,13.6,8,14.5,8,14.5s-0.6-1.7,0.1-1.3h0.1c-0.4-0.4-0.7-0.8-0.9-1.3
		C7.1,11.5,7,11,7,10.5L7,10.5z M13.4,7.5c0.5,0.4,0.8,0.8,1.1,1.4c0.2,0.4,0.4,1,0.4,1.6c0,0.4,0,0.7-0.1,1
		c-0.2,0.6-0.5,1.2-0.9,1.6c0.5-0.2,0,1.3,0,1.3s1.2-1,1.9-2.2c0.4-0.9,0.8-1.8,1.1-2.7l-1.1,0.7C16.4,8.9,17.9,8,17.9,8
		c1.2-2.5,1-4.8,1-4.8C18.1,5.4,15.3,6.8,13.4,7.5z M13.6,10.5c0,1.5-1.2,2.7-2.7,2.7S8.2,12,8.2,10.5s1.2-2.7,2.7-2.7
		C12.4,7.8,13.6,9,13.6,10.5z"/>
</g>
<g id="Layer_2" class="st1">
	<path class="st2" d="M8.1,7.7c-0.6,0.7-0.9,1.5-0.9,2.4c0,0.6,0.1,1.2,0.4,1.7s0.7,1,1.2,1.3c0.1,0.1,0.2,0.1,0.3,0.2
		c0.2,0.4,0.4,0.7,0.5,1.2c0.1,0.4,0.1,0.9,0,1.3c-0.1-1.1-1.7-2.5-2.4-2.8c-0.7-0.4,0,1.3,0,1.3s-1-0.8-2.1-2.4c0,0,0,0,0-0.1
		c-0.7-1-1.1-1.7-2.2-2c1-0.3,2.4,0.4,2.4,0.4C5.1,8.8,3.6,7.6,3.6,7.6C2.9,6.1,2.7,4.5,2.9,2.9C3.5,5.4,6.4,6.9,8.1,7.7z
		 M14.4,10.1c0-0.9-0.3-1.7-0.9-2.4c1.7-0.8,4.7-2.3,5.3-4.8c0.2,1.6-0.1,3.2-0.7,4.7c0,0-1.5,1.2-1.8,2.6c0,0,1.4-0.8,2.4-0.4
		c-1,0.3-1.5,1-2.2,2v0.1c-1,1.6-2.2,2.4-2.2,2.4s0.7-1.7,0-1.3s-2.2,1.8-2.4,2.8c-0.1-0.4-0.1-0.9,0-1.3c0.1-0.4,0.3-0.8,0.5-1.2
		c0.1-0.1,0.2-0.1,0.3-0.2c0.5-0.3,0.9-0.8,1.2-1.3C14.3,11.3,14.4,10.7,14.4,10.1z M10.8,12.7c1.4,0,2.5-1.1,2.5-2.5
		s-1.1-2.5-2.5-2.5s-2.5,1.1-2.5,2.5C8.4,11.6,9.5,12.7,10.8,12.7z"/>
</g>
</svg>
