<?xml version="1.0" encoding="utf-8"?>
<!-- Generator: Adobe Illustrator 26.1.0, SVG Export Plug-In . SVG Version: 6.00 Build 0)  -->
<svg version="1.1" id="Layer_1" xmlns="http://www.w3.org/2000/svg" xmlns:xlink="http://www.w3.org/1999/xlink" x="0px" y="0px"
	 viewBox="0 0 22 18" style="enable-background:new 0 0 22 18;" xml:space="preserve">
<style type="text/css">
	.st0{display:none;}
	.st1{display:inline;fill-rule:evenodd;clip-rule:evenodd;fill:#199C49;}
	.st2{fill-rule:evenodd;clip-rule:evenodd;fill:#51484A;}
</style>
<g id="Layer_2_00000082359770697941169110000016324784976548817846_" class="st0">
	<path class="st1" d="M8.1,7.7c-0.6,0.7-0.9,1.5-0.9,2.4c0,0.6,0.1,1.2,0.4,1.7s0.7,1,1.2,1.3c0.1,0.1,0.2,0.1,0.3,0.2
		c0.2,0.4,0.4,0.7,0.5,1.2c0.1,0.4,0.1,0.9,0,1.3c-0.1-1.1-1.7-2.5-2.4-2.8c-0.7-0.4,0,1.3,0,1.3s-1-0.8-2.1-2.4c0,0,0,0,0-0.1
		c-0.7-1-1.1-1.7-2.2-2c1-0.3,2.4,0.4,2.4,0.4C5.1,8.8,3.6,7.6,3.6,7.6C2.9,6.1,2.7,4.5,2.9,2.9C3.5,5.4,6.4,6.9,8.1,7.7z
		 M14.4,10.1c0-0.9-0.3-1.7-0.9-2.4c1.7-0.8,4.7-2.3,5.3-4.8c0.2,1.6-0.1,3.2-0.7,4.7c0,0-1.5,1.2-1.8,2.6c0,0,1.4-0.8,2.4-0.4
		c-1,0.3-1.5,1-2.2,2v0.1c-1,1.6-2.2,2.4-2.2,2.4s0.7-1.7,0-1.3s-2.2,1.8-2.4,2.8c-0.1-0.4-0.1-0.9,0-1.3c0.1-0.4,0.3-0.8,0.5-1.2
		c0.1-0.1,0.2-0.1,0.3-0.2c0.5-0.3,0.9-0.8,1.2-1.3C14.3,11.3,14.4,10.7,14.4,10.1z M10.8,12.7c1.4,0,2.5-1.1,2.5-2.5
		s-1.1-2.5-2.5-2.5s-2.5,1.1-2.5,2.5C8.4,11.6,9.5,12.7,10.8,12.7z"/>
</g>
<path class="st2" d="M7.1,10.9c0-0.6,0.1-1.1,0.4-1.7c0.2-0.5,0.6-1,1.1-1.3C6.6,7.2,3.8,5.9,3,3.6c0,0-0.2,2.3,1.2,4.8
	c0,0,1.5,1,2.1,2.2L5.1,10c0.3,0.9,0.6,1.8,1.1,2.7c0.7,1.3,1.9,2.2,1.9,2.2s-0.6-1.7,0.1-1.3c0,0,0,0,0.1,0
	c-0.4-0.4-0.7-0.8-0.9-1.3C7.2,11.9,7.1,11.4,7.1,10.9L7.1,10.9z M13.5,7.9c0.4,0.3,0.8,0.8,1,1.2c0.3,0.5,0.4,1,0.4,1.5
	c0,0.5,0,1.1-0.2,1.6c-0.2,0.5-0.5,1-0.8,1.4c0.5-0.2,0,1.3,0,1.3s1.2-1,1.9-2.2c0.4-0.9,0.8-1.8,1.1-2.7l-1.1,0.7
	c0.6-1.3,2.1-2.2,2.1-2.2C19.2,5.9,19,3.6,19,3.6C18.2,5.8,15.4,7.2,13.5,7.9z M13.7,10.9c0,1.5-1.2,2.7-2.7,2.7
	c-1.5,0-2.7-1.2-2.7-2.7c0-1.5,1.2-2.7,2.7-2.7C12.5,8.2,13.7,9.4,13.7,10.9z"/>
</svg>
