<svg version="1.2" xmlns="http://www.w3.org/2000/svg" viewBox="0 0 483 482" width="483" height="482">
	<title>dotted_lines_circles_and_boxes_borders-ai</title>
	<style>
		.s0 { fill: #ffffff } 
		.s1 { fill: #currentColor } 
		.s2 { display: none;fill: #currentColor } 
	</style>
		<g id="Background" style="display: none">
		<path id="&lt;Path&gt;" class="s0" d="m-118 2096h2200v-2200h-2200z"/>
	</g>
	<g id="Objects">
		<g id="&lt;Group&gt;">
			<path id="&lt;Path&gt;" class="s1" d="m459.8 462h-15v-6h12v-12h6v15c0 1.7-1.3 3-3 3z"/>
			<path id="&lt;Compound Path&gt;" class="s1" d="m425.5 462h-29v-6h29zm-48.4 0h-29v-6h29zm-48.3 0h-29v-6h29zm-48.3 0h-29v-6h29zm-48.3 0h-29v-6h29zm-48.4 0h-29v-6h29zm-48.3 0h-29v-6h29zm-48.3 0h-29v-6h29z"/>
			<path id="&lt;Path&gt;" class="s1" d="m38.9 462h-15c-1.7 0-3-1.3-3-3v-15h6v12h12z"/>
			<path id="&lt;Compound Path&gt;" class="s1" d="m26.9 424.7h-6v-29h6zm0-48.3h-6v-29h6zm0-48.4h-6v-29h6zm0-48.3h-6v-29h6zm0-48.3h-6v-29h6zm0-48.3h-6v-29h6zm0-48.4h-6v-29h6zm0-48.3h-6v-29h6z"/>
			<path id="&lt;Path&gt;" class="s1" d="m26.9 38.1h-6v-15c0-1.7 1.3-3 3-3h15v6h-12z"/>
			<path id="&lt;Compound Path&gt;" class="s1" d="m425.5 26.1h-29v-6h29zm-48.4 0h-29v-6h29zm-48.3 0h-29v-6h29zm-48.3 0h-29v-6h29zm-48.3 0h-29v-6h29zm-48.4 0h-29v-6h29zm-48.3 0h-29v-6h29zm-48.3 0h-29v-6h29z"/>
			<path id="&lt;Path&gt;" class="s1" d="m462.8 38.1h-6v-12h-12v-6h15c1.7 0 3 1.3 3 3z"/>
			<path id="&lt;Compound Path&gt;" class="s1" d="m462.8 424.7h-6v-29h6zm0-48.3h-6v-29h6zm0-48.4h-6v-29h6zm0-48.3h-6v-29h6zm0-48.3h-6v-29h6zm0-48.3h-6v-29h6zm0-48.4h-6v-29h6zm0-48.3h-6v-29h6z"/>
		</g>
		<g id="&lt;Group&gt;" style="display: none">
			<path id="&lt;Path&gt;" class="s1" d="m723.1 1046.8h-15v-6h12v-12h6v15c0 1.7-1.3 3-3 3z"/>
			<path id="&lt;Compound Path&gt;" class="s1" d="m688.2 1046.8h-30v-6h30zm-50 0h-30v-6h30zm-49.9 0h-30v-6h30zm-50 0h-30v-6h30zm-49.9 0h-30v-6h30zm-50 0h-29.9v-6h29.9zm-49.9 0h-30v-6h30zm-50 0h-29.9v-6h29.9zm-49.9 0h-30v-6h30zm-50 0h-29.9v-6h29.9zm-49.9 0h-30v-6h30zm-50 0h-29.9v-6h29.9zm-49.9 0h-30v-6h30z"/>
			<path id="&lt;Path&gt;" class="s1" d="m38.9 1046.8h-15c-1.7 0-3-1.3-3-3v-15h6v12h12z"/>
			<path id="&lt;Compound Path&gt;" class="s1" d="m26.9 1009.5h-6v-29h6zm0-48.3h-6v-29h6zm0-48.4h-6v-28.9h6zm0-48.4h-6v-29h6zm0-48.3h-6v-29h6zm0-48.3h-6v-29h6zm0-48.4h-6v-28.9h6zm0-48.4h-6v-29h6z"/>
			<path id="&lt;Path&gt;" class="s1" d="m26.9 622.9h-6v-15c0-1.7 1.3-3 3-3h15v6h-12z"/>
			<path id="&lt;Compound Path&gt;" class="s1" d="m688.2 610.9h-30v-6h30zm-50 0h-30v-6h30zm-49.9 0h-30v-6h30zm-50 0h-29.9v-6h29.9zm-49.9 0h-30v-6h30zm-50 0h-29.9v-6h29.9zm-49.9 0h-30v-6h30zm-50 0h-29.9v-6h29.9zm-49.9 0h-30v-6h30zm-50 0h-29.9v-6h29.9zm-49.9 0h-30v-6h30zm-50 0h-29.9v-6h29.9zm-49.9 0h-30v-6h30z"/>
			<path id="&lt;Path&gt;" class="s1" d="m726.1 622.9h-6v-12h-12v-6h15c1.7 0 3 1.3 3 3z"/>
			<path id="&lt;Compound Path&gt;" class="s1" d="m726.1 1009.5h-6v-29h6zm0-48.3h-6v-29h6zm0-48.4h-6v-28.9h6zm0-48.4h-6v-29h6zm0-48.3h-6v-29h6zm0-48.3h-6v-29h6zm0-48.4h-6v-28.9h6zm0-48.4h-6v-29h6z"/>
		</g>
		<g id="&lt;Group&gt;" style="display: none">
			<path id="&lt;Path&gt;" class="s1" d="m948.9 1621h-15v-6h12v-12h6v15c0 1.7-1.3 3-3 3z"/>
			<path id="&lt;Compound Path&gt;" class="s1" d="m914.5 1621h-29.2v-6h29.2zm-48.7 0h-29.2v-6h29.2zm-48.6 0h-29.2v-6h29.2zm-48.7 0h-29.2v-6h29.2zm-48.6 0h-29.2v-6h29.2zm-48.7 0h-29.1v-6h29.1zm-48.6 0h-29.2v-6h29.2zm-48.7 0h-29.1v-6h29.1zm-48.6 0h-29.2v-6h29.2zm-48.6 0h-29.2v-6h29.2zm-48.7 0h-29.2v-6h29.2zm-48.6 0h-29.2v-6h29.2zm-48.7 0h-29.2v-6h29.2zm-48.6 0h-29.2v-6h29.2zm-48.7 0h-29.2v-6h29.2zm-48.6 0h-29.2v-6h29.2zm-48.7 0h-29.1v-6h29.1zm-48.6 0h-29.2v-6h29.2z"/>
			<path id="&lt;Path&gt;" class="s1" d="m38.9 1621h-15c-1.7 0-3-1.3-3-3v-15h6v12h12z"/>
			<path id="&lt;Compound Path&gt;" class="s1" d="m26.9 1583.7h-6v-29h6zm0-48.3h-6v-29h6zm0-48.4h-6v-29h6zm0-48.3h-6v-29h6zm0-48.3h-6v-29h6zm0-48.3h-6v-29h6zm0-48.4h-6v-29h6zm0-48.3h-6v-29h6z"/>
			<path id="&lt;Path&gt;" class="s1" d="m26.9 1197.1h-6v-15c0-1.7 1.3-3 3-3h15v6h-12z"/>
			<path id="&lt;Compound Path&gt;" class="s1" d="m914.5 1185.1h-29.2v-6h29.2zm-48.7 0h-29.2v-6h29.2zm-48.6 0h-29.2v-6h29.2zm-48.7 0h-29.2v-6h29.2zm-48.6 0h-29.2v-6h29.2zm-48.7 0h-29.1v-6h29.1zm-48.6 0h-29.2v-6h29.2zm-48.7 0h-29.1v-6h29.1zm-48.6 0h-29.2v-6h29.2zm-48.6 0h-29.2v-6h29.2zm-48.7 0h-29.2v-6h29.2zm-48.6 0h-29.2v-6h29.2zm-48.7 0h-29.2v-6h29.2zm-48.6 0h-29.2v-6h29.2zm-48.7 0h-29.2v-6h29.2zm-48.6 0h-29.2v-6h29.2zm-48.7 0h-29.1v-6h29.1zm-48.6 0h-29.2v-6h29.2z"/>
			<path id="&lt;Path&gt;" class="s1" d="m951.9 1197.1h-6v-12h-12v-6h15c1.7 0 3 1.3 3 3z"/>
			<path id="&lt;Compound Path&gt;" class="s1" d="m951.9 1583.7h-6v-29h6zm0-48.3h-6v-29h6zm0-48.4h-6v-29h6zm0-48.3h-6v-29h6zm0-48.3h-6v-29h6zm0-48.3h-6v-29h6zm0-48.4h-6v-29h6zm0-48.3h-6v-29h6z"/>
		</g>
		<g id="&lt;Group&gt;" style="display: none">
			<path id="&lt;Path&gt;" class="s1" d="m38.9 1759.2h-15v-6h15z"/>
			<path id="&lt;Compound Path&gt;" class="s1" d="m914.5 1759.2h-29.2v-6h29.2zm-48.7 0h-29.2v-6h29.2zm-48.6 0h-29.2v-6h29.2zm-48.7 0h-29.2v-6h29.2zm-48.6 0h-29.2v-6h29.2zm-48.7 0h-29.1v-6h29.1zm-48.6 0h-29.2v-6h29.2zm-48.7 0h-29.1v-6h29.1zm-48.6 0h-29.2v-6h29.2zm-48.6 0h-29.2v-6h29.2zm-48.7 0h-29.2v-6h29.2zm-48.6 0h-29.2v-6h29.2zm-48.7 0h-29.2v-6h29.2zm-48.6 0h-29.2v-6h29.2zm-48.7 0h-29.2v-6h29.2zm-48.6 0h-29.2v-6h29.2zm-48.7 0h-29.1v-6h29.1zm-48.6 0h-29.2v-6h29.2z"/>
			<path id="&lt;Path&gt;" class="s1" d="m948.9 1759.2h-15v-6h15z"/>
		</g>
		<g id="&lt;Group&gt;" style="display: none">
			<path id="&lt;Path&gt;" class="s1" d="m38.9 1950.6h-15v-6h15z"/>
			<path id="&lt;Compound Path&gt;" class="s1" d="m357.3 1950.6h-31.9v-6h31.9zm-53.1 0h-31.8v-6h31.8zm-53.1 0h-31.8v-6h31.8zm-53 0h-31.9v-6h31.9zm-53.1 0h-31.9v-6h31.9zm-53.1 0h-31.8v-6h31.8z"/>
			<path id="&lt;Path&gt;" class="s1" d="m393.5 1950.6h-15v-6h15z"/>
		</g>
		<g id="&lt;Group&gt;" style="display: none">
			<path id="&lt;Path&gt;" class="s1" d="m594.3 1950.6h-15v-6h15z"/>
			<path id="&lt;Compound Path&gt;" class="s1" d="m912.7 1950.6h-31.8v-6h31.8zm-53.1 0h-31.8v-6h31.8zm-53 0h-31.9v-6h31.9zm-53.1 0h-31.9v-6h31.9zm-53.1 0h-31.8v-6h31.8zm-53.1 0h-31.8v-6h31.8z"/>
			<path id="&lt;Path&gt;" class="s1" d="m948.9 1950.6h-15v-6h15z"/>
		</g>
		<path id="&lt;Compound Path&gt;" class="s2" d="m1454.9 1626.1h-0.1c-10.1 0-20.3-0.7-30.2-2l0.8-5.9c9.7 1.3 19.6 1.9 29.4 1.9h0.1zm20.3-0.9l-0.6-6c9.9-0.8 19.7-2.4 29.3-4.6l1.3 5.9c-9.8 2.2-19.9 3.8-30 4.7zm-70.6-4.7c-9.9-2.2-19.7-5.2-29.1-8.7l2.1-5.6c9.2 3.4 18.7 6.3 28.3 8.5zm120.2-5.5l-1.9-5.7c9.4-3 18.6-6.7 27.5-11l2.6 5.4c-9.1 4.4-18.6 8.2-28.2 11.3zm-168-11.2c-9.1-4.4-18-9.5-26.4-15.1l3.3-5c8.2 5.5 16.9 10.4 25.7 14.7zm214.1-9.7l-3.1-5.2c8.4-5 16.6-10.7 24.3-16.9l3.7 4.7c-7.9 6.3-16.3 12.2-24.9 17.4zm-256.9-17.3c-7.9-6.3-15.5-13.2-22.5-20.5l4.4-4.1c6.8 7.1 14.1 13.8 21.8 19.9zm297.1-13.4l-4.1-4.4c7.1-6.8 13.8-14.1 20-21.8l4.7 3.7c-6.4 7.9-13.3 15.5-20.6 22.5zm-332.9-22.3c-6.3-8-12.2-16.4-17.3-25l5.1-3.1c5.1 8.4 10.7 16.6 16.9 24.3zm365.4-16.5l-5-3.3c5.4-8.2 10.3-16.9 14.6-25.8l5.4 2.6c-4.4 9.1-9.4 18-15 26.5zm-392.4-26.3c-4.4-9.1-8.2-18.6-11.4-28.2l5.8-1.9c3 9.4 6.7 18.6 11 27.5zm415.4-18.8l-5.6-2.1c3.4-9.3 6.3-18.8 8.5-28.4l5.8 1.3c-2.2 9.9-5.1 19.7-8.7 29.2zm-432.1-29c-2.3-9.8-3.9-19.9-4.8-30l6-0.5c0.9 9.8 2.4 19.6 4.6 29.2zm444.5-20.2l-6-0.8c1.3-9.7 2-19.6 2-29.5v-0.4h6v0.4c0 10.1-0.7 20.3-2 30.3zm-444.2-30.1h-6v-0.2c0-10.1 0.7-20.2 2-30.1l6 0.8c-1.3 9.6-2 19.5-2 29.3zm439.3-20.3c-0.9-9.9-2.5-19.7-4.7-29.3l5.9-1.3c2.2 9.8 3.9 19.9 4.8 30zm-433.9-28.6l-5.8-1.3c2.2-9.9 5.1-19.7 8.7-29.2l5.6 2.1c-3.4 9.2-6.3 18.8-8.5 28.4zm423.9-19.6c-3-9.4-6.7-18.6-11-27.5l5.4-2.6c4.4 9.1 8.2 18.6 11.3 28.2zm-407.6-26.9l-5.4-2.6c4.3-9.1 9.4-18 15-26.5l5 3.3c-5.5 8.2-10.4 16.9-14.6 25.8zm387.2-17.9c-5.1-8.4-10.8-16.6-16.9-24.3l4.6-3.7c6.4 7.8 12.2 16.2 17.4 24.9zm-361-23.9l-4.7-3.7c6.3-7.9 13.2-15.5 20.5-22.5l4.2 4.4c-7.1 6.8-13.8 14.2-20 21.8zm331.1-15.2c-6.8-7.1-14.2-13.9-21.9-20l3.7-4.7c8 6.3 15.5 13.2 22.5 20.5zm-296.2-19.6l-3.8-4.7c7.9-6.3 16.3-12.1 25-17.3l3.1 5.1c-8.5 5.1-16.6 10.8-24.3 16.9zm258.4-11.9c-8.3-5.5-16.9-10.4-25.8-14.6l2.6-5.4c9.1 4.3 18 9.4 26.5 15zm-216.8-14.4l-2.6-5.4c9.1-4.4 18.6-8.2 28.2-11.4l1.9 5.7c-9.4 3.1-18.6 6.8-27.5 11.1zm172.8-8c-9.2-3.4-18.8-6.3-28.4-8.5l1.4-5.8c9.8 2.2 19.6 5.1 29.1 8.7zm-126.3-8.3l-1.3-5.9c9.8-2.2 19.9-3.8 30-4.7l0.5 5.9c-9.8 0.9-19.6 2.5-29.2 4.7zm78.5-3.6c-9.6-1.3-19.4-2-29.2-2h-0.3v-6h0.3c10 0 20.1 0.7 30 2z"/>
		<path id="&lt;Compound Path&gt;" class="s2" d="m1454.8 1051.9c-5.9 0-11.8-0.1-17.7-0.3l0.3-6c9.9 0.4 20.1 0.4 30.1 0.1l0.2 6c-4.3 0.2-8.6 0.2-12.9 0.2zm33.3-1.3l-0.5-5.9c10-0.8 20.1-2 29.9-3.5l1 5.9c-10 1.6-20.3 2.7-30.4 3.5zm-71.3-0.4c-10.2-0.9-20.4-2.2-30.4-3.8l1-6c9.8 1.7 19.9 3 29.9 3.9zm121.8-6.8l-1.2-5.8c9.8-2.1 19.7-4.5 29.2-7.3l1.7 5.8c-9.7 2.8-19.7 5.3-29.7 7.3zm-172.2-1c-10-2.1-20-4.7-29.6-7.7l1.7-5.7c9.5 2.9 19.3 5.4 29.2 7.6zm221.3-12.6l-2-5.6c9.6-3.4 19-7.1 28-11.2l2.5 5.5c-9.2 4.1-18.8 7.9-28.5 11.3zm-270.3-1.6c-9.7-3.5-19.2-7.5-28.3-11.7l2.5-5.5c9 4.2 18.3 8.1 27.8 11.6zm317.2-18.7l-2.8-5.3c9-4.7 17.7-9.9 25.9-15.3l3.3 5c-8.4 5.6-17.2 10.8-26.4 15.6zm-363.7-2.3c-9.1-4.9-17.9-10.3-26.2-15.9l3.4-5c8.1 5.5 16.8 10.8 25.7 15.7zm406.8-25.2l-3.7-4.7c8.1-6.2 15.8-12.8 22.8-19.6l4.2 4.3c-7.2 7-15.1 13.7-23.3 20zm-449.5-2.9c-8.1-6.5-15.9-13.4-22.9-20.5l4.2-4.2c6.9 6.9 14.5 13.7 22.4 20zm486.9-31.9l-4.5-4c6.7-7.6 12.8-15.7 18.1-23.8l5 3.2c-5.5 8.4-11.7 16.7-18.6 24.6zm-523.6-3.7c-6.7-8-12.8-16.4-18-25l5.1-3.1c5.1 8.3 11 16.4 17.5 24.2zm552.5-38.6l-5.4-2.7c4.6-9 8.4-18.3 11.3-27.6l5.8 1.8c-3.1 9.6-7 19.2-11.7 28.5zm-580.4-4.4c-4.5-9.3-8.1-19-10.9-28.8l5.8-1.6c2.7 9.4 6.2 18.8 10.5 27.9zm597-44.2l-5.9-1.1c1.8-9.7 2.8-19.7 2.8-29.6v-0.6h6v0.6c0 10.2-1 20.6-2.9 30.7zm-612.3-4.8c-1.3-8.5-2-17.3-2-25.9q0-2.5 0.1-4.9l6 0.2q-0.1 2.3-0.1 4.7c0 8.3 0.7 16.7 2 25zm607.8-46.4c-1.2-9.7-3.4-19.5-6.4-29l5.7-1.8c3.1 9.8 5.4 20 6.7 30.1zm-602-4.1l-6-0.9c1.6-10 4-20.1 7.4-29.9l5.7 1.9c-3.3 9.5-5.7 19.2-7.1 28.9zm588.5-43.6c-4-8.9-8.8-17.7-14.4-26.2l5.1-3.2c5.7 8.7 10.6 17.8 14.8 27zm-573.9-3.7l-5.5-2.6c4.4-9.1 9.5-18.1 15.4-26.7l5 3.4c-5.7 8.4-10.8 17.1-14.9 25.9zm547.8-38.7c-6.1-7.6-12.9-15-20.2-22.1l4.1-4.3c7.6 7.2 14.5 14.9 20.8 22.7zm-520.9-3.2l-4.6-3.8c6.4-7.7 13.5-15.2 21.1-22.3l4.1 4.4c-7.5 6.9-14.4 14.2-20.6 21.7zm485.7-32.2c-7.6-6.2-15.7-12.2-24.2-17.8l3.3-5c8.7 5.7 17 11.8 24.7 18.2zm-449.9-2.6l-3.8-4.7c7.9-6.3 16.3-12.2 25-17.8l3.2 5.1c-8.5 5.4-16.8 11.3-24.4 17.4zm408.6-25.6c-8.6-4.9-17.7-9.4-26.9-13.6l2.5-5.5c9.4 4.3 18.6 8.9 27.3 13.8zm-366.8-2l-2.9-5.2c8.8-4.8 18.1-9.4 27.5-13.5l2.4 5.5c-9.3 4.1-18.4 8.5-27 13.2zm321.4-19.2c-9.3-3.5-18.9-6.7-28.6-9.5l1.7-5.8c9.8 2.9 19.6 6.1 29 9.7zm-275.7-1.4l-2.1-5.7c9.5-3.4 19.3-6.6 29.2-9.3l1.6 5.8c-9.7 2.7-19.4 5.8-28.7 9.2zm227.7-13.1c-9.7-2.3-19.7-4.2-29.6-5.7l0.9-5.9c10.1 1.5 20.2 3.4 30 5.7zm-179.5-0.9l-1.2-5.9c9.8-2.1 19.9-4 30.1-5.4l0.8 6c-10 1.4-19.9 3.2-29.7 5.3zm130-7.3c-9.9-1-20.1-1.6-30.1-1.9l0.2-6c10.2 0.3 20.4 0.9 30.5 2zm-80.3-0.4l-0.6-6c10.1-0.9 20.4-1.5 30.6-1.7l0.1 6c-10.1 0.2-20.2 0.8-30.1 1.7z"/>
		<path id="&lt;Compound Path&gt;" class="s2" d="m1454.8 467.1c-5.7 0-11.6 0-17.3-0.2l0.1-6c9.9 0.2 19.9 0.3 29.8 0.1l0.1 6c-4.2 0.1-8.5 0.1-12.7 0.1zm32.6-0.7l-0.2-6c9.9-0.4 19.9-1 29.7-1.8l0.4 6c-9.8 0.8-19.9 1.4-29.9 1.8zm-69.9-0.2c-10-0.5-20-1.2-29.9-2l0.5-6c9.8 0.9 19.8 1.5 29.7 2zm119.7-3.5l-0.6-6c9.8-1.1 19.8-2.4 29.4-3.8l1 5.9c-9.8 1.5-19.8 2.8-29.8 3.9zm-169.5-0.5c-9.9-1.2-19.9-2.6-29.7-4.1l1-6c9.6 1.6 19.5 2.9 29.4 4.1zm219-6.7l-1.1-5.9c9.8-1.7 19.6-3.8 29.1-5.9l1.3 5.8c-9.6 2.2-19.5 4.2-29.3 6zm-268.4-0.8c-9.9-1.9-19.7-4-29.3-6.3l1.4-5.8c9.5 2.3 19.2 4.3 29 6.2zm317.2-10l-1.6-5.8c9.7-2.5 19.3-5.3 28.6-8.2l1.8 5.7c-9.4 3-19.1 5.8-28.8 8.3zm-365.9-1.2c-9.7-2.6-19.4-5.5-28.7-8.6l1.8-5.7c9.3 3.1 18.8 5.9 28.5 8.5zm413.6-13.5l-2-5.7c9.4-3.4 18.7-7 27.6-10.8l2.4 5.5c-9 3.8-18.4 7.5-28 11zm-461.3-1.6c-9.5-3.6-18.9-7.3-27.8-11.3l2.4-5.5c8.8 3.9 18.1 7.7 27.5 11.1zm507.5-17.6l-2.6-5.4c9.1-4.4 17.9-9 26.2-13.8l3 5.2c-8.4 4.9-17.4 9.6-26.6 14zm-553.5-2.1c-9.2-4.5-18.1-9.3-26.5-14.2l3.1-5.2c8.2 4.9 17 9.6 26.1 14.1zm597.2-22.4l-3.3-5.1c8.5-5.5 16.6-11.3 24-17.2l3.8 4.7c-7.6 6-15.9 12-24.5 17.6zm-640.7-2.6c-8.6-5.8-16.7-11.8-24.2-18l3.8-4.6c7.4 6 15.3 12 23.7 17.6zm680.5-28.1l-4.1-4.4c7.4-6.9 14.2-14.1 20.2-21.3l4.6 3.8c-6.1 7.5-13.1 14.8-20.7 21.9zm-719.7-3.2c-7.5-7.3-14.3-14.8-20.3-22.4l4.7-3.7c5.8 7.4 12.5 14.7 19.8 21.8zm752.4-35l-5-3.3c5.5-8.4 10.1-17.1 13.6-25.8l5.6 2.3c-3.7 9-8.5 18.1-14.2 26.8zm-784.3-4c-5.5-8.9-10-18-13.4-27.2l5.6-2.1c3.3 8.8 7.6 17.6 12.9 26.2zm804.8-42.2l-5.8-1.4c2.3-9.5 3.4-19.1 3.4-28.8v-0.6h6v0.6c0 10.1-1.2 20.3-3.6 30.2zm-823.8-4.6c-1.7-8.4-2.6-17-2.6-25.6q0-2.4 0.1-4.8l6 0.3q-0.1 2.2-0.1 4.5c0 8.2 0.8 16.4 2.5 24.4zm819.8-45.5c-1.6-9.3-4.3-18.7-8.1-27.9l5.5-2.3c4 9.6 6.8 19.4 8.5 29.3zm-814-3.9l-5.9-1.2c1.9-9.8 5.1-19.5 9.3-29l5.5 2.5c-4.1 9.1-7.1 18.4-8.9 27.7zm797.3-41.5c-4.7-8.1-10.4-16.2-16.8-24l4.6-3.8c6.7 8 12.5 16.4 17.4 24.8zm-779.3-3.4l-5.1-3.2c5-8.2 11.1-16.5 17.9-24.4l4.5 3.9c-6.6 7.7-12.4 15.7-17.3 23.7zm749.3-35.1c-6.7-6.7-14.1-13.3-22-19.6l3.7-4.7c8.1 6.5 15.7 13.2 22.5 20.1zm-718.5-2.8l-4.1-4.3c6.9-6.8 14.6-13.4 22.8-19.7l3.7 4.7c-8 6.2-15.6 12.7-22.4 19.3zm680.7-28.5c-7.9-5.4-16.3-10.7-25.1-15.7l3-5.3c8.9 5.1 17.5 10.5 25.5 16.1zm-642.3-2.3l-3.4-5c8.1-5.4 16.8-10.7 25.7-15.7l2.9 5.2c-8.8 4.9-17.3 10.1-25.2 15.5zm599.8-22.9c-8.6-4.3-17.6-8.5-26.8-12.5l2.3-5.5c9.4 4 18.5 8.3 27.2 12.7zm-557.1-1.8l-2.6-5.4c8.7-4.3 17.9-8.5 27.3-12.4l2.3 5.5c-9.2 3.9-18.3 8-27 12.3zm511.9-18.1c-9-3.4-18.5-6.7-28-9.7l1.8-5.8c9.6 3.1 19.2 6.4 28.3 9.9zm-466.4-1.4l-2.1-5.7c9.2-3.4 18.8-6.6 28.4-9.6l1.8 5.7c-9.6 3-19 6.2-28.1 9.6zm419.4-14c-9.4-2.6-19-5.1-28.8-7.3l1.4-5.9c9.8 2.3 19.6 4.8 29 7.4zm-372.3-1.1l-1.6-5.8c9.5-2.5 19.3-5 29.2-7.1l1.3 5.8c-9.8 2.2-19.5 4.6-28.9 7.1zm324.2-10.3c-9.6-1.9-19.5-3.6-29.3-5.1l0.9-5.9c9.9 1.5 19.8 3.2 29.5 5.1zm-275.9-0.8l-1.1-5.9c9.7-1.8 19.7-3.5 29.6-4.9l0.8 5.9c-9.8 1.5-19.7 3.1-29.3 4.9zm227-7c-9.7-1.2-19.7-2.2-29.6-3l0.5-6c10 0.9 20 1.9 29.8 3.1zm-178-0.5l-0.7-6c9.9-1.1 19.9-2.1 29.9-2.8l0.4 6c-9.9 0.7-19.8 1.7-29.6 2.8zm128.7-3.9c-9.8-0.5-19.8-0.9-29.7-1l0.1-6c9.9 0.1 20 0.5 29.9 1zm-79.3-0.2l-0.3-6c9.9-0.5 20-0.8 30-0.9l0.1 6c-9.9 0.1-19.9 0.4-29.8 0.9z"/>
		<g id="&lt;Group&gt;" style="display: none">
			<path id="&lt;Path&gt;" class="s2" d="m1230.4 1755.1c-4.8-1.6-9.6-3.2-14.3-4.9l2-5.6c4.6 1.6 9.4 3.2 14.1 4.7z"/>
			<path id="&lt;Compound Path&gt;" class="s2" d="m1418.4 1784.2c-6.4 0-12.9-0.1-19.3-0.3l0.2-6c10 0.3 20.1 0.4 30 0.2l0.1 6c-3.6 0-7.3 0.1-11 0.1zm31.2-0.8l-0.3-6c10-0.5 20-1.2 30-2.2l0.5 6c-10 1-20.2 1.7-30.2 2.2zm-70.7-0.4c-10-0.7-20.2-1.6-30.2-2.7l0.7-5.9c9.9 1.1 19.9 1.9 29.9 2.6zm121-4l-0.8-6c9.9-1.2 19.9-2.8 29.7-4.5l1.1 5.9c-10 1.8-20 3.3-30 4.6zm-171.2-1.2c-10-1.5-20.1-3.2-29.9-5.1l1.1-5.9c9.8 1.9 19.8 3.6 29.6 5zm221.1-7.1l-1.3-5.9c9.8-2 19.6-4.3 29.3-6.8l1.5 5.8c-9.8 2.5-19.7 4.8-29.5 6.9zm-270.7-2.1c-9.8-2.3-19.7-4.8-29.4-7.6l1.7-5.8c9.5 2.8 19.3 5.3 29 7.5zm319.7-10.1l-1.7-5.8c9.6-2.8 19.2-5.8 28.6-9.1l2 5.7c-9.5 3.3-19.2 6.4-28.9 9.2zm47.9-16.1l-2.2-5.6c9.4-3.5 18.7-7.4 27.8-11.3l2.4 5.4c-9.2 4.1-18.6 7.9-28 11.5zm46.4-19.9l-2.6-5.4c9-4.3 18-8.8 26.8-13.6l2.8 5.3c-8.8 4.8-17.9 9.4-27 13.7zm44.7-23.6l-3.1-5.1c8.7-5.1 17.2-10.4 25.6-15.8l3.2 5c-8.4 5.5-17 10.9-25.7 15.9z"/>
			<path id="&lt;Path&gt;" class="s2" d="m1780.2 1671.5l-3.5-4.9c4.1-2.8 8.2-5.8 12.1-8.7l3.6 4.8c-4 3-8.1 5.9-12.2 8.8z"/>
		</g>
		<g id="&lt;Group&gt;">
			<path id="&lt;Path&gt;" class="s1" d="m1340.3 1950.7l-2.3-5.6q7-2.8 13.9-5.6l2.3 5.5q-7 2.9-13.9 5.7z"/>
			<path id="&lt;Compound Path&gt;" class="s1" d="m1913.8 1951.3c-7.1-6.4-14.8-12.7-22.8-18.5l3.5-4.8c8.2 5.9 16 12.3 23.4 18.9zm-541.3-13.7l-2.2-5.6c9.8-3.9 18.9-7.4 27.7-10.8l2.2 5.6c-8.9 3.4-17.9 6.9-27.7 10.8zm502.2-15.9c-8.2-5.1-16.8-10-25.6-14.5l2.7-5.4c9 4.6 17.8 9.6 26.1 14.9zm-456-1.9l-2.1-5.6c9.7-3.5 19.1-6.9 28.1-10l1.9 5.7c-8.9 3.1-18.3 6.4-27.9 9.9zm46.7-16.2l-1.9-5.7c9.7-3.2 19.3-6.1 28.5-8.8l1.7 5.7c-9.1 2.7-18.7 5.7-28.3 8.8zm365.9-4.9c-8.8-3.8-18.1-7.4-27.4-10.6l1.9-5.7c9.5 3.3 18.9 6.9 27.9 10.8zm-318.6-9.2l-1.5-5.8c9.8-2.7 19.5-5.1 28.9-7.3l1.4 5.9c-9.4 2.1-19 4.6-28.8 7.2zm272.4-7.3c-9.3-2.6-19-5-28.7-7l1.2-5.8c9.9 2 19.6 4.4 29.1 7.1zm-224.3-4.1l-1.2-5.9c9.9-2 19.8-3.7 29.4-5.2l0.9 5.9c-9.5 1.5-19.3 3.2-29.1 5.2zm176.3-6.4c-9.6-1.5-19.5-2.7-29.3-3.6l0.5-5.9c9.9 0.8 19.9 2 29.7 3.6zm-127.6-1.5l-0.7-5.9c10-1.2 20-2.2 29.8-2.8l0.3 6c-9.6 0.6-19.5 1.5-29.4 2.7zm78.6-3.3c-9.7-0.5-19.7-0.5-29.5-0.3l-0.1-6c9.9-0.2 20-0.2 29.9 0.3z"/>
			<path id="&lt;Path&gt;" class="s1" d="m1937.9 1976c-3.2-3.7-6.6-7.4-10-11l4.3-4.1c3.5 3.6 7 7.4 10.2 11.2z"/>
		</g>
	</g>
</svg>