<?xml version="1.0" encoding="iso-8859-1"?>
<!-- Uploaded to: SVG Repo, www.svgrepo.com, Generator: SVG Repo Mixer Tools -->
<!DOCTYPE svg PUBLIC "-//W3C//DTD SVG 1.1//EN" "http://www.w3.org/Graphics/SVG/1.1/DTD/svg11.dtd">
<svg fill="#000000" height="800px" width="800px" version="1.1" id="Capa_1" xmlns="http://www.w3.org/2000/svg" xmlns:xlink="http://www.w3.org/1999/xlink" 
	 viewBox="0 0 323 323" xml:space="preserve">
<path d="M293,18H30C13.458,18,0,31.458,0,48v227c0,16.542,13.458,30,30,30h263c16.542,0,30-13.458,30-30V48
	C323,31.458,309.542,18,293,18z M293,48l0.004,52H194v-2.737C194,84.987,184.013,75,171.737,75h-0.475
	C158.987,75,149,84.987,149,97.263V100h-11v-2.737C138,84.987,128.013,75,115.737,75h-0.475C102.987,75,93,84.987,93,97.263V100H83
	v-2.737C83,84.987,73.013,75,60.737,75h-0.475C47.987,75,38,84.987,38,97.263V100h-8V48H293z M257.737,168h-0.475
	C244.987,168,235,177.987,235,190.263V193h-99v-2.737c0-12.276-9.987-22.263-22.263-22.263h-0.475
	C100.987,168,91,177.987,91,190.263V193h-8v-2.737C83,177.987,73.013,168,60.737,168h-0.475C47.987,168,38,177.987,38,190.263V193
	h-8v-63h8.241c1.584,10.734,10.854,19,22.021,19h0.475c11.167,0,20.438-8.266,22.021-19h10.483c1.584,10.734,10.854,19,22.021,19
	h0.475c11.167,0,20.438-8.266,22.021-19h11.483c1.584,10.734,10.854,19,22.021,19h0.475c11.167,0,20.438-8.266,22.021-19h99.248
	l0.005,63H280v-2.737C280,177.987,270.013,168,257.737,168z M293,275H30v-52h8.241c1.584,10.734,10.854,19,22.021,19h0.475
	c11.167,0,20.438-8.266,22.021-19h8.483c1.584,10.734,10.854,19,22.021,19h0.475c11.167,0,20.438-8.266,22.021-19h99.483
	c1.584,10.734,10.854,19,22.021,19h0.475c11.167,0,20.438-8.266,22.021-19h13.256l0.004,52C293.019,275,293.013,275,293,275z"/>
</svg>