<svg version="1.2" xmlns="http://www.w3.org/2000/svg" viewBox="0 0 271 271" width="271" height="271">
	<title>all</title>
	<style>
		.s0 { opacity: 1;fill: #000000 } 
	</style>
	<path id="Path 0" fill-rule="evenodd" class="s0" d="m0 0h106.5c84.5 0 106.5 0.3 106.5 1.3 0 0.6-7.3 8.5-32.5 33.6l-66 0.3c-60.6 0.3-66.3 0.4-69.3 2-1.7 1-4.2 3.5-7.7 9.3l-0.6 132-17.2 17.3c-9.4 9.4-17.8 17.2-18.5 17.2-0.9 0-1.2-22-1.2-106.5zm269.7 53c1 0 1.3 21.5 1.3 213h-106.5c-84.5 0-106.5-0.3-106.5-1.3 0-0.6 7.5-8.5 33.3-33.6l65.6-0.3c60.2-0.3 65.9-0.4 68.9-2.1 1.7-0.9 4.2-3.4 7.7-9.2l0.6-132 17.2-17.3c9.4-9.4 17.7-17.2 18.4-17.2zm-134.3 59c13.3 0 18.4 0.3 19.4 1.2 0.9 1 1.2 6.2 1.2 19.8 0 13.2-0.3 18.9-1.2 19.7-0.9 1-6.1 1.3-19.2 1.3-13.3 0-18.4-0.3-19.4-1.2-0.9-1-1.3-6.4-1.4-19.9-0.2-14.8 0.1-18.7 1.2-19.7 1-0.8 6.9-1.2 19.5-1.2z"/>
</svg>