<svg version="1.2" xmlns="http://www.w3.org/2000/svg" viewBox="0 0 207 207" width="207" height="207">
	<title>champ</title>
	<style>
		.s0 { opacity: .99;fill: currentColor }
	</style>
	<path id="Path 0" class="s0" d="m98 14.7c-1.4 0.2-5 1.1-8 1.9-3 0.9-8 2.7-11 4.1-3 1.4-8 4.3-11 6.3-3 2.1-7.5 5.9-10 8.6-2.5 2.7-6 6.9-7.6 9.4-1.7 2.5-4.4 7.7-5.9 11.5-2.2 5.4-3 9.6-3.6 18-0.5 6-1.3 19.5-1.8 30-0.7 12-1.6 21-2.7 24.5-0.9 3-3 8.2-4.6 11.5l-3.1 6c4.4 10.1 7.6 16.2 9.9 20 2.4 3.8 6 9 8.1 11.4 2.1 2.4 5.4 5.4 7.3 6.6 1.9 1.2 6.1 3.2 9.3 4.3l5.7 2.2c-3-5-4.6-9.4-5.4-13-0.8-3.6-1.8-10.6-2.1-15.5-0.5-6.9-0.2-11.8 1.4-21 1.2-6.6 2.1-13 2.1-14.2 0-1.6-1.2-3-4.3-4.7-2.3-1.3-6.1-4.5-8.5-7-2.3-2.5-4.9-6.2-5.7-8.1-0.8-1.9-1.5-6.4-1.5-10 0-3.6 0.5-7.7 1.1-9.3 0.5-1.5 2.2-3.9 3.7-5.5 2.2-2.2 3.6-2.7 7.2-2.7 2.5 0 7.4 0.8 11 1.9 3.9 1.2 8.6 3.6 11.8 6 2.8 2.3 7.1 6 9.3 8.4 2.3 2.3 4.9 5.5 5.8 7.2 1.3 2.5 1.7 7.1 1.9 27l0.4 24c4.7 3.4 4.9 3.4 7.5 1.6l2.8-1.9c1.2-36.2 1.8-48 2.2-49.7 0.4-1.8 3.5-5.8 7.8-10.1q7-7 13.5-10.2c3.6-1.7 9.3-3.7 12.7-4.4 5.9-1.2 6.4-1.2 9 0.8 1.5 1.2 3.6 3.4 4.6 5 0.9 1.6 2 5.4 2.3 8.4 0.4 3 0.4 7.1 0.1 9-0.4 1.9-2 5.5-3.6 8-1.6 2.5-6 6.8-9.8 9.6l-6.8 5.2c3.4 20.7 4.5 29.9 4.5 33.7 0 3.8-0.4 9.5-0.9 12.5-0.5 3-2 8.3-3.5 11.8-1.8 4.2-2.2 6.2-1.3 6.2 0.6 0 3.2-1 5.7-2.1 2.5-1.1 6.8-3.8 9.5-5.9 2.8-2.1 7-6.7 9.5-10.2 2.4-3.4 6.1-10 8.2-14.6 2.1-4.5 3.8-9.2 3.8-10.5 0-1.2-0.9-4.2-2-6.7-1.2-2.5-3-6.1-4.1-8-1.9-3.1-2.2-6.6-3.5-31-0.7-15.1-1.8-30.9-2.3-35-0.7-5.3-2.1-9.7-4.8-15-2.6-5.1-6-9.8-10.8-14.5-3.8-3.9-10.4-9.2-14.5-11.7-4.1-2.6-10.9-5.8-15-7.1-4.1-1.4-9.7-2.7-12.5-3-2.7-0.2-6.1-0.2-7.5 0z"/>
	<g id="g1">
	</g>
</svg>