<svg width="16" height="16" viewBox="0 0 16 16" fill="none" xmlns="http://www.w3.org/2000/svg">
<path fill-rule="evenodd" clip-rule="evenodd" d="M7.99998 14.4C11.5346 14.4 14.4 11.5346 14.4 8.00001C14.4 4.46538 11.5346 1.60001 7.99998 1.60001C4.46535 1.60001 1.59998 4.46538 1.59998 8.00001C1.59998 11.5346 4.46535 14.4 7.99998 14.4ZM7.99998 12.5714C10.5247 12.5714 12.5714 10.5247 12.5714 8.00001C12.5714 5.47528 10.5247 3.42858 7.99998 3.42858C5.47525 3.42858 3.42855 5.47528 3.42855 8.00001C3.42855 10.5247 5.47525 12.5714 7.99998 12.5714Z" fill="currentColor"/>
<path fill-rule="evenodd" clip-rule="evenodd" d="M7.0857 5.25714H7.99998L8.54856 7.45144L10.7428 8.00001V8.9143H7.99998L7.69521 8.30475L7.0857 8V7.08573L7.08569 7.08573L7.0857 7.08573V5.25714Z" fill="currentColor"/>
</svg>
