<?xml version="1.0" ?><!-- Uploaded to: SVG Repo, www.svgrepo.com, Generator: SVG Repo Mixer Tools -->
<svg fill="#000000" width="800px" height="800px" viewBox="0 -0.08 20 20" data-name="Capa 1" id="Capa_1" xmlns="http://www.w3.org/2000/svg"><path d="M16.07,8.91,10.93,5.53h0l-.24-.16.46-.3a.38.38,0,0,0,.11-.52.38.38,0,0,0-.52-.11L10,4.92l-.73-.48a.38.38,0,0,0-.52.11.38.38,0,0,0,.11.52l.46.3-.24.16h0L3.93,9a.37.37,0,0,0-.1.52.36.36,0,0,0,.31.16.42.42,0,0,0,.21-.06l1.17-.78V14a.81.81,0,0,0,.81.81h7.21a.81.81,0,0,0,.81-.81V8.68l1.3.86a.38.38,0,0,0,.52-.11A.37.37,0,0,0,16.07,8.91ZM11,14.08,9,14.06V12.47a1,1,0,1,1,1.92,0Zm2.58,0-1.83,0V12.47a1.71,1.71,0,1,0-3.42,0v1.59l-2,0V8.29L9.62,6.07a.7.7,0,0,1,.76,0L13.6,8.19Z"/><path d="M8.93,9A1.07,1.07,0,1,0,10,8,1.06,1.06,0,0,0,8.93,9Zm1.44,0A.37.37,0,1,1,10,8.66.38.38,0,0,1,10.37,9Z"/></svg>