<svg version="1.2" xmlns="http://www.w3.org/2000/svg" viewBox="0 0 128 128" width="128" height="128">
	<title>Gathering_Storm_Mark</title>
	<style>
		.s0 { opacity: .73;fill: #000000 } 
		.s1 { opacity: .5;fill: none;stroke: #000000;stroke-miterlimit:100 } 
	</style>
	<g id="Background">
		<path id="Path 0" class="s0" d="m27.8 9.7l-14.8 0.3-5 6.5c3.1 26.2 3.6 28.3 5.7 30.3 1.2 1.2 3.1 2.2 4 2.2 1 0 5.1-1 9-2.2l7.3-2.3c0-8.5-0.4-11.5-0.8-12.1-0.4-0.6-1.7-1.6-3-2.3-1.2-0.6-2.5-1.1-3-1.1-0.4 0-0.8 1.9-0.9 4.2-0.1 2.4-0.5 4.7-1 5.1-0.4 0.5-1.8 0.3-3-0.5-1.3-0.7-2.5-2.7-2.9-4.3-0.3-1.6-0.3-4.9 0-7.3 0.5-3.2 1.3-4.6 3.4-5.9q2.7-1.7 6.9-1.2c2.6 0.2 4.7 1.1 5.7 2.4 1.1 1.5 1.5 4.6 1.6 11.8 0 5.3 0.5 10.8 1 12.2 0.5 1.4 4.9 6.9 9.7 12.3 4.8 5.3 9.2 10 9.8 10.4 0.5 0.3-3.3 5.2-8.7 11-5.6 5.9-12 13.9-14.9 18.8-2.8 4.7-6.4 10.4-8 12.7-1.6 2.4-2.9 4.5-2.9 4.8 0 0.3 4.4-2.8 9.7-6.9 5.4-4.1 12.5-10 15.8-13.3 3.4-3.2 8.4-8.4 11.3-11.6 5.1-5.6 5.2-5.7 7.3-4 1.2 1 5.9 6.1 10.5 11.3 4.7 5.2 10.1 10.8 12.2 12.3 2 1.6 6.9 5.1 10.7 7.7 3.8 2.7 7.1 4.7 7.3 4.5 0.1-0.3-3.4-5.9-7.8-12.5-4.4-6.6-12.3-16.7-17.5-22.5l-9.5-10.5c3.2-4.3 7.4-8.8 11.3-12.8 4-4 7.9-7.3 8.7-7.2 0.8 0 3.3 0.5 5.5 1.1 3.3 0.9 4.6 0.8 7.8-0.8 2.3-1.1 3.6-2.3 3.2-3.1-0.3-0.6-0.5-1.4-0.5-1.7 0-0.3-0.6-0.5-1.3-0.5-0.6 0-2.4-1.2-3.9-2.7-1.5-1.6-2.8-3.3-2.7-3.8 0-0.5 3.9-5 8.8-10 4.8-5 9.4-10.1 10.1-11.5 1.3-2.3 1.3-2.4-0.6-1.7-1 0.4-2.4 0.3-2.9-0.2-0.5-0.6-0.8-2.3-0.6-3.8 0.4-2.6 0.3-2.7-1.5-1.4-1 0.8-6.3 5.8-11.6 11l-9.8 9.6c-4.7-4.6-6-6.5-6-7 0-0.6-0.5-1.5-1.2-2.2-1-0.9-1.7-0.7-3.1 1.3-0.9 1.3-1.8 3.4-1.9 4.6 0 1.3 0.2 5.2 0.6 8.8l0.8 6.5c-16.4 18.2-16.8 18.5-18.6 16.8-1-1-4.9-5.4-8.7-9.8l-6.8-8c0-25.5-0.3-27.3-2.1-29.8-1.1-1.5-2.3-2.6-2.7-2.5-0.5 0.1-7.4 0.4-15.5 0.5z"/>
		<path id="Stroke" class="s1" d="m27.8 9.7l-14.8 0.3-5 6.5c3.1 26.2 3.6 28.3 5.7 30.3 1.2 1.2 3.1 2.2 4 2.2 1 0 5.1-1 9-2.2l7.3-2.3c0-8.5-0.4-11.5-0.8-12.1-0.4-0.6-1.7-1.6-3-2.3-1.2-0.6-2.5-1.1-3-1.1-0.4 0-0.8 1.9-0.9 4.2-0.1 2.4-0.5 4.7-1 5.1-0.4 0.5-1.8 0.3-3-0.5-1.3-0.7-2.5-2.7-2.9-4.3-0.3-1.6-0.3-4.9 0-7.3 0.5-3.2 1.3-4.6 3.4-5.9q2.7-1.7 6.9-1.2c2.6 0.2 4.7 1.1 5.7 2.4 1.1 1.5 1.5 4.6 1.6 11.8 0 5.3 0.5 10.8 1 12.2 0.5 1.4 4.9 6.9 9.7 12.3 4.8 5.3 9.2 10 9.8 10.4 0.5 0.3-3.3 5.2-8.7 11-5.6 5.9-12 13.9-14.9 18.8-2.8 4.7-6.4 10.4-8 12.7-1.6 2.4-2.9 4.5-2.9 4.8 0 0.3 4.4-2.8 9.7-6.9 5.4-4.1 12.5-10 15.8-13.3 3.4-3.2 8.4-8.4 11.3-11.6 5.1-5.6 5.2-5.7 7.3-4 1.2 1 5.9 6.1 10.5 11.3 4.7 5.2 10.1 10.8 12.2 12.3 2 1.6 6.9 5.1 10.7 7.7 3.8 2.7 7.1 4.7 7.3 4.5 0.1-0.3-3.4-5.9-7.8-12.5-4.4-6.6-12.3-16.7-17.5-22.5l-9.5-10.5c3.2-4.3 7.4-8.8 11.3-12.8 4-4 7.9-7.3 8.7-7.2 0.8 0 3.3 0.5 5.5 1.1 3.3 0.9 4.6 0.8 7.8-0.8 2.3-1.1 3.6-2.3 3.2-3.1-0.3-0.6-0.5-1.4-0.5-1.7 0-0.3-0.6-0.5-1.3-0.5-0.6 0-2.4-1.2-3.9-2.7-1.5-1.6-2.8-3.3-2.7-3.8 0-0.5 3.9-5 8.8-10 4.8-5 9.4-10.1 10.1-11.5 1.3-2.3 1.3-2.4-0.6-1.7-1 0.4-2.4 0.3-2.9-0.2-0.5-0.6-0.8-2.3-0.6-3.8 0.4-2.6 0.3-2.7-1.5-1.4-1 0.8-6.3 5.8-11.6 11l-9.8 9.6c-4.7-4.6-6-6.5-6-7 0-0.6-0.5-1.5-1.2-2.2-1-0.9-1.7-0.7-3.1 1.3-0.9 1.3-1.8 3.4-1.9 4.6 0 1.3 0.2 5.2 0.6 8.8l0.8 6.5c-16.4 18.2-16.8 18.5-18.6 16.8-1-1-4.9-5.4-8.7-9.8l-6.8-8c0-25.5-0.3-27.3-2.1-29.8-1.1-1.5-2.3-2.6-2.7-2.5-0.5 0.1-7.4 0.4-15.5 0.5z"/>
	</g>
</svg>