<svg version="1.2" xmlns="http://www.w3.org/2000/svg" viewBox="0 0 160 160" width="160" height="160">
	<title>gold_hp</title>
	<style>
		.s0 { opacity: 1;fill: #000000 } 
	</style>
	<path id="Path 0" class="s0" d="m32.5 29.1c-3.3 1.2-8.2 3.7-10.9 5.7-2.7 2.1-6.1 5.5-7.6 7.7-1.5 2.2-3.5 6.2-4.6 9-1.4 3.6-1.9 7.6-1.9 14.1 0 8.5 0.2 9.5 3.9 17 3.2 6.3 5.9 9.9 14 18 8.1 8.1 13.7 12.5 28.1 22 9.9 6.5 19.9 13.8 22.3 16.1l4.2 4.3c6.6-6.4 16.8-13.8 27-20.5 12.7-8.4 21-14.7 26.5-20.1 4.4-4.4 9.7-10.4 11.7-13.4 2-3 4.4-7.5 5.4-10 1.1-3 1.7-7.5 1.8-13.5 0-6.9-0.5-10.3-2.1-14.5-1.2-3-4.4-8-7.1-11-2.7-3-7.1-6.7-9.8-8.2-2.7-1.5-7.9-3.2-11.7-3.9-5.2-0.9-8-0.9-12.2-0.1-3 0.7-7.9 2.3-10.8 3.7-2.8 1.4-7.2 4.4-9.7 6.7-2.5 2.4-5.6 5.5-6.8 7l-2.2 2.8c-4.3-5-6.6-7.6-8-8.9-1.4-1.3-4.3-3.7-6.5-5.3-2.2-1.6-6.9-3.8-10.5-4.9-3.6-1.1-8.8-1.9-11.5-1.9-2.8 0-7.7 1-11 2.1z"/>
</svg>