<svg version="1.2" xmlns="http://www.w3.org/2000/svg" viewBox="0 0 158 158" width="158" height="158">
	<title>heavyhitter_large</title>
	<style>
		.s0 { opacity: .96;fill: #000000 } 
	</style>
	<path id="Path 0" fill-rule="evenodd" class="s0" d="m102.1 16h40.9v41l-5.2 2.6c-2.9 1.5-8 4.5-11.3 6.7-3.3 2.2-9.3 7.2-13.3 11.1-4.1 3.9-9.8 10.7-12.7 15.1-2.9 4.4-6.1 9.7-9 15.5l-7.5-0.6c-4.1-0.3-8.7-0.2-13 1.1l5.4 5.5c4.2 4.4 6.6 5.9 11.6 7.5 3.4 1.1 6.4 2.2 6.6 2.5 0.1 0.3-5.7 1.7-12.9 3.3-7.3 1.5-13.6 2.7-14.2 2.7-0.5 0-1.3-1.2-1.6-2.7-0.4-1.6-1.9-4.3-3.3-6-2.1-2.7-3.3-3.3-6.5-3.3-3.5 0-4.7 0.8-21.1 16.5l5.5 5.4-3.5 2.1c-2.5 1.5-4.8 2-8.1 1.8-3-0.2-5.7-1.2-8.2-3.1-2.3-1.7-4.1-4.1-4.8-6.5-0.6-2-0.9-5.3-0.5-7.2 0.3-1.9 1.3-4.6 3.8-8.5l5.3 5.5 8.2-8.3c7.8-7.7 8.3-8.5 8.3-12.4 0-3.6-0.5-4.7-3.2-6.9-1.8-1.4-4.5-2.9-6.1-3.3-1.5-0.3-2.7-1.1-2.7-1.6 0-0.5 1.2-7 2.7-14.2 1.6-7.3 3.1-12.9 3.4-12.5 0.3 0.4 1.4 3.2 2.5 6.2 1.3 4 3.4 7.2 7.8 11.8 5.2 5.3 6.6 6.2 9.6 6.2 1.9 0 5.1 0.8 7 1.9 1.9 1 4.5 3.6 7.9 9.6l8.8-0.4c5.4-0.2 9-0.7 9.2-1.5 0.3-0.6 3-4.9 6.1-9.6 3.1-4.7 8.3-11.2 11.6-14.5 3.2-3.3 8.8-8.3 12.4-11 3.6-2.8 9.2-6.4 18-11v-14.3c0-7.8-0.3-14.2-0.8-14.2-0.4 0-15.1 14.4-32.7 32-28 27.9-32.2 31.8-33.5 30.5-0.8-0.7-3.2-2.1-5.2-2.9-2.1-0.9-5.6-1.6-7.8-1.6-4 0-4 0-4-3.8 0-2-0.2-5.4-0.5-7.5-0.5-3.4-0.3-3.8 2.8-5 1.7-0.7 6.4-3.4 10.2-5.8 3.9-2.5 10.1-7.4 13.9-11 3.7-3.5 8.9-9.1 11.3-12.4 2.5-3.3 6.3-9.3 8.5-13.3zm-53.8 85.8c-0.3 1.5-0.1 3.8 0.5 5 0.6 1.2 2.3 2.8 3.7 3.5 1.8 0.9 3.3 1 5.2 0.2 1.5-0.5 3.3-2.3 4.1-4 1-2.2 1.1-3.6 0.3-5.4-0.6-1.4-2.3-3.1-3.6-3.8-1.4-0.7-2.9-1.2-3.3-1.2-0.4 0-2 0.7-3.5 1.5-1.6 0.8-3 2.6-3.4 4.2z"/>
</svg>