<svg version="1.2" xmlns="http://www.w3.org/2000/svg" viewBox="0 0 188 188" width="188" height="188">
	<title>gold_hybrid1</title>
	<style>
		.s0 { fill: currentColor}
	</style>
	<path id="Path 0" fill-rule="evenodd" class="s0" d="m161.8 41.1c0.6 0 1.2 0.5 1.2 1.1 0 0.7-0.5 2.9-1.1 4.8-0.8 2.6-2.1 3.9-5 5.2-2.8 1.3-4.1 2.6-4.5 4.5-0.4 1.6-1.4 3.6-2.3 4.7-0.9 1-12.6 12.6-50.6 49.5l-7-6.8 14-14.2-9.8 0.1c-9.4 0-9.7-0.1-9.7-2.3 0-1.2 1.3-3.7 5.7-8.7h25.8l7.3-8h-9.9c-9.6 0-9.9-0.1-9.9-2.3 0-1.2 1.4-3.7 6.3-8.7h25.2l3.8-4c2.2-2.2 4.7-4 5.8-4 1 0 2.8-1.2 3.9-2.8 1.2-1.5 2.3-3.4 2.5-4.2 0.3-0.8 1.9-2 3.7-2.6 1.8-0.6 3.9-1.2 4.5-1.3zm-87.2 5.5c5.9 0.4 8.3 1 9.3 2.2 0.7 0.9 1.2 3.2 1.2 4.9 0 1.8-0.7 4.4-1.5 5.8-1.3 2.1-2.2 2.5-11.5 2.5l3.6 4.7c3.4 4.6 3.6 5 2.9 10.3-0.4 3-1.6 7.7-2.6 10.5-1.1 2.7-3.1 6.5-4.4 8.2-1.4 1.8-2.4 3.5-2.3 3.6 0.2 0.2 2.5 1.4 5.3 2.7 2.7 1.3 7 4.5 9.5 7 2.5 2.5 5.3 6.1 6.2 8 1.3 2.8 1.5 4.4 0.7 8-0.5 2.5-0.7 4.6-0.4 4.7 0.3 0.2 2.3-0.7 4.4-2 3.4-1.9 4.2-2 6.5-1 1.4 0.7 3.6 3.2 6.8 9.8l-2.8 2.3c-1.6 1.3-5.4 3.8-8.4 5.6-3 1.8-8.4 4.4-12 5.8-3.6 1.5-10.3 3.6-15 4.7-6.1 1.5-11.6 2.1-19.5 2.1-6.1 0-11.6-0.4-12.3-0.8-0.7-0.4-1.6-2.8-2-5.4-0.6-4.2-0.4-5 1.8-7.3 2-2 3.1-2.4 5.5-1.9 1.6 0.4 3.6 0.4 4.2 0 0.9-0.4 0.4-1.6-1.7-4.1-1.7-1.9-3.3-4.5-3.6-5.8-0.3-1.2 0.2-5.8 1.2-10.2 1.1-5.3 2.9-9.7 5.1-13 1.8-2.8 3.2-5 3.1-5-0.2 0-2.4-1-5.1-2.3-2.6-1.2-6.6-3.9-8.8-6-2.3-2-5.2-5.5-6.5-7.7-2.2-3.6-2.3-4.5-1.4-9 0.6-2.8 0.8-5.1 0.5-5.3-0.3-0.1-1.9 0.7-3.5 1.8-1.7 1.1-4.2 1.9-5.7 1.7-1.9-0.1-3.6-1.4-5.5-4.2-1.5-2.2-2.7-4.6-2.8-5.3 0-0.6 3.3-3.4 7.2-6 4-2.7 11-6.3 15.5-8 4.6-1.8 10.4-3.7 13-4.3 2.7-0.6 7.7-1.4 11.3-1.9 3.6-0.5 10.1-0.6 14.5-0.4zm-33.8 20.7c-4.9 2.3-5.8 3.2-6.3 5.9-0.3 1.8-0.3 4.2 0 5.3 0.4 1.1 2 3.6 3.6 5.5l2.9 3.5 9.6-4.9c10.7 6 11.2 6.1 14.2 4.8 2.7-1.1 3.6-2.4 5-6.7 0.9-2.8 1.7-7 1.7-9.2 0.1-2.5-0.6-5-1.9-6.7-1.8-2.4-2.6-2.7-7.5-2.7-3 0-7.8 0.6-10.5 1.3-2.8 0.7-7.6 2.4-10.8 3.9zm12.8 49.9c-1.4 2.9-2.5 6.1-2.5 7 0 1 0.7 1.8 1.5 1.8 0.8 0 3.2-1.8 5.2-4.1 2.4-2.4 5.2-4.4 7.5-5 2.1-0.5 6.1-0.6 8.8-0.2 3.8 0.6 5 0.5 5-0.5 0-0.6-1.5-2.3-3.3-3.6-1.7-1.3-4.7-3.1-6.5-4-1.7-0.9-4.3-1.6-5.7-1.6-1.4 0-3.7 1.1-5 2.5-1.4 1.4-3.6 4.9-5 7.7zm26.7 17.4c0.2 0.3 1.3 0.3 2.5 0 1.3-0.3 2.8-1.8 3.3-3.4 0.6-1.5 0.8-3.3 0.5-4-0.3-0.6-0.8-1.2-1.3-1.2-0.4 0-1.8 1.8-3 4-1.2 2.2-2.1 4.3-2 4.6zm96.1-78.5l1 3.2c0.8 2.2 0.7 6.2-0.1 12.9-0.7 5.4-2.1 12.2-3.2 15-1 2.9-3.6 7.3-5.7 9.7-2.1 2.4-6.3 5.6-9.3 7.1-3 1.5-7.9 3.3-10.8 3.9-2.8 0.6-9.8 1.1-25.7 1.1l3.4-2.8c1.9-1.5 4.3-4.5 5.3-6.7 0.9-2.2 1.8-6 1.8-8.5 0-4.4 0.3-4.8 11.3-15.7 9.6-9.6 11.6-11.1 13.7-10.7 1.4 0.3 4.4 0.1 6.7-0.5 2.4-0.6 5.9-2.6 8-4.6z"/>
</svg>