<svg version="1.2" xmlns="http://www.w3.org/2000/svg" viewBox="0 0 177 177" width="177" height="177">
	<title>gold_hybrid2</title>
	<style>
		.s0 { fill:currentColor}
	</style>
	<path id="Path 0" fill-rule="evenodd" class="s0" d="m152.3 23.1c1.6-0.1 1.6 0.2 0.2 4.6-0.8 2.7-1.5 4.9-1.5 5 0 0.2-0.7 0.3-1.5 0.3-0.8 0-2.9 1.1-4.5 2.5-1.7 1.4-3 3.3-3 4.2 0 1-11.8 13.6-52.5 54.3h-6.3c-3.4 0-6.2-0.3-6.2-0.7 0-0.5 13.2-14 29.2-30 16.2-16.2 30.1-29.3 31-29.3 1 0 2.9-1.3 4.3-3 1.4-1.6 2.4-3.4 2.3-4-0.1-0.5 1.3-1.6 3.2-2.4 1.9-0.8 4.3-1.5 5.2-1.5zm-110.5 7.9h18.6c17.3 0 19 0.2 23.4 2.3 2.5 1.2 6 3.8 7.6 5.7 1.7 1.9 3.6 5 4.4 6.8 0.7 1.7 1.3 5.2 1.3 7.7 0 2.5-0.5 5.7-1.1 7.3-0.5 1.5-2.5 4.2-4.2 6.1-1.8 1.8-5 4.2-7.2 5.2-3.4 1.6-6.6 1.9-22.8 1.9-10.3 0-18.7-0.2-18.7-0.5 0-0.3 2-2.9 4.5-5.7 3.7-4.4 4.2-5.4 2.8-5.6-1-0.2-3.6 0.1-5.8 0.7-2.2 0.7-5.2 2.3-6.8 3.6-1.5 1.4-3.2 3.6-3.7 5-0.6 1.4-1 4-1 5.8 0 1.7 0.9 5 1.9 7.2 1.1 2.2 3.7 5.3 5.8 6.9 2.1 1.7 5.3 3.6 7 4.3 1.8 0.7 8.6 2.2 15 3.3 8.9 1.6 17.8 2.2 35.8 2.5 18.3 0.3 26.1 0.9 33 2.3 4.9 1 11.7 3.1 15 4.6 3.3 1.5 7.1 3.7 8.5 4.8 1.4 1.1 3.5 3.6 4.7 5.6 1.7 2.8 2.3 5.2 2.3 9.7 0 3.7-0.8 7.5-1.9 10-1 2.2-3.1 5.2-4.7 6.8-1.6 1.5-5.9 3.8-9.7 5.2-3.7 1.4-8.7 2.5-11.2 2.5-2.5 0-8-0.9-12.3-2.1-4.2-1.1-10.8-3.7-14.7-5.7-3.8-2-9.9-6.4-13.4-9.7-3.5-3.3-7.7-7.8-9.3-10-1.6-2.2-2.8-4.3-2.8-4.7 0-0.5 3.3-0.8 14.5-0.7l5 4.8c2.7 2.6 7.9 6.3 11.5 8.1 5.6 2.9 7.8 3.4 15.5 3.8 9 0.5 9 0.5 11.3-2.4 1.9-2.3 2.2-3.6 1.7-6.4-0.4-2.2-1.9-4.7-4-6.7-2-1.9-5.8-4-8.8-4.8-2.8-0.9-8.4-2-12.2-2.5-3.9-0.5-16.7-1.1-28.5-1.5-11.8-0.3-26-1.2-31.5-2-5.5-0.9-13.2-2.5-17-3.6-3.9-1.2-9.5-3.4-12.5-4.9-3-1.6-7.3-4.4-9.5-6.3-2.2-1.9-5.1-5.6-6.5-8.3-2-4-2.5-6.3-2.4-12.4 0-5.6 0.6-8.5 2.1-11.5 1.1-2.2 4-5.8 6.4-8 2.4-2.3 6.4-5.1 8.9-6.2 2.5-1.2 7.2-2.9 10.5-3.8 3.3-0.8 7.9-1.5 10.2-1.5 2.4 0 4.5-0.3 4.8-0.7 0.2-0.5-1.9-3.4-4.7-6.5zm125.5 7.5c0.6 0.3 1 3.7 0.9 7.5 0 3.8-0.7 10.2-1.5 14.2-0.7 4-2.3 9.2-3.5 11.5-1.1 2.3-3.8 6.1-5.8 8.3-2.1 2.3-5.8 5-8.3 6.2-2.5 1.2-6.7 2.7-9.5 3.4-2.7 0.7-9.8 1.3-26.5 1.4l3.7-3.3c2-1.8 4.2-4.7 5-6.5 0.7-1.8 1.3-5.4 1.3-8 0-4.7 0.1-4.8 10.9-15.5 10.9-10.8 10.9-10.8 16.3-11.1 2.9-0.2 6.7-1.1 8.3-1.9 1.7-0.9 4.1-2.7 5.4-4.1 1.3-1.4 2.8-2.4 3.3-2.1zm-117.7 81.5h13l-14.5 14.4c-12.1 12-15.1 14.6-22.3 16.1l0.7-4c0.6-3.4 2.6-5.9 11.9-15.3z"/>
</svg>