<svg version="1.2" xmlns="http://www.w3.org/2000/svg" viewBox="0 0 64 64" width="64" height="64">
	<title>galaxy_spacepirate</title>
	<style>
		.s0 { opacity: .96;fill: currentColor }
	</style>
	<path id="Path 0" fill-rule="evenodd" class="s0" d="m19.5 2.6c1.6 0.3 3.3 0.9 3.8 1.3 0.4 0.3-0.6 2.5-2.3 4.8-1.6 2.4-3.7 4.3-4.5 4.3-1.2 0-1.4 0.8-0.9 3.3 0.6 3.1 0.5 3-5.6-6.3l3.2-4c2.9-3.5 3.7-3.9 6.3-3.4zm25.4 6.4c0.9 0 3.2 0.4 5.1 1 3 0.8 4.2 2.2 13 17l-3.9 4.7c-3.7 4.5-4 5.4-5.6 22.5l-16.5 8.8-6-3c-4.3-2.2-6-3.6-6-5 0-1.1 0.5-2.9 1-4 0.6-1.1 2.4-2.2 4-2.5 2.5-0.4 3-1 3.3-3.8 0.2-2.6 0.6-3.1 2.2-2.9 1.1 0.2 5.5-0.9 9.8-2.5 4.3-1.5 7.7-3 7.7-3.3 0-0.3-2-4.1-4.3-8.5-3.7-7.1-4.6-8-7.7-8.7-1.9-0.4-3.6-0.9-3.7-1-0.2-0.2 1.1-2.2 2.9-4.6 1.7-2.3 3.9-4.2 4.7-4.2zm-34.6 19.1c0.4-0.1 0.2 0.6-0.5 1.5-0.8 1-1.1 3.4-0.9 5.8 0.2 2.3 1.2 5.4 2.2 7.1 1.1 1.6 1.9 4.2 1.9 8.5l-4-2c-3.6-1.8-4-2.4-4-5.8 0-2-0.3-5.7-0.6-8.2-0.6-4.3-0.5-4.6 2.2-5.6 1.6-0.7 3.3-1.2 3.7-1.3zm15.7-23.8l4.2 0.9c2.4 0.6 6 1.4 11.8 2.8l-3.2 4.5c-1.8 2.5-4 4.5-4.8 4.5-0.8 0-4.2-0.7-7.5-1.6-3.3-0.9-6.1-1.8-6.2-2-0.2-0.2 1-2.4 2.7-4.8zm7 15.9c0.3-0.1 2.2 0.3 4.3 0.9 2 0.5 4 1.8 4.3 2.7 0.3 1.1-0.3 2.4-1.8 3.6-1.2 1-3.9 1.8-5.8 1.8-2 0-4.6-0.9-6-2-2.1-1.7-2.3-2.3-1.3-3.8 0.7-1 2.2-2.1 3.5-2.5 1.3-0.3 2.5-0.7 2.8-0.7zm-16.5 2.9c0.8 0 2.7 1.2 4.1 2.7 1.3 1.5 2.5 3.8 2.5 5-0.1 1.5-0.7 2.3-1.8 2.3-1-0.1-2.8-1.1-4.1-2.3-1.3-1.3-2.2-3.4-2.2-5 0-1.7 0.6-2.7 1.5-2.7zm15.4 7.9c0.4 0 1.4 0.8 2.3 1.8 0.9 1 1.9 3 2.2 4.5 0.4 1.5 0.5 2.8 0.4 2.8-0.2 0-1.7-0.5-3.5-1-2.6-0.8-3.3-1.6-3.4-3.9-0.1-1.5 0.2-3.1 0.6-3.5 0.5-0.3 1.1-0.6 1.4-0.7zm-19.5 2.3c0.6 0.3 5.3 2 10.4 3.9 9.1 3.3 9.3 3.5 9 6.3-0.2 2.3-1 3.1-3.8 4.1-3 1-3.5 1.6-3.7 4.8-0.2 2-0.5 3.7-0.8 3.7-0.3 0-2.3-0.9-4.5-2-3.4-1.7-4-2.5-4-5.3 0-1.8-0.9-4.7-2-6.5-1.1-1.8-1.9-4.6-1.8-6.3 0.1-1.9 0.6-2.9 1.2-2.7z"/>
</svg>