<svg version="1.2" xmlns="http://www.w3.org/2000/svg" viewBox="0 0 100 100" width="100" height="100">
	<title>icons8-stamp-100</title>
	<style>
		.s0 { opacity: .79;fill: #000000 } 
	</style>
	<path id="Path 0" fill-rule="evenodd" class="s0" d="m30.5 22.1c4.4-0.1 7.4 0.6 11 2.3 2.8 1.3 6.6 4 8.5 6 1.9 2 4.2 3.6 5 3.6 0.8 0 3.3 1.1 5.5 2.5 2.2 1.3 5.5 2.5 7.3 2.5 1.7 0 4.7-1 6.5-2.2 1.7-1.2 4.8-2.4 6.7-2.6 2.5-0.3 4.9 0.3 8.5 2.1 2.8 1.4 5.8 2.8 6.8 3.1 0.9 0.3 1.7 1.2 1.7 1.8 0 1-0.8 1.1-3.2 0.5-1.8-0.5-4.6-1.8-6.3-2.9-1.7-1.2-4.3-2.1-6-2.1-1.7 0-5 1.2-7.5 2.6-2.5 1.5-5.6 2.7-7 2.7-1.4 0-4.6-1.1-7.3-2.5-2.6-1.4-4.9-2.5-5.2-2.5-0.3 0 0 1.2 0.6 2.7 0.6 1.6 2.6 3.8 4.5 5 1.9 1.3 4.9 2.3 6.9 2.3 1.9 0 5-1 6.8-2.2 1.7-1.2 4.8-2.4 6.7-2.6 2.5-0.3 4.9 0.3 8.5 2.1 2.8 1.4 5.8 2.8 6.8 3.1 0.9 0.3 1.7 1.2 1.7 1.8 0 1-0.8 1.1-3.2 0.5-1.8-0.5-4.5-1.7-6-2.8-1.6-1.1-4.4-1.9-6.5-1.9-2.2 0-5.5 1.1-7.8 2.5-2.2 1.4-5.3 2.5-7 2.5-1.7 0-4.5-0.9-9.5-4v2.5q0 2.5 3 4.5c1.6 1.1 4.7 2 6.8 2 2.3 0.1 4.8-0.8 6.7-2.1 1.7-1.3 4.6-2.5 6.5-2.7 2.5-0.3 5 0.3 8.5 2.1 2.8 1.4 5.8 2.8 6.8 3.1 0.9 0.3 1.7 1.1 1.7 1.6 0 0.5-1 1-2.2 1-1.3 0-4.1-1.1-6.3-2.5-2.2-1.3-5.6-2.5-7.5-2.5-2.1 0-4.7 0.8-6.5 2.1-1.7 1.3-4.6 2.5-6.5 2.7-2.4 0.4-4.6-0.1-11-3.8l-0.5 2.2c-0.2 1.3-0.3 2.3-0.2 2.4 0.1 0 1.8 1.1 3.7 2.4 1.9 1.3 4.8 2.3 6.5 2.3 1.7 0 5.3-1.3 8-2.8 3.9-2.2 5.7-2.7 8.5-2.2 1.9 0.4 4.6 1.5 6 2.5 1.4 1 3.7 2.2 5.3 2.5 1.5 0.4 2.7 1.2 2.7 1.7 0 0.5-1 1-2.3 1-1.2 0-4-1.1-6.2-2.5-2.2-1.3-5.5-2.5-7.3-2.5-1.7 0-4.7 1-6.5 2.2-1.7 1.2-4.8 2.4-6.7 2.6-2.6 0.4-4.8-0.2-13-4.8l-1.4 2.7c-0.7 1.6-3.3 4.6-5.7 6.9-2.4 2.2-6.4 4.8-8.9 5.8-3.4 1.3-6.3 1.7-11.5 1.3-4.2-0.2-8.6-1.2-11-2.4-2.2-1.1-5.9-4.2-8.3-6.9-2.5-2.8-4.9-7-5.8-9.9-1.1-3.5-1.3-5.3-0.5-6q1.1-1 1.5 0.5c0.2 0.8 0.9 3.1 1.5 5 0.6 1.9 2.3 5.3 3.9 7.5 1.6 2.3 5.2 5.3 8.3 7 4.4 2.4 6.6 2.9 11.9 2.9 4.9 0 7.7-0.7 11.5-2.6 2.8-1.4 6.5-4.3 8.3-6.4 1.8-2.1 3.9-6.2 4.7-8.9 0.9-2.8 1.5-6.1 1.5-7.5 0-1.4-0.6-4.8-1.4-7.5-0.9-2.8-3-6.8-4.9-9-1.8-2.2-5.4-5.1-7.9-6.5-3.6-1.9-6.1-2.4-11.4-2.4-5.7 0-7.8 0.5-12.3 2.9-3 1.6-6.5 4.3-7.7 6-1.2 1.6-3.2 5.1-4.3 7.7-1.2 2.7-2.5 4.6-3.1 4.3-0.6-0.3-0.5-2 0.5-4.8 0.8-2.3 3.4-6.4 5.7-9.1 2.4-2.7 5.6-5.6 7.1-6.4 1.5-0.8 4-1.8 5.5-2.3 1.5-0.4 5.4-0.8 8.7-0.8zm0 11.9c2.6 0 5.2 0.8 7.5 2.2 1.9 1.3 4.5 3.9 5.7 5.8 1.6 2.4 2.4 5 2.4 8 0 3-0.8 5.6-2.4 8-1.2 1.9-3.8 4.5-5.7 5.8-2.1 1.4-5 2.2-7.2 2.2-2.1 0-5.3-0.6-7-1.3-1.8-0.8-4.5-2.8-6-4.5-1.6-1.8-3.1-4.9-3.4-7-0.3-2-0.3-5.2 0-7 0.3-1.7 1.7-4.6 2.9-6.3 1.3-1.8 3.9-3.8 5.8-4.5 1.9-0.7 5.2-1.4 7.4-1.4zm-9.2 5c-0.2 0-1.2 1.5-2.2 3.2-1.3 2-2 5.1-2 7.8 0 2.6 0.7 5.7 1.8 7.5 1 1.6 3.4 3.7 5.2 4.5 1.9 0.8 4.8 1.4 6.4 1.3 1.6 0 4.4-0.7 6-1.5 1.6-0.9 3.9-2.8 4.9-4.4 1.2-1.8 2-4.6 2-7.4 0-2.8-0.8-5.6-2-7.4-1-1.6-3-3.4-4.4-4.1-1.4-0.7-3.6-1.5-5-1.8-1.4-0.3-4.3 0.1-6.5 0.9-2.2 0.7-4.1 1.4-4.2 1.4zm-18.3 8c0.6 0 1 0.9 1 2 0 1.1-0.4 2-1 2-0.5 0-1-0.9-1-2 0-1.1 0.5-2 1-2z"/>
</svg>