<svg version="1.2" xmlns="http://www.w3.org/2000/svg" viewBox="0 0 80 80" width="80" height="80">
	<title>sums</title>
	<style>
		.s0 { opacity: .6;fill: currentColor }
		.s1 { opacity: .9;fill: currentColor }
	</style>
	<path id="Path 0" class="s0" d="m8.9 59.3l-2.4 4.5c9.3 2.6 15.8 4.9 20.5 6.8 5.2 2.1 10.2 3.4 13 3.4 2.8 0 7.8-1.3 13-3.4 4.7-1.9 11.3-4.1 14.8-5l6.2-1.6c-3.1-6.2-4.3-8.2-4.8-8.5-0.4-0.2-5.2 1.1-10.7 2.9-5.5 1.9-10.8 3.8-11.8 4.2-1.1 0.5-2.7 2.4-3.8 4.2-1 1.7-2.4 3.2-2.9 3.2-0.5 0-2-1.7-3.3-3.7-2.1-3.5-3.3-4.1-12.8-7.2-5.7-1.9-10.9-3.6-11.5-3.8-0.6-0.2-2.2 1.6-3.5 4z"/>
	<g id="Layer 1">
		<path id="Path 0" fill-rule="evenodd" class="s1" d="m41 0c0.8 0 3.1 1.3 5 2.8 1.9 1.5 5.1 5.4 7.2 8.7 2.1 3.3 4.6 8.3 5.5 11 0.9 2.8 1.6 7 1.6 9.5 0 3.1-0.8 6-2.6 9.3-1.7 2.9-4.5 5.9-7.5 7.8-4.3 2.9-5.2 3.2-11.4 2.8-4.7-0.3-7.5-1-9.5-2.5-1.5-1.1-4.2-4-5.8-6.3-2.3-3.3-3.1-5.7-3.4-10-0.1-3.1 0.3-7.6 1-10.1 0.8-2.5 2.6-6.4 4.1-8.8 1.6-2.3 3.1-4.2 3.6-4.2 0.4 0 1.4 2 2.2 4.6 0.8 2.6 1.8 4.8 2.3 5 0.4 0.2 1.5 0.2 2.5-0.1 0.9-0.2 2.6-2.3 3.6-4.7 1.7-3.6 1.8-5.1 1-9.5-0.8-4.5-0.8-5.3 0.6-5.3zm4 10.8c0 1.7-0.8 4.8-1.8 6.9-0.9 2-2.8 4.5-4.2 5.5-1.4 1-3.5 1.9-4.8 1.8-1.2 0-3.3-1.1-4.7-2.5-1.4-1.4-2.8-2.2-3.2-1.9-0.5 0.3-1 3.6-1.2 7.2-0.2 3.7-0.1 7.8 0.2 9.2 0.3 1.4 2.2 4.2 4.1 6.3 2.9 2.9 4.6 3.8 8.4 4.3 3.2 0.4 5.9 0.1 8.5-1 2.2-1 4.8-3.2 6.5-5.8 2.1-3.3 2.7-5.3 2.7-9.7 0-4.3-0.8-7.1-3.3-12.1-1.7-3.6-4.1-7.6-5.2-9l-2-2.5z"/>
	</g>
</svg>