<svg version="1.2" xmlns="http://www.w3.org/2000/svg" viewBox="0 0 60 60" width="60" height="60">
	<title>60px-XP_icon</title>
	<style>
		.s0 { fill: #000000 } 
	</style>
	<path id="Path 0" fill-rule="evenodd" class="s0" d="m29.9 6c0.3 0 5.6 5.3 11.6 11.8 6 6.4 11.8 12.7 12.8 14 1.6 2.1 1.6 2.3-1.5 6.7-1.8 2.5-3.5 4.5-3.8 4.5-0.3 0-4.7-4.2-19-18.5l-9.3 9.2c-5 5.1-9.4 9.3-9.7 9.3-0.3 0-2-2-3.7-4.5-3.2-4.4-3.2-4.6-1.5-6.7 0.9-1.3 6.6-7.6 12.6-14 6.1-6.5 11.2-11.8 11.5-11.8zm0.1 27c0.3 0 3 2.4 11.5 10.8l-2.2 2.9c-1.2 1.5-3.7 4.4-9.3 9.8l-3.6-3.5c-2-1.9-4.5-4.8-7.9-9.2l5.5-5.4c3-3 5.7-5.4 6-5.4zm-5 11.5l5 5 5-5c-3.5-3.5-4.8-4.5-5.1-4.5-0.3 0-1.5 1-2.7 2.2z"/>
</svg>