<svg width="36" height="36" viewBox="0 0 36 36" fill="none" xmlns="http://www.w3.org/2000/svg">
<path d="M26.2161 3.76929C21.132 0.833959 14.868 0.83396 9.7839 3.76929C4.69975 6.70462 1.56779 12.1293 1.56779 18C1.56779 23.8707 4.69975 29.2954 9.7839 32.2307C14.868 35.166 21.132 35.166 26.2161 32.2307C31.3002 29.2954 34.4322 23.8707 34.4322 18C34.4322 12.1293 31.3002 6.70462 26.2161 3.76929Z" stroke="#010A13" stroke-opacity="0.5" stroke-width="1.6875"/>
<path d="M10.7683 5.47428C15.2433 2.89063 20.7567 2.89063 25.2317 5.47428C29.7067 8.05793 32.4635 12.8327 32.4635 18C32.4635 23.1673 29.7067 27.9421 25.2317 30.5257C20.7567 33.1094 15.2433 33.1094 10.7683 30.5257C6.29326 27.9421 3.53654 23.1673 3.53654 18C3.53654 12.8327 6.29326 8.05793 10.7683 5.47428Z" fill="#12181F" stroke="url(#paint0_linear_1463_29231)" stroke-width="2.25"/>
<path d="M14.7656 15.1875C11.7719 17.3319 6.75 18 6.75 18C6.75 18 11.7719 18.6681 14.7656 20.8125C17.7594 22.9569 18 29.25 18 29.25C18 29.25 18.2406 22.9569 21.2344 20.8125C24.2281 18.6681 29.25 18 29.25 18C29.25 18 24.2281 17.3319 21.2344 15.1875C18.2406 13.0431 18 6.75 18 6.75C18 6.75 17.7594 13.0431 14.7656 15.1875Z" fill="#555A5F"/>
<defs>
<linearGradient id="paint0_linear_1463_29231" x1="20" y1="4.5" x2="20" y2="29.25" gradientUnits="userSpaceOnUse">
<stop stop-color="#55595E"/>
<stop offset="1" stop-color="#2D3237"/>
</linearGradient>
</defs>
</svg>
