<svg width="56" height="56" viewBox="0 0 56 56" fill="none" xmlns="http://www.w3.org/2000/svg">
<path d="M39.4717 29.3253C39.5315 28.0844 39.3893 26.8469 39.0547 25.6594C39.2003 25.0097 39.285 24.5909 39.285 24.5909L41.2499 17.4397C41.2499 17.4397 40.0655 18.0029 37.5732 20.0231C35.4243 21.7648 35.1282 22.8354 35.0873 23.0975C36.3156 24.6468 37.0481 26.6002 37.0481 28.7231C37.0481 33.7575 32.9287 37.8386 27.8473 37.8386C22.7659 37.8386 18.6466 33.7575 18.6466 28.7231C18.6466 26.6129 19.3704 24.6702 20.5853 23.1253C20.5444 22.863 20.2479 21.7925 18.0995 20.0511C15.6072 18.031 14.4229 17.4677 14.4229 17.4677L16.3877 24.6189C16.3877 24.6189 16.458 24.9667 16.5807 25.5201C16.2376 26.6814 16.0791 27.8934 16.1152 29.1123C16.174 31.0935 16.7451 33.0267 17.7738 34.7266C18.8026 36.4266 20.2546 37.8365 21.9909 38.8212C22.9525 39.3666 23.9834 39.7715 25.0518 40.0274C25.1814 40.2773 25.3436 40.557 25.5476 40.857C26.1183 41.6963 27.7976 43.3571 27.7976 43.3571C27.7976 43.3571 29.4769 41.6963 30.0476 40.857C30.2516 40.557 30.4138 40.2773 30.5434 40.0274C31.542 39.7883 32.5085 39.4188 33.4166 38.9254C35.1709 37.9725 36.6489 36.5893 37.709 34.9084C38.7692 33.2275 39.3761 31.3051 39.4717 29.3253Z" fill="#F6E1B5"/>
<path fill-rule="evenodd" clip-rule="evenodd" d="M25.1814 22.1489C25.0481 22.4461 24.9305 22.7317 24.8265 23.0027C22.7493 24.0816 21.3322 26.2384 21.3322 28.7231C21.3322 32.288 24.2491 35.1779 27.8473 35.1779C31.4455 35.1779 34.3624 32.288 34.3624 28.7231C34.3624 26.1415 32.8326 23.9138 30.6222 22.8814C30.5301 22.6469 30.4279 22.4021 30.3143 22.1489C29.6633 20.6978 28.2799 19.2958 27.7479 18.9179C27.2158 19.2958 25.8324 20.6978 25.1814 22.1489ZM27.7479 32.1229C29.6431 32.1229 31.1795 30.6008 31.1795 28.7231C31.1795 26.8455 29.6431 25.3233 27.7479 25.3233C25.8526 25.3233 24.3162 26.8455 24.3162 28.7231C24.3162 30.6008 25.8526 32.1229 27.7479 32.1229Z" fill="#F6E1B5"/>
<path fill-rule="evenodd" clip-rule="evenodd" d="M39.0128 6.85718C39.0128 6.85718 39.594 8.23427 40.4445 8.92218C41.295 9.61008 43.13 9.19901 43.13 9.19901C43.13 9.19901 41.3322 9.74693 40.9448 10.7616C40.5574 11.7763 40.7529 13.2552 40.7529 13.2552C40.7529 13.2552 40.1717 11.8781 39.3212 11.1902C38.4707 10.5023 36.6357 10.9134 36.6357 10.9134C36.6357 10.9134 38.4335 10.3654 38.8209 9.35076C39.2083 8.33609 39.0128 6.85718 39.0128 6.85718ZM18.1561 8.78285C18.1561 8.78285 19.4351 9.74691 20.5899 9.93498C21.7448 10.1231 23.2134 8.78285 23.2134 8.78285C23.2134 8.78285 21.853 10.2296 22.0439 11.3674C22.2348 12.5051 23.2134 13.765 23.2134 13.765C23.2134 13.765 21.9344 12.801 20.7796 12.6129C19.6247 12.4248 18.1561 13.765 18.1561 13.765C18.1561 13.765 19.5165 12.3183 19.3256 11.1805C19.1347 10.0428 18.1561 8.78285 18.1561 8.78285ZM34.6055 15.5832C34.1186 14.9136 33.9669 13.7903 33.9669 13.7903C33.9669 13.7903 33.8152 14.9136 33.3283 15.5832C32.8414 16.2529 31.4126 16.3067 31.4126 16.3067C31.4126 16.3067 32.8414 16.3605 33.3283 17.0301C33.8152 17.6998 33.9669 18.8231 33.9669 18.8231C33.9669 18.8231 34.1186 17.6998 34.6055 17.0301C35.0923 16.3605 36.5212 16.3067 36.5212 16.3067C36.5212 16.3067 35.0923 16.2529 34.6055 15.5832ZM16.5977 40.9673C16.5977 40.9673 16.7494 42.0906 17.2363 42.7602C17.7232 43.4299 19.152 43.4837 19.152 43.4837C19.152 43.4837 17.7232 43.5375 17.2363 44.2071C16.7494 44.8768 16.5977 46.0001 16.5977 46.0001C16.5977 46.0001 16.446 44.8768 15.9592 44.2071C15.4723 43.5375 14.0435 43.4837 14.0435 43.4837C14.0435 43.4837 15.4723 43.4299 15.9592 42.7602C16.446 42.0906 16.5977 40.9673 16.5977 40.9673Z" fill="#F6E1B5"/>
</svg>
