<svg width="16" height="16" viewBox="0 0 16 16" fill="none" xmlns="http://www.w3.org/2000/svg">
<path fill-rule="evenodd" clip-rule="evenodd" d="M9.13942 8.42807C9.60166 8.36931 9.95904 7.97458 9.95904 7.49637C9.95904 6.97764 9.53852 6.55713 9.01979 6.55713C8.99042 6.55713 8.96135 6.55848 8.93266 6.56112C8.45479 6.60508 8.08057 7.00703 8.08057 7.49637C8.08057 8.0151 8.50108 8.43562 9.01981 8.43562C9.03817 8.43562 9.05641 8.43509 9.07451 8.43405C9.09635 8.4328 9.118 8.43079 9.13942 8.42807Z" fill="#F6E1B5"/>
<path fill-rule="evenodd" clip-rule="evenodd" d="M13.1999 5.19977C13.2001 3.19978 11.0548 0.810961 8.90778 1.68587C8.80205 2.50719 8.2096 3.64888 7.30162 4.80254C8.08341 5.11044 8.69261 5.53759 9.16545 6.00381C9.64879 6.05045 10.065 6.32659 10.3039 6.72192C11.2058 5.92272 12.1898 5.35082 13.1999 5.19977ZM7.5286 7.33788C7.52315 7.38988 7.52035 7.44267 7.52035 7.49611C7.52035 8.10555 7.88396 8.63005 8.40607 8.86452C7.24631 10.476 6.39033 12.2808 6.05082 13.5452C6.05082 11.3049 3.81056 9.0647 1.57031 9.0647C3.11878 8.56349 4.60627 7.55618 5.83337 6.40198C6.53794 6.62874 7.0921 6.96152 7.5286 7.33788ZM8.92625 6.56146C9.11058 6.7608 9.26826 6.96511 9.40319 7.16669C9.46389 7.25737 9.52007 7.34764 9.57205 7.43683C9.3565 7.66723 9.1472 7.90873 8.94506 8.1582C8.90886 8.09885 8.871 8.03927 8.83139 7.97963C8.64387 7.69725 8.41816 7.41481 8.14729 7.14737C8.27472 6.8289 8.57148 6.59648 8.92625 6.56146ZM8.44713 6.11C8.13468 6.2392 7.87542 6.47097 7.71132 6.76333C7.3146 6.45208 6.84186 6.17597 6.27946 5.96448C6.3512 5.89112 6.42185 5.81737 6.49136 5.74332C6.6416 5.58325 6.78652 5.42175 6.92564 5.25968C7.54151 5.47939 8.04133 5.77733 8.44713 6.11Z" fill="#F6E1B5"/>
<path fill-rule="evenodd" clip-rule="evenodd" d="M9.95872 7.49643C9.95872 8.01516 9.53821 8.43568 9.01947 8.43568C8.92474 8.43568 8.83329 8.42165 8.74707 8.39557C8.73582 8.18982 8.73486 8.06914 8.73486 8.06914L9.34751 8.13448C9.10253 7.94377 8.9647 7.81957 8.9647 7.81957L9.61324 6.85254C9.61324 6.85254 9.65832 6.86877 9.74179 6.89603C9.87725 7.05881 9.95872 7.26811 9.95872 7.49643ZM8.79283 8.97872C8.95742 10.6042 9.58803 13.8193 12.0001 13.6001C11.2001 12.8001 11.2001 12.2739 11.2001 12.0001C11.2001 12.0001 12.4001 12.0001 13.2001 11.2001C10.8827 10.4276 10.3754 9.42449 10.3081 8.80773C11.5306 9.57774 13.4122 10.4471 15.2001 10.0001C15.2001 10.0001 14.0001 9.60011 13.3335 8.73501C13.3335 8.73501 14.8001 8.80011 15.2001 7.20011C13.5706 7.74328 11.5784 7.38865 10.4672 7.10496C10.5008 7.22976 10.5188 7.361 10.5188 7.49643C10.5188 8.32448 9.84752 8.99574 9.01947 8.99574C8.94243 8.99574 8.86674 8.98993 8.79283 8.97872Z" fill="#F6E1B5"/>
<path fill-rule="evenodd" clip-rule="evenodd" d="M3.70313 12.3956C2.95638 12.3956 2.583 11.6488 2.95638 11.2754C3.32975 10.9021 3.87014 11.2973 4.0765 11.6488C4.27725 11.9908 4.30601 12.6089 4.12211 13.0106C3.97486 13.3323 3.52454 13.3941 3.03952 13.1721C1.7886 12.5995 1.0303 11.0245 0.949831 10.2362C0.946129 10.1517 0.952447 10.0764 0.967126 10.0094C0.537643 10.7035 0.954839 12.0218 1.99053 13.1092C3.12582 14.3012 4.57436 14.7644 5.22594 14.1438C5.87752 13.5233 5.4854 12.0539 4.35012 10.8619C3.83813 10.3243 3.26243 9.93498 2.72485 9.72642L2.69803 9.7224C2.69803 9.7224 1.24917 9.43833 1.3668 10.427C1.52881 11.7887 3.74712 13.4012 3.70313 12.3956Z" fill="#F6E1B5"/>
</svg>
