<svg version="1.2" xmlns="http://www.w3.org/2000/svg" viewBox="0 0 102 102" width="102" height="102">

	<style>
		.s0 { opacity: 1;fill: currentColor } 
	</style>
	<path id="Path 0" fill-rule="evenodd" class="s0" d="m28.2 1.5l1.4 8c0.8 4.4 1.9 9.6 2.6 11.5 0.6 1.9 2.4 6.2 4.1 9.5 1.6 3.3 4.8 8.7 7.1 12 2.4 3.3 5.6 7 7.2 8.2 1.6 1.1 7.2 3.3 12.4 4.8 5.2 1.5 11.1 3.5 13 4.5 1.9 1 4.9 3.3 6.7 5.2 1.8 1.8 3.9 5 4.7 7.1 0.9 2 1.6 4.9 1.6 6.5 0 1.5-0.5 4.3-1.1 6.2-0.6 1.9-2.8 5.2-4.8 7.3-2 2.1-5.3 4.7-7.3 5.8-2.1 1-4.1 1.9-4.5 1.9-0.5 0 0.6-1.4 2.3-3.2 1.7-1.8 3.8-4.4 4.8-5.8 1-1.5 1.6-4.5 1.6-7.5 0-2.9-0.9-6.7-2-9-1-2.2-3.4-5.1-5.2-6.5-2.4-1.8-5-2.6-9.3-2.9-5.1-0.3-6.7 0-15.5 4.9l-6.1-3.7c-3.4-2.1-9-6.8-12.5-10.5-3.5-3.8-7.5-9-8.9-11.8-1.4-2.7-2.8-6.7-3.1-8.7-0.4-2.3 0.1-6.5 1.1-10.3 0.9-3.6 3.4-10.3 5.7-15zm-12.5 45.5c0.3 0 1.6 1.9 2.8 4.3 1.2 2.3 4.9 6.7 8.1 9.8 3.6 3.5 8.4 6.9 12.6 8.8 3.7 1.7 6.7 3.3 6.7 3.6 0 0.3-0.4 1.5-0.9 2.8-0.5 1.2-1.1 2.9-1.4 3.7-0.4 1.2-1.6 1.4-7.1 0.8-3.6-0.5-8.7-1.9-11.3-3.2-2.6-1.3-6-3.7-7.5-5.5-1.5-1.7-3.2-4.8-3.8-6.8-0.5-2.1-1-4.8-1-6 0-1.3 0.5-4.5 1.1-7.3 0.6-2.8 1.3-5 1.7-5zm46 21c1.8 0 4.9 0.8 6.9 1.8 2 0.9 4.6 3 5.7 4.7 1.1 1.7 2.2 5 2.4 7.5 0.2 3-0.3 5.7-1.5 8-1 1.9-3.3 4.5-5.3 5.8-2.8 1.9-4.5 2.3-8.6 2-3.2-0.2-6.3-1.1-8-2.4-1.6-1.1-3.7-3.6-4.7-5.5-1.2-2.2-1.7-4.9-1.4-7.9 0.2-2.5 1.3-5.9 2.5-7.6 1.1-1.7 3.6-3.8 5.4-4.7 1.8-0.9 4.8-1.7 6.6-1.7zm-45.8 10.2c0.3 0.2 3.5 1.8 7 3.6 4.6 2.3 8.6 3.5 13.7 4 5.1 0.5 7.4 1.1 7.7 2.2 0.2 0.8 0.7 2.3 1 3.3 0.5 1.3-0.4 2.2-3.6 3.8-2.4 1.2-7 2.4-10.3 2.7-5.5 0.4-6.2 0.2-9.3-2.4-1.8-1.6-3.9-4.7-4.7-6.9-0.7-2.2-1.5-5.5-1.7-7.3-0.2-1.9-0.2-3.2 0.2-3z"/>
</svg>