<svg version="1.2" xmlns="http://www.w3.org/2000/svg" viewBox="0 0 95 95" width="95" height="95">
	<style>
		.s0 { fill: currentColor} 
	</style>
	<path fill-rule="evenodd" class="s0" d="m57.6 70c-1 0.8-1.8 1.6-2.3 2.6-0.5 0.9-0.8 2-0.8 3.1q0 2 1 3.6 1 1.6 3 2.8c0.5 0.3 0.6 0.9 0.3 1.3q-0.1 0.2-0.2 0.3l-10.9 10.9c-0.4 0.4-1 0.4-1.4 0l-11-11c-0.3-0.4-0.3-0.9 0-1.3q0.1-0.1 0.2-0.2c1.3-0.8 2.3-1.8 3-2.8q0.9-1.6 0.9-3.6c0-1.1-0.2-2.2-0.7-3.1q-0.8-1.4-2.3-2.6c-1.6-0.3-3.2-0.8-4.7-1.4-3.3-1.3-5.8-3.5-5.8-6.7v-2.7c0-0.6 0.4-1 0.9-1h5.5c0.6 0 1 0.4 1 1v2c0.2 0.1 0.6 0.3 0.9 0.4 0.1 0.1 0.2 0.1 0.3 0.2l0.1-47.8q0-0.4 0.3-0.7l11.4-11.9c0.4-0.4 1-0.4 1.4 0l11.5 12c0.2 0.2 0.3 0.4 0.3 0.6v47.8c0.1-0.1 0.2-0.1 0.3-0.2q0.5-0.2 0.9-0.4v-2.1c0-0.5 0.4-0.9 1-0.9h5.4c0.6 0 1 0.4 1 0.9v2.8c0 3.2-2.5 5.4-5.8 6.7-1.5 0.6-3.1 1.1-4.7 1.4zm-11.6-6.3v-40.3c0-0.5 0.5-0.9 1-0.9 0.5 0 1 0.4 1 0.9v40.3q2.2-0.1 4.4-0.4c1.6-0.2 3.2-0.5 4.7-0.9q0.2-0.1 0.5-0.1v-47.9l-10.6-10.9-10.5 10.9v47.9q0.2 0 0.4 0.1c1.5 0.4 3.1 0.7 4.7 0.9 1.5 0.2 3 0.3 4.4 0.4zm-9 4.5c1.6 0.2 3.3 0.4 4.8 0.5 2.1 0.2 4 0.3 5.2 0.3 1.2 0 3.1-0.1 5.2-0.3 1.5-0.1 3.2-0.2 4.8-0.5 1.6-0.3 3.2-0.8 4.5-1.3 2.7-1.1 4.7-2.7 4.7-5v-1.8h-3.6v1.5c0 0.2-0.1 0.5-0.2 0.7-0.4 0.4-1.1 0.7-1.9 1.1-1.1 0.4-2.3 0.8-2.9 1-1.6 0.4-3.3 0.7-4.9 0.9-1.9 0.2-3.7 0.3-5.5 0.3h-0.4c-1.7 0-3.6-0.1-5.5-0.3q-2.5-0.3-4.9-0.9c-0.6-0.2-1.9-0.6-2.9-1-0.8-0.3-1.4-0.7-1.8-1.1-0.2-0.2-0.3-0.4-0.3-0.7v-1.5h-3.6v1.8c0 2.3 2 3.9 4.7 5 1.3 0.5 2.9 1 4.5 1.3zm17.4 2.4c-3 0.4-5.8 0.5-7.4 0.5-1.6 0-4.4-0.1-7.3-0.5q0.4 0.5 0.7 1.1c0.6 1.2 1 2.6 1 4 0 1.7-0.4 3.2-1.3 4.6-0.6 1-1.5 1.9-2.6 2.8l9.5 9.5 9.5-9.5q-1.6-1.3-2.6-2.8c-0.8-1.4-1.3-2.9-1.3-4.6 0-1.4 0.4-2.8 1.1-4q0.3-0.6 0.7-1.1zm-6.6 4.8l2.3 4.1c0.2 0.3 0.2 0.6 0 0.9l-2.3 4c-0.2 0.5-0.8 0.6-1.3 0.4-0.1-0.1-0.3-0.2-0.3-0.4l-2.3-4c-0.2-0.3-0.2-0.7 0-1l2.3-4c0.2-0.5 0.8-0.6 1.3-0.3q0.2 0.1 0.3 0.3zm-0.5 3l-0.3-0.6-1.2 2.1 1.2 2.1 1.2-2.1z"/>
</svg>