<svg version="1.2" xmlns="http://www.w3.org/2000/svg" viewBox="0 0 98 98" width="98" height="98">

	<style>
		.s0 { opacity: 1;fill: currentColor } 
		.s1 { opacity: .6;fill: currentColor } 
		.s2 { opacity: .1;fill: currentColor } 
		.s3 { opacity: .2;fill: currentColor } 
		.s4 { opacity: .8;fill: currentColor } 
		.s5 { opacity: .7;fill: currentColor } 
		.s6 { opacity: .9;fill: currentColor } 
		.s7 { opacity: .5;fill: currentColor } 
		.s8 { opacity: .4;fill: currentColor } 
		.s9 { opacity: .3;fill: currentColor } 
	</style>
	<g id="Shape 1">
		<path id="Path 0" fill-rule="evenodd" class="s0" d="m54.9 3.1c3.6 0.4 9.1 1.8 12.1 3.2 3 1.3 7.4 3.9 9.8 5.6 2.3 1.7 6.2 5.7 8.7 8.8 2.5 3.2 5.4 8.2 6.5 11 1.1 2.9 2.4 8.1 2.9 11.5 0.5 3.7 0.5 9.2-0.1 13.3-0.5 4-2.1 9.5-3.8 13-1.5 3.3-4.6 8-6.8 10.5-2.1 2.5-6.5 6.3-9.8 8.4-3.2 2.2-8.6 4.8-11.9 5.9-3.3 1-9.1 1.9-13 1.9-3.8 0.1-9.4-0.4-12.2-1-2.9-0.7-5.3-1.7-5.3-2.2 0-0.5-0.6-0.8-1.2-0.5-0.7 0.3-4-1.2-7.3-3.4-3.3-2.1-7.9-6-10.3-8.7-2.4-2.7-5.7-7.6-7.3-10.9-1.7-3.6-3.2-8.8-3.8-13-0.5-4-0.4-10 0.1-14 0.5-4.1 2.1-9.6 3.8-13.3 1.8-3.8 5.4-8.7 9.3-12.5 4.3-4.4 8.3-7.4 13.2-9.7 4.5-2.1 9.3-3.5 13.4-3.9 3.5-0.3 9.3-0.3 13 0zm-25.4 7.8c-3.5 1.7-8.4 5.4-11.6 8.8-3.2 3.2-6.9 8.3-8.3 11.3-1.4 3-2.9 8.4-3.4 12-0.6 3.9-0.6 9.1 0 13 0.5 3.6 2.1 9.1 3.6 12.4 1.7 3.7 4.9 7.9 8.7 11.6 3.3 3.2 8.5 7 11.5 8.4 3 1.4 8.4 2.9 12 3.4 3.9 0.6 9.1 0.6 13 0 3.6-0.5 9-2 12-3.4 3-1.4 8.1-5.1 11.3-8.3 3.5-3.3 7-8 8.8-11.6 1.6-3.3 3.3-8.9 3.8-12.5 0.5-3.8 0.5-9.2 0-13-0.6-3.9-2.2-9-4.2-12.9-1.8-3.7-5.5-8.5-8.7-11.6-3-2.8-7.3-6.1-9.5-7.2-2.2-1.1-5.6-2.5-7.5-3.1-1.9-0.5-5.8-1.2-8.5-1.4-2.8-0.3-7.7-0.1-11 0.3-3.3 0.4-8.7 2.1-12 3.8z"/>
		<path id="Path 1" class="s0" d="m46.3 2.7c0.4 0.5 1 0.5 1.4 0 0.3-0.4 0-0.7-0.8-0.7-0.8 0-1.1 0.3-0.6 0.7zm3 0c0.4 0.5 1 0.5 1.4 0 0.3-0.4 0-0.7-0.8-0.7-0.8 0-1.1 0.3-0.6 0.7zm-18.4 90.3c0 0.8 0.4 1.2 0.8 0.7 0.5-0.4 0.5-1 0-1.5-0.4-0.4-0.8 0-0.8 0.8z"/>
		<path id="Path 2" class="s1" d="m16.3 14.2q-0.8 1.3 0.4 0.5c0.7-0.4 1.3-0.9 1.3-1.2 0-0.3-0.2-0.5-0.5-0.5-0.2 0-0.8 0.6-1.2 1.2zm63.7 0.1c-0.1 0.1 0.7 0.9 1.7 1.7 1.6 1.4 1.7 1.3 0.8-0.2-0.6-1-1.4-1.8-1.8-1.8-0.4 0-0.7 0.1-0.7 0.3zm-67 67c-0.1 0.1 0.7 0.9 1.7 1.7 1.6 1.4 1.7 1.3 0.8-0.2-0.6-1-1.4-1.8-1.8-1.8-0.4 0-0.7 0.1-0.7 0.3zm69.3 0.9q-0.8 1.3 0.4 0.5c0.7-0.4 1.3-0.9 1.3-1.2 0-0.3-0.2-0.5-0.5-0.5-0.2 0-0.8 0.6-1.2 1.2z"/>
		<path id="Path 3" class="s0" d="m78 17.3c-0.1 0.1 0.7 0.9 1.7 1.7 1.6 1.4 1.7 1.3 0.8-0.3-0.6-0.9-1.4-1.7-1.8-1.7-0.4 0-0.7 0.1-0.7 0.2zm-61.7 2q-0.8 1.3 0.5 0.5c0.6-0.4 1.2-0.9 1.2-1.2 0-0.3-0.2-0.5-0.5-0.5-0.2 0-0.8 0.6-1.2 1.2zm-0.3 60c-0.1 0.2 0.7 1 1.7 1.8 1.6 1.4 1.7 1.3 0.8-0.3-0.6-0.9-1.4-1.7-1.8-1.7-0.4 0-0.7 0.1-0.7 0.2zm62.9 1.5c-1.3 1.7-1.3 1.7 0.4 0.3 1-0.8 1.8-1.6 1.7-1.8 0-0.1-0.2-0.2-0.4-0.2-0.2 0-1 0.8-1.7 1.7z"/>
		<path id="Path 4" class="s2" d="m17.3 19.2q-0.8 1.3 0.4 0.5c0.7-0.4 1.3-0.9 1.3-1.2 0-0.3-0.2-0.5-0.5-0.5-0.2 0-0.8 0.6-1.2 1.2zm61.1-0.2c0.3 0.6 0.8 1 1.1 1 0.3 0 0.3-0.4 0-1-0.3-0.6-0.8-1-1.1-1-0.3 0-0.3 0.5 0 1zm-61 61c0.3 0.5 0.8 1 1.1 1 0.3 0 0.3-0.5 0-1-0.3-0.5-0.8-1-1.1-1-0.3 0-0.3 0.5 0 1zm60.9 0.2q-0.8 1.3 0.4 0.5c0.7-0.4 1.3-0.9 1.3-1.2 0-0.3-0.2-0.5-0.5-0.5-0.2 0-0.8 0.6-1.2 1.2z"/>
		<path id="Path 5" class="s0" d="m49.3 21.3q-0.8 1.7 0.8 3.5c0.9 0.9 4.3 5 7.7 8.9l6.2 7.3c-7.4 8.9-10.6 12.9-11.8 14.5-1.6 2.2-1.9 3.3-1.1 4 0.7 0.7 3.7-1.8 10-8.5 4.9-5.2 8.8-9.7 8.9-10 0-0.3-4.5-5.2-9.9-11-8.3-8.8-10.1-10.2-10.8-8.7zm-12.5 26.1c-4.8 5-8.8 9.8-8.8 10.6 0 0.8 4 5.5 8.9 10.5 5.7 5.8 9.1 8.6 9.5 7.7 0.3-0.7-2.4-4.9-6.4-9.7l-7-8.5c11.6-13.6 15-18.1 15-18.8 0-0.6-0.6-1.1-1.2-1.1-0.7 0.1-5.2 4.3-10 9.3z"/>
		<path id="Path 6" class="s0" d="m41.9 41.8l-2.4 2.7c4.3-3.9 5.5-5.1 5.5-5.2 0-0.2-0.1-0.3-0.3-0.3-0.2 0-1.5 1.2-2.8 2.8zm22 6l-2.4 2.7c4.3-3.9 5.5-5.1 5.5-5.2 0-0.2-0.1-0.3-0.3-0.3-0.2 0-1.5 1.2-2.8 2.8zm-24.6 2.4q-0.8 1.3 0.5 0.5c0.6-0.4 1.2-0.9 1.2-1.2 0-0.3-0.2-0.5-0.5-0.5-0.2 0-0.8 0.6-1.2 1.2zm13 4q-0.8 1.3 0.5 0.5c0.6-0.4 1.2-0.9 1.2-1.2 0-0.3-0.2-0.5-0.5-0.5-0.2 0-0.8 0.6-1.2 1.2zm-25.4 3.8c0 0.8 0.4 1.2 0.8 0.8 0.4-0.5 0.4-1.1 0-1.5-0.4-0.5-0.8-0.1-0.8 0.7z"/>
		<path id="Path 7" class="s2" d="m64.4 34c0.3 0.5 0.8 1 1.1 1 0.3 0 0.3-0.5 0-1-0.3-0.5-0.8-1-1.1-1-0.3 0-0.3 0.5 0 1zm-27.5 11.8c-1.3 1.6-1.3 1.6 0.4 0.2 1-0.8 1.8-1.6 1.7-1.8 0-0.1-0.2-0.2-0.4-0.2-0.2 0-1 0.8-1.7 1.7zm29.4 0.5q-0.8 1.3 0.4 0.5c0.7-0.4 1.3-0.9 1.3-1.2 0-0.3-0.2-0.5-0.5-0.5-0.2 0-0.8 0.6-1.2 1.2z"/>
		<path id="Path 8" class="s3" d="m64.3 48.2q-0.8 1.3 0.5 0.5c0.6-0.4 1.2-0.9 1.2-1.2 0-0.3-0.2-0.5-0.5-0.5-0.2 0-0.8 0.6-1.2 1.2z"/>
		<path id="Path 9" class="s4" d="m52 21.3c-0.1 0.1 0.7 0.9 1.7 1.7 1.6 1.4 1.7 1.3 0.8-0.3-0.6-0.9-1.4-1.7-1.8-1.7-0.4 0-0.7 0.1-0.7 0.2z"/>
		<path id="Path 10" class="s5" d="m48.3 21.2q-0.8 1.3 0.5 0.5c0.6-0.4 1.2-0.9 1.2-1.2 0-0.3-0.2-0.5-0.5-0.5-0.2 0-0.8 0.6-1.2 1.2zm-19.4 33.5c-1.3 1.7-1.3 1.7 0.4 0.3 1-0.8 1.8-1.6 1.7-1.7 0-0.2-0.2-0.3-0.4-0.3-0.2 0-1 0.8-1.7 1.8zm24.4 4.4q-0.8 1.3 0.5 0.5c0.6-0.4 1.2-0.9 1.2-1.2 0-0.3-0.2-0.5-0.5-0.5-0.2 0-0.8 0.6-1.2 1.2zm-13.9 6.8c0.3 0.5 0.8 1 1.1 1 0.3 0 0.3-0.5 0-1-0.3-0.5-0.8-1-1.1-1-0.3 0-0.3 0.5 0 1z"/>
		<path id="Path 11" class="s6" d="m64 34.3c-0.1 0.1 0.7 0.9 1.7 1.7 1.6 1.4 1.7 1.3 0.8-0.2-0.6-1-1.4-1.8-1.8-1.8-0.4 0-0.7 0.1-0.7 0.3zm-23.6 38.7c0.3 0.5 0.8 1 1.1 1 0.3 0 0.3-0.5 0-1-0.3-0.5-0.8-1-1.1-1-0.3 0-0.3 0.5 0 1z"/>
		<path id="Path 12" class="s7" d="m57.3 55.2q-0.8 1.3 0.5 0.5c0.6-0.4 1.2-0.9 1.2-1.2 0-0.3-0.2-0.5-0.5-0.5-0.2 0-0.8 0.6-1.2 1.2z"/>
		<path id="Path 13" class="s4" d="m31.9 51.8c-1.3 1.6-1.3 1.6 0.4 0.2 1-0.8 1.8-1.6 1.7-1.7 0-0.2-0.2-0.3-0.4-0.3-0.2 0-1 0.8-1.7 1.8zm0.5 13.2c0.3 0.6 0.8 1 1.1 1 0.3 0 0.3-0.4 0-1-0.3-0.5-0.8-1-1.1-1-0.3 0-0.3 0.5 0 1z"/>
		<path id="Path 14" class="s8" d="m60.3 52.2q-0.8 1.3 0.5 0.5c0.6-0.4 1.2-0.9 1.2-1.2 0-0.3-0.2-0.5-0.5-0.5-0.2 0-0.8 0.6-1.2 1.2z"/>
		<path id="Path 15" class="s9" d="m43.3 39.2q-0.8 1.3 0.5 0.5c0.6-0.4 1.2-0.9 1.2-1.2 0-0.3-0.2-0.5-0.5-0.5-0.2 0-0.8 0.6-1.2 1.2z"/>
		<path id="Path 16" class="s9" d="m50.4 27c0.3 0.6 0.8 1 1.1 1 0.3 0 0.3-0.4 0-1-0.3-0.6-0.8-1-1.1-1-0.3 0-0.3 0.4 0 1z"/>
	</g>
</svg>