<svg version="1.2" xmlns="http://www.w3.org/2000/svg" viewBox="0 0 95 95" width="95" height="95">

	<style>
		.s0 { opacity: 1;fill: currentColor;stroke: currentColor;paint-order:stroke fill markers;stroke-linejoin: round;stroke-width: 2 } 
	</style>
	<g id="Shape 1">
		<path id="Path 0" fill-rule="evenodd" class="s0" d="m53.9 1.1c3.6 0.4 9.1 1.8 12.1 3.2 3 1.3 7.4 3.9 9.8 5.6 2.3 1.7 6.2 5.7 8.7 8.8 2.5 3.2 5.4 8.2 6.5 11 1.1 2.9 2.4 8.1 2.9 11.5 0.5 3.7 0.5 9.2-0.1 13.3-0.5 4-2.1 9.5-3.8 13-1.5 3.3-4.6 8-6.8 10.5-2.1 2.5-6.5 6.3-9.8 8.4-3.2 2.2-8.6 4.8-11.9 5.9-3.3 1-9.1 1.9-13 1.9-3.8 0.1-9.4-0.4-12.2-1-2.9-0.7-5.3-1.7-5.3-2.2 0-0.5-0.6-0.8-1.2-0.5-0.7 0.3-4-1.2-7.3-3.4-3.3-2.1-7.9-6-10.3-8.7-2.4-2.7-5.7-7.6-7.3-10.9-1.7-3.6-3.2-8.8-3.8-13-0.5-4-0.4-10 0.1-14 0.5-4.1 2.1-9.6 3.8-13.3 1.8-3.8 5.4-8.7 9.3-12.5 4.3-4.4 8.3-7.4 13.2-9.7 4.5-2.1 9.3-3.5 13.4-3.9 3.5-0.3 9.3-0.3 13 0zm-25.4 7.8c-3.5 1.7-8.4 5.4-11.6 8.8-3.2 3.2-6.9 8.3-8.3 11.3-1.4 3-2.9 8.4-3.4 12-0.6 3.9-0.6 9.1 0 13 0.5 3.6 2.1 9.1 3.6 12.4 1.7 3.7 4.9 7.9 8.7 11.6 3.3 3.2 8.5 7 11.5 8.4 3 1.4 8.4 2.9 12 3.4 3.9 0.6 9.1 0.6 13 0 3.6-0.5 9-2 12-3.4 3-1.4 8.1-5.1 11.3-8.3 3.5-3.3 7-8 8.8-11.6 1.6-3.3 3.3-8.9 3.8-12.5 0.5-3.8 0.5-9.2 0-13-0.6-3.9-2.2-9-4.2-12.9-1.8-3.7-5.5-8.5-8.7-11.6-3-2.8-7.3-6.1-9.5-7.2-2.2-1.1-5.6-2.5-7.5-3.1-1.9-0.5-5.8-1.2-8.5-1.4-2.8-0.3-7.7-0.1-11 0.3-3.3 0.4-8.7 2.1-12 3.8z"/>
		<path id="Path 5" class="s0" d="m48.3 21.3q-0.8 1.7 0.8 3.5c0.9 0.9 4.3 5 7.7 8.9l6.2 7.3c-7.4 8.9-10.6 12.9-11.8 14.5-1.6 2.2-1.9 3.3-1.1 4 0.7 0.7 3.7-1.8 10-8.5 4.9-5.2 8.8-9.7 8.9-10 0-0.3-4.5-5.2-9.9-11-8.3-8.8-10.1-10.2-10.8-8.7zm-12.5 26.1c-4.8 5-8.8 9.8-8.8 10.6 0 0.8 4 5.5 8.9 10.5 5.7 5.8 9.1 8.6 9.5 7.7 0.3-0.7-2.4-4.9-6.4-9.7l-7-8.5c11.6-13.6 15-18.1 15-18.8 0-0.6-0.6-1.1-1.2-1.1-0.7 0.1-5.2 4.3-10 9.3z"/>
	</g>
</svg>