<svg xmlns="http://www.w3.org/2000/svg" xmlns:xlink="http://www.w3.org/1999/xlink" version="1.1" x="0px" y="0px" viewBox="0 0 100 125" enable-background="new 0 0 100 100" xml:space="preserve"><path d="M54,46h15c0.553,0,1-0.448,1-1V35c0-0.552-0.447-1-1-1H54c-0.552,0-1,0.448-1,1v4H39V25h7c0.552,0,1-0.448,1-1V14  c0-0.552-0.448-1-1-1H31c-0.552,0-1,0.448-1,1v10c0,0.552,0.448,1,1,1h6v56c0,0.553,0.448,1,1,1h15v4c0,0.553,0.448,1,1,1h15  c0.553,0,1-0.447,1-1V76c0-0.553-0.447-1-1-1H54c-0.552,0-1,0.447-1,1v4H39V61h14v4c0,0.553,0.448,1,1,1h15c0.553,0,1-0.447,1-1V55  c0-0.553-0.447-1-1-1H54c-0.552,0-1,0.447-1,1v4H39V41h14v4C53,45.552,53.448,46,54,46z M32,15h13v8H32V15z M55,77h13v8H55V77z   M55,56h13v8H55V56z M55,36h13v8H55V36z"/></svg>