<svg version="1.2" xmlns="http://www.w3.org/2000/svg" viewBox="0 0 75 75" width="75" height="75">

	<style>
		.s0 { fill: currentColor } 
	</style>
	<path fill-rule="evenodd" class="s0" d="m40 32v-4h-14v18h14v-4c0-0.6 0.4-1 1-1h15c0.6 0 1 0.4 1 1v10c0 0.6-0.4 1-1 1h-15c-0.6 0-1-0.4-1-1v-4h-14v19h14v-4c0-0.6 0.4-1 1-1h15c0.6 0 1 0.4 1 1v10c0 0.6-0.4 1-1 1h-15c-0.6 0-1-0.4-1-1v-4h-15c-0.6 0-1-0.4-1-1v-56h-6c-0.6 0-1-0.4-1-1v-10c0-0.6 0.4-1 1-1h15c0.6 0 1 0.4 1 1v10c0 0.6-0.4 1-1 1h-7v14h14v-4c0-0.6 0.4-1 1-1h15c0.6 0 1 0.4 1 1v10c0 0.6-0.4 1-1 1h-15c-0.6 0-1-0.4-1-1zm-21-22h13v-8h-13zm23 62h13v-8h-13zm0-21h13v-8h-13zm0-20h13v-8h-13z"/>
</svg>