<svg version="1.2" xmlns="http://www.w3.org/2000/svg" viewBox="0 0 62 62" width="62" height="62">
	<style>
		.s0 { opacity: .96;fill: currentColor }
	</style>
	<path id="Path 0" fill-rule="evenodd" class="s0" d="m32 13.96c19.85-0.03 20.59 0.04 23.43 2.26 1.61 1.25 3.74 4.08 4.73 6.28 0.99 2.2 1.81 5.8 1.83 8 0.03 2.78-0.88 5.45-2.98 8.75-1.65 2.61-4.47 5.65-6.26 6.75-2.95 1.81-5.02 1.99-41.75 2l-3.66-3.25c-2.02-1.79-4.48-5.05-5.48-7.25-1-2.2-1.83-5.58-1.85-7.5-0.01-2.09 1.05-5.23 2.64-7.8 1.46-2.37 4.05-5.18 5.75-6.26 2.81-1.76 5.02-1.95 23.6-1.98zm-23.5 15.8c0 2.17 0.68 5.19 1.5 6.71 0.83 1.53 2.51 3.18 3.75 3.66 1.24 0.48 3.94 0.88 6 0.89 2.97 0.01 4.47-0.71 7.25-3.51l3.5-3.52c6.24 6.23 7.81 6.99 10.75 7 2.06 0 4.88-0.44 6.25-0.99 1.38-0.55 3.26-2.24 4.19-3.75 0.94-1.51 1.72-4.48 1.75-6.59 0.05-2.97-0.56-4.38-2.69-6.25-2.19-1.92-3.86-2.41-8.25-2.41-4.7 0-5.97 0.43-8.75 2.97l-3.25 2.96c-5.57-5.54-6.75-5.97-11.19-5.95-4.02 0.02-5.82 0.56-8 2.43-2.2 1.89-2.81 3.28-2.81 6.35zm4.06 21.04l6.47 0.64c3.56 0.35 8.49 0.63 10.97 0.63 2.48-0.01 7.56-0.29 18.11-1.26l-1.81 2.22c-0.99 1.23-3.71 3.07-6.05 4.1-2.47 1.08-6.56 1.87-9.75 1.87-3.35 0-7.16-0.77-9.75-1.96-2.34-1.07-5.14-2.92-6.22-4.1zm17.94-47.81c4.67-0.02 7.39 0.64 12.25 2.99 3.44 1.66 6.25 3.47 6.25 4.02 0 0.63-2.74 0.81-7.25 0.49-3.99-0.29-9.05-0.54-11.25-0.57-2.2-0.03-7.37 0.27-11.5 0.65-7.14 0.67-7.43 0.62-6-1.09 0.83-0.99 3.75-2.84 6.5-4.13 3.45-1.6 6.86-2.34 11-2.36z"/>
</svg>