<svg version="1.2" xmlns="http://www.w3.org/2000/svg" viewBox="0 0 56 56" width="56" height="56">
	<style>
		.s0 { opacity: .99;fill: currentColor }
	</style>
	<path id="Path 0" class="s0" d="m12.5 1.52c-2.2 0.76-5.46 2.97-7.25 4.93-1.79 1.95-3.7 5.24-4.24 7.3-0.55 2.06-1 9.94-1 17.5l-0.01 13.75 7.93-8.5 0.07-20.5 6.84-7.5 19.66-0.58 7.6-7.92c-20.8 0.13-27.1 0.67-29.6 1.52zm39.03 13.03l-3.95 4.03 0.42 24.42c-5.83 5.99-5.89 6-17.17 5.98l-11.33-0.02-7 7.08h33c7-5.8 8.87-8.36 9.55-10.79 0.61-2.15 0.92-10.37 0.74-19.25l-0.31-15.49zm-18.58 1.67c-7.4 7.82-17.39 18.28-22.2 23.25l-8.75 9.03c5.64 5.71 6.09 5.86 7.64 4.5 0.95-0.82 5.57-5.55 10.28-10.5 4.71-4.95 14.08-14.62 20.82-21.5l12.27-12.5-6.6-6.49z"/>
</svg>