<svg version="1.2" xmlns="http://www.w3.org/2000/svg" viewBox="0 0 84 84" width="84" height="84">

	<style>
		.s0 { opacity: .95;fill: currentColor }
	</style>
	<path id="Path 0" fill-rule="evenodd" class="s0" d="m42.2 5c0.4 0 2 1.5 3.5 3.4 1.6 1.9 4.6 4.1 6.8 5 2.2 0.9 5.7 2.9 7.9 4.4 2.1 1.5 5.1 4.5 6.6 6.7 1.5 2.2 3.1 5.1 3.5 6.5 0.4 1.4 2.6 4.4 9 11l-4 4.3c-2.3 2.3-4.9 6-5.9 8.2-1 2.2-3.2 5.7-5 7.8-1.7 2.2-5.7 5.2-9.1 6.8-3.3 1.7-7.7 4.7-13.5 10.4l-4.3-4.1c-2.3-2.2-5.6-4.6-7.2-5.3-1.7-0.7-4.7-2.4-6.9-3.9-2.1-1.5-5.1-4.5-6.6-6.7-1.5-2.2-3.1-5.1-3.5-6.5-0.4-1.4-2.6-4.4-9-11l4.1-4.3c2.2-2.3 4.6-5.6 5.3-7.2 0.7-1.6 2.4-4.7 3.9-6.9 1.5-2.1 4.5-5.1 6.7-6.6 2.2-1.6 5.1-3.1 6.5-3.4 1.4-0.4 4.3-2.4 6.5-4.6 2.1-2.2 4.3-4 4.7-4zm-8 13.8c-2.2 0.7-6.1 3.2-8.7 5.5-2.9 2.6-5.2 5.9-6.2 8.7-0.9 2.5-2.6 5.5-3.7 6.8l-2.1 2.2c3.3 3.5 4.8 6.3 5.6 8.5 0.7 2.2 2.9 5.8 4.8 7.9 2 2.2 5.6 4.8 8.1 5.9 2.5 1.1 5.7 3.1 7.2 4.6l2.8 2.6c4.3-4 7.5-6 9.9-7.1 2.4-1 6-3.7 8.1-5.9 2-2.2 4.2-5.8 4.9-8 0.8-2.2 2.3-5 3.5-6.3l2.1-2.2c-3.2-3.5-4.9-6.5-5.8-9-1-2.7-3.4-6.2-6.1-8.8-2.6-2.3-6.4-4.8-8.7-5.5-2.3-0.6-4.8-2-5.8-3-0.9-1-1.9-1.8-2.2-1.7-0.3 0-1.3 0.8-2.2 1.7-0.8 1-3.3 2.4-5.5 3.1zm7.8 5.2c1.9 0 5.5 1 8 2.2 2.5 1.3 5.5 3.9 6.8 5.8 1.2 1.9 2.5 5.1 2.8 7 0.4 1.9 0.4 4.9 0 6.5-0.3 1.6-1.6 4.6-2.8 6.5-1.3 1.9-4.3 4.5-6.8 5.8-2.5 1.2-6.1 2.2-8 2.2-1.9 0-5.5-1-8-2.2-2.5-1.3-5.5-3.9-6.8-5.8-1.2-1.9-2.5-4.9-2.8-6.5-0.4-1.6-0.4-4.6 0-6.5 0.3-1.9 1.6-5.1 2.8-7 1.3-1.9 4.3-4.5 6.8-5.8 2.5-1.2 6.1-2.2 8-2.2z"/>
</svg>