<svg version="1.2" xmlns="http://www.w3.org/2000/svg" viewBox="0 0 40 44" width="40" height="44">

	<style>
		.s0 { opacity: .99;fill: #000000 }
		.s1 { opacity: .3;fill: #000000 }
		.s2 { opacity: .56;fill: #000000 }
		.s3 { opacity: .77;fill: #000000 }
		.s4 { opacity: .49;fill: #000000 }
		.s5 { opacity: .38;fill: #000000 }
		.s6 { opacity: .63;fill: #000000 }
		.s7 { opacity: .92;fill: #000000 }
		.s8 { opacity: .19;fill: #000000 }
	</style>
	<g id="Background">
		<path id="Path 0" class="s0" d="m3 3l1-1h1l1 1v1l1 1v1l1 1v1l1 1 1 1 1-1 1-1 1-1h1l1-1h1 1 1 4 1 1 1l1 1h1l1 1 1 1 1 1h1v-1l1-1v-1l1-1v-1l1-1v-1l1-1h1l1 1v1 1l1 1v1 1 1 1 1 1l1 1v2l-1 1v1l-1 1-1 1 1 1v2 1l-1 1v1l-1 1-1 1v1l-1 1v2l-1 1v1 1 1l-1 1-1 1v1l-1 1-1 1-1 1h-1l-1 1h-1-1-1v-1-1-1l1-1v-1-1-1-1l1-1h1l1-6v-1l1-1 1-1v-4l-1-1-1 1-1 1-1 1-1 1v3 2l-1 1v1h-4v-1l-1-1v-4-1l-1-1-1-1-1-1-1-1-1 1v4l1 1 1 1v1 1 1 3l1 1h1l1 1v1 1 1l1 1v1 1 1 1h-1-1-1l-1-1h-1l-1-1-1-1-1-1v-1l-1-1-1-1v-1-1-1l-1-1v-2l-1-1v-1l-1-1-1-1v-1l-1-1v-1-2l1-1-1-1-1-1v-1l-1-1v-2l1-1v-1-1-1-1-1-1l1-1v-1z"/>
		<path id="Path 1" class="s1" d="m7 5h1v1h-1zm9 0h1v1h-1zm7 0h1v1h-1zm9 0h1v1h-1zm-24 2h1v1h-1zm4 0h1v1h-1zm15 0h1v1h-1zm4 0h1v1h-1zm-30 3h1v1h-1zm37 0h1v1h-1zm-26 14h1v1h-1zm15 0h1v1h-1zm-14 1h1v1h-1zm13 0h1v1h-1zm-21 2h1v1h-1zm29 0h1v1h-1zm-27 6h1v1h-1zm25 0h1v1h-1zm-10 2h1v1h-1zm-13 2h1v1h-1zm21 0h1v1h-1zm-9 4h1v1h-1z"/>
		<path id="Path 2" class="s2" d="m17 5h1v1h-1zm5 0h1v1h-1zm-21 3h1v1h-1zm10 0h1v1h-1zm27 0h1v1h-1zm-24 19h1v1h-1zm11 6v-6h1zm-11-1v-3h1v3zm-7 0h1v1h-1zm25 0h1v1h-1zm-15 3h1v1h-1zm0 7h1v1h-1zm6 0h1v1h-1z"/>
		<path id="Path 3" class="s3" d="m5 2h1v1h-1zm29 0h1v1h-1zm-28 2h1v1h-1zm27 0h1v1h-1zm-31 1h1v1h-1zm16 1v-1h4v1zm19-1h1v1h-1zm-30 1h1v1h-1zm25 0h1v1h-1zm-24 2h1v1h-1zm23 0h1v1h-1zm-9 30h1v1h-1z"/>
		<path id="Path 4" class="s4" d="m2 4h1v1h-1zm35 0h1v1h-1zm-23 2h1v1h-1zm11 0h1v1h-1zm3 2h1v1h-1zm-18 1h1v1h-1zm19 0h1v1h-1zm-12 20h1v1h-1zm5 0h1v1h-1zm0 7h1v1h-1zm-4 5h1v1h-1zm-2 1h1v1h-1zm6 0h1v1h-1z"/>
		<path id="Path 5" class="s5" d="m4 1h1v1h-1zm31 0h1v1h-1zm-29 2h1v1h-1zm27 0h1v1h-1zm-32 4h1v1h-1zm37 0h1v1h-1zm-37 9h1v1h-1zm37 0h1v1h-1zm-35 3h1v1h-1zm33 0h1v1h-1zm-19 15h1v1h-1zm1 6h1v1h-1z"/>
		<path id="Path 6" class="s6" d="m3 2h1v1h-1zm33 0h1v1h-1zm-35 7h1v1h-1zm37 0h1v1h-1zm-37 3h1v1h-1zm37 0h1v1h-1zm-24 16h1v1h-1zm0 4h1v1h-1zm9 1h1v1h-1zm-6 3h1v1h-1zm5 1h1v1h-1z"/>
		<path id="Path 7" class="s7" d="m16 33h1v1h-1zm1 4h1v1h-1z"/>
		<path id="Path 8" class="s8" d="m5 1h1v1h-1zm29 0h1v1h-1zm-32 2h1v1h-1zm35 0h1v1h-1zm-36 3h1v1h-1zm37 0h1v1h-1zm-29 3h1v1h-1zm21 0h1v1h-1zm-16 17h1v1h-1zm11 0h1v1h-1zm-3 8h1v1h-1zm-4 5h1v1h-1zm3 1h1v1h-1zm3 2h1v1h-1z"/>
		<path id="Path 9" class="s1" d="m12 19h1v1h-1zm15 0h1v1h-1zm0 21h1v1h-1z"/>
		<path id="Path 10" class="s2" d="m2 11h1v1h-1zm35 0h1v1h-1zm-35 6h1v1h-1zm4 11h1v1h-1zm27 0h1v1h-1zm-19 13h1v1h-1zm11 0h1v1h-1z"/>
		<path id="Path 11" class="s3" d="m1 15h1v1h-1zm37 0h1v1h-1zm-35 3h1v1h-1zm10 1h1v1h-1zm13 0h1v1h-1zm-19 12h1v1h-1zm25 0h1v1h-1z"/>
		<path id="Path 12" class="s4" d="m3 23h1v1h-1zm33 0h1v1h-1zm-32 2h1v1h-1zm31 0h1v1h-1zm-27 10h1v1h-1zm23 0h1v1h-1zm-2 3h1v1h-1zm-1 1h1v1h-1z"/>
		<path id="Path 13" class="s5" d="m15 21h1v1h-1zm9 0h1v1h-1zm-14 17h1v1h-1zm1 1h1v1h-1z"/>
		<path id="Path 14" class="s6" d="m37 17h1v1h-1zm-23 3h1v1h-1zm11 0h1v1h-1z"/>
		<path id="Path 15" class="s7" d="m30 10h1v1h-1zm6 8h1v1h-1zm-19 5h1v1h-1zm-12 3h1v1h-1zm29 0h1v1h-1zm-17 2h1v1h-1zm5 0h1v1h-1zm-13 8h1v1h-1zm21 0h1v1h-1z"/>
		<path id="Path 16" class="s8" d="m16 22h1v1h-1zm7 0h1v1h-1zm-11 18h1v1h-1z"/>
	</g>
</svg>