<svg version="1.2" xmlns="http://www.w3.org/2000/svg" viewBox="0 0 72 72" width="72" height="72">

	<style>
		.s0 { opacity: .97;fill: currentColor }
	</style>
	<path id="Path 0" fill-rule="evenodd" class="s0" d="m0 1h41.5l-8 6.9-33.5 0.1zm43.2 10c2 0 3.1 0.7 3.7 2.2q0.9 2.3-0.5 4.8c-0.7 1.4-11.4 12.6-46.4 47.5l-0.5-14 20.5-20.2c16.7-16.5 21-20.3 23.2-20.3zm-43.2 3h27l-6.5 7h-20.5zm0 14h13.2l-3.4 3.5c-2.5 2.6-4.1 3.5-6.6 3.5-3 0-3.2-0.2-3.2-3.5zm70.3-4.4c0.5 0.5 0.7 5 0.5 9.9-0.3 7.9-0.7 9.9-3.5 15.5-1.8 3.6-5.4 8.6-8 11.2-2.7 2.5-7 5.9-9.8 7.4-4.5 2.4-6.2 2.8-16.5 3.1-11.3 0.4-11.5 0.4-8.8-1.4 1.5-1 3.5-3.4 4.4-5.3 1-2.3 1.4-5.1 1.1-8-0.3-2.5-0.8-5.7-1.2-7.2-0.6-2.4 0.1-3.5 7.5-10.5 4.5-4.3 8.8-8.1 9.6-8.6 0.8-0.4 2.3-0.3 3.4 0.3 1.1 0.6 4.1 1 6.8 1 2.9 0 5.9-0.7 8-2 1.7-1.1 3.7-2.9 4.4-4.1 0.7-1.2 1.6-1.7 2.1-1.3z"/>
</svg>