<svg version="1.2" xmlns="http://www.w3.org/2000/svg" viewBox="0 0 72 72" width="72" height="72">

	<style>
		.s0 { fill: currentColor }
	</style>
	<path id="Path 0" class="s0" d="m20.5 21l-20.8 20.9 0.4 13.6c37.1-38 47.9-49.8 47.9-50.8 0-0.9-0.7-2.4-1.5-3.2-0.8-0.8-2.3-1.5-3.4-1.5-1 0-10.4 8.7-22.6 21zm47.7-2c-0.7 1.1-2.7 2.9-4.4 4-2.2 1.3-5.1 2-8.8 2-3 0-6.7-0.5-8.3-1.2-2.7-1.3-2.9-1.1-13.5 9.5l-10.7 10.7c2.6 9.8 2.6 11.2 1.4 15.5-0.8 2.7-2.7 6.4-4.4 8.2-1.6 1.8-2.8 3.5-2.5 3.8 0.3 0.3 4.1 0.5 8.5 0.5 5.8 0 9.8-0.6 14.5-2.3 3.6-1.3 8.4-3.6 10.8-5 2.3-1.5 6.2-4.8 8.7-7.4 2.5-2.7 5.9-7.7 7.7-11.3 1.9-4 3.4-9.2 4-13.5 0.4-3.8 0.6-8.9 0.3-11.2-0.2-2.4-0.8-4.3-1.3-4.3-0.4 0-1.3 0.9-2 2z"/>
</svg>