<svg version="1.2" xmlns="http://www.w3.org/2000/svg" viewBox="0 0 50 50" width="50" height="50">

	<style>
		.s0 { opacity: .97;fill: #0e0e0e }
	</style>
	<path id="Path 0" class="s0" d="m20.8 7.8c-0.8 0.9-2 3.6-2.6 6-0.7 2.3-1 4.6-0.7 5.2 0.3 0.6 1.3 1 2.2 1 1 0 2.4-1.1 3-2.5 0.7-1.4 2.1-2.5 3-2.5 1 0 4.3 0.7 7.3 1.5 3 0.8 5.8 1.5 6.2 1.5 0.5 0 0.8-0.8 0.8-1.8 0-1.1-1.2-2.1-3.7-2.9-2.1-0.6-5.5-1.4-7.6-1.7-3.3-0.5-3.6-0.9-3.2-3.1 0.4-1.9 0.1-2.5-1.4-2.5-1 0-2.5 0.8-3.3 1.8zm-2.3 16.2c-0.3 0.6-3 1-6 1-3 0-5.7 0.3-6 0.8-0.2 0.4 0.3 1.5 1.3 2.4 0.9 0.9 3.8 2.6 6.4 3.7 2.8 1.2 5.2 3 5.7 4.4 0.7 1.8 0.3 2.6-2 4.2-1.6 1.1-2.9 2.3-2.9 2.8 0 0.4 4.7 0.7 10.5 0.7 5.8 0 10.5-0.2 10.5-0.5 0-0.3-1.1-1.4-2.5-2.5-1.4-1.1-2.5-2.9-2.5-4 0-1.1 1-3.2 2.3-4.8 1.3-1.5 4.5-3.7 7-5 2.6-1.2 4.5-2.6 4.2-3.2-0.3-0.6-5.7-1-13-1-7.2 0-12.6 0.4-13 1z"/>
</svg>