<svg version="1.2" xmlns="http://www.w3.org/2000/svg" viewBox="0 0 159 166" width="159" height="166">
	<title>il_1588xN</title>
	<style>
		.s0 { opacity: .9;fill: #010101 } 
	</style>
	<path id="Path 0" fill-rule="evenodd" class="s0" d="m78.8 11.1c5-0.1 12.5 0.6 16.5 1.5 3.9 0.8 11.5 3.6 16.7 6.2 8 3.9 10.9 6 18 13.2 4.7 4.7 10 11 11.8 14 1.7 3 4.6 9.5 6.4 14.5 2.9 8.3 3.2 10.1 3.2 22 0.1 11-0.3 14.2-2.2 20.5-1.3 4.1-3.9 10.4-5.8 14-1.8 3.6-5.5 9.1-8.1 12.3-2.7 3.1-7.3 7.7-10.3 10.2-3 2.5-8.4 6.1-12 7.9-3.6 1.9-10.1 4.5-14.5 5.7-6.1 1.7-10.7 2.2-19 2.2-8.2 0-13-0.5-18.7-2.1-4.3-1.2-10.4-3.5-13.5-5.1-3.2-1.6-8.5-4.9-11.8-7.4-3.3-2.4-8.4-7.3-11.3-10.8-2.9-3.5-7.3-10.4-9.7-15.4-2.6-5.3-5-12.3-5.9-17-0.9-4.4-1.6-10.8-1.6-14.2 0-3.5 0.7-9.8 1.6-14 0.9-4.3 2.7-10.5 4.1-13.8 1.3-3.3 4.4-8.9 6.7-12.5 2.4-3.6 7.5-9.4 11.3-13 4.4-4.2 10-8 15.4-10.8 4.6-2.3 11.8-5.1 15.9-6.2 4.6-1.2 11-1.9 16.8-1.9zm-24.3 10.1c-3.3 1.4-7.8 3.6-10 5-2.2 1.4-6 4.2-8.5 6.3-2.5 2.1-6.4 6.1-8.6 8.9-2.3 2.8-5.6 7.8-7.3 11.1-2.6 5-3.1 7.1-3.1 12.5 0 3.6 0.7 9.9 1.4 14 0.7 4.1 2.2 9.3 3.3 11.5l2.1 4c0.6-20.2 1.3-26.9 1.9-28 0.9-1.8 1.3-1.4 2.8 3.5 1 3 3.5 9.1 5.7 13.5 2.1 4.4 5.2 9.6 6.8 11.5 1.5 1.9 3.1 3.3 3.4 3 0.4-0.3 0.7-8.2 0.9-17.5 0.2-13.4 0.6-17.6 1.9-20 0.9-1.6 3.4-5.1 5.7-7.7 2.3-2.7 4.4-4.8 4.9-4.8 0.4-0.1 1.9 1.7 3.5 4 1.5 2.2 3 4 3.5 4 0.4 0 1.4-5.3 2.3-11.8 0.9-6.4 2.4-13.4 3.3-15.4 0.9-2.2 3.4-5.1 5.9-6.8 2.3-1.7 6-3.4 8.2-3.7 3.2-0.5 3.6-0.8 2-1.4-1.1-0.4-4.2-0.8-7-0.7-2.7 0-8.2 0.6-12 1.3-3.8 0.7-9.7 2.4-13 3.7zm28.3 4.6c-2.7 1.8-5.9 5.1-7.3 7.5-1.9 3.3-2.8 7.1-4 17.7-0.9 7.4-2.3 16.2-3.1 19.5-0.9 3.3-3 8.7-4.8 12l-3.1 6c-0.8-21.7-1.3-28.6-1.8-29.2-0.5-1-1.2-0.9-2.8 0.5-1.1 0.9-2.6 4-3.4 6.7-0.7 2.8-1.5 11.4-1.7 19.1-0.2 9.3 0 14 0.7 13.6 0.5-0.3 2.6-1.7 4.5-2.9 2.3-1.6 4.9-2.4 7.8-2.3 2.3 0 7.7 1.2 12 2.6 4.2 1.4 12 4.7 17.2 7.4 6.7 3.4 11.2 5 15.3 5.4 3.1 0.3 5.7 0.4 5.7 0.1 0-0.3-5.5-4.4-12.1-9.2l-12.2-8.8 1.4-23c6.7-5.9 8-6.4 10.4-5.9 1.7 0.3 3.8 0.7 4.8 1 1.5 0.3 1.6 0 0.7-2.8-0.6-1.8-1-5.8-1-8.8v-5.5c3.7 10.1 5.3 14.4 6.1 16l1.3 3c0.6-6.2 0.2-11.6-0.4-16-0.7-4.4-2.3-10.9-3.6-14.5-1.3-3.6-3.8-8.2-5.4-10.2-1.7-2.1-3.8-3.7-4.7-3.7-1 0.1-4 0.5-6.8 0.9-3 0.4-6.9 1.9-9.8 3.8zm39.8 25.6c0 8.8-0.4 10.9-2.8 16.6-2.2 5.1-2.4 6.1-1 4.8 1-1 2.7-1.8 3.8-1.8 1.1 0 3.5 0.3 5.3 0.7 2.9 0.7 3.4 1.4 5.2 7.5 1.1 3.8 2 7.3 2 7.8 0 0.5-3.2 5.7-7 11.5-5.9 8.8-6.7 10.5-5 10.5 1.1 0 5-1.1 8.8-2.5 3.7-1.4 8-3.7 9.6-5.2 1.5-1.6 3.2-3.9 3.8-5.3 0.5-1.4 0.9-7.2 0.9-13 0-7.2-0.6-12.6-1.9-17-1-3.6-3.8-10.2-6.3-14.8-2.8-5.4-6.5-10.4-10.4-14.2-3.3-3.3-7.2-6.8-8.7-8-1.6-1.1-2.9-2-3-2-0.2 0 1.3 3.3 3.2 7.2 3.3 6.8 3.5 7.7 3.5 17.2zm-24.4 26.6c1.1 3.6 2.7 7.6 3.6 9 0.9 1.4 5 6.5 9.2 11.3l7.6 8.9c11.6-18 12.6-20.2 12.1-22.7-0.3-1.7-1.2-3.9-1.9-5-1.4-1.9-1.5-1.9-6 2.2l-4.7 4.3c-3-3.5-3.9-4.8-4-5.3 0-0.4-0.7-0.5-1.5-0.2-1 0.3-1.5-0.1-1.5-1.3 0-0.9-1.2-2.9-2.7-4.3-1.6-1.5-4.3-3.4-6-4.3-1.8-0.9-3.5-1.6-3.7-1.6-0.2 0-0.9 0.6-1.4 1.2-0.8 0.9-0.5 3.1 0.9 7.8zm-84.9 9c0.5 9.7 1 12.8 3.7 19.7l3.1 8.3c6.3 0 10.7-1.2 14.3-2.9 3.4-1.5 7.1-3.8 8.2-5l2-2.1c-7.7-7.7-11.5-12.5-13.3-15.7l-3.3-5.8c1 14.7 1.5 19.8 1.7 20.7 0.2 1 0 1.8-0.6 1.8-0.5 0-2.3-1.6-4-3.5-1.6-1.9-3.7-5-4.6-6.8-0.9-1.7-2.3-5-3.1-7.2-0.8-2.2-1.8-7.4-2.2-11.5-0.6-6.4-0.9-7.1-1.6-4.5-0.4 1.7-0.6 8.2-0.3 14.5zm37.8 25.1c-2.5 2.3-6.7 4.7-9.5 5.5-2.7 0.9-7.8 1.9-11.2 2.2l-6.1 0.7c2.5 4.4 6.1 8.3 9.4 11.4 3.4 3.1 8.6 7.1 11.5 8.8 3 1.8 8.8 4.5 12.9 6 6.8 2.5 8.8 2.7 21.5 2.7 12.7 0 14.7-0.2 21.5-2.7 4.1-1.5 10-4.2 13-6 3-1.7 8.9-6.6 13-10.8 4.9-4.9 8.8-10 11.3-14.7 2-4 3.6-7.2 3.5-7.2-0.2 0-3.2 1.4-6.8 3.1-3.6 1.7-9 3.8-12 4.5-3 0.7-10 1.4-15.5 1.4-9.6 0-10.4-0.1-19.5-4.1-5.2-2.3-12-5-15-6-3-1.1-6.6-1.9-8-1.9-1.4 0.1-4.1 0.8-6 1.6-1.9 0.9-5.5 3.4-8 5.5z"/>
</svg>