<svg version="1.2" xmlns="http://www.w3.org/2000/svg" viewBox="0 0 72 72" width="72" height="72">

	<style>
		.s0 { opacity: .97;fill: currentColor }
	</style>
	<path id="Path 0" fill-rule="evenodd" class="s0" d="m0.9 1h62.8l-7.2 8-47 0.5-0.3 10c-0.2 5.5 0.2 12.7 1.9 22l-7 7-1.3-3c-0.8-2-1.4-10.1-1.6-23.8zm69.6 7.6l0.3 14c0.2 7.9-0.1 15.9-0.8 18.5-0.6 2.4-2.5 6.8-4.2 9.8-1.9 3.1-5.3 6.8-8.2 8.9-2.8 2-8.9 5.4-22 11.5l-7-3.4c-3.8-1.8-9.6-5-18.5-10.8l2-3c1.1-1.7 2.5-3.3 3.2-3.6 0.7-0.4 3.1 0.5 5.3 1.8 2.2 1.4 6.5 3.9 15.5 8.8l8.2-4.7c4.5-2.5 9.3-5.5 10.6-6.7 1.3-1.2 3-3.5 3.9-5.1 0.9-1.7 2.2-5.3 2.9-8.1 0.7-2.7 1.2-8.3 1.1-12.4-0.2-7.4-0.2-7.5 3.8-11.5zm-51.6 9.6h10.3c5.7 0 11.9 0.2 17.3 1.1l-10 9.8-6.5-6.5-11 11zm33.9 8.9c0.2 0 0.1 2.1-0.1 4.7-0.3 2.7-1.2 6.3-2.1 8-0.9 1.8-3.5 4.5-5.9 6-2.3 1.4-5.3 3.2-6.7 3.9-2.2 1.1-3.1 0.9-7-1.3-2.5-1.4-5.1-3-5.8-3.7-0.7-0.6-1.3-1.4-1.3-1.9 0.1-0.4 1.2-1.9 4.9-6.2l7.2 7 8.2-8.3c4.6-4.5 8.4-8.2 8.6-8.2z"/>
</svg>