<svg version="1.2" xmlns="http://www.w3.org/2000/svg" viewBox="0 0 72 72" width="72" height="72">

	<style>
		.s0 { opacity: 1;fill: currentColor }
	</style>
	<path id="Path 0" fill-rule="evenodd" class="s0" d="m36.2 0c26.9 0 34.9 0.3 35.3 1.3 0.3 0.6 0.2 10-0.2 20.7-0.8 18.2-1.1 19.9-3.5 25-1.5 3-4.6 7.4-7 9.6-2.4 2.3-8.9 6.6-24.8 14.9l-4.7-2.7c-2.7-1.4-7.5-4-10.8-5.7-3.3-1.8-8-5.3-10.4-7.9-2.4-2.6-5.1-6.5-6.1-8.7-1-2.2-2.3-6.4-2.9-9.3-0.6-2.8-1.2-12.1-1.3-20.5-0.1-8.5 0.2-15.7 0.7-16 0.5-0.4 16.5-0.7 35.7-0.7zm-27.4 21.9c0.1 6.6 0.8 13.7 1.6 16.6 0.9 3.2 3.1 6.8 5.9 10 2.9 3.2 7.3 6.5 12.1 9l7.6 4c13.5-7 18.6-10.6 20.4-12.6 1.8-2.1 3.8-6.2 4.9-10 1.3-4.8 1.7-9.2 1.5-17.9l-0.3-11.5c-40.4-0.4-52.5-0.2-53 0.2-0.5 0.3-0.8 5.8-0.7 12.2zm10.2-2.9h34v7.3c0 3.9-0.6 8.9-1.3 11-0.6 2.1-2.3 4.9-3.7 6.2-1.4 1.2-4.8 3.4-7.5 4.8-4.1 2.2-5.3 2.4-6.9 1.4-1-0.7-2.6-1.7-3.5-2.2-0.9-0.6-2.9-1.9-4.5-3-1.6-1.1-3.7-3.7-4.7-5.7-1.4-2.8-1.9-6-1.9-11.8z"/>
</svg>