<svg version="1.2" xmlns="http://www.w3.org/2000/svg" viewBox="0 0 16 16" width="16" height="16">

	<style>
		.s0 { fill: #000000 }
	</style>
	<path fill-rule="evenodd" class="s0" d="m6.1 3.5h-0.9v-0.4c0-0.4 0.2-0.8 0.4-1.1 0.3-0.2 0.7-0.4 1.1-0.4h2.6c0.4 0 0.8 0.2 1.1 0.4 0.2 0.3 0.4 0.7 0.4 1.1v0.4h-0.9v-0.4q0-0.2-0.2-0.4-0.2-0.2-0.4-0.2h-2.6q-0.2 0-0.4 0.2-0.2 0.2-0.2 0.4zm6.9 3.9v5.7c0 0.7-0.6 1.3-1.4 1.3h-7.2c-0.8 0-1.4-0.6-1.4-1.3v-5.7l3.6 2.7q0.4 0.3 0.9 0.3h0.9q0.6 0 1-0.3zm-10-3.4h10c0.4 0 0.7 0.3 0.7 0.7v0.5q0 0.3-0.2 0.5l-4.6 3.5q-0.2 0.2-0.5 0.2h-0.9q-0.2 0-0.4-0.2l-4.6-3.5c-0.1-0.1-0.2-0.3-0.2-0.5v-0.5c0-0.4 0.3-0.7 0.7-0.7zm-1.1 9.3h-0.3c-0.4 0-0.8-0.4-0.8-1v-3l1.1-1.3zm12.5 0h-0.3v-5.4l1.1 1.4v3c0 0.5-0.4 1-0.8 1z"/>
</svg>