<svg version="1.2" xmlns="http://www.w3.org/2000/svg" viewBox="0 0 156 161" width="156" height="161">

	<style>
		.s0 { opacity: .98;fill: #000000 }
	</style>
	<path id="Path 0" class="s0" d="m13.9 98.3c-2.4 1.8-5.4 5.4-6.8 8.2-2.3 4.3-2.6 6.2-2.6 14.5 0.1 8.6 0.3 10 3 14.9 1.8 3.1 4.9 6.7 7.5 8.6 2.5 1.9 7.5 4.5 11.3 5.9 3.7 1.4 10.9 3.4 15.9 4.3 7.4 1.4 15.1 1.8 37.3 1.8 25.5 0 28.9-0.2 38.5-2.3 5.8-1.3 13.2-3.6 16.5-5.3 3.3-1.6 7.6-4.4 9.6-6.2 1.9-1.7 4.4-4.8 5.3-6.7 1-1.9 2.1-5.7 2.4-8.5 0.4-3.8 0-6.4-1.8-11-1.3-3.3-3.9-8.6-5.7-11.7-1.8-3.2-3.7-6-4.3-6.3-0.6-0.3-3.6 1.8-6.7 4.5-3.2 2.8-8.7 6.6-12.3 8.4-3.6 1.9-9 4.2-12 5.1l-5.5 1.6c9.3-8.8 11.1-11 10-10.7-1.1 0.4-6.3 1.4-11.5 2.3-7.8 1.3-11.4 1.4-20 0.6-5.8-0.6-10.6-1-10.8-0.9-0.1 0 2.8 1.8 6.5 3.9l6.8 3.8c-8.5-1-16.2-2.8-22.5-4.6-6.3-1.8-16.2-5.2-22-7.4-5.8-2.3-12.6-5.5-15.2-7.1-2.7-1.7-5.2-3-5.7-3-0.5 0-2.8 1.5-5.2 3.3zm92.8-86.3c-0.3 1.4-2.1 4.3-4 6.5-1.8 2.2-5.3 5-7.8 6.2l-4.4 2.1c4.7 1.5 7.6 3.2 9.5 4.9 1.9 1.6 4.4 4.7 5.6 6.9l2.1 3.9c2.9-6 5.4-9.1 7.3-10.8 1.9-1.7 4.8-3.4 6.5-4l3-0.9c-6.8-3.3-10.2-5.9-11.8-7.8-1.7-1.9-3.6-4.9-4.2-6.5l-1.2-3zm-44.9 19.8c-0.9 1.5-3.6 4.9-6 7.6-2.4 2.7-6.1 6.1-8.3 7.6-2.2 1.5-5.8 3.3-8 4-3.8 1.3-3.9 1.4-1.5 2 1.4 0.4 4.1 1.5 6 2.5 1.9 1 5.2 3.2 7.4 4.9 2.1 1.7 5.1 4.9 6.6 7.1 1.4 2.2 3.3 5.8 4.2 8l1.5 4c3.8-8.5 6.5-12.8 8.4-14.9 1.8-2.1 5.4-5.3 7.9-6.9 2.5-1.7 6.3-3.6 8.5-4.2l4-1.2c-6.2-2-9.6-3.6-11.5-4.8-1.9-1.2-5.6-4.4-8.1-7.1-2.5-2.7-5.3-6.4-6.2-8.2-1-1.7-2.1-3.2-2.5-3.2-0.5 0-1.6 1.2-2.4 2.7zm-35.3 42.1c-2.8 0.9-6.3 2.5-7.8 3.4-1.5 1-3.2 2.9-3.7 4.3-0.6 1.5-0.7 3.4-0.1 4.7 0.5 1.3 1.9 3.3 3.2 4.5 1.3 1.2 5.2 3.4 8.6 4.8 3.5 1.4 10 3.4 14.5 4.5 4.6 1.1 13.2 2.7 19.3 3.7 7.2 1.1 16.9 1.7 28 1.7 12.5 0 19-0.5 24.5-1.7 4.1-1 9.9-3 12.9-4.5 3.3-1.6 6.4-4.1 7.8-6.2 1.3-1.9 2.3-4.6 2.3-6 0-1.4-1-3.8-2.2-5.4-1.3-1.6-3.8-3.5-5.6-4.3-1.8-0.7-4.8-1.3-6.7-1.3-1.9 0-3.5 0.3-3.5 0.7-0.1 0.5 1.3 1.1 3 1.5 1.6 0.5 3 1.5 3 2.3 0 0.8-1.3 2.4-2.8 3.6-1.5 1.1-5 2.7-7.7 3.5-2.8 0.8-9.3 2.1-14.5 2.9-5.2 0.8-12.9 1.5-17 1.5-4.1 0-12.2-0.5-18-1-5.8-0.6-14.8-2-20-3-5.2-1.1-11.5-3-14-4.3-2.5-1.3-4.5-3-4.5-3.7 0-0.8 1.9-2.5 4.2-3.7 2.4-1.3 4.1-2.8 3.8-3.3-0.3-0.5-0.9-1-1.3-1-0.4 0.1-3 0.8-5.7 1.8z"/>
</svg>