<svg version="1.2" xmlns="http://www.w3.org/2000/svg" viewBox="0 0 40 40" width="40" height="40">
	<title>40px-Keyword_SpellShield</title>
	<style>
		.s0 { opacity: .89;fill: #000000 } 
		.s1 { opacity: .5;fill: none;stroke: #000000;stroke-miterlimit:100 } 
	</style>
	<g id="Background">
		<path id="Path 0" class="s0" d="m2 3.8c0.1 0.4 1.6 2.8 3.5 5.5 2.5 3.3 3.1 4.7 2 4.7-0.8 0-1.8 0.6-2.2 1.3-0.3 0.6 0.3 1.8 1.3 2.5 1.8 1.3 1.8 1.4-0.3 3.3-1.3 1-2.3 2.3-2.3 2.9 0 0.6 1.8 1 4 1 3.1 0 4.2-0.5 5.1-2.3 0.6-1.2 2.3-3.5 3.8-5 1.4-1.6 3.8-3.5 5.4-4.3 2.2-1.1 2.7-2.1 2.7-4.9 0-1.9-0.6-3.8-1.3-4.1-0.7-0.4-1.9 0.4-3 2-1.7 2.6-1.7 2.6-3.2 0.6-0.8-1.1-1.9-2-2.5-2-0.6 0-1 0.9-1 2 0 1.1-0.2 2-0.5 2-0.3 0-2.5-1.3-5-3-2.5-1.7-5-3-5.5-3-0.5 0-1 0.3-1 0.7zm25.5 10.4c-1.6 0.5-4.4 1.9-6.2 3.2-1.7 1.2-4.2 3.7-5.5 5.6-1.5 2.4-2.4 5.2-2.5 8.8-0.2 3 0.1 5.3 0.7 5.3 0.6 0 1.3-0.8 1.6-1.8 0.3-0.9 1.2-3.4 2-5.5 0.8-2.3 3.4-5.5 6.2-7.8 2.6-2.2 6.4-4.5 8.5-5.2 2-0.7 3.7-1.6 3.7-2.2 0-0.6-1.2-1.1-2.7-1.2-1.6-0.1-4.2 0.3-5.8 0.8z"/>
		<path id="Stroke" class="s1" d="m2 3.8c0.1 0.4 1.6 2.8 3.5 5.5 2.5 3.3 3.1 4.7 2 4.7-0.8 0-1.8 0.6-2.2 1.3-0.3 0.6 0.3 1.8 1.3 2.5 1.8 1.3 1.8 1.4-0.3 3.3-1.3 1-2.3 2.3-2.3 2.9 0 0.6 1.8 1 4 1 3.1 0 4.2-0.5 5.1-2.3 0.6-1.2 2.3-3.5 3.8-5 1.4-1.6 3.8-3.5 5.4-4.3 2.2-1.1 2.7-2.1 2.7-4.9 0-1.9-0.6-3.8-1.3-4.1-0.7-0.4-1.9 0.4-3 2-1.7 2.6-1.7 2.6-3.2 0.6-0.8-1.1-1.9-2-2.5-2-0.6 0-1 0.9-1 2 0 1.1-0.2 2-0.5 2-0.3 0-2.5-1.3-5-3-2.5-1.7-5-3-5.5-3-0.5 0-1 0.3-1 0.7zm25.5 10.4c-1.6 0.5-4.4 1.9-6.2 3.2-1.7 1.2-4.2 3.7-5.5 5.6-1.5 2.4-2.4 5.2-2.5 8.8-0.2 3 0.1 5.3 0.7 5.3 0.6 0 1.3-0.8 1.6-1.8 0.3-0.9 1.2-3.4 2-5.5 0.8-2.3 3.4-5.5 6.2-7.8 2.6-2.2 6.4-4.5 8.5-5.2 2-0.7 3.7-1.6 3.7-2.2 0-0.6-1.2-1.1-2.7-1.2-1.6-0.1-4.2 0.3-5.8 0.8z"/>
	</g>
</svg>