<svg version="1.2" xmlns="http://www.w3.org/2000/svg" viewBox="0 0 40 40" width="40" height="40">
	<title>40px-BE_icon</title>
	<style>
		.s0 { opacity: .91;fill: currentColor }
	</style>
	<path id="Path 0" class="s0" d="m14 8.01c-3.03 3.81-5.62 7.28-5.77 7.71-0.14 0.43 2.11 1.55 5 2.49 2.9 0.94 5.31 1.62 5.36 1.5 0.05-0.11 1.96-2.57 4.25-5.46l4.16-5.25c-5.04-6.24-6.73-8.03-7-7.99-0.27 0.03-2.98 3.18-6 7zm11.14 10.24l-3.25 3.25 6.61 4.44 6-5.88c-3.88-3.96-5.25-5.1-5.56-5.09-0.3 0.02-2.02 1.49-3.8 3.28zm-18.39 3.1c0.41 0.74 3.45 5 6.75 9.46 3.3 4.47 6.22 8.12 6.5 8.12 0.27-0.01 1.96-2.02 3.75-4.47 1.79-2.45 3.14-4.64 3-4.87-0.14-0.22-4.86-2.47-10.5-5-5.64-2.52-9.91-3.98-9.5-3.24z"/>
</svg>