<svg version="1.2" xmlns="http://www.w3.org/2000/svg" viewBox="0 0 28 28" width="28" height="28">
	<title>lucide--sword</title>
	<style>
		.s0 { opacity: .6;fill: currentColor }
		.s1 { fill: currentColor }
		.s2 { opacity: .5;fill: currentColor }
		.s3 { opacity: .12;fill: currentColor }
		.s4 { opacity: .15;fill: currentColor }
		.s5 { opacity: .16;fill: currentColor }
		.s6 { opacity: .19;fill: currentColor }
		.s7 { opacity: .21;fill: currentColor }
		.s8 { opacity: .24;fill: currentColor }
		.s9 { opacity: .27;fill: currentColor }
		.s10 { opacity: .3;fill: currentColor }
		.s11 { opacity: .32;fill: currentColor }
		.s12 { opacity: .37;fill: currentColor }
		.s13 { opacity: .39;fill: currentColor }
		.s14 { opacity: .41;fill: currentColor }
		.s15 { opacity: .49;fill: currentColor }
		.s16 { opacity: .51;fill: currentColor }
		.s17 { opacity: .55;fill: currentColor }
		.s18 { opacity: .58;fill: currentColor }
		.s19 { opacity: .65;fill: currentColor }
		.s20 { opacity: .66;fill: currentColor }
		.s21 { opacity: .69;fill: currentColor }
		.s22 { opacity: .7;fill: currentColor }
		.s23 { opacity: .73;fill: currentColor }
		.s24 { opacity: .78;fill: currentColor }
		.s25 { opacity: .79;fill: currentColor }
		.s26 { opacity: .8;fill: currentColor }
		.s27 { opacity: .84;fill: currentColor }
		.s28 { opacity: .86;fill: currentColor }
		.s29 { opacity: .9;fill: currentColor }
		.s30 { opacity: .97;fill: currentColor }
		.s31 { opacity: .98;fill: currentColor }
		.s32 { opacity: .43;fill: currentColor }
		.s33 { opacity: .46;fill: currentColor }
		.s34 { opacity: .72;fill: currentColor }
	</style>
	<path id="Path 0" class="s0" d="m21 28v-17h2v17z"/>
	<path id="Path 0" class="s0" d="m7 28v-6h2v6z"/>
	<path id="Path 0 copy" class="s0" d="m15 28v-6h2v6z"/>
	<path id="Shape 1" fill-rule="evenodd" class="s1" d="m9 23v4h-2v-4z"/>
	<path id="Shape 3" fill-rule="evenodd" class="s1" d="m23 12v15h-2v-15z"/>
	<path id="Shape 4" fill-rule="evenodd" class="s2" d="m7 22v6h-1.4v-6z"/>
	<path id="Shape 1 copy" fill-rule="evenodd" class="s1" d="m17 23v4h-2v-4z"/>
	<path id="Shape 4 copy" fill-rule="evenodd" class="s2" d="m15 22v6h-1.4v-6z"/>
	<g id="Layer 1">
	</g>
	<g id="Layer 2">
		<path id="Path 0" class="s3" d="m7 0h1v1h-1zm8 15h-1l1-2v1zm-6 1h1v1h-1z"/>
		<path id="Path 1" class="s4" d="m18 6h1v1h-1zm-16 7h1v1h-1zm7 3v-3h1v3zm1 1h1v1h-1z"/>
		<path id="Path 2" class="s5" d="m9 12h1v1h-1zm10 2h1v1h-1z"/>
		<path id="Path 3" class="s6" d="m12 10h1v1h-1z"/>
		<path id="Path 4" class="s7" d="m18 7h1v1h-1zm-5 2h1v1h-1zm-4 2h1v1h-1zm-7 6h1v1h-1zm16 1h1v1h-1z"/>
		<path id="Path 5" class="s8" d="m5 8h1v1h-1z"/>
		<path id="Path 6" class="s9" d="m13 0h1v1h-1z"/>
		<path id="Path 7" class="s10" d="m15 8h1v1h-1zm3 0h1v1h-1z"/>
		<path id="Path 8" class="s11" d="m18 9h1v1h-1zm1 7h1v1h-1zm-3 4h1v1h-1z"/>
		<path id="Path 9" class="s12" d="m6 8h1v1h-1zm12 2h1v1h-1zm-12 8v-2h1v2z"/>
		<path id="Path 10" class="s13" d="m14 20h1v1h-1z"/>
		<path id="Path 11" class="s14" d="m8 0h1v1h-1zm10 11h1v1h-1z"/>
		<path id="Path 12" class="s15" d="m4 10v-1h1v2h-1zm14 2h1v1h-1zm-12 3h1v1h-1zm0 3h1v1h-1zm-1 2h1v1h-1z"/>
		<path id="Path 13" class="s16" d="m2 14h1v1h-1zm17 1h1v1h-1zm-16 3h1v1h-1z"/>
		<path id="Path 14" class="s17" d="m14 8h1v1h-1z"/>
		<path id="Path 15" class="s18" d="m17 4h1v1h-1zm-14 2h1v1h-1z"/>
		<path id="Path 16" class="s0" d="m11 16h1v1h-1z"/>
		<path id="Path 17" class="s19" d="m12 0h1v1h-1zm6 13h1v1h-1zm-12 1h1v1h-1z"/>
		<path id="Path 18" class="s20" d="m3 7h1v1h-1zm-1 9h1v1h-1zm13 1h1v1h-1z"/>
		<path id="Path 19" class="s21" d="m14 1h1v1h-1zm-11 7h1v1h-1zm8 7h1v1h-1z"/>
		<path id="Path 20" class="s22" d="m3 9h1v1h-1zm8 5h1v1h-1zm4 2h1v1h-1zm-9 3h1v1h-1z"/>
		<path id="Path 21" class="s23" d="m3 10h1v1h-1zm8 3h1v1h-1z"/>
		<path id="Path 22" class="s24" d="m9 0h1v1h-1zm2 12h1v1h-1z"/>
		<path id="Path 23" class="s25" d="m5 12h1v1h-1zm10 6h1v1h-1z"/>
		<path id="Path 24" class="s26" d="m4 8h1v1h-1zm-1 3h1v1h-1z"/>
		<path id="Path 25" class="s27" d="m4 11h1v1h-1zm2 2h1v1h-1zm9 7h1v1h-1z"/>
		<path id="Path 26" class="s28" d="m7 1h1v1h-1zm4 10h1v1h-1z"/>
		<path id="Path 27" class="s28" d="m15 2h1v1h-1zm2 9v-2h1v1 1zm-2 4h1v1h-1z"/>
		<path id="Path 28" class="s29" d="m11 0h1v1h-1zm5 3h1v1h-1zm-12 1h1v1h-1zm-1 8h1v1h-1zm-1 3h1v1h-1zm8 1h1v1h-1zm-4 4h1v1h-1z"/>
		<path id="Path 29" class="s30" d="m10 0h1v1h-1zm7 5h1v1h-1zm-1 7h1v1h-1zm-13 1h1v1h-1zm7 3v-3h1v1 1 1zm8-2h1v1h-1zm-3 5h1v1h-1z"/>
		<path id="Path 30" class="s31" d="m10 12h1v1h-1z"/>
		<path id="Path 31" class="s31" d="m7 2l1-1h1 1 1 1 1 1l1 1 1 1 1 1v1l1 1v1 1 1h-1l-1-1h-1-1l-1 1-1 1-1 1v1h-1v-1l-1-1-1-1-1-1h-1-1-1v-1-1-1l1-1v-1l1-1zm10 10v-1h1v1 1 1l1 1v1 1l-1 1v1l-1 1h-1v-1-1-1-1-1l-1-1v-1h1zm-13 1v-1h1l1 1v1 1 1 2 1 1h-1l-1-1v-1l-1-1v-1-1-1z"/>
		<path id="Path 32" class="s3" d="m15 1h1v1h-1zm2 2h1v1h-1zm1 2h1v1h-1zm-13 6h1v1h-1zm9 8h1v1h-1zm-7 1h1v1h-1z"/>
		<path id="Path 33" class="s5" d="m16 2h1v1h-1z"/>
		<path id="Path 34" class="s6" d="m6 12h1v1h-1z"/>
		<path id="Path 35" class="s9" d="m6 1h1v1h-1zm-3 4h1v1h-1z"/>
		<path id="Path 36" class="s10" d="m4 3h1v1h-1zm12 8h1v1h-1z"/>
		<path id="Path 37" class="s11" d="m16 8h1v1h-1z"/>
		<path id="Path 38" class="s13" d="m15 12h1v1h-1z"/>
		<path id="Path 39" class="s14" d="m17 19h1v1h-1z"/>
		<path id="Path 40" class="s32" d="m5 2h1v1h-1z"/>
		<path id="Path 41" class="s33" d="m8 9h1v1h-1z"/>
		<path id="Path 42" class="s17" d="m9 10h1v1h-1z"/>
		<path id="Path 43" class="s34" d="m4 19h1v1h-1z"/>
		<path id="Path 44" class="s34" d="m7 8h1v1h-1z"/>
		<path id="Path 45" class="s26" d="m18 17h1v1h-1z"/>
		<path id="Path 46" class="s28" d="m12 9h1v1h-1z"/>
		<path id="Path 47" class="s30" d="m13 8h1v1h-1zm-2 2h1v1h-1zm4 4h1v1h-1zm-12 3h1v1h-1z"/>
	</g>
</svg>