<svg version="1.2" xmlns="http://www.w3.org/2000/svg" viewBox="0 0 147 147" width="147" height="147">
	<title>champ-square</title>
	<style>
		.s0 { fill: currentColor; opacity: 0.6; }
		.s1 { fill: none;stroke: currentColor;stroke-miterlimit:100;stroke-width: 10 }
	</style>
	<path id="Path 0" class="s0" d="m67.9 34.8c-2 0.5-4.7 1.5-6 2.2-1.3 0.7-3.6 2-5 3-1.4 1-3.5 2.9-4.7 4.2-1.1 1.3-2.7 3.4-3.6 4.6-0.7 1.2-1.9 3.8-2.5 5.6-1.1 3.1-1.2 4.1-1.5 14.3-0.2 7.1-0.6 12.2-1 14.2-0.5 2.1-1.3 4.3-2.3 5.9-1.2 2-1.4 2.8-1.2 3.8 0.1 0.8 1.2 3.3 2.4 5.7 1.1 2.3 3.2 5.5 4.4 7.1 1.3 1.5 3.3 3.4 4.5 4.1 1.1 0.8 3.1 1.9 4.4 2.3 1.2 0.5 2.7 0.9 3.3 0.9 0.6 0 1.1-0.1 1.1-0.3 0-0.2-0.4-0.9-0.9-1.6-0.4-0.8-1.2-2.5-1.7-4-0.5-1.7-1-4.4-1.1-7.3-0.3-3.8-0.1-5.6 0.6-9.2 0.5-2.5 0.9-5.3 0.9-6.3 0-1.7 0-1.7-2.9-3.5-2-1.2-3.4-2.4-4.3-3.8-1.3-2-1.5-2.4-1.4-5.6 0-2.7 0.2-3.8 0.8-4.8 0.6-1 1.3-1.5 2.3-1.7 0.8-0.1 2.7 0.2 4.4 0.7 1.7 0.4 3.9 1.4 5 2.1 1.1 0.7 2.8 2.2 3.9 3.3 1.1 1.2 2.3 2.8 2.7 3.5 0.6 1.2 0.7 2.9 0.7 11.5v10.2l3.5 2.8 3.6-2.6c0.5-18.8 0.7-21.4 1.2-22.4 0.4-0.8 1.6-2.3 2.7-3.4 1.2-1.2 3.2-2.7 4.3-3.3 1.2-0.7 3.4-1.6 5-2 1.6-0.4 3.3-0.6 4-0.5 0.8 0.3 1.4 0.9 2 2.2 0.5 1.1 0.9 2.8 1 4.2 0 1.3-0.3 3-0.6 3.9-0.4 0.8-1.3 2.2-2.2 3.1-0.8 1-2.5 2.3-3.7 3.1-1.3 0.7-2.4 1.6-2.5 1.9-0.1 0.4 0.3 3 0.9 5.8 0.7 3.3 1.1 6.4 1.1 9.1 0 2.3-0.2 5.2-0.5 6.4-0.3 1.2-1.1 3.7-1.9 5.4l-1.5 3.1c1.8 0 3.4-0.5 4.7-1 1.3-0.5 3.4-1.6 4.5-2.5 1.2-0.8 3.2-2.8 4.5-4.5 1.3-1.6 3.2-4.8 4.3-7.1q2-4 2-5.6c0-0.9-0.7-2.6-1.9-4.5l-1.8-3c-0.6-12.1-1-18.6-1.2-22.2-0.3-5.9-0.5-7.1-1.6-9.7-0.7-1.6-2.2-4.2-3.4-5.8-1.2-1.6-3.5-4-5.1-5.4-1.7-1.4-4.5-3.2-6.3-4.2-1.8-0.9-4.4-1.9-5.8-2.3-1.4-0.3-3.6-0.7-4.8-0.8-1.5-0.2-3.2 0-5.8 0.7z"/>
	<g id="g1">
		<path id="Shape 2" fill-rule="evenodd" class="s1" d="m73.1 141.5c-37.6 0-68.1-30.5-68.1-68.1 0-37.7 30.5-68.2 68.1-68.2 37.7 0 68.1 30.5 68.1 68.2 0 37.6-30.4 68.1-68.1 68.1z"/>
	</g>
</svg>