<svg version="1.2" xmlns="http://www.w3.org/2000/svg" viewBox="0 0 72 72" width="72" height="72">

	<style>
		.s0 { opacity: .97;fill: currentColor }
	</style>
	<path id="Path 0" class="s0" d="m34.5 4.5c-0.4 1.7-2.4 10.1-4.6 18.8-2.1 8.6-3.9 15.9-3.9 16.2 0 0.3-0.4 0.5-1 0.5-0.6 0-4.5-2.1-8.8-4.6-4.2-2.5-9.4-5.5-11.4-6.5-2.1-1-3.6-1.6-3.4-1.2 0.2 0.5 4 6.6 8.5 13.8l8.1 13-16.9 1c9.6 6.5 14.6 10 17.4 11.9 2.8 2 6 3.5 7.3 3.6 1.2 0 2.4-0.6 2.6-1.3 0.2-0.6 1.9-7.3 3.6-14.7 1.8-7.4 3.3-13.6 3.3-13.7 0.1-0.2 1.3 4.1 2.6 9.5 1.3 5.3 2.9 11.9 3.5 14.7 1 4 1.7 5.1 3.4 5.2 1.4 0.2 6.5-2.6 13.6-7.5l11.5-7.7c-12.3-0.4-15.9-0.7-15.9-1 0-0.3 0.7-2 1.6-3.8 0.9-1.7 4.7-7.7 8.3-13.2l6.6-10c-8.5 4.5-14 7.5-17.8 9.6-3.7 2.2-6.8 3.9-6.9 3.9-0.2 0-1.8-6.2-3.7-13.7-1.8-7.6-4.1-16.5-5.1-19.8-1.6-5.7-1.8-5.9-2.5-3z"/>
</svg>