<svg version="1.2" xmlns="http://www.w3.org/2000/svg" viewBox="0 0 40 40" width="40" height="40">

	<style>
		.s0 { opacity: .99;fill: #000000 }
	</style>
	<g id="Background">
		<path id="Path 2" fill-rule="evenodd" class="s0" d="m18.8 1c12.6-0.1 12.7 0 13.9 2.5 1.1 2 1 4.4-0.2 12.8-0.8 5.6-1.7 11.2-2 12.4-0.5 2.1-1.1 2.3-8.7 2.5-5.5 0.2-8.2 0.7-8.5 1.5-0.2 1 1.7 1.3 7.2 1.3 6.1 0 7.7 0.3 8.5 1.7 1 1.7 1 1.7 2 0 0.6-0.9 2.2-1.7 6.5-1.8l-2.5 2.6c-2.4 2.4-3.1 2.6-13 2.6-9.4 0-10.7-0.3-12.5-2.1-2-2.1-2-2.3-0.2-13.3 0.9-6.2 1.7-12.9 1.7-14.9 0-2.1-0.6-4.1-1.3-4.4-0.6-0.3-1.6-0.1-2.1 0.5-0.6 0.6-1.8 1.1-2.8 1.1-1.7 0-1.7-0.2-0.2-2.5 1.6-2.4 1.9-2.5 14.2-2.5zm-1.8 12c5.6-3.5 7.4-4.8 7.6-5.3 0.2-0.4-1.3-0.7-3.4-0.7-3.4 0-3.7 0.2-4 3zm-0.1 7.1c0.1 0.5 0.6 0.9 1.1 0.9q1 0 0 2.5c-0.5 1.4-0.6 2.5-0.1 2.5 0.4 0 1.3-0.6 2-1.2 1-1 1.6-1 2.7 0.5 1.1 1.3 1.6 1.4 2.1 0.5 0.4-0.7 1.4-2.3 2.3-3.5 1.5-2.2 1.5-2.3-1.2-2-1.5 0.1-2.7-0.2-2.7-0.8-0.1-0.5 0.6-2 1.4-3.2 0.8-1.3 1.4-2.3 1.3-2.3-0.1 0-2.2 1.2-4.6 2.6-2.5 1.4-4.4 2.9-4.3 3.5z"/>
	</g>
</svg>