<svg version="1.2" xmlns="http://www.w3.org/2000/svg" viewBox="0 0 72 72" width="72" height="72">
	<title>Experience_icon</title>
	<style>
		.s0 { opacity: .98;fill: #000000 } 
	</style>
	<path id="Path 0" class="s0" d="m33 5.25c0.01 0.69-6.86 8.11-15.25 16.5-8.39 8.38-15.81 15.24-16.5 15.25-0.72 0-1.25 1.27-1.25 3 0 1.65 0.45 3 1 3 0.55 0 2.69 1.39 4.75 3.08 3.18 2.61 4.09 2.92 6 2 1.24-0.59 3.07-1.87 4.07-2.83 1.01-0.96 4.48-4 7.73-6.75 3.24-2.75 6.94-6.01 8.22-7.25 1.28-1.24 3.2-2.25 4.28-2.25 1.07 0 2.96 1.01 4.2 2.25 1.24 1.24 4.23 3.83 6.65 5.75 2.42 1.92 6.02 5.02 8 6.87 1.98 1.86 4.39 3.77 5.35 4.25 1.31 0.66 2.82 0.01 6-2.59 2.34-1.91 4.59-3.26 5-3 0.41 0.26 0.75-0.88 0.75-2.53 0-1.74-0.53-3-1.25-3-0.69 0.01-8.11-6.86-16.5-15.25-8.38-8.39-15.24-15.81-15.25-16.5 0-0.72-1.27-1.25-3-1.25-1.74 0-3 0.53-3 1.25zm-5 38.17c-3.03 3.43-6.74 7.1-8.25 8.16-1.74 1.22-2.75 2.83-2.75 4.42 0 1.42 0.86 3.04 2 3.75 1.1 0.69 2 1.92 2 2.75 0 0.93 0.94 1.5 2.5 1.5 1.37 0 2.84-0.64 3.25-1.42 0.41-0.77 2.55-2.81 4.75-4.53 2.2-1.71 4.45-3.1 5-3.09 0.55 0.02 3.02 2.04 5.5 4.5 2.59 2.58 5.45 4.49 6.75 4.51 1.35 0.02 2.25-0.57 2.25-1.47 0-0.83 0.9-2.06 2-2.75 1.22-0.76 2.01-2.33 2-4 0-1.51-0.45-2.75-1-2.75-0.55 0-4.15-3.15-8-7-3.85-3.85-7-7.45-7-8 0-0.55-1.24-0.96-2.75-0.9-2.06 0.07-4.13 1.66-8.25 6.32z"/>
</svg>