<svg version="1.2" xmlns="http://www.w3.org/2000/svg" viewBox="0 0 31 37" width="31" height="37">

	<style>
		.s0 { opacity: .8;fill: currentColor }
	</style>
	<path id="Path 0" fill-rule="evenodd" class="s0" d="m15.6 0c0.8 0 2.5 1.5 3.8 3.3 1.3 1.7 3.3 5 4.4 7.2 1.1 2.2 3.1 5.5 7.2 10.5l-2.8 4.1c-1.5 2.3-4.6 5.9-7 8-2.3 2.2-4.8 3.9-5.5 3.9-0.6 0.1-3.2-1.7-5.7-3.8-2.5-2.2-5.7-5.8-10-12.2l2.3-2.8c1.2-1.5 3.7-5.4 5.6-8.7 1.9-3.3 4.1-6.8 4.9-7.8 0.8-0.9 2.1-1.7 2.8-1.7zm-5.3 10l-2 3.5c6.3 2.1 8.1 2.1 10.7 1.2l3.5-1.1c-4.3-8.2-5.9-10.8-6.4-11.1-0.5-0.3-1.6 0.5-2.4 1.7-0.8 1.3-2.3 3.9-3.4 5.8zm1.5 14.7l3.7 6.3c5-8.1 6.7-11.4 7-12.5 0.4-1.1 0.4-2.2 0-2.5-0.3-0.3-2 0.2-3.8 1.1-2.8 1.5-3.5 1.5-5.7 0.3-1.4-0.7-3.1-1.3-3.7-1.4-0.7 0-1.3 0.6-1.3 1.2 0 0.7 1.7 4.1 3.8 7.5zm9.2 1.5c-2.8 4.7-4.5 6.7-5.7 6.5-1-0.1-2.2-1.1-2.8-2.2-0.6-1.1-2.3-3.9-3.8-6.3-1.5-2.3-2.7-4.8-2.7-5.5 0.1-0.8-0.4-0.8-1.5 0.3-0.9 0.8-1.6 1.9-1.6 2.5 0 0.5 2.7 3.9 6 7.5l5.9 6.5c4.4-3.3 7.6-6.4 9.8-9.1 4.1-4.8 4.1-5 2.5-7.3-1.1-1.5-1.7-1.8-1.9-1-0.1 0.8-2 4.4-4.2 8.1z"/>
</svg>