<svg version="1.2" xmlns="http://www.w3.org/2000/svg" viewBox="0 0 31 37" width="31" height="37">

	<style>
		.s0 { opacity: .93;fill: #000000 }
	</style>
	<path id="Path 0" fill-rule="evenodd" class="s0" d="m15.4 0c0.6-0.1 1.8 0.7 2.7 1.7 0.9 1 2.8 4.2 4.3 7 1.4 2.9 4 6.9 8.6 12.3l-2.4 3.2c-1.3 1.8-4 5-6 7-2 2.1-4.4 4.2-5.3 4.8-1.3 0.7-2.6 0.4-4.9-1.3-1.7-1.2-5.2-4.7-12.3-13.2l3.3-4.5c1.8-2.5 4.4-6.5 5.6-9 1.2-2.5 2.9-5.3 3.8-6.3 0.8-0.9 2-1.7 2.6-1.7zm-3.9 25.3c1.9 3.1 3.7 5.7 4 5.7 0.3 0 2.1-2.7 4-6 1.9-3.3 3.5-6.7 3.5-7.5 0-1.1-0.7-1.3-2.7-0.9-1.6 0.3-3.7 0.6-4.8 0.6-1.1 0-3.2-0.3-4.6-0.7-2.1-0.6-2.6-0.4-2.7 1.1-0.1 1.1 1.4 4.5 3.3 7.6z"/>
</svg>