<svg version="1.2" xmlns="http://www.w3.org/2000/svg" viewBox="0 0 72 75" width="72" height="75">

	<style>
		.s0 { opacity: .98;fill: currentColor }
	</style>
	<path id="Path 0" class="s0" d="m26.7 7.3c-0.9 1.7-2.9 5.5-4.5 8.2-1.5 2.8-4.2 7.5-5.9 10.5-1.7 3-4.2 7.6-5.7 10.3-1.4 2.6-2.6 4.9-2.6 5.2 0 0.3 4.7 0.5 10.5 0.5 5.8 0 10.5 0.2 10.5 0.5 0 0.3-2 6.7-4.5 14.3-2.5 7.5-4.5 14.2-4.5 14.7 0 0.5 5.3-4.2 11.7-10.5 6.5-6.3 16.4-15.9 22.1-21.3l10.2-9.7c-20.2 0-26-0.3-26-0.8 0-0.4 0.6-1.6 1.3-2.7 0.8-1.1 3.7-6.4 6.5-11.8 2.9-5.3 5.2-9.9 5.2-10.2 0-0.3-5.1-0.5-11.4-0.5h-11.3z"/>
</svg>