<svg version="1.2" xmlns="http://www.w3.org/2000/svg" viewBox="0 0 32 32" width="32" height="32">

	<defs>
		<linearGradient id="g1" x2="1" gradientUnits="userSpaceOnUse" gradientTransform="matrix(0,23.43,-20.851,0,3.001,2.75)">
			<stop offset=".25" stop-color="#000000"/>
			<stop offset=".75" stop-color="#000000"/>
		</linearGradient>
		<linearGradient id="g2" x2="1" gradientUnits="userSpaceOnUse" gradientTransform="matrix(0,23.43,-20.851,0,8.148,5.82)">
			<stop offset=".25" stop-color="#000000"/>
			<stop offset=".75" stop-color="#000000"/>
		</linearGradient>
	</defs>
	<style>
		.s0 { fill: url(#g1) }
		.s1 { fill: url(#g2) }
	</style>
	<path class="s0" d="m19.3 11.9c1.5 0.8 2.8 2.1 4.4 4.2q0-0.1 0-0.2c0.3-3.3 0.9-9.8-9.2-13.1 0.1 0.1 0.5 0.5 0.9 1 0.8 0.8 1.7 1.8 1.7 1.9-0.9-0.5-5.4-1.9-9.4 0.9-3.9 2.7-5.1 6.6-4.6 11.3 0.5 3.7 3.3 6.8 7 8.3-2.6-1.5-4.4-4.4-4.4-7.7 0-4.8 3.7-8.7 8.3-8.7 2 0 3.9 0.8 5.3 2.1z"/>
	<path class="s1" d="m12.7 20.1c-1.5-0.8-2.8-2.1-4.4-4.2q0 0.1 0 0.2c-0.3 3.3-0.9 9.8 9.2 13.1-0.1-0.1-0.5-0.5-0.9-1-0.8-0.8-1.7-1.8-1.7-1.9 0.9 0.5 5.4 1.9 9.4-0.9 3.9-2.7 5.1-6.6 4.6-11.3-0.5-3.7-3.3-6.8-7-8.3 2.6 1.5 4.4 4.4 4.4 7.7 0 4.8-3.7 8.7-8.3 8.7-2 0-3.9-0.8-5.3-2.1z"/>
</svg>