<svg version="1.2" xmlns="http://www.w3.org/2000/svg" viewBox="0 0 40 40" width="40" height="40">

	<style>
		.s0 { opacity: .94;fill: currentColor }
	</style>
	<path id="Path 0" fill-rule="evenodd" class="s0" d="m21.7 3.3c1.1 1 2 3.9 2.3 7 0.4 4.4 0.8 5.2 2.5 5.2q2 0 2.3-2.3c0.1-1.2 0.7-2.2 1.2-2.2 0.6 0 1.7 1.3 2.5 3 0.8 1.6 1.8 4.9 2.1 7.3 0.4 2.3 0.2 5.9-0.5 8-0.7 2.5-2.3 4.5-4.8 6.2-2.8 1.8-5.1 2.5-8.8 2.5-3.2 0-6.1-0.7-8.2-2-1.8-1.1-3.9-3-4.7-4.3-0.8-1.2-1.7-3.6-2.1-5.2-0.4-1.6-0.2-4.6 0.4-6.5 0.5-1.9 1.7-4.2 2.7-5 1.5-1.4 1.5-1.3 0.9 1-0.4 1.7-0.2 2.9 0.9 3.8 0.9 0.6 2.1 1 2.6 0.7 0.6-0.3 1-2.2 1-4.3 0-2.6 0.9-4.9 3-7.7 1.6-2.2 3-4.7 3-5.5 0-1.2 0.3-1.2 1.7 0.3zm-2.2 17.5c1.5 3.4 1.5 3.8-0.2 5-1 0.8-3 1.1-4.5 0.8q-2.8-0.6-2.8 0.7c-0.1 0.6 0.8 2.4 2 4 1.6 2.2 2.8 2.7 6.3 2.7 2.9 0.1 4.8-0.5 6.2-1.9l2-2c-7.4 1-9.3 0.8-9.8 0q-0.7-1.1 2.1-1.1c1.5 0 3.3-0.6 4-1.2 0.7-0.7 1.2-2.1 1.2-3 0-1-1.8-3.6-4-5.8-2.2-2.2-4-3.5-4-3 0 0.6 0.7 2.7 1.5 4.8z"/>
</svg>