<svg version="1.2" xmlns="http://www.w3.org/2000/svg" viewBox="0 0 174 174" width="174" height="174">

	<style>
		.s0 { opacity: .99;fill: #000000 }
	</style>
	<path id="Path 0" fill-rule="evenodd" class="s0" d="m86 18.1c5.2 0 13.8 0.6 19 1.4 5.2 0.8 12 2.2 15 3.1 3 0.9 7.7 2.6 10.3 3.7 2.7 1.3 4.8 2.8 4.7 3.7 0 0.8-0.6 3.7-1.3 6.4q-1.2 4.9-4 7c-2.6 2-3.1 2-7.5 0.7-2.6-0.7-5.5-1.6-6.5-2-1.6-0.5-1.3 0.4 1.3 5.9 2.5 5 3.1 7.3 2.6 10-0.3 1.9-2.1 6.7-4 10.5-1.9 3.8-5.4 9-7.8 11.6-2.4 2.5-5.6 5.4-10 8.4l4.1 2.7c2.3 1.6 5.9 5.2 8 8 2.2 2.9 5.1 7.8 6.5 10.8 1.4 3 2.9 7.1 3.2 9 0.5 2.8-0.1 4.9-2.7 10-2.8 5.6-3 6.4-1.3 5.9 1-0.4 4-1.3 6.6-2 4.4-1.3 4.9-1.3 7.5 0.7q2.8 2.1 4 7c0.7 2.7 1.3 5.6 1.3 6.4 0.1 0.9-2 2.4-4.7 3.7-2.6 1.1-7.3 2.8-10.3 3.7-3 0.9-9.8 2.3-15 3.1-5.2 0.8-13.5 1.5-18.5 1.5-5 0-13-0.7-18-1.5-5-0.8-11.5-2.2-14.5-3.1-3-0.9-7.7-2.6-10.3-3.7-2.7-1.3-4.8-2.8-4.7-3.7 0-0.8 0.6-3.7 1.3-6.4q1.2-4.9 4-7c2.6-2 3.1-2 7.5-0.7 2.6 0.7 5.6 1.6 6.6 2 1.7 0.5 1.5-0.3-1.3-5.9-2.6-5.1-3.2-7.2-2.7-10 0.3-1.9 1.8-6 3.2-9 1.4-3 4.3-7.9 6.4-10.8 2.1-2.9 5.7-6.5 12.2-10.7l-2.9-1.9c-1.5-1.1-4.7-4-7.1-6.5-2.4-2.6-5.9-7.8-7.8-11.6-1.9-3.8-3.7-8.6-4-10.5-0.4-2.5 0.1-5.2 2-9.5 1.4-3.3 2.5-6.1 2.4-6.2-0.2-0.2-2.3 0.4-4.8 1.2-2.5 0.9-5.2 1.5-6 1.6-0.8 0-2.6-0.9-4-1.9-1.7-1.3-3-3.8-4-8q-1.5-6.2-0.5-7.1c0.5-0.6 5.3-2.4 10.5-4.1 5.2-1.8 13.3-3.8 18-4.5 4.7-0.7 12.8-1.3 18-1.4zm-18.3 21.8c-1.6 0.7-3.3 2.5-4.2 4.6-0.8 1.9-1.5 4.6-1.5 6 0 1.4 1.2 5 2.8 8.1 2.2 4.6 3 5.4 4.7 4.9 1.1-0.4 4.3-1 7.1-1.3l5.2-0.7c7.5 8.1 10.6 10.6 11.7 10.6 1.1 0.1 3 0.1 4.1 0.1 1.2-0.1 3.2-1.3 4.5-2.5 1.3-1.3 4.1-5.6 6.2-9.5 2-4 3.7-8.4 3.7-10 0-1.5-0.8-4.3-1.8-6.2-1.3-2.7-2.7-3.7-6.2-4.7-2.5-0.7-8.5-1.5-13.5-1.7-4.9-0.3-11.5-0.1-14.5 0.4-3 0.5-6.7 1.3-8.2 1.9zm8.9 62c-2.2 2-5.2 5.5-6.8 7.8-2.4 3.6-2.7 4.6-1.6 5.8 0.8 1 1.9 1.3 3.2 0.9 1.1-0.4 4-2.1 6.3-3.8 3.8-2.7 5.2-3.1 10.5-3 3.6 0 7.6 0.8 9.5 1.7 1.7 1 4.3 1.7 5.7 1.7 2.3 0 2.4-0.2 1.3-2.3-0.6-1.2-3.2-4.4-5.7-7.1-2.5-2.6-5.8-5.4-7.3-6.2-1.6-0.8-3.8-1.4-5-1.4-1.3 0-3.2 0.6-4.3 1.2-1.1 0.6-3.7 2.7-5.8 4.7zm24.1 34.9c0.1 0.7 1.2 1.2 2.5 1.2 1.2 0 3.1-0.6 4.2-1.3 1.1-0.8 2.5-2.8 3.2-4.5 0.6-1.6 0.9-3.3 0.5-3.6-0.4-0.4-1.2-0.6-1.7-0.6-0.6 0-2.9 1.7-5 3.8-2.2 2.1-3.8 4.3-3.7 5z"/>
</svg>