<svg version="1.2" xmlns="http://www.w3.org/2000/svg" viewBox="0 0 225 225" width="225" height="225">
	<title>breadandbutter_large</title>
	<style>
		.s0 { opacity: .97;fill: #000000 } 
	</style>
	<path id="Path 0" fill-rule="evenodd" class="s0" d="m105.8 2.2l20.9 12c11.4 6.6 21.1 12.3 21.6 12.6 0.4 0.4-3.9 3.4-9.5 6.7q-8.5 4.9-21.3 12.3l10 1.2c5.5 0.7 13.2 2.1 17 3.2 3.8 1.1 9.2 2.9 11.8 4.1 2.7 1.3 4.8 2.8 4.7 3.7 0 0.8-0.6 3.7-1.3 6.4q-1.2 4.9-4 7c-2.6 2-3.1 2-7.5 0.7-2.6-0.7-5.6-1.6-6.6-2-1.6-0.5-1.4 0.3 1.4 5.4 2.6 4.9 3.1 6.7 2.7 10-0.4 2.2-2.2 7.2-4.1 11-1.9 3.8-5.4 9-7.8 11.6-2.4 2.5-5.6 5.4-10 8.4l4.1 2.7c2.3 1.6 5.9 5.2 8 8 2.2 2.9 5.1 7.8 6.5 10.8 1.4 3 2.9 7.1 3.2 9 0.5 2.8-0.1 4.9-2.7 10-2.8 5.6-3 6.4-1.3 5.9 1-0.4 4-1.3 6.6-2 4.4-1.3 4.9-1.3 7.5 0.7q2.8 2.1 4 7c0.7 2.7 1.3 5.6 1.3 6.4 0.1 0.9-2 2.4-4.7 3.7-2.6 1.1-7.3 2.8-10.3 3.7-3 0.9-9.8 2.3-15 3.1-5.2 0.8-13.5 1.5-18.5 1.5-4.9 0-13-0.7-18-1.5-4.9-0.8-11.5-2.2-14.5-3.1-3-0.9-7.7-2.6-10.3-3.7-2.7-1.3-4.8-2.8-4.7-3.7 0-0.8 0.6-3.7 1.3-6.4q1.2-4.9 4-7c2.6-2 3.1-2 7.5-0.7 2.6 0.7 5.6 1.6 6.6 2 1.7 0.5 1.5-0.3-1.3-5.9-2.6-5.1-3.2-7.2-2.7-10 0.3-1.9 1.8-6 3.2-9 1.4-3 4.2-7.9 6.3-10.8 2.1-2.9 5.7-6.5 12.3-10.7l-2.9-1.9c-1.5-1.1-4.7-4-7.1-6.5-2.4-2.6-5.9-7.8-7.8-11.6-1.9-3.8-3.7-8.6-4.1-10.5-0.4-2.6 0.1-5 2.3-9.8 2.2-4.6 2.5-6.1 1.4-5.8-0.8 0.2-3.6 1-6.2 1.7-4.4 1.3-4.9 1.3-7.5-0.7-2.1-1.6-3.2-3.7-4.3-8.3-0.8-3.4-1.7-6.1-2-6.2-0.3 0-3.4 3.1-7 6.8-3.6 3.7-8.4 10-10.7 13.8-2.3 3.8-5.3 10.4-6.7 14.5-1.4 4.1-3 10.9-3.7 15-0.6 4.2-0.9 11-0.5 15.5 0.3 4.4 1.4 11.2 2.5 15 1 3.8 2.8 9.2 4.1 12 1.2 2.7 4.1 7.9 6.5 11.5 2.3 3.6 7.4 9.4 11.1 13 3.8 3.6 10.1 8.4 13.9 10.8 3.8 2.3 10.2 5.2 14 6.5 3.8 1.4 11.2 3.1 25.5 5.2v24l-8.2-0.8c-4.6-0.5-11.2-1.5-14.8-2.3-3.6-0.9-9.4-2.7-13-4-3.6-1.4-9.4-4.1-13-6.1-3.6-1.9-9-5.5-12-7.8-3-2.3-8.3-7.1-11.8-10.6-3.5-3.5-8.9-10.2-12.1-14.9-3.1-4.7-7.1-11.9-8.8-16-1.8-4.1-4.2-11.6-5.5-16.5-1.8-7.4-2.2-11.6-2.2-24 0-11.9 0.5-16.8 2.1-23.5 1.2-4.7 3.7-12.1 5.5-16.5 1.8-4.4 5.9-11.8 9-16.5 3.1-4.7 9.2-12 13.5-16.2 4.3-4.2 11.6-10.2 16.3-13.3 4.7-3.1 11.9-6.9 16-8.5 4.1-1.5 10.4-3.6 14-4.5 3.6-0.9 9-2 17.5-3zm-14.3 40.4c-3.3 0.9-9.2 3.2-13 5.1-3.9 1.9-8.1 4.4-9.5 5.5-2 1.6-2.1 1.9-0.5 1.3 1.1-0.4 5.4-1.9 9.5-3.2 4.1-1.4 11.8-3.1 17-3.9 5.2-0.8 9.8-1.4 10.2-1.4 0.5 0 0.8-1.4 0.8-3 0-2.5-0.4-3-2.3-2.9-1.2 0.1-3.1 0.3-4.2 0.5-1.1 0.3-4.7 1.2-8 2zm2.2 25.3c-1.6 0.7-3.3 2.5-4.2 4.6-0.8 1.9-1.5 4.6-1.5 6 0 1.4 1.2 5 2.7 8.1 2.3 4.6 3.1 5.4 4.8 4.9 1.1-0.4 4.3-1 7.1-1.4l5.2-0.6c9.6 10.5 10.4 11 13.9 10.8 2.6-0.2 4.6-1.1 6.6-3 1.5-1.6 4.3-5.9 6.2-9.6 1.9-3.7 3.5-8 3.5-9.5 0-1.5-0.8-4.3-1.8-6.2-1.3-2.7-2.7-3.7-6.2-4.7-2.5-0.7-8.6-1.5-13.5-1.8-5-0.2-11.5 0-14.5 0.5-3 0.4-6.7 1.3-8.3 1.9zm8.9 62c-2.1 2-5.1 5.5-6.7 7.8-2.4 3.5-2.7 4.5-1.7 5.8 0.8 1 2 1.3 3.3 0.9 1.1-0.4 3.8-2.1 6-3.7 2.4-1.7 5.8-3.1 8.5-3.4 2.9-0.3 6 0.1 9 1.2 2.5 0.9 6.1 2 8 2.3 3.5 0.6 3.5 0.5 2.1-1.9-0.8-1.3-3.5-4.6-6-7.3-2.6-2.7-5.8-5.5-7.4-6.2-1.5-0.8-3.7-1.4-5-1.4-1.2 0-3.1 0.5-4.2 1.1-1.1 0.6-3.7 2.8-5.9 4.8zm24.2 34.9c0.1 0.6 1.2 1.2 2.4 1.2 1.3 0 3.2-0.6 4.3-1.3 1.1-0.8 2.5-2.8 3.2-4.5 0.6-1.7 0.8-3.3 0.5-3.7-0.4-0.3-1.2-0.6-1.8-0.5-0.5 0-2.8 1.7-4.9 3.8-2.2 2.1-3.8 4.3-3.7 5zm88.2-53.8v12.5l-4.7-0.8c-2.7-0.4-8.1-0.7-19.3-0.7v-10l6.2-0.3c3.5-0.2 8.9-0.4 17.8-0.7zm-86.6 83.1c0.5 0 1.3 2.5 1.8 5.6 0.5 3.2 1.6 8.5 2.3 11.8 0.7 3.3 1.3 6.1 1.2 6.2-0.1 0.2-2.8 0.6-5.9 1-5.6 0.8-5.8 0.7-6.2-1.7-0.3-1.4-0.7-6.9-1.6-22l3.7-0.4c2.1-0.1 4.2-0.4 4.7-0.5zm56.6-148.1c0.3 0 2.3 1.7 4.5 3.9 2.2 2.2 3.8 4.2 3.5 4.5-0.3 0.2-4.6 3.6-18.5 14.6l-6.5-6.5 8.2-8.3c4.5-4.5 8.5-8.2 8.8-8.2zm14.5 19.1c0.5-0.1 2.2 2.1 6.5 9.9l-9.8 4.5c-5.3 2.5-10.3 4.6-11 4.8-0.7 0.1-2.3-1.6-3.5-3.7-1.2-2.2-1.8-4.1-1.2-4.3 0.5-0.2 4.8-2.8 9.5-5.8 4.7-3 8.9-5.4 9.5-5.4zm9.2 22c0.7-0.1 1.7 0.9 2.2 2.1 0.5 1.3 1.2 3.9 2.2 9.3l-9.3 1.8c-5.1 1-10.4 2-11.8 2.3-2.3 0.5-2.6 0.1-4.5-8.6l10-3.4c5.5-1.9 10.6-3.5 11.2-3.5zm-15.4 44.4c1.7 0.3 6.6 1.1 10.8 1.8 4.2 0.6 8.1 1.5 8.5 2 0.5 0.4 0.3 3.2-0.4 6.2-0.6 3-1.3 5.5-1.5 5.5-0.1-0.1-5.2-1.6-22.2-6.8l0.3-3.4c0.1-1.8 0.5-3.9 0.7-4.6q0.5-1.3 3.8-0.7zm-7.4 18c0.9 0.3 5.4 2.2 10.1 4.2 4.7 2 8.9 4 9.5 4.4 0.6 0.6 0.3 2.3-1 5-1.1 2.3-2.5 4.5-3 4.9-0.6 0.5-5-1.5-10.5-4.7-5.2-3-9.7-5.7-10-5.9-0.3-0.3 0.4-2.2 1.4-4.5 1.4-2.8 2.4-3.8 3.5-3.4zm-9.5 16.3c0.6 0.5 4.8 3.6 9.3 7 4.6 3.4 8.3 6.5 8.3 6.9 0 0.4-1.8 2.6-8 8.8l-17-17 3.2-3.2c1.9-2 3.5-3 4.2-2.5zm-14.7 13.2c0.7 0 4.4 3.9 8.3 8.7 3.9 4.8 7 9 7 9.3 0 0.3-2.1 2-4.7 3.8-2.7 1.8-5 2.9-5.3 2.5-0.3-0.5-3.1-5.2-12.2-19.8l2.9-2.2c1.5-1.3 3.4-2.3 4-2.3zm-16.2 10.1c0.5-0.1 3.4 4.6 11.5 20.9l-4.5 2c-2.5 1.1-5.1 2-5.8 2-0.7 0-2.7-4.5-4.6-10.3-1.9-5.6-3.6-10.7-3.8-11.2-0.2-0.6 1.1-1.5 2.9-2.2 1.8-0.6 3.7-1.2 4.3-1.2z"/>
</svg>