<svg version="1.2" xmlns="http://www.w3.org/2000/svg" viewBox="0 0 129 129" width="129" height="129">
	<title>40px-Hybrid_penetration</title>
	<style>
		.s0 { opacity: .86;fill: #000000 } 
		.s1 { opacity: .5;fill: none;stroke: #000000;stroke-miterlimit:100 } 
	</style>
	<g id="Background">
		<path id="Path 0" fill-rule="evenodd" class="s0" d="m64.65 5.04c1.02 0.02 7.59 5.75 27.35 25.46l0.02 5c0.01 2.75-0.56 5.72-1.25 6.61-0.7 0.89-2.06 1.9-3.02 2.25-1.29 0.47-3.82-1.42-9.56-7.11-4.3-4.26-8.91-8.8-10.25-10.08-1.9-1.8-2.89-2.11-4.44-1.37-1.1 0.52-10.21 9.11-20.25 19.07-10.04 9.97-18.26 18.92-18.27 19.88-0.01 0.96 0.89 2.76 2 4 1.53 1.7 2.02 3.66 2.04 8 0.01 3.19-0.53 6.31-1.2 7-0.67 0.69-1.8 1.25-2.52 1.25-0.71 0-2.57-1.24-4.12-2.75-1.55-1.51-4.94-4.55-12.22-10.75l0.24-12.78 26.8-26.86c16.17-16.2 27.54-26.85 28.65-26.82zm0.08 29.96c0.7 0 3.63 2.53 6.52 5.61 4.92 5.26 5.25 5.94 5.26 10.75 0 4.82-0.32 5.48-10.34 16.14l-3.09-2.25c-1.69-1.24-3.06-2.59-3.04-3 0.02-0.41-1.22-1.35-2.75-2.09-1.99-0.96-3.36-1.05-4.79-0.33-1.1 0.56-4.03 3.08-6.5 5.61-2.47 2.52-5.06 4.58-5.75 4.57-0.81-0.01-1.33-1.86-1.72-10.48l12.47-12.27c6.86-6.74 13.04-12.26 13.73-12.26zm40.02 10.03c0.69-0.02 4.42 3.01 15.34 13.47l-0.13 13-26.98 26.75c-14.84 14.71-27.66 26.75-28.48 26.75-0.83 0-4.09-2.63-7.25-5.83-3.16-3.21-8.7-8.95-12.3-12.75-5.22-5.51-6.66-7.73-7.1-10.92-0.31-2.2-0.17-5.01 0.3-6.25 0.47-1.24 1.75-2.7 2.85-3.25 1.67-0.84 2.7-0.3 6.26 3.25 2.35 2.34 6.51 6.76 9.25 9.84 2.75 3.07 6 5.88 7.24 6.25 1.91 0.56 3.97-1.11 13.5-10.92 6.19-6.37 14.74-15.15 19-19.5 4.44-4.54 7.75-8.77 7.75-9.92 0-1.1-0.9-2.79-2.01-3.75-1.57-1.36-2.04-3.12-2.17-7.95-0.14-5.19 0.15-6.37 1.76-7.22 1.06-0.56 2.48-1.03 3.17-1.05zm-15.25 13.47l0.59 12-12.3 12.3c-9.79 9.79-12.7 12.16-14.29 11.67-1.1-0.34-3.93-2.73-6.29-5.3-3.79-4.12-4.31-5.25-4.42-9.67-0.09-3.59 0.27-5.08 1.29-5.29 0.78-0.15 2.99 1.32 4.92 3.27 1.92 1.96 4.4 3.54 5.5 3.52 1.17-0.02 6.78-4.7 13.5-11.27z"/>
		<path id="Stroke" fill-rule="evenodd" class="s1" d="m64.65 5.04c1.02 0.02 7.59 5.75 27.35 25.46l0.02 5c0.01 2.75-0.56 5.72-1.25 6.61-0.7 0.89-2.06 1.9-3.02 2.25-1.29 0.47-3.82-1.42-9.56-7.11-4.3-4.26-8.91-8.8-10.25-10.08-1.9-1.8-2.89-2.11-4.44-1.37-1.1 0.52-10.21 9.11-20.25 19.07-10.04 9.97-18.26 18.92-18.27 19.88-0.01 0.96 0.89 2.76 2 4 1.53 1.7 2.02 3.66 2.04 8 0.01 3.19-0.53 6.31-1.2 7-0.67 0.69-1.8 1.25-2.52 1.25-0.71 0-2.57-1.24-4.12-2.75-1.55-1.51-4.94-4.55-12.22-10.75l0.24-12.78 26.8-26.86c16.17-16.2 27.54-26.85 28.65-26.82zm0.08 29.96c0.7 0 3.63 2.53 6.52 5.61 4.92 5.26 5.25 5.94 5.26 10.75 0 4.82-0.32 5.48-10.34 16.14l-3.09-2.25c-1.69-1.24-3.06-2.59-3.04-3 0.02-0.41-1.22-1.35-2.75-2.09-1.99-0.96-3.36-1.05-4.79-0.33-1.1 0.56-4.03 3.08-6.5 5.61-2.47 2.52-5.06 4.58-5.75 4.57-0.81-0.01-1.33-1.86-1.72-10.48l12.47-12.27c6.86-6.74 13.04-12.26 13.73-12.26zm40.02 10.03c0.69-0.02 4.42 3.01 15.34 13.47l-0.13 13-26.98 26.75c-14.84 14.71-27.66 26.75-28.48 26.75-0.83 0-4.09-2.63-7.25-5.83-3.16-3.21-8.7-8.95-12.3-12.75-5.22-5.51-6.66-7.73-7.1-10.92-0.31-2.2-0.17-5.01 0.3-6.25 0.47-1.24 1.75-2.7 2.85-3.25 1.67-0.84 2.7-0.3 6.26 3.25 2.35 2.34 6.51 6.76 9.25 9.84 2.75 3.07 6 5.88 7.24 6.25 1.91 0.56 3.97-1.11 13.5-10.92 6.19-6.37 14.74-15.15 19-19.5 4.44-4.54 7.75-8.77 7.75-9.92 0-1.1-0.9-2.79-2.01-3.75-1.57-1.36-2.04-3.12-2.17-7.95-0.14-5.19 0.15-6.37 1.76-7.22 1.06-0.56 2.48-1.03 3.17-1.05zm-15.25 13.47l0.59 12-12.3 12.3c-9.79 9.79-12.7 12.16-14.29 11.67-1.1-0.34-3.93-2.73-6.29-5.3-3.79-4.12-4.31-5.25-4.42-9.67-0.09-3.59 0.27-5.08 1.29-5.29 0.78-0.15 2.99 1.32 4.92 3.27 1.92 1.96 4.4 3.54 5.5 3.52 1.17-0.02 6.78-4.7 13.5-11.27z"/>
	</g>
</svg>