<svg version="1.2" xmlns="http://www.w3.org/2000/svg" viewBox="0 0 36 36" width="36" height="36">

	<style>
		.s0 { opacity: .93;fill: currentColor }
	</style>
	<path id="Path 0" fill-rule="evenodd" class="s0" d="m18 7c2.5 0 5.5 0.7 6.8 1.5 1.2 0.8 2.9 2.8 3.7 4.5 0.8 1.7 1.5 4.4 1.5 6 0 1.6-0.7 4.4-1.5 6-0.8 1.6-2.9 3.7-4.5 4.5-1.6 0.8-4.4 1.5-6 1.5-1.6 0-4.3-0.7-6-1.5-1.7-0.8-3.7-2.9-4.5-4.5-0.8-1.6-1.5-4.4-1.5-6 0-1.6 0.7-4.3 1.5-6 0.8-1.7 2.5-3.7 3.8-4.5 1.2-0.8 4.2-1.5 6.7-1.5zm-8.7 7.4c-0.1 0.1-0.5 1.4-0.9 3.1-0.5 2.4-0.1 3.7 2.5 6.8 2.6 3.2 3.7 3.7 7.1 3.7 3 0 4.7-0.6 6.5-2.5 1.4-1.4 2.8-3.5 3.1-4.8 0.3-1.2-0.1-3.7-1-5.5-0.9-1.7-3-3.9-4.6-4.7-1.6-0.8-3.6-1.5-4.4-1.5-0.8 0-2.9 1.2-4.8 2.7-1.8 1.5-3.4 2.7-3.5 2.7zm8.7-2.4c1.1 0 3.1 1.1 4.5 2.5 1.4 1.4 2.5 3.1 2.5 3.7 0.1 0.7-0.8 2.5-2 4-1.4 2-2.9 2.8-5 2.8-2.1 0-3.6-0.8-5-2.8-1.2-1.5-2-3.3-2-4 0.1-0.7 1.2-2.4 2.5-3.7 1.3-1.4 3.3-2.5 4.5-2.5zm-2.3 9.3l2.3 2.2 4.5-4.4c-3.1-3.2-4.3-4.2-4.6-4.1-0.3 0-1.5 0.9-2.5 2-1.9 2-1.9 2.1 0.3 4.3z"/>
</svg>