<svg version="1.2" xmlns="http://www.w3.org/2000/svg" viewBox="0 0 72 72" width="72" height="72">

	<style>
		.s0 { opacity: .97;fill: currentColor }
	</style>
	<path id="Path 0" class="s0" d="m10.6 4.5l-0.6 4.5h-9v10h10c0 8.1 0.3 9 1.8 9 0.9 0 2.7 0.2 4 0.5 2 0.5 2.2 0.1 2.7-4.5l0.5-5h9v-10h-9v-9h-8.8zm56.3 22.8c-3.2 3.3-4.1 3.7-8.7 3.7-2.9 0-6.4-0.5-8-1.1-2.6-1-3.1-0.6-11 7.5l-8.2 8.6c2.3 5.4 3 8.2 3 9.8 0 1.5-0.9 4.6-2 6.9-1.1 2.4-2.8 4.7-3.8 5.2-1.6 0.9-1.6 1 0.3 1.8 1.1 0.4 5.1 0.7 9 0.7 5.5-0.1 8.2-0.7 12.5-2.9 3-1.5 8-5.3 11-8.4 3.6-3.7 6.3-7.6 7.7-11.4 1.4-3.3 2.5-8.9 2.8-13.6 0.3-4.3 0.2-8.4-0.2-9.2-0.6-1.1-1.6-0.5-4.4 2.3zm-44.4 6.5l-21.4 21.8-0.1 13c36.8-37.8 47.9-49.5 48.4-50.4 0.5-1 0.4-2.5-0.3-3.9-0.6-1.2-2-2.2-3.1-2.2-1.3 0-9.6 7.7-23.5 21.7z"/>
</svg>