<svg version="1.2" xmlns="http://www.w3.org/2000/svg" viewBox="0 0 50 50" width="50" height="50">

	<style>
		.s0 { opacity: .99;fill: currentcolor }
		.s1 { opacity: .54;fill: currentcolor }
		.s2 { opacity: .78;fill: currentcolor }
		.s3 { opacity: .29;fill: currentcolor }
		.s4 { opacity: .73;fill: currentcolor }
		.s5 { opacity: .84;fill: currentcolor }
		.s6 { opacity: .63;fill: currentcolor }
		.s7 { opacity: .38;fill: currentcolor }
		.s8 { opacity: .13;fill: currentcolor }
		.s9 { opacity: .23;fill: currentcolor }
	</style>
	<g id="Background">
		<path id="Path 0" fill-rule="evenodd" class="s0" d="m22 2h1v1h-1zm-2 1h2v1l-1 1v4l1 1h4v1l2 2v1l2 2v1l1 1v1l2 2v6l-1 1v1l-4 4v1l-2 2h-2l-2-2v-1l-4-4v-1l-1-1v-6l2-2v-1l1-1v-1l1-1h-2l-1 1-2-2v-7zm2 20v4l1 1v1l1 1h2l1-1v-1l1-1v-4l-2-2v-1h-2v1zm-19 10l6-1 1 1h4l1 1h1l1 1h1l6 6h2l6-6h1l1-1h1l1-1h4l1-1 6 1v1l1 1v3h-8l-1 1h-3l-1 1h-1l-2 2h-1l-2 2v1l3 1v2h-14v-2l3-1v-1l-2-2h-1l-2-2h-1l-1-1h-3l-1-1h-8v-3l1-1z"/>
		<path id="Path 1" class="s1" d="m16 6h1v1h-1zm9 3h1v1h-1zm-8 11h1v1h-1zm15 0h1v1h-1zm-16 5h1v1h-1zm17 0h1v1h-1zm-22 7h1v1h-1zm27 0h1v1h-1zm-37 5h1v1h-1zm47 0h1v1h-1zm-46 2v-1h7v1zm39 0v-1h7v1zm-19 0h1v1h-1zm5 0h1v1h-1zm-10 6h1v1h-1zm15 0h1v1h-1zm-15 3h1v1h-1zm15 0h1v1h-1z"/>
		<path id="Path 2" class="s2" d="m18 49v-1h14v1z"/>
		<path id="Path 3" class="s3" d="m23 2h1v1h-1zm-1 1h1v1h-1zm-7 5h1v1h-1zm8 1h1v1h-1zm-8 2h1v1h-1zm4 4h1v1h-1zm10 0h1v1h-1zm-17 17h1v1h-1zm25 0h1v1h-1zm-35 1h1v1h-1zm45 0h1v1h-1zm-46 5h1v1h-1z"/>
		<path id="Path 4" class="s4" d="m21 2h1v1h-1zm0 7h1v1h-1zm7 5h1v1h-1zm-18 18h1v1h-1zm29 0h1v1h-1zm-23 2h1v1h-1zm17 0h1v1h-1zm-13 3h1v1h-1zm9 0h1v1h-1zm-12 11v-2h1v2zm15 0v-2h1v2z"/>
		<path id="Path 5" fill-rule="evenodd" class="s5" d="m18 5h1v-1h-1zm-1 1h1v-1h-1zm7 4h1v-1h-1zm2 2h1v-1h-1zm-8 8h1v-1h-1zm13 0h1v-1h-1zm-22 13h1v-1h-1zm31 0h1v-1h-1zm-19 12h-3v1zm11 0h-3l3 1z"/>
		<path id="Path 6" class="s6" d="m19 3h1v1h-1zm0 14h1v1h-1zm11 0h1v1h-1zm-14 8v-2h1v2zm17 0v-2h1v2zm-19 8h1v1h-1zm21 0h1v1h-1zm-33 1h1v1h-1zm45 0h1v1h-1zm-28 2h1v1h-1zm11 0h1v1h-1zm-21 2h1v1h-1zm12 0h1v1h-1zm7 0h1v1h-1zm12 0h1v1h-1z"/>
		<path id="Path 7" class="s7" d="m23 1h1v1h-1zm-8 10v-2h1v2zm12 1h1v1h-1zm-7 3h1v1h-1zm-4 7h1v1h-1zm17 0h1v1h-1zm-15 13h1v1h-1zm13 0h1v1h-1zm17 3h1v1h-1zm-35 1h1v1h-1zm23 0h1v1h-1zm-13 1h1v1h-1zm3 0h1v1h-1z"/>
		<path id="Path 8" class="s8" d="m22 1h1v1h-1zm2 0h1v1h-1zm-3 4h1v1h-1zm-6 7h1v1h-1zm13 1h1v1h-1zm-11 15h1v1h-1zm15 0h1v1h-1zm-11 5h1v1h-1zm7 0h1v1h-1zm-11 1h1v1h-1zm15 0h1v1h-1zm-20 5h1v1h-1zm25 0h1v1h-1z"/>
		<path id="Path 9" class="s9" d="m20 2h1v1h-1zm2 7h1v1h-1zm4 1h1v1h-1zm-8 8h1v1h-1zm13 0h1v1h-1zm-15 8h1v1h-1zm17 0h1v1h-1zm-18 7h1v1h-1zm19 0h1v1h-1zm-33 3h1v1h-1zm47 0h1v1h-1zm-33 4h1v1h-1zm19 0h1v1h-1z"/>
		<path id="Path 10" class="s1" d="m21 26h1v1h-1zm7 0h1v1h-1zm-9 4h1v1h-1zm11 0h1v1h-1zm-7 5h1v1h-1zm3 0h1v1h-1z"/>
		<path id="Path 11" class="s2" d="m18 15h1v1h-1zm-1 12h1v1h-1zm-3 12h1v1h-1zm21 0h1v1h-1zm-19 1h1v1h-1zm17 0h1v1h-1zm-14 2h1v1h-1zm11 0h1v1h-1zm-9 2h1v1h-1zm7 0h1v1h-1z"/>
		<path id="Path 12" class="s3" d="m21 25h1v1h-1zm7 0h1v1h-1zm-10 4h1v1h-1zm13 0h1v1h-1zm-9 5h1v1h-1zm5 0h1v1h-1zm-10 7h1v1h-1zm15 0h1v1h-1z"/>
		<path id="Path 13" class="s4" d="m32 27h1v1h-1zm-12 4h1v1h-1zm-10 7h1v1h-1zm29 0h1v1h-1zm-19 5h1v1h-1zm9 0h1v1h-1z"/>
		<path id="Path 14" class="s5" d="m20 14h1v1h-1zm3 6h1v1h-1zm3 0h1v1h-1zm-5 12h1v1h-1zm7 0h1v1h-1z"/>
		<path id="Path 15" class="s6" d="m21 4h1v1h-1zm1 18h1v1h-1zm5 0h1v1h-1zm2 9h1v1h-1z"/>
		<path id="Path 16" class="s7" d="m16 14h1v1h-1zm5 10h1v1h-1zm7 0h1v1h-1z"/>
		<path id="Path 17" class="s9" d="m23 21h1v1h-1zm3 0h1v1h-1z"/>
		<path id="Path 18" class="s4" d="m23 29h1v1h-1zm3 0h1v1h-1z"/>
		<path id="Path 19" class="s9" d="m22 27h1v1h-1zm5 0h1v1h-1z"/>
	</g>
</svg>