<svg version="1.2" xmlns="http://www.w3.org/2000/svg" viewBox="0 0 72 72" width="72" height="72">

	<style>
		.s0 { opacity: 1;fill: currentColor }
	</style>
	<path id="Path 0" class="s0" d="m32.3 6.3c-2.1 2.3-7.1 8.7-11 14.2-3.9 5.5-8 11.8-9.2 14-1.5 2.8-2.1 5.8-2.1 10 0 4.6 0.6 7.3 2.7 11.4 1.6 3 4.4 6.7 6.3 8.2 1.9 1.5 5.2 3.5 7.3 4.3 2 0.9 6.5 1.6 10 1.6 3.8 0 7.7-0.7 10.2-1.8 2.2-1 5.7-3.4 7.8-5.3 2.1-1.9 4.7-5.2 5.8-7.4 1.3-2.7 1.9-6.2 1.9-11 0-5.9-0.5-7.8-2.9-12-1.6-2.7-5.5-8.7-8.7-13.1-3.3-4.5-7.8-10.2-10-12.8l-4.2-4.6z"/>
</svg>