<svg version="1.2" xmlns="http://www.w3.org/2000/svg" viewBox="0 0 16 16" width="16" height="16">
	<title>4f2fbdba97943a2f</title>
	<defs>
		<linearGradient id="g1" x2="1" gradientUnits="userSpaceOnUse" gradientTransform="matrix(2.926,-13.461,13.462,2.927,8.151,16)">
			<stop offset=".392" stop-color="#885e3d"/>
			<stop offset=".555" stop-color="#b6885b"/>
			<stop offset="1" stop-color="#ffe1ab"/>
		</linearGradient>
		<linearGradient id="g2" x2="1" gradientUnits="userSpaceOnUse" gradientTransform="matrix(2.845,-13.497,13.497,2.845,8.374,16)">
			<stop offset=".392" stop-color="#885e3d"/>
			<stop offset=".555" stop-color="#b6885b"/>
			<stop offset="1" stop-color="#ffe1ab"/>
		</linearGradient>
		<linearGradient id="g3" x2="1" gradientUnits="userSpaceOnUse" gradientTransform="matrix(0,7.158,-6.893,0,8,4.921)">
			<stop offset=".112" stop-color="#ffe1ab"/>
			<stop offset=".524" stop-color="#b7895d"/>
		</linearGradient>
	</defs>
	<style>
		.s0 { opacity: .5;fill: none;stroke: #010a13;stroke-width: .8 } 
		.s1 { fill: none;stroke: url(#g1) } 
		.s2 { fill: url(#g2) } 
		.s3 { fill: url(#g3) } 
	</style>
	<path class="s0" d="m11.7 1.7c-2.3-1.3-5.1-1.3-7.4 0-2.2 1.3-3.6 3.7-3.6 6.3 0 2.6 1.4 5 3.6 6.3 2.3 1.3 5.1 1.3 7.4 0 2.2-1.3 3.6-3.7 3.6-6.3 0-2.6-1.4-5-3.6-6.3z"/>
	<g>
	</g>
	<path class="s1" d="m4.8 2.4c2-1.1 4.4-1.1 6.4 0 2 1.2 3.2 3.3 3.2 5.6 0 2.3-1.2 4.4-3.2 5.6-2 1.1-4.4 1.1-6.4 0-2-1.2-3.2-3.3-3.2-5.6 0-2.3 1.2-4.4 3.2-5.6z"/>
	<path fill-rule="evenodd" class="s2" d="m14.9 8c0 2.5-1.3 4.8-3.4 6-2.2 1.2-4.8 1.2-7 0-2.1-1.2-3.4-3.5-3.4-6 0-2.5 1.3-4.8 3.4-6 2.2-1.2 4.8-1.2 7 0 2.1 1.2 3.4 3.5 3.4 6zm-9.9-5.1c-1.8 1-2.9 3-2.9 5.1 0 2.1 1.1 4.1 2.9 5.1 1.9 1.1 4.1 1.1 6 0 1.8-1 2.9-3 2.9-5.1 0-2.1-1.1-4.1-2.9-5.1-1.9-1.1-4.1-1.1-6 0z"/>
	<path fill-rule="evenodd" class="s3" d="m8 11l-0.4-0.3v-4.5c-0.1-0.1-0.6-0.7-0.7-0.9-0.7-0.1-2-0.3-2.3-0.4 0.5 0.9 1 1.9 1 2.4 0.1 0.5 0.1 1.5 0.1 2.3q0 0.4 0 0.7c0.1 0.3 0.2 0.5 0.4 0.6l1.9 1.2 1.9-1.2c0.2-0.1 0.3-0.3 0.4-0.6q0-0.3 0-0.7c0-0.8 0-1.8 0.1-2.3 0-0.5 0.5-1.5 1-2.4-0.3 0.1-1.6 0.3-2.3 0.4-0.1 0.2-0.6 0.8-0.7 0.9v4.5z"/>
</svg>