<svg version="1.2" xmlns="http://www.w3.org/2000/svg" viewBox="0 0 99 99" width="99" height="99">
	<title>mastery-0</title>
	<style>
		.s0 { opacity: .99;fill: currentColor }
	</style>
	<path id="Path 0" class="s0" d="m1 21.3l0.1 8.2c16.1 12.4 20.7 16.1 20.6 16.3-0.1 0.1-3.4-0.9-7.2-2.3-3.9-1.4-7.1-2.5-7.3-2.5-0.1 0-0.2 2.6-0.2 5.7v5.8c15.9 15.9 16.3 16.5 13.7 16.5-2.3 0-2.7 0.4-2.7 2.7 0 2.4 0.7 3.2 4.7 5.1 2.7 1.2 4.9 2.1 5 2 0.1-0.2 0.2-11.3 0.3-24.8l0.1-24.5c-20.2-12.8-26.3-16.5-26.6-16.5-0.3 0-0.5 3.7-0.5 8.3zm83.7 0l-12.8 8.2c0.2 38 0.3 49.1 0.4 49.3 0.1 0.1 2.3-0.8 5-2 4-1.9 4.7-2.7 4.7-5 0-2.4-0.4-2.8-2.7-2.8-2.6 0-2.2-0.6 5.4-8.2l8.3-8.3c0-8.9-0.1-11.5-0.3-11.5-0.1 0-3.4 1.1-7.2 2.5-3.8 1.4-7.1 2.4-7.2 2.3-0.1-0.2 4.5-3.9 10.2-8.3l10.4-8c0.1-12.8-0.2-16.5-0.6-16.4-0.5 0-6.6 3.7-13.6 8.2zm-45.7 30.5v27.7l11 11 11-11v-55.5h-22z"/>
</svg>