<?xml version="1.0" encoding="UTF-8"?>
<svg id="Layer_1" xmlns="http://www.w3.org/2000/svg" version="1.1" viewBox="0 0 16 16">
  <!-- Generator: Adobe Illustrator 29.1.0, SVG Export Plug-In . SVG Version: 2.1.0 Build 142)  -->
  <defs>
    <style>
      .st0 {
        fill: none;
        isolation: isolate;
        stroke: currentColor;
        stroke-miterlimit: 10;
        stroke-width: 1.5px;
      }

      .st1 {
        fill-rule: evenodd;
      }
    </style>
  </defs>
  <path class="st0" d="M11.5,1.9c-2.2-1.3-4.9-1.3-7.1,0C2.3,3.2,1,5.5,1,8s1.3,4.8,3.5,6.1c2.2,1.3,4.9,1.3,7.1,0,2.1-1.3,3.5-3.6,3.5-6.1s-1.3-4.8-3.5-6.1Z"/>
  <path class="st1" d="M8,11l-.4-.3v-4.5c0,0-.6-.7-.7-.9-.7,0-2-.3-2.3-.4.5.9,1,1.9,1,2.4,0,.5,0,1.5,0,2.3v.7c0,.3.2.5.4.6l1.9,1.2,1.9-1.2c.2-.1.3-.3.4-.6v-.7c0-.8,0-1.8.1-2.3,0-.5.5-1.5,1-2.4-.3,0-1.6.3-2.3.4-.1.2-.6.8-.7.9v4.5l-.4.3Z"/>
</svg>