<svg version="1.2" xmlns="http://www.w3.org/2000/svg" viewBox="0 0 160 160" width="160" height="160">
	<title>40px-Melee_role</title>
	<style>
		.s0 { opacity: .92;fill: currentColor }
	</style>
	<g id="Background">
		<path id="Path 1" class="s0" d="m18.5 18.57c-1.34 1.28-1.64 3.65-1.6 12.75l0.04 11.18c11.02 10.08 14.97 13.7 15.89 14.55 0.92 0.85 5.5 4.67 10.17 8.49 4.67 3.82 8.95 7.44 9.5 8.05 0.55 0.62 6.63 5.58 13.5 11.04 6.88 5.46 13.63 10.64 15 11.52 1.37 0.88 4.48 3.34 6.9 5.47l4.4 3.88c-2.89 4.65-4.87 7.08-6.27 8.39-1.39 1.32-3.54 2.78-4.78 3.25-1.24 0.47-2.7 0.86-3.25 0.86-0.55 0-6.01-4.84-12.14-10.75-6.12-5.91-14.67-14.24-19-18.5-4.32-4.26-8.2-7.77-8.61-7.79-0.41-0.02-2.89 2.23-5.5 5-2.61 2.77-4.75 5.71-4.75 6.54 0 0.83 2 3.86 4.45 6.75 2.45 2.89 4.74 6.6 5.1 8.25 0.56 2.6 0.13 3.46-3.24 6.5-2.14 1.92-6.47 5.75-9.62 8.5-3.16 2.75-5.95 5.56-6.21 6.25-0.27 0.69 0.53 2.89 1.77 4.89 1.24 2 4.05 4.88 6.25 6.4l4 2.75c7.75-6.58 12.47-11.01 15.5-14.1 3.02-3.08 6.29-5.63 7.25-5.65 0.96-0.02 4.34 2.21 7.5 4.97 4.16 3.63 6.3 4.85 7.75 4.43 1.1-0.31 3.69-2.34 5.75-4.51 3.73-3.91 3.77-3.92 6.5-2.24 1.51 0.93 4.66 3.18 7 5 2.34 1.82 4.81 3.32 5.5 3.32 0.69 0.01 1.98-1.23 2.87-2.75 0.9-1.52 3.03-4 4.75-5.51 1.72-1.51 4.03-2.75 5.13-2.75 1.13 0 4.73 2.75 8.25 6.29 3.44 3.45 8.39 7.95 11 10l4.75 3.71c6.3-5.04 9-7.96 10.07-9.75l1.93-3.25c-8.01-8.14-12.26-12.53-14.6-15-2.35-2.47-4.54-5.63-4.88-7-0.48-1.98 0.24-3.43 3.46-7 2.23-2.47 4.28-5.29 4.54-6.25 0.26-0.96-0.53-3.22-1.77-5.01-1.24-1.79-3.26-4.27-4.5-5.5-1.89-1.88-2.61-2.06-4.5-1.12-1.24 0.62-4.61 2.87-7.5 5-2.89 2.14-5.92 3.88-6.75 3.88-0.83 0-3.41-2.39-5.75-5.32-2.34-2.92-5.15-6.57-6.25-8.1-1.1-1.53-3.13-4.22-4.5-5.98-1.38-1.75-3.07-3.85-3.78-4.65-0.7-0.8-3.05-3.48-5.23-5.95-2.18-2.48-3.97-4.84-3.98-5.25 0-0.41-1.02-1.76-2.26-3-1.24-1.24-4.31-4.72-6.83-7.75-2.51-3.02-7.82-9.1-11.78-13.5-3.97-4.4-8.88-9.7-10.93-11.77l-3.71-3.77c-18.05 0.04-20.73 0.4-22 1.61zm86.27 11.27c-7.59 7.54-12.76 13.47-12.79 14.66-0.02 1.1 1.2 3.58 2.74 5.51 1.53 1.94 5.7 6.47 9.28 10.08 3.58 3.61 7.51 7.09 8.75 7.73 1.24 0.65 3.04 0.91 4 0.58 0.96-0.34 7.25-6.3 13.96-13.25l12.22-12.65c0.06-19.95-0.27-22.84-1.43-24-1.17-1.17-4-1.48-12.75-1.41l-11.25 0.08z"/>
	</g>
</svg>