<svg version="1.2" xmlns="http://www.w3.org/2000/svg" viewBox="0 0 203 203" width="203" height="203">

	<style>
		.s0 { opacity: .98;fill: #000000 }
	</style>
	<path id="Path 0" class="s0" d="m82 27c-1.9 0.5-5.8 1.8-8.5 3-2.8 1.2-6.5 3.4-8.4 4.9-1.8 1.4-4.4 4.4-5.7 6.6-1.7 2.8-2.4 5.6-2.4 9.3 0 2.8 0.6 6.4 1.4 7.9 0.7 1.6 3 4.3 5 6 2 1.8 5.5 3.8 7.9 4.4 2.3 0.6 5.8 0.8 7.7 0.5 1.9-0.3 5.1-1.6 7-2.8 1.9-1.3 4.5-3.9 5.8-5.8 2.1-3.1 2.3-4.2 1.7-9.5-0.3-3.3-0.7-7.6-0.8-9.5-0.2-3 0.1-3.5 2.1-3.8 2-0.2 2.2-0.7 2.2-6.2v-6c-8.9 0.2-13.1 0.6-15 1zm24 4.5c0 4.3 0.5 6.2 2.5 8.7 1.3 1.8 2.9 5.8 3.6 8.8 0.9 4.3 0.8 6.8-0.2 11.5-0.8 3.7-2.4 7.5-4.3 9.9-1.7 2.2-5.6 5.3-8.6 6.8-3.8 2-6.9 2.9-10.3 2.8-2.6 0-5.4 0.2-6.2 0.5-1.3 0.4-1.5 3.9-1.5 22.8-0.1 20 0.1 22.4 1.7 23.9 1 1 2.8 1.8 4.1 1.8 1.2 0 2.9-1 3.7-2.3 0.8-1.2 1.5-3.5 1.5-5.2-0.1-1.7 0.5-3.5 1.2-4.2 0.7-0.7 5.1-1.9 9.8-2.7 5.1-0.9 11.4-3 15.8-5.1 3.9-1.9 9.7-5.9 12.8-8.8 3.8-3.5 6.7-7.6 9.2-12.7 3.3-6.5 3.7-8.5 4.1-16.5 0.3-6.7-0.1-10.4-1.4-14.5-0.9-3-3-7.5-4.5-10-1.6-2.5-5-6.6-7.7-9.1-2.6-2.5-6.6-5.5-8.8-6.6-2.2-1.1-5.6-2.5-7.5-3.1-1.9-0.5-4.7-1.3-6.2-1.6-2.7-0.6-2.8-0.6-2.8 4.9zm-26 105.8c-1.9 0.7-4.7 2.8-6.2 4.7-1.5 1.9-3.4 5.2-4.2 7.3-0.9 2-1.6 5.4-1.6 7.5 0 2 0.9 5.5 1.9 7.7 1 2.2 3.4 5.4 5.2 7.2 1.9 1.7 4.6 3.7 6.2 4.2 1.5 0.6 5 1.1 7.7 1.1 2.8 0 6.2-0.5 7.8-1.1 1.5-0.5 4.2-2.5 6-4.2 1.9-1.8 4.1-4.5 5-6.2 0.9-1.8 1.5-5.4 1.5-9 0-3.5-0.6-7.3-1.5-9-0.9-1.7-3.2-4.5-5.2-6.2-2-1.8-4.7-3.7-6.1-4.3-1.4-0.6-4.9-1-7.8-1-2.8 0.1-6.8 0.6-8.7 1.3z"/>
</svg>