<svg version="1.2" xmlns="http://www.w3.org/2000/svg" viewBox="0 0 72 72" width="72" height="72">

	<style>
		.s0 { opacity: .99;fill: currentColor }
	</style>
	<path id="Path 0" fill-rule="evenodd" class="s0" d="m35.5 0.1c2.2 0 6 0.5 8.5 1.3 2.5 0.7 6.3 2.2 8.5 3.3 2.2 1.1 6 4 8.5 6.5 2.5 2.4 5.6 6.6 7 9.3 2.2 4.4 2.5 6.3 2.5 15.1 0 9.3-0.2 10.6-3 15.9-1.7 3.1-5.3 7.8-8 10.4-3.3 2.9-7.4 5.5-11.5 7-5.6 2.1-7.7 2.3-14.5 1.9-5.5-0.4-9.4-1.3-12.5-2.8-2.5-1.3-6.7-4.4-9.4-6.9-2.6-2.5-5.9-6.9-7.2-9.6-1.4-2.8-2.9-7.7-3.5-11-1-4.9-0.9-7.1 0.5-12.5 0.9-3.6 3.2-8.8 5.1-11.5 1.9-2.8 4.9-6.2 6.7-7.6 1.8-1.4 4.9-3.4 6.8-4.4 1.9-1 5.3-2.4 7.5-3 2.2-0.7 5.8-1.3 8-1.4zm-18.6 16.8c-1.9 2-4.5 6.3-5.8 9.6-1.8 4.6-2.2 7.2-1.7 11 0.3 2.7 1.8 7.5 3.3 10.5 1.9 3.7 4.4 6.7 7.8 9.2 3.2 2.3 7 4.1 10.5 4.8 4.4 0.9 6.6 0.9 11-0.2 3-0.8 7.1-2.6 9-4 1.9-1.4 4.7-4.3 6.2-6.4 1.5-2.2 3.5-6.8 4.4-10.4 1.3-5.5 1.4-7.2 0.3-11-0.6-2.5-2.4-6.4-3.8-8.8-1.4-2.3-4.4-5.4-6.6-6.9-2.2-1.4-5.8-3.2-8-4-2.2-0.7-5.8-1.3-8-1.3-2.2 0.1-6.5 1.1-9.5 2.2-3 1.2-7.1 3.8-9.1 5.7zm18.9 1.1c2.3 0 5.7 0.6 7.5 1.4 1.7 0.7 4.4 2.6 5.9 4.2 1.5 1.6 3.2 4.1 3.7 5.7 0.6 1.5 1.1 4.3 1.1 6.2 0 1.9-0.5 4.7-1.2 6.3-0.6 1.5-2.6 4.2-4.2 6-1.7 1.9-4.7 4-6.6 4.8-1.9 0.8-4.7 1.4-6.2 1.4-1.6 0-4.7-0.8-7-1.9-2.4-1-5.1-2.7-6-3.7-0.9-1.1-2.4-3.6-3.2-5.6-0.9-2.1-1.6-5.4-1.6-7.3 0-1.9 0.5-4.7 1.1-6.3 0.5-1.5 2-4 3.2-5.7 1.3-1.6 3.8-3.5 5.7-4.2 1.9-0.7 5.4-1.2 7.8-1.3z"/>
</svg>