<svg version="1.2" xmlns="http://www.w3.org/2000/svg" viewBox="0 0 30 30" width="30" height="30">

	<style>
		.s0 { opacity: .9;fill: currentColor3 }
	</style>
	<path id="Path 0" class="s0" d="m8 12.5v12.5l15 3.5c6.1-6.1 7-7.8 7-10.3 0-2.7-0.3-3.1-2-2.7-1.1 0.3-2.9 0.3-4 0-1.8-0.4-2-1.3-2-8v-7.5h-14zm-5.3-7c-1.9 1.8-2.7 3.5-2.7 5.8v3.2c5.5-5.5 7-8 7-9.3 0-1.2-0.3-2.2-0.8-2.2-0.4 0-1.9 1.2-3.5 2.5zm-0.5 8.5c-1.2 1.7-2.2 4.2-2.2 5.8v2.7c4.8-4.7 6.2-7.2 6.3-8.7 0.2-1.6-0.2-2.8-0.9-2.8-0.6 0-2 1.4-3.2 3zm0.9 7.5c-0.8 1.1-0.8 1.9 0.2 3 0.6 0.9 1.5 1.6 2 1.5 0.4 0 0.7-1.4 0.7-3 0-1.6-0.4-3-0.9-3-0.5 0-1.4 0.7-2 1.5z"/>
</svg>