<svg version="1.2" xmlns="http://www.w3.org/2000/svg" viewBox="0 0 71 71" width="71" height="71">

	<style>
		.s0 { opacity: .4;fill: currentColor }
		.s1 { opacity: .67;fill: currentColor }
		.s2 { opacity: .98;fill: currentColor }
	</style>
	<g id="Background">
		<path id="Path 0" class="s0" d="m51 5h1v1h-1zm-19 3l3-2v1l-2 1zm6-2h1v1h-1zm11 0h1v1h-1zm14 0h1v1h-1zm-24 1h1v1h-1zm9 0h1v1h-1zm17 0h1v1h-1zm-39 4l4-2v1l-1 1h-1zm14-3h1v1h-1zm4 1l3-1v1h-1zm-3 1v-1h2v1zm25-1h1v1h-1zm-42 1h1v1h-1zm-2 2l2-1v1h-1zm45-1h1v1h-1zm-50 3l3-1v1h-2zm3-1l2-1v1zm47 5l1-4 1 11h-1v-1l-1-1v-2-2zm-61 0l4-2v1h-1l-1 1zm-1 0h1v1h-1zm0 2h1v1h-1zm-3 6h1v1h-1zm2 9l-3-1 1-6 1 5 1 1zm64-2h1v1h-1zm-62 4l-1-2h2v2zm58-1v-1h2l-2 8v-1-4zm-57 8l-1-2h1v1zm56 3v-4h1v4zm1 4v-3 6zm0 5v-1l1 4h-1v-2zm-59 1h1v1h-1zm11 0h1v1h-1zm-11 2h1v1h-1zm-1 1h1v1h-1zm5 0h1v1h-1zm11 4v-3h1zm46-3h1v1h-1zm-62 1h1v1h-1zm61 2v-1h1l-1 2zm-60 0h1v1h-1zm1 1h1v1h-1zm58 0h1v1h-1zm-55 2l-2-1h1 1zm53 0v-1h1 1zm-49 1l-3-1h1 2zm45 0v-1h3 1zm-24 0h1v1h-1zm18 0h1v1h-1z"/>
		<path id="Path 1" class="s1" d="m52 5l2-1-2 2zm-17 2v-1h3v1zm15-1h1v1h-1zm12 0h1v1h-1zm-24 1h1v1h-1zm11 0h1v1h-1zm16 1l-2-1h1 1zm-34 0h1v1h-1zm8 0h1v1h-1zm8 1v-1h1 1zm19 1l-1-2h1v1zm-36-1h1v1h-1zm10 0h1v1h-1zm3 1v-1h1 2zm24 2l-1-2h1v1zm-43 0v-1h1 1 2zm-2 0h1v1h-1zm45 6v-6h1v2zm-47-4v-1h2zm-5 1l2-1h1zm-3 0h1v1h-1zm-2 1h1v1h-1zm-4 3v-1h2zm-3 5h1v1h-1zm65 1h1v1h-1zm-66 3v-1h1v6zm2 7v-1l3 1h-2zm60 0l3-1-1 1zm-58 7v-5h1v5zm58 9l-1-4h1v1zm-58 7v-1h1l-1 3v-1zm58 1h1v1h-1zm-59 2v-1h1v4h-1v-1-1zm60 2v-2h1v1 1zm-56 1h1v1h-1zm2 2v-1h8zm-2 1v-1h2v1h-1zm4 1v-1l22 1h-1zm39 0l6-1v1h-5z"/>
		<path id="Path 2" fill-rule="evenodd" class="s2" d="m52 6l2-2h3l3 1 2 1 1 1 2 1 2 4v11l1 1v1l1 1v6l-2 2-3 1v7l-1 1v4l1 4v8l1 1v4l-2 2h-1l-1 1h-3l-6 1h-17l-22-1h-2v-1l8-1 1-1 1-3-4-4h-5l-3 3v4l1 1h1v1h-3l-2-2v-4l1-3v-22l-3-1-1-1v-8l1-1 1-3 1-1v-1l2-1 1-1h1l1-1h1l1-1h2l3-1h2l2-1 1-1h1l4-1h1l3-3h1l2-1h3l3 3h2l3-1h1l2-1 2-2zm2 3h-1l-1 1 5 4v3l-1 1-1 2v1l2 2h2l2-1 4-4v-5l-6-6h-3zm-25 6l-4 1-4 2-1 1v1l-1 1v2l-1 2-3 3h-1v1l-1 1v3l-1 2-1 1v1l-1 1-1 2 2-1v5l-1 1v7l2 2h2l3 1h2l2 2h1l1 1v1l1 1v1l2 2 2 1h2l3 1h6l4-1 2-1 1-1v-1l6-6h1l6-1h1l1-1v-6l-1-3v-7l-1-1-2-1h-3l-1-1-1-4-1-1v-4l-1-3-1-2-2-2v-1l-2-4-2 1 1 2-2-1h-1l-4-4h-4zm-19 5l6-1 1-1-3-1-1 1zm-2 5v1h2l1-1 4-1-1-2h-1l-3 1zm56 1l1 5 2-1v-1l-1-5-2 1zm-59 1l1 3h2l1-1v-2l-1-1-2 1zm49 1v2l2 2h3l1-1v-4l-1-1h-3zm-1 30l-3 3v2l2 2h8l1-1h1v-4l-2-2h-1l-1-1h-2l-2 1z"/>
		<path id="Path 3" fill-rule="evenodd" class="s0" d="m54 8h1v1h-1zm-2 1h1v1h-1zm-19 2v-1h2 1 1v1zm18 2v-3h1l5 4h-1zm-19-2h1v1h-1zm5 0h1v1h-1zm26 0h1v1h-1zm-32 1h1v1h-1zm7 0h1v1h-1zm26 0h1v1h-1zm-34 1h1v1h-1zm-1 1h1v1h-1zm11 0h1v1h-1zm2 1l1-1 1 2zm-17 1v-1h3 1zm-2 1v-1h2zm-2 1l1-1h1zm35-1h1v1h-1zm-36 1h1v1h-1zm27 0h1v1h-1zm8 1l1-1-1 2zm-7 0h1v1h-1zm-29 1h1v1h-1zm40 3l2-1-1 1zm-41 2v-2h1zm-10-1h1v1h-1zm-2 2l1-1h1v1l-2 1zm2 0h1v1h-1zm8 0h1v1h-1zm39 0h1v1h-1zm4 0h1v1h-1zm-44 1h1v1h-1zm39 0h1v1h-1zm6 4v-4h1zm-47-2h1v1h-1zm-7 1h1v1h-1zm6 5v-2h1zm41-1h1v1h-1zm6 2h1v1h-1zm-49 1h1v1h-1zm50 4v-3h1v3zm-50 3h1v1h-1zm51 3l-1-3h1zm0 5v-2h1v2zm-47 3v-1l3 1zm39 0l6-1v1zm-42 2h1v1h-1zm43 1v-1h2zm4-1h1v1h-1zm-48 1h1v1h-1zm42 0h1v1h-1zm8 0h1v1h-1zm-41 1h1v1h-1zm32 0h1v1h-1zm10 0h1v1h-1zm-11 1h1v1h-1zm12 3v-2h1v2zm-53 0h1v1h-1zm17 1v-1l2 1h-1zm17 0l2-1-1 1zm-33 0h1v1h-1zm9 0h1v1h-1zm11 1v-1l3 1h-1zm9 0l4-1v1zm14 1v-1h6v1z"/>
		<path id="Path 4" fill-rule="evenodd" class="s1" d="m56 4h1v1h-1zm3 3h1v1h-1zm-7 2l2-1v1h-1zm-17 0h1v1h-1zm16 0h1v1h-1zm-22 1h1v1h-1zm3 0h1v1h-1zm5 0h1v1h-1zm25 0h1v1h-1zm-31 1h1v1h-1zm7 0h1v1h-1zm-8 1h1v1h-1zm9 1h1v1h-1zm-11 1h1v1h-1zm13 1v-1h2l-1 1zm15 2v-3h1v3zm-33-1l2-1v1zm-1 0h1v1h-1zm-14 1h1v1h-1zm5 0h1v1h-1zm34 0h1v1h-1zm1 1h1v1h-1zm-29 1h1v1h-1zm-1 4l1-2v2zm37-1h1v1h-1zm-46 1h1v1h-1zm58 0h1v1h-1zm-60 1h1v1h-1zm10 1h1v1h-1zm39 1h4-1zm-51 0h1v1h-1zm4 0h1v1h-1zm6 0h1v1h-1zm39 0h1v1h-1zm6 0h1v1h-1zm-46 1h1v1h-1zm-1 1h1v1h-1zm54 1h1v1h-1zm-60 1h1v1h-1zm5 3l1-3v3zm42-2h1v1h-1zm14 1h1v1h-1zm-65 1h1v1h-1zm64 0h1v1h-1zm-13 1h1v1h-1zm-43 1h1v1h-1zm49 2h1v1h-1zm0 7v-3h1v3zm-50 0l1-2v2zm53-2h1v1h-1zm-56 2v-1 13zm54 6v-2l1 2zm0 2h1v1h-1zm-51 1h1v1h-1zm4 2l-3-1h1 2zm45-1h1v1h-1zm-40 2l-2-1h2zm33-1h1v1h-1zm-1 1h1v1h-1zm12 0h1v1h-1zm-46 1h1v1h-1zm4 0h1v1h-1zm32 0h1v1h-1zm6 0h1v1h-1zm-41 1h1v1h-1zm4 0h1v1h-1zm-13 1h1v1h-1zm41 0h1v1h-1zm-30 1h1v1h-1zm3 0h1v1h-1zm39 0h1v1h-1zm-53 4v-3 2zm37-3h1v1h-1zm-22 1h1v1h-1zm1 1h1v1h-1zm37 0h1v1h-1zm-56 1h1v1h-1zm24 1l-3-1h1 2zm13-1h1v1h-1zm7 0h1v1h-1zm11 0h1v1h-1zm3 0h1v1h-1zm-57 1h1v1h-1zm45 0h1v1h-1zm7 0h1v1h-1zm4 0h1v1h-1zm-2 1h1v1h-1z"/>
		<path id="Path 5" class="s0" d="m16 18h1v1h-1zm48 0h1v1h-1zm-1 1h1v1h-1zm-1 1h1v1h-1zm-7 1h1v1h-1zm6 0h1v1h-1zm-48 1h1v1h-1zm43 0h1v1h-1zm-2 8h1v1h-1zm1 1h1v1h-1zm4 0h1v1h-1zm-9 2h1v1h-1zm-2 3l4-1v4h-1v-1l-2-2zm-29 0h1v1h-1zm3 0h1v1h-1zm23 0h1v1h-1zm-22 1h1v1h-1zm21 0h1v1h-1zm-27 1h1v1h-1zm7 1h1v1h-1zm19 0h1v1h-1zm9 1v-1l1 2h-1zm-27 0h1v1h-1zm1 1h1v1h-1zm27 0h1v1h-1zm-26 1h1v1h-1zm17 4l-1-2h1v1zm-17-1h1v1h-1zm-9 1h1v1h-1zm26 0h1v1h-1zm9 0h1v1h-1zm-34 1h1v1h-1zm6 0h1v1h-1zm21 0h1v1h-1zm6 0h1v1h-1zm-42 5h1v1h-1zm1 1h1v1h-1zm49 0h1v1h-1zm-41 2h1v1h-1zm14 0h1v1h-1zm18 0h1v1h-1zm-31 1h1v1h-1zm14 2v-2 3zm16-2h1v1h-1zm-28 1h1v1h-1zm27 0h1v1h-1zm-20 1h1v1h-1zm-6 1h1v1h-1zm24 0h1v1h-1zm-1 1h1v1h-1zm-22 1h1v1h-1zm1 1h1v1h-1zm20 0h1v1h-1zm5 1h1v1h-1zm1 1h1v1h-1zm9 0h1v1h-1z"/>
		<path id="Path 6" fill-rule="evenodd" class="s1" d="m56 7h1v1h-1zm-46 18h1v1h-1zm40 0h1v1h-1zm14 0h1v1h-1zm-14 2h1v1h-1zm-42 1h1v1h-1zm12 9v-1h2v1zm26 0v-1h2zm-28 0h1v1h-1zm27 0h1v1h-1zm-22 1h1v1h-1zm21 0h1v1h-1zm-27 1h1v1h-1zm34 0h1v1h-1zm-8 1h1v1h-1zm9 1h1v1h-1zm1 1h1v1h-1zm-26 3v-2h1v2zm20 3v-1l2 1zm3 0l2-1v1zm-21 8l1-1v3h-1zm3-1h1v1h-1zm16 3h1v1h-1zm7-36v-3 1 1zm5 1h-4 1 2zm-10 41v-3 2zm-12 1h-6 1z"/>
		<path id="Path 7" class="s2" d="m46 37l2-1h1l2 2v1l1 1v1l1 1 1 1v2l-1 1-1 1-2 1h-1l-2-1h-1l-1-1-1-1v-1l-1-1v-2l1-1v-1l1-1zm-28 1l1-1h1 2 1v1l1 1 1 1 1 1 1 1v1 2 1l-1 1h-1l-1 1h-3l-1-1h-1v-1l-1-1-1-2v-3l1-1zm12 20v-3h2l1 1h1v2l-1 1h-2z"/>
		<path id="Path 8" class="s0" d="m43 44v-4 1 2zm-17 2h1v1h-1zm25 2h-3 1 1zm-17 11h-4 1 2z"/>
		<path id="Path 9" class="s1" d="m43 43h1v1h-1zm-25 2h1v1h-1zm26 0h1v1h-1zm9 0h1v1h-1zm-8 1h1v1h-1zm7 0h1v1h-1zm-32 1h1v1h-1zm4 0h1v1h-1zm6 11h1v1h-1zm3 0h1v1h-1z"/>
	</g>
</svg>