<svg version="1.2" xmlns="http://www.w3.org/2000/svg" viewBox="0 0 40 41" width="40" height="41">
	<title>40px-Noxus_Crest_icon</title>
	<style>
		.s0 { opacity: .73;fill: currentColor }
		.s1 { opacity: .5;fill: none;stroke: currentColor;stroke-miterlimit:100 }
	</style>
	<g id="Background">
		<path id="Path 0" fill-rule="evenodd" class="s0" d="m11.41 1c0.91 0 0.59 1.04-1.01 3.25-1.29 1.79-2.36 4.15-2.38 5.25-0.02 1.1 0.64 3.01 1.47 4.25 1.14 1.7 2.33 2.19 4.86 2 1.84-0.14 3.34-0.7 3.34-1.25 0-0.55 0.12-2.57 0.27-4.5 0.15-1.93 0.44-2.71 0.66-1.75 0.21 0.96 0.83 1.75 1.38 1.75 0.55 0 1.17-0.79 1.38-1.75 0.22-0.96 0.51-0.18 0.66 1.75 0.15 1.93 0.27 3.95 0.27 4.5 0 0.55 1.54 1 3.42 1q3.43 0 4.87-2c0.79-1.1 1.41-2.9 1.39-4-0.03-1.1-1.16-3.46-2.52-5.25-1.87-2.46-2.1-3.25-0.97-3.25 0.82 0 3.11 1.46 5.08 3.25 2.74 2.48 3.45 3.78 3 5.5-0.44 1.7-0.09 2.37 1.42 2.75 1.56 0.39 1.99 1.32 1.97 4.25-0.02 3.1-0.76 4.44-4.29 7.75-2.34 2.2-4.79 4.9-5.44 6-1.15 1.95-1.18 1.94-1.21-0.25-0.02-1.24 0.98-3.16 2.22-4.27 1.24-1.11 1.69-2.01 1-2-0.69 0.01-1.36-0.98-1.5-2.21-0.24-2.11-0.34-2.14-1.75-0.47-0.82 0.97-2.69 2.99-4.15 4.48-2.06 2.11-2.75 3.96-3.07 8.22-0.32 4.29-0.45 3.57-0.6-3.25-0.15-7.19 0.09-8.75 1.32-8.75 0.82 0 2.74-1.17 7-5.2l-3.75 2.1c-2.06 1.15-3.98 2.1-4.25 2.1-0.27 0-0.5-2.03-0.5-4.5 0-2.48-0.45-4.5-1-4.5-0.55 0-1 2.02-1 4.5 0 2.47-0.23 4.5-0.5 4.5-0.27 0-2.19-0.95-8-4.2l2.75 2.6c1.51 1.43 3.43 2.6 4.25 2.6 1.23 0 1.47 1.56 1.32 8.75-0.15 6.82-0.28 7.54-0.6 3.25-0.32-4.26-1.01-6.11-3.07-8.22-1.46-1.49-3.33-3.51-4.15-4.48-1.41-1.67-1.51-1.64-1.75 0.47-0.14 1.23-0.81 2.22-1.5 2.21-0.69-0.01-0.24 0.89 1 2 1.24 1.11 2.24 3.03 2.22 4.27-0.03 2.19-0.06 2.2-1.21 0.25-0.65-1.1-3.1-3.8-5.44-6-3.53-3.31-4.27-4.65-4.29-7.75-0.02-2.93 0.41-3.86 1.97-4.25 1.51-0.38 1.86-1.05 1.42-2.75-0.45-1.73 0.26-3.01 3.03-5.5 1.99-1.79 4.23-3.25 4.96-3.25zm-4.91 8c0.28 0 0.5-0.22 0.5-0.5 0-0.28-0.22-0.5-0.5-0.5-0.27 0-0.5 0.22-0.5 0.5 0 0.28 0.23 0.5 0.5 0.5zm27 0c0.27 0 0.5-0.22 0.5-0.5 0-0.28-0.23-0.5-0.5-0.5-0.27 0-0.5 0.22-0.5 0.5 0 0.28 0.23 0.5 0.5 0.5zm-28 2c0.28 0 0.5-0.22 0.5-0.5 0-0.28-0.22-0.5-0.5-0.5-0.27 0-0.5 0.22-0.5 0.5 0 0.28 0.23 0.5 0.5 0.5zm29 0c0.27 0 0.5-0.22 0.5-0.5 0-0.28-0.23-0.5-0.5-0.5-0.27 0-0.5 0.22-0.5 0.5 0 0.28 0.23 0.5 0.5 0.5zm-29.5 3c0.55 0 0.78-0.45 0.5-1-0.27-0.55-0.72-1-1-1-0.27 0-0.5 0.45-0.5 1 0 0.55 0.45 1 1 1zm30 0c0.55 0 1-0.45 1-1 0-0.55-0.2-1-0.45-1-0.25 0-0.7 0.45-1 1-0.3 0.55-0.1 1 0.45 1zm-26.5 2c0.28 0 0.5-0.23 0.5-0.5 0-0.27-0.22-0.5-0.5-0.5-0.27 0-0.5 0.23-0.5 0.5 0 0.27 0.23 0.5 0.5 0.5zm23 0c0.27 0 0.5-0.23 0.5-0.5 0-0.27-0.23-0.5-0.5-0.5-0.27 0-0.5 0.23-0.5 0.5 0 0.27 0.23 0.5 0.5 0.5zm-25 7c0.28 0 0.5-0.23 0.5-0.5 0-0.27-0.22-0.5-0.5-0.5-0.27 0-0.5 0.23-0.5 0.5 0 0.27 0.23 0.5 0.5 0.5zm27 0c0.27 0 0.5-0.23 0.5-0.5 0-0.27-0.23-0.5-0.5-0.5-0.27 0-0.5 0.23-0.5 0.5 0 0.27 0.23 0.5 0.5 0.5zm-17.83 0.75c0.36-0.41 0.03-0.76-0.75-0.78-0.78-0.01-1.08 0.32-0.67 0.75 0.41 0.43 1.05 0.44 1.42 0.03zm10 0c0.36-0.41 0.03-0.76-0.75-0.78-0.78-0.01-1.08 0.32-0.67 0.75 0.41 0.43 1.05 0.44 1.42 0.03z"/>
		<path id="Stroke" fill-rule="evenodd" class="s1" d="m11.41 1c0.91 0 0.59 1.04-1.01 3.25-1.29 1.79-2.36 4.15-2.38 5.25-0.02 1.1 0.64 3.01 1.47 4.25 1.14 1.7 2.33 2.19 4.86 2 1.84-0.14 3.34-0.7 3.34-1.25 0-0.55 0.12-2.57 0.27-4.5 0.15-1.93 0.44-2.71 0.66-1.75 0.21 0.96 0.83 1.75 1.38 1.75 0.55 0 1.17-0.79 1.38-1.75 0.22-0.96 0.51-0.18 0.66 1.75 0.15 1.93 0.27 3.95 0.27 4.5 0 0.55 1.54 1 3.42 1q3.43 0 4.87-2c0.79-1.1 1.41-2.9 1.39-4-0.03-1.1-1.16-3.46-2.52-5.25-1.87-2.46-2.1-3.25-0.97-3.25 0.82 0 3.11 1.46 5.08 3.25 2.74 2.48 3.45 3.78 3 5.5-0.44 1.7-0.09 2.37 1.42 2.75 1.56 0.39 1.99 1.32 1.97 4.25-0.02 3.1-0.76 4.44-4.29 7.75-2.34 2.2-4.79 4.9-5.44 6-1.15 1.95-1.18 1.94-1.21-0.25-0.02-1.24 0.98-3.16 2.22-4.27 1.24-1.11 1.69-2.01 1-2-0.69 0.01-1.36-0.98-1.5-2.21-0.24-2.11-0.34-2.14-1.75-0.47-0.82 0.97-2.69 2.99-4.15 4.48-2.06 2.11-2.75 3.96-3.07 8.22-0.32 4.29-0.45 3.57-0.6-3.25-0.15-7.19 0.09-8.75 1.32-8.75 0.82 0 2.74-1.17 7-5.2l-3.75 2.1c-2.06 1.15-3.98 2.1-4.25 2.1-0.27 0-0.5-2.03-0.5-4.5 0-2.48-0.45-4.5-1-4.5-0.55 0-1 2.02-1 4.5 0 2.47-0.23 4.5-0.5 4.5-0.27 0-2.19-0.95-8-4.2l2.75 2.6c1.51 1.43 3.43 2.6 4.25 2.6 1.23 0 1.47 1.56 1.32 8.75-0.15 6.82-0.28 7.54-0.6 3.25-0.32-4.26-1.01-6.11-3.07-8.22-1.46-1.49-3.33-3.51-4.15-4.48-1.41-1.67-1.51-1.64-1.75 0.47-0.14 1.23-0.81 2.22-1.5 2.21-0.69-0.01-0.24 0.89 1 2 1.24 1.11 2.24 3.03 2.22 4.27-0.03 2.19-0.06 2.2-1.21 0.25-0.65-1.1-3.1-3.8-5.44-6-3.53-3.31-4.27-4.65-4.29-7.75-0.02-2.93 0.41-3.86 1.97-4.25 1.51-0.38 1.86-1.05 1.42-2.75-0.45-1.73 0.26-3.01 3.03-5.5 1.99-1.79 4.23-3.25 4.96-3.25zm-4.91 8c0.28 0 0.5-0.22 0.5-0.5 0-0.28-0.22-0.5-0.5-0.5-0.27 0-0.5 0.22-0.5 0.5 0 0.28 0.23 0.5 0.5 0.5zm27 0c0.27 0 0.5-0.22 0.5-0.5 0-0.28-0.23-0.5-0.5-0.5-0.27 0-0.5 0.22-0.5 0.5 0 0.28 0.23 0.5 0.5 0.5zm-28 2c0.28 0 0.5-0.22 0.5-0.5 0-0.28-0.22-0.5-0.5-0.5-0.27 0-0.5 0.22-0.5 0.5 0 0.28 0.23 0.5 0.5 0.5zm29 0c0.27 0 0.5-0.22 0.5-0.5 0-0.28-0.23-0.5-0.5-0.5-0.27 0-0.5 0.22-0.5 0.5 0 0.28 0.23 0.5 0.5 0.5zm-29.5 3c0.55 0 0.78-0.45 0.5-1-0.27-0.55-0.72-1-1-1-0.27 0-0.5 0.45-0.5 1 0 0.55 0.45 1 1 1zm30 0c0.55 0 1-0.45 1-1 0-0.55-0.2-1-0.45-1-0.25 0-0.7 0.45-1 1-0.3 0.55-0.1 1 0.45 1zm-26.5 2c0.28 0 0.5-0.23 0.5-0.5 0-0.27-0.22-0.5-0.5-0.5-0.27 0-0.5 0.23-0.5 0.5 0 0.27 0.23 0.5 0.5 0.5zm23 0c0.27 0 0.5-0.23 0.5-0.5 0-0.27-0.23-0.5-0.5-0.5-0.27 0-0.5 0.23-0.5 0.5 0 0.27 0.23 0.5 0.5 0.5zm-25 7c0.28 0 0.5-0.23 0.5-0.5 0-0.27-0.22-0.5-0.5-0.5-0.27 0-0.5 0.23-0.5 0.5 0 0.27 0.23 0.5 0.5 0.5zm27 0c0.27 0 0.5-0.23 0.5-0.5 0-0.27-0.23-0.5-0.5-0.5-0.27 0-0.5 0.23-0.5 0.5 0 0.27 0.23 0.5 0.5 0.5zm-17.83 0.75c0.36-0.41 0.03-0.76-0.75-0.78-0.78-0.01-1.08 0.32-0.67 0.75 0.41 0.43 1.05 0.44 1.42 0.03zm10 0c0.36-0.41 0.03-0.76-0.75-0.78-0.78-0.01-1.08 0.32-0.67 0.75 0.41 0.43 1.05 0.44 1.42 0.03z"/>
	</g>
</svg>