<svg version="1.2" xmlns="http://www.w3.org/2000/svg" viewBox="0 0 40 34" width="40" height="34">

	<style>
		.s0 { opacity: .49;fill: #000000 }
		.s1 { opacity: .83;fill: #000000 }
		.s2 { opacity: 1;fill: #000000 }
	</style>
	<g id="Background">
		<path id="Path 0" class="s0" d="m33 7h1v1h-1zm3 4l4-1v1zm-3 1h1v1h-1zm2 1h1v1h-1zm2 1h1v1h-1zm-7 3h1v1h-1zm1 2h1v1h-1zm8 4v-4h1v4zm-32-2h1v1h-1zm25 0h1v1h-1zm1 2h1v1h-1zm5 0h1v1h-1zm-19 5h1v1h-1zm-1 1h1v1h-1zm-18 2h1v1h-1zm2 2h1v1h-1zm2 0h1v1h-1z"/>
		<path id="Path 1" fill-rule="evenodd" class="s1" d="m26 0h1v1h-1zm7 7v-7h1v7zm0 5l2-1-1 1zm5 2l2-2v3h-2zm-33 0h1v1h-1zm-1 1h1v1h-1zm27 0h1v1h-1zm-1 1h1v1h-1zm3 0h1v1h-1zm-26 6h1v1h-1zm9 1h1v1h-1zm3 5v-2l1 2zm-19 3v-2h1v2zm18-1l-2-1h2zm-15 3h1v1h-1z"/>
		<path id="Path 2" fill-rule="evenodd" class="s2" d="m27 0h6v8l-1 1h-1l-7 7h-1l-7 7 3 3v3h-3l-4-3-7 7h-3l-1-1v-3l7-7v-1l-4-4v-1l2-2h1l3 3h2l3-3v-1l7-7v-1zm7 12l1-1h5v1l-2 2h-1l-1-1h-2zm-4 3h1v1h-1zm1 1h2l1 1h2l1 1h1l1 1v4h-1l-1 1h-3v-1l-1-1v-1l-1-1v-1l-1-1z"/>
		<path id="Path 3" class="s0" d="m25 1h1v1h-1zm-1 1h1v1h-1zm-1 1h1v1h-1zm-1 1h1v1h-1zm10 4h1v1h-1zm-14 1h1v1h-1zm-1 1h1v1h-1zm-1 1h1v1h-1zm-1 1h1v1h-1zm12 0h1v1h-1zm-21 1h1v1h-1zm20 0h1v1h-1zm-22 1h1v1h-1zm21 0h1v1h-1zm5 0h1v1h-1zm-6 1h1v1h-1zm5 0h1v1h-1zm3 0h1v1h-1zm2 1h1v1h-1zm2 1h1v1h-1zm2 1h1v1h-1zm-19 1h1v1h-1zm-1 1h1v1h-1zm-1 1h1v1h-1zm-1 1h1v1h-1zm-5 4h1v1h-1zm-1 1h1v1h-1zm-1 1h1v1h-1zm-1 1h1v1h-1zm-1 1h1v1h-1zm-1 1h1v1h-1zm-1 1h1v1h-1z"/>
		<path id="Path 4" class="s1" d="m21 6h1v1h-1zm-1 1h1v1h-1zm-1 1h1v1h-1zm11 1h1v1h-1zm-1 1h1v1h-1zm-1 1h1v1h-1zm8 2h1v1h-1zm-29 1h1v1h-1zm7 0h1v1h-1zm-1 1h1v1h-1zm-4 1h1v1h-1zm3 0h1v1h-1zm10 0h1v1h-1zm-18 1h1v1h-1zm17 0h1v1h-1zm-16 1h1v1h-1zm15 0h1v1h-1zm11 0h1v1h-1zm-25 1h1v1h-1zm1 1h1v1h-1zm25 0h1v1h-1zm1 2h1v1h-1zm-27 1h1v1h-1zm31 0h1v1h-1zm-32 1h1v1h-1zm12 0h1v1h-1zm-13 1h1v1h-1zm14 0h1v1h-1zm-15 1h1v1h-1zm-1 1h1v1h-1zm-1 1h1v1h-1zm0 4h1v1h-1z"/>
	</g>
</svg>