<svg version="1.2" xmlns="http://www.w3.org/2000/svg" viewBox="0 0 72 72" width="72" height="72">

	<style>
		.s0 { fill: #000000 }
	</style>
	<path id="Path 0" class="s0" d="m0 7c0 4.6 0.2 5 2.3 5 1.3 0 2.8-0.6 3.5-1.3 0.7-0.6 1.2-2.3 1.2-3.7 0-1.4-0.5-3.1-1.2-3.8-0.7-0.7-2.3-1.2-3.5-1.2-2.1 0-2.3 0.5-2.3 5zm12-3.8c-0.8 0.7-1.3 2.3-1.2 3.8 0.1 1.4 0.7 3.1 1.4 3.8 0.7 0.7 2.2 1.2 3.4 1.2 1.1 0 2.5-0.6 3.2-1.3 0.7-0.6 1.2-2.3 1.2-3.7 0-1.4-0.5-3.1-1.2-3.8-0.7-0.7-2.2-1.2-3.4-1.2-1.1 0-2.6 0.5-3.4 1.2zm13 0c-0.8 0.7-1.3 2.3-1.2 3.8 0.1 1.4 0.7 3.1 1.4 3.8 0.7 0.7 2.2 1.2 3.4 1.2 1.1 0 2.5-0.6 3.2-1.2 0.7-0.7 1.2-2.4 1.2-3.8 0-1.4-0.5-3.1-1.2-3.8-0.7-0.7-2.2-1.2-3.4-1.2-1.1 0-2.6 0.5-3.4 1.2zm24.3 39.2c-1.3 0.7-3.6 3.6-5.2 6.2-1.8 3-3.1 4.4-3.5 3.6-0.3-0.6-1.9-1.2-3.4-1.2-1.5 0-3.3 0.6-4 1.2-0.7 0.7-1.2 2.2-1.2 3.3 0 1.1 0.5 2.6 1.2 3.3 0.7 0.7 2.4 1.2 3.9 1.2 1.4 0 3.1-0.6 3.8-1.3 1.1-1 1.5-0.9 1.9 0.3 0.3 0.8 2.1 3.2 4.1 5.2 3 3.1 4.3 3.7 7.8 3.8 2.4 0 5.3-0.5 6.5-1.1 1.3-0.6 3.3-2.1 4.6-3.3 1.3-1.1 2.7-3.9 3.3-6.1 0.7-2.7 0.7-5 0-7-0.6-1.7-2.4-4.4-4.2-6-2.5-2.4-4-3.1-8.2-3.3-3.2-0.1-6.1 0.3-7.4 1.2zm-11.9-36.7c-0.4 1.6-0.2 3.5 0.3 4.3 0.6 0.8 2.3 1.5 3.8 1.5 1.5 0 3.2-0.7 3.8-1.5 0.5-0.8 0.7-2.7 0.3-4.3-0.5-2.3-1.1-2.7-4.1-2.7-3 0-3.6 0.4-4.1 2.7zm7.6 8.5c-0.8 0.7-1.3 2.1-1.2 3.2 0.1 1.2 0.7 2.7 1.4 3.4 0.7 0.7 2.4 1.2 3.8 1.2 1.5 0 3.1-0.6 3.8-1.3 0.7-0.6 1.2-2.1 1.2-3.2 0-1.1-0.5-2.6-1.2-3.3-0.7-0.7-2.4-1.2-3.8-1.2-1.5 0-3.2 0.5-4 1.2zm-4.5 12.3c-0.8 1.4-1.3 3.4-1 4.5 0.3 1.2 1.7 2.3 3.3 2.6 1.5 0.4 3.4 0.2 4.2-0.3 0.8-0.6 1.6-2.3 1.8-3.9q0.3-2.9-1.5-4.2c-1-0.7-2.6-1.2-3.5-1.2-1 0-2.4 1.1-3.3 2.5zm-25 1.1c-0.9 0.8-1.6 2.5-1.6 3.7 0 1.2 0.6 2.8 1.3 3.5 0.7 0.7 2.3 1.2 3.5 1.2 1.2 0 2.9-0.7 3.7-1.5 0.9-0.8 1.6-2.2 1.6-3 0-0.8-0.9-2.4-2-3.5-1.1-1.1-2.6-2-3.4-2-0.8 0-2.2 0.7-3.1 1.6zm11.9 1.6c-0.4 1.3-0.4 3.1 0 4 0.3 1 1.4 2.1 2.4 2.4 0.9 0.4 2.7 0.4 4 0 1.2-0.3 2.4-1.5 2.5-2.6 0.2-1 0-2.8-0.5-4-0.6-1.5-1.7-2-4.3-2-2.7 0-3.6 0.5-4.1 2.2zm-21.9 6.4c-0.4 0.4-0.8 1.9-0.7 3.3 0.1 1.4 0.7 3.2 1.4 3.9 0.7 0.7 2.2 1.2 3.3 1.3 1.1 0 2.6-0.6 3.3-1.3 0.7-0.7 1.1-2.7 1-4.3-0.3-2.6-0.7-3-3.8-3.3-2-0.2-4 0-4.5 0.4zm2.5 12.6c-0.8 0.7-1.3 2.1-1.2 3.2 0.1 1.2 0.7 2.7 1.4 3.4 0.7 0.7 2.5 1.2 4 1.2 1.9 0 3.2-0.7 3.9-2.3 0.8-1.6 0.8-2.8 0-4.5-0.7-1.5-2-2.2-3.9-2.2-1.5 0-3.4 0.5-4.2 1.2zm12 4c-0.8 0.7-1.3 2.1-1.2 3.2 0.1 1.2 0.7 2.7 1.4 3.4 0.7 0.7 2.4 1.2 3.9 1.2 1.4 0 3-0.6 3.7-1.3 0.7-0.6 1.2-2.1 1.2-3.2 0-1.1-0.5-2.6-1.2-3.3-0.7-0.7-2.4-1.2-3.9-1.2-1.4 0-3.1 0.5-3.9 1.2z"/>
</svg>