<svg version="1.2" xmlns="http://www.w3.org/2000/svg" viewBox="0 0 40 41" width="40" height="41">
	<title>40px-Piltover_Crest_icon</title>
	<style>
		.s0 { opacity: .85;fill: currentColor }
		.s1 { opacity: .5;fill: none;stroke: currentColor;stroke-miterlimit:100 }
	</style>
	<g id="Background">
		<path id="Path 0" fill-rule="evenodd" class="s0" d="m14.91 0c0.46 0 0.61 0.79 0.33 1.75-0.29 0.96-0.72 2.88-0.97 4.25q-0.44 2.5 1.68 4.5c1.95 1.84 2.11 3.02 2.07 15-0.03 7.15-0.5 13.67-1.05 14.5-0.88 1.31-1.13 1.28-1.99-0.25-0.63-1.12-1.96-1.66-3.68-1.5-2.16 0.2-2.82-0.26-3.29-2.25-0.38-1.61-1.38-2.59-2.8-2.75-1.78-0.2-2.11-0.73-1.71-2.75 0.37-1.83-0.1-2.9-1.75-3.99-1.81-1.2-2-1.73-0.98-2.75 0.69-0.69 1.26-2.05 1.25-3.01-0.01-0.96-0.47-1.75-1.02-1.75-0.55 0-1-0.68-1-1.5 0-0.82 0.67-1.5 1.5-1.5 0.83 0 1.69-0.56 1.92-1.25 0.24-0.69 0.24-2.26 0-3.5-0.32-1.72 0.05-2.25 1.58-2.25 1.1 0 2.22 0.45 2.5 1 0.28 0.55-0.23 2.46-1.13 4.25-1.08 2.17-1.48 4.9-1.2 8.25 0.23 2.81 1.27 6.16 2.37 7.65 1.08 1.46 2.75 3.15 3.71 3.75 0.96 0.61 1.94 0.99 2.18 0.85 0.23-0.14 0.74-5.2 1.13-11.25 0.62-9.61 0.5-11.19-0.97-12.5-0.92-0.82-1.7-2.77-1.72-4.32-0.03-1.54 0.45-3.68 1.07-4.75 0.61-1.06 1.5-1.93 1.97-1.93zm9.93 0c0.64 0 1.61 0.9 2.16 2 0.55 1.1 1.02 3.24 1.04 4.75 0.03 1.51-0.71 3.43-1.63 4.25-1.47 1.31-1.59 2.89-0.97 12.5 0.39 6.05 0.9 11.11 1.13 11.25 0.24 0.14 1.22-0.24 2.18-0.85 0.96-0.6 2.63-2.29 3.71-3.75 1.1-1.49 2.14-4.84 2.37-7.65 0.28-3.35-0.12-6.08-1.2-8.25-0.9-1.79-1.4-3.7-1.13-4.25 0.27-0.55 1.4-1 2.5-1 1.53 0 1.9 0.53 1.58 2.25-0.24 1.24-0.24 2.81 0 3.5 0.23 0.69 1.09 1.25 1.92 1.25 0.83 0 1.5 0.68 1.5 1.5 0 0.82-0.45 1.5-1 1.5-0.55 0-1.01 0.79-1.02 1.75-0.01 0.96 0.56 2.32 1.25 3.01 1.02 1.02 0.83 1.55-0.98 2.75-1.65 1.09-2.12 2.16-1.75 3.99 0.4 2.02 0.07 2.55-1.71 2.75-1.42 0.16-2.42 1.14-2.8 2.75-0.47 1.99-1.13 2.45-3.29 2.25-1.72-0.16-3.05 0.38-3.68 1.5-0.86 1.53-1.11 1.56-1.99 0.25-0.55-0.83-1.02-7.35-1.05-14.5-0.04-11.98 0.12-13.16 2.07-15q2.12-2 1.68-4.5c-0.25-1.37-0.81-3.29-1.25-4.25-0.5-1.12-0.38-1.75 0.36-1.75zm-4.64 2c0.99 0 2.25 0.9 2.8 2 0.55 1.1 0.77 2.9 0.5 4-0.36 1.44-1.33 2-3.5 2-1.65 0-3-0.45-3-1 0-0.55 1.12-1 2.5-1 1.37 0 2.73-0.68 3-1.5 0.29-0.86-0.24-1.73-1.25-2.05-0.98-0.31-2.19 0.11-2.75 0.96-0.55 0.83-1.34 1.53-1.75 1.55-0.41 0.02-0.84-0.54-0.95-1.26-0.11-0.71 0.43-1.84 1.2-2.5 0.77-0.66 2.21-1.2 3.2-1.2zm-0.2 10c0.62 0 1 5 1 13 0 8-0.38 13-1 13-0.62 0-1-5-1-13 0-8 0.38-13 1-13zm-11.32 1.41c0.18 0.33-0.13 1.49-0.68 2.59-0.55 1.1-1 3.57-1 5.5 0 1.93 0.79 4.86 1.75 6.51 0.96 1.66 2.09 3.01 2.5 3 0.41 0 0.77 0.55 0.79 1.24 0.04 0.89-0.43 0.82-1.62-0.25-0.91-0.83-2.28-2.74-3.04-4.25-0.76-1.51-1.42-4.58-1.47-6.82-0.05-2.23 0.48-4.97 1.18-6.08 0.7-1.11 1.42-1.76 1.59-1.44zm22.16-0.91l1.6 2c0.9 1.14 1.59 3.83 1.58 6.25-0.01 2.34-0.64 5.49-1.4 7-0.76 1.51-2.13 3.42-3.04 4.25-1.19 1.07-1.66 1.14-1.62 0.25 0.02-0.69 0.38-1.24 0.79-1.22 0.41 0.02 1.59-1.44 2.61-3.25 1.28-2.24 1.72-4.54 1.41-7.28-0.24-2.2-0.78-4.9-1.19-6z"/>
		<path id="Stroke" fill-rule="evenodd" class="s1" d="m14.91 0c0.46 0 0.61 0.79 0.33 1.75-0.29 0.96-0.72 2.88-0.97 4.25q-0.44 2.5 1.68 4.5c1.95 1.84 2.11 3.02 2.07 15-0.03 7.15-0.5 13.67-1.05 14.5-0.88 1.31-1.13 1.28-1.99-0.25-0.63-1.12-1.96-1.66-3.68-1.5-2.16 0.2-2.82-0.26-3.29-2.25-0.38-1.61-1.38-2.59-2.8-2.75-1.78-0.2-2.11-0.73-1.71-2.75 0.37-1.83-0.1-2.9-1.75-3.99-1.81-1.2-2-1.73-0.98-2.75 0.69-0.69 1.26-2.05 1.25-3.01-0.01-0.96-0.47-1.75-1.02-1.75-0.55 0-1-0.68-1-1.5 0-0.82 0.67-1.5 1.5-1.5 0.83 0 1.69-0.56 1.92-1.25 0.24-0.69 0.24-2.26 0-3.5-0.32-1.72 0.05-2.25 1.58-2.25 1.1 0 2.22 0.45 2.5 1 0.28 0.55-0.23 2.46-1.13 4.25-1.08 2.17-1.48 4.9-1.2 8.25 0.23 2.81 1.27 6.16 2.37 7.65 1.08 1.46 2.75 3.15 3.71 3.75 0.96 0.61 1.94 0.99 2.18 0.85 0.23-0.14 0.74-5.2 1.13-11.25 0.62-9.61 0.5-11.19-0.97-12.5-0.92-0.82-1.7-2.77-1.72-4.32-0.03-1.54 0.45-3.68 1.07-4.75 0.61-1.06 1.5-1.93 1.97-1.93zm9.93 0c0.64 0 1.61 0.9 2.16 2 0.55 1.1 1.02 3.24 1.04 4.75 0.03 1.51-0.71 3.43-1.63 4.25-1.47 1.31-1.59 2.89-0.97 12.5 0.39 6.05 0.9 11.11 1.13 11.25 0.24 0.14 1.22-0.24 2.18-0.85 0.96-0.6 2.63-2.29 3.71-3.75 1.1-1.49 2.14-4.84 2.37-7.65 0.28-3.35-0.12-6.08-1.2-8.25-0.9-1.79-1.4-3.7-1.13-4.25 0.27-0.55 1.4-1 2.5-1 1.53 0 1.9 0.53 1.58 2.25-0.24 1.24-0.24 2.81 0 3.5 0.23 0.69 1.09 1.25 1.92 1.25 0.83 0 1.5 0.68 1.5 1.5 0 0.82-0.45 1.5-1 1.5-0.55 0-1.01 0.79-1.02 1.75-0.01 0.96 0.56 2.32 1.25 3.01 1.02 1.02 0.83 1.55-0.98 2.75-1.65 1.09-2.12 2.16-1.75 3.99 0.4 2.02 0.07 2.55-1.71 2.75-1.42 0.16-2.42 1.14-2.8 2.75-0.47 1.99-1.13 2.45-3.29 2.25-1.72-0.16-3.05 0.38-3.68 1.5-0.86 1.53-1.11 1.56-1.99 0.25-0.55-0.83-1.02-7.35-1.05-14.5-0.04-11.98 0.12-13.16 2.07-15q2.12-2 1.68-4.5c-0.25-1.37-0.81-3.29-1.25-4.25-0.5-1.12-0.38-1.75 0.36-1.75zm-4.64 2c0.99 0 2.25 0.9 2.8 2 0.55 1.1 0.77 2.9 0.5 4-0.36 1.44-1.33 2-3.5 2-1.65 0-3-0.45-3-1 0-0.55 1.12-1 2.5-1 1.37 0 2.73-0.68 3-1.5 0.29-0.86-0.24-1.73-1.25-2.05-0.98-0.31-2.19 0.11-2.75 0.96-0.55 0.83-1.34 1.53-1.75 1.55-0.41 0.02-0.84-0.54-0.95-1.26-0.11-0.71 0.43-1.84 1.2-2.5 0.77-0.66 2.21-1.2 3.2-1.2zm-0.2 10c0.62 0 1 5 1 13 0 8-0.38 13-1 13-0.62 0-1-5-1-13 0-8 0.38-13 1-13zm-11.32 1.41c0.18 0.33-0.13 1.49-0.68 2.59-0.55 1.1-1 3.57-1 5.5 0 1.93 0.79 4.86 1.75 6.51 0.96 1.66 2.09 3.01 2.5 3 0.41 0 0.77 0.55 0.79 1.24 0.04 0.89-0.43 0.82-1.62-0.25-0.91-0.83-2.28-2.74-3.04-4.25-0.76-1.51-1.42-4.58-1.47-6.82-0.05-2.23 0.48-4.97 1.18-6.08 0.7-1.11 1.42-1.76 1.59-1.44zm22.16-0.91l1.6 2c0.9 1.14 1.59 3.83 1.58 6.25-0.01 2.34-0.64 5.49-1.4 7-0.76 1.51-2.13 3.42-3.04 4.25-1.19 1.07-1.66 1.14-1.62 0.25 0.02-0.69 0.38-1.24 0.79-1.22 0.41 0.02 1.59-1.44 2.61-3.25 1.28-2.24 1.72-4.54 1.41-7.28-0.24-2.2-0.78-4.9-1.19-6z"/>
	</g>
</svg>