<svg version="1.2" xmlns="http://www.w3.org/2000/svg" viewBox="0 0 72 72" width="72" height="72">

	<style>
		.s0 { opacity: .98;fill: #000000 }
	</style>
	<path id="Path 0" fill-rule="evenodd" class="s0" d="m36 10c3.7 0 4.2 0.4 11.5 11.2l-1.8 4.6c-0.9 2.6-1.7 5.6-1.7 6.7-0.1 1.1 0.5 2.5 1.2 3.1 0.7 0.6 2.5 1.4 4 1.8 1.7 0.3 3.6 1.9 6.7 7.1l1.8-3.7c1.8-3.6 1.7-3.8-2.2-11.9l7.5-7.4 7.8 8-2 6c-1.4 4.2-1.8 7.5-1.4 11 0.3 2.8 1.2 6.9 2.1 9.3 0.8 2.3 1.2 4.4 0.8 4.6-0.5 0.2-3.5 1-6.8 1.7-4.2 1-12.8 1.3-28.5 1.3-16-0.1-24.1-0.6-28-1.6-3.8-1-5.4-1.9-5.2-2.9 0.2-0.8 1.1-4.1 1.9-7.4 0.9-3.6 1.3-7.8 0.9-10.5-0.3-2.5-1.2-6.1-2-8-1.5-3.5-1.5-3.5 6.4-11.5l7.5 7.4-2 4.1c-1.9 4-2 4.2 1.6 11.5l2-3.2c1.1-2 3-3.6 4.6-3.9 1.6-0.4 3.4-1.2 4.1-1.8 0.7-0.6 1.3-2 1.2-3.1 0-1.1-0.8-4.1-3.5-11.3l3.8-5.6c3.5-5.2 4-5.6 7.7-5.6zm-8 38.5l8 8 8-8c-5.8-5.8-7.7-7.5-8-7.5-0.4 0-2.3 1.7-4.3 3.8zm-13.3 5.7c1.7 1.7 1.9 1.7 3.5 0 1-1 1.8-2.1 1.8-2.5 0.1-0.4-0.8-1.1-1.8-1.7-1.5-0.7-2.4-0.6-3.6 0.7-1.5 1.6-1.5 1.9 0.1 3.5zm38.8-0.3c1.9 2 2.1 2 3.8 0.3 1.6-1.7 1.6-1.8-0.1-3.5-1.6-1.5-2.1-1.6-3.8-0.3-1.9 1.4-1.9 1.5 0.1 3.5z"/>
</svg>