<svg version="1.2" xmlns="http://www.w3.org/2000/svg" viewBox="0 0 160 160" width="160" height="160">
	<title>40px-Ranged_role</title>
	<style>
		.s0 { opacity: .95;fill: currentColor }
		.s1 { opacity: .5;fill: none;stroke: currentColor;stroke-miterlimit:100 }
	</style>
	<g id="Background">
		<path id="Path 0" class="s0" d="m109.5 21.67c-0.46 0.36-0.75 3.63-0.65 7.25 0.11 4.05-0.28 7.06-1.03 7.83-0.67 0.69-2.37 1.25-3.77 1.25-1.4-0.01-4.01-0.91-5.8-2-1.79-1.1-5.61-2.5-8.5-3.11-2.89-0.6-9.75-1.32-15.25-1.59-8.07-0.39-11.06-0.12-15.5 1.39-3.02 1.03-8.42 3.43-12 5.33-3.58 1.89-9 5.93-12.07 8.96-3.06 3.04-7.22 8.33-9.25 11.77-2.02 3.44-3.68 6.7-3.68 7.25 0 0.55-0.74 2.46-1.64 4.25-1.28 2.55-1.61 6.07-1.54 16.25 0.08 10.09 0.5 14.01 1.92 17.5 1 2.47 2.82 6.41 4.04 8.75 1.22 2.34 4.86 7.06 8.09 10.5 3.24 3.44 8.94 8.05 12.69 10.25 3.74 2.2 8.86 4.79 11.37 5.75 3.45 1.32 7.56 1.75 16.82 1.75 8.32 0 13.94-0.51 17.5-1.59 2.89-0.87 7.05-2.51 9.25-3.65 2.2-1.13 6-3.68 8.46-5.66 2.45-1.98 5.37-4.59 6.5-5.81 1.12-1.21 3.72-5.26 5.77-9 2.31-4.22 4.33-9.82 5.33-14.79 0.89-4.4 1.86-11.83 2.15-16.5 0.42-6.83 0.19-9.19-1.21-12-0.95-1.93-2.69-4.52-3.87-5.78-1.17-1.25-2.69-2.26-3.38-2.25-0.69 0.02-2.61 2.17-4.28 4.78l-3.03 4.75 1.38 23c-5.62 11.96-8.36 15.7-12.7 19.82-3.36 3.2-8.15 6.8-10.62 8-3.57 1.73-6.68 2.24-15 2.48-10.21 0.28-10.69 0.2-17.5-3.14-3.91-1.92-9.14-5.59-11.85-8.3-2.67-2.67-6.39-7.11-8.26-9.86-1.97-2.88-4.25-8.19-5.38-12.5-1.92-7.32-1.93-7.65-0.15-14 1-3.58 3.13-8.74 4.73-11.48 1.6-2.74 5.16-7.26 7.91-10.04 2.75-2.78 7.25-6.38 10-8 4.67-2.76 5.83-2.98 17.5-3.36 11.17-0.37 13.01-0.18 17.25 1.73 2.61 1.18 5.2 3.05 5.75 4.15 0.73 1.45 0.59 2.68-0.5 4.5-0.83 1.37-2.51 3-3.75 3.62-1.24 0.61-3.6 0.82-5.25 0.45-1.65-0.37-6.83-1.07-11.5-1.56-8.15-0.86-8.69-0.79-13 1.71-2.48 1.43-5.79 3.77-7.38 5.19-1.58 1.43-4.16 5.29-5.74 8.59-2.27 4.74-2.87 7.37-2.85 12.5 0.01 4.7 0.63 7.71 2.24 10.89 1.23 2.41 4.03 5.94 6.23 7.84 2.2 1.89 5.69 4.31 7.75 5.36 2.91 1.48 5.87 1.91 13.25 1.91 6.44 0 10.46-0.48 12.5-1.5 1.65-0.83 4.54-3.41 6.43-5.75 1.88-2.34 4.35-6.28 5.48-8.75 1.12-2.47 2.06-5.51 2.07-6.75 0.01-1.24-0.43-2.47-0.98-2.75-0.55-0.28-2.46 0.55-4.25 1.83-1.79 1.28-6.06 3.76-9.5 5.5-4.99 2.53-7.51 3.18-12.5 3.2-4.76 0.03-6.91-0.45-9-2-1.67-1.23-3.14-3.61-3.75-6.03-0.81-3.25-0.65-4.79 0.85-8.25 1.02-2.34 2.71-4.98 3.75-5.87 1.05-0.88 3.14-1.9 4.65-2.25 2.09-0.48 3.27-0.09 4.88 1.62 1.67 1.76 1.98 2.91 1.42 5.25-0.4 1.65-0.8 3.67-0.89 4.5-0.12 1.13 0.71 1.42 3.34 1.2 1.92-0.17 4.85-1.15 6.5-2.18 1.65-1.03 7.34-6.75 12.65-12.7 5.3-5.95 11.71-12.96 14.25-15.57l4.6-4.75c19.17 0 21-0.26 21-1.5 0-0.83-1.57-3.3-3.5-5.5-1.93-2.2-3.5-4.68-3.5-5.5 0-0.83 1.8-3.53 4-6 2.2-2.48 4.01-5.29 4.03-6.25 0.02-0.96-0.77-2.53-1.75-3.47-0.98-0.95-2.91-1.72-4.28-1.72-1.52 0.01-4.16 1.56-6.75 3.98-2.34 2.18-4.7 3.96-5.25 3.96-0.55 0-3.25-1.8-6-4-2.75-2.2-5.15-4-5.33-4-0.19 0-0.71 0.3-1.17 0.67z"/>
		<path id="Stroke" class="s1" d="m109.5 21.67c-0.46 0.36-0.75 3.63-0.65 7.25 0.11 4.05-0.28 7.06-1.03 7.83-0.67 0.69-2.37 1.25-3.77 1.25-1.4-0.01-4.01-0.91-5.8-2-1.79-1.1-5.61-2.5-8.5-3.11-2.89-0.6-9.75-1.32-15.25-1.59-8.07-0.39-11.06-0.12-15.5 1.39-3.02 1.03-8.42 3.43-12 5.33-3.58 1.89-9 5.93-12.07 8.96-3.06 3.04-7.22 8.33-9.25 11.77-2.02 3.44-3.68 6.7-3.68 7.25 0 0.55-0.74 2.46-1.64 4.25-1.28 2.55-1.61 6.07-1.54 16.25 0.08 10.09 0.5 14.01 1.92 17.5 1 2.47 2.82 6.41 4.04 8.75 1.22 2.34 4.86 7.06 8.09 10.5 3.24 3.44 8.94 8.05 12.69 10.25 3.74 2.2 8.86 4.79 11.37 5.75 3.45 1.32 7.56 1.75 16.82 1.75 8.32 0 13.94-0.51 17.5-1.59 2.89-0.87 7.05-2.51 9.25-3.65 2.2-1.13 6-3.68 8.46-5.66 2.45-1.98 5.37-4.59 6.5-5.81 1.12-1.21 3.72-5.26 5.77-9 2.31-4.22 4.33-9.82 5.33-14.79 0.89-4.4 1.86-11.83 2.15-16.5 0.42-6.83 0.19-9.19-1.21-12-0.95-1.93-2.69-4.52-3.87-5.78-1.17-1.25-2.69-2.26-3.38-2.25-0.69 0.02-2.61 2.17-4.28 4.78l-3.03 4.75 1.38 23c-5.62 11.96-8.36 15.7-12.7 19.82-3.36 3.2-8.15 6.8-10.62 8-3.57 1.73-6.68 2.24-15 2.48-10.21 0.28-10.69 0.2-17.5-3.14-3.91-1.92-9.14-5.59-11.85-8.3-2.67-2.67-6.39-7.11-8.26-9.86-1.97-2.88-4.25-8.19-5.38-12.5-1.92-7.32-1.93-7.65-0.15-14 1-3.58 3.13-8.74 4.73-11.48 1.6-2.74 5.16-7.26 7.91-10.04 2.75-2.78 7.25-6.38 10-8 4.67-2.76 5.83-2.98 17.5-3.36 11.17-0.37 13.01-0.18 17.25 1.73 2.61 1.18 5.2 3.05 5.75 4.15 0.73 1.45 0.59 2.68-0.5 4.5-0.83 1.37-2.51 3-3.75 3.62-1.24 0.61-3.6 0.82-5.25 0.45-1.65-0.37-6.83-1.07-11.5-1.56-8.15-0.86-8.69-0.79-13 1.71-2.48 1.43-5.79 3.77-7.38 5.19-1.58 1.43-4.16 5.29-5.74 8.59-2.27 4.74-2.87 7.37-2.85 12.5 0.01 4.7 0.63 7.71 2.24 10.89 1.23 2.41 4.03 5.94 6.23 7.84 2.2 1.89 5.69 4.31 7.75 5.36 2.91 1.48 5.87 1.91 13.25 1.91 6.44 0 10.46-0.48 12.5-1.5 1.65-0.83 4.54-3.41 6.43-5.75 1.88-2.34 4.35-6.28 5.48-8.75 1.12-2.47 2.06-5.51 2.07-6.75 0.01-1.24-0.43-2.47-0.98-2.75-0.55-0.28-2.46 0.55-4.25 1.83-1.79 1.28-6.06 3.76-9.5 5.5-4.99 2.53-7.51 3.18-12.5 3.2-4.76 0.03-6.91-0.45-9-2-1.67-1.23-3.14-3.61-3.75-6.03-0.81-3.25-0.65-4.79 0.85-8.25 1.02-2.34 2.71-4.98 3.75-5.87 1.05-0.88 3.14-1.9 4.65-2.25 2.09-0.48 3.27-0.09 4.88 1.62 1.67 1.76 1.98 2.91 1.42 5.25-0.4 1.65-0.8 3.67-0.89 4.5-0.12 1.13 0.71 1.42 3.34 1.2 1.92-0.17 4.85-1.15 6.5-2.18 1.65-1.03 7.34-6.75 12.65-12.7 5.3-5.95 11.71-12.96 14.25-15.57l4.6-4.75c19.17 0 21-0.26 21-1.5 0-0.83-1.57-3.3-3.5-5.5-1.93-2.2-3.5-4.68-3.5-5.5 0-0.83 1.8-3.53 4-6 2.2-2.48 4.01-5.29 4.03-6.25 0.02-0.96-0.77-2.53-1.75-3.47-0.98-0.95-2.91-1.72-4.28-1.72-1.52 0.01-4.16 1.56-6.75 3.98-2.34 2.18-4.7 3.96-5.25 3.96-0.55 0-3.25-1.8-6-4-2.75-2.2-5.15-4-5.33-4-0.19 0-0.71 0.3-1.17 0.67z"/>
	</g>
</svg>