<svg version="1.2" xmlns="http://www.w3.org/2000/svg" viewBox="0 0 35 35" width="35" height="35">

	<style>
		.s0 { fill: currentColor }
	</style>
	<g>
		<path class="s0" d="m29.7 11.3c-5.1-5.1-13.3-5.1-18.4 0-5.1 5.1-5.1 13.3 0 18.4 5.1 5.1 13.3 5.1 18.4 0 5.1-5.1 5.1-13.3 0-18.4zm-2.1 16.3c-3.9 3.9-10.2 3.9-14.1 0-3.9-3.9-3.9-10.2 0-14.1 3.9-3.9 10.2-3.9 14.1 0 3.9 3.8 3.9 10.2 0 14.1z"/>
		<path class="s0" d="m33.4 21.5c-1.4-2.4-4-4-6.9-4-2 0-3.9 0.8-5.3 2l-0.3 0.3-0.1 0.1c-1.4 1.4-3.4 2.3-5.6 2.3-2.4 0-4.5-1-5.9-2.6l-1.5 3.7c0.5 2.4 1.7 4.6 3.5 6.5 5.1 5.1 13.3 5.1 18.4 0 2.3-2.4 3.5-5.3 3.7-8.3z"/>
		<path class="s0" d="m1.5 9.5c1.7-3.5 4.5-6.3 8-8l1.6 2.7z"/>
		<path class="s0" d="m14.5 4.5c-0.5 2.4-1.7 4.6-3.5 6.5-1.8 1.8-4.1 3-6.5 3.5l3.3 3 9.7-9.7z"/>
		<path class="s0" d="m11.1 4.2l-1.6-2.7-8 8 2.7 1.6c1.6-0.4 3.1-1.3 4.4-2.6 1.2-1.2 2-2.7 2.5-4.3z"/>
	</g>
</svg>