<svg version="1.2" xmlns="http://www.w3.org/2000/svg" viewBox="0 0 40 44" width="40" height="44">
	<title>40px-PoC_Gold_Reliquary_icon</title>
	<style>
		.s0 { opacity: .99;fill: #000000 } 
	</style>
	<path id="Path 0" class="s0" d="m14.1 4.4c-1.9 0.7-4.1 2.1-4.9 3.2-1 1.4-1.1 2.7-0.4 4.9 0.5 1.8 1.7 3.1 2.8 3.3 1.2 0.2 3.1-1 5.2-3.2l3.2-3.6c5.3 5.8 7.2 7 8.4 6.8 1.2-0.2 2.3-1.5 2.7-3.3 0.6-2.2 0.4-3.5-0.9-4.9-0.9-1-3.2-2.5-5-3.2-1.7-0.8-4.2-1.4-5.5-1.4-1.2 0.1-3.7 0.7-5.6 1.4zm-10.1 9.8c-0.8 0.7-1.3 2.7-1.2 4.5 0.1 1.8 0.8 3.6 1.4 4 0.7 0.3 1.9-0.3 2.6-1.3 0.7-1 1.2-3.2 1-4.8-0.2-1.6-0.8-3.1-1.4-3.3-0.5-0.2-1.6 0.2-2.4 0.9zm28.7 1c-0.3 1.3-0.4 3.3-0.2 4.5 0.3 1.3 1.2 2.3 2 2.3 1.1 0 1.4-1 1.2-4.2-0.1-2.3-0.7-4.3-1.3-4.5-0.6-0.2-1.3 0.6-1.7 1.9zm-26.1 18.4c-0.5 0.4-0.9 1.2-0.8 1.8 0.1 0.6 1.7 1.9 3.7 2.9 2.2 1 5.8 1.7 9.5 1.7 3.5 0 7.7-0.7 10.1-1.7 2.6-1.2 3.9-2.3 3.7-3.3-0.2-1-1.3-1.4-3.3-1.2-1.7 0.2-5.9 0.4-9.5 0.4-3.6 0-7.8-0.3-9.5-0.7-1.7-0.3-3.4-0.3-3.9 0.1zm10.4-18.4c-0.8 0.7-1.3 2.2-1.2 3.5 0.1 1.3 1.1 2.8 2.2 3.3q2 1 4 0c1.1-0.6 2-2 2-3.2 0-1.3-0.5-2.9-1.2-3.6-0.7-0.7-2-1.2-2.9-1.2-0.8 0-2.1 0.5-2.9 1.2zm-7.3 3.6c-0.2 0.4-0.7 2.3-1.1 4.2-0.5 2.8-0.2 3.9 1.6 5.7 1.3 1.3 3.9 2.7 5.8 3.3 2.3 0.6 4.8 0.6 7.3 0 2-0.6 4.8-2 6.2-3.2 2.4-2.1 2.5-2.6 1.4-5.8-0.6-1.9-1.4-3.9-1.8-4.3-0.3-0.5-2.4 1.4-4.6 4.2-2.2 2.8-4.2 5-4.5 5-0.3 0-2.2-2.2-4.3-4.9-2-2.8-4.1-5-4.7-5-0.5 0-1.1 0.3-1.3 0.8z"/>
</svg>