<svg xmlns="http://www.w3.org/2000/svg" xmlns:xlink="http://www.w3.org/1999/xlink" viewBox="0,0,255.99828,255.99828" width="64px" height="64px" fill-rule="nonzero"><defs><linearGradient x1="32" y1="6.001" x2="32" y2="58.001" gradientUnits="userSpaceOnUse" id="color-1"><stop offset="0" stop-color="currentColor"></stop><stop offset="1" stop-color="currentColor"></stop></linearGradient><linearGradient x1="30.723" y1="19" x2="30.723" y2="47" gradientUnits="userSpaceOnUse" id="color-2"><stop offset="0" stop-color="currentColor"></stop><stop offset="1" stop-color="currentColor"></stop></linearGradient></defs><g fill="none" fill-rule="nonzero" stroke="none" stroke-width="1" stroke-linecap="butt" stroke-linejoin="miter" stroke-miterlimit="10" stroke-dasharray="" stroke-dashoffset="0" font-family="none" font-weight="none" font-size="none" text-anchor="none" style="mix-blend-mode: normal"><g transform="scale(4,4)"><path d="M32,58c-14.337,0 -26,-11.663 -26,-26c0,-14.336 11.663,-26 26,-26c14.337,0 26,11.664 26,26c0,14.337 -11.663,26 -26,26zM32,8c-13.233,0 -24,10.767 -24,24c0,13.233 10.767,24 24,24c13.233,0 24,-10.767 24,-24c0,-13.233 -10.767,-24 -24,-24z" fill="url(#color-1)"></path><path d="M34.292,19l-17.212,8.13l2.662,12.253h3.51l-0.607,-8.764l0.539,-0.167l2.111,8.931h3.647l-0.135,-10.676l0.538,-0.167l1.846,10.843h3.862l0.911,-12.895l0.538,-0.168l0.956,13.064h5.106l1.798,-17.933zM31.345,44.399l-1.273,-3.279l12.275,0.631l-0.527,5.249z" fill="url(#color-2)"></path></g></g></svg>