<svg version="1.2" xmlns="http://www.w3.org/2000/svg" viewBox="0 0 40 40" width="40" height="40">
	<title>40px-RP_icon</title>
	<style>
		.s0 { opacity: .89;fill: currentColor }
	</style>
	<path id="Path 0" class="s0" d="m16.73 3.29c-2.71 2.16-2.76 2.4-2.5 11.61 0.26 8.93 0.41 9.5 3.02 11.5l2.75 2.1c5.36-4.1 5.51-4.67 5.77-13.6 0.26-9.21 0.21-9.45-2.5-11.61-1.53-1.22-3-2.22-3.27-2.22-0.27 0-1.74 1-3.27 2.22zm-12.79 9.1c-2.34 2.32-3.04 3.59-2.19 4 0.7 0.35 1.26 2.46 1.27 4.86 0.01 2.34-0.56 4.8-1.25 5.48-0.7 0.68-1.04 1.4-0.77 1.6 0.27 0.2 3.99 2.69 8.25 5.52 4.26 2.83 7.98 5.15 8.25 5.15 0.27 0 0.5-1.35 0.5-3 0-2.41-0.89-3.64-4.53-6.25l-4.53-3.25c-0.14-12.4-0.21-16.34-0.26-16.75-0.04-0.41-0.35-0.75-0.69-0.75-0.33 0-2.15 1.53-4.05 3.39zm27.43-1.64c-0.01 0.96-0.08 4.9-0.16 8.75l-0.15 7c-8.17 5.86-9.06 7.09-9.06 9.5 0 1.65 0.23 3 0.5 3 0.27 0 3.99-2.32 8.25-5.15 4.26-2.83 7.98-5.32 8.25-5.52 0.27-0.2-0.07-0.92-0.77-1.6-0.69-0.68-1.26-3.14-1.25-5.48 0.01-2.4 0.57-4.51 1.27-4.86 0.85-0.41 0.13-1.7-2.25-4.01-1.92-1.88-3.75-3.41-4.06-3.4-0.31 0.01-0.56 0.81-0.57 1.77z"/>
</svg>