<svg version="1.2" xmlns="http://www.w3.org/2000/svg" viewBox="0 0 34 34" width="34" height="34">
	<title>runes</title>
	<style>
		.s0 { fill: currentColor }
		.s1 { fill: none;stroke: currentColor;stroke-miterlimit:100;stroke-width: 2 }
	</style>
	<path class="s0" d="m16.9 3.8l0.1 5.9c0 0-5.8 6.8-6 7.6 2.1 0.7 4.1 1.7 5.9 3.1 0.9-0.9 1.6-2 2-3.1l-2-1.9c-0.8 0.6-1.4 1.3-1.9 2.1-0.4-0.3-0.9-0.6-1.4-0.7 0.8-1.6 1.9-3.1 3.2-4.4 1.3 1.8 2.7 3.5 4.4 5-1.3 1.8-2.8 3.4-4.3 5 0 0-1.7-1.8-9.3-4.9 0 0 7.1-6.3 9.3-13.7z"/>
	<path class="s0" d="m18 10.4c1.4 2.6 3.3 5 5.6 7 0 0-4.2 5.3-6.8 7.4v5.5c0 0 2.3-6.3 9.6-12.9 0.1-0.1-3.2-2.4-8.4-7z"/>
	<path id="Layer 1" fill-rule="evenodd" class="s1" d="m17 33c-8.8 0-16-7.2-16-16 0-8.8 7.2-16 16-16 8.8 0 16 7.2 16 16 0 8.8-7.2 16-16 16z"/>
</svg>