<svg version="1.2" xmlns="http://www.w3.org/2000/svg" viewBox="0 0 32 39" width="32" height="39">
	<title>rune</title>
	<style>
		.s0 { opacity: .99;fill: #000000 } 
	</style>
	<path id="Path 0" class="s0" d="m10.8 3.8c-1.2 2-4.3 6.2-6.7 9.2-3.3 4-4.1 5.6-3 6 0.8 0.2 3.6 2.2 6.4 4.4 2.7 2.2 5.1 4.3 5.2 4.8 0.2 0.4 0.6 0.8 1 0.8 0.5 0 2.6-2.3 4.8-5.1l4-5.1c-5.4-4.5-7.6-5.8-8.3-5.8-0.6 0-1.9 1-2.7 2.3-1.1 1.7-1.2 2.4-0.2 2.9 0.6 0.4 1.8 0.3 2.5-0.3 0.8-0.6 1.7-0.5 2.7 0.4 1.4 1.1 1.3 1.5-0.7 3.4l-2.3 2.2-7.5-6.4c5.5-7.3 6.9-10.6 7.2-13.3 0.3-2.3 0.4-4.2 0.2-4.2-0.1 0-1.3 1.7-2.6 3.8zm6.3 6.4c-0.1 0.2 1.9 1.8 4.4 3.6 2.5 1.7 4.5 3.7 4.5 4.2 0 0.6-2.5 4.1-5.5 8-4.1 5.2-5.5 7.9-5.5 10.3 0 1.7 0.2 3 0.4 2.7 0.3-0.3 2.3-3.3 4.5-6.8 2.3-3.4 5.7-8 7.6-10.2 1.9-2.2 3.3-4.5 3-5-0.3-0.6-2.4-2.1-4.8-3.4-2.3-1.3-5.2-2.7-6.4-3.1-1.1-0.3-2.2-0.5-2.2-0.3z"/>
</svg>