<svg version="1.2" xmlns="http://www.w3.org/2000/svg" viewBox="0 0 159 166" width="159" height="166">
	<title>il_1588xN</title>
	<style>
		.s0 { opacity: .93;fill: #010100 } 
	</style>
	<path id="Path 0" fill-rule="evenodd" class="s0" d="m79 11c6.4 0 12.1 0.6 17.5 2 4.4 1.1 11.6 3.8 16 5.9 4.6 2.3 10.7 6.4 14.4 9.8 6.2 5.5 6.7 5.8 15.6 5.1l2.7 8.9c1.5 4.8 3.7 15.1 4.9 22.8 1.5 10.1 2 16.4 1.6 22.5-0.3 4.7-1.5 11.7-2.7 15.5-1.2 3.8-3.7 9.9-5.6 13.5-1.8 3.6-5.7 9.4-8.7 13-2.9 3.6-8.2 8.6-11.7 11.2-3.6 2.5-9.4 6-13 7.7-3.6 1.7-9.4 3.8-13 4.8q-6.5 1.7-17.5 1.7c-7.3 0-13.2-0.5-17.5-1.7-3.6-1-9.7-3.3-13.5-5.1-3.9-1.8-9.9-5.5-13.4-8.2-3.6-2.7-8.6-7.6-11.3-10.9-2.6-3.3-6.3-8.9-8.2-12.5-1.9-3.6-4.4-9.7-5.6-13.5-1.7-5.2-2.4-10.4-2.7-20.5-0.5-11.4-0.3-14.1 1.2-17.5 1-2.2 3.4-10.3 9-32l5-0.3c4.4-0.3 5.7-1 10.5-5.4 3-2.7 9.1-6.7 13.5-8.9 4.4-2.1 11.4-4.8 15.5-5.9 4.7-1.2 11.1-1.9 17-2zm-21 8.8c-3.6 1.2-9.2 3.8-12.5 5.7-3.3 2-7.4 4.9-9 6.5l-3 2.8c6.2 1.9 10.9 3.9 14.5 5.8 3.6 1.8 8.3 4.9 10.5 6.8l4 3.5-4.4 4.6c-5.1-4.5-9.1-7-12.1-8.5-3-1.5-8-3.5-11-4.4-3-0.9-6-1.6-6.5-1.6-0.6-0.1-2.7 2.4-4.8 5.5-2 3-4.4 7.2-5.2 9.3-0.8 2-1.2 4-0.8 4.3 0.5 0.4 4.6 1.6 9.3 2.8 4.7 1.1 14.1 2.7 21 3.6 6.9 0.8 23.6 1.9 37.3 2.3 22.6 0.6 24.7 0.9 24.7 2.4 0 1.5-1.3 1.9-8.8 2.4-4.8 0.4-19.5 0.2-32.7-0.5-13.2-0.6-28.2-1.8-33.2-2.6-5.1-0.8-11.8-2.3-14.8-3.3-4.8-1.5-5.5-1.5-6-0.2-0.3 0.8-0.9 4-1.2 7l-0.6 5.5c14.6 5.6 22.6 8.2 27.3 9.3 4.7 1.2 11.9 2.7 16 3.4 4.2 0.7 15.2 1.2 25 1.2 14 0 19.5-0.5 27.5-2.2 5.5-1.2 12.9-3.1 16.5-4.3 3.6-1.1 9.8-3.5 13.8-5.3 6.3-2.7 7.3-3.4 7.2-5.6 0-1.4-0.7-5.2-1.5-8.5-0.9-3.3-3.1-9.2-4.9-13-1.8-3.9-4.2-8.1-5.2-9.4l-1.9-2.4c-10.8 3.6-16.7 5.9-20 7.6-3.3 1.6-6.7 3.5-7.5 4.3-1.3 1.2-1.8 1.1-3.7-1.1l-2.3-2.5c6.6-4.8 11.9-7.9 16-9.9 4.1-2 8.5-4 9.8-4.4 2.1-0.7 2.1-0.8-1.5-4.1-2.1-1.9-6.5-5-9.8-7-3.3-2-9.6-4.8-14-6.2-5.2-1.6-11.1-2.6-17-2.9-4.9-0.2-11 0-13.5 0.4-2.5 0.5-7.4 1.8-11 2.9zm-45.1 70c0.1 2 0.8 6.4 1.6 9.7 0.8 3.3 3.4 9.8 5.7 14.5 3.2 6.7 5.9 10.3 12.2 16.6 6.4 6.4 9.9 8.9 16.6 12.2 4.7 2.3 11.4 4.8 15 5.6 3.6 0.9 10.6 1.6 15.5 1.6 5 0 11.9-0.7 15.5-1.5 3.6-0.9 10.3-3.4 15-5.7 6.7-3.3 10.2-6 16.5-12.3 5.4-5.3 9.3-10.3 11.7-15 2-3.8 4.6-10.4 5.7-14.5 1.2-4.1 2.1-8.5 2.1-9.7 0-1.4-0.5-2.1-1.2-1.9-0.7 0.2-5.4 2-10.3 3.9-4.9 2-12.8 4.5-17.5 5.6-4.7 1.1-10.1 2.2-12 2.5-2.5 0.4-5.1 2.2-9.3 6.3l-5.8 5.8c1.6 11.2 2.1 15.1 2.1 15.8 0 0.6-3.5-4-7.7-10.3l-7.8-11.5c-1.1 12.4-1.6 16.1-1.7 16.2-0.2 0.2-2.3-3.5-4.8-8.2-2.5-4.7-4.7-8.5-5-8.5-0.3 0-1.2 2.3-2 5.2l-1.6 5.3-3.9-15.9c-8.5-2.1-15.3-4.1-20.5-5.8-5.2-1.7-12.8-4.6-16.8-6.4l-7.4-3.3zm108.6-37.8c0.5 0 2.2 0.8 3.7 1.8 1.5 0.9 3.4 2.6 4.2 3.7 1.2 1.6 1.7 1.8 2.7 0.8 0.7-0.7 2.2-1.3 3.3-1.3 1.4 0 2.4 1.1 3.3 3.5 1.2 3.2 1.1 4-1.7 10-1.6 3.6-3.3 6.5-3.7 6.5-0.4 0-3.3-2.5-6.4-5.7-4.4-4.5-6-7-7.2-11.3-1.1-4.1-1.2-5.8-0.4-6.7 0.6-0.7 1.6-1.3 2.2-1.3zm8.2 51.6c0.2 0.2-1.8 3-4.4 6.1-2.6 3.1-6.1 6.2-7.8 6.9-1.6 0.7-6.9 1.9-11.7 2.6-4.7 0.7-9 1-9.5 0.5-0.4-0.4 1.2-2.7 3.7-5.2 4.2-4.1 5.3-4.6 15.5-7 6.1-1.4 11.7-3 12.4-3.5 0.8-0.5 1.6-0.7 1.8-0.4zm-101.9 0.8c0.9 0.5 5.5 2 10.2 3.3 4.7 1.2 9.4 2.3 10.5 2.3 1.1 0 4 1.7 6.4 3.7 2.4 2.1 4.9 4.7 5.5 5.8 1.1 1.8 0.9 1.9-4.9 1.2-3.3-0.4-8.2-1.2-11-1.7-2.7-0.5-6.1-1.8-7.5-2.8-1.4-1.1-4.4-4.3-6.7-7.3-2.3-2.9-3.4-4.9-2.5-4.5zm89 19.7c0.1-0.1 0.2 0.1 0.2 0.4 0 0.3-5 3.8-11.1 7.8-7.2 4.7-11.8 8.4-15.3 14.2l-1.1-2.7c-0.8-2.2-1.7-2.7-6-3.2-2.7-0.3-8.2-0.6-12.2-0.6-6.8 0-7.4 0.2-11 5.5l-2.2-4.2c-1.4-3-3.3-4.9-6.1-6.3-2.2-1.1-3.9-2.2-3.7-2.5 0.1-0.3 3.4 0.3 7.2 1.4 5.4 1.6 10.4 2.1 37 2.4l12-6.1c6.6-3.4 12.1-6.1 12.3-6.1z"/>
</svg>