<svg version="1.2" xmlns="http://www.w3.org/2000/svg" viewBox="0 0 447 447" width="447" height="447">

	<style>
		.s0 { opacity: 1;fill:  currentColor }
	</style>
	<path id="Path 0" fill-rule="evenodd" class="s0" d="m197.7 29.8c0.2 0.4-1.4 7-3.6 14.7-2.2 7.7-6.5 22.8-9.6 33.5-3.1 10.7-7.8 26.9-10.5 36-2.7 9.1-5 17.8-5.2 19.4-0.3 2.8 0 3 5.7 4.7 3.3 0.9 11.6 3.1 18.5 4.9 6.9 1.8 16.3 4.3 21 5.7 8.3 2.4 8.7 2.4 15 0.8 3.6-0.9 15.9-4.1 27.5-7.1 11.6-3.1 21.4-5.9 21.8-6.2 0.4-0.4-1.7-9.2-4.7-19.7-3-10.5-6.5-22.8-7.9-27.5-1.4-4.7-5.7-19.5-9.6-33-3.9-13.5-7.1-25.1-7.1-25.8 0-0.6 4.2 2 9.3 5.9 5 3.9 14.8 11.9 21.7 17.7 6.9 5.8 15.6 13.6 19.5 17.2 3.8 3.6 10.7 10.1 15.4 14.5 4.6 4.4 14.3 14.5 21.5 22.5 7.2 8 16.3 18.3 20.2 23 3.9 4.7 11.3 14.1 16.5 21 5.2 6.9 12.2 16.6 15.5 21.5 3.4 4.9 8.1 12.3 14.9 23.6l-9.3 13.7c-5.2 7.5-19.3 28.5-31.4 46.7-15.4 22.9-22.3 32.5-22.8 31.5-0.4-0.8-1.3-4.4-1.9-8-0.7-3.6-2.4-11.4-3.8-17.5-1.4-6.1-4.1-14.4-6.1-18.5-2.5-5.3-5.5-9.4-10.1-14.1-4.8-4.8-8.1-7.1-12.3-8.7-3.2-1.2-7.9-2.2-10.5-2.2-2.7 0-7.3 0.8-10.3 1.8-3 1-8 3.5-11 5.4-3 1.9-8.4 6.6-12 10.4-3.6 3.8-7.7 9.2-9.2 11.9-1.5 2.8-3.8 9.3-5.1 14.5-1.4 5.2-3 14.2-3.7 20-1 8.3-1 12.5 0 20 0.7 5.2 2.1 12.2 3.2 15.5 1.1 3.3 3.8 9.8 6 14.5 2.1 4.7 6.4 12.2 9.4 16.7 3 4.6 5.4 8.5 5.4 8.8 0 0.3-5.7 8-12.7 17.2-6.9 9.3-16.9 22.4-31.8 41.6l-2.3-2.9c-1.3-1.6-10.7-13.9-21-27.3-10.3-13.5-19.3-25.4-20.1-26.5-1.3-1.9-0.9-2.8 4.2-10.6 3.1-4.7 7.4-12.3 9.6-17 2.2-4.7 4.6-10.5 5.4-13 0.9-2.5 2.1-7.2 2.7-10.5 0.7-3.3 1.3-10.5 1.3-16 0.1-5.5-0.5-13.4-1.2-17.5-0.7-4.1-2.2-10.9-3.3-15-1.1-4.1-2.7-8.8-3.5-10.5-0.9-1.7-2.8-4.8-4.3-7-1.5-2.2-5.3-6.5-8.4-9.5-3.1-3-7.8-6.8-10.4-8.4-2.6-1.6-7.2-3.7-10.2-4.8-3-1-7.6-1.8-10.2-1.8-2.7 0-7.4 1-10.5 2.2-4.3 1.6-7.5 3.8-12.4 8.7-4.7 4.7-7.6 8.8-10.1 14.1-2 4.1-4.5 11.3-5.6 16-1.2 4.7-2.6 11.4-3.3 15-0.6 3.6-1.6 8.3-2.1 10.5-0.5 2.4-1.2 3.6-1.7 3-0.5-0.6-12.7-18.6-27.1-40-14.4-21.4-28.3-42-35.5-52.4l4.4-7.3c2.5-4 7.8-12.2 11.9-18.3 4.1-6.1 11.1-15.7 15.5-21.5 4.4-5.8 13.9-17.5 21.1-26 7.2-8.5 20.5-22.9 29.6-32 9.1-9.2 19-18.9 22-21.6 3-2.7 10.4-9.2 16.5-14.5 6.1-5.2 14.2-11.9 18-15 3.9-3 8.8-6.9 10.9-8.6 2.1-1.8 4.1-2.9 4.3-2.5zm19.1 154.9c0.1 0.5-0.7 1.5-1.8 2.3-1.1 0.8-2 2.1-2 2.7 0 0.7-1.3 2.6-3 4.3-1.7 1.7-3 3.7-3 4.5 0 0.8-0.4 1.6-0.8 1.7-0.5 0.2-2.3 2.4-4 5-1.8 2.7-3.2 5.1-3.2 5.5 0.1 0.5 1.1 1.6 2.3 2.5 1.2 1 2.6 1.4 3.2 1 0.5-0.4 0.7-0.3 0.3 0.3-0.4 0.6 1.3 3.2 3.8 6 2.4 2.7 4.4 5.3 4.4 5.7 0 0.5 0.6 0.5 1.3 0.1q1.2-0.8 0.5 0.5c-0.5 0.6-0.2 1.8 0.5 2.4 0.7 0.7 2.5 3.9 4 7 1.5 3.2 3.3 5.8 4 5.8 0.6 0 2.2-1.8 3.5-4 1.2-2.2 2.2-4.6 2.2-5.3-0.1-0.6 1.8-3.2 4-5.7 2.2-2.5 4.1-4.9 4-5.5 0-0.6 1.2-1.9 2.7-3 1.5-1.1 4.2-3.3 6.1-5l3.4-3c-3.2-2.7-4.2-4.1-4.2-4.8-0.1-0.6-0.9-1.9-1.8-2.7-0.9-0.8-2.4-2.7-3.2-4.3-0.8-1.5-1.8-2.7-2.2-2.7-0.5 0-0.8-0.6-0.8-1.3 0-0.6-0.8-2.1-1.7-3.2-1-1.1-2.5-3.2-3.3-4.8-0.8-1.5-1.8-2.7-2.2-2.7-0.5 0-0.8-0.6-0.8-1.3 0-0.6-1-2.4-2.3-3.9-1.2-1.5-2.7-2.7-3.3-2.8-0.7 0-2.5 1.8-4 4-1.6 2.2-2.8 4.3-2.6 4.7z"/>
</svg>