<svg version="1.2" xmlns="http://www.w3.org/2000/svg" viewBox="0 0 56 56" width="56" height="56">

	<style>
		.s0 { fill: currentColor }
	</style>
	<path class="s0" d="m39.5 29.3q0.1-1.8-0.4-3.6c0.1-0.7 0.2-1.1 0.2-1.1l1.9-7.2c0 0-1.1 0.6-3.6 2.6-2.2 1.8-2.5 2.8-2.5 3.1 1.2 1.5 1.9 3.5 1.9 5.6 0 5.1-4.1 9.1-9.2 9.1-5 0-9.2-4-9.2-9.1 0-2.1 0.8-4 2-5.6-0.1-0.2-0.4-1.3-2.5-3-2.5-2.1-3.7-2.6-3.7-2.6l2 7.1c0 0 0.1 0.4 0.2 0.9q-0.5 1.8-0.5 3.6c0.1 2 0.6 3.9 1.7 5.6 1 1.7 2.5 3.1 4.2 4.1q1.4 0.8 3.1 1.2 0.1 0.4 0.4 0.9c0.6 0.8 2.3 2.5 2.3 2.5 0 0 1.7-1.7 2.2-2.5q0.4-0.5 0.5-0.9 1.5-0.3 2.9-1.1c1.8-0.9 3.2-2.3 4.3-4 1.1-1.7 1.7-3.6 1.8-5.6z"/>
	<path fill-rule="evenodd" class="s0" d="m27.7 18.9c0.6 0.4 2 1.8 2.6 3.2q0.2 0.4 0.3 0.8c2.2 1 3.8 3.2 3.8 5.8 0 3.6-3 6.5-6.6 6.5-3.6 0-6.5-2.9-6.5-6.5 0-2.5 1.4-4.6 3.5-5.7q0.2-0.4 0.4-0.9c0.6-1.4 2-2.8 2.5-3.2zm0 13.2c1.9 0 3.5-1.5 3.5-3.4 0-1.9-1.6-3.4-3.5-3.4-1.8 0-3.4 1.5-3.4 3.4 0 1.9 1.6 3.4 3.4 3.4z"/>
	<path fill-rule="evenodd" class="s0" d="m39 6.9c0 0 0.6 1.3 1.4 2 0.9 0.7 2.7 0.3 2.7 0.3 0 0-1.8 0.5-2.2 1.6-0.3 1-0.1 2.5-0.1 2.5 0 0-0.6-1.4-1.5-2.1-0.8-0.7-2.7-0.3-2.7-0.3 0 0 1.8-0.5 2.2-1.5 0.4-1.1 0.2-2.5 0.2-2.5zm-20.8 1.9c0 0 1.2 0.9 2.4 1.1 1.1 0.2 2.6-1.1 2.6-1.1 0 0-1.3 1.4-1.2 2.6 0.2 1.1 1.2 2.4 1.2 2.4 0 0-1.3-1-2.4-1.2-1.2-0.2-2.6 1.2-2.6 1.2 0 0 1.3-1.5 1.1-2.6-0.2-1.2-1.1-2.4-1.1-2.4zm18.3 7.5c0 0-1.4 0.1-1.9 0.7-0.5 0.7-0.6 1.8-0.6 1.8 0 0-0.2-1.1-0.7-1.8-0.5-0.6-1.9-0.7-1.9-0.7 0 0 1.4 0 1.9-0.7 0.5-0.7 0.7-1.8 0.7-1.8 0 0 0.1 1.1 0.6 1.8 0.5 0.7 1.9 0.7 1.9 0.7zm-19.9 24.7c0 0 0.1 1.1 0.6 1.8 0.5 0.6 2 0.7 2 0.7 0 0-1.5 0-2 0.7-0.5 0.7-0.6 1.8-0.6 1.8 0 0-0.2-1.1-0.6-1.8-0.5-0.7-2-0.7-2-0.7 0 0 1.5-0.1 2-0.7 0.4-0.7 0.6-1.8 0.6-1.8z"/>
</svg>