<svg version="1.2" xmlns="http://www.w3.org/2000/svg" viewBox="0 0 144 133" width="144" height="133">
	<title>teemo</title>
	<style>
		.s0 { opacity: .63;fill: #000000 } 
		.s1 { opacity: .99;fill: #000000 } 
		.s2 { opacity: .5;fill: none;stroke: #000000;stroke-miterlimit:100 } 
	</style>
	<g id="Path 0 copy 3">
		<path id="Path 0" fill-rule="evenodd" class="s0" d="m78.4 3.2c1.1 0.7 3.5 2.6 5.4 4.3 3.1 2.6 3.3 2.7 2.1 0.7-0.8-1.3-3.2-3.2-5.4-4.3-2.2-1.1-3.1-1.4-2.1-0.7zm-15.9 5.4c-1.9 1.5-1.9 1.5 0.2 0.5 1.3-0.6 2.3-1.3 2.3-1.6 0-0.3-0.1-0.5-0.3-0.5-0.1 0-1.1 0.7-2.2 1.6zm-41.5 4.8c-2.9 3-5.3 5.8-5.2 6.3 0.1 0.4 0.5 0.4 1-0.2 0.5-0.6 3-3.4 5.7-6.3 2.6-2.8 4.5-5.2 4.3-5.2-0.3 0-2.9 2.4-5.8 5.4zm11.8-2c1.5 2 2.8 3.7 2.9 3.6 0.2 0-0.6-1.4-1.7-3-1.1-1.7-2.4-3.3-2.9-3.7-0.5-0.3 0.3 1 1.7 3.1zm88.1 0.3c1.9 1.5 4.8 4.4 6.4 6.3 1.6 1.9 2.6 2.8 2.1 2-0.4-0.8-1.8-2.9-3-4.5-1.3-1.7-3.8-3.8-5.6-4.8l-3.3-1.9zm-64.1 1.1c-1.4 1.5-3.1 3.9-3.7 5.3-1 2.1-1 2.2 0.1 0.5 0.7-1 2.5-3.4 4.1-5.2 1.5-1.8 2.6-3.3 2.4-3.3-0.2 0-1.5 1.2-2.9 2.7zm55.4-1.5c-0.5 0.7-1.3 1.9-1.8 2.7-0.7 1.1-0.6 1.3 0.3 0.8 0.7-0.4 1.7-1.6 2.2-2.7 0.5-1.1 0.8-2 0.6-2-0.2 0-0.7 0.5-1.3 1.2zm-4.5 8l-1.7 3.3c3.1-3.9 4-5.4 4-5.8 0-0.4-0.1-0.7-0.3-0.7-0.2 0-1.1 1.4-2 3.2zm-17.7 0.3c0 0.8 0.4 1.2 1 1 0.5-0.3 0.8-1 0.5-1.5-0.3-0.6-0.7-1-1-1-0.3 0-0.5 0.6-0.5 1.5zm-76 5.5c-0.6 1.1-0.8 2-0.5 2 0.3 0 0.9-0.9 1.4-2 0.5-1.1 0.8-2 0.5-2-0.2 0-0.8 0.9-1.4 2zm87.7 4c-2.1 3.3-3.5 6-3.2 6 0.3 0 2.1-2.5 4-5.5 1.9-3.1 3.3-5.7 3.2-6-0.2-0.2-2 2.3-4 5.5zm-58.9-0.6c0.9 1.9 1.8 3.3 1.9 3 0.2-0.2-0.4-1.8-1.2-3.4-0.8-1.7-1.7-3-2-3-0.3 0 0.3 1.5 1.3 3.4zm9.2-0.7c0 0.7 1.1 2.5 2.6 4l2.6 2.8c-3.6-5.5-4.7-7.3-4.9-7.5-0.2-0.3-0.4 0-0.3 0.7zm-40.5 5.3c-0.3 0.5-0.4 1.2-0.3 1.5 0.2 0.2 0.6-0.2 0.9-1 0.3-0.9 0.5-1.5 0.3-1.5-0.2 0-0.6 0.4-0.9 1zm1 16.2c0.4 0.7 1.8 2.7 3.1 4.5l2.4 3.3c-3.9 4.6-5 6.3-5.1 6.7 0 0.4 0.8 1.4 1.8 2.2 1.6 1.3 1.6 1.3 0.5 0-0.7-0.8-1.2-1.8-1.2-2.2 0-0.4 1.1-2.1 2.5-3.7l2.5-3c-4.5-7-6.1-9-6.5-9-0.4 0-0.4 0.5 0 1.2zm52 10.8c-1.7 0.7-1.8 0.8-0.3 0.9 1 0 2-0.4 2.2-0.9 0.3-0.6 0.4-1 0.3-1-0.1 0.1-1.1 0.5-2.2 1zm-10.5 1q-1.5 0.9-0.3 0.9c0.7 0 1.5-0.4 1.7-0.9 0.3-0.6 0.4-1 0.3-1-0.1 0-0.9 0.4-1.7 1zm27-0.4c0.8 0.3 1.7 0.2 1.9-0.1 0.2-0.3-0.4-0.5-1.5-0.5-1.4 0.1-1.5 0.3-0.4 0.6zm-40 2.5c-2.4 0.6-5 2.8-9 7.6-3 3.7-6.6 7.6-7.9 8.7-1.4 1.1-4.2 3-6.4 4.1-3.6 1.8-3.8 2-2.1 3.5 1 0.8 1.5 0.9 1.1 0.2-0.5-0.8 1.2-2.5 4.8-4.8 3-1.9 7.4-6 9.7-9 2.4-3.1 5.5-6.4 7-7.5 1.5-1.1 3.5-1.9 4.3-1.9 0.8 0 1.7-0.5 1.9-1 0.3-0.6 0.4-1 0.3-1-0.1 0.1-1.8 0.5-3.7 1.1zm88.9 3.9c-2.4 2-2.4 2-0.2 1 1.3-0.6 2.5-1.5 2.7-2 0.3-0.6 0.4-1 0.2-1-0.2 0-1.4 0.9-2.7 2zm-18.8 0.1c-0.1 0.2 3.1 3.3 7.1 6.8 4 3.6 6.6 5.7 5.8 4.7-0.8-1.1-4-4.1-7.1-6.9-3-2.7-5.6-4.8-5.8-4.6zm-88.6 7.4c-2.8 2.8-6.1 5.8-7.5 6.8-2.3 1.6-2.2 1.6 0.8-0.1 1.8-0.9 5.4-3.9 8-6.5 2.6-2.6 4.5-4.8 4.2-5-0.3-0.1-2.8 2-5.5 4.8zm102-0.6c1.6 1.8 4.7 4.5 6.7 6.1 2.1 1.6 3.8 2.8 3.9 2.6 0.1-0.1-3-2.9-6.7-6.2-3.8-3.2-5.6-4.3-3.9-2.5zm1.4 6.3c0 0.1 0.8 0.9 1.8 1.8 1.6 1.3 1.7 1.3 0.7-0.3-0.5-1-1.3-1.7-1.7-1.7-0.4 0-0.7 0.1-0.8 0.2zm5.1 7.3l-3.5 2.5c4.6 0 5.6-0.3 5.2-0.8-0.4-0.4 0-1.5 0.9-2.5 0.9-1 1.5-1.7 1.3-1.7-0.3 0-2 1.2-3.9 2.5zm-119.8 1.2c1 0.9 1.4 2.2 1 2.7-0.4 0.5-0.2 0.6 0.5 0.2 1-0.5 1-1.1 0-2.6-0.8-1.1-1.8-2.1-2.3-2.1-0.5 0-0.1 0.8 0.8 1.8zm110.1-0.8c-0.4 0.6 0 0.8 1 0.5 0.9-0.2 1.7-0.7 1.7-0.9 0-0.3-0.4-0.5-1-0.5-0.5 0-1.3 0.4-1.7 0.9zm-101.8 1.6c1.1 0.9 2.9 2 4 2.6l2 1c-3.1-2.6-4.9-3.7-6-4.3l-2-1zm-5.5 6.5c2.5 2.3 7.6 6.6 11.5 9.5 3.8 3 7.2 5.1 7.5 4.8 0.3-0.3-0.2-0.8-1-1.1-0.8-0.3-4.9-3.3-8.9-6.6-4.1-3.4-8.8-7.1-10.5-8.4-1.7-1.3-1.1-0.5 1.4 1.8zm117.8-2.3c-1.2 1.5-1.1 1.5 0.9 0.5 1.3-0.7 2.3-1.4 2.3-1.7 0-0.3-0.4-0.5-0.9-0.5-0.5 0-1.5 0.8-2.3 1.7zm-7.6 6.3c-2.9 2.8-4.9 5-4.5 5 0.4 0 3-2.2 5.7-5 2.8-2.7 4.8-5 4.5-5-0.2 0-2.8 2.3-5.7 5zm7.7-1.7c-1.3 1.2-3.5 2.9-4.8 3.7-2.3 1.5-2.3 1.6-0.5 3 1.7 1.4 1.7 1.4 0.7 0-1-1.2-0.8-1.8 1.5-3.1 1.5-0.9 3.5-2.6 4.6-3.8 1-1.1 1.7-2.1 1.5-2-0.3 0-1.6 1-3 2.2zm-120.9 0c0 0.4 2.8 3.2 6.2 6.3 3.5 3.1 6.3 6.1 6.4 6.7 0 0.7 0.1 1.7 0.2 2.2 0 0.6 1.8 2.3 3.9 3.8l3.8 2.9c-5.4-4.9-7-7.1-7-8.1 0-1-3-4.6-6.7-8.2-3.7-3.5-6.8-6-6.8-5.6zm112.5 13.3c-2.9 2.6-3.2 3.1-1 1.6 1.6-1 3.6-2.7 4.3-3.5 0.7-0.9 1.2-1.7 1-1.7-0.2 0-2.1 1.7-4.3 3.6zm-89.5-1.1c0 0.3 0.9 1 2 1.5 1.1 0.6 2 0.8 2 0.6 0.1-0.3-0.8-1-1.9-1.6-1.1-0.6-2-0.8-2.1-0.5zm82.5 1.1c-2 1.5-1.9 1.5 0.2 0.5 1.3-0.6 2.3-1.3 2.3-1.6 0-0.3-0.1-0.5-0.3-0.5-0.1 0-1.2 0.7-2.2 1.6zm-86 4.3c1.6 1 4.6 2.6 6.5 3.5 1.9 0.9 2.6 1.1 1.6 0.4-1-0.7-3.4-2.3-5.2-3.5-1.9-1.3-4-2.3-4.7-2.3-0.7 0 0.1 0.9 1.8 1.9zm79.6 3.2c-3 1.6-5.3 3.2-5.3 3.4 0.1 0.3 2.8-0.9 5.9-2.7 3.2-1.7 6-3.3 6.2-3.5 0.2-0.1 0-0.3-0.5-0.3-0.5 0-3.3 1.4-6.3 3.1zm-4.1-2.1q-1.5 1-0.3 1c0.7 0 1.5-0.4 1.7-1 0.3-0.5 0.4-1 0.3-1-0.1 0-0.9 0.5-1.7 1zm-65 3.5c0 0.3 0.9 1 2 1.5 1.1 0.6 2 0.8 2 0.6 0.1-0.3-0.8-1-1.9-1.6-1.1-0.6-2-0.8-2.1-0.5zm58.5 4.1c-2 1.5-2 1.5 0 0.6 1.1-0.5 2.7-1.2 3.5-1.5 1.3-0.5 1.3-0.5 0-0.6-0.9 0-2.5 0.6-3.5 1.5zm-43.5 0.9c0 0.3 0.9 0.7 2 1 1.1 0.3 1.8 0.1 1.5-0.5-0.3-0.5-1.2-1-2-1-0.8 0-1.5 0.2-1.5 0.5zm13.5 0.2c1.1 0.3 2.7 0.3 3.5 0 0.8-0.2-0.1-0.4-2-0.4-1.9 0-2.6 0.2-1.5 0.4zm23.9 1.2c-0.4 0.5 0.2 0.8 1.4 0.5 1.2-0.2 2.2-0.6 2.2-0.9 0-0.3-0.7-0.5-1.5-0.5-0.8 0-1.7 0.4-2.1 0.9zm-38.4 2.8c0.8 0.3 1.7 0.2 1.9-0.1 0.2-0.3-0.4-0.5-1.5-0.5-1.4 0.1-1.5 0.2-0.4 0.6z"/>
		<path id="Path 1" fill-rule="evenodd" class="s1" d="m76 2.2l3.7 2.2c2 1.1 4.7 3.4 6.1 5.1 1.3 1.7 2.9 4.9 3.5 7.2 0.8 2.7 1.6 3.9 2.2 3.2 0.6-0.6 1.5 0.1 2.3 1.9 0.9 1.7 1.2 4.5 0.8 7.9-0.6 5.1-0.5 5.3 1.9 5.3 1.9 0 3.2-1.2 5.8-5.3 1.7-2.9 3.8-6.1 4.5-7.2 0.7-1.1 1.9-3.4 2.6-5 0.8-1.7 2.6-4.2 4-5.8 1.4-1.5 3.1-2.7 3.6-2.7 0.5 0 3.3 2.1 6.1 4.8 3.2 2.9 6.2 7 7.9 10.7 1.5 3.3 3.3 8.5 3.9 11.5 0.9 3.9 0.9 6.9 0.1 10.3-0.5 2.6-1.8 6.3-2.7 8.2-1.5 3-1.6 3.9-0.5 5.5 0.6 1.1 1.2 2.7 1.2 3.5 0 0.8-1.2 2.3-2.7 3.2-1.6 1-3 1.8-3.3 1.8-0.3 0-1.1 0.4-1.7 0.8-0.7 0.4-2.1 0.4-3 0-1.5-0.7-1.5-0.5-0.5 1.5 0.7 1.2 3.9 4.6 7.2 7.5 3.3 2.8 6 5.5 6 6 0 0.4-1.7 1.9-7.5 5.9l4.3-0.6c3.2-0.5 4.3-0.3 4.7 0.9 0.3 0.8-0.5 3-1.8 4.8-1.3 1.7-4 4.2-6 5.5-3.6 2.1-3.7 2.3-1.9 4.3 1.7 2.1 1.6 2.2-2.3 5.5-2.2 1.9-6.7 4.8-10 6.4-3.3 1.6-7.1 3.5-8.5 4.3-1.4 0.8-4.3 2.2-6.5 3.2-2.2 0.9-4.7 2.1-5.5 2.5-0.8 0.4-4.2 1.3-7.5 2-3.9 0.8-10.9 1-20 0.7-10.6-0.3-15.3-1-19.5-2.5-3-1.1-7.8-3.3-10.6-4.8-2.8-1.6-6.6-4.1-8.5-5.6-1.9-1.5-3.4-3.6-3.4-4.6 0-1-3-4.8-6.7-8.3-3.7-3.5-6.7-7-6.8-7.7 0-0.6 0.3-1.2 0.7-1.2 0.5 0 3.3 2.1 6.3 4.6 3 2.6 7.5 6.1 9.9 7.8 2.4 1.7 4.6 3.1 5 3.1 0.3 0.1 1.7 0.7 3.1 1.4 2.4 1.3 2.4 1.4 0.5 2.3-1.1 0.6-3.6 0.7-5.5 0.4-3.3-0.6-3.1-0.5 2 2.5 3 1.8 6 3.3 6.5 3.4 0.5 0 2 0.6 3.2 1.3 1.3 0.7 2.3 0.9 2.3 0.5-0.1-0.5 0.6-0.1 1.5 0.7 0.9 0.8 1.6 1.2 1.5 0.8 0-0.5 2.6 0 5.7 1 5.3 1.6 7.1 1.7 20.3 0.6 12.3-1 15.9-1.7 23.5-4.5 5-1.9 12.4-5.2 16.5-7.3 6.6-3.5 7.2-4.1 5.2-4.8-1.2-0.4-2.2-1.3-2.2-1.8 0-0.5 1-1.4 2.2-1.9 1.3-0.5 4.1-2.8 6.3-5.1 2.2-2.3 5.2-4.8 6.7-5.6 1.6-0.8 2.6-1.7 2.3-2.2-0.2-0.4-1-0.1-1.7 0.6-0.9 0.9-2.9 1.1-6.3 0.8-2.8-0.3-5.6-1.3-6.3-2.1-1-1.3-0.3-2 10.8-8l-3.4-2.5c-1.9-1.4-6.3-5.1-9.8-8.2-4.3-3.9-8.2-6.4-12.3-7.8-3.3-1.2-10.3-2.8-15.5-3.5-5.2-0.8-12.9-1.4-17-1.4-4.1 0-9.8 0.1-12.5 0.3-2.8 0.2-5.9 0.6-7 0.9-1.1 0.3-4.5 0.9-7.5 1.2-3 0.4-6.2 1-7 1.4-0.8 0.5-4 3.7-7 7.2-3 3.5-6.6 7.3-7.9 8.4-1.3 1.1-4.3 3-10.6 6.2l5.8 3.9c3.9 2.6 5.4 4.1 4.5 4.6-0.7 0.4-3.3 0.8-5.8 0.8-2.9 0.1-4.9-0.5-5.8-1.5-1-1.2-0.9-1.6 0.5-2 1.6-0.5 1.6-0.7-0.4-2.8-1.3-1.2-2.3-2.5-2.3-3 0-0.4 2.4-2.2 5.2-4.1 2.9-1.8 7.1-5.2 9.3-7.5 2.2-2.2 3.8-4.3 3.5-4.5-0.3-0.3-3-1-6-1.6-3-0.6-6.1-1.6-6.8-2.3-0.7-0.7-1.3-1.5-1.2-2 0-0.4 1.1-2.1 5-6.7l-3.4-4.8c-1.9-2.6-3.5-5.2-3.6-5.7-0.2-0.5-0.5-1.5-0.7-2-0.2-0.5-0.2-3.3 0.1-6 0.3-2.8 0.6-5.7 0.7-6.5 0.1-0.8 0.7-2.1 1.3-2.8 0.7-0.8 0.7-1.3 0.1-1.2-0.6 0-0.4-0.5 0.2-1.2 0.7-0.7 1.5-2.4 1.8-3.8 0.3-1.4 1.3-3.4 2.2-4.5 1-1.1 3.5-3.9 5.8-6.3 2.2-2.3 4.6-4.2 5.2-4.2 0.7 0 2.9 2.1 4.9 4.7 1.9 2.7 5.7 9.2 13.4 24.3l4.7-1.5c2.7-0.8 4.9-1.5 5-1.5 0.2 0-0.8-1.7-2.2-3.8-1.4-2-2.5-4.9-2.5-6.5 0-1.5 1.1-4.4 2.4-6.5 1.3-2 3.2-4.5 4.2-5.4 1.1-1 5.4-3.5 9.7-5.7zm-14.9 14.1c-1.3 1.2-2.8 3.3-3.3 4.7-0.6 1.6-0.6 3.7 0.1 5.8 0.6 1.8 1.9 3.7 3 4.2 1.1 0.6 7.9 1 15 1 11.5 0 13.1-0.2 13.7-1.7 0.4-1.1 0-2.2-0.9-2.8-0.9-0.5-1.9-2.8-2.3-5-0.4-2.2-1.3-5.1-2-6.5-0.7-1.4-2.4-3.9-3.8-5.7-1.5-1.8-3.2-3.3-3.9-3.3-0.7 0-4 1.6-7.3 3.6-3.3 2-7 4.5-8.3 5.7zm-35.8-0.1c-1.7 1.8-4 5.1-5.1 7.3-1.1 2.2-2.6 6.5-3.2 9.5-0.7 3-0.9 7.5-0.6 10 0.4 2.8 1.7 5.9 3.6 8.3 2.8 3.6 3 3.7 5.7 2.3 1.5-0.7 3.9-3.1 5.3-5.2 1.5-2.1 4.6-5.2 7-6.8 2.5-1.7 4.5-3.1 4.7-3.3 0.1-0.2-2.3-4.9-5.3-10.5-3-5.7-6.3-11.3-7.3-12.6l-1.7-2.2zm83.2 10.7c-3 5.3-5.5 9.9-5.5 10.3 0 0.4 2.5 2 5.5 3.5 4 2 6.1 3.8 7.8 6.7 1.4 2.5 3.9 4.9 6.5 6.3l4.2 2.2c2.4-5.5 3-10 3-14.5 0-4.7-0.7-9.2-1.8-12.2-1-2.6-3.5-7.1-5.5-10-2-2.9-4.1-5.3-4.6-5.3-0.4 0-1.5 0.8-2.4 1.8-0.9 1-4.1 6-7.2 11.2zm-61.5 14.6c-3.1 1.4-6.6 3.5-7.9 4.7-1.3 1.3-3.4 3.9-4.7 6-1.5 2.3-4.3 4.7-7.2 6.1-2.6 1.3-5.3 3.1-6 4-1.1 1.5-0.6 1.7 4 2.2 4.2 0.5 6.2 0.1 9.8-1.6 2.4-1.2 8.7-3.3 14-4.6 7.7-1.9 12-2.4 23-2.4 7.4 0 16.4 0.5 20 1.1 3.5 0.5 9.4 1.9 13 3.1 3.5 1.1 8.2 3 10.2 4.2 3.6 2 4 2.1 8.5 0.6l4.8-1.5c-9.2-5.4-12.5-7.9-13.3-9-0.7-1.1-2.3-3.5-3.5-5.4-1.8-2.7-3.9-4.1-10.7-6.7-4.7-1.8-10.7-3.8-13.3-4.3-2.6-0.6-9.1-1-14.5-0.9-5.3 0-12.2 0.5-15.2 1-3.1 0.5-8 2-11 3.4z"/>
		<path id="Path 2" class="s0" d="m69.5 9.4c-3.3 1.9-7.4 4.9-9 6.7l-3 3.3c6.4-5.4 10.5-8.1 13.4-9.7 2.8-1.5 5.8-2.5 6.6-2.2 0.8 0.3 2.9 2.4 4.5 4.7 1.7 2.4 3.1 3.8 3.1 3.3-0.1-0.6-1.6-2.9-3.6-5.3-1.9-2.3-4.1-4.2-4.8-4.2-0.6 0-3.9 1.6-7.2 3.4zm-45.1 6.8l-2.9 3.3c5.1-4.7 6.5-6.1 6.5-6.3 0-0.1-0.1-0.2-0.3-0.2-0.2 0-1.7 1.5-3.3 3.2zm5.3-2.1c0.4 0.8 2 3.4 3.5 5.9 1.6 2.5 2.8 4.2 2.8 3.7 0-0.4-1.2-2.8-2.8-5.3-1.5-2.6-3-4.9-3.5-5.2-0.4-0.3-0.4 0.1 0 0.9zm85.7 1.1l-1.9 2.3c3.5-3.1 4.6-4.1 4.5-4.3 0-0.1-0.2-0.2-0.4-0.2-0.1 0-1.2 1-2.2 2.2zm6.8 3.3c2 2.8 4.3 6.6 5.2 8.5 0.8 1.9 1.6 2.8 1.6 2 0-0.8-1.8-4.3-4-7.8-2.2-3.4-4.5-6.5-5.2-6.9-0.7-0.4 0.4 1.5 2.4 4.2zm-65.5 3.2c-0.7 1.5-0.6 1.6 0.5 0.6 0.7-0.7 1.1-1.5 0.8-1.8-0.3-0.3-0.9 0.2-1.3 1.2zm29.3 0.3c0 0.5 0.4 1.2 1 1.5 0.5 0.3 0.8-0.2 0.6-1-0.3-0.8-0.7-1.5-1-1.5-0.3 0-0.6 0.4-0.6 1zm-47.6 6.8c1.2 2.2 2.2 3.9 2.3 3.6 0.2-0.2-0.4-1.8-1.2-3.4-0.8-1.6-1.9-3.3-2.3-3.6-0.5-0.4 0 1.2 1.2 3.4zm52.1-2.5c-0.6 0.7-1 2.2-1 3.4 0 1.2 0.3 1.9 0.6 1.5 0.4-0.4 0.9-1.9 1.2-3.5 0.3-1.5 0.5-2.7 0.4-2.7-0.1 0.1-0.7 0.6-1.2 1.3zm-30.8 4.9c0.7 0.7 1.5 1.1 1.8 0.8 0.3-0.3-0.3-0.9-1.2-1.3-1.5-0.7-1.6-0.6-0.6 0.5zm-18 4.1c0.4 0.9 1 1.5 1.3 1.2 0.3-0.3-0.1-1.1-0.8-1.8-1.1-1-1.2-0.9-0.5 0.6zm20.3 1.7q-1.5 1-0.3 1c0.7 0 1.5-0.5 1.8-1 0.2-0.5 0.3-1 0.2-1-0.1 0-0.9 0.5-1.7 1zm-14.5 3.6c-1.9 1.5-1.9 1.5 0.2 0.5 1.3-0.6 2.3-1.3 2.3-1.6 0-0.3-0.1-0.5-0.3-0.5-0.1 0-1.1 0.7-2.2 1.6zm57.5-1.1c0 0.3 1.9 1.5 4.2 2.6 2.4 1.2 4.9 2.9 5.6 3.8 1.1 1.4 1.1 1.4 0.5-0.3-0.5-1-2.9-3-5.5-4.3-2.6-1.3-4.8-2.1-4.8-1.8zm-69.1 3.8c-2 1.7-4.7 4.8-5.9 6.7-1.3 1.9-1.9 3-1.3 2.5 0.5-0.5 3.3-3.6 6.3-6.8 2.9-3.1 5.1-5.7 4.9-5.7-0.2 0-2 1.5-4 3.3zm4.9 0.6c-1.4 1-3.4 2.9-4.4 4.2-1.3 1.8-0.8 1.6 1.7-0.7 1.9-1.7 4.3-3.6 5.4-4.2 1.1-0.6 1.5-1.1 1-1.2-0.6 0-2.2 0.8-3.7 1.9zm-24.7 0.6c0 1.1 0.2 1.4 0.3 0.7 0.1-0.7 0.1-1.6-0.1-2-0.2-0.4-0.3 0.2-0.2 1.3zm92.9 0.7c-0.1 0.2 0.7 1 1.7 1.8 1.6 1.4 1.7 1.3 0.8-0.3-0.6-0.9-1.4-1.7-1.8-1.7-0.4 0-0.7 0.1-0.7 0.2zm4.4 6.3c0.8 1.6 2.4 3.9 3.7 5 2.3 1.9 2.2 1.9-0.1-1.1-1.4-1.7-3.1-4-3.8-5-0.7-1.1-0.7-0.7 0.2 1.1zm4.6-0.1c0.8 1 3.1 2.7 5 3.6 1.9 1 4 1.5 4.6 1.2 0.6-0.4 1.3-1.6 1.7-2.7 0.6-1.7 0.4-1.7-0.8 0.2-1.4 2.2-1.6 2.2-4.8 0.7-1.7-0.9-4.1-2.4-5.2-3.3-1.9-1.5-1.9-1.5-0.5 0.3zm-97 1.8c1.4 1.5 2.8 2.5 3.2 2.3 0.5-0.3 0.8-0.8 0.8-1.3 0-0.4-0.3-0.4-0.7 0.1-0.5 0.4-1.9-0.3-3.3-1.5l-2.5-2.3zm11.3 0.8c-0.4 0.6-2.8 2.1-5.3 3.4-2.5 1.3-5.4 3.1-6.5 3.9-1.7 1.3-1.8 1.7-0.6 2.9 0.8 0.7 1.1 0.8 0.8 0.3-0.4-0.6 0.1-1.8 1.1-2.7 0.9-0.9 3.5-2.5 5.7-3.6 2.2-1.1 4.6-2.7 5.3-3.6 0.7-0.9 1.1-1.6 0.8-1.6-0.3 0-0.9 0.4-1.3 1zm25.4 2.6c0.7 0.2 1.9 0.2 2.5 0 0.7-0.3 0.2-0.5-1.2-0.5-1.4 0-1.9 0.2-1.3 0.5zm28.3-0.1c0 0.3 0.7 0.7 1.5 1 0.8 0.3 1.3 0 1-0.5-0.3-0.6-1-1-1.5-1-0.6 0-1 0.2-1 0.5zm7 1c0 0.3 0.7 0.7 1.5 1 0.8 0.3 1.3 0 1-0.5-0.3-0.6-1-1-1.5-1-0.6 0-1 0.2-1 0.5zm5 1c0 0.3 0.7 0.7 1.5 1 0.8 0.3 1.3 0 1-0.5-0.3-0.6-1-1-1.5-1-0.6 0-1 0.2-1 0.5zm-58.5 2.5q-2 0.8-0.5 0.9c0.8 0 2.2-0.4 3-0.9 0.8-0.6 1-1 0.5-0.9-0.6 0-1.9 0.4-3 0.9zm-7.1 3c-0.5 0.6-0.1 0.8 0.9 0.5 0.9-0.3 1.7-0.7 1.7-1 0-0.3-0.4-0.5-1-0.5-0.5 0-1.2 0.4-1.6 1zm81.8 0.6c1 1 2 1.5 2.3 1.1 0.3-0.4-0.5-1.2-1.8-1.8-2.1-1.1-2.1-1.1-0.5 0.7zm-91.2-0.1c0 0.3 0.7 0.7 1.5 1 0.8 0.3 1.3 0 1-0.5-0.3-0.6-1-1-1.5-1-0.6 0-1 0.2-1 0.5zm69.7 1.1c0.7 0.2 1.9 0.2 2.5 0 0.7-0.3 0.2-0.5-1.2-0.5-1.4 0-1.9 0.2-1.3 0.5zm10.7 1.4c0.3 0.5 0.8 1 1.1 1 0.3 0 0.5-0.5 0.5-1 0-0.6-0.5-1-1.1-1-0.6 0-0.8 0.4-0.5 1zm-2.9 1.5c0.3 0.8 1.1 1.5 1.7 1.5 1 0.1 1-0.4 0.3-1.5-0.6-0.8-1.4-1.5-1.7-1.5-0.4 0-0.5 0.7-0.3 1.5zm-49.5 0c0 0.2 1.6 1.4 3.5 2.5 1.9 1.1 3.3 1.5 3 1-0.3-0.6-1.8-1.7-3.5-2.5-1.6-0.9-2.9-1.3-3-1zm3 17c0 0.3 1.6 1.4 3.5 2.5 1.9 1.1 3.5 1.6 3.5 1.2 0-0.5-1.6-1.6-3.6-2.5-1.9-0.9-3.4-1.5-3.4-1.2zm28.5 2c-0.9 0.9-1.6 1.9-1.6 2.3 0 0.4 1-0.2 2.1-1.3 1.1-1.1 2.1-2.1 2-2.3 0-0.1-0.2-0.2-0.4-0.2-0.3 0-1.2 0.7-2.1 1.5zm20-0.8c1.1 0.2 3.1 0.2 4.5 0 1.4-0.3 0.5-0.5-2-0.5-2.5 0-3.6 0.2-2.5 0.5zm-65 1c1.1 0.2 2.7 0.2 3.5 0 0.8-0.3-0.1-0.5-2-0.5-1.9 0-2.6 0.2-1.5 0.5zm53.5 0.3q-1.5 0.9-0.3 1c0.7 0 1.5-0.5 1.8-1 0.2-0.6 0.3-1 0.2-1-0.1 0-0.9 0.4-1.7 1zm-5.5 2.5c-1.9 1.5-1.9 1.5 0.5 0.4 1.4-0.7 2.7-1.4 2.9-1.6 0.2-0.2 0-0.3-0.5-0.3-0.5 0-1.8 0.7-2.9 1.5zm-17.5 2.1c0.8 0.3 1.7 0.3 1.9 0 0.2-0.4-0.4-0.6-1.5-0.5-1.4 0-1.5 0.2-0.4 0.5zm6-0.3c0.3 0.2 1.6 0.9 3 1.6 2.4 1.1 2.4 1.1 0.5-0.4-1.1-0.9-2.5-1.6-3-1.6-0.6 0-0.8 0.2-0.5 0.4zm-9.5 2.2c-0.3 0.8-0.1 2.3 0.4 3.2 0.7 1.4 0.9 1 0.7-1.5 0-1.8-0.2-3.2-0.4-3.2-0.1 0-0.5 0.7-0.7 1.5zm12 4c-1.9 1.5-1.9 1.6 0.2 0.5 1.3-0.5 2.3-1.2 2.3-1.5 0-0.3-0.1-0.5-0.3-0.5-0.1 0-1.1 0.7-2.2 1.5zm-5.5 2.1c0.8 0.3 1.7 0.3 1.9 0 0.2-0.4-0.4-0.6-1.5-0.5-1.4 0-1.5 0.2-0.4 0.5zm17.2 2c1 0.2 1.8 0.8 1.8 1.4 0 0.5-1.8 2.1-4 3.5-2.2 1.4-4 2.7-4 3 0 0.3 1.5-0.4 3.2-1.4 1.8-1.1 3.9-2.7 4.5-3.5 0.7-0.9 1.1-2.1 0.8-2.6-0.3-0.6-1.3-1-2.3-0.9-1.6 0.1-1.6 0.1 0 0.5zm-33.2 4.6c-0.1 0.2 0.7 1 1.7 1.8 1.6 1.3 1.7 1.3 0.8-0.3-0.6-0.9-1.4-1.7-1.8-1.7-0.4 0-0.7 0.1-0.7 0.2zm15 2.3q2 1 4 0c1.7-0.9 1.4-1-2-1-3.4 0-3.7 0.1-2 1zm0.8 2.7c0.4 0.5 1.8 0.4 3.2-0.1 2.4-0.9 2.4-1-0.7-0.8-1.8 0.1-2.9 0.5-2.5 0.9z"/>
		<path id="Path 3" fill-rule="evenodd" class="s1" d="m97 66c3.8-0.1 6 0.4 7 1.5 0.8 0.8 1.2 1.9 0.8 2.3-0.5 0.4-1.6-0.1-2.5-1.1-1.4-1.4-2.5-1.7-4.8-1.1-1.7 0.4-3.2 0.8-3.5 0.9-0.3 0.1-1.7 0.7-3.3 1.3-1.5 0.7-2.9 1.2-3.2 1.2-0.3 0-0.6-0.7-0.7-1.5-0.1-0.9 0.9-2 2.3-2.5 1.3-0.5 4.9-0.9 7.9-1zm-50 1c0.3 0 0.9 0.3 1.3 0.7 0.5 0.5 1.2 0.8 1.5 0.8 0.4 0 2.5 1 4.7 2.3q4 2.3 3 3.3c-0.7 0.6-3.4-0.1-8-2.3-5.7-2.6-6.6-3.3-5-3.9 1.1-0.4 2.2-0.8 2.5-0.9zm54.5 14c1.7 0 3.4 0.3 3.8 0.7 0.5 0.5 1.8 0.9 2.8 1.1 1 0.1 2.8 0.7 3.9 1.2 1.1 0.5 1.9 1.2 1.7 1.5-0.1 0.3-4.2 0.7-9.2 1-5 0.2-10.1 0.7-11.5 1-1.4 0.3-4.2 1.4-6.3 2.5-2.8 1.5-3.8 1.7-4.3 0.8-0.4-0.7 0.2-2.1 1.2-3.1 1.1-0.9 4.8-2.8 8.4-4.2 3.6-1.3 7.8-2.4 9.5-2.5zm-58 2.6c3.8 0.3 7.5 0.9 8 1.4 0.5 0.4 1.3 0.9 1.7 0.9 0.5 0.1 2.5 1 4.5 2.1q3.8 2.1 2.8 3.1c-0.7 0.7-3.3 0.3-8-1.1-3.9-1.2-9.9-2.3-13.5-2.4-4-0.2-6.6-0.7-6.8-1.4-0.1-0.7 0.8-1.7 2-2.2 1.3-0.6 5.4-0.8 9.3-0.4zm27.4 9.4c2.6 0 5.5 0.6 6.6 1.5 2 1.5 2 1.5-0.5 3.5-1.4 1.1-4 2-5.8 2-1.7 0-3.9-0.7-4.7-1.5-0.8-0.8-1.6-2.1-1.7-2.8-0.1-0.8 0.2-1.7 0.7-2 0.5-0.4 2.9-0.7 5.4-0.7zm-0.7 3.5c0.2 0.3 1.1 0.3 2 0 1-0.3 1.6-1 1.3-1.5-0.3-0.5-0.9-1-1.5-1-0.5 0-1.1 0.5-1.5 1-0.3 0.5-0.4 1.2-0.3 1.5zm18.1 6.7c0.9-0.1 1.7 0.3 1.7 0.8 0 0.5-2.1 2.4-4.8 4.2-4.1 2.7-5.7 3.1-12.2 3.4-4.1 0.1-9.1-0.2-11-0.8-1.9-0.5-4.9-2-9.5-5.7l6.5 1.5c3.6 0.8 8.1 2 10 2.6 3.1 0.9 4.2 0.7 10.5-2.4 3.8-1.9 7.8-3.6 8.7-3.6z"/>
		<path id="Path 4" class="s0" d="m69.4 95.3c-0.3 0.6-0.2 1.5 0.2 1.9 0.5 0.4 0.9-0.2 0.9-1.2 0.1-1.1 0-2-0.2-2-0.1 0-0.5 0.6-0.9 1.3zm4.1-0.5c0.3 0.7-0.1 1.4-0.8 1.6-1 0.4-1 0.5 0 0.5 0.7 0.1 1.5-0.4 1.8-0.9 0.3-0.5 0-1.3-0.5-1.7-0.6-0.3-0.8-0.1-0.5 0.5z"/>
		<path id="Stroke" fill-rule="evenodd" class="s2" d="m78.4 3.2c1.1 0.7 3.5 2.6 5.4 4.3 3.1 2.6 3.3 2.7 2.1 0.7-0.8-1.3-3.2-3.2-5.4-4.3-2.2-1.1-3.1-1.4-2.1-0.7zm-15.9 5.4c-1.9 1.5-1.9 1.5 0.2 0.5 1.3-0.6 2.3-1.3 2.3-1.6 0-0.3-0.1-0.5-0.3-0.5-0.1 0-1.1 0.7-2.2 1.6zm-41.5 4.8c-2.9 3-5.3 5.8-5.2 6.3 0.1 0.4 0.5 0.4 1-0.2 0.5-0.6 3-3.4 5.7-6.3 2.6-2.8 4.5-5.2 4.3-5.2-0.3 0-2.9 2.4-5.8 5.4zm11.8-2c1.5 2 2.8 3.7 2.9 3.6 0.2 0-0.6-1.4-1.7-3-1.1-1.7-2.4-3.3-2.9-3.7-0.5-0.3 0.3 1 1.7 3.1zm88.1 0.3c1.9 1.5 4.8 4.4 6.4 6.3 1.6 1.9 2.6 2.8 2.1 2-0.4-0.8-1.8-2.9-3-4.5-1.3-1.7-3.8-3.8-5.6-4.8l-3.3-1.9zm-64.1 1.1c-1.4 1.5-3.1 3.9-3.7 5.3-1 2.1-1 2.2 0.1 0.5 0.7-1 2.5-3.4 4.1-5.2 1.5-1.8 2.6-3.3 2.4-3.3-0.2 0-1.5 1.2-2.9 2.7zm55.4-1.5c-0.5 0.7-1.3 1.9-1.8 2.7-0.7 1.1-0.6 1.3 0.3 0.8 0.7-0.4 1.7-1.6 2.2-2.7 0.5-1.1 0.8-2 0.6-2-0.2 0-0.7 0.5-1.3 1.2zm-4.5 8l-1.7 3.3c3.1-3.9 4-5.4 4-5.8 0-0.4-0.1-0.7-0.3-0.7-0.2 0-1.1 1.4-2 3.2zm-17.7 0.3c0 0.8 0.4 1.2 1 1 0.5-0.3 0.8-1 0.5-1.5-0.3-0.6-0.7-1-1-1-0.3 0-0.5 0.6-0.5 1.5zm-76 5.5c-0.6 1.1-0.8 2-0.5 2 0.3 0 0.9-0.9 1.4-2 0.5-1.1 0.8-2 0.5-2-0.2 0-0.8 0.9-1.4 2zm87.7 4c-2.1 3.3-3.5 6-3.2 6 0.3 0 2.1-2.5 4-5.5 1.9-3.1 3.3-5.7 3.2-6-0.2-0.2-2 2.3-4 5.5zm-58.9-0.6c0.9 1.9 1.8 3.3 1.9 3 0.2-0.2-0.4-1.8-1.2-3.4-0.8-1.7-1.7-3-2-3-0.3 0 0.3 1.5 1.3 3.4zm9.2-0.7c0 0.7 1.1 2.5 2.6 4l2.6 2.8c-3.6-5.5-4.7-7.3-4.9-7.5-0.2-0.3-0.4 0-0.3 0.7zm-40.5 5.3c-0.3 0.5-0.4 1.2-0.3 1.5 0.2 0.2 0.6-0.2 0.9-1 0.3-0.9 0.5-1.5 0.3-1.5-0.2 0-0.6 0.4-0.9 1zm1 16.2c0.4 0.7 1.8 2.7 3.1 4.5l2.4 3.3c-3.9 4.6-5 6.3-5.1 6.7 0 0.4 0.8 1.4 1.8 2.2 1.6 1.3 1.6 1.3 0.5 0-0.7-0.8-1.2-1.8-1.2-2.2 0-0.4 1.1-2.1 2.5-3.7l2.5-3c-4.5-7-6.1-9-6.5-9-0.4 0-0.4 0.5 0 1.2zm52 10.8c-1.7 0.7-1.8 0.8-0.3 0.9 1 0 2-0.4 2.2-0.9 0.3-0.6 0.4-1 0.3-1-0.1 0.1-1.1 0.5-2.2 1zm-10.5 1q-1.5 0.9-0.3 0.9c0.7 0 1.5-0.4 1.7-0.9 0.3-0.6 0.4-1 0.3-1-0.1 0-0.9 0.4-1.7 1zm27-0.4c0.8 0.3 1.7 0.2 1.9-0.1 0.2-0.3-0.4-0.5-1.5-0.5-1.4 0.1-1.5 0.3-0.4 0.6zm-40 2.5c-2.4 0.6-5 2.8-9 7.6-3 3.7-6.6 7.6-7.9 8.7-1.4 1.1-4.2 3-6.4 4.1-3.6 1.8-3.8 2-2.1 3.5 1 0.8 1.5 0.9 1.1 0.2-0.5-0.8 1.2-2.5 4.8-4.8 3-1.9 7.4-6 9.7-9 2.4-3.1 5.5-6.4 7-7.5 1.5-1.1 3.5-1.9 4.3-1.9 0.8 0 1.7-0.5 1.9-1 0.3-0.6 0.4-1 0.3-1-0.1 0.1-1.8 0.5-3.7 1.1zm88.9 3.9c-2.4 2-2.4 2-0.2 1 1.3-0.6 2.5-1.5 2.7-2 0.3-0.6 0.4-1 0.2-1-0.2 0-1.4 0.9-2.7 2zm-18.8 0.1c-0.1 0.2 3.1 3.3 7.1 6.8 4 3.6 6.6 5.7 5.8 4.7-0.8-1.1-4-4.1-7.1-6.9-3-2.7-5.6-4.8-5.8-4.6zm-88.6 7.4c-2.8 2.8-6.1 5.8-7.5 6.8-2.3 1.6-2.2 1.6 0.8-0.1 1.8-0.9 5.4-3.9 8-6.5 2.6-2.6 4.5-4.8 4.2-5-0.3-0.1-2.8 2-5.5 4.8zm102-0.6c1.6 1.8 4.7 4.5 6.7 6.1 2.1 1.6 3.8 2.8 3.9 2.6 0.1-0.1-3-2.9-6.7-6.2-3.8-3.2-5.6-4.3-3.9-2.5zm1.4 6.3c0 0.1 0.8 0.9 1.8 1.8 1.6 1.3 1.7 1.3 0.7-0.3-0.5-1-1.3-1.7-1.7-1.7-0.4 0-0.7 0.1-0.8 0.2zm5.1 7.3l-3.5 2.5c4.6 0 5.6-0.3 5.2-0.8-0.4-0.4 0-1.5 0.9-2.5 0.9-1 1.5-1.7 1.3-1.7-0.3 0-2 1.2-3.9 2.5zm-119.8 1.2c1 0.9 1.4 2.2 1 2.7-0.4 0.5-0.2 0.6 0.5 0.2 1-0.5 1-1.1 0-2.6-0.8-1.1-1.8-2.1-2.3-2.1-0.5 0-0.1 0.8 0.8 1.8zm110.1-0.8c-0.4 0.6 0 0.8 1 0.5 0.9-0.2 1.7-0.7 1.7-0.9 0-0.3-0.4-0.5-1-0.5-0.5 0-1.3 0.4-1.7 0.9zm-101.8 1.6c1.1 0.9 2.9 2 4 2.6l2 1c-3.1-2.6-4.9-3.7-6-4.3l-2-1zm-5.5 6.5c2.5 2.3 7.6 6.6 11.5 9.5 3.8 3 7.2 5.1 7.5 4.8 0.3-0.3-0.2-0.8-1-1.1-0.8-0.3-4.9-3.3-8.9-6.6-4.1-3.4-8.8-7.1-10.5-8.4-1.7-1.3-1.1-0.5 1.4 1.8zm117.8-2.3c-1.2 1.5-1.1 1.5 0.9 0.5 1.3-0.7 2.3-1.4 2.3-1.7 0-0.3-0.4-0.5-0.9-0.5-0.5 0-1.5 0.8-2.3 1.7zm-7.6 6.3c-2.9 2.8-4.9 5-4.5 5 0.4 0 3-2.2 5.7-5 2.8-2.7 4.8-5 4.5-5-0.2 0-2.8 2.3-5.7 5zm7.7-1.7c-1.3 1.2-3.5 2.9-4.8 3.7-2.3 1.5-2.3 1.6-0.5 3 1.7 1.4 1.7 1.4 0.7 0-1-1.2-0.8-1.8 1.5-3.1 1.5-0.9 3.5-2.6 4.6-3.8 1-1.1 1.7-2.1 1.5-2-0.3 0-1.6 1-3 2.2zm-120.9 0c0 0.4 2.8 3.2 6.2 6.3 3.5 3.1 6.3 6.1 6.4 6.7 0 0.7 0.1 1.7 0.2 2.2 0 0.6 1.8 2.3 3.9 3.8l3.8 2.9c-5.4-4.9-7-7.1-7-8.1 0-1-3-4.6-6.7-8.2-3.7-3.5-6.8-6-6.8-5.6zm112.5 13.3c-2.9 2.6-3.2 3.1-1 1.6 1.6-1 3.6-2.7 4.3-3.5 0.7-0.9 1.2-1.7 1-1.7-0.2 0-2.1 1.7-4.3 3.6zm-89.5-1.1c0 0.3 0.9 1 2 1.5 1.1 0.6 2 0.8 2 0.6 0.1-0.3-0.8-1-1.9-1.6-1.1-0.6-2-0.8-2.1-0.5zm82.5 1.1c-2 1.5-1.9 1.5 0.2 0.5 1.3-0.6 2.3-1.3 2.3-1.6 0-0.3-0.1-0.5-0.3-0.5-0.1 0-1.2 0.7-2.2 1.6zm-86 4.3c1.6 1 4.6 2.6 6.5 3.5 1.9 0.9 2.6 1.1 1.6 0.4-1-0.7-3.4-2.3-5.2-3.5-1.9-1.3-4-2.3-4.7-2.3-0.7 0 0.1 0.9 1.8 1.9zm79.6 3.2c-3 1.6-5.3 3.2-5.3 3.4 0.1 0.3 2.8-0.9 5.9-2.7 3.2-1.7 6-3.3 6.2-3.5 0.2-0.1 0-0.3-0.5-0.3-0.5 0-3.3 1.4-6.3 3.1zm-4.1-2.1q-1.5 1-0.3 1c0.7 0 1.5-0.4 1.7-1 0.3-0.5 0.4-1 0.3-1-0.1 0-0.9 0.5-1.7 1zm-65 3.5c0 0.3 0.9 1 2 1.5 1.1 0.6 2 0.8 2 0.6 0.1-0.3-0.8-1-1.9-1.6-1.1-0.6-2-0.8-2.1-0.5zm58.5 4.1c-2 1.5-2 1.5 0 0.6 1.1-0.5 2.7-1.2 3.5-1.5 1.3-0.5 1.3-0.5 0-0.6-0.9 0-2.5 0.6-3.5 1.5zm-43.5 0.9c0 0.3 0.9 0.7 2 1 1.1 0.3 1.8 0.1 1.5-0.5-0.3-0.5-1.2-1-2-1-0.8 0-1.5 0.2-1.5 0.5zm13.5 0.2c1.1 0.3 2.7 0.3 3.5 0 0.8-0.2-0.1-0.4-2-0.4-1.9 0-2.6 0.2-1.5 0.4zm23.9 1.2c-0.4 0.5 0.2 0.8 1.4 0.5 1.2-0.2 2.2-0.6 2.2-0.9 0-0.3-0.7-0.5-1.5-0.5-0.8 0-1.7 0.4-2.1 0.9zm-38.4 2.8c0.8 0.3 1.7 0.2 1.9-0.1 0.2-0.3-0.4-0.5-1.5-0.5-1.4 0.1-1.5 0.2-0.4 0.6zm13.2-123.5c-4.2 2.1-8.6 4.7-9.6 5.6-1 1-2.9 3.4-4.2 5.5-1.4 2-2.4 5-2.4 6.5 0 1.5 1.1 4.4 2.5 6.5 1.4 2 2.4 3.7 2.2 3.7-0.1 0-2.4 0.7-5 1.5l-4.7 1.5c-7.7-15.1-11.5-21.6-13.5-24.2-1.9-2.6-4.1-4.8-4.8-4.8-0.7 0-3 1.9-5.3 4.3-2.2 2.3-4.8 5.1-5.7 6.2-0.9 1.1-1.9 3.1-2.2 4.5-0.3 1.4-1.1 3.1-1.8 3.8-0.7 0.7-0.8 1.3-0.2 1.2 0.6 0 0.5 0.5-0.1 1.2-0.6 0.7-1.2 2-1.3 2.8-0.1 0.8-0.4 3.8-0.7 6.5-0.3 2.8-0.4 5.5-0.1 6 0.2 0.6 0.5 1.5 0.7 2 0.1 0.6 1.7 3.2 3.6 5.8l3.4 4.7c-3.9 4.7-5 6.4-5.1 6.8 0 0.4 0.6 1.3 1.3 1.9 0.7 0.7 3.8 1.7 6.8 2.3 3 0.6 5.7 1.3 6 1.6 0.3 0.2-1.3 2.3-3.5 4.6-2.2 2.2-6.4 5.6-9.3 7.4-2.9 1.9-5.2 3.8-5.2 4.2 0 0.4 1 1.7 2.3 3 2 2 2 2.2 0.4 2.7-1.4 0.4-1.5 0.8-0.5 2.1 0.8 1 2.9 1.5 5.8 1.5 2.5-0.1 5.1-0.4 5.8-0.8 0.8-0.5-0.6-2-4.5-4.7l-5.8-3.8c6.3-3.3 9.2-5.2 10.6-6.3 1.3-1.1 4.9-4.8 7.9-8.4 3-3.5 6.2-6.7 7-7.1 0.8-0.5 4-1.1 7-1.4 3-0.4 6.4-0.9 7.5-1.2 1.1-0.4 4.2-0.8 7-1 2.7-0.1 8.4-0.3 12.5-0.3 4.1 0 11.8 0.6 17 1.4 5.2 0.7 12.2 2.3 15.5 3.5 4.1 1.4 8 3.9 12.3 7.8 3.5 3.2 7.9 6.8 9.8 8.2l3.3 2.5c-11 6-11.7 6.8-10.7 8 0.7 0.9 3.5 1.8 6.3 2.1 3.4 0.3 5.4 0.1 6.3-0.8 0.7-0.7 1.4-0.9 1.7-0.5 0.3 0.4-0.8 1.4-2.3 2.1-1.5 0.8-4.5 3.3-6.7 5.6-2.2 2.3-5 4.6-6.3 5.1-1.2 0.5-2.2 1.4-2.2 1.9 0 0.6 1 1.4 2.2 1.8 2 0.7 1.4 1.3-5.2 4.8-4.1 2.1-11.6 5.4-16.5 7.3-7.6 2.8-11.3 3.5-23.5 4.5-13.2 1.1-15 1-20.3-0.6-3.1-1-5.7-1.4-5.7-1 0 0.4-0.6 0-1.5-0.8-0.9-0.8-1.6-1.1-1.6-0.7 0.1 0.4-0.9 0.2-2.2-0.5-1.2-0.6-2.7-1.2-3.2-1.3-0.6-0.1-3.5-1.6-6.5-3.3-5.2-3-5.3-3.2-2-2.6 1.9 0.4 4.4 0.2 5.5-0.3 1.9-1 1.9-1.1-0.5-2.4-1.4-0.7-2.8-1.3-3.2-1.3-0.3-0.1-2.6-1.5-5-3.2-2.4-1.7-6.8-5.2-9.8-7.8-3-2.5-5.9-4.6-6.3-4.6-0.4 0-0.7 0.6-0.7 1.3 0 0.7 3.1 4.1 6.8 7.6 3.7 3.6 6.7 7.3 6.7 8.3 0 1 1.5 3.1 3.4 4.6 1.8 1.5 5.7 4 8.5 5.6 2.8 1.5 7.6 3.7 10.6 4.8 4.1 1.6 8.9 2.2 19.5 2.5 9.1 0.4 16.1 0.1 20-0.7 3.3-0.7 6.7-1.6 7.5-2 0.8-0.4 3.3-1.5 5.5-2.5 2.2-1 5.1-2.4 6.5-3.2 1.4-0.8 5.2-2.7 8.5-4.3 3.3-1.6 7.8-4.4 10-6.3 3.9-3.4 3.9-3.5 2.2-5.6-1.7-2-1.6-2.1 2-4.3 2-1.3 4.7-3.7 6-5.5 1.2-1.8 2.1-4 1.8-4.8-0.4-1.1-1.5-1.3-4.8-0.9l-4.2 0.6c5.8-4 7.5-5.5 7.5-5.9 0-0.4-2.7-3.1-6-6-3.3-2.9-6.6-6.3-7.2-7.5-1.1-2-1-2.2 0.5-1.5 0.9 0.4 2.2 0.4 2.9 0 0.7-0.4 1.5-0.8 1.8-0.8 0.3 0 1.7-0.8 3.2-1.8 1.5-0.9 2.8-2.4 2.8-3.2 0-0.8-0.6-2.4-1.3-3.4-1-1.6-0.9-2.6 0.5-5.5 1-2 2.2-5.7 2.8-8.3 0.8-3.4 0.7-6.4-0.1-10.3-0.6-3-2.4-8.2-3.9-11.5-1.7-3.7-4.8-7.8-7.9-10.7-2.8-2.6-5.6-4.8-6.1-4.8-0.6 0-2.2 1.3-3.6 2.8-1.4 1.5-3.2 4.1-4 5.7-0.8 1.7-2 3.9-2.6 5-0.7 1.1-2.8 4.3-4.6 7.2-2.5 4.1-3.8 5.3-5.7 5.3-2.4 0-2.5-0.1-1.9-5.2 0.3-3.4 0.1-6.2-0.8-8-0.8-1.8-1.7-2.4-2.3-1.8-0.7 0.6-1.4-0.6-2.2-3.3-0.6-2.3-2.2-5.5-3.6-7.2-1.3-1.6-4-3.9-6-5.1l-3.7-2.1zm1.2 4.4c3.3-2 6.6-3.6 7.3-3.6 0.7 0 2.4 1.5 3.9 3.3 1.4 1.7 3.1 4.3 3.8 5.7 0.7 1.4 1.6 4.3 2 6.5 0.4 2.2 1.5 4.5 2.3 5 0.9 0.6 1.3 1.7 0.9 2.8-0.6 1.5-2.2 1.7-13.7 1.7-7.1 0-13.9-0.4-15-1-1.1-0.5-2.4-2.5-3-4.2-0.6-2.1-0.7-4.2-0.1-5.8 0.5-1.4 2-3.5 3.3-4.7 1.3-1.2 5-3.8 8.3-5.7zm-41 2.3l1.8 2.3c0.9 1.3 4.2 6.9 7.2 12.6 3.1 5.6 5.4 10.3 5.3 10.5-0.1 0.1-2.2 1.6-4.7 3.2-2.4 1.7-5.5 4.7-7 6.9-1.4 2.1-3.8 4.5-5.3 5.2-2.6 1.3-2.9 1.2-5.7-2.3-1.9-2.4-3.2-5.5-3.6-8.3-0.3-2.5 0-7 0.6-10 0.6-3 2.1-7.3 3.2-9.5 1.1-2.2 3.4-5.5 5.1-7.3zm87.2 2.8c0.9-0.9 2-1.7 2.5-1.7 0.4 0 2.5 2.3 4.5 5.2 2.1 2.9 4.6 7.4 5.5 10 1.2 3 1.8 7.5 1.8 12.3 0 4.4-0.6 8.9-3 14.5l-4.2-2.3c-2.6-1.3-5.1-3.8-6.5-6.2-1.6-2.9-3.8-4.8-7.8-6.8-3-1.5-5.5-3.1-5.5-3.5 0-0.4 2.5-5 5.6-10.2 3-5.2 6.3-10.3 7.1-11.3zm-57.7 22.4c3-0.5 9.9-0.9 15.3-1 5.3-0.1 11.8 0.3 14.5 0.9 2.6 0.6 8.5 2.5 13.2 4.3 6.8 2.7 8.9 4 10.7 6.8 1.2 1.8 2.8 4.3 3.6 5.4 0.7 1.1 4 3.5 13.2 8.9l-4.7 1.5c-4.5 1.5-4.9 1.5-8.5-0.5-2.1-1.2-6.7-3.1-10.3-4.3-3.6-1.1-9.4-2.5-13-3.1-3.6-0.5-12.6-1-20-1-11 0-15.3 0.4-23 2.3-5.2 1.4-11.5 3.4-14 4.6-3.6 1.8-5.6 2.1-9.7 1.7-4.7-0.6-5.2-0.8-4-2.2 0.6-0.9 3.3-2.7 6-4 2.8-1.5 5.6-3.9 7.1-6.2 1.3-2 3.4-4.7 4.7-5.9 1.3-1.2 4.9-3.3 7.9-4.7 3-1.4 8-3 11-3.5zm11.5-28.7c-3.3 1.9-7.3 4.9-9 6.7l-3 3.3c6.4-5.4 10.6-8.2 13.4-9.7 2.8-1.5 5.8-2.5 6.6-2.2 0.8 0.3 2.9 2.4 4.5 4.7 1.7 2.4 3.1 3.8 3.1 3.3 0-0.6-1.6-2.9-3.6-5.3-1.9-2.3-4.1-4.2-4.7-4.2-0.7 0-4 1.5-7.3 3.4zm-45.1 6.8l-2.9 3.3c5.1-4.7 6.5-6.1 6.5-6.3 0-0.1-0.1-0.2-0.3-0.2-0.2 0-1.6 1.4-3.3 3.2zm5.3-2.1c0.4 0.8 2 3.4 3.5 5.9 1.6 2.5 2.8 4.1 2.8 3.7 0-0.4-1.2-2.8-2.7-5.4-1.6-2.5-3.1-4.8-3.5-5.1-0.5-0.3-0.5 0.1-0.1 0.9zm85.7 1.1l-1.9 2.3c3.5-3.1 4.6-4.1 4.5-4.3 0-0.1-0.2-0.2-0.3-0.2-0.2 0-1.3 1-2.3 2.2zm6.8 3.3c2 2.8 4.3 6.6 5.2 8.5 0.8 1.9 1.6 2.8 1.6 2 0-0.8-1.8-4.3-4-7.8-2.2-3.4-4.5-6.5-5.2-6.9-0.7-0.4 0.4 1.5 2.4 4.2zm-65.5 3.2c-0.7 1.4-0.6 1.5 0.5 0.6 0.7-0.7 1.1-1.5 0.8-1.8-0.3-0.4-0.9 0.2-1.3 1.2zm29.3 0.3c0 0.5 0.5 1.2 1 1.5 0.6 0.3 0.8-0.2 0.6-1-0.3-0.8-0.7-1.5-1-1.5-0.3 0-0.6 0.4-0.6 1zm-47.6 6.8c1.2 2.2 2.2 3.9 2.4 3.6 0.1-0.2-0.5-1.8-1.3-3.4-0.8-1.7-1.9-3.3-2.3-3.6-0.5-0.4 0.1 1.2 1.2 3.4zm52.1-2.5c-0.5 0.6-1 2.2-1 3.4 0 1.2 0.3 1.8 0.6 1.5 0.4-0.4 0.9-2 1.2-3.5 0.3-1.5 0.5-2.7 0.4-2.7-0.1 0-0.6 0.6-1.2 1.3zm-30.8 4.9c0.7 0.7 1.5 1.1 1.8 0.8 0.3-0.3-0.3-0.9-1.2-1.3-1.5-0.7-1.6-0.6-0.6 0.5zm-18 4c0.4 1 1 1.6 1.3 1.3 0.3-0.3-0.1-1.1-0.8-1.8-1.1-1-1.2-0.9-0.5 0.5zm20.3 1.8q-1.5 1-0.2 1c0.6 0 1.4-0.5 1.7-1 0.2-0.6 0.3-1 0.2-1-0.1 0-0.9 0.5-1.7 1zm-14.5 3.5c-1.9 1.5-1.9 1.6 0.3 0.5 1.2-0.5 2.2-1.2 2.2-1.5 0-0.3-0.1-0.5-0.3-0.5-0.1 0-1.1 0.7-2.2 1.5zm57.5-1c0 0.3 1.9 1.5 4.3 2.6 2.3 1.2 4.8 2.9 5.5 3.8 1.1 1.4 1.1 1.4 0.5-0.3-0.5-1.1-2.9-3-5.5-4.3-2.6-1.3-4.8-2.1-4.8-1.8zm-69.1 3.7c-2 1.8-4.7 4.9-5.9 6.8-1.3 1.9-1.9 3-1.3 2.5 0.5-0.6 3.3-3.6 6.3-6.8 2.9-3.1 5.1-5.7 4.9-5.7-0.2 0-2 1.5-4 3.2zm4.9 0.6c-1.4 1.1-3.4 3-4.4 4.3-1.3 1.8-0.8 1.6 1.7-0.7 1.9-1.7 4.3-3.6 5.4-4.3 1.1-0.6 1.6-1.1 1-1.1-0.5 0-2.2 0.8-3.7 1.8zm-24.7 0.7c0 1.1 0.2 1.4 0.3 0.7 0.1-0.8 0.1-1.7-0.1-2-0.2-0.4-0.3 0.2-0.2 1.3zm92.9 0.7c-0.1 0.2 0.7 1 1.7 1.8 1.6 1.3 1.7 1.3 0.8-0.3-0.6-0.9-1.4-1.7-1.8-1.7-0.4 0-0.7 0.1-0.7 0.2zm4.4 6.3c0.8 1.6 2.4 3.9 3.7 5 2.3 1.9 2.3 1.9-0.1-1.1-1.4-1.7-3.1-4-3.8-5-0.7-1.1-0.6-0.7 0.2 1.1zm4.6-0.1c0.8 1 3.1 2.6 5 3.6 1.9 1 4 1.5 4.6 1.2 0.6-0.4 1.3-1.6 1.7-2.7 0.6-1.7 0.4-1.7-0.8 0.2-1.4 2.2-1.6 2.2-4.7 0.7-1.8-0.9-4.2-2.4-5.3-3.3-1.9-1.5-1.9-1.5-0.5 0.3zm-97 1.8c1.4 1.5 2.8 2.5 3.3 2.3 0.4-0.3 0.7-0.9 0.7-1.3 0-0.4-0.3-0.4-0.7 0-0.4 0.5-1.9-0.2-3.3-1.5l-2.5-2.2zm11.3 0.8c-0.4 0.5-2.8 2.1-5.3 3.4-2.5 1.3-5.4 3.1-6.5 3.9-1.7 1.3-1.8 1.7-0.6 2.8 0.8 0.8 1.1 0.9 0.8 0.4-0.4-0.6 0.1-1.8 1.1-2.7 0.9-0.9 3.5-2.5 5.7-3.6 2.2-1.1 4.6-2.7 5.3-3.6 0.8-0.9 1.1-1.6 0.8-1.6-0.3 0-0.9 0.4-1.3 1zm25.5 2.5c0.6 0.3 1.8 0.3 2.5 0 0.6-0.2 0.1-0.4-1.3-0.4-1.4 0-1.9 0.2-1.2 0.4zm28.2 0c0 0.2 0.7 0.7 1.5 1 0.8 0.2 1.3 0 1-0.5-0.3-0.6-0.9-1-1.5-1-0.5 0-1 0.2-1 0.5zm7 1c0 0.2 0.7 0.7 1.5 1 0.8 0.2 1.3 0 1-0.5-0.3-0.6-0.9-1-1.5-1-0.5 0-1 0.2-1 0.5zm5 1c0 0.2 0.7 0.7 1.5 1 0.8 0.2 1.3 0 1-0.5-0.3-0.6-0.9-1-1.5-1-0.5 0-1 0.2-1 0.5zm-58.5 2.5q-2 0.8-0.5 0.9c0.8 0 2.2-0.4 3-0.9 0.8-0.6 1.1-1 0.5-1-0.5 0.1-1.9 0.5-3 1zm-7.1 2.9c-0.5 0.6-0.1 0.8 0.9 0.5 0.9-0.2 1.7-0.7 1.7-0.9 0-0.3-0.4-0.5-0.9-0.5-0.6 0-1.3 0.4-1.7 0.9zm81.8 0.7c1 1 2 1.5 2.3 1.1 0.3-0.4-0.5-1.2-1.7-1.9-2.2-1-2.2-1-0.6 0.8zm-91.2-0.1c0 0.2 0.7 0.7 1.5 1 0.8 0.2 1.3 0 1-0.5-0.3-0.6-0.9-1-1.5-1-0.5 0-1 0.2-1 0.5zm69.8 1c0.6 0.3 1.8 0.3 2.5 0 0.6-0.2 0.1-0.4-1.3-0.4-1.4 0-1.9 0.2-1.2 0.4zm10.6 1.5c0.3 0.5 0.8 1 1.1 1 0.3 0 0.5-0.5 0.5-1 0-0.6-0.5-1-1.1-1-0.6 0-0.8 0.4-0.5 1zm-2.8 1.5c0.2 0.8 1 1.5 1.7 1.5 0.9 0 0.9-0.4 0.2-1.5-0.6-0.8-1.4-1.5-1.7-1.5-0.4 0-0.5 0.6-0.2 1.5zm-49.6-0.1c0 0.3 1.6 1.5 3.5 2.6 1.9 1.1 3.3 1.5 3 1-0.3-0.6-1.8-1.7-3.5-2.6-1.6-0.8-2.9-1.3-3-1zm3 17.1c0 0.2 1.6 1.4 3.5 2.5 1.9 1.1 3.5 1.6 3.5 1.1 0-0.4-1.6-1.5-3.5-2.4-2-1-3.5-1.5-3.5-1.2zm28.5 2c-0.9 0.9-1.6 1.9-1.6 2.3 0 0.4 1-0.2 2.1-1.3 1.1-1.1 2.1-2.2 2-2.3 0-0.1-0.2-0.2-0.4-0.2-0.3 0-1.2 0.7-2.1 1.5zm20-0.8c1.1 0.2 3.1 0.2 4.5 0 1.4-0.3 0.5-0.5-2-0.5-2.5 0-3.6 0.2-2.5 0.5zm-65 0.9c1.1 0.3 2.7 0.3 3.5 0 0.8-0.2-0.1-0.4-2-0.4-1.9 0-2.6 0.2-1.5 0.4zm53.5 0.4q-1.5 0.9-0.2 0.9c0.6 0.1 1.4-0.4 1.7-0.9 0.2-0.6 0.3-1 0.2-1-0.1 0-0.9 0.4-1.7 1zm-5.5 2.5c-1.9 1.5-1.9 1.5 0.5 0.4 1.4-0.7 2.7-1.4 2.9-1.6 0.3-0.2 0-0.3-0.5-0.3-0.5 0-1.8 0.7-2.9 1.5zm-17.5 2.1c0.8 0.3 1.7 0.3 1.9-0.1 0.3-0.3-0.4-0.5-1.5-0.5-1.4 0.1-1.5 0.3-0.4 0.6zm6-0.3c0.3 0.2 1.6 0.9 3 1.6 2.4 1.1 2.4 1.1 0.5-0.4-1.1-0.9-2.4-1.6-3-1.6-0.5 0-0.8 0.2-0.5 0.4zm-9.5 2.2c-0.3 0.8-0.1 2.2 0.4 3.2 0.7 1.4 0.9 1 0.8-1.5-0.1-1.8-0.3-3.2-0.5-3.2-0.1 0-0.5 0.6-0.7 1.5zm12 4c-1.9 1.5-1.9 1.5 0.3 0.5 1.2-0.6 2.2-1.3 2.2-1.5 0-0.3-0.1-0.5-0.3-0.5-0.1 0-1.1 0.7-2.2 1.5zm-5.5 2.1c0.8 0.3 1.7 0.3 1.9-0.1 0.3-0.3-0.4-0.5-1.5-0.5-1.4 0.1-1.5 0.3-0.4 0.6zm17.3 2c0.9 0.2 1.7 0.8 1.7 1.4 0 0.5-1.8 2.1-4 3.5-2.2 1.3-4 2.7-4 3 0 0.2 1.5-0.4 3.3-1.5 1.7-1 3.8-2.6 4.5-3.5 0.6-0.8 1-2 0.7-2.5-0.3-0.6-1.3-1-2.2-0.9-1.7 0.1-1.7 0.1 0 0.5zm-33.3 4.6c-0.1 0.1 0.7 0.9 1.7 1.8 1.6 1.3 1.7 1.3 0.8-0.3-0.6-1-1.4-1.7-1.8-1.7-0.4 0-0.7 0.1-0.7 0.2zm15 2.3q2 1 4 0c1.7-0.9 1.4-1-2-1-3.4 0-3.7 0.1-2 1zm0.8 2.7c0.4 0.5 1.8 0.4 3.2-0.1 2.4-0.9 2.4-1-0.7-0.8-1.7 0.1-2.9 0.5-2.5 0.9zm18.3-45.2c-1.4 0.5-2.4 1.6-2.3 2.4 0.1 0.9 0.4 1.6 0.7 1.6 0.3 0 1.7-0.6 3.3-1.2 1.5-0.6 2.9-1.2 3.2-1.3 0.3-0.1 1.9-0.5 3.5-1 2.3-0.5 3.4-0.3 4.8 1.1 0.9 1 2.1 1.5 2.5 1.1 0.4-0.4 0-1.4-0.8-2.3-1-1-3.2-1.5-7-1.4-3 0-6.6 0.5-7.9 1zm-44.6 0.8c-1.6 0.6-0.7 1.4 5 4 4.6 2.2 7.3 2.9 8 2.2q1-0.9-3-3.2c-2.2-1.3-4.3-2.3-4.7-2.3-0.3 0-1-0.4-1.5-0.8-0.4-0.4-1-0.8-1.3-0.7-0.3 0.1-1.4 0.4-2.5 0.8zm47.5 15.7c-3.6 1.3-7.3 3.2-8.4 4.2-1 1-1.5 2.3-1.2 3 0.5 1 1.5 0.8 4.4-0.7 2-1.1 4.8-2.3 6.2-2.6 1.4-0.3 6.6-0.7 11.5-1 5-0.2 9.1-0.7 9.3-0.9 0.1-0.3-0.7-1-1.8-1.5-1.1-0.6-2.9-1.2-3.9-1.3-1-0.1-2.3-0.6-2.7-1-0.5-0.4-2.2-0.8-3.9-0.7-1.6 0-5.9 1.2-9.5 2.5zm-57.7 0.5c-1.3 0.5-2.2 1.5-2 2.1 0.1 0.8 2.7 1.3 6.7 1.4 3.6 0.1 9.7 1.2 13.5 2.4 4.7 1.5 7.3 1.8 8 1.2q1-1-2.7-3.1c-2.1-1.1-4.1-2.1-4.5-2.1-0.5-0.1-1.2-0.5-1.8-1-0.5-0.4-4.1-1.1-8-1.4-3.8-0.3-8-0.1-9.2 0.5zm31.2 9.6c-0.5 0.4-0.8 1.3-0.7 2 0.1 0.8 0.9 2 1.7 2.9 0.8 0.8 3 1.4 4.8 1.4 1.7 0 4.3-0.9 5.7-2 2.5-1.9 2.5-2 0.5-3.5-1.1-0.8-4-1.5-6.6-1.5-2.5 0.1-4.9 0.4-5.4 0.7zm5.1 1.4c0.3-0.6 0.9-1 1.5-1 0.5 0 1.1 0.4 1.4 1 0.3 0.5-0.3 1.2-1.2 1.5-1 0.3-1.9 0.3-2 0-0.2-0.3 0-1 0.3-1.5zm8.9 11.7c-6.3 3.1-7.4 3.4-10.5 2.4-1.9-0.5-6.4-1.7-10-2.5l-6.5-1.6c4.7 3.7 7.6 5.2 9.5 5.8 1.9 0.5 6.9 0.9 11 0.7 6.5-0.2 8.1-0.7 12.3-3.4 2.6-1.7 4.7-3.6 4.7-4.1 0-0.6-0.8-1-1.7-0.9-1 0.1-4.9 1.7-8.8 3.6zm-10.1-11.5c-0.3 0.7-0.2 1.6 0.2 2 0.5 0.3 0.9-0.2 0.9-1.3 0.1-1.1 0-1.9-0.2-1.9-0.1 0-0.5 0.5-0.9 1.2zm4.1-0.4c0.3 0.6-0.1 1.3-0.7 1.6-1 0.3-1 0.4 0 0.5 0.6 0 1.4-0.4 1.7-0.9 0.3-0.6 0.1-1.3-0.5-1.7-0.5-0.4-0.8-0.1-0.5 0.5z"/>
	</g>
</svg>