<svg version="1.2" xmlns="http://www.w3.org/2000/svg" viewBox="0 0 29 29" width="29" height="29">

	<style>
		.s0 { opacity: .99;fill: currentColor }
		.s1 { opacity: .79;fill: currentColor }
	</style>
	<g id="Background">
		<path id="Path 0" fill-rule="evenodd" class="s0" d="m14.9 2c0.9 0 3.3 1.8 5.3 4 2.1 2.2 3.8 4.7 3.8 5.5 0 0.8-0.3 1.7-0.8 1.9-0.4 0.2-1.1 3-1.6 6.2-0.4 3.3-1 6.5-1.2 7.2-0.3 0.7-2.3 1.2-5.4 1.2-3.1 0-5.1-0.5-5.4-1.3-0.2-0.6-0.8-3.8-1.2-7.1-0.5-3.2-1.2-6-1.6-6.2-0.5-0.2-0.9-1-1-1.8-0.1-0.8 1.5-3.3 3.7-5.5 2.1-2.3 4.5-4.1 5.4-4.1zm-4.3 6.7c0.2 0.7-0.3 1.3-1.1 1.3-0.8 0-1.5 0.4-1.5 1 0 0.5 1.3 2.1 3 3.5 1.7 1.4 3.4 2.5 4 2.5 0.6 0 2.4-1.1 4-2.5 1.6-1.4 3-3 3-3.5 0-0.6-0.7-1-1.5-1-0.8 0-1.3-0.6-1.1-1.3 0.3-0.6-0.5-2.2-1.7-3.4-1.2-1.3-2.5-2.3-2.8-2.3-0.3 0-1.5 1-2.6 2.2-1.1 1.3-1.9 2.9-1.7 3.5zm0.1 14.1c0.7 2.9 1.2 3.2 4.3 3.2 3.1 0 3.6-0.3 4.3-3.2 0.4-1.8 0.7-4.2 0.7-5.3 0.1-1.9-0.1-1.8-2.5 0.5l-2.5 2.5c-4.9-4.8-5.1-4.9-5-3 0 1.1 0.3 3.5 0.7 5.3z"/>
		<path id="Path 1" class="s1" d="m9.2 5.5c-2.3 2.5-4 5.1-3.8 5.8 0.4 1 0.5 1 0.5 0 0.1-0.7 1.7-3.1 3.7-5.3 2-2.3 4.5-4 5.7-4 1.2 0 3.4 1.6 5.2 3.8 1.7 2 3.4 4.4 3.7 5.2 0.4 0.9 0.7 1 0.7 0.3 0.1-0.7-1.8-3.3-4.2-5.8-2.3-2.5-4.9-4.5-5.8-4.5-0.8 0-3.4 2-5.7 4.5zm-2.2 10.8c0.3 2.5 0.5 2.7 0.6 0.8 0.2-1.3-0.1-2.7-0.4-3.1-0.4-0.5-0.5 0.6-0.2 2.3zm15.2-0.3c0 1.4 0.2 1.8 0.5 1 0.2-0.8 0.2-1.9 0-2.5-0.3-0.6-0.5 0.1-0.5 1.5zm-14 6.5c0 1.9 0.2 2.3 0.5 1 0.2-1.1 0.2-2.5-0.1-3-0.2-0.6-0.4 0.4-0.4 2zm13 0c0 1.9 0.2 2.3 0.5 1 0.2-1.1 0.2-2.5-0.1-3-0.2-0.6-0.4 0.4-0.4 2zm-11.9 4.5c0.3 1.1 1.8 1.5 5.7 1.5 2.9 0 5.4-0.4 5.5-1 0.1-0.6 0-0.7-0.2-0.3-0.2 0.5-2.5 0.8-5.3 0.8-3.1 0-5.2-0.5-5.5-1.3-0.3-0.6-0.3-0.5-0.2 0.3z"/>
		<path id="Path 5" class="s0" d="m13.4 8.3c-0.3 0.6-0.1 1.6 0.5 2.2q1.1 1 2.2 0c0.6-0.6 0.8-1.6 0.5-2.3-0.3-0.6-1-1.2-1.6-1.2-0.5 0-1.2 0.6-1.6 1.2z"/>
	</g>
</svg>