<svg version="1.2" xmlns="http://www.w3.org/2000/svg" viewBox="0 0 32 32" width="32" height="32">
	<title>Keyword_Trap</title>
	<defs>
		<linearGradient id="g1" x2="1" gradientUnits="userSpaceOnUse" gradientTransform="matrix(0,3.633,-3.947,0,14.043,24.447)">
			<stop offset=".25" stop-color="#000000"/>
			<stop offset=".75" stop-color="#000000"/>
		</linearGradient>
		<linearGradient id="g2" x2="1" gradientUnits="userSpaceOnUse" gradientTransform="matrix(0,9.137,-9.419,0,1.759,18.399)">
			<stop offset=".25" stop-color="#000000"/>
			<stop offset=".75" stop-color="#000000"/>
		</linearGradient>
		<linearGradient id="g3" x2="1" gradientUnits="userSpaceOnUse" gradientTransform="matrix(0,9.142,-9.425,0,20.816,18.602)">
			<stop offset=".25" stop-color="#000000"/>
			<stop offset=".75" stop-color="#000000"/>
		</linearGradient>
		<linearGradient id="g4" x2="1" gradientUnits="userSpaceOnUse" gradientTransform="matrix(0,14.524,-21.69,0,5.037,3.92)">
			<stop offset=".25" stop-color="#000000"/>
			<stop offset=".75" stop-color="#000000"/>
		</linearGradient>
	</defs>
	<style>
		.s0 { fill: url(#g1) } 
		.s1 { fill: url(#g2) } 
		.s2 { fill: url(#g3) } 
		.s3 { fill: url(#g4) } 
	</style>
	<g>
		<g>
			<path fill-rule="evenodd" class="s0" d="m14 26.3l2-1.9 2 1.9-2 1.8z"/>
			<path class="s1" d="m6.3 19.7l-3.4-1.3q0 0 0 0c0 0.6-0.5 1.1-1.1 1.1v0.1q0 0.5 0.1 1l0.1 0.1c0.6-0.1 1.2 0.2 1.4 0.7 0.2 0.6 0 1.2-0.5 1.5h-0.1q0.3 0.5 0.6 0.9h0.1c0.5-0.3 1.2-0.2 1.6 0.2 0.5 0.5 0.5 1.1 0.1 1.6q0.5 0.4 0.9 0.7l0.1-0.1c0.4-0.4 1-0.6 1.6-0.3 0.6 0.2 0.9 0.8 0.7 1.3l0.1 0.1q0.5 0.1 1.1 0.2c0.2-0.6 0.7-1 1.3-0.9q0.1 0 0.2 0l-1.3-3.3c-2.6-0.7-3.4-2.3-3.6-3.6z"/>
			<path class="s2" d="m28.6 21.6c0.2-0.5 0.8-0.8 1.4-0.7l0.1-0.1q0.1-0.5 0.1-1c-0.6-0.1-1.1-0.6-1.1-1.2q0 0 0 0l-3.4 1.3c-0.2 1.3-1 2.9-3.6 3.6l-1.3 3.3q0.1 0 0.2 0c0.6 0 1.1 0.4 1.3 0.9q0.6-0.1 1.1-0.2l0.1-0.1c-0.2-0.5 0.1-1.1 0.7-1.3 0.6-0.3 1.2-0.1 1.6 0.3v0.1q0.5-0.3 1-0.7c-0.4-0.5-0.4-1.1 0-1.5 0.5-0.5 1.2-0.5 1.7-0.2l0.1-0.1q0.3-0.4 0.5-0.9c-0.5-0.3-0.7-0.9-0.5-1.5z"/>
		</g>
		<g>
			<path class="s3" d="m8 15.4l-1.1 2.5c3.6-2 6.9-3.5 10.6-3 2.9 0.3 5.4 1.7 7.6 3.5l-1.4-3.1 3-3-3.9-1.9 0.1-4.1-4.3 0.8-2.7-3.2-2.8 3.3-4.3-0.9 0.2 4.1-4 1.9z"/>
		</g>
	</g>
</svg>