<svg version="1.2" xmlns="http://www.w3.org/2000/svg" viewBox="0 0 59 55" width="59" height="55">

	<style>
		.s0 { opacity: .94;fill: currentColor }
	</style>
	<path id="Path 0" class="s0" d="m26.6 5c-1.2 1.5-1.3 2.5-0.6 4 0.5 1.1 2 2.3 3.2 2.6 1.6 0.4 2.7 0.1 3.6-1.2 0.7-1.1 1.2-2.6 1.2-3.4-0.1-0.8-0.8-2-1.8-2.7-0.9-0.7-2.2-1.3-2.8-1.3-0.6 0-1.8 0.9-2.8 2zm-19.5 12.8c-2.4 2-4.8 4.5-5.2 5.4-0.7 1.5 1.6 4.3 11.8 14.8 7.1 7.2 13.1 13 13.5 13 0.5 0 0.8-6.5 0.8-14.5v-14.5c-7.1-7.7-8-8.1-12-8-3.7 0-5.3 0.7-8.9 3.8zm27.4 0.2l-3.8 4c0.2 22.5 0.6 29 1 29 0.5 0 6.4-5.6 13.3-12.5 6.9-6.9 12.7-13.1 12.8-13.8 0.2-0.7-1.8-3.3-4.5-6-4.5-4.4-5.1-4.7-9.9-4.7-4.7 0-5.5 0.3-8.9 4z"/>
</svg>