<svg version="1.2" xmlns="http://www.w3.org/2000/svg" viewBox="0 0 40 48" width="40" height="48">
	<title>40px-Zaun_Crest_icon</title>
	<style>
		.s0 { opacity: .7;fill: currentColor }
		.s1 { opacity: .5;fill: none;stroke: currentColor;stroke-miterlimit:100 }
	</style>
	<g id="Background">
		<path id="Path 0" fill-rule="evenodd" class="s0" d="m14.68 0.25c0.19 0.14-0.31 1.6-1.1 3.25-0.79 1.65-1.24 3.56-1.01 4.25 0.24 0.69 1.33 1.25 2.43 1.25 1.3 0 1.91 0.58 1.75 1.68-0.14 0.92-1.6 2.02-3.25 2.44-2.3 0.59-3.26 0.37-4.13-0.93-1.06-1.58-1.29-1.58-3.75 0.06-1.86 1.24-2.62 2.63-2.62 4.75 0 1.65 0.5 4.01 2.23 7.5l-2.14-2c-1.58-1.48-2.19-3.38-2.36-7.31-0.2-4.63 0.09-5.56 2.27-7.23 1.38-1.05 3.29-1.93 4.25-1.94 0.96-0.01 2.95-1.37 4.42-3.02 1.46-1.65 2.82-2.89 3.01-2.75zm-11.68 9.7c0.28 0.01 2.3-0.63 4.5-1.42 2.2-0.79 3.1-1.45 2-1.45-1.1-0.01-3.13 0.63-4.5 1.42-1.37 0.79-2.27 1.44-2 1.45zm12 1.55c0.55-0.27 1-0.72 1-1 0-0.27-0.45-0.5-1-0.5-0.55 0-1 0.45-1 1 0 0.55 0.45 0.78 1 0.5zm13-8.75c1.65 1.79 3.79 3.26 4.75 3.27 0.96 0.01 2.88 0.89 4.25 1.94 2.18 1.67 2.47 2.6 2.27 7.23-0.17 3.93-0.78 5.83-4.5 9.31l1.12-2.25c0.61-1.24 1.11-3.6 1.11-5.25 0-2.12-0.76-3.51-2.62-4.75-2.46-1.64-2.69-1.64-3.75-0.06-0.87 1.3-1.83 1.52-4.13 0.93-1.65-0.42-3.11-1.52-3.25-2.44-0.16-1.1 0.45-1.68 1.75-1.68 1.1 0 2.19-0.56 2.43-1.25 0.23-0.69-0.23-2.6-1.03-4.25-0.81-1.65-1.45-3.23-1.43-3.5 0.02-0.28 1.39 0.96 3.03 2.75zm9 7.2c0.27-0.01-0.63-0.66-2-1.45-1.38-0.79-3.4-1.43-4.5-1.42-1.1 0-0.2 0.66 2 1.45 2.2 0.79 4.23 1.43 4.5 1.42zm-11.5 2.05c0.27 0 0.5-0.45 0.5-1 0-0.55-0.5-1-1.1-1-0.61 0-0.83 0.45-0.5 1 0.33 0.55 0.83 1 1.1 1zm-5.49-5c1.5 0 1.9 0.55 1.64 2.25-0.19 1.24-0.93 2.25-1.65 2.25-0.72 0-1.45-1.01-1.64-2.25-0.26-1.7 0.15-2.25 1.65-2.25zm0.48 7.75c1.86 1.51 3.12 3.2 2.79 3.75-0.33 0.55-1.65-0.24-5.28-4.5l-3 2c-2.33 1.55-2.99 2.73-2.96 5.25 0.01 1.79 0.58 4.19 1.25 5.33 0.66 1.15 2.22 3.29 3.46 4.75 1.24 1.47 2.7 2.67 3.25 2.67 0.55 0 2.01-1.2 3.25-2.67 1.24-1.46 2.8-3.6 3.46-4.75 0.67-1.14 1.24-3.54 1.25-5.33 0.03-2.68-0.62-3.67-3.71-5.65-2.32-1.48-3.29-2.63-2.55-3.01 0.66-0.34 1.44-0.17 1.75 0.39 0.3 0.56 1.45 1.02 2.55 1.02 1.1 0 2.68 1.15 3.5 2.55 1.18 1.99 1.29 3.39 0.5 6.5-0.55 2.17-2.12 5.3-3.5 6.95-1.37 1.65-2.5 3.45-2.5 4 0 0.55-0.45 1-1 1-0.55 0-1.34 1.81-1.75 4.02-0.41 2.21-0.98 4.02-1.25 4.02-0.27 0-0.84-1.81-1.25-4.02-0.41-2.21-1.2-4.02-1.75-4.02-0.55 0-1-0.45-1-1 0-0.55-1.12-2.35-2.5-4-1.37-1.65-3.03-4.69-3.67-6.75-0.97-3.14-0.9-4.2 0.47-6.5 0.93-1.56 2.51-2.75 3.67-2.75 1.11 0 2.28-0.45 2.59-1 0.31-0.55 2.04 0.22 3.93 1.75zm-0.69 3.33c2.3 1.77 2.55 2.42 1.7 4.49-0.55 1.33-1.23 2.42-1.5 2.43-0.27 0-1.06-0.89-1.75-2-0.69-1.1-1-2.34-0.69-2.75 0.3-0.41 0.95-0.07 1.44 0.75 0.49 0.82 1.14 1.16 1.44 0.75 0.31-0.41-0.56-1.43-1.94-2.25-1.37-0.82-2.25-1.95-1.95-2.49 0.31-0.57 1.69-0.11 3.25 1.07z"/>
		<path id="Stroke" fill-rule="evenodd" class="s1" d="m14.68 0.25c0.19 0.14-0.31 1.6-1.1 3.25-0.79 1.65-1.24 3.56-1.01 4.25 0.24 0.69 1.33 1.25 2.43 1.25 1.3 0 1.91 0.58 1.75 1.68-0.14 0.92-1.6 2.02-3.25 2.44-2.3 0.59-3.26 0.37-4.13-0.93-1.06-1.58-1.29-1.58-3.75 0.06-1.86 1.24-2.62 2.63-2.62 4.75 0 1.65 0.5 4.01 2.23 7.5l-2.14-2c-1.58-1.48-2.19-3.38-2.36-7.31-0.2-4.63 0.09-5.56 2.27-7.23 1.38-1.05 3.29-1.93 4.25-1.94 0.96-0.01 2.95-1.37 4.42-3.02 1.46-1.65 2.82-2.89 3.01-2.75zm-11.68 9.7c0.28 0.01 2.3-0.63 4.5-1.42 2.2-0.79 3.1-1.45 2-1.45-1.1-0.01-3.13 0.63-4.5 1.42-1.37 0.79-2.27 1.44-2 1.45zm12 1.55c0.55-0.27 1-0.72 1-1 0-0.27-0.45-0.5-1-0.5-0.55 0-1 0.45-1 1 0 0.55 0.45 0.78 1 0.5zm13-8.75c1.65 1.79 3.79 3.26 4.75 3.27 0.96 0.01 2.88 0.89 4.25 1.94 2.18 1.67 2.47 2.6 2.27 7.23-0.17 3.93-0.78 5.83-4.5 9.31l1.12-2.25c0.61-1.24 1.11-3.6 1.11-5.25 0-2.12-0.76-3.51-2.62-4.75-2.46-1.64-2.69-1.64-3.75-0.06-0.87 1.3-1.83 1.52-4.13 0.93-1.65-0.42-3.11-1.52-3.25-2.44-0.16-1.1 0.45-1.68 1.75-1.68 1.1 0 2.19-0.56 2.43-1.25 0.23-0.69-0.23-2.6-1.03-4.25-0.81-1.65-1.45-3.23-1.43-3.5 0.02-0.28 1.39 0.96 3.03 2.75zm9 7.2c0.27-0.01-0.63-0.66-2-1.45-1.38-0.79-3.4-1.43-4.5-1.42-1.1 0-0.2 0.66 2 1.45 2.2 0.79 4.23 1.43 4.5 1.42zm-11.5 2.05c0.27 0 0.5-0.45 0.5-1 0-0.55-0.5-1-1.1-1-0.61 0-0.83 0.45-0.5 1 0.33 0.55 0.83 1 1.1 1zm-5.49-5c1.5 0 1.9 0.55 1.64 2.25-0.19 1.24-0.93 2.25-1.65 2.25-0.72 0-1.45-1.01-1.64-2.25-0.26-1.7 0.15-2.25 1.65-2.25zm0.48 7.75c1.86 1.51 3.12 3.2 2.79 3.75-0.33 0.55-1.65-0.24-5.28-4.5l-3 2c-2.33 1.55-2.99 2.73-2.96 5.25 0.01 1.79 0.58 4.19 1.25 5.33 0.66 1.15 2.22 3.29 3.46 4.75 1.24 1.47 2.7 2.67 3.25 2.67 0.55 0 2.01-1.2 3.25-2.67 1.24-1.46 2.8-3.6 3.46-4.75 0.67-1.14 1.24-3.54 1.25-5.33 0.03-2.68-0.62-3.67-3.71-5.65-2.32-1.48-3.29-2.63-2.55-3.01 0.66-0.34 1.44-0.17 1.75 0.39 0.3 0.56 1.45 1.02 2.55 1.02 1.1 0 2.68 1.15 3.5 2.55 1.18 1.99 1.29 3.39 0.5 6.5-0.55 2.17-2.12 5.3-3.5 6.95-1.37 1.65-2.5 3.45-2.5 4 0 0.55-0.45 1-1 1-0.55 0-1.34 1.81-1.75 4.02-0.41 2.21-0.98 4.02-1.25 4.02-0.27 0-0.84-1.81-1.25-4.02-0.41-2.21-1.2-4.02-1.75-4.02-0.55 0-1-0.45-1-1 0-0.55-1.12-2.35-2.5-4-1.37-1.65-3.03-4.69-3.67-6.75-0.97-3.14-0.9-4.2 0.47-6.5 0.93-1.56 2.51-2.75 3.67-2.75 1.11 0 2.28-0.45 2.59-1 0.31-0.55 2.04 0.22 3.93 1.75zm-0.69 3.33c2.3 1.77 2.55 2.42 1.7 4.49-0.55 1.33-1.23 2.42-1.5 2.43-0.27 0-1.06-0.89-1.75-2-0.69-1.1-1-2.34-0.69-2.75 0.3-0.41 0.95-0.07 1.44 0.75 0.49 0.82 1.14 1.16 1.44 0.75 0.31-0.41-0.56-1.43-1.94-2.25-1.37-0.82-2.25-1.95-1.95-2.49 0.31-0.57 1.69-0.11 3.25 1.07z"/>
	</g>
</svg>