<svg version="1.2" xmlns="http://www.w3.org/2000/svg" viewBox="0 0 72 72" width="72" height="72">
	<title>Cooldown_reduction_icon</title>
	<style>
		.s0 { opacity: .96;fill: currentColor }
	</style>
	<path id="Path 0" fill-rule="evenodd" class="s0" d="m0 0h72v3.5c0 3.4-0.1 3.5-4 3.5-3.9 0-4 0.1-5.4 4.8-0.8 2.6-2.2 6.3-3.2 8.2-1 1.9-3.5 6.3-9.4 16l2.4 3.3c1.3 1.7 3.7 5.5 5.3 8.2 1.7 2.8 3.9 7.8 4.9 11.3 1.9 6.2 1.9 6.3 5.7 6.2 3.6 0 3.7 0.1 3.7 7h-72v-3.5c0-3.4 0.1-3.5 4-3.5 3.9 0 4-0.1 5-4.5 0.6-2.5 2.2-6.9 3.6-9.8 1.5-2.8 4.2-7.3 9.4-14.7l-3.8-6.2c-2.1-3.5-4.6-7.9-5.6-9.8-1-1.9-2.4-5.6-3.2-8.2-1.4-4.7-1.5-4.8-5.4-4.8-3.9 0-4-0.1-4-3.5zm16.2 10.8c0.6 2 1.9 5.7 3 8.2 1.1 2.5 4 7.3 6.4 10.8l4.4 6.2c-5.3 7.4-8.4 12.8-10.4 16.8-2 3.9-3.6 8.3-3.6 9.7v2.5h40c0-3.9-1.6-8.3-3.6-12.3-2-3.9-4.3-8.1-5.3-9.2-1-1.1-2.5-3.2-3.4-4.8-1.7-2.7-1.6-2.8 2.9-9.4 2.6-3.8 5.5-8.6 6.4-10.8 1-2.2 2.3-5.7 2.9-7.7l1.1-3.8h-41.8zm7.7 2.3h24.1l-2.4 4.7c-1.4 2.6-4.1 6.6-9.6 12.8l-3.6-4c-2-2.2-4.7-6.2-6-8.8z"/>
</svg>