<svg version="1.2" xmlns="http://www.w3.org/2000/svg" viewBox="0 0 72 72" width="72" height="72">
	<title>Critical_strike_chance_icon</title>
	<style>
		.s0 { fill: currentColor } 
	</style>
	<path id="Path 0" class="s0" d="m3 3.8c0 0.4 3.1 5.4 6.9 11.2 3.7 5.8 9 13.9 11.7 18 2.6 4.1 5.4 8.6 6.1 10 0.7 1.4 1.2 2.6 1.1 2.7-0.2 0.2-3.6 1.1-7.6 2-4 1-7.1 2.2-7 2.7 0.2 0.5 3.7 2.1 7.8 3.6 4.1 1.5 8.7 3.2 10.3 3.9 1.5 0.6 2.7 1.3 2.7 1.6 0 0.3-1.7 1-3.8 1.6-2 0.6-4.6 1.4-5.7 1.9-1.1 0.4-4.7 1.8-8 3-3.3 1.2-6.9 2.6-8 3-1.1 0.5-2.9 1.2-4 1.7-1.2 0.4 12.3 0.9 31.7 1.1 18.6 0.1 34 0.1 34.3 0 0.2-0.2 0.4-15.6 0.2-34.3-0.1-19.5-0.6-33.1-1-32-0.5 1.1-1.3 2.9-1.7 4-0.5 1.1-2.7 7.2-5 13.5-2.3 6.3-4.3 11.7-4.6 12-0.2 0.3-1-1.1-1.7-3-0.8-1.9-2.6-7-4-11.3-1.5-4.2-3.2-7.7-3.7-7.7-0.5 0-1 0.8-1 1.7 0 1-0.7 4.5-1.6 7.8-0.8 3.3-1.7 6.1-2 6.2-0.2 0.2-7.3-4-15.6-9.3-8.4-5.3-17.5-11.2-20.3-13-2.7-1.9-5.3-3.4-5.7-3.4-0.5 0-0.8 0.3-0.8 0.7z"/>
</svg>