<svg version="1.2" xmlns="http://www.w3.org/2000/svg" viewBox="0 0 72 72" width="72" height="72">
	<title>Gold_icon</title>
	<style>
		.s0 { opacity: .98;fill: currentColor }
	</style>
	<path id="Path 0" fill-rule="evenodd" class="s0" d="m44.5 12.4c5.8 0.2 9.2 0.9 12.3 2.4 2.3 1.2 4.9 3.2 5.7 4.4 1 1.5 1.5 4.7 1.5 9.3 0 5.2-0.5 7.8-2 10.2-1.1 1.8-2.7 3.6-3.6 4-0.9 0.5-2.5 2.4-3.4 4.3-0.9 1.9-3.5 5-5.6 6.8-2.1 1.8-6.2 3.9-8.9 4.7-2.8 0.9-7.7 1.5-11 1.5-3.3 0-7.8-0.6-10-1.3-2.2-0.6-5.6-2.8-7.7-4.7-3.2-3-3.7-4.1-3.7-8 0-2.7 0.7-5.8 1.9-7.8 1.1-1.8 3.7-4 6-5 3.8-1.6 3.9-1.9 4-6.2 0-3.8 0.5-5 3.2-7.6 1.8-1.8 4.4-3.7 5.8-4.4 1.4-0.7 3.6-1.7 5-2.1 1.4-0.5 6.1-0.7 10.5-0.5zm-27.8 33.1c0.7 1.4 3 3.2 5.1 4.1 2 0.9 5.7 1.8 8.2 2.1 3.1 0.3 5.5-0.1 7.9-1.4 1.9-1 4.1-2.8 5-4.1l1.6-2.3c-9.3 0-13.8-0.7-16-1.5-2.2-0.9-5.4-1.8-7-2.1q-3.1-0.5-4.5 1.2c-1.2 1.3-1.3 2-0.2 4z"/>
</svg>