<svg version="1.2" xmlns="http://www.w3.org/2000/svg" viewBox="0 0 72 72" width="72" height="72">
	<title>Health_regeneration_icon</title>
	<style>
		.s0 { opacity: .98;fill: currentColor } 
	</style>
	<path id="Path 0" class="s0" d="m10 5v5h-10v10h10v10h10v-10h10v-10h-10v-10h-10zm18.7 23.3c-2.1 1.2-4.4 3.7-5.2 5.4-0.8 1.8-1.5 4.3-1.5 5.5 0 1.3 1 4.3 2.1 6.8 1.2 2.6 5.5 7.9 10.2 12.6 4.5 4.4 9.1 8.6 10.2 9.2 1.8 1 3.1 0.1 11.7-8.1 6.3-6 10.4-10.8 11.7-13.7 1.1-2.5 2.1-5.5 2.1-6.8 0-1.2-0.7-3.7-1.5-5.5-0.8-1.7-2.9-4.1-4.7-5.1-2.1-1.2-4.4-1.7-6.3-1.4-1.6 0.3-4.9 1.8-7.3 3.4l-4.2 2.9c-3.5-3.4-6.2-5.1-8.2-5.9-2.1-0.9-4.1-1.6-4.5-1.6-0.5 0-2.5 1-4.6 2.3z"/>
</svg>