<svg version="1.2" xmlns="http://www.w3.org/2000/svg" viewBox="0 0 72 72" width="72" height="72">
	<title>Range_icon</title>
	<style>
		.s0 { opacity: 1;fill: currentColor } 
	</style>
	<path id="Path 0" class="s0" d="m0 6.3v4.2c12 1.1 18 2.3 21 3.3 3 1 7.5 3.1 10 4.5l4.5 2.7c4.3-5.9 5.1-7.9 4.6-8.5-0.5-0.6-4-2.5-7.7-4.2-3.8-1.8-10-3.9-13.9-4.8-3.8-0.8-9.6-1.5-12.7-1.5h-5.8zm0 22v4.3c9.7 0.9 14.8 2.2 17.5 3.5 2.8 1.3 5.2 2.5 5.5 2.6 0.3 0.2 1.6-1.2 3-3.2 1.4-1.9 2.3-3.7 2-3.9-0.3-0.2-2.7-1.5-5.5-2.9-2.7-1.4-7-3-9.5-3.6-2.5-0.5-6.4-1-8.7-1h-4.3zm54.8 6.2l-3.8 2.5c6.1 11.2 8.6 17.4 9.5 21 0.8 3.6 1.5 8.2 1.5 10.3v3.7h9.5c-1.1-11.6-2.6-18.5-4.1-22.8-1.4-4.2-3.7-9.9-5.2-12.5-1.5-2.6-2.9-4.7-3.2-4.7-0.3 0-2.2 1.1-4.2 2.5zm-18.5 12.5l-3.3 2c4.7 9.7 6.4 14.9 6.8 17.8l0.7 5.2c8.4 0 8.5-0.1 8.5-3.3 0-1.7-0.7-5.7-1.6-8.7-0.9-3-2.8-7.7-4.2-10.3-1.5-2.6-2.9-4.7-3.2-4.7-0.3 0-1.9 0.9-3.7 2zm13.1-39.8l3.6 4.3c-28.7 34.5-36.8 44.5-36.5 44.5 0.3 0 9.6-7.5 20.8-16.6 11.1-9.2 21-17.3 22-18 1.5-1.2 2.2-1 5.7 1.6l4 3v-23h-23.2z"/>
</svg>