<svg version="1.2" xmlns="http://www.w3.org/2000/svg" viewBox="0 0 72 72" width="72" height="72">
	<title>tenacity</title>
	<style>
		.s0 { opacity: 1;fill: #32261a } 
	</style>
	<path id="Path 0" class="s0" d="m37.4 12.8c-5.9 6.4-14.5 15.5-19.1 20.2-4.5 4.7-8.2 8.8-8.3 9.3 0 0.4 4.3 7.2 9.5 15.2l9.5 14.5h43c-1-5.8-2-8.3-2.9-9.2-0.9-1-4.5-2.4-8-3-5.4-1.1-6.8-1.8-9.1-4.8-1.5-1.9-3.2-4.5-3.9-5.8-1-2-0.1-3.2 10.9-14.7 9.7-10.1 11.8-12.8 11.1-14.3-0.5-0.9-5-5.6-10-10.5-5-4.8-9.7-8.7-10.5-8.7-0.7 0-6.2 5.3-12.2 11.7zm-37.3 28.7c-0.1 0.9 0.3 1.6 0.9 1.6 0.5 0 1-0.4 1.1-0.9 0.1-0.6-0.3-1.3-0.9-1.6-0.5-0.3-1 0.1-1.1 0.9zm-0.1 12.1v4.5h13c-5.2-8.6-5.9-9-9.3-9h-3.7zm0 14.5v4c17.1 0 22-0.3 22-0.8 0-0.4-1.2-2.2-2.5-4-2.5-3.2-2.6-3.2-11-3.2h-8.5z"/>
</svg>