<svg width="16" height="16" viewBox="0 0 16 16" fill="none" xmlns="http://www.w3.org/2000/svg">
  <path fill-rule="evenodd" clip-rule="evenodd" d="M6.14311 3.53036V3.0887C6.14311 2.93322 6.20706 2.79426 6.31507 2.68969C6.42307 2.5865 6.5666 2.5232 6.72718 2.5232H9.27379C9.43438 2.5232 9.57791 2.58512 9.68591 2.68969C9.79249 2.79426 9.85787 2.93322 9.85787 3.0887V3.53036H10.8128V3.0887C10.8128 2.67868 10.638 2.30444 10.3609 2.03614C10.0824 1.76784 9.69586 1.59998 9.27237 1.59998H6.72718C6.3037 1.59998 5.91716 1.76784 5.64004 2.03751C5.36293 2.30581 5.18813 2.68006 5.18813 3.09008V3.53174H6.14311V3.53036ZM9.3858 10.1731C9.1158 10.3761 8.78072 10.4868 8.43457 10.4868H8.42626L7.5498 10.4829C7.20642 10.4816 6.87411 10.3709 6.60688 10.1692L3.01519 7.46664V13.0982C3.01519 13.8142 3.63826 14.4 4.3998 14.4H11.5998C12.3613 14.4 12.9844 13.8142 12.9844 13.0982V7.46664L9.3858 10.1731ZM2.97832 4.01881H13.0212C13.4135 4.01881 13.7318 4.32701 13.7332 4.70676V5.20621C13.7332 5.41535 13.6351 5.6121 13.466 5.74282L8.89152 9.28576C8.76646 9.38345 8.61014 9.43711 8.44813 9.43711H8.44387L7.54431 9.43298C7.38373 9.4316 7.22883 9.37794 7.10377 9.28163L2.53494 5.74282C2.36583 5.61348 2.26777 5.41535 2.26777 5.20621V4.70676C2.26777 4.32701 2.5861 4.01881 2.97832 4.01881ZM1.9075 13.3333H1.5915C1.15544 13.3333 0.799805 12.8941 0.799805 12.3587V9.3469L1.89391 7.99998L1.9075 13.3333ZM14.4081 13.3333H14.0921L14.1057 7.99998L15.1998 9.3469V12.3587C15.1998 12.8955 14.843 13.3333 14.4081 13.3333Z" fill="#C89B3C"/>
  </svg>
