<svg width="16" height="14" viewBox="0 0 16 14" fill="none" xmlns="http://www.w3.org/2000/svg">
<path fill-rule="evenodd" clip-rule="evenodd" d="M13.9257 5.18899L8.7257 4.149C8.31252 4.06078 7.88122 4.13665 7.52294 4.36057C7.16466 4.5845 6.90747 4.93894 6.8057 5.349L5.6857 10.389C5.61566 10.7906 5.70057 11.2039 5.92328 11.5454C6.14598 11.8869 6.48992 12.1311 6.8857 12.229L12.0857 13.269C12.4989 13.3572 12.9302 13.2814 13.2885 13.0574C13.6467 12.8335 13.9039 12.4791 14.0057 12.069L15.1257 7.029C15.1769 6.82891 15.186 6.62035 15.1524 6.41655C15.1187 6.21276 15.0431 6.01818 14.9303 5.84517C14.8174 5.67216 14.6699 5.52448 14.4969 5.41152C14.324 5.29857 14.1295 5.22278 13.9257 5.18899ZM9.6057 9.98899C9.55827 10.2264 9.44149 10.4444 9.27014 10.6155C9.0988 10.7865 8.88057 10.9029 8.64307 10.9499C8.40558 10.9969 8.15947 10.9724 7.93589 10.8795C7.71231 10.7867 7.52129 10.6296 7.387 10.4281C7.2527 10.2267 7.18116 9.98996 7.18143 9.74785C7.18169 9.50575 7.25375 9.26914 7.38849 9.06799C7.52322 8.86685 7.71458 8.71018 7.93837 8.6178C8.16215 8.52542 8.40831 8.50147 8.64571 8.549C8.95277 8.63241 9.21921 8.82424 9.39571 9.08899C9.57221 9.35374 9.64681 9.67347 9.6057 9.98899ZM13.6057 7.58899C13.5583 7.8264 13.4415 8.04442 13.2701 8.21546C13.0988 8.38649 12.8806 8.5029 12.6431 8.5499C12.4056 8.59691 12.1595 8.57241 11.9359 8.47954C11.7123 8.38667 11.5213 8.22957 11.387 8.02813C11.2527 7.82668 11.1812 7.58996 11.1814 7.34785C11.1817 7.10575 11.2537 6.86914 11.3885 6.66799C11.5232 6.46685 11.7146 6.31018 11.9384 6.2178C12.1622 6.12542 12.4083 6.10147 12.6457 6.149C12.9611 6.21781 13.2375 6.40641 13.4166 6.67505C13.5957 6.94368 13.6635 7.27135 13.6057 7.58899ZM8.0857 2.229L9.2857 2.46899L9.2057 1.90901C9.17198 1.70269 9.09715 1.50524 8.98566 1.32839C8.87417 1.15155 8.72828 0.99888 8.55666 0.879493C8.38504 0.760106 8.19119 0.67643 7.98661 0.633399C7.78202 0.590368 7.57087 0.58887 7.3657 0.629005L2.1657 1.429C1.76016 1.49953 1.3957 1.71926 1.14402 2.04497C0.892329 2.37068 0.771643 2.77878 0.805704 3.18899L1.6057 8.30901C1.63943 8.51533 1.71425 8.71278 1.82575 8.88962C1.93724 9.06647 2.08313 9.21912 2.25475 9.3385C2.42636 9.45789 2.62022 9.54159 2.8248 9.58462C3.02939 9.62765 3.24053 9.62913 3.44571 9.58899L4.3257 9.429L5.04571 6.149C4.75627 6.12264 4.48714 5.98902 4.29116 5.77439C4.09519 5.55976 3.98654 5.27963 3.98654 4.98899C3.98654 4.69835 4.09519 4.41822 4.29116 4.20359C4.48714 3.98896 4.75627 3.85536 5.04571 3.829C5.23592 3.81613 5.42671 3.84339 5.6057 3.90901C5.63966 3.62708 5.73375 3.3557 5.88161 3.11326C6.02946 2.87081 6.22764 2.66295 6.46274 2.50369C6.69785 2.34442 6.9644 2.23748 7.24439 2.19009C7.52438 2.1427 7.81128 2.15597 8.0857 2.229Z" fill="#010A13"/>
</svg>
