<svg width="316" height="32" viewBox="0 0 316 32" fill="none" xmlns="http://www.w3.org/2000/svg">
  <path fill-rule="evenodd" clip-rule="evenodd" d="M154.8 12.8H150V24L158 28.8L166 24V12.8H154.8ZM159.6 22.4V24H156.4V22.4C155.53 21.5376 154.968 20.4133 154.8 19.2C154.8 18.3513 155.137 17.5374 155.737 16.9373C156.337 16.3372 157.151 16 158 16C158.849 16 159.663 16.3372 160.263 16.9373C160.863 17.5374 161.2 18.3513 161.2 19.2C161.032 20.4133 160.47 21.5376 159.6 22.4ZM154.8 9.60001C154.856 8.87238 155.139 8.18078 155.61 7.62321C156.081 7.06563 156.715 6.67034 157.423 6.49335C158.131 6.31635 158.877 6.36664 159.555 6.63705C160.233 6.90746 160.808 7.38429 161.2 8.00001L164.4 6.40001C164.4 6.24001 162.96 3.20001 158 3.20001C156.303 3.20001 154.675 3.87429 153.475 5.07452C152.274 6.27476 151.6 7.90263 151.6 9.60001V12.8H154.8V9.60001Z" fill="#C8AA6E"/>
  <path d="M282.09 16H174V21H316" stroke="url(#paint0_linear)"/>
  <path d="M33.9105 16H142V21H6.67572e-06" stroke="url(#paint1_linear)"/>
  <defs>
  <linearGradient id="paint0_linear" x1="206.851" y1="24.5" x2="209.644" y2="12.659" gradientUnits="userSpaceOnUse">
  <stop stop-color="#CDBE91"/>
  <stop offset="1" stop-color="#CDBE91" stop-opacity="0"/>
  </linearGradient>
  <linearGradient id="paint1_linear" x1="109.149" y1="24.5" x2="106.356" y2="12.659" gradientUnits="userSpaceOnUse">
  <stop stop-color="#CDBE91"/>
  <stop offset="1" stop-color="#CDBE91" stop-opacity="0"/>
  </linearGradient>
  </defs>
  </svg>
