<svg width="52" height="30" viewBox="0 0 52 30" fill="none" xmlns="http://www.w3.org/2000/svg">
  <path fill-rule="evenodd" clip-rule="evenodd" d="M39.3566 8.87072C34.5095 8.87072 28.1709 6.38501 28.1709 6.38501V12.5993C28.1709 25.0279 39.3566 28.7564 39.3566 28.7564C39.3566 28.7564 50.5423 24.9036 50.5423 12.5993V6.38501C50.5423 6.38501 44.2038 8.87072 39.3566 8.87072ZM30.6566 15.085C30.6566 13.8422 32.2723 13.8422 33.1423 13.8422C33.9242 13.9041 34.6773 14.1651 35.3299 14.6001C35.9825 15.0352 36.513 15.63 36.8709 16.3279C36.8778 16.6562 36.8183 16.9826 36.6958 17.2873C36.5734 17.592 36.3905 17.8688 36.1583 18.101C35.9261 18.3332 35.6493 18.5161 35.3446 18.6385C35.0399 18.761 34.7135 18.8205 34.3852 18.8136C33.4239 18.7313 32.5226 18.312 31.8404 17.6298C31.1582 16.9476 30.7389 16.0463 30.6566 15.085ZM39.3566 25.0279C38.2432 25.0002 37.1661 24.6262 36.2751 23.9579C35.3841 23.2897 34.7235 22.3604 34.3852 21.2993C35.8878 22.1844 37.6143 22.616 39.3566 22.5422C41.0929 22.5611 42.8049 22.1331 44.328 21.2993C43.9897 22.3604 43.3291 23.2897 42.4381 23.9579C41.5471 24.6262 40.47 25.0002 39.3566 25.0279ZM44.328 18.8136C43.9997 18.8205 43.6734 18.761 43.3686 18.6385C43.0639 18.5161 42.7871 18.3332 42.5549 18.101C42.3227 17.8688 42.1398 17.592 42.0174 17.2873C41.8949 16.9826 41.8354 16.6562 41.8423 16.3279C42.2002 15.63 42.7307 15.0352 43.3833 14.6001C44.036 14.1651 44.789 13.9041 45.5709 13.8422C46.4409 13.8422 48.0566 13.8422 48.0566 15.085C47.9743 16.0463 47.555 16.9476 46.8728 17.6298C46.1906 18.312 45.2893 18.7313 44.328 18.8136Z" fill="#C8AA6E"/>
  <path fill-rule="evenodd" clip-rule="evenodd" d="M12.4289 8.87072C7.58174 8.87072 1.24316 6.38501 1.24316 6.38501V12.5993C1.24316 25.0279 12.4289 28.7564 12.4289 28.7564C12.4289 28.7564 23.6146 24.9036 23.6146 12.5993V6.38501C23.6146 6.38501 17.276 8.87072 12.4289 8.87072ZM3.72888 15.085C3.72888 13.8422 5.34459 13.8422 6.21459 13.8422C6.99648 13.9041 7.74953 14.1651 8.40215 14.6001C9.05476 15.0352 9.58524 15.63 9.94316 16.3279C9.95011 16.6562 9.89056 16.9826 9.7681 17.2873C9.64564 17.592 9.46281 17.8688 9.23059 18.101C8.99837 18.3332 8.72156 18.5161 8.41684 18.6385C8.11212 18.761 7.78578 18.8205 7.45745 18.8136C6.49618 18.7313 5.59489 18.312 4.91268 17.6298C4.23047 16.9476 3.8112 16.0463 3.72888 15.085ZM12.4289 25.0279C11.3155 25.0002 10.2384 24.6262 9.34739 23.9579C8.4564 23.2897 7.7958 22.3604 7.45745 21.2993C8.96004 22.1844 10.6865 22.616 12.4289 22.5422C14.1652 22.5611 15.8772 22.1331 17.4003 21.2993C17.062 22.3604 16.4014 23.2897 15.5104 23.9579C14.6194 24.6262 13.5423 25.0002 12.4289 25.0279ZM17.4003 18.8136C17.072 18.8205 16.7456 18.761 16.4409 18.6385C16.1362 18.5161 15.8594 18.3332 15.6272 18.101C15.3949 17.8688 15.2121 17.592 15.0897 17.2873C14.9672 16.9826 14.9076 16.6562 14.9146 16.3279C15.2725 15.63 15.803 15.0352 16.4556 14.6001C17.1082 14.1651 17.8613 13.9041 18.6432 13.8422C19.5132 13.8422 21.1289 13.8422 21.1289 15.085C21.0466 16.0463 20.6273 16.9476 19.9451 17.6298C19.2629 18.312 18.3616 18.7313 17.4003 18.8136Z" fill="#785A28"/>
  <path d="M24.8576 28.55C25.0204 29.0228 25.0207 29.0227 25.0211 29.0225L25.022 29.0222L25.0247 29.0213L25.0336 29.0182L25.0653 29.0068C25.0925 28.9969 25.1318 28.9825 25.1822 28.9632C25.2831 28.9248 25.4289 28.8673 25.6132 28.7893C25.9816 28.6335 26.5044 28.3958 27.1301 28.0656C28.3805 27.4056 30.0476 26.3731 31.716 24.8808C35.0592 21.8904 38.4076 17.0505 38.4076 9.70001V2.45001V1.71686L37.7251 1.98451L37.7251 1.98453L37.725 1.98457L37.7242 1.98487L37.7206 1.98625L37.7056 1.99209L37.6446 2.01556C37.5904 2.03628 37.5097 2.06689 37.4046 2.10597C37.1943 2.18415 36.8867 2.29622 36.4995 2.43089C35.7249 2.70031 34.6333 3.0597 33.3668 3.41899C30.8239 4.14038 27.6148 4.85001 24.8576 4.85001C22.1005 4.85001 18.8914 4.14038 16.3485 3.41899C15.0819 3.0597 13.9903 2.70031 13.2157 2.43089C12.8285 2.29622 12.5209 2.18415 12.3107 2.10597C12.2056 2.06689 12.1248 2.03628 12.0706 2.01556L12.0096 1.99209L11.9946 1.98625L11.991 1.98487L11.9903 1.98457L11.9902 1.98453L11.9901 1.98451L11.3076 1.71686V2.45001V9.70001C11.3076 17.1218 14.6549 21.9624 18.0004 24.9362C19.6695 26.4198 21.3373 27.4389 22.5884 28.0876C23.2144 28.4122 23.7375 28.6448 24.1061 28.797C24.2905 28.8731 24.4364 28.9291 24.5374 28.9665C24.5879 28.9852 24.6272 28.9993 24.6545 29.0088L24.6863 29.0199L24.6953 29.0229L24.698 29.0238L24.6989 29.0241C24.6992 29.0243 24.6995 29.0244 24.8576 28.55ZM24.8576 28.55L25.0204 29.0228L24.8602 29.0779L24.6995 29.0244L24.8576 28.55ZM16.4423 15.2154C15.7351 14.5081 15.2984 13.5755 15.2078 12.5799C15.2118 12.3495 15.2844 12.2079 15.3815 12.105C15.4929 11.9871 15.6703 11.886 15.922 11.8098C16.43 11.6558 17.068 11.6501 17.5874 11.65C18.4077 11.7183 19.1973 11.9936 19.8824 12.4503C20.54 12.8887 21.0803 13.4803 21.4574 14.1735C21.4499 14.4508 21.3931 14.7249 21.2894 14.9829C21.1717 15.2758 20.996 15.5419 20.7727 15.7651C20.5495 15.9884 20.2834 16.1641 19.9905 16.2819C19.7024 16.3976 19.3943 16.4549 19.0839 16.4504C18.086 16.3611 17.151 15.9241 16.4423 15.2154ZM24.8576 23.6998C23.667 23.6676 22.5156 23.2665 21.5626 22.5518C20.9708 22.108 20.4738 21.5569 20.0948 20.9315C21.5956 21.5685 23.2247 21.8677 24.8655 21.8001C26.5098 21.8163 28.1358 21.5029 29.6492 20.8835C29.2667 21.5288 28.7595 22.0967 28.1527 22.5518C27.1997 23.2665 26.0483 23.6676 24.8576 23.6998ZM33.273 15.2154C32.5643 15.9241 31.6292 16.3611 30.6313 16.4504C30.321 16.4549 30.0128 16.3976 29.7248 16.2819C29.4318 16.1641 29.1657 15.9884 28.9425 15.7651C28.7193 15.5419 28.5435 15.2758 28.4258 14.9829C28.3221 14.7249 28.2654 14.4508 28.2578 14.1735C28.6349 13.4803 29.1753 12.8887 29.8328 12.4503C30.5179 11.9936 31.3076 11.7183 32.1279 11.65C32.6473 11.6501 33.2853 11.6558 33.7932 11.8098C34.0449 11.886 34.2223 11.9871 34.3337 12.105C34.4308 12.2079 34.5035 12.3495 34.5074 12.5799C34.4169 13.5755 33.9802 14.5081 33.273 15.2154Z" fill="#CDBE91" stroke="#010A13"/>
  <path d="M13.4639 15.4993V5.14215L24.8567 7.21358L36.2496 5.14215V15.4993L32.1067 21.7136L24.8567 26.8921L17.6067 21.7136L13.4639 15.4993Z" fill="#010A13"/>
  <path fill-rule="evenodd" clip-rule="evenodd" d="M24.8576 5.35001C19.2026 5.35001 11.8076 2.45001 11.8076 2.45001V9.70001C11.8076 24.2 24.8576 28.55 24.8576 28.55C24.8576 28.55 37.9076 24.055 37.9076 9.70001V2.45001C37.9076 2.45001 30.5126 5.35001 24.8576 5.35001ZM14.7076 12.6C14.7076 11.15 16.5926 11.15 17.6076 11.15C18.5198 11.2223 19.3984 11.5267 20.1598 12.0343C20.9211 12.5419 21.54 13.2358 21.9576 14.05C21.9657 14.4331 21.8962 14.8138 21.7534 15.1693C21.6105 15.5248 21.3972 15.8478 21.1263 16.1187C20.8554 16.3896 20.5324 16.6029 20.1769 16.7458C19.8214 16.8887 19.4407 16.9581 19.0576 16.95C17.9361 16.854 16.8846 16.3648 16.0887 15.5689C15.2928 14.773 14.8037 13.7215 14.7076 12.6ZM24.8576 24.2C23.5587 24.1677 22.302 23.7314 21.2626 22.9517C20.2231 22.1721 19.4524 21.088 19.0576 19.85C20.8106 20.8826 22.8249 21.3862 24.8576 21.3C26.8833 21.3221 28.8806 20.8228 30.6576 19.85C30.2629 21.088 29.4922 22.1721 28.4527 22.9517C27.4132 23.7314 26.1566 24.1677 24.8576 24.2ZM30.6576 16.95C30.2746 16.9581 29.8938 16.8887 29.5383 16.7458C29.1828 16.6029 28.8599 16.3896 28.589 16.1187C28.318 15.8478 28.1047 15.5248 27.9619 15.1693C27.819 14.8138 27.7495 14.4331 27.7576 14.05C28.1752 13.2358 28.7941 12.5419 29.5555 12.0343C30.3169 11.5267 31.1954 11.2223 32.1076 11.15C33.1226 11.15 35.0076 11.15 35.0076 12.6C34.9116 13.7215 34.4224 14.773 33.6265 15.5689C32.8306 16.3648 31.7791 16.854 30.6576 16.95Z" fill="#CDBE91"/>
  </svg>
