<svg width="26" height="16" viewBox="0 0 26 16" fill="none" xmlns="http://www.w3.org/2000/svg">
  <path fill-rule="evenodd" clip-rule="evenodd" d="M19.7602 4.87168C17.3265 4.87168 14.144 3.62366 14.144 3.62366V6.74372C14.144 12.9838 19.7602 14.8559 19.7602 14.8559C19.7602 14.8559 25.3763 12.9214 25.3763 6.74372V3.62366C25.3763 3.62366 22.1938 4.87168 19.7602 4.87168ZM15.3921 7.99174C15.3921 7.36773 16.2033 7.36773 16.6401 7.36773C17.0327 7.39884 17.4108 7.52985 17.7384 7.74829C18.0661 7.96673 18.3324 8.26535 18.5121 8.61575C18.5156 8.7806 18.4857 8.94446 18.4242 9.09745C18.3627 9.25045 18.271 9.38942 18.1544 9.50601C18.0378 9.6226 17.8988 9.71441 17.7458 9.77589C17.5928 9.83738 17.429 9.86726 17.2641 9.86378C16.7815 9.82244 16.329 9.61194 15.9864 9.26942C15.6439 8.92689 15.4334 8.47437 15.3921 7.99174ZM19.7602 12.9838C19.2011 12.9699 18.6604 12.7822 18.213 12.4466C17.7657 12.1111 17.434 11.6446 17.2641 11.1118C18.0185 11.5562 18.8854 11.7729 19.7602 11.7358C20.6319 11.7453 21.4915 11.5304 22.2562 11.1118C22.0863 11.6446 21.7546 12.1111 21.3073 12.4466C20.8599 12.7822 20.3192 12.9699 19.7602 12.9838ZM22.2562 9.86378C22.0913 9.86726 21.9275 9.83738 21.7745 9.77589C21.6215 9.71441 21.4825 9.6226 21.3659 9.50601C21.2494 9.38942 21.1576 9.25045 21.0961 9.09745C21.0346 8.94446 21.0047 8.7806 21.0082 8.61575C21.1879 8.26535 21.4542 7.96673 21.7819 7.74829C22.1095 7.52985 22.4876 7.39884 22.8802 7.36773C23.317 7.36773 24.1282 7.36773 24.1282 7.99174C24.0869 8.47437 23.8764 8.92689 23.5339 9.26942C23.1914 9.61194 22.7388 9.82244 22.2562 9.86378Z" fill="#5B5A56"/>
  <path fill-rule="evenodd" clip-rule="evenodd" d="M6.24013 4.87168C3.80648 4.87168 0.624023 3.62366 0.624023 3.62366V6.74372C0.624023 12.9838 6.24013 14.8559 6.24013 14.8559C6.24013 14.8559 11.8562 12.9214 11.8562 6.74372V3.62366C11.8562 3.62366 8.67378 4.87168 6.24013 4.87168ZM1.87205 7.99174C1.87205 7.36773 2.68326 7.36773 3.12007 7.36773C3.51264 7.39884 3.89073 7.52985 4.2184 7.74829C4.54606 7.96673 4.8124 8.26535 4.99211 8.61575C4.99559 8.7806 4.9657 8.94446 4.90421 9.09745C4.84273 9.25045 4.75093 9.38942 4.63434 9.50601C4.51775 9.6226 4.37877 9.71441 4.22578 9.77589C4.07278 9.83738 3.90893 9.86726 3.74408 9.86378C3.26145 9.82244 2.80893 9.61194 2.46641 9.26942C2.12389 8.92689 1.91338 8.47437 1.87205 7.99174ZM6.24013 12.9838C5.68112 12.9699 5.14033 12.7822 4.69298 12.4466C4.24564 12.1111 3.91396 11.6446 3.74408 11.1118C4.4985 11.5562 5.36534 11.7729 6.24013 11.7358C7.1119 11.7453 7.97145 11.5304 8.73618 11.1118C8.5663 11.6446 8.23463 12.1111 7.78728 12.4466C7.33993 12.7822 6.79914 12.9699 6.24013 12.9838ZM8.73618 9.86378C8.57133 9.86726 8.40748 9.83738 8.25449 9.77589C8.10149 9.71441 7.96251 9.6226 7.84592 9.50601C7.72933 9.38942 7.63753 9.25045 7.57605 9.09745C7.51457 8.94446 7.48467 8.7806 7.48816 8.61575C7.66786 8.26535 7.9342 7.96673 8.26187 7.74829C8.58953 7.52985 8.96762 7.39884 9.36019 7.36773C9.797 7.36773 10.6082 7.36773 10.6082 7.99174C10.5669 8.47437 10.3564 8.92689 10.0139 9.26942C9.67133 9.61194 9.21881 9.82244 8.73618 9.86378Z" fill="#5B5A56"/>
  <path d="M12.4803 14.7522C12.6432 15.2249 12.6434 15.2249 12.6437 15.2248L12.6444 15.2245L12.6462 15.2239L12.6516 15.222L12.6694 15.2156C12.6843 15.2102 12.7053 15.2025 12.732 15.1923C12.7853 15.172 12.8613 15.142 12.9567 15.1016C13.1474 15.021 13.4164 14.8986 13.7375 14.7291C14.3788 14.3907 15.2336 13.8613 16.0897 13.0955C17.8086 11.5581 19.5325 9.06466 19.5325 5.28802V1.64795V0.914798L18.85 1.18243L18.85 1.18244L18.8499 1.18246L18.8497 1.18254L18.8482 1.18314L18.8411 1.18589L18.8115 1.19728C18.785 1.20742 18.7452 1.22252 18.6931 1.24186C18.5891 1.28056 18.4363 1.33623 18.2437 1.40321C17.8583 1.53725 17.3149 1.71614 16.6847 1.89494C15.4143 2.25534 13.8296 2.60398 12.4803 2.60398C11.1311 2.60398 9.54642 2.25534 8.27602 1.89494C7.64575 1.71614 7.10237 1.53725 6.71698 1.40321C6.52442 1.33623 6.37164 1.28056 6.26757 1.24186C6.21554 1.22252 6.17572 1.20742 6.1492 1.19728L6.11957 1.18589L6.11251 1.18314L6.11097 1.18254L6.11077 1.18246L6.1107 1.18244L6.11069 1.18243L5.42822 0.914798V1.64795V5.28802C5.42822 9.09987 7.15108 11.5941 8.8721 13.1239C9.72894 13.8855 10.5845 14.4082 11.2264 14.7411C11.5478 14.9077 11.8171 15.0275 12.0081 15.1063C12.1036 15.1458 12.1797 15.175 12.2331 15.1948C12.2598 15.2047 12.2809 15.2122 12.2958 15.2175L12.3137 15.2237L12.3192 15.2255L12.321 15.2261L12.3217 15.2264C12.322 15.2265 12.3222 15.2265 12.4803 14.7522ZM12.4803 14.7522L12.6432 15.2249L12.483 15.2801L12.3222 15.2265L12.4803 14.7522ZM8.43123 7.88111C8.12085 7.57074 7.92788 7.16255 7.88472 6.72626C7.88716 6.68293 7.89838 6.6717 7.90278 6.6673C7.90309 6.667 7.90336 6.66672 7.9036 6.66648C7.9191 6.65006 7.96343 6.61668 8.06616 6.58555C8.27742 6.52153 8.5554 6.51627 8.81958 6.51604C9.18582 6.54824 9.53822 6.67199 9.84431 6.87605C10.1214 7.06081 10.3524 7.30593 10.5202 7.5924C10.5117 7.67981 10.4907 7.76576 10.4578 7.8476C10.4113 7.96352 10.3417 8.06881 10.2534 8.15714C10.165 8.24548 10.0597 8.31504 9.94382 8.36162C9.83265 8.40629 9.7139 8.42896 9.59416 8.4284C9.15482 8.38684 8.74351 8.1934 8.43123 7.88111ZM12.4803 12.068C11.9365 12.0519 11.4108 11.868 10.9753 11.5414C10.9339 11.5103 10.8934 11.4781 10.854 11.4448C11.3854 11.5772 11.9355 11.6344 12.4882 11.6122C13.0499 11.6172 13.6076 11.5485 14.1473 11.4096C14.0952 11.4556 14.0412 11.4995 13.9854 11.5414C13.5499 11.868 13.0242 12.0519 12.4803 12.068ZM15.3665 8.4284C15.2468 8.42896 15.128 8.40629 15.0169 8.36162C14.901 8.31504 14.7957 8.24548 14.7073 8.15714C14.619 8.06881 14.5494 7.96352 14.5029 7.8476C14.47 7.76576 14.449 7.67982 14.4405 7.5924C14.6083 7.30593 14.8393 7.06081 15.1164 6.87605C15.4225 6.67199 15.7749 6.54824 16.1411 6.51604C16.4053 6.51627 16.6833 6.52153 16.8945 6.58555C16.9973 6.61668 17.0416 6.65006 17.0571 6.66648C17.0573 6.66672 17.0576 6.667 17.0579 6.6673C17.0623 6.6717 17.0735 6.68293 17.076 6.72626C17.0328 7.16255 16.8398 7.57074 16.5295 7.88111C16.2172 8.1934 15.8059 8.38684 15.3665 8.4284Z" fill="#5B5A56" stroke="#010A13"/>
  <path d="M6.76025 8.19973V2.99963L12.4804 4.03965L18.2005 2.99963V8.19973L16.1204 11.3198L12.4804 13.9198L8.84029 11.3198L6.76025 8.19973Z" fill="#010A13"/>
  <path fill-rule="evenodd" clip-rule="evenodd" d="M12.4803 3.10398C9.64109 3.10398 5.92822 1.64795 5.92822 1.64795V5.28802C5.92822 12.5682 12.4803 14.7522 12.4803 14.7522C12.4803 14.7522 19.0325 12.4954 19.0325 5.28802V1.64795C19.0325 1.64795 15.3196 3.10398 12.4803 3.10398ZM7.38425 6.74405C7.38425 6.01603 8.33067 6.01603 8.84028 6.01603C9.29828 6.05233 9.73938 6.20517 10.1217 6.46002C10.5039 6.71487 10.8147 7.06325 11.0243 7.47206C11.0284 7.66438 10.9935 7.85555 10.9218 8.03405C10.85 8.21254 10.7429 8.37467 10.6069 8.51069C10.4709 8.64672 10.3088 8.75382 10.1303 8.82556C9.95177 8.89729 9.76062 8.93216 9.56829 8.92809C9.00522 8.87987 8.47728 8.63428 8.07767 8.23467C7.67806 7.83506 7.43247 7.30712 7.38425 6.74405ZM12.4803 12.5682C11.8282 12.5519 11.1972 12.3329 10.6753 11.9414C10.1534 11.55 9.76648 11.0057 9.56829 10.3841C10.4484 10.9026 11.4598 11.1554 12.4803 11.1121C13.4974 11.1232 14.5002 10.8725 15.3924 10.3841C15.1942 11.0057 14.8073 11.55 14.2854 11.9414C13.7634 12.3329 13.1325 12.5519 12.4803 12.5682ZM15.3924 8.92809C15.2001 8.93216 15.0089 8.89729 14.8304 8.82556C14.6519 8.75382 14.4898 8.64672 14.3538 8.51069C14.2177 8.37467 14.1107 8.21254 14.0389 8.03405C13.9672 7.85555 13.9323 7.66438 13.9364 7.47206C14.146 7.06325 14.4568 6.71487 14.839 6.46002C15.2213 6.20517 15.6624 6.05233 16.1204 6.01603C16.63 6.01603 17.5764 6.01603 17.5764 6.74405C17.5282 7.30712 17.2826 7.83506 16.883 8.23467C16.4834 8.63428 15.9555 8.87987 15.3924 8.92809Z" fill="#5B5A56"/>
  </svg>
