<svg width="14" height="14" viewBox="0 0 14 14" fill="none" xmlns="http://www.w3.org/2000/svg">
<path fill-rule="evenodd" clip-rule="evenodd" d="M7.0001 13.4C5.7343 13.4 4.49692 13.0246 3.44445 12.3214C2.39198 11.6181 1.57167 10.6186 1.08727 9.44915C0.602871 8.2797 0.476129 6.99288 0.723075 5.7514C0.97002 4.50992 1.57956 3.36955 2.47462 2.47449C3.36967 1.57944 4.51004 0.969898 5.75152 0.722953C6.993 0.476007 8.27982 0.602749 9.44927 1.08715C10.6187 1.57155 11.6183 2.39185 12.3215 3.44433C13.0247 4.4968 13.4001 5.73418 13.4001 6.99998C13.4001 8.69736 12.7258 10.3252 11.5256 11.5255C10.3253 12.7257 8.69748 13.4 7.0001 13.4ZM11.5718 6.99998C11.5725 6.10377 11.3085 5.22731 10.8131 4.48051L4.48063 10.813C5.16943 11.2687 5.96888 11.5293 6.79395 11.5669C7.61903 11.6046 8.43888 11.4179 9.16632 11.0267C9.89376 10.6356 10.5016 10.0546 10.9252 9.34555C11.3487 8.6365 11.5722 7.82591 11.5718 6.99998ZM2.42837 6.99998C2.4277 7.89619 2.69165 8.77265 3.18712 9.51944L9.51956 3.19056C8.83102 2.73495 8.0319 2.47441 7.20713 2.43662C6.38237 2.39883 5.56277 2.5852 4.83544 2.97592C4.10812 3.36664 3.50024 3.94712 3.07641 4.65566C2.65258 5.36421 2.42863 6.17434 2.42837 6.99998Z" fill="#010A13"/>
</svg>
