<svg width="40" height="40" viewBox="0 0 40 40" fill="none" xmlns="http://www.w3.org/2000/svg">
<path d="M38.9995 9L35.9995 25L32.9995 26V29L19.9995 37V29L22.9995 31L29.9995 27L31.9995 15.5L19.9995 7V3L32.9995 12L37.9995 9H38.9995Z" fill="#010A13"/>
<path d="M20 11C20 15.25 23.8438 19 28 19H20V13.2162V11Z" fill="#010A13"/>
<path d="M20 27C20 22.75 23.8438 19 28 19H20V24.7838V27Z" fill="#010A13"/>
<path d="M1.00049 9L4.00049 25L7.00049 26V29L20.0005 37V29L17.0005 31L10.0005 27L8.00049 15.5L20.0005 7V3L7.00049 12L2.00049 9H1.00049Z" fill="#010A13"/>
<path d="M20 11C20 15.25 16.1562 19 12 19H20V13.2162V11Z" fill="#010A13"/>
<path d="M20 27C20 22.75 16.1562 19 12 19H20V24.7838V27Z" fill="#010A13"/>
</svg>
