<svg width="40" height="40" viewBox="0 0 40 40" fill="none" xmlns="http://www.w3.org/2000/svg">
<path d="M16 32L16 35H35V16H31L31 12L35.3182 12C37.3516 12 39 13.6484 39 15.6818V35.3182C39 37.3516 37.3516 39 35.3182 39H15.6818C13.6484 39 12 37.3516 12 35.3182L12 32L16 32Z" fill="#010A13"/>
<path d="M3 5.68182C3 4.75298 3.75298 4 4.68182 4H24.3182C25.247 4 26 4.75298 26 5.68182V25.3182C26 26.247 25.247 27 24.3182 27H4.68182C3.75298 27 3 26.247 3 25.3182V5.68182Z" stroke="#010A13" stroke-width="4"/>
</svg>
