<svg version="1.2" xmlns="http://www.w3.org/2000/svg" viewBox="0 0 84 84" width="84" height="84">
	<title>icon-leaver</title>
	<style>
		.s0 { opacity: .94;fill: currentColor}
	</style>
	<path id="Path 0" fill-rule="evenodd" class="s0" d="m41.4 4.3l4.1 3.7c2.2 2.1 6 4.6 8.5 5.7 2.5 1.1 6.5 3.7 8.8 5.9 2.5 2.2 5.6 6.5 7.2 9.9 1.6 3.3 4.5 7.5 10 12.5l-3.6 3.2c-2 1.8-4.7 5.5-5.8 8.3-1.2 2.7-3.8 6.8-5.8 9-1.9 2.2-5.7 5.1-8.4 6.5-2.7 1.4-7 4.5-14.4 11.5l-4.7-4.5c-2.7-2.5-7-5.6-9.7-7-2.7-1.4-6.5-4.3-8.4-6.5-2-2.2-4.6-6.3-5.8-9-1.1-2.8-3.8-6.5-9.4-11.5l3.6-3.3c2-1.7 4.9-5.9 6.4-9.2 1.6-3.5 4.6-7.7 7.2-9.9 2.3-2.2 6.6-5 9.3-6.1 2.8-1.2 6.3-3.8 8-5.7zm-7.3 14.6c-2.8 0.8-6.1 3-9.1 5.9-2.7 2.7-5.3 6.4-6 8.7-0.7 2.2-2.3 5-3.4 6.3l-2.2 2.2c3.3 3.5 4.8 6.1 5.4 8 0.6 1.9 2.6 5.3 4.4 7.5 1.9 2.2 5.6 5.1 8.3 6.4 2.7 1.3 6.2 3.6 7.7 5l2.7 2.6c4.3-4 7.8-6.3 10.5-7.6 2.7-1.3 6.4-4.2 8.2-6.4 1.9-2.2 3.9-5.6 4.5-7.5 0.6-1.9 2-4.5 3.2-5.7l2.1-2.3c-3.3-3.5-4.8-6.3-5.5-8.5-0.7-2.2-3.4-6.1-5.9-8.6-2.9-3-6.2-5.1-9.1-6-2.4-0.7-5-2.1-5.7-3.1-0.7-1-1.7-1.8-2.2-1.8-0.5 0-1.6 0.8-2.3 1.8-0.7 1-3.2 2.4-5.6 3.1zm7.8 5.1c2.5 0 6.1 0.8 8 1.8 1.8 0.9 4.8 3.4 6.5 5.6 2.4 3.1 3.1 4.9 3.3 9.5 0.3 3.9-0.2 6.6-1.5 9-1 1.9-3.5 4.8-5.6 6.5-3.1 2.5-5 3.2-9.5 3.4-4 0.2-6.7-0.2-9.1-1.5-1.9-1-4.7-3.4-6.3-5.3-2-2.4-3.1-5-3.5-8.5-0.3-2.7 0-6.6 0.6-8.5 0.6-1.9 2.3-4.7 3.9-6.2 1.5-1.5 4.1-3.4 5.7-4.2 1.7-0.9 5.1-1.6 7.5-1.6z"/>
</svg>