<svg version="1.2" xmlns="http://www.w3.org/2000/svg" viewBox="0 0 50 50" width="50" height="50">
	<title>role-icon-marksman</title>
	<style>
		.s0 { opacity: .9;fill: #0a0804 } 
	</style>
	<path id="Path 0" class="s0" d="m22.8 6.8c-1.5 4.4-1.4 4.9 0.3 7.2l1.9 2.5c3.6-4.7 3.6-5.5 2.5-9.8-0.7-2.6-1.7-4.7-2.2-4.7-0.6 0-1.7 2.1-2.5 4.8zm-9.4 3.7c0.7 2.3 1.7 3.5 2.9 3.5 0.9 0 1.9-0.7 2.2-1.5 0.3-0.8 0.5-1.7 0.5-2 0-0.3-1.4-1.2-3-2-1.7-0.8-3.2-1.5-3.4-1.5-0.2 0 0.2 1.6 0.8 3.5zm20.4-2c-2 1.1-2.7 2.1-2.3 3.5 0.3 1.1 1.3 2 2.3 2 1.1 0 2.2-1.2 3-3.5 0.6-1.9 0.9-3.5 0.5-3.5-0.5 0.1-2 0.7-3.5 1.5zm-25.5 10.2c-1.7 2.1-4 5.7-5.2 8.1-1.1 2.3-1.8 4.2-1.3 4.2 0.4 0.1 1.4-0.6 2.2-1.5 0.8-0.9 3.1-2.2 5.1-2.8 3.5-1.2 3.8-1.1 7 2.2 2.7 2.7 3.5 3.1 3.7 1.8 0.1-0.9-0.2-2.6-0.8-3.7-0.8-1.5-0.6-2.1 0.5-2.5 0.8-0.3 1.7 0.1 1.9 0.8 0.2 0.6 0.7 3.9 1.2 7.2 0.6 4.8 0.4 6.5-0.9 8.8-0.9 1.5-1.7 3.8-1.7 5.2 0 2.3 0.2 2.4 2.5 1.3 2-1 3-1 5 0 2.3 1.1 2.5 1 2.6-1.3 0-1.4-0.7-3.8-1.7-5.3-1.4-2.2-1.6-3.8-1-8.7 0.5-3.3 1-6.6 1.2-7.3 0.2-0.6 1.1-1 1.9-0.7 1.1 0.4 1.3 1 0.5 2.5-0.5 1.1-0.9 2.8-0.7 3.7 0.1 1.3 0.9 0.9 3.6-1.8 3.2-3.3 3.5-3.4 7-2.2 2 0.6 4.3 1.9 5.1 2.8 0.8 0.9 1.8 1.6 2.3 1.5 0.4 0-0.3-1.9-1.4-4.3-1.2-2.3-3.4-5.9-4.9-8-2.5-3.3-2.9-3.6-4.1-2.2-1.2 1.3-2 1.4-4.9 0.4-3.3-1.1-3.7-1-5.7 1.5l-2.3 2.6c-4.3-5.1-4.7-5.2-8-4.1-2.9 1-3.7 0.9-4.6-0.4-0.9-1.4-1.5-1-4.1 2.2z"/>
</svg>