<svg version="1.2" xmlns="http://www.w3.org/2000/svg" viewBox="0 0 50 50" width="50" height="50">
	<title>role-icon-tank</title>
	<style>
		.s0 { opacity: .91;fill:  currentColor }
	</style>
	<path id="Path 0" fill-rule="evenodd" class="s0" d="m26.5 1.5c2.8 0.2 8.6 1.8 13 3.5 4.4 1.8 8.3 3.5 8.6 3.8 0.4 0.4-0.1 6.1-2.6 24.6l-9.3 7.8c-5 4.3-10.1 7.8-11.2 7.8-1.1 0-6.2-3.5-20.5-15.6l-1.6-11.9c-0.9-6.6-1.4-12.3-1-12.7 0.3-0.3 4.2-2 8.6-3.6 4.4-1.7 8.7-3.3 9.5-3.6 0.8-0.3 3.8-0.4 6.5-0.1zm-21.8 9.5c-0.1 0.3 0.6 5.2 1.4 10.9l1.4 10.3c8.5 7.1 11.8 9.9 12.8 10.7 1.7 1.5 1.8 1.3 1.7-3.7 0-3.9-0.4-5.2-1.5-5.2-0.9 0-1.5-0.9-1.5-2.5 0-2.4 0.3-2.5 6-2.5 5.7 0 6 0.1 6 2.5 0 1.6-0.6 2.5-1.5 2.5-1.1 0-1.5 1.2-1.5 5v5c5.8-4.5 9.2-7.3 11.2-9.2 3.6-3.2 3.8-3.6 5-13.6 1.1-9.1 1.1-10.5-0.2-11.2-0.8-0.4-4.8-1.9-8.7-3.4-4-1.4-8.8-2.6-10.5-2.6-1.8 0.1-7.1 1.5-11.7 3.3-4.6 1.8-8.4 3.4-8.4 3.7zm20.2-4c0.3-0.1 1.3 0.6 2.1 1.5 1.4 1.4 1.2 1.6-2 1.6-3.1 0-3.3-0.2-2.1-1.6 0.7-0.8 1.6-1.5 2-1.5zm-6.6 4c0.4 0 0.7 0.4 0.7 1 0 0.6 2.7 1 6 1 3.3 0 6-0.4 6-1 0-0.6 1.2-0.3 2.8 0.6 1.5 0.8 3.5 2.2 4.5 3 1.5 1.2 1.6 1.9 0.5 6-1.1 3.8-1.8 4.7-4.3 5.3-2.2 0.5-3.1 0.4-3.2-0.6-0.2-0.9-2.1-1.3-6.3-1.3-4.2 0-6.1 0.4-6.2 1.3-0.2 1-1.1 1.1-3.5 0.5-2.8-0.7-3.4-1.3-3.9-4.6-0.3-2-0.7-4.5-1-5.5-0.3-1.2 0.7-2.3 3.4-3.7 2-1 4-1.9 4.5-2z"/>
</svg>