<svg version="1.2" xmlns="http://www.w3.org/2000/svg" viewBox="0 0 42 42" width="42" height="42">
	<title>icon-leaver-v2 (1)</title>
	<style>
		.s0 { opacity: .98;fill:  currentColor }
	</style>
	<use id="Path 0" style="opacity: .99" href="#img1" x="5" y="2"/>
	<path id="Path 0" fill-rule="evenodd" class="s0" d="m17.5 2c1.8 0 2.5 0.5 2.5 2 0 1.1-0.4 3.1-1 4.5-0.6 1.4-1.7 2.5-2.5 2.5-0.8 0-2.9 1.7-4.6 3.8-2.8 3.3-3.1 4.3-2.8 8.9 0.3 3.7 1.1 5.8 2.9 7.8 1.4 1.4 4.2 3 6.3 3.5 2.6 0.7 4.8 0.6 7.4-0.3 2.3-0.7 4.6-2.6 6.1-4.7 1.9-2.7 2.3-4.5 2-8.2-0.2-3.2-1-5.4-2.8-7.2-1.4-1.5-3.8-3.2-5.3-3.9-2.3-1-2.8-1.8-2.7-5 0-3.3 0.3-3.7 2.5-3.7 2.1 0 2.5 0.5 2.5 2.7 0 2.1 0.8 3.3 3 4.5 1.6 1 3.9 3.6 5 5.8 1.1 2.2 2 5.8 2 8 0 2.2-0.6 5.2-1.4 6.8-0.7 1.5-2.7 3.9-4.5 5.5-1.7 1.5-4.8 3.1-6.9 3.7-2.4 0.6-5 0.6-7.5 0-2-0.6-5.1-2.2-6.8-3.8-1.8-1.5-3.8-3.9-4.5-5.5-0.8-1.5-1.4-4.5-1.4-6.7 0-2.2 0.8-5.7 1.7-7.7 1-2 3.3-4.8 5.1-6.2 2-1.6 3.3-3.5 3.2-4.8 0-1.8 0.6-2.3 2.5-2.3zm3.5 11c1.9 0 4.2 0.4 5 1 1.3 0.7 1.2 1.2-0.5 3-1.1 1.1-2.7 1.8-3.5 1.5-0.8-0.3-2.3 0.3-3.3 1.2-1 1-1.7 2.7-1.7 3.8 0 1.1-0.8 2.8-2 3.8-1.9 1.6-2 1.6-3-0.3-0.6-1.1-1-3-1-4.3 0-1.2 0.8-3.3 1.7-4.7 0.9-1.4 2.4-3 3.3-3.7 0.8-0.7 3.1-1.2 5-1.3zm9.8 5.7c0.7 1 1.2 2.9 1.2 4.3 0 1.4-0.8 3.6-1.7 5-0.9 1.4-2.4 3-3.3 3.7-0.8 0.7-3.1 1.2-5 1.3-1.9 0-4.2-0.4-5-1-1.3-0.7-1.2-1.2 0.5-3 1.1-1.1 2.6-1.8 3.2-1.5 0.7 0.3 2.2 0.1 3.3-0.5q2-1 1.8-3.7c-0.1-1.5 0.7-3.5 1.8-4.5 1.8-1.9 1.9-1.9 3.2-0.1z"/>
</svg>