<svg version="1.2" xmlns="http://www.w3.org/2000/svg" viewBox="0 0 40 37" width="40" height="37">
	<title>opgg</title>
	<style>
		.s0 { opacity: 1;fill: currentColor }
	</style>
	<g id="Background">
		<path id="Path 0" fill-rule="evenodd" class="s0" d="m8 3l1-1h1 3 1l1 1h1l1 1 1 1v1l1 1v1 3 2l-1 1v1l-1 1-1 1h-1-1l-1 1h-3-1l-1-1h-1l-1-1-1-1-1-1v-1-1-1-3-1-1l1-1 1-1 1-1zm0 5l-1 1v1l1 2v1h1l1 1h3l1-1 1-1v-1-2-1l-1-1-1-1h-1-1-1-1l-1 1zm13-5v-1h9 1l1 1h1l1 1v1l1 1v1 2 1l-1 1v1l-1 1h-1l-1 1h-6l-1 4h-2l-1-1v-1-3-5zm9 7l1-1v-2l-1-1h-5v4zm4 6v-1h2v1 1 1h-1-1v-1zm-27 6l1-1h1 1 3 1 1l1 1h1v1 1l-1 1h-1-1l-1-1h-1-1-1l-1 1-1 1-1 1v2 1l1 1 1 1 1 1h3l1-1v-2h-1-1v-2h7v3l-1 1v1l-1 1-1 1-1 1h-1-1-3-2l-1-1h-1l-1-1v-1l-1-1v-1-1-3-1-1l1-1v-1l1-1zm17 0l1-1h1 1 3 1 1l1 1h1v1 1l-1 1h-2l-1-1h-1-1-1l-1 1-1 1-1 1v3l1 1 1 1 1 1h3l1-1 1-2h-3v-2h7v2 1l-1 1v1l-1 1v1h-1l-1 1h-2-3-1-1l-1-1-1-1-1-1-1-1v-1-1-4-1l1-1v-1l1-1zm-14-20v-1h3v1zm11 0v-1h9v1zm-2 11v-2h1zm15-2h1v1h-1zm-31 1h1v1h-1zm29 1h1v1h-1zm-14 1h1v1h-1zm7 1v-1h6zm11 0h1v1h-1zm-29 2h1v1h-1zm26 0h1v1h-1zm3 0h1v1h-1zm-26 7h1v1h-1zm2 0h1v1h-1zm15 0h1v1h-1zm2 0h1v1h-1zm-26 1h1v1h-1zm21 5v-3h1v3zm12 0v-2h1v2zm-23 0h1v1h-1zm7 0h1v1h-1zm11 2l-2-2h3zm-28-1h1v1h-1zm7 2v-1h3v1zm8-1h1v1h-1zm9 1v-1h3v1zm7 1h1v1h-1zm-26 3v-1h2v1zm5-1h1v1h-1zm13 0h1v1h-1zm4 1v-1h2v1zm-16-35h1v1h-1zm-11 5h1v1h-1zm16 4v-3h1v3zm-16 0h1v1h-1zm30 5h1v1h-1zm-19 1h1v1h-1zm-5 3h1v1h-1zm4 0h1v1h-1zm13 0h1v1h-1zm4 0h1v1h-1zm-13 3h1v1h-1zm17 0h1v1h-1zm-31 3h1v1h-1zm17 4v-4h1v4zm-8-2v-1l7 1zm-9 2h1v1h-1zm4 0h1v1h-1zm5 0h1v1h-1zm12 0h1v1h-1zm-15 2h1v1h-1zm17 0h1v1h-1zm4 0h1v1h-1zm5 0h1v1h-1zm-25 5v-1h3v1zm17 0v-1h3v1zm-19-35h1v1h-1zm23 0h1v1h-1zm3 3h1v1h-1zm-16 1h1v1h-1zm-15 5v-3h1v3zm21 7l1-4v1 3zm12-2h1v1h-1zm-26 5v-1h3v1zm17 0v-1h3v1zm-20 0h1v1h-1zm17 0h1v1h-1zm8 0h1v1h-1zm-28 3h1v1h-1zm-1 6v-3h1v3zm10 2h1v1h-1zm-7-29h1v1h-1zm10 0h1v1h-1zm17 0h1v1h-1zm-16 1h1v1h-1zm-13 1h1v1h-1zm7 0h1v1h-1zm4 3h1v1h-1zm19 2h1v1h-1zm-19 1h1v1h-1zm-11 3h1v1h-1zm1 1h1v1h-1zm1 1h1v1h-1zm2 1h1v1h-1zm7 4h1v1h-1zm-6 3h1v1h-1zm4 0h1v1h-1zm8 0h1v1h-1zm5 0h1v1h-1zm4 0h1v1h-1zm-23 2h1v1h-1zm17 0h1v1h-1zm-10 5v-1 2zm4 0h1v1h-1zm7 0h1v1h-1zm-21 1h1v1h-1zm17 0h1v1h-1zm-4 1h1v1h-1zm-10 2h1v1h-1zm8 0h1v1h-1zm9 0h1v1h-1zm8 0h1v1h-1zm-27-31h1v1h-1zm5 1h1v1h-1zm2 0h1v1h-1zm-4 1h1v1h-1zm6 0h1v1h-1zm-7 1h1v1h-1zm1 6h1v1h-1zm10 0h1v1h-1zm13 0h1v1h-1zm-18 4h1v1h-1zm8 0h1v1h-1zm14 14h1v1h-1zm-13 2h1v1h-1zm12 0h1v1h-1zm-18 1h1v1h-1zm7 0h1v1h-1zm7-25h1v1h-1zm-16 3h1v1h-1zm-5 1h1v1h-1zm4 0h1v1h-1z"/>
	</g>
</svg>