<?xml version="1.0" encoding="iso-8859-1"?>
<!-- Uploaded to: SVG Repo, www.svgrepo.com, Generator: SVG Repo Mixer Tools -->
<svg fill="#000000" height="800px" width="800px" version="1.1" id="Layer_1" xmlns="http://www.w3.org/2000/svg" xmlns:xlink="http://www.w3.org/1999/xlink" 
	 viewBox="0 0 512.001 512.001" xml:space="preserve">
<g>
	<g>
		<path d="M223.727,126.726H78.306c-4.498,0-8.142,3.644-8.142,8.142v171.301c0,4.498,3.644,8.142,8.142,8.142h145.42
			c4.498,0,8.142-3.645,8.142-8.142V134.868C231.87,130.37,228.224,126.726,223.727,126.726z M86.448,143.011h41.592
			c-16.777,4.982-31.296,15.262-41.592,28.907V143.011z M151.017,155.95c9.41,0,18.347,2.04,26.418,5.675l-26.418,19.193
			l-26.418-19.193C132.669,157.99,141.606,155.95,151.017,155.95z M106.88,173.455l10.365,31.9l-30.418,22.1
			c-0.244-2.28-0.378-4.593-0.378-6.937C86.448,201.974,94.318,185.242,106.88,173.455z M86.448,298.027v-28.908
			c10.297,13.646,24.817,23.926,41.595,28.908H86.448z M91.305,245.056h38.839l12.839,39.512
			C119.565,281.647,100.006,266.149,91.305,245.056z M151.017,256.597l-7.213-22.198c-1.09-3.356-4.217-5.627-7.744-5.627h-23.341
			l18.884-13.72c2.854-2.072,4.048-5.748,2.958-9.103l-7.213-22.198l18.884,13.719c2.853,2.074,6.718,2.074,9.571,0l18.884-13.719
			l-7.213,22.198c-1.09,3.355,0.104,7.031,2.958,9.103l18.884,13.72h-23.341c-3.527,0-6.654,2.271-7.744,5.627L151.017,256.597z
			 M184.789,205.354l10.365-31.9c12.562,11.788,20.431,28.52,20.431,47.063c0.001,2.345-0.132,4.657-0.377,6.937L184.789,205.354z
			 M171.889,245.056h38.839c-8.7,21.093-28.259,36.59-51.677,39.512L171.889,245.056z M215.585,298.027H173.99
			c16.78-4.982,31.298-15.262,41.595-28.908V298.027z M215.585,171.918c-10.296-13.645-24.814-23.925-41.592-28.907h41.592V171.918z
			"/>
	</g>
</g>
<g>
	<g>
		<path d="M223.727,330.143H78.306c-4.498,0-8.142,3.644-8.142,8.142s3.644,8.142,8.142,8.142h145.42
			c4.498,0,8.142-3.644,8.142-8.142S228.224,330.143,223.727,330.143z"/>
	</g>
</g>
<g>
	<g>
		<path d="M433.694,130.867h-145.42c-4.498,0-8.142,3.644-8.142,8.142s3.645,8.142,8.142,8.142h145.42
			c4.497,0,8.142-3.644,8.142-8.142S438.191,130.867,433.694,130.867z"/>
	</g>
</g>
<g>
	<g>
		<path d="M433.694,165.81h-145.42c-4.498,0-8.142,3.644-8.142,8.142s3.645,8.142,8.142,8.142h145.42
			c4.497,0,8.142-3.644,8.142-8.142S438.191,165.81,433.694,165.81z"/>
	</g>
</g>
<g>
	<g>
		<path d="M433.694,200.754h-145.42c-4.498,0-8.142,3.644-8.142,8.142s3.645,8.142,8.142,8.142h145.42
			c4.497,0,8.142-3.644,8.142-8.142S438.191,200.754,433.694,200.754z"/>
	</g>
</g>
<g>
	<g>
		<path d="M433.694,235.697h-145.42c-4.498,0-8.142,3.644-8.142,8.142s3.645,8.142,8.142,8.142h145.42
			c4.497,0,8.142-3.644,8.142-8.142S438.191,235.697,433.694,235.697z"/>
	</g>
</g>
<g>
	<g>
		<path d="M433.694,270.64h-145.42c-4.498,0-8.142,3.644-8.142,8.142s3.645,8.142,8.142,8.142h145.42
			c4.497,0,8.142-3.645,8.142-8.142S438.191,270.64,433.694,270.64z"/>
	</g>
</g>
<g>
	<g>
		<path d="M433.694,305.583h-145.42c-4.498,0-8.142,3.644-8.142,8.142s3.645,8.142,8.142,8.142h145.42
			c4.497,0,8.142-3.645,8.142-8.142S438.191,305.583,433.694,305.583z"/>
	</g>
</g>
<g>
	<g>
		<path d="M223.727,359.188H78.306c-4.498,0-8.142,3.644-8.142,8.142s3.644,8.142,8.142,8.142h145.42
			c4.498,0,8.142-3.644,8.142-8.142S228.224,359.188,223.727,359.188z"/>
	</g>
</g>
<g>
	<g>
		<path d="M479.728,106.62h-5.618v-3.193c0-10.945-12.14-18.988-37.11-24.585c-20.396-4.572-47.391-7.089-76.015-7.089
			s-55.619,2.518-76.016,7.089c-13.218,2.963-22.838,6.61-28.968,11.012c-6.13-4.401-15.75-8.049-28.968-11.012
			c-20.396-4.572-47.392-7.089-76.016-7.089c-28.624,0-55.619,2.518-76.015,7.089c-24.971,5.596-37.11,13.639-37.11,24.585v3.193
			h-5.618C14.477,106.62,0,121.097,0,138.893v269.083c0,17.796,14.477,32.273,32.273,32.273h447.456
			c17.795,0,32.273-14.477,32.273-32.273V138.893C512,121.097,497.523,106.62,479.728,106.62z M37.891,423.964h-5.618
			c-8.816,0-15.988-7.172-15.988-15.988V138.893c0-8.815,7.172-15.988,15.988-15.988h5.618V423.964z M213.522,423.964
			c-14.419,0-28.839,0-43.258,0c-16.413,0-32.826,0-49.239,0c-13.27,0-26.541,0-39.81,0c-5.02,0-10.038,0-15.057,0
			c0.058-0.02,0.115-0.039,0.174-0.059c26.708-8.904,56.768-10.032,84.685-10.032c18.796,0,37.04,1.142,52.86,3.268
			c5.332,0.717,10.647,1.57,15.918,2.653c4.907,1.009,11.242,1.741,15.63,4.145C228.182,424.286,220.789,423.964,213.522,423.964z
			 M247.858,411.155c-5.515-2.446-12.448-4.598-20.826-6.477c-20.396-4.572-47.392-7.089-76.016-7.089
			c-28.624,0-55.619,2.518-76.016,7.089c-8.378,1.878-15.311,4.031-20.826,6.477V114.762v-10.608
			c1.558-1.814,8.984-6.441,29.039-10.401c18.662-3.687,42.742-5.717,67.802-5.717c25.061,0,49.141,2.03,67.802,5.717
			c20.055,3.96,27.481,8.587,29.039,10.401v10.608h0.002V411.155z M276.124,423.964c0.058-0.02,0.115-0.039,0.174-0.059
			c10.307-3.436,21.08-5.321,31.826-6.765c15.82-2.126,34.064-3.268,52.86-3.268c28.196,0,57.698,1.035,84.684,10.032
			c0.059,0.02,0.116,0.039,0.175,0.059H276.124z M457.824,411.155c-5.515-2.446-12.448-4.598-20.826-6.477
			c-20.396-4.572-47.392-7.089-76.016-7.089c-28.624,0-55.619,2.518-76.016,7.089c-8.378,1.878-15.311,4.031-20.826,6.477V114.762
			v-10.608c1.558-1.814,8.984-6.441,29.039-10.401c18.661-3.687,42.742-5.717,67.802-5.717c25.061,0,49.14,2.03,67.802,5.717
			c20.055,3.96,27.481,8.587,29.039,10.401v10.608h0.002V411.155z M495.715,407.976c0,8.815-7.172,15.988-15.988,15.988h-5.618
			V122.905h5.618c8.816,0,15.988,7.172,15.988,15.988V407.976z"/>
	</g>
</g>
</svg>