<svg version="1.2" xmlns="http://www.w3.org/2000/svg" viewBox="0 0 32 32" width="32" height="32">
	<title>trait_icon_11_altruist</title>
	<style>
		.s0 { opacity: 1;fill: currentColor }
		.s1 { opacity: .43;fill: currentColor }
		.s2 { opacity: .86;fill: currentColor }
		.s3 { opacity: .16;fill: currentColor }
		.s4 { opacity: .56;fill: currentColor }
		.s5 { opacity: .69;fill: currentColor }
		.s6 { opacity: .3;fill: currentColor }
		.s7 { opacity: .37;fill: currentColor }
		.s8 { opacity: .61;fill: currentColor }
	</style>
	<g id="Background">
		<path id="Path 0" class="s0" d="m5 6l1-1h1 1 3 1 1l1 1h1 2 1l1-1h1 1 1 1 1 1l1 1h1l1 1 1 1v1 1 1 2 1 1l-1 1v1l-1 1v1l-1 1-1 1-1 1h-1v-1-1-1l1-1v-1l1-1v-1-2-1-1l-1-1-1-1h-1-1-1l-1 1h-1l-1 1-1 1h-1v-1l-1-1h-1l-1-1h-1-1-1l-1 1-1 1v1 1 1h-1-1-2v-1-2-1-1l1-1v-1zm-2 11v-1h1 1 1l1 1v1l1 1v1l1 1 1 1h1l1 1h1l1-1-1-1v-2h1 1l1 1 1 1v1l1 1v1 1 1 1l-1 1v1h-2-1l-1-1h-1l-1-1-1-1h-1l-1-1-1-1-1-1v-1l-1-1-1-1v-1l-1-1zm19 5h1v1h-1z"/>
		<path id="Path 1" class="s1" d="m7 4h1v1h-1zm4 0h1v1h-1zm9 0h1v1h-1zm4 0h1v1h-1zm-22 5h1v1h-1zm2 6h1v1h-1zm24 1h1v1h-1zm-1 2h1v1h-1zm-15 4h1v1h-1zm6 3h1v1h-1zm-9 1h1v1h-1zm8 2h1v1h-1z"/>
		<path id="Path 2" class="s2" d="m22 4h1v1h-1zm3 1h1v1h-1zm-22 3h1v1h-1zm3 6h1v1h-1zm2 6h1v1h-1zm1 1h1v1h-1zm13 0h1v1h-1zm-11 1h1v1h-1zm12 0h1v1h-1zm-2 1h1v1h-1z"/>
		<path id="Path 3" class="s3" d="m12 4h1v1h-1zm7 0h1v1h-1zm6 0h1v1h-1zm-12 6h1v1h-1zm5 0h1v1h-1zm-4 1h1v1h-1zm3 0h1v1h-1zm-2 1h1v1h-1zm-10 3h1v1h-1zm-3 2h1v1h-1zm10 11h1v1h-1zm2 1h1v1h-1z"/>
		<path id="Path 4" class="s4" d="m13 5h1v1h-1zm-11 5h1v1h-1zm27 0h1v1h-1zm-27 3h1v1h-1zm27 0h1v1h-1zm-26 2h1v1h-1zm21 1h1v1h-1zm-11 6h1v1h-1zm9 1h1v1h-1zm-7 7v-1h2v1z"/>
		<path id="Path 5" class="s5" d="m18 5h1v1h-1zm-16 8v-2h1v2zm27 0v-2h1v2zm-27 3h1v1h-1zm15 6h1v1h-1z"/>
		<path id="Path 6" class="s6" d="m29 9h1v1h-1zm-24 5h1v1h-1zm24 0h1v1h-1zm-27 1h1v1h-1zm3 7h1v1h-1zm13 4h1v1h-1z"/>
		<path id="Path 7" class="s7" d="m16 12h1v1h-1z"/>
		<path id="Path 8" class="s8" d="m8 5v-1h3v1zm13-1h1v1h-1zm2 0h1v1h-1z"/>
		<path id="Path 9" class="s1" d="m5 5h1v1h-1zm21 0h1v1h-1zm-22 1h1v1h-1zm23 0h1v1h-1zm-4 3h1v1h-1zm-16 1h1v1h-1zm7 8h1v1h-1zm1 1h1v1h-1zm-11 1h1v1h-1zm12 0h1v1h-1zm6 0h1v1h-1zm-12 1h1v1h-1zm11 1h1v1h-1z"/>
		<path id="Path 10" class="s2" d="m10 8h1v1h-1zm11 0h1v1h-1zm-7 2h1v1h-1zm3 0h1v1h-1zm-1 1h1v1h-1zm-10 1h1v1h-1zm19 0h1v1h-1zm3 3h1v1h-1zm-1 2h1v1h-1zm-14 1h1v1h-1zm11 3h1v1h-1zm-16 4h1v1h-1zm2 1h1v1h-1zm7 1h1v1h-1z"/>
		<path id="Path 11" class="s3" d="m14 5h1v1h-1zm3 0h1v1h-1zm-11 11h1v1h-1zm2 3h1v1h-1zm1 1h1v1h-1zm8 1h1v1h-1zm4 3h1v1h-1z"/>
		<path id="Path 12" class="s4" d="m12 9h1v1h-1zm7 0h1v1h-1zm-16 9h1v1h-1zm23 1h1v1h-1zm-20 4h1v1h-1zm5 4h1v1h-1zm2 1h1v1h-1z"/>
		<path id="Path 13" class="s5" d="m7 18h1v1h-1zm18 2h1v1h-1zm-20 1h1v1h-1zm8 0h1v1h-1z"/>
		<path id="Path 14" class="s6" d="m8 9h1v1h-1zm16 1h1v1h-1zm0 5h1v1h-1zm-6 9h1v1h-1z"/>
		<path id="Path 15" class="s7" d="m3 7h1v1h-1zm25 0h1v1h-1zm-5 11h1v1h-1z"/>
	</g>
</svg>