<svg version="1.2" xmlns="http://www.w3.org/2000/svg" viewBox="0 0 1000 1000" width="1000" height="1000">

	<style>
		.s0 { fill: currentColor }
		.s1 { fill: currentColor }
		.s2 { fill: currentColor }
		.s3 { fill: currentColor }
		.s4 { fill: currentColor }
		.s5 { fill: currentColor }
		.s6 { fill: currentColor }
		.s7 { fill: currentColor }
	</style>
	<g id="Background">
		<path id="Path 0" fill-rule="evenodd" class="s0" d="m439.5 156.1c20.3-0.1 34.3 0.5 51 1.9 12.6 1.1 30.2 2.9 39 4 8.8 1.1 22.8 3.2 31 4.5 8.3 1.3 22.2 4 31 5.9 8.8 1.9 23.2 5.3 32 7.5 8.8 2.2 22.5 6.1 30.5 8.7 8 2.5 20.6 7 28 9.9 7.4 2.9 20.7 8.6 29.5 12.7 8.8 4.1 21.6 10.6 28.5 14.5 6.9 3.8 18.4 10.6 25.5 15 7.1 4.5 18 11.6 24 15.8 6 4.3 16.4 11.9 23 17 6.6 5.1 18.8 15 27 22.1 8.3 7 24.7 22.5 36.5 34.4 11.9 11.8 26.3 26.9 32.1 33.5 7.6 8.5 13.2 16.3 19.6 27 5 8.3 12.9 22.6 17.6 32 4.7 9.4 10.9 22.6 13.7 29.5 2.9 6.9 7 17.9 9.2 24.5 2.2 6.6 5.5 18.1 7.3 25.5 1.9 7.4 4.3 19.1 5.5 26 1.1 6.9 2.5 20.1 3.1 29.5 0.8 12.5 0.8 21.7 0 34.5-0.6 9.6-2 22.9-3.1 29.5-1.1 6.6-3.2 16.7-4.6 22.5-1.4 5.8-4.6 16.8-7.1 24.5-3.2 9.9-7.6 20.1-14.9 34.5-5.7 11.3-13.9 26.4-18.2 33.5-4.3 7.1-10.7 17.4-14.2 22.7-3.6 5.3-10.8 15.2-16 22-5.8 7.5-17 19.8-29 31.8-10.7 10.8-24.2 23.2-30 27.7-5.8 4.4-15.7 11.3-22 15.2-6.3 4-16.2 9.6-22 12.6-5.8 2.9-14.3 7-19 9-4.7 2-12.1 5-16.5 6.5-4.4 1.6-13.4 4.5-20 6.4-6.6 1.9-17.9 4.6-25 5.9-7.1 1.4-18.6 3.2-25.5 4.1-6.9 0.8-18.4 2-25.5 2.7-7.1 0.6-17.7 0.9-23.5 0.6-5.8-0.3-18.1-1.5-27.5-2.6-9.4-1.2-24.9-3.5-34.5-5.2-9.6-1.6-23.1-4.3-30-6-6.9-1.6-17.9-4.6-24.5-6.5-6.6-2-17.4-5.6-24-8.1-6.6-2.5-18.1-7.4-25.5-11-7.4-3.5-17.6-8.7-22.5-11.5-4.9-2.8-13.9-8.5-20-12.6-6.1-4.1-15.7-11.4-21.5-16.1-5.8-4.7-15.2-13.3-21-19.1-5.8-5.8-14.3-15.3-18.9-21-4.6-5.8-11.4-15-15.1-20.5-3.6-5.5-8.7-13.6-11.3-18-2.5-4.4-6.4-11.8-8.5-16.5-2.2-4.7-5.4-12.8-7.1-18-1.8-5.2-4.1-13.8-5.1-19-1.1-5.2-2.4-14.9-3-21.5-0.5-6.6-1-17.5-1-24.2 0-6.8-0.5-16.7-1.1-22-0.5-5.4-1.9-14.3-3-19.8-1.1-5.5-3.6-14.7-5.5-20.5-2-5.8-5.6-14.5-8.2-19.5-3.2-6.2-6.9-11.3-11.7-16.4-3.8-4-11.1-10.4-16-14.1-4.9-3.8-13.1-9.4-18-12.5-4.9-3.1-16.4-9.4-25.5-13.9-9.1-4.6-21-10.3-26.5-12.7-5.5-2.3-10.6-4.7-11.3-5.3q-1.4-1.1-0.7-4.1c0.3-1.6 2.8-5.9 5.5-9.5 2.6-3.6 7.2-8.8 10.2-11.6 2.9-2.8 8-6.9 11.3-9 3.3-2.2 8.8-4.8 12.2-5.9 3.5-1.1 6.3-2.2 6.3-2.5 0.1-0.3-3.7-2.3-8.2-4.4-4.6-2.1-14.4-6.3-21.8-9.3-7.4-3-21.4-8.2-31-11.4-9.6-3.3-23.6-7.7-31-9.9-7.4-2.1-20.9-5.7-30-8-9.1-2.3-24.8-5.9-35-8-10.2-2.1-28-5.5-39.5-7.4-11.6-1.9-25.1-4-30-4.7-5-0.7-9.6-1.9-10.3-2.6-0.6-0.7-1.2-2-1.2-2.8 0-0.8 1.6-4.6 3.5-8.5 1.9-3.9 5-9.4 6.9-12.2 1.8-2.9 5.5-8 8-11.3 2.6-3.3 8.4-9.8 12.9-14.3 4.5-4.6 12.5-11.6 17.7-15.6 5.2-4 14-9.9 19.5-13.1 5.5-3.2 15.2-8.3 21.5-11.3 6.3-3 15.8-7.1 21-9 5.2-1.9 14.2-4.9 20-6.7 5.8-1.8 17.5-4.9 26-6.9 8.5-2 16.5-3.6 17.7-3.6 1.3 0 2.3-0.4 2.3-1 0-0.6-0.8-1.2-1.8-1.5-0.9-0.2-15.2-3.8-31.7-8-16.5-4.2-31.5-8-33.3-8.6-1.9-0.5-3.4-1.7-3.7-2.9-0.3-1.1-0.3-2.8 0-3.7 0.3-1.2 9-6 24.2-13.5 13.1-6.4 33.2-15.5 44.8-20.1 11.6-4.7 28.4-10.9 37.5-14 9.1-3 21.2-6.9 27-8.5 5.8-1.7 17.7-4.9 26.5-7.1 8.8-2.2 21.4-5.2 28-6.6 6.6-1.4 18.7-3.7 27-5 8.2-1.3 20.9-3.1 28-4 7.1-0.9 22.4-2.4 34-3.4 13.5-1.2 31.1-1.9 49-2zm278.4 211.1c-4.2 4.5-11.1 12.8-15.4 18.3-4.3 5.5-10.6 14.3-14.1 19.5-3.4 5.2-8.7 14-11.8 19.5-3.1 5.5-8 15.6-11 22.5-2.9 6.9-7 17.2-8.9 23-2 5.8-5 15.7-6.6 22-1.6 6.3-3.9 17.6-5.1 25-1.3 7.4-2.8 14.1-3.4 14.8-0.6 0.7-1.8 1.3-2.6 1.3-0.8-0.1-7.4-2.5-14.5-5.5-7.1-2.9-17.5-6.8-23-8.5-5.5-1.8-15.4-4.6-22-6.2-6.6-1.6-15.4-3.6-19.5-4.4-4.1-0.8-14-2.4-22-3.5-11.5-1.6-19.9-2-41-2-14.6 0-31.2 0.5-37 1.1-5.8 0.5-16.8 2.1-24.5 3.4-7.7 1.3-16.5 2.9-19.5 3.6l-5.5 1.2c1.3 14.1 2.3 22.7 3 28.2 0.8 5.5 2.4 14.5 3.6 20 1.2 5.5 3.9 15.4 6 22 2.1 6.6 5.9 17 8.4 23 2.5 6 7.1 15.7 10.1 21.5 3.1 5.8 9.3 16.1 13.8 23 4.5 6.9 12.9 18.4 18.6 25.5 5.7 7.1 19.1 21.7 29.7 32.3 10.6 10.5 19.3 19.9 19.3 20.7 0 0.8-4.7 12.5-10.5 26-5.8 13.5-10.5 24.8-10.5 25.3 0 0.4 4.1 1.5 9.2 2.5 5.1 1 17.8 3.1 28.3 4.7 10.5 1.6 26 3.7 34.5 4.6 8.5 0.9 27.2 1.8 41.5 2.1 16.1 0.4 31.2 0.1 39.5-0.6 7.4-0.6 17.5-1.6 22.5-2.2 5-0.6 14.9-2.2 22-3.6 7.1-1.4 18.2-4 24.5-5.8 6.3-1.9 16.7-5.4 23-7.8 6.3-2.4 16.1-6.7 21.8-9.6 5.6-2.8 15.3-8.5 21.5-12.7 6.1-4.2 15.5-11.3 20.7-15.9 5.2-4.5 12.2-11.1 15.4-14.6 3.3-3.5 8.8-10 12.4-14.4 3.5-4.4 9.4-12.5 13-18 3.7-5.5 9.6-15.9 13.2-23 3.7-7.1 9-19 11.8-26.2 2.9-7.3 7-19.3 9.2-26.5 2.2-7.3 5.1-18.5 6.6-24.8 1.4-6.3 3.4-15.9 4.5-21.2l1.9-9.8c-3.5-2.2-13-7.8-23.5-14-10.5-6.1-19.3-11.6-19.6-12.3-0.4-0.7-0.9-4.3-1.3-8.2-0.4-3.9-1.6-11-2.6-16-1-4.9-3.1-13.3-4.5-18.5-1.5-5.2-4.8-14.7-7.2-21-2.4-6.3-6.9-16.4-9.8-22.5-3-6-8.6-16.4-12.6-23-3.9-6.6-10.4-16.5-14.3-22-3.9-5.5-11-14.9-15.9-21-4.8-6-15.1-17.9-22.7-26.2-7.7-8.4-14.3-15.3-14.8-15.3-0.4 0-6.1 4.9-12.7 10.9-6.6 6-15.4 14.7-19.6 19.3z"/>
		<path id="Path 1" class="s1" d="m946.6 452c-0.3 0.5-0.4 1.4-0.1 2 0.3 0.6 0 1-0.5 1-0.5 0-0.8 0.4-0.5 1 0.3 0.6-0.9 1.6-2.5 2.3-1.7 0.6-3.1 1.8-3 2.5 0 0.6-1.1 1.2-2.5 1.2-1.4 0-2.5-0.6-2.5-1.2q0-1.3-0.9 0.2c-0.6 0.8-0.8 1.8-0.5 2.3 0.2 0.4-0.5 0.5-1.6 0.2-1.3-0.3-1.7-1-1.3-1.7q0.8-1.3-0.5-0.5c-0.6 0.4-1 1.1-0.7 1.7 0.3 0.6-0.1 1-0.8 1-0.6 0-1.8-0.5-2.5-1.2-1-1-1.2-1-1.2 0 0 0.6-0.7 1.2-1.5 1.2-0.8 0-1.3 0.4-1 1 0.3 0.6 0 1-0.5 1-0.5 0-1.2-0.7-1.5-1.5-0.4-1.3-0.9-1.3-3.8-0.1-2.1 0.9-3.8 1.1-5 0.5-1.2-0.7-1.9-0.4-2.3 0.9-0.6 1.4-0.8 1.5-1.5 0.2-0.7-1.3-1-1.3-2.8 0.3-1.6 1.3-2.3 1.4-2.7 0.5-0.5-1-0.9-0.9-1.5 0.2-0.5 0.8-0.9 1.1-0.9 0.5 0-0.6-0.6-1-1.4-1-0.8 0-1.2 0.7-1 1.8 0.2 0.9-0.1 1.5-0.6 1.2-0.5-0.3-1-1.2-1-2 0-0.8-0.5-1.5-1-1.5-0.5 0-1 0.7-1 1.5 0 0.8-0.5 1.5-1 1.5-0.5 0-0.8-0.4-0.5-1 0.3-0.6 0.2-1-0.3-1-0.4 0.1-1.2 0.6-1.7 1.3-0.5 0.7-0.9 1-0.8 0.7 0.2-0.3-0.2-1.1-0.7-1.7-0.8-1-1.5-0.9-3.2 0.4-1.3 0.9-3.8 1.7-5.8 1.8-1.9 0-4.1-0.4-4.8-1-1-0.7-1.4-0.4-1.8 1.3-0.2 1.4-1.1 2.2-2.4 2.2-1.1 0-2-0.4-2-1 0-0.6-0.7-1-1.5-1-0.8 0-1.5 0.3-1.5 0.8 0 0.4-0.8 0.8-1.8 0.8-0.9 0.1-2.3-0.4-3.1-1-1-0.8-1.2-0.8-1 0.4 0.2 0.9-0.3 1.5-1.2 1.5-0.9 0-1.5 0.3-1.3 0.7 0.2 0.5-0.3 0.8-1.1 0.8-0.8 0-1.5 0.4-1.5 1 0 0.6-0.3 1.8-0.7 2.8-0.6 1.3-0.5 1.5 0.7 0.7 1.1-0.8 1.2-0.6 0.7 1.3-0.4 1.2-0.3 2.2 0.3 2.2 0.6 0 0.7 0.9 0.3 2.3-0.5 1.6-0.4 2 0.5 1.4 0.9-0.5 1-0.1 0.5 1.6-0.5 1.6-0.4 2 0.5 1.4 0.9-0.5 1 0 0.5 2.1-0.5 2-0.4 2.5 0.5 1.9 0.9-0.5 1 0 0.5 2.1-0.5 2-0.4 2.5 0.5 1.9 0.9-0.5 1.1 0 0.7 1.8-0.3 1.4 0 2.5 0.5 2.5 0.6 0 0.7 1.1 0.3 2.8-0.6 2.2-0.4 2.5 0.7 1.7 1.1-0.8 1.2-0.4 0.7 2.3-0.6 2.7-0.4 3.1 1 2.8 1-0.2 1.7-0.9 1.5-1.5-0.1-0.6 0.5-1.1 1.3-1.1 0.9 0 1.3 0.6 1 1.5-0.3 0.8 0 1.7 0.5 2 0.5 0.3 0.9-0.1 0.7-0.7-0.1-0.7 0.6-1.2 1.5-1 1 0.1 1.8-0.2 1.8-0.8 0-0.6 0.3-0.9 0.7-0.8 0.5 0.1 1.8-0.1 3-0.5 1.5-0.4 2.1-1.3 1.8-2.2-0.3-1 0.9-2.4 3.5-4 2.2-1.4 4.5-2.3 5-2 0.5 0.3 1 0.1 1-0.5 0-0.6-0.5-1.2-1-1.5-0.5-0.3-0.9-1.3-0.9-2.2 0.1-1.7 0.2-1.7 0.5 0 0.2 0.9 0.9 1.5 1.4 1.2 0.5-0.3 0.8-0.9 0.5-1.5-0.3-0.6 0.2-1.2 1-1.5 0.8-0.3 1.3-0.9 1-1.5-0.3-0.6 0.2-0.7 1.2-0.2 1.4 0.6 1.6 0.3 1-1.5-0.6-1.9-0.4-2.2 1.3-1.8 1.1 0.3 1.8 0.1 1.5-0.5-0.3-0.6 0-1.2 0.5-1.5 0.5-0.3 1 0.3 1 1.3-0.1 1.6 0 1.6 2.2 0 1.3-0.9 2.2-2.1 2-2.7-0.1-0.6 0.4-0.8 1-0.5 1 0.5 1 0.8 0 1.8-0.7 0.6-1.2 1.4-1.2 1.9 0 0.4 1 0 2.2-0.8 1.3-0.8 2.8-1.5 3.3-1.5 0.5 0 0.3 0.5-0.5 1-1.3 0.8-1.2 1 0.2 1 1 0 2-0.4 2.3-1 0.3-0.6 1-0.8 1.5-0.5 0.5 0.3 1 0.1 1-0.5 0-0.6-0.5-1-1.2-1-0.6 0-0.8-0.3-0.4-0.7 0.4-0.5 1.4 0.1 2.1 1.2l1.3 2c1.2-3.9 1.3-3.9 2.5-2.1 1.1 1.7 1.3 1.7 2.9 0.2 1-0.9 2.3-1.4 2.8-1.1 0.5 0.3 1.2 0.1 1.5-0.5 0.3-0.6 1-0.8 1.5-0.5 0.5 0.3 1 0.9 1 1.5 0 0.6-0.7 0.8-1.5 0.5-0.8-0.3-1.7-0.1-2 0.5-0.3 0.6 0.4 1 1.5 1 1.1 0 2.4-0.8 3-1.7 0.5-1 0.8-2 0.6-2.3-0.3-0.3 2-0.5 4.9-0.5 3.1 0 5 0.4 4.7 1-0.4 0.5 0 0.6 0.8 0.3 0.8-0.3 1.4-1.1 1.2-1.7-0.1-0.6 0.4-1.1 1-1.1 0.7 0 2.1 0.8 3.1 1.8 1.7 1.6 1.8 1.6 1.7 0 0-1-0.3-1.6-0.8-1.4-0.4 0.2-0.7-0.1-0.8-0.7 0-0.7 0.5-1.2 1.2-1.2 0.7 0 1 0.3 0.8 0.8-0.2 0.4-0.1 0.7 0.3 0.7 0.5 0 1.6-0.8 2.6-1.8 1.1-1.1 1.8-1.3 1.7-0.4 0 0.6-0.5 1.2-1 1.2-0.5 0-0.8 0.4-0.5 1 0.3 0.6 1.6 0.4 3.2-0.6 2.3-1.3 2.9-1.4 3.5-0.3q0.8 1.4 0.9-1.1c0-1.4 0.2-1.9 0.5-1.2 0.2 0.6 1.3 1.2 2.4 1.2 1.1 0 2-0.4 2-1 0-0.6-0.5-0.7-1.2-0.2-0.9 0.5-0.9 0-0.3-1.8 0.6-1.8 0.6-2.3-0.3-1.7-0.9 0.5-1 0.1-0.5-1.5 0.5-1.7 0.4-2.1-0.5-1.5-0.9 0.5-1 0.1-0.5-1.5 0.5-1.7 0.4-2.1-0.5-1.5q-1.2 0.7-0.7-0.8c0.3-0.8 0-1.5-0.5-1.5-0.6 0-0.7-0.8-0.3-1.7 0.5-1.3 0.4-1.6-0.5-1q-1.2 0.7-0.7-0.8c0.3-0.8 0-1.5-0.5-1.5-0.6 0-0.7-0.8-0.3-1.7 0.5-1.3 0.4-1.6-0.5-1q-1.2 0.7-0.7-0.8c0.3-0.8 0-1.5-0.5-1.5-0.5 0-0.7-0.6-0.4-1.2 0.3-0.7-0.1-1.9-0.9-2.6q-1.4-1.3-2.1-0.2zm-637.8 93c0.6 0.8 1 1.7 0.7 2-0.3 0.3 0.2 1.2 1.2 2 1.5 1.3 1.6 1.3 0.7 0-0.6-1.1-0.6-1.3 0.3-0.7 0.7 0.4 1.1 1.4 0.8 2.2-0.3 0.8 0.1 1.8 0.7 2.3 1 0.5 1 0.3 0.3-0.8-0.7-1.1-0.7-1.3 0.2-0.7 0.7 0.4 1.1 1.2 0.8 1.7-0.3 0.5 0.3 2.3 1.2 3.9 1 1.7 2.2 2.7 2.8 2.3 0.6-0.4 0.7-0.2 0.2 0.6-0.4 0.6 0.1 2.7 1 4.6 1.3 2.4 2.3 3.2 3.3 2.8q1.5-0.7 0.7 0.6c-0.4 0.7-0.1 1.2 0.8 1.2 0.8 0 2.5 0.1 3.7 0.3 1.3 0.2 3.1 0 4-0.5 1.1-0.5 1.6-0.4 1.3 0.2-0.3 0.5 0.2 1 1 1 0.8 0 1.8-0.6 2.2-1.2 0.6-1 0.4-1-0.7-0.3-1.1 0.7-1.3 0.7-0.7-0.2 0.5-0.9 1.2-1 2.2-0.3 0.8 0.5 1.9 0.8 2.5 0.5 0.5-0.3 1.4 0.2 2 1 0.9 1.3 1.3 1.3 3.5 0 1.9-1.1 2.5-1.2 2.5-0.2 0 0.6 0.3 0.9 0.7 0.5 0.4-0.5 1.4-0.2 2.1 0.5 1 0.9 1.3 0.9 1.2 0 0-0.8 1.5-1.4 3.5-1.5 1.9-0.2 3.5 0.2 3.5 0.7q0 1 0.8 0c0.4-0.6 3.2-1 6.2-1 3 0 6.2 0.4 7 0.9 0.9 0.5 1.9 0.4 2.5-0.2 0.5-0.6 1.6-0.9 2.2-0.6 0.7 0.2 1 1 0.7 1.7-0.3 0.6 0 0.4 0.8-0.5 1.2-1.5 1.4-1.5 2.6 0 1.2 1.5 1.2 1.5 0.7-0.3-0.6-1.6-0.4-1.8 0.7-0.9 0.7 0.6 3.7 1.1 6.5 1 2.9-0.1 5.3 0.2 5.3 0.7 0 0.4-0.6 0.4-1.2 0-0.8-0.5-1-0.4-0.6 0.2 0.3 0.5 2.1 1 4 0.9 1.8 0 4.9-0.4 6.8-0.8 1.9-0.5 3.8-1.4 4.2-2 0.4-0.6 0.8-1.7 0.8-2.3 0-0.7-0.5-1.1-1-0.8-0.6 0.3-0.8-0.5-0.5-2 0.3-1.4 0-2.5-0.5-2.5-0.6 0-0.7-1.1-0.3-2.7 0.5-2.1 0.4-2.6-0.5-2-0.9 0.5-1-0.2-0.5-3 0.5-2.8 0.4-3.6-0.5-3-0.8 0.4-1.2 0.1-1.2-1 0-1-0.6-2.7-1.5-3.8-1.4-1.9-1.5-1.9-0.8-0.1 0.7 1.6 0.5 1.8-1.2 1.4-1.1-0.4-3-0.9-4.3-1.2-1.3-0.4-2.8 0-3.7 0.9-0.8 0.8-1.5 1-1.5 0.5 0-0.5-1.8-1.1-3.9-1.2-2.2-0.2-3.6 0.1-3.3 0.6 0.4 0.5-1.1 0.8-3.5 0.5-2.4-0.2-4.3-0.1-4.3 0.4 0 0.4-0.7 0.7-1.5 0.7-0.9 0-1.2-0.5-0.8-1.2 0.5-0.8 0.4-1-0.2-0.6-0.6 0.3-2.4 0.9-4 1.2-1.7 0.3-3.9 0.9-5 1.3-1.2 0.4-1.7 0.3-1.3-0.3 0.3-0.5-1.1-0.9-3.3-0.9-2.1 0-3.9-0.3-3.9-0.7 0-0.5-1.4-0.2-3.2 0.4-2.6 1.1-3.3 1-4-0.2q-0.8-1.5-0.8-0.2c0 0.7-0.8 1-2 0.7-1.2-0.3-2 0-2 0.8q0 1.2-0.9-0.3c-0.5-0.8-1.4-1.2-2-0.7-0.6 0.4-1.1 0.1-1.1-0.5 0-1-0.2-1-0.8-0.1-0.4 0.6-1.4 1.1-2.4 1-0.9-0.1-2-0.5-2.5-0.9-0.4-0.4-1.8-0.3-3.1 0.2-1.2 0.6-3.3 1-4.7 1-1.4 0-2.3-0.5-2-1 0.3-0.5-0.2-0.8-1-0.5-0.8 0.3-1.7 0.1-1.9-0.5-0.3-0.5-1.3-0.6-2.3-0.2-1.3 0.5-1.6 0.3-1.1-0.6 0.6-0.8-0.2-0.7-2.2 0.3-2.7 1.4-3.1 1.3-4.1-0.2-0.9-1.6-1-1.6-0.4 0.2l0.7 2c-3.6-3.1-4.1-3.3-3.4-2.5z"/>
		<path id="Path 2" class="s2" d="m170.5 406.9c0.6 0.5 2.8 1.4 5 2.1 2.2 0.6 4.1 0.9 4.3 0.6 0.1-0.3-1.7-1.3-4.1-2.1-2.4-0.8-4.7-1.5-5.2-1.5-0.6 0-0.6 0.3 0 0.9zm757 5.3c0 1.5 0.4 2.8 0.9 2.8 0.5 0 0.6 0.3 0.3 0.8-0.4 0.4-1.3 0.1-2.2-0.5-0.9-0.8-1.7-0.9-2-0.3-0.3 0.6-1.1 0.7-1.7 0.4-0.7-0.3-2.1 0.2-3.1 1.1-1 0.9-1.8 1.3-1.8 0.8 0-0.4-1.2-0.7-2.7-0.5-2.2 0.3-2.4 0.1-1.2-0.8 1.2-1 1-1.1-1-0.6-1.4 0.3-2.8 0.6-3.2 0.6-0.5 0-0.6 0.5-0.3 1 0.3 0.6-0.1 1.3-0.7 1.8q-1.3 0.7-0.5-0.5c0.4-0.7 0.1-1.7-0.5-2.2-1-0.7-1.3-0.2-1.3 1.9 0 2.2-0.3 2.6-1.3 1.7-1.1-1-1.1-1.3 0-1.9 0.7-0.4 1-0.8 0.6-0.8-0.5 0-1.6-0.3-2.5-0.6-1.5-0.5-1.6-0.4-0.3 0.5 1.2 0.9 1 1.1-1.2 1.1-2.2 0-2.6 0.3-2 1.6 0.4 1 0.3 1.5-0.3 1.4-0.5-0.1-1.6-0.2-2.2-0.1-0.7 0-1.8 1.5-2.3 3.1-0.7 2-1.4 2.7-2.2 2.3-0.8-0.6-1.1 0-0.7 1.8 0.2 1.5 0.1 2.5-0.3 2.3-0.5-0.2-1 0.7-1.3 2.1-0.4 1.9-0.9 2.3-2.1 1.8-1.2-0.6-1.6-0.4-1.4 0.7 0.1 0.8 0.2 2.1 0.1 2.8-0.1 0.7-0.9 1-2.1 0.7-1.1-0.3-2.2 0-2.5 0.5-0.3 0.6 0.3 1 1.3 1.1 1.3 0 1.2 0.2-0.5 1-1.3 0.5-2.9 2-3.5 3.4-0.7 1.4-2 2.6-2.8 2.5-1.2 0-1.2 0.2-0.2 0.8 1.1 0.6 1.1 1-0.2 2.5-0.9 0.9-2.1 1.5-2.6 1.2-0.6-0.3-0.8 0.5-0.5 2 0.3 1.4 0 2.7-0.5 3-0.5 0.3-1.7 0.1-2.5-0.5-1.1-0.7-1.7-0.5-2.5 1-0.5 1.1-0.7 1.8-0.2 1.6 0.4-0.2 0.7 0.4 0.7 1.4 0 1-0.4 2.2-0.9 2.7-0.5 0.4-0.6 0.3-0.3-0.4 0.4-0.7 0.2-1.5-0.3-1.8-0.5-0.3-1 0.7-1 2.3 0 2.1-0.2 2.4-1 1.2-0.9-1.3-1-1.3-1.1 0-0.1 0.8-0.1 1.8 0 2.3 0 0.4-0.5 0.6-1.1 0.5-0.7 0-2.2 0.2-3.3 0.6l-2 0.8c3.1 2.2 3.5 2.8 3 2.7-0.5-0.1-1.6-0.1-2.2 0-0.7 0-1.1 0.6-0.8 1.1 0.3 0.6-0.4 1-1.5 1-1.1 0-2.3 0.5-2.7 1.2-0.6 0.8-0.1 1 1.7 0.4 1.4-0.5 3.4-1.3 4.5-2 1.1-0.6 3-1.2 4.2-1.1 1.3 0 2.3-0.3 2.3-0.7 0-0.5 0.7-0.8 1.5-0.8 0.8 0 1.5 0.5 1.5 1 0 0.6 0.9 1 2 1 1.3 0 2.2-0.8 2.4-2.2 0.4-1.7 0.8-2 1.8-1.3 0.7 0.6 3 1.1 5 1 2.1 0 4.6-0.8 5.8-1.7 1.6-1.4 2.2-1.5 3-0.5 0.5 0.6 0.9 1.4 0.7 1.7-0.1 0.3 0.3 0 0.8-0.7 0.5-0.7 1.3-1.2 1.8-1.3 0.4 0 0.5 0.5 0.2 1-0.3 0.6 0 1 0.5 1 0.5 0 1-0.7 1-1.5 0-0.8 0.5-1.5 1-1.5 0.5 0 1 0.7 1 1.5 0 0.8 0.5 1.7 1 2 0.5 0.3 0.8-0.3 0.6-1.2-0.2-1.1 0.2-1.8 1-1.8 0.8 0 1.4 0.5 1.4 1 0 0.6 0.4 0.3 0.9-0.5 0.6-1.1 1-1.2 1.5-0.2 0.4 0.9 1.1 0.8 2.7-0.5 1.8-1.6 2.1-1.6 2.8-0.3 0.7 1.3 0.9 1.2 1.5-0.2 0.4-1.3 1.1-1.6 2.4-0.9 1.1 0.6 2.8 0.4 5-0.5 2.8-1.2 3.3-1.2 3.7 0.1 0.3 0.8 1 1.5 1.5 1.5 0.5 0 0.8-0.4 0.5-1-0.3-0.5 0.2-1 1-1 0.8 0 1.5-0.6 1.5-1.2 0-1 0.2-1 1.2 0 0.7 0.7 1.9 1.2 2.6 1.2 0.6 0 1-0.4 0.7-1-0.3-0.5 0.1-1.3 0.7-1.7q1.3-0.8 0.5 0.5c-0.4 0.7 0 1.4 1.3 1.7 1.1 0.3 1.8 0.2 1.6-0.2-0.3-0.5-0.1-1.5 0.5-2.3q0.9-1.5 0.9-0.2c0 0.6 1.1 1.2 2.5 1.2 1.4 0 2.5-0.6 2.5-1.2-0.1-0.7 1.3-1.9 3-2.5 1.6-0.7 2.8-1.7 2.5-2.3-0.3-0.5 0-1 0.5-1 0.5 0 0.8-0.4 0.5-1-0.3-0.5 0-1.9 0.5-3 0.5-1.1 0.8-2.7 0.5-3.5-0.3-0.8-1-1.3-1.5-1-0.6 0.3-0.7-0.2-0.3-1.2 0.5-1.3 0.4-1.6-0.5-1-0.7 0.4-1 0.2-0.7-0.5 0.3-0.7-2.6-7.7-6.5-15.5-5-10.2-7.5-14.3-8.7-14.3q-1.8 0-0.6-0.8c0.9-0.5 0.9-1.1 0-2.3-1-1.4-1.2-1.2-1.2 1.3zm-739 0.6c0.6 0.5 2.6 1.4 4.5 2.1 1.9 0.6 4.2 1.1 5 1 0.8 0-0.1-0.6-2-1.3-1.9-0.7-4.6-1.7-6-2.1-1.6-0.5-2.2-0.4-1.5 0.3zm407.8 87.8c-0.7 0.2-1.1 0.9-0.8 1.4q0.5 1-1.5 0c-1.1-0.5-2-0.7-2-0.2 0 0.4-1.7 0.6-3.8 0.4-2.8-0.3-3.7 0-3.7 1.2 0 0.9 0.3 1.6 0.7 1.6 0.5 0 1.8-0.5 3-1.2 2.1-1 2.2-1 1 0.7-1.3 1.7-1.2 1.8 0.7 1.2 1.2-0.4 2.1-0.3 2.1 0.3 0 0.6 1 0.7 2.2 0.3 1.9-0.5 2.1-0.4 1.3 0.7-0.8 1.1-0.6 1.3 1.2 0.7 1.4-0.4 2.3-0.3 2.3 0.3 0 0.6 1 0.7 2.2 0.3 1.9-0.5 2.1-0.4 1.3 0.7-0.8 1.2-0.6 1.3 0.7 0.7 1-0.4 1.8-0.3 1.8 0.3 0 0.6 1 0.7 2.2 0.3 1.9-0.5 2.1-0.4 1.3 0.7-0.8 1.2-0.6 1.3 0.7 0.7 1-0.4 1.8-0.3 1.8 0.3 0 0.5 0.7 0.8 1.5 0.5q1.5-0.5 0.7 0.7c-0.5 0.9-0.1 1 1.5 0.5 1.4-0.4 2.1-0.3 1.8 0.3-0.3 0.5 0.4 1.2 1.5 1.5 1.1 0.3 2.6 0.2 3.2-0.2 0.9-0.6 1-0.4 0.3 0.6-0.8 1.2-0.6 1.3 1.5 0.6 1.8-0.6 2.3-0.6 1.7 0.3-0.4 0.8 0.3 1.6 2 2.3 1.7 0.7 3.4 0.8 4.3 0.3 1.1-0.7 1.3-0.5 0.7 0.4q-0.7 1.2 1.3 1c1.5-0.3 1.8-0.8 1.3-2.8-0.6-2-0.4-2.3 0.7-1.5 1.1 0.8 1.3 0.3 0.7-2.7-0.5-2.9-0.4-3.6 0.5-3 0.9 0.5 1-0.1 0.5-2.5-0.4-2.1-0.3-3.1 0.3-2.8 0.5 0.3 1-0.5 1-1.7 0.1-2.1-0.1-2.2-1.6-0.8-1 0.9-1.5 1-1.1 0.3 0.4-0.7 0.4-1.3-0.1-1.4-0.4 0-1.5-0.2-2.5-0.5-0.9-0.2-1.7 0-1.8 0.4 0 0.5-0.9 0.8-2 0.8-1.1-0.1-2.4-0.8-3-1.6-0.9-1.3-1-1.2-0.5 0.3q0.6 1.7-0.9 1.7c-1 0-1.3-0.5-0.8-1.7 0.5-1.3 0.4-1.6-0.5-1-0.6 0.4-1.2 1.3-1.2 2 0 0.6-1.1 1.2-2.5 1.2-1.8 0-2.4-0.4-1.9-1.5 0.5-1.2 0.3-1.3-0.8-0.3-1 1-1.6 1-2.7 0-1.1-1-1.2-0.9-0.5 0.2 0.7 1.2 0.4 1.3-1.6 0.6-1.5-0.5-2.2-0.5-1.9 0.1 0.4 0.5 0 0.8-1 0.8-0.9-0.1-2.3-0.4-3.1-0.7-0.8-0.4-2.8-0.8-4.4-1.1-2.4-0.4-2.7-0.2-2 1.2 0.7 1.5 0.5 1.5-0.9 0.5-0.9-0.7-1.5-1.7-1.2-2.3 0.2-0.5 0.3-1 0.2-0.9-0.1 0-0.8 0.2-1.5 0.5zm-336.2 7.2c0 0.6 1.1 1.9 2.5 2.7 1.4 0.8 3.1 1.2 3.7 0.8 0.7-0.3 1-0.2 0.6 0.3-0.5 0.5 0.1 1.5 1.2 2.2 1.1 0.6 2.4 1 3 0.7 0.5-0.3 1.3 0.1 1.7 0.8q0.8 1.2-0.5 0.5c-0.6-0.5-1.2-0.7-1.2-0.5-0.1 0.1 1.7 1.4 4 3 2.2 1.5 4.4 2.5 5 2.2 0.5-0.3 1.3 0.1 1.7 0.7 0.6 0.9 0.4 1-0.7 0.4-0.8-0.5-1.3-0.7-1-0.3 0.3 0.3 3 2.4 6 4.6 3 2.2 5.8 3.8 6.2 3.6 0.5-0.3 1.4 0.3 2 1.3 1.2 1.5 1.1 1.6-0.7 0.3-1.1-0.7-0.4 0.1 1.5 1.8 1.9 1.6 3.7 2.8 4 2.6 0.3-0.2 3 2.2 6 5.3l5.5 5.7-12-11c9.7 10 11.6 11.3 13.5 11.1 1.4-0.2 3.5-0.8 4.7-1.4 1.8-0.9 2.1-0.9 1.5 0-0.5 0.9-0.2 1 1 0.5 1-0.4 2-0.2 2.3 0.3 0.3 0.5 1.2 0.8 2 0.5 0.8-0.3 1.3 0 1 0.5-0.3 0.5 0.6 1 2 1 1.4 0 3.5-0.4 4.7-1 1.3-0.5 2.7-0.6 3.1-0.2 0.5 0.4 1.6 0.8 2.5 0.9 1 0.1 2-0.4 2.4-1 0.6-0.9 0.8-0.9 0.8 0.1 0 0.6 0.5 0.9 1.1 0.5 0.6-0.5 1.5-0.1 2 0.7q0.9 1.5 0.9 0.3c0-0.8 0.8-1.1 2-0.8 1.2 0.3 2 0 2-0.7q0-1.3 1 0.2c0.8 1.3 1.4 1.3 4 0.3 1.6-0.7 3-1 3-0.5 0 0.4 1.8 0.7 3.9 0.7 2.2 0 3.6 0.4 3.3 0.9-0.4 0.6 0.1 0.7 1.3 0.3 1.1-0.4 3.4-1 5-1.3 1.6-0.3 3.4-0.9 4-1.2 0.6-0.4 0.7-0.2 0.2 0.6-0.4 0.7-0.1 1.2 0.8 1.2 0.8 0 1.5-0.3 1.5-0.7 0-0.5 1.9-0.6 4.3-0.4 2.4 0.3 3.9 0 3.5-0.5-0.3-0.5 1.1-0.8 3.3-0.6 2.1 0.1 3.9 0.7 3.9 1.2 0 0.5 0.7 0.3 1.5-0.5 0.8-0.8 2.4-1.3 3.5-1 1.1 0.3 3 0.8 4.2 1.2 1.9 0.5 2.2 0.4 1.5-1-0.4-1-0.3-1.5 0.3-1.2 0.5 0.3 1.2-1 1.5-2.7 0.3-1.8 0.5-3.9 0.5-4.5 0-0.7-0.5-1.1-1-0.8-0.6 0.3-0.8-1.5-0.3-5.2 0.5-4.4 0.4-5.6-0.5-5-0.7 0.4-1.2 0.1-1.2-0.8 0-0.8-0.6-1.6-1.3-1.6-0.6-0.1-2.3-0.2-3.5-0.3-1.3 0-2.6 0.2-2.8 0.7-0.2 0.4-1.2 0.7-2.2 0.6-0.9 0-1.2-0.3-0.6-0.6 0.6-0.2 0.9-0.9 0.7-1.4-0.2-0.5-1-0.7-1.8-0.4-0.8 0.3-2.2-0.1-3.2-0.7-1.5-1.2-1.5-1.1-0.3 1.2 1.2 2.3 1.2 2.4-0.4 1-1.4-1.2-2.1-1.3-4.1-0.2-2.2 1.1-2.4 1-1.8-0.5 0.5-1.3 0.4-1.6-0.5-1-0.7 0.4-1.3 0.2-1.5-0.5-0.3-1-0.8-0.9-2.1 0.2-1.6 1.4-1.7 1.3-1-0.5l0.7-2-4.5 4c1.2-3.5 0.7-3.2-1.4-1-1.5 1.7-2.5 2.2-2.1 1.3 0.5-1.3 0.1-1.9-1.3-2.3-1.1-0.3-2-0.8-2-1.2 0-0.5-1-0.7-2.3-0.7-1.2 0.1-3 0.4-4 0.8-0.9 0.3-2.4 0-3.4-0.6-1.5-1.2-1.5-1.1-0.3 1.2 1.2 2.3 1.2 2.4-0.3 1.3-1-0.7-2-1.1-2.5-0.9-0.4 0.2-0.7-0.2-0.7-0.9 0-0.7 0.3-1.1 0.7-0.9 0.5 0.2 0.8 0.1 0.8-0.3 0-0.5-1.6-0.8-3.5-0.8-2.5 0-3.5 0.4-3.5 1.5 0 1.3-0.2 1.3-1.2-0.1-0.7-0.9-2.2-1.9-3.3-2.3l-2-0.6c3.9 3 3.9 3 1.2 3-1.5 0-3.4-0.7-4.2-1.5-0.8-0.8-1.8-1.3-2.3-1-0.4 0.3-1.5-0.3-2.5-1.2-1.7-1.7-1.8-1.7-1.7 0 0 1.2-0.6 1.6-2 1.2-1.1-0.3-1.8-1-1.5-1.5 0.3-0.6-0.4-0.8-1.5-0.5-1.1 0.3-1.8 1-1.5 1.5 0.3 0.5 0 1-0.5 1-0.6 0-1.6-0.6-2.3-1.4-0.9-1.1-1.5-1.2-2.3-0.3-0.9 0.9-1.4 0.9-2-0.3-0.7-1.2-0.6-1.3 0.6-0.5 1.1 0.7 1.3 0.7 0.7-0.2-0.4-0.7-1.5-1.1-2.5-0.8-0.9 0.2-3.2 0.7-5 1-2.4 0.4-3.2 0.1-3.2-1 0-0.9-0.5-1.2-1.3-0.8-0.6 0.4-2.1 0.6-3.2 0.5-1.1-0.2-2.4 0.3-2.8 1q-0.9 1.3-0.3-0.4c0.4-1.3 0.1-1.8-1.4-1.8-1.1 0-2.8-0.3-3.8-0.7-1.3-0.6-1.5-0.4-0.8 0.7 0.8 1.2 0.7 1.3-0.5 0.2-0.8-0.6-2.6-1-4.2-0.7-2.4 0.4-2.7 0.2-2.7-2.2-0.1-2.6-0.1-2.7-1.2-0.8-0.6 1.1-1.3 2.1-1.4 2.3-0.2 0.1-1.1-0.5-1.9-1.3-1-1-1.9-1.2-2.8-0.5-0.8 0.6-2.4 0.6-4.7-0.2-1.9-0.6-4.3-1.4-5.2-1.9-1-0.5-2-0.5-2.3 0.1-0.3 0.6-1.1 0.5-2-0.2-1.3-1.1-1.6-1-1.6 0.2 0.1 1.3 0 1.3-0.9 0q-1-1.5-1-0.2z"/>
		<path id="Path 3" class="s3" d="m873.5 448.7c-1.7 0.2-3.8 1.3-4.7 2.4-1.5 1.9-1.6 1.9-2 0.2-0.3-1-1.5-1.9-2.6-2-1.2-0.2-2 0.2-1.7 0.7 0.3 0.6 0.2 1.1-0.2 1.1-0.5 0.1-2 0.2-3.5 0.3-2.1 0.1-2.4-0.2-1.5-1.2 0.7-0.7 0.8-1.3 0.2-1.2-0.5 0-1.8 0.8-2.7 1.8-1.6 1.5-1.9 1.5-3.5 0.2-0.9-0.8-1.4-1-1-0.2 0.4 0.7 0 1.4-0.8 1.7-0.8 0.3-1.3 0.1-1-0.5 0.3-0.6-0.2-1-1-1-0.8 0-1.5 0.6-1.5 1.3q0 1.2-1-0.3c-0.5-0.8-1-1.2-1-0.7 0 0.4 0.6 1.8 1.3 3.2 0.6 1.3 1.6 2.1 2.2 1.7 0.6-0.4 0.7 0 0.2 1.1-0.4 0.9-0.5 2.4-0.2 3.2 0.3 0.9 1 1.2 1.7 0.8 0.9-0.6 1-0.3 0.5 1-0.4 0.9-0.5 2.4-0.2 3.2 0.3 0.8 1 1.3 1.5 1 0.5-0.3 1.2 0.3 1.5 1.3 0.3 0.9 0.3 2.4 0 3.2-0.4 1 0.2 1.6 1.7 1.7 1.3 0.1 2.5-0.1 2.8-0.5 0.3-0.4 1.9-1.8 3.5-3.2 1.7-1.4 3.2-2.8 3.3-3.2 0.1-0.5 0.2-1.4 0.2-2q0-1.3 1 0.2c0.8 1.2 1 0.9 1-1.2 0-1.6 0.5-2.6 1-2.3 0.5 0.3 0.7 1.1 0.3 1.8-0.3 0.7-0.2 0.8 0.3 0.4 0.5-0.5 0.9-1.7 0.9-2.7 0-1-0.3-1.6-0.7-1.4-0.5 0.2-0.3-0.5 0.2-1.6 0.8-1.5 1.4-1.7 2.5-1 0.8 0.6 2 0.8 2.5 0.5 0.5-0.3 0.8-1.9 0.5-3.5-0.4-2.6-0.2-2.9 1.5-2.5q2 0.5 2-1c0-0.8-0.1-1.4-0.2-1.3-0.2 0-1.7 0.3-3.3 0.5zm-481.4 64.1c-0.8 1.3-1 1.4-1 0.2 0-1.2-0.3-1.3-1.6-0.2-0.9 0.7-1.7 0.8-2 0.2-0.3-0.5-1.1-1-1.8-1q-1.2 0 0.3 1.1c1.2 0.8 0.9 0.9-1.3 0.5-2-0.4-2.5-0.3-2 0.6 0.6 0.9 0.4 1-0.7 0.3-0.8-0.5-3.4-0.9-5.8-1-3.3 0-4.1 0.3-3.7 1.5 0.3 0.8-0.1 0.6-0.9-0.5-1.2-1.6-1.5-1.7-1.9-0.5-0.3 1.2-0.7 1.3-2 0.3-1.4-1.1-2-1-3.2 0.2-1.3 1.3-1.5 1.3-1.9-0.2-0.3-1.7-0.4-1.7-0.5 0 0 0.9-0.4 1.7-0.9 1.7-0.4-0.1-1.3-0.8-2-1.8-0.8-0.9-1.1-1.1-0.8-0.4 0.4 0.8-0.5 1.2-2.9 1.2-2.5 0-3.3-0.3-2.8-1.2 0.6-0.9 0.4-1-0.7-0.4-0.8 0.5-3.5 0.9-6 0.9-2.5 0-5.3 0.4-6.3 0.9-0.9 0.4-1.8 0.4-2 0-0.1-0.5-1.7-0.5-3.5 0-1.7 0.4-3 1.3-2.7 1.8 0.3 0.5 0.9 0.8 1.5 0.5 0.5-0.3 1.7 0.2 2.5 1 0.8 0.8 2.7 1.5 4.2 1.5 2.7 0 2.7 0 0.8-1.5l-2-1.5c3.1 1 4.6 2 5.3 2.9 1 1.4 1.2 1.4 1.2 0.1 0-1.1 1-1.5 3.5-1.5 1.9 0 3.5 0.3 3.5 0.8 0 0.4-0.3 0.5-0.8 0.3-0.4-0.2-0.7 0.2-0.7 0.9 0 0.7 0.3 1.1 0.7 0.9 0.5-0.2 1.5 0.2 2.5 0.9 1.5 1.1 1.5 1 0.3-1.3-1.2-2.3-1.2-2.4 0.3-1.2 1 0.6 2.5 0.9 3.4 0.6 1-0.4 2.8-0.7 4-0.8 1.3 0 2.3 0.2 2.3 0.7 0 0.4 0.9 0.9 2 1.2 1.4 0.4 1.8 1 1.3 2.3-0.4 0.9 0.6 0.3 2.1-1.3 2.1-2.2 2.6-2.5 2.1-1l-0.7 2 4.5-4c-1.4 3.8-1.3 3.9 0.3 2.5 1.3-1.1 1.8-1.2 2.1-0.2 0.2 0.7 0.8 0.9 1.5 0.5 0.9-0.6 1-0.3 0.5 1-0.6 1.5-0.4 1.6 1.8 0.5 2-1.1 2.7-1 4.1 0.2 1.6 1.4 1.6 1.3 0.4-1-1.2-2.3-1.2-2.4 0.3-1.2 1 0.6 2.4 1 3.2 0.7 0.8-0.3 1.7 0 2 0.5 0.3 0.5-0.1 1.2-0.8 1.4-0.6 0.3-0.4 0.5 0.5 0.5 1 0.1 2-0.4 2.3-0.9 0.3-0.5 2.1-0.8 4-0.5 3.3 0.5 3.5 0.3 4-2.7 0.3-1.8 0.5-4.8 0.5-6.5 0-3.2-0.1-3.3-2.8-2.3-1.8 0.7-3 0.7-3.7 0-0.6-0.6-1.3-1-1.7-1-0.4 0-1.2 0.8-1.7 1.8zm-70.3 1c0 0.4 0 1 0.1 1.5 0 0.4-0.4 0.7-0.9 0.7-0.6 0-1.2-0.6-1.4-1.2-0.3-0.7-0.5-0.5-0.5 0.5-0.1 0.9 0.1 1.7 0.4 1.7 0.3 0 1.3 0.3 2.2 0.7 1.1 0.3 1.5 0.2 1.1-0.3-0.4-0.5 0-1.4 1-2 1.6-1 1.6-1.1-0.1-1.7-1-0.4-1.8-0.3-1.9 0.1z"/>
		<path id="Path 4" class="s4" d="m902.5 377.8c0.3 0.7-0.5 1.4-1.8 1.6l-2.2 0.3c3.5 0.2 4.5 1 4.5 1.8 0 0.8-0.7 1.5-1.5 1.5-0.9 0-1.2-0.5-0.8-1.3q0.8-1.2-0.5-0.5c-0.6 0.5-1.9 0.3-2.7-0.2-1-0.7-1.6-0.6-1.8 0.2-0.2 0.7 0 0.8 0.7 0.2q1.1-0.9 0.4 0.4c-0.5 0.6-0.4 1.3 0.1 1.4 0.5 0.2 0.2 1-0.7 1.8-1.5 1.3-1.5 1.3-0.9-0.3 0.5-1.1 0.1-2.1-1.2-3-1.6-1-1.8-1.5-0.8-2.7 1.1-1.3 1-1.3-0.6 0-1 0.8-1.6 2.1-1.3 2.7 0.3 0.7-0.1 1.5-0.9 1.8-0.8 0.3-1.7-0.1-1.9-0.8-0.4-1-0.5-1-0.5 0-0.1 0.7-0.6 1.1-1.1 0.8-0.5-0.3-2.1 0.2-3.5 1-1.4 0.8-2.5 1-2.5 0.5 0-0.6 0.5-1.2 1-1.5 0.5-0.3 1-1.1 1-1.8 0-0.6-0.3-0.9-0.7-0.4-0.4 0.4-1.7-0.1-2.8-1-1.3-1.2-1.6-1.3-0.9-0.3 0.6 0.8 1 2.1 1 2.9-0.1 0.8-0.8 1.7-1.6 2-1.1 0.4-1.3 0.1-0.7-0.9 0.5-0.8 0.1-0.7-0.7 0.2-0.9 1-2.1 1.6-2.6 1.3-0.5-0.3-0.8-0.9-0.5-1.5 0.3-0.6 0-1.2-0.5-1.5-0.5-0.3-1.7 0-2.6 0.7-0.9 0.6-1.3 1.7-1 2.5 0.3 0.7 0.1 1.5-0.4 1.8-0.5 0.3-0.9-0.1-0.7-0.8 0.1-0.6-0.5-1-1.3-0.8-1.1 0.2-1.3-0.1-0.7-1.5 0.6-1.7 0.5-1.7-0.8 0.1-0.9 1.1-1.5 1.4-1.5 0.7 0-0.6-0.5-1.2-1-1.2-0.5 0-0.8 0.3-0.6 0.7 0.2 0.5-0.2 1.9-1 3.3-1.4 2.3-1.4 2.3-0.9 0.2 0.3-1.2 0-2.2-0.5-2.2-0.5 0-1 0.4-1 1 0 0.6-1.1 1-2.5 1-1.4 0-2.3-0.4-2-1 0.3-0.6 1-0.8 1.5-0.5 0.5 0.3 1 0.1 1-0.5 0-0.6-0.5-1-1-1-0.5 0-1.2 0.4-1.5 1-0.3 0.6-1.9 1-3.5 1-2.4 0-2.9 0.3-2.4 1.7 0.6 1.6 0.5 1.5-0.7-0.1-1.2-1.5-1.8-1.6-3.6-0.7-1.5 0.7-2 1.6-1.5 2.3 0.5 0.9 0.3 1-0.8 0.3-0.8-0.5-2-1-2.5-1.1-0.5-0.1-1.5-0.3-2-0.4-0.5-0.1-1.6-0.2-2.2-0.1-0.7 0-1.1 0.8-0.8 1.6 0.3 0.8-0.1 1.8-0.7 2.2q-1.3 0.8-0.5-0.5c0.4-0.6 0.4-1.9 0-2.7-0.6-1-1.3-1.1-2.3-0.5-1.2 0.8-1.3 1.3-0.2 3 0.6 1.1 1.2 2.3 1.2 2.7 0 0.5-0.5 0-1-1-0.8-1.4-1.3-1.5-2.5-0.5-1.3 1-1.6 1-1.5 0 0-0.6 0.6-1.4 1.3-1.6 0.6-0.3-0.5-0.5-2.5-0.5-2.2-0.1-3.6-0.5-3.3-1.1 0.3-0.6 0-1.2-0.5-1.5-0.5-0.3-1 0.4-1 1.5 0 1.1-0.5 2.2-1 2.5-0.5 0.3-1.5-0.2-2-1q-1-1.5 0-2c0.5-0.3 1-0.9 1-1.5 0-0.6-1.1 0.1-2.5 1.5-1.4 1.4-3.2 2.3-4 2-0.8-0.3-1.7-0.1-2 0.5-0.3 0.6 0.7 2.7 2.2 4.7 1.5 2.1 3.1 4.2 3.6 4.8q1 0.9 0.1-0.5c-0.6-1.1-0.5-1.3 0.4-0.7 0.6 0.4 1 1.4 0.7 2.2-0.3 0.8 0.1 1.8 0.8 2.2 0.9 0.6 0.9 0.4 0.2-0.7-0.7-1.1-0.7-1.3 0.3-0.8 0.6 0.5 0.9 1.4 0.6 2-0.3 0.7 1 2.9 2.8 4.7 1.8 1.9 2.6 3.1 1.8 2.5-1-0.6-0.9 0.1 0.5 2.3 1.1 1.8 2.5 2.9 3 2.5 0.6-0.4 0.7-0.2 0.3 0.6-0.5 0.6-0.2 2.1 0.5 3.2 0.6 1.1 1.6 1.7 2 1.2 0.5-0.4 0.6 0.1 0.3 1-0.4 1.2 0.4 2.8 2.2 4.5 1.5 1.4 2.1 2.3 1.5 2-0.7-0.4 1.1 4 4 9.7 2.8 5.8 5.5 10.3 6 10 0.4-0.2 0.7 0.3 0.7 1.1 0 1.1 0.6 1.3 2.3 0.8 1.6-0.5 2-0.4 1.5 0.5q-0.8 1.2 0.7 0.7c0.8-0.3 1.2-1 0.8-1.8-0.4-0.7 0.1-0.5 1 0.3 1.6 1.3 1.9 1.3 3.5-0.2 0.9-1 2.2-1.8 2.7-1.8 0.6-0.1 0.5 0.5-0.2 1.2-0.9 1-0.6 1.3 1.5 1.2 1.5-0.1 3-0.2 3.5-0.3 0.4 0 0.5-0.5 0.2-1.1-0.3-0.6 0.5-0.9 1.7-0.8 1.2 0.2 2.3 1.2 2.6 2.3 0.4 1.9 0.4 1.9 1.8-0.3 0.9-1.5 2.4-2.2 4.4-2.2 1.6 0 3-0.4 3-1 0-0.6 0.6-1 1.2-1 0.7 0 1.9-1.1 2.5-2.5 0.7-1.4 2.3-2.9 3.5-3.4 1.8-0.8 1.9-1 0.5-1-0.9-0.1-1.5-0.5-1.2-1.1 0.3-0.6 1.4-0.8 2.5-0.5 1.2 0.3 2 0 2.1-0.8 0.1-0.6 0-1.9-0.1-2.7-0.2-1.1 0.2-1.3 1.4-0.8 1.2 0.6 1.7 0.2 2.1-1.7 0.3-1.4 0.8-2.3 1.2-2.1 0.5 0.2 0.6-0.8 0.4-2.3-0.4-1.8-0.1-2.4 0.7-1.9 0.8 0.5 1.5-0.2 2.2-2.2 0.5-1.6 1.6-3.1 2.2-3.1 0.7-0.1 1.6-0.1 2 0 0.5 0 0.6-0.6 0.3-1.4-0.3-0.8 0-1.5 0.5-1.5 0.5 0 0.8-0.7 0.5-1.5-0.3-0.9 0.1-1.5 1-1.5 0.8 0 1.3-0.4 1-1-0.3-0.6 0-1 0.5-1 0.5 0 0.8-0.4 0.5-1-0.3-0.6 0.2-1.8 1.1-2.8 0.8-0.9 1.3-2.3 1-3-0.4-0.7 0.3-1.4 1.6-1.6 1.7-0.3 2.1-0.9 1.5-2-0.4-0.9-0.2-2.5 0.3-3.6 0.6-1.2 1.5-1.7 2.2-1.3 0.9 0.6 1 0.3 0.4-1.2-0.7-1.8-0.6-1.9 0.9-0.5 1.4 1.4 1.6 1.2 1.5-1.8 0-1.8 0.4-3 1-2.7 0.5 0.3 1.2-0.1 1.4-0.8 0.2-0.6-0.5-2.3-1.6-3.7-1.1-1.4-1.6-1.8-1.1-1 0.5 1.1 0.4 1.3-0.5 0.7-0.6-0.4-1-1.4-0.7-2.2 0.3-0.9-0.4-2-1.8-2.7-1.2-0.7-2.5-1.1-3-1-0.4 0.1-0.5-0.2-0.2-0.8 0.3-0.6 1.1-0.5 2.2 0.2 1.4 1 1.3 0.7-0.2-1.1-1.1-1.2-2.1-1.8-2.3-1.2-0.1 0.6-0.7 0.9-1.2 0.6-0.5-0.3-0.8 0.2-0.5 1 0.3 0.8-0.1 1.8-0.7 2.2q-1.3 0.8-0.5-0.5c0.4-0.6 0.2-1.2-0.3-1.2-0.5 0-0.8-0.4-0.5-1 0.3-0.6 0-1.3-0.5-1.7-0.5-0.3-0.8-0.1-0.5 0.5zm-245 57.2c-0.3 0.5-0.3 1.4 0 2 0.3 0.5-0.2 1-1 1-0.8 0-1.7-0.3-1.9-0.8-0.2-0.4-1.9-0.7-3.8-0.6-2 0-3.2 0.5-3.1 1.2 0.2 0.7-0.5 1-1.7 0.7-1.2-0.3-1.7-1-1.3-1.8 0.5-0.9 0.3-0.9-0.8-0.1-0.9 0.6-2.3 1-3.2 1-0.9-0.1-1.7-0.6-1.7-1.1 0.1-0.6-0.6-0.4-1.5 0.2-0.8 0.7-1.3 1.6-1.1 2 0.2 0.5-0.9 0.8-2.4 0.8-2.3 0-2.6-0.3-1.7-1.5 0.7-0.8-0.6-0.1-2.7 1.5-2.2 1.7-3.7 2.3-3.2 1.5 0.4-0.9 0.2-0.8-0.6 0.2-0.7 1-1.6 1.7-2.1 1.8-0.4 0-0.2-1 0.4-2.3l1.1-2.2c-3.2 3.5-4 4.9-3.7 5.5 0.3 0.5-0.2 0.8-1 0.5-0.8-0.3-1.5-1-1.5-1.5 0-0.6-0.5-0.8-1-0.5-0.5 0.3-0.8 0.9-0.5 1.5 0.3 0.5-0.3 0.9-1.3 0.8-0.9 0-2.5 0-3.5 0-0.9 0.1-1.7 1-1.7 1.9 0.1 1.5-0.2 1.6-1.5 0.5-0.8-0.6-2-1-2.5-0.7-0.5 0.3-1 1.3-1 2.2 0.1 1.6-0.1 1.6-1.5 0.3-1.3-1.2-1.3-1.7-0.3-2.3 1-0.6 0.9-0.7-0.2-0.4-0.8 0.2-1.5 1.3-1.5 2.4 0 1.2-0.5 1.9-1.3 1.7-0.6-0.2-1.2-0.9-1.2-1.4 0-0.6-0.5-0.8-1-0.5-0.5 0.3-0.8 1.1-0.5 1.7 0.4 0.9-0.7 1.3-3.7 1.2-2.4-0.1-5 0.1-5.8 0.4-1.3 0.4-1.3 0.6 0 1.3q1.5 0.9 0.2 0.9c-0.6 0-1.4-0.5-1.7-1-0.3-0.6-1.2-0.8-2-0.5-0.8 0.3-1.5 1.1-1.5 1.7 0 0.9-1.4 1.2-4.5 1-2.7-0.1-4.3 0.2-4 0.8 0.3 0.5-0.1 1.1-0.8 1.1-0.6 0.1-2.6 0.3-4.2 0.4-1.6 0.2-3.6 0.3-4.3 0.4-0.6 0.1-1 0.5-0.7 1.1 0.3 0.5-0.2 1.2-1 1.5-0.8 0.3-1.8-0.3-2.2-1.3-0.6-1.5-0.7-1.4-1.5 0.5-0.7 1.9-1.2 2.1-2.8 1.3-1.5-0.8-2.4-0.6-3.5 0.7-1.1 1.3-1.4 1.4-1 0.3 0.4-1.1-0.2-1.5-2.4-1.5-1.6 0-3.3 0.3-3.7 0.7-0.4 0.5-1.6 0.8-2.6 0.8-1 0-1.8-0.5-1.8-1 0-0.6-0.5-0.8-1-0.5-0.5 0.3-1.2 0-1.5-0.5-0.3-0.6-1.4-0.3-2.5 0.7-1.2 1-2.1 1.3-2 0.8 0-0.6-0.9-1-2-1-1.1 0-2 0.2-2 0.5 0 0.3-1 0.5-2.3 0.5-1.2-0.1-2.1-0.6-2-1.3 0.2-0.7-0.2-1-0.7-0.7-0.5 0.3-0.8 0.9-0.5 1.5 0.3 0.5-0.2 1-1 1-0.8 0-1.5-0.8-1.6-1.8 0-0.9-0.2-1.1-0.5-0.5-0.2 0.7-1.3 1.3-2.4 1.3-1.1 0-2.2-0.5-2.5-1-0.3-0.6-2-0.4-4.5 0.5-2.2 0.8-3.8 1-3.5 0.5 0.3-0.6-1-0.9-3.3-0.8-2.5 0.2-3.6-0.1-3.5-1 0.2-0.6 0-1.2-0.5-1.2-0.4 0.1-1.5 1-2.5 2-0.9 1.1-2.3 1.7-3 1.4-0.9-0.5-0.8-0.9 0.3-1.5 1.2-0.7 1-0.9-0.8-0.9-1.2 0-2.4-0.5-2.7-1-0.3-0.6-1.2-0.7-2.1-0.3-0.8 0.5-1.3 1.4-1 2q0.6 1.3-1 0.5c-1-0.4-1.9-0.1-2.5 0.8q-0.9 1.5-0.9 0.2c0-0.6 0.4-1.4 1-1.7 0.6-0.3 1-1.1 1-1.8q0-1.2-0.9 0.3c-0.5 0.8-1.4 1.2-2 0.7-0.6-0.4-1.1-0.3-1.1 0.3 0 0.5-0.8 0.7-1.8 0.4-0.9-0.4-2.3-0.7-3-0.8-0.6 0-1.2-0.4-1.2-0.9 0-0.4-0.7-0.9-1.5-1.2q-1.5-0.5-1 1c0.3 0.8 0.1 1.5-0.5 1.5-0.6 0-1.3-0.7-1.8-1.5-0.4-1-1.4-1.3-2.7-0.9-1.7 0.5-1.7 0.8-0.5 1.5 1.3 0.7 1.3 1 0.1 2.1-1 1-1.2 1-0.7 0 0.3-0.6-0.1-1.4-0.9-1.7-0.8-0.3-1.2-1.1-0.9-1.8 0.3-0.6 0-0.5-0.8 0.3-0.7 0.8-2 1.5-2.9 1.5-0.9 0-1.4-0.4-1-1 0.4-0.6-0.1-0.6-1.4-0.1-1.1 0.5-2.9 0.8-4 0.8-1.1-0.1-3-0.4-4.3-0.7-1.5-0.3-2-0.1-1.6 0.7 0.3 0.7-0.4 0.2-1.6-1.2-1.1-1.4-2.1-2.1-2.2-1.5 0 0.5 0.1 1.4 0.2 2 0.1 0.5-0.5 0.3-1.4-0.5-0.9-0.8-1.7-1.1-1.7-0.5 0 0.5-0.7 0.1-1.6-1-1.3-1.6-1.4-1.7-0.9-0.3 0.3 1 0.3 1.8-0.2 1.8-0.4 0-1.3-0.5-2.1-1.2-1.1-1-1.3-1-0.7-0.1 0.3 0.7 0.2 1.5-0.4 1.8-0.6 0.3-1-0.2-1-1 0-0.8-0.4-1.3-1-1-0.6 0.3-1.7 0-2.5-0.5q-1.5-1-2 0c-0.3 0.5-1.6 1-3 1-1.4 0-2.7-0.7-3-1.5-0.4-1.2-0.8-1.3-1.9-0.3-0.8 0.7-1.3 1.5-1.1 1.8 0.2 0.3-0.3 0.5-1.1 0.6-0.8 0-1.2-0.1-0.9-0.3 0.3-0.2-0.1-0.9-0.8-1.7-0.6-0.8-1.6-1.1-2.2-0.7-0.6 0.5-1.8 1.1-2.8 1.4-1 0.4-1.5 0.3-1.2-0.3 0.3-0.6 0.1-1.2-0.5-1.5-0.6-0.3-1-0.1-1 0.5 0 0.5-0.4 1-1 1-0.6 0-0.8-0.5-0.5-1q0.5-1-1.5 0c-1.1 0.5-2.4 1-3 1-0.6 0-0.7-0.6-0.3-1.3 0.6-0.9 0.4-0.9-0.7-0.2-0.8 0.5-2.6 1-4 1-1.4 0.1-3.1 0.4-3.8 0.8-0.8 0.5-1.1 0.1-0.7-1.6 0.3-1.2 0.3-1.6 0-1-0.3 0.9-0.9 1-2 0.3-1.1-0.7-1.9-0.5-3.1 0.7-1.3 1.5-1.9 1.6-3.5 0.5-1-0.6-1.7-0.8-1.4-0.2 0.3 0.5 0.2 1-0.3 1-0.4 0-1.3-0.5-2.1-1.2-1.2-1.1-1.3-1-0.7 0.7 0.7 1.6 0.5 1.9-1.1 1.4-1-0.4-2.5-0.9-3.3-1.1-0.8-0.3-1.2-0.3-0.8-0.1 0.5 0.1 0.8 0.7 0.8 1.3 0 0.5-1 0.7-2.3 0.4-1.3-0.4-2.5-0.1-2.9 0.8-0.4 0.8-0.9 0.3-1.4-1.7l-0.7-3c-2.1 4.6-2.5 5.1-2.2 4q0.5-2-1-2c-0.8 0-1.5 0.3-1.5 0.7 0 0.5-0.4 0.6-1 0.3-0.6-0.3-1 0.1-1 0.7 0 0.8-0.3 0.9-0.8 0.3-0.4-0.6-2.4-1.1-4.5-1.3-2.7-0.1-3.5 0.1-3 1 0.6 0.9 0.4 1-0.6 0.3-0.9-0.7-1.6-0.6-2.2 0.5q-0.9 1.5-0.9 0.2c0-0.9-0.6-0.9-2.5-0.2-2.3 0.9-2.5 0.8-2-1.3l0.6-2.2c-2 3.5-2.9 4.5-3.4 4.5-0.4 0-0.4-0.8 0-1.8 0.6-1.4 0.4-1.5-0.8-0.5-0.8 0.7-1.6 1-1.9 0.8-0.3-0.3-2.9-0.2-5.8 0.2-2.9 0.4-5.5 0.5-5.8 0-0.2-0.4-1-0.3-1.7 0.3-0.6 0.5-1.6 0.7-2 0.2-0.5-0.4-1.9-0.8-3-0.8-1.2-0.1-2.4 0.3-2.7 0.8-0.3 0.6-1.5 0.7-2.8 0.4-1.2-0.3-2-1.1-1.7-1.6 0.3-0.6-0.2-0.8-1-0.5-0.8 0.3-1.3 0.9-1 1.5 0.3 0.5 0.2 1-0.3 1-0.4 0.1-1.4-0.6-2.2-1.5-0.8-0.9-2.1-1.6-2.8-1.5-0.6 0-1.2 0.8-1.2 1.7-0.1 1.7-0.1 1.7-1 0-0.7-1.2-1.4-1.4-2.3-0.7-0.6 0.5-2.2 0.7-3.5 0.5-1.6-0.4-2.1-0.1-1.7 1q0.5 1.5-1 1c-0.8-0.3-1.3-1-1-1.5 0.3-0.6 0.1-1.2-0.5-1.5-0.6-0.3-1-0.1-1 0.5 0 0.6-1.2 0.7-2.8 0.4-1.5-0.3-3-0.7-3.5-1-0.4-0.2-0.9 0.2-1.1 0.8-0.3 0.7-0.5 0.4-0.5-0.7 0-1.8-0.2-1.9-1.7-0.5-1 0.8-2.3 1.6-3.1 1.7-0.8 0.2-1-0.2-0.6-0.9 0.6-0.9 0.3-1-1-0.5-0.9 0.4-1.7 0.4-1.7-0.1 0-0.4-2-0.8-4.5-1-2.7-0.1-4.3 0.2-4 0.8 0.3 0.5-0.3 0.8-1.3 0.6-0.9-0.2-2.3 0.2-3.1 0.8-1.2 0.9-1.3 0.8-0.8-0.7 0.4-0.9 0.3-1.9-0.3-2.2-0.6-0.3-1-0.1-1 0.5 0 0.5-0.4 1-1 1-0.6 0-0.7-0.6-0.3-1.3 0.3-0.6-0.4-0.3-1.6 0.8-1.9 1.7-3 1.9-7.2 1.2-3.1-0.4-4.9-0.3-4.9 0.3 0 0.6-1.1 0.7-2.8 0.3-2-0.5-2.5-0.4-2 0.5 0.6 0.9 0.1 1-2 0.5-2-0.5-2.5-0.4-2 0.5q0.8 1.2-0.7 0.7c-0.8-0.3-1.5-0.1-1.5 0.5 0 0.5-0.4 0.8-1 0.5-0.6-0.3-2.5 0.2-4.3 1.1-1.7 0.9-4 2.6-5 3.8-1 1.1-1.6 1.5-1.3 0.8 0.4-0.8-0.2-0.7-1.9 0.3-1.4 0.8-2.5 1.7-2.5 2 0 0.3 0.6 0.2 1.2-0.3q1.3-0.7 0.5 0.5c-0.4 0.7-1.1 1.1-1.7 0.8-0.6-0.3-3.5 2-6.5 5-3 3-5.3 5.9-5 6.5 0.3 0.5-0.1 1.3-0.7 1.7-0.9 0.6-1 0.4-0.5-0.7 0.5-0.8 0.1-0.6-0.7 0.5-0.9 1.1-1.5 2.4-1.3 3 0.3 0.5 1.4 0.9 2.6 0.7 1.1-0.1 1.9 0.1 1.6 0.5-0.2 0.5 0.7 1.4 2 2 1.4 0.7 2.9 1.1 3.5 0.8 0.6-0.3 1-0.1 1 0.5 0 0.6 0.8 0.7 1.7 0.3 1.1-0.5 1.5-0.4 1.1 0.2-0.4 0.6 1.8 2.2 4.8 3.7 3 1.6 5.8 2.6 6.4 2.3 0.6-0.3 1-0.1 1 0.5 0 0.5 0.4 0.8 1 0.5 0.6-0.3 1-0.1 1 0.5 0 0.5 0.4 0.8 1 0.5 0.6-0.3 1-0.1 1 0.5 0 0.5 0.4 0.8 1 0.5 0.6-0.3 1-0.1 1 0.5 0 0.5 0.7 0.8 1.5 0.5 0.8-0.3 1.8 0.1 2.2 0.7q0.8 1.3-0.5 0.5c-0.6-0.4-1.2-0.5-1.2-0.2 0 0.3 2.6 1.8 5.7 3.4 4.8 2.4 6.2 2.7 7.8 1.8 1.5-0.9 1.8-0.9 1.2 0.1-0.4 0.7-0.3 1.2 0.3 1.2 0.6 0 1.2-0.1 1.3-0.3 0.2-0.1 1.1 0.4 2 1 1.1 0.8 1.9 0.9 2.2 0.3 0.3-0.6 1.2-0.7 2.2-0.1 1 0.4 3.4 1.3 5.3 1.9 2.3 0.8 3.9 0.8 4.7 0.2 0.9-0.7 1.8-0.5 2.8 0.5 0.8 0.8 1.7 1.4 1.9 1.2 0.1-0.1 0.8-1.1 1.4-2.2 1.1-1.9 1.1-1.8 1.2 0.7 0 2.5 0.3 2.7 2.7 2.3 1.6-0.3 3.4 0.1 4.2 0.7 1.2 1 1.3 1 0.8 0-0.5-0.9 0.1-1 2.5-0.5 1.8 0.5 5.2 0.8 7.5 0.8 2.2 0 3.9 0.3 3.7 0.7-0.2 0.5 0 1 0.6 1.3 0.6 0.3 1 0 1-0.5 0-0.5 0.4-0.8 1-0.5 0.6 0.3 1-0.1 1-0.8q0-1.2 0.9 0.3c0.8 1.3 1.4 1.3 4 0.2 2.4-0.9 2.9-0.9 2.3 0q-0.7 1.3 0.8 0.6c0.8-0.4 2-0.1 2.6 0.5 0.9 0.9 1.4 0.9 2-0.3 0.7-1.2 0.6-1.3-0.6-0.5-1.1 0.7-1.3 0.7-0.7-0.3 0.4-0.6 1.4-1 2.2-0.7 0.8 0.3 1.2 1.1 0.8 1.7-0.3 0.7-0.2 1 0.3 0.6 0.5-0.5 1.5-0.2 2.3 0.5 1.2 1 1.3 0.9 0.5-0.3-0.7-1.1-0.4-1.3 1.6-0.7 1.4 0.4 4 0.2 5.7-0.3q3.3-1 3.3 0c0 0.6 0.7 0.7 1.7 0.2 1-0.5 3.8-0.9 6.3-0.9 2.5 0 5.2-0.4 6-0.9 1.1-0.6 1.3-0.5 0.7 0.3-0.5 1 0.3 1.3 2.8 1.3 2.4 0 3.3-0.4 2.9-1.3-0.3-0.6 0-0.4 0.8 0.5 0.7 1 1.6 1.7 2 1.8 0.5 0 1-0.8 1.2-1.8 0.3-1.6 0.4-1.6 0.5 0 0.1 1.6 0.3 1.6 1.6 0.3 1.2-1.2 1.8-1.3 3.2-0.3 1.3 1.1 1.7 1 2-0.2 0.4-1.2 0.7-1.1 1.9 0.5 0.8 1.1 1.2 1.3 0.9 0.5-0.4-1.2 0.4-1.5 3.7-1.5 2.4 0.1 5 0.5 5.8 1 1.1 0.7 1.3 0.7 0.7-0.3-0.5-0.9 0-1 2-0.6 2.2 0.4 2.5 0.3 1.3-0.5q-1.5-1.1-0.3-1.1c0.7 0 1.5 0.5 1.8 1 0.3 0.6 1.1 0.5 2-0.3 1.3-1 1.6-0.9 1.5 0.3 0 1.1 0.4 0.9 1.4-0.5 1.1-1.6 1.6-1.8 2.7-0.7 1 0.9 2.1 0.9 4.1 0.2 2.2-0.8 2.8-1.6 2.6-3.8-0.1-1.5 0.1-3.3 0.5-4 0.5-0.8 1.7-1 3.4-0.5 2.1 0.5 2.6 0.4 2-0.5-0.5-0.9 0-1.1 1.8-0.7 1.4 0.3 2.5 0.1 2.5-0.5 0-0.6 1.1-0.8 2.5-0.5 1.4 0.3 2.5 0.1 2.5-0.5 0-0.6 1.1-0.7 2.7-0.3 2.1 0.5 2.6 0.4 2-0.5-0.5-0.9 0.2-1 3-0.5 3.1 0.6 3.6 0.4 2.8-0.7-0.8-1.1-0.4-1.2 2.2-0.7 2 0.4 3.3 0.3 3.3-0.3 0-0.6 1.5-0.7 3.7-0.3 2.8 0.5 3.6 0.4 3-0.5-0.5-0.9 0.4-1 3.5-0.5 3.6 0.6 4.1 0.5 3.3-0.7-0.8-1.1-0.3-1.3 2.7-0.7 2.3 0.4 3.8 0.3 3.8-0.3 0-0.6 2.1-0.7 5.7-0.3 4.8 0.6 5.6 0.5 4.8-0.7-0.8-1.1 0.5-1.2 7.7-0.7 5.7 0.5 8.8 0.3 8.8-0.3 0-0.6 6-1 16-1 12.1 0 15.8 0.3 15.2 1.2-0.5 0.9 1.7 1 9.5 0.5 6.9-0.5 10.1-0.4 9.8 0.3-0.3 0.7 0.9 0.8 3.4 0.4 3-0.6 3.6-0.4 3.2 0.6-0.5 1.1 0.3 1.3 3.6 0.7 2.7-0.4 4.3-0.3 4.3 0.3 0 0.6 1.5 0.8 3.5 0.5 2.4-0.3 3.5-0.1 3.5 0.7 0 0.9 0.8 1.1 3 0.5 2.2-0.5 2.8-0.4 2.2 0.5-0.5 0.9 0.1 1 2.5 0.5 2.5-0.5 3.1-0.4 2.5 0.5-0.5 0.9 0.1 1 2.5 0.5 2.5-0.5 3.1-0.4 2.5 0.5-0.5 0.9 0 1 2 0.5 2.1-0.5 2.6-0.4 2 0.5-0.5 0.9 0.1 1 2.5 0.5 2.5-0.5 3.1-0.4 2.5 0.5-0.5 0.9 0 1 2 0.5 1.8-0.4 2.6-0.3 2.3 0.3-0.3 0.6 0.1 1 0.8 1 0.8 0 1.7-0.3 2-0.8 0.4-0.4 0.1-1.3-0.6-2.1-1-1.2-0.9-1.2 1.2 0 1.8 1.1 2.4 1.1 2.7 0.1 0.2-0.6 0.9-1.2 1.4-1.2 0.5 0 0.7 0.6 0.3 1.2-0.5 1-0.4 1 0.8 0 0.8-0.6 3.1-1.3 5.2-1.5 2.8-0.1 3.6-0.5 3.1-1.7-0.5-1.3-0.4-1.3 1.2 0 1 0.9 1.5 1 1.1 0.2-0.4-0.7 0.1-1.4 1.5-1.8 1.4-0.4 2.6-0.1 3 0.8 0.5 0.8 0.8 0.4 0.8-1.2 0-1.4 0.4-2 0.8-1.4 0.4 0.6 1.5 1.4 2.4 1.7 1.5 0.6 1.7 0.3 1.2-1.6-0.6-2.2-0.6-2.2 0.8-0.2 1.1 1.4 1.7 1.7 2.1 0.7 0.4-0.6 1.6-1.2 2.7-1.2 1.1 0 2-0.4 2-1 0-0.6 0.5-0.8 1-0.5 0.5 0.3 1.2 0.1 1.5-0.5 0.3-0.6 1.1-0.7 1.7-0.3q1.3 0.8 0.5-0.5c-0.4-0.7-0.1-1.4 0.8-1.7 0.9-0.3 1.5 0.1 1.5 1 0 0.8 0.5 1.5 1 1.5 0.5 0 0.8-0.4 0.5-1-0.3-0.6 1-1.9 2.7-3 1.9-1.1 3.7-1.6 4.3-1.1 0.5 0.5 1.9 0.7 3 0.5 1.1-0.2 2.2-0.7 2.5-1.1 0.3-0.3-0.3-0.3-1.3 0-1.2 0.5-1.6 0.3-1.2-0.8 0.3-0.8 1.2-1.3 2-1 0.8 0.3 2.1 0.1 2.7-0.5 0.7-0.5 1.7-0.7 2.2-0.2 0.5 0.4 0.5-0.4 0-1.8-0.6-2-0.5-2.3 0.6-1.5 1.1 0.8 1.3 0.5 0.7-1.8-0.5-2-0.4-2.5 0.5-2 0.9 0.6 0.9 0.1 0.3-1.7-0.7-2-0.6-2.3 0.5-1.5 1.1 0.8 1.2 0.5 0.5-1.5-0.7-2-0.6-2.3 0.5-1.5 1.1 0.8 1.2 0.5 0.5-1.5-0.7-2-0.6-2.3 0.5-1.5 1.1 0.8 1.2 0.5 0.5-1.5-0.7-2.1-0.6-2.3 0.5-1.5 1.2 0.8 1.3 0.6 0.7-0.8-0.4-0.9-0.3-1.7 0.3-1.7 0.5 0 0.8-0.7 0.5-1.5q-0.5-1.5 0.7-0.8c0.9 0.6 1 0.2 0.5-1.5-0.5-1.6-0.4-2 0.5-1.5 0.9 0.6 1 0.3 0.5-1-0.4-0.9-0.3-1.7 0.3-1.7 0.5 0 0.8-0.7 0.5-1.5q-0.5-1.5 0.7-0.8c0.9 0.6 1 0.3 0.5-1-0.4-0.9-0.3-1.7 0.3-1.7 0.5 0 0.8-0.7 0.5-1.5-0.3-0.8 0-1.3 0.5-1 0.5 0.3 1.2-0.2 1.5-1 0.3-0.8 0.3-1.9 0-2.5-0.3-0.6 0.1-1 0.7-1 0.7 0 1-0.2 0.5-0.5-0.4-0.3 0-1.2 0.8-2 0.8-0.8 1.5-1.9 1.5-2.5 0-0.6-0.5-1-1-1-0.5 0-0.8-0.4-0.5-1 0.2-0.6 0.2-1 0-1-0.2 0-0.6 0.4-1 1z"/>
		<path id="Path 5" class="s5" d="m403 167.3c0 0.4-2.7 0.4-6-0.1-4.6-0.5-6-0.4-6 0.5 0 1-1.7 1.2-6.5 0.8-4.2-0.3-6.3-0.1-6 0.5 0.3 0.6-1.7 0.8-5.8 0.3-4.7-0.5-6-0.4-5.5 0.5 0.6 0.9-0.4 1-4 0.5-3.5-0.5-4.5-0.4-4 0.5 0.6 0.9-0.4 1-4 0.5-3.5-0.5-4.5-0.4-4 0.5 0.6 0.9-0.2 1-3.2 0.4-3-0.5-4-0.4-4 0.5 0 1-1 1.1-3.8 0.6-2.7-0.5-3.5-0.4-3 0.5 0.6 0.9-0.1 1.1-2.7 0.7-2-0.3-3.5-0.1-3.5 0.5 0 0.6-1.3 0.7-3.3 0.3-2.6-0.5-3-0.4-2.2 0.7 0.8 1.1 0.4 1.2-2.3 0.7-1.9-0.4-3.2-0.3-3.2 0.3 0 0.6-1.3 0.7-3.3 0.3-2.6-0.6-3-0.5-2.2 0.7 0.8 1.1 0.4 1.2-2.5 0.5-2.6-0.6-3.3-0.5-2.8 0.3 0.6 0.9 0 1-2.2 0.4-2.2-0.5-3-0.3-3 0.5 0 0.9-0.8 1.1-2.8 0.6-2-0.5-2.5-0.4-2 0.5 0.6 0.9 0.1 1.1-1.7 0.7-1.4-0.3-2.5-0.1-2.5 0.5 0 0.6-1.1 0.7-2.8 0.3-2-0.5-2.5-0.4-2 0.5 0.6 0.9 0.1 1-2 0.5-2-0.5-2.5-0.4-2 0.5 0.6 0.9 0.1 1.1-1.7 0.7-1.4-0.3-2.5-0.1-2.5 0.5 0 0.6-0.9 0.8-2 0.5-1.1-0.3-2-0.1-2 0.5 0 0.6-0.9 0.7-2.3 0.3-1.6-0.5-2-0.4-1.5 0.5 0.6 0.9 0.1 1-2 0.5-2-0.5-2.5-0.4-2 0.5 0.6 0.9 0.1 1-2 0.5-2-0.5-2.5-0.4-2 0.5 0.6 0.9 0.1 1-2 0.5-2.2-0.6-2.5-0.4-1.7 0.7 0.8 1.1 0.5 1.2-1.3 0.7-1.2-0.4-2.2-0.3-2.2 0.3 0 0.6-0.9 0.7-2.3 0.3-1.8-0.6-2-0.4-1.2 0.7 0.8 1.1 0.6 1.2-1.3 0.7-1.2-0.4-2.2-0.3-2.2 0.3 0 0.6-0.9 0.7-2.3 0.3-1.6-0.5-2-0.4-1.5 0.5 0.6 0.9 0.2 1-1.5 0.5-1.8-0.6-2-0.4-1.2 0.7 0.8 1.1 0.6 1.2-1.3 0.7-1.2-0.4-2.2-0.3-2.2 0.3 0 0.6-0.9 0.7-2.3 0.3-1.6-0.5-2-0.4-1.5 0.5 0.6 0.9 0.2 1-1.5 0.5-1.6-0.5-2-0.4-1.5 0.5 0.6 0.9 0.2 1-1.5 0.5-1.8-0.6-2-0.4-1.2 0.7 0.8 1.1 0.5 1.2-1.5 0.5-1.8-0.6-2.3-0.6-1.8 0.3 0.6 0.8 0.2 1-1.2 0.7-1.1-0.3-2-0.1-2 0.5 0 0.6-0.8 0.7-1.8 0.3-1.3-0.6-1.5-0.5-0.7 0.7 0.8 1.1 0.6 1.2-1.5 0.5-1.8-0.6-2.3-0.6-1.8 0.3 0.6 0.9 0.2 1-1.5 0.5-1.6-0.5-2-0.4-1.5 0.5q0.8 1.2-0.7 0.7c-0.8-0.3-1.5-0.1-1.5 0.5 0 0.6-0.7 0.8-1.5 0.5-0.8-0.3-1.5-0.1-1.5 0.5 0 0.6-0.7 0.8-1.5 0.5-0.8-0.3-1.5-0.1-1.5 0.5 0 0.6-0.8 0.7-1.8 0.3-1.2-0.5-1.5-0.4-1 0.5 0.6 0.9 0.2 1-1.5 0.5-1.6-0.5-2-0.4-1.5 0.5q0.8 1.2-0.7 0.7c-0.8-0.3-1.5-0.1-1.5 0.5 0 0.6-0.8 0.7-1.8 0.3-1.3-0.6-1.5-0.5-0.7 0.7 0.8 1.1 0.6 1.2-1.5 0.5-1.8-0.6-2.3-0.6-1.8 0.3q0.8 1.2-0.7 0.7c-0.8-0.3-1.5-0.1-1.5 0.5 0 0.6-0.8 0.7-1.8 0.3-1.2-0.5-1.5-0.4-1 0.5q0.8 1.2-0.7 0.7c-0.8-0.3-1.5-0.1-1.5 0.5 0 0.6-0.8 0.7-1.8 0.3-1.2-0.5-1.5-0.4-1 0.5q0.8 1.2-0.7 0.7c-0.8-0.3-1.5-0.1-1.5 0.5 0 0.6-0.8 0.7-1.8 0.3-1.2-0.5-1.5-0.4-1 0.5q0.8 1.2-0.7 0.7c-0.8-0.3-1.5-0.1-1.5 0.5 0 0.6-0.4 0.8-1 0.5-0.6-0.3-1-0.1-1 0.5 0 0.6-0.8 0.7-1.8 0.3-1.2-0.5-1.5-0.4-1 0.5q0.8 1.2-0.7 0.7c-0.8-0.3-1.5-0.1-1.5 0.5 0 0.6-0.4 0.8-1 0.5-0.6-0.3-1-0.1-1 0.5 0 0.6-0.8 0.7-1.8 0.3-1.2-0.5-1.5-0.4-1 0.5q0.8 1.2-0.7 0.7c-0.8-0.3-1.5-0.1-1.5 0.5 0 0.6-0.4 0.8-1 0.5-0.6-0.3-1-0.1-1 0.5 0 0.6-0.4 0.8-1 0.5-0.6-0.3-1.7-0.3-2.5 0-0.8 0.3-1.3 0.9-1 1.5 0.3 0.6-0.2 0.7-1.3 0.3-1.2-0.5-1.5-0.4-1 0.5q0.8 1.2-0.7 0.7c-0.8-0.3-1.5-0.1-1.5 0.5 0 0.6-0.4 0.8-1 0.5-0.6-0.3-1-0.1-1 0.5 0 0.6-0.4 0.8-1 0.5-0.6-0.3-2.1 0.1-3.5 0.7-1.3 0.7-2.2 1.6-2 2 0.3 0.5-0.3 0.5-1.3 0.1-1.3-0.6-1.5-0.5-0.7 0.7 0.7 1.1 0.7 1.3-0.3 0.7-0.6-0.4-2.3-0.1-3.7 0.5-1.3 0.7-2.3 1.5-2.1 1.8 0.2 0.3-0.4 0.5-1.2 0.5-0.9 0-1.8 0.8-1.9 1.7-0.2 1.4 0.2 1.7 1.9 1.1 1.8-0.5 2.1-0.4 1.3 0.7-0.8 1.1-0.5 1.3 1.7 0.7 2.1-0.5 2.6-0.4 2 0.5-0.5 0.9 0 1 2 0.5 2.1-0.5 2.6-0.4 2 0.5-0.5 0.9-0.1 1 1.5 0.5 1.4-0.4 2.3-0.3 2.3 0.3 0 0.6 0.9 0.8 2 0.5 1.1-0.3 2-0.1 2 0.5 0 0.6 0.9 0.8 2 0.5 1.1-0.3 2-0.1 2 0.5 0 0.6 0.9 0.8 2 0.5 1.1-0.3 2-0.1 2 0.5 0 0.6 0.9 0.8 2 0.5 1.1-0.3 2-0.1 2 0.5 0 0.6 0.9 0.8 2 0.5 1.1-0.3 2-0.1 2 0.5 0 0.6 1 0.7 2.2 0.3 1.8-0.5 2.1-0.4 1.3 0.7-0.8 1.1-0.5 1.3 1.7 0.7 2.1-0.5 2.6-0.4 2 0.5-0.5 0.9 0 1 2 0.5 2.1-0.5 2.6-0.4 2 0.5-0.5 0.9 0 1 2 0.5 2.1-0.5 2.6-0.4 2 0.5-0.5 0.9 0 1 2 0.5 2.1-0.5 2.6-0.4 2 0.5-0.5 0.9 0 1 2 0.5 2.1-0.5 2.6-0.4 2 0.5-0.5 0.9-0.1 1 1.5 0.5 1.4-0.4 2.3-0.3 2.3 0.3 0 0.6 0.9 0.8 2 0.5 1.1-0.3 2-0.1 2 0.5 0 0.6 0.9 0.8 2 0.5 1.1-0.3 2-0.1 2 0.5 0 0.6 0.9 0.8 2 0.5 1.1-0.3 2-0.1 2 0.5 0 0.6 0.9 0.8 2 0.5 1.1-0.3 2-0.1 2 0.5 0 0.6 0.9 0.8 2 0.5 1.1-0.3 2.3 0.1 2.7 0.7 0.4 0.7 0.7 2.4 0.7 3.8 0 1.4-0.3 3.1-0.7 3.7-0.4 0.8-1.4 1-2.5 0.6-1.2-0.5-1.5-0.4-1 0.5 0.6 0.9-0.3 1-4 0.5-3.5-0.5-4.5-0.4-4 0.5 0.6 0.9-0.2 1.1-2.7 0.7-2-0.3-3.5-0.1-3.5 0.5 0 0.6-1.5 0.8-3.5 0.5-2-0.3-3.5-0.1-3.5 0.5 0 0.6-1.3 0.7-3.3 0.3-2.4-0.5-3-0.4-2.5 0.5 0.6 0.9-0.1 1-3 0.5-2.7-0.5-3.5-0.4-3 0.5 0.6 0.9 0.1 1-2 0.5-2.2-0.6-2.5-0.4-1.7 0.7 0.8 1.1 0.5 1.3-1.8 0.7-1.6-0.4-2.7-0.3-2.7 0.3 0 0.6-1.1 0.8-2.5 0.5-1.4-0.3-2.5-0.1-2.5 0.5 0 0.6-0.9 0.8-2 0.5-1.1-0.3-2-0.1-2 0.5 0 0.6-0.9 0.8-2 0.5-1.1-0.3-2-0.1-2 0.5 0 0.6-1 0.7-2.3 0.3-1.6-0.5-2-0.3-1.5 0.5 0.6 0.9 0.1 1-2 0.5-2.2-0.6-2.5-0.4-1.7 0.7 0.8 1.1 0.5 1.2-1.3 0.7-1.2-0.4-2.2-0.3-2.2 0.3 0 0.6-0.9 0.7-2.3 0.3-1.6-0.5-2-0.4-1.5 0.5 0.6 0.9 0.2 1-1.5 0.5-1.8-0.6-2-0.4-1.2 0.7 0.8 1.1 0.6 1.2-1.3 0.7-1.2-0.4-2.2-0.3-2.2 0.3 0 0.6-0.7 0.8-1.5 0.5-0.8-0.3-1.5-0.1-1.5 0.5 0 0.6-0.7 0.8-1.5 0.5-0.8-0.3-1.5-0.1-1.5 0.5 0 0.6-0.7 0.8-1.5 0.5-0.8-0.3-1.5-0.1-1.5 0.5 0 0.6-0.8 0.7-1.8 0.3-1.3-0.6-1.5-0.5-0.7 0.7 0.8 1.1 0.6 1.2-1.5 0.5-1.8-0.6-2.3-0.6-1.8 0.3q0.8 1.2-0.7 0.7c-0.8-0.3-1.5-0.1-1.5 0.5 0 0.6-0.6 0.7-1.3 0.4-0.6-0.3-1.9 0.1-2.7 0.9-0.8 0.7-2.2 1.1-3 0.8q-1.5-0.5-0.8 0.7 0.8 1.2-0.7 0.7c-0.8-0.3-1.5-0.1-1.5 0.5 0 0.6-0.8 0.7-1.8 0.3-1.3-0.6-1.5-0.5-0.7 0.7 0.7 1.1 0.7 1.3-0.3 0.7-0.6-0.4-2.3-0.1-3.7 0.5-1.4 0.7-2.5 1.6-2.5 2 0 0.5-0.5 0.6-1 0.3-0.5-0.3-1-0.1-1 0.5 0 0.6-0.5 0.8-1 0.5-0.5-0.3-1-0.1-1 0.5 0 0.6-0.6 0.7-1.3 0.3-0.6-0.3-1.7 0.1-2.2 0.9-0.5 0.8-1.2 1.5-1.5 1.5-0.3 0-1.5 0.3-2.7 0.7-1.5 0.4-2 1-1.6 1.8 0.6 1 0.4 1-0.7 0.4-1.1-0.6-1.9-0.3-2.8 1-0.7 1-1.5 1.8-1.7 1.6-0.3-0.1-1-0.2-1.5-0.2-0.5 0-0.7 0.6-0.3 1.2q0.8 1.3-0.5 0.5c-0.7-0.4-3.5 0.8-6.7 3-3.1 2.1-5.6 3.9-5.5 4 0 0.2 0.6 0 1.2-0.5q1.3-0.7 0.5 0.5c-0.4 0.7-1.2 1.1-1.7 0.8-0.5-0.3-3.7 1.6-7 4.2-3.4 2.7-6.1 5-6.1 5.3 0 0.3 0.8-0.2 1.8-1 1.6-1.4 1.7-1.4 0.6 0.2-0.7 1-1.8 1.6-2.3 1.3-0.5-0.3-2.7 1.2-4.8 3.2-2.1 2.1-2.7 2.9-1.3 1.8 1.4-1.1 0.3 0.4-2.4 3.3-2.8 2.9-5.2 5.2-5.5 5.2-0.3 0.1 0.4-1 1.4-2.2 1.1-1.3 0.3-0.6-1.7 1.4-2.1 2.1-3.5 4.2-3.2 4.8 0.3 0.6-0.3 1.6-1.3 2.2-1.4 1.1-1.6 1.1-0.7-0.2 0.5-0.9 0-0.4-1.3 1-1.3 1.4-3.3 3.9-4.5 5.5-1.2 1.8-1.5 2.6-0.6 2 0.8-0.6 0.3 0.1-1.1 1.4-1.4 1.3-1.8 2-1 1.6 0.8-0.4 0.4 0.3-1 1.5-1.4 1.2-1.8 1.9-1 1.5 0.8-0.4 0.4 0.2-0.9 1.2-1.7 1.3-2.1 2.2-1.5 3.3 0.6 1.1 0.5 1.3-0.3 0.7-0.8-0.4-1.4-0.2-1.4 0.5-0.1 0.7-0.1 1.6 0 2 0 0.5-0.3 0.8-0.9 0.8-0.6 0-0.8 0.4-0.5 1 0.3 0.6 1.8 0.7 3.8 0.3 2.6-0.6 3-0.5 2.2 0.7-0.8 1.1-0.2 1.3 3.8 0.7 3.5-0.5 4.5-0.4 4 0.5-0.6 0.9 0.2 1 3 0.5 2.7-0.5 3.5-0.4 3 0.5-0.6 0.9 0.2 1 3 0.5 2.7-0.5 3.5-0.4 3 0.5-0.6 0.9 0.3 1 3.5 0.5 3.1-0.5 4-0.4 3.5 0.5-0.6 0.8 0.1 0.9 2.7 0.3 2.9-0.7 3.3-0.6 2.5 0.5-0.8 1.1-0.3 1.3 2.8 0.7 2.7-0.5 3.5-0.4 3 0.5-0.6 0.9 0.2 1 3 0.5 2.8-0.5 3.5-0.4 3 0.5-0.6 0.9 0 1 2.5 0.5 2.4-0.5 3-0.4 2.5 0.5-0.6 0.9 0 1 2.5 0.5 1.9-0.4 3.2-0.3 3.2 0.3 0 0.6 1.3 0.7 3.3 0.3 2.6-0.5 3-0.4 2.2 0.7-0.8 1.1-0.5 1.3 1.8 0.7 1.6-0.4 2.7-0.3 2.7 0.3 0 0.6 1.1 0.8 2.5 0.5 1.8-0.4 2.3-0.2 1.7 0.7-0.5 0.8 0.2 0.9 2.8 0.3 2.9-0.7 3.3-0.6 2.5 0.5-0.8 1.1-0.4 1.2 2.5 0.5 2.9-0.7 3.3-0.6 2.5 0.5-0.8 1.1-0.5 1.3 1.8 0.7 2-0.5 2.5-0.4 1.9 0.5-0.5 0.9 0 1 2 0.5 2-0.5 2.6-0.4 2 0.5-0.5 0.8 0.2 0.9 2.8 0.3 2.9-0.7 3.3-0.6 2.5 0.5-0.8 1.1-0.5 1.3 1.8 0.7 2-0.5 2.5-0.4 2 0.5-0.6 0.9-0.1 1 2 0.5 2-0.5 2.5-0.4 2 0.5-0.6 0.9-0.2 1 1.5 0.5 1.3-0.4 2.2-0.3 2.2 0.3 0 0.6 1 0.7 2.3 0.3 1.7-0.5 2-0.4 1.2 0.7-0.8 1.1-0.5 1.3 1.8 0.7 2-0.5 2.5-0.4 2 0.5-0.6 0.9-0.1 1 2 0.5 2-0.5 2.5-0.4 2 0.5-0.6 0.9-0.2 1 1.5 0.5 1.3-0.4 2.2-0.3 2.2 0.3 0 0.6 1 0.7 2.3 0.3 1.7-0.5 2-0.4 1.2 0.7-0.8 1.1-0.5 1.3 1.8 0.7 2-0.5 2.5-0.4 2 0.5-0.6 0.9-0.1 0.9 1.7 0.3 2-0.7 2.3-0.6 1.5 0.5-0.8 1.1-0.5 1.3 1.8 0.7 2-0.5 2.5-0.4 2 0.5-0.6 0.9-0.1 0.9 1.7 0.3 2-0.7 2.3-0.6 1.5 0.5-0.8 1.1-0.6 1.3 1.3 0.7 1.3-0.4 2.2-0.3 2.2 0.3 0 0.6 0.7 0.8 1.5 0.5 0.8-0.3 1.5-0.1 1.5 0.5 0 0.6 0.7 0.8 1.5 0.5 0.8-0.3 3.6 0.2 6.3 1.2 2.6 0.9 5 2.1 5.3 2.7 0.4 0.6 1.2 0.8 1.8 0.3 0.6-0.4 1.1-0.3 1.1 0.3 0 0.6 0.7 0.8 1.5 0.5 0.8-0.3 1.5-0.1 1.5 0.5 0 0.6 0.3 0.8 0.8 0.5 0.4-0.2 3.1 0.3 6 1.3 3 1 5 2.1 4.5 2.6-0.5 0.5-0.1 0.6 1 0.3 0.9-0.4 1.7-0.3 1.7 0.3 0 0.6 0.7 0.8 1.5 0.5q1.5-0.5 0.8 0.7c-0.6 0.9-0.1 0.9 1.7 0.3 2-0.7 2.3-0.6 1.5 0.5-0.8 1.1-0.5 1.2 1.5 0.5 1.8-0.6 2.3-0.6 1.8 0.3-0.5 0.7-0.2 1.4 0.7 1.7 0.8 0.3 2.3 0.2 3.3-0.2 1.2-0.5 1.5-0.4 1 0.5-0.5 0.7-0.2 1.4 0.7 1.7 0.8 0.3 1.9 0.3 2.5 0 0.6-0.3 1-0.1 1 0.5 0 0.6 0.7 0.8 1.5 0.5q1.5-0.5 0.8 0.7c-0.6 0.9-0.3 1 1 0.5 0.9-0.4 1.7-0.3 1.7 0.3 0 0.6 0.8 0.7 1.8 0.3 1.2-0.5 1.5-0.4 1 0.5-0.5 0.7-0.2 1.4 0.7 1.7 0.8 0.3 1.9 0.3 2.5 0 0.6-0.3 1-0.1 1 0.5 0 0.6 0.7 0.8 1.5 0.5q1.5-0.5 0.8 0.7c-0.6 0.9-0.3 1 1 0.5 1-0.4 1.5-0.3 1.2 0.3-0.3 0.6 0.2 1.2 1 1.5 0.8 0.3 1.9 0.3 2.5 0 0.6-0.3 1-0.1 1 0.5 0 0.6 0.4 0.8 1 0.5 0.6-0.3 1-0.1 1 0.5 0 0.6 0.7 0.8 1.5 0.5q1.5-0.5 0.8 0.7c-0.6 0.9-0.3 1 1 0.5 0.9-0.4 1.5-0.4 1.3 0-0.3 0.5 1.5 1.8 4 3 2.4 1.3 5.1 2.1 5.9 1.8 0.8-0.3 1.8 0.1 2.2 0.7q0.8 1.3-0.5 0.5c-0.6-0.4-1.2-0.5-1.2-0.2 0 0.3 1.4 1.2 3 2 1.6 0.8 3.6 1.2 4.2 0.7 1-0.5 1-0.3 0.3 0.8-0.8 1.2-0.6 1.3 0.7 0.7q1.8-0.7 1.5 0.5c-0.1 0.7 0.4 1.2 1 1 1-0.1 1.1 0.5 0.3 2.8q-1 3 0 2.5c0.6-0.3 1.1 0.1 1.1 0.7 0.1 0.7 0 2-0.1 2.8-0.2 1.2 0.1 1.2 1.1 0.4 0.8-0.6 2.2-1 3.1-0.8 1 0.2 1.6 0 1.3-0.6-0.3-0.6 1.3-0.9 4-0.8 2.5 0.2 4.5 0.6 4.5 1 0 0.5 0.8 0.5 1.7 0.1 1.3-0.5 1.6-0.4 1 0.5-0.4 0.7-0.2 1.1 0.6 0.9 0.8-0.1 2.1-0.9 3.1-1.7 1.5-1.4 1.7-1.3 1.7 0.5 0 1.1 0.2 1.4 0.5 0.7 0.2-0.6 0.7-1 1.1-0.8 0.5 0.3 2 0.7 3.5 1 1.6 0.3 2.8 0.2 2.8-0.4 0-0.6 0.4-0.8 1-0.5 0.6 0.3 0.8 0.9 0.5 1.5-0.3 0.6 0.2 1.2 1 1.5q1.5 0.5 1-1c-0.4-1.1 0.1-1.4 1.7-1 1.3 0.2 2.9 0 3.5-0.5 0.9-0.7 1.6-0.5 2.3 0.7 0.9 1.7 0.9 1.7 1 0 0-0.9 0.6-1.7 1.2-1.7 0.7-0.1 2 0.6 2.8 1.5 0.8 0.9 1.8 1.6 2.3 1.5 0.4 0 0.5-0.4 0.2-1-0.3-0.6 0.2-1.2 1-1.5 0.8-0.3 1.3-0.1 1 0.5-0.3 0.6 0.5 1.3 1.8 1.6 1.2 0.3 2.4 0.2 2.7-0.4 0.3-0.5 1.5-0.9 2.7-0.8 1.1 0 2.5 0.4 3 0.8 0.4 0.5 1.4 0.3 2-0.2 0.7-0.6 1.5-0.7 1.7-0.3 0.3 0.5 2.9 0.4 5.8 0 2.9-0.4 5.5-0.5 5.8-0.2 0.3 0.2 1.1-0.1 1.9-0.8 1.2-1 1.4-0.9 0.8 0.5-0.4 1-0.4 1.8 0.1 1.8 0.4 0 1.3-1 2-2.2l1.3-2.3c-1.1 4.3-0.9 4.4 1.4 3.5 1.9-0.7 2.5-0.7 2.5 0.2q0 1.3 0.9-0.2c0.6-1.1 1.3-1.2 2.2-0.5 1 0.7 1.2 0.7 0.6-0.3-0.5-0.9 0.3-1.1 3-1 2.1 0.2 4.1 0.7 4.5 1.3 0.5 0.6 0.8 0.5 0.8-0.3 0-0.6 0.4-1 1-0.7 0.6 0.3 1 0.2 1-0.3 0-0.4 0.7-0.7 1.5-0.7q1.5 0 1 2c-0.3 1.1 0.1 0.6 0.9-1l1.3-3c1.2 5 1.7 5.5 2.1 4.7 0.4-0.9 1.6-1.2 2.9-0.8 1.3 0.3 2.3 0.2 2.3-0.4 0-0.6-0.3-1.2-0.8-1.3-0.4-0.2 0-0.2 0.8 0.1 0.8 0.2 2.3 0.7 3.3 1.1 1.6 0.5 1.8 0.2 1.1-1.4-0.6-1.7-0.5-1.8 0.7-0.7 0.8 0.7 1.7 1.2 2.2 1.2 0.4 0 0.5-0.4 0.2-1-0.3-0.6 0.4-0.4 1.4 0.2 1.6 1.1 2.2 1 3.5-0.5 1.2-1.2 2-1.4 3.1-0.7 1.1 0.7 1.7 0.6 2-0.3 0.3-0.6 0.3-0.2 0 1-0.4 1.7-0.1 2.1 0.8 1.6 0.6-0.4 2.3-0.7 3.7-0.8 1.4 0 3.2-0.4 4-1 1.1-0.7 1.3-0.7 0.7 0.2-0.4 0.7-0.3 1.3 0.3 1.3 0.6 0 1.9-0.4 3-1q2-1 1.5 0c-0.3 0.6-0.1 1 0.5 1 0.6 0 1-0.4 1-1 0-0.6 0.4-0.8 1-0.5 0.6 0.3 0.8 0.9 0.5 1.5-0.3 0.6 0.2 0.7 1.2 0.3 1-0.3 2.2-0.9 2.8-1.4 0.6-0.4 1.6-0.1 2.3 0.7 0.6 0.8 1 1.5 0.7 1.7-0.3 0.2 0.1 0.3 0.9 0.3 0.8-0.1 1.3-0.3 1.1-0.6-0.2-0.3 0.3-1.1 1.1-1.8 1.1-1 1.5-0.9 1.9 0.3 0.3 0.8 1.6 1.5 3 1.5 1.4 0 2.7-0.4 3-1q0.5-1 2 0c0.8 0.6 1.9 0.8 2.5 0.5 0.6-0.3 1 0.2 1 1 0 0.8 0.4 1.3 1 1 0.6-0.3 0.7-1.1 0.4-1.8-0.6-0.9-0.4-0.9 0.7 0.1 0.8 0.7 1.7 1.2 2.2 1.2 0.4 0 0.4-0.8 0.1-1.8-0.5-1.4-0.4-1.3 0.9 0.3 0.9 1.1 1.6 1.6 1.6 1 0-0.6 0.8-0.3 1.7 0.5 0.9 0.8 1.5 1.1 1.4 0.5-0.1-0.6-0.2-1.4-0.2-2 0.1-0.6 1.1 0.1 2.2 1.5 1.2 1.4 1.9 1.9 1.6 1.2-0.4-0.8 0.1-1 1.6-0.7 1.3 0.3 3.2 0.6 4.3 0.7 1.1 0 2.9-0.3 4-0.8 1.3-0.5 1.8-0.5 1.4 0.1-0.4 0.6 0.1 1 1 1 0.9 0 2.2-0.7 2.9-1.5 0.8-0.8 1.1-0.9 0.8-0.3-0.3 0.7 0.1 1.5 0.9 1.8 0.8 0.3 1.2 1.1 0.9 1.7-0.5 1-0.3 1 0.7 0 1.2-1.1 1.2-1.4-0.1-2.1-1.2-0.7-1.2-1 0.5-1.5 1.3-0.4 2.3-0.1 2.8 0.9 0.4 0.8 1.1 1.5 1.7 1.5 0.6 0 0.8-0.7 0.5-1.5q-0.5-1.5 1-1c0.8 0.3 1.5 0.8 1.5 1.2 0 0.5 0.6 0.9 1.3 0.9 0.6 0.1 2 0.4 3 0.8 0.9 0.3 1.7 0.2 1.7-0.4 0-0.6 0.5-0.7 1.1-0.3 0.6 0.5 1.5 0.1 2-0.7q0.9-1.5 0.9-0.3c0 0.7-0.4 1.5-1 1.8-0.6 0.3-1 1.1-1 1.7q0 1.3 0.9-0.2c0.6-0.9 1.5-1.2 2.5-0.8q1.6 0.8 1-0.5c-0.3-0.6 0.2-1.5 1-2 0.9-0.4 1.8-0.3 2.1 0.3 0.3 0.6 1.5 1 2.8 1 1.7 0 1.9 0.2 0.7 0.9-1.1 0.6-1.2 1-0.2 1.5 0.6 0.3 2-0.3 3-1.4 0.9-1 2-1.9 2.5-2 0.4 0 0.6 0.6 0.5 1.2-0.2 0.9 0.9 1.2 3.5 1 2.2-0.1 3.5 0.2 3.2 0.8-0.3 0.6 1.3 0.3 3.5-0.5 2.5-0.9 4.2-1.1 4.5-0.5 0.3 0.6 1.4 1 2.5 1 1.1 0 2.2-0.6 2.4-1.3 0.3-0.6 0.5-0.4 0.5 0.5 0.1 1 0.8 1.8 1.6 1.8 0.8 0 1.3-0.4 1-1-0.3-0.6 0-1.2 0.5-1.5 0.5-0.3 0.9 0 0.8 0.7-0.2 0.7 0.7 1.2 1.9 1.3 1.3 0 2.3-0.2 2.3-0.5 0-0.3 0.9-0.5 2-0.5 1.1 0 2 0.4 2 1-0.1 0.6 0.8 0.2 2-0.8 1.1-1 2.2-1.3 2.5-0.7 0.3 0.6 1 0.8 1.5 0.5 0.5-0.3 1-0.1 1 0.5 0 0.6 0.8 1 1.8 1 1 0 2.2-0.3 2.6-0.8 0.4-0.4 2.1-0.7 3.7-0.7 2.2 0 2.8 0.4 2.4 1.5-0.4 1.1-0.1 1 1-0.3 1.1-1.3 2-1.5 3.5-0.7 1.6 0.8 2.1 0.6 2.8-1.3 0.8-1.9 0.9-2 1.5-0.5 0.4 1 1.4 1.6 2.2 1.3 0.8-0.3 1.3-0.9 1-1.5-0.3-0.6 0.1-1 0.8-1.1 0.6-0.1 2.6-0.2 4.2-0.4 1.6-0.1 3.6-0.3 4.3-0.4 0.6 0 1-0.5 0.7-1.1-0.3-0.6 1.3-0.9 4-0.8 3.1 0.2 4.5-0.1 4.5-1 0-0.6 0.7-1.4 1.5-1.7 0.8-0.3 1.7-0.1 2 0.5 0.3 0.6 1.1 1 1.8 1q1.2 0-0.3-0.9c-1.3-0.7-1.3-0.9 0-1.3 0.8-0.3 3.4-0.5 5.8-0.4 3 0.1 4.1-0.3 3.7-1.2-0.3-0.6 0-1.4 0.5-1.7 0.5-0.3 1-0.1 1 0.5 0 0.6 0.6 1.2 1.3 1.4 0.7 0.2 1.2-0.5 1.2-1.7 0-1.1 0.7-2.2 1.5-2.4 1.1-0.3 1.2-0.2 0.2 0.4-1 0.6-1 1.1 0.3 2.3 1.4 1.3 1.6 1.3 1.5-0.3 0-0.9 0.5-1.9 1-2.2 0.5-0.3 1.7 0.1 2.5 0.7 1.3 1.1 1.6 1 1.5-0.5 0-0.9 0.8-1.8 1.8-1.9 0.9 0 2.5 0 3.5 0 0.9 0.1 1.5-0.2 1.2-0.8-0.3-0.6 0-1.2 0.5-1.5 0.5-0.3 1-0.1 1 0.5 0 0.6 0.7 1.2 1.5 1.5 0.8 0.3 1.3 0.1 1-0.5-0.3-0.6 0.5-2 1.6-3.3l2.1-2.2c-1.7 3.5-1.9 4.5-1.5 4.5 0.5-0.1 1.4-0.8 2.1-1.8 0.8-1 1-1.1 0.6-0.2-0.5 0.8 1 0.2 3.2-1.5 2.1-1.6 3.4-2.3 2.7-1.5-0.9 1.2-0.6 1.5 1.7 1.5 1.5 0 2.6-0.3 2.4-0.8-0.2-0.4 0.3-1.3 1.1-2 0.9-0.6 1.6-0.8 1.5-0.2 0 0.6 0.8 1.1 1.7 1.1 1 0.1 2.4-0.4 3.2-1 1.1-0.8 1.3-0.8 0.8 0.1-0.4 0.8 0.1 1.5 1.3 1.8 1.2 0.3 1.9 0 1.7-0.7-0.1-0.7 1.1-1.2 3.1-1.2 1.9-0.1 3.6 0.2 3.8 0.6 0.2 0.5 1.1 0.8 1.9 0.8 0.8 0 1.3-0.4 1-1-0.3-0.6-0.3-1.4 0-2 0.3-0.6 1-0.7 1.7 0 1 0.7 2.3-1 5-6.5 2.1-4.1 3.2-7.2 2.5-6.9-0.6 0.3-0.2-0.3 0.9-1.3 1.2-1 2.7-2.8 3.3-4.1 0.9-1.7 0.8-2.1-0.2-1.6-0.6 0.3-0.1-0.3 1.2-1.3 1.6-1.2 2.1-2.3 1.6-3.3-0.5-0.9-0.4-1.2 0.1-0.8 0.5 0.5 1.5-0.1 2.1-1.2 0.7-1.1 1.1-2.4 0.8-3-0.3-0.6 0.1-1.3 0.7-1.8 0.9-0.5 1-0.3 0.5 0.8-0.5 0.8 0 0.4 1.2-1 1.1-1.4 2.8-3.9 3.8-5.5 1.3-2.3 1.4-2.8 0.3-2-0.8 0.5 0.4-1.1 2.8-3.5 2.4-2.5 4.1-5.1 3.8-5.8-0.4-0.6 0-1.5 0.6-2 0.9-0.5 1-0.3 0.4 0.8-0.5 0.8-0.7 1.3-0.3 1 0.3-0.3 1.9-2.2 3.6-4.3 1.7-2 2.9-4.1 2.6-4.7-0.3-0.6 0.1-1.3 0.7-1.7 0.9-0.6 1.1-0.3 0.5 0.7-0.5 0.8 0.1 0.5 1.2-0.8 1.2-1.2 1.9-2.6 1.6-3.2-0.3-0.6 0.3-1.6 1.3-2.3 1.6-1.1 1.6-1 0.3 0.8-0.8 1.1 1.8-1.6 5.9-6 4-4.4 10.7-11.3 14.9-15.4 4.2-4.1 7-7.2 6.3-6.8-0.6 0.4-1.2 0.6-1.2 0.4 0-0.1 1.4-1.6 3.2-3.2 1.8-1.6 2.6-2.1 1.8-1-0.8 1.1 1.6-0.7 5.5-3.9 3.9-3.3 7.7-6.6 8.5-7.5 1.3-1.3 1.3-1.3-0.5-0.1-1.7 1.2-1.8 1.2-0.7 0 0.7-0.8 2.6-1.5 4.2-1.5 1.5 0 2.6 0.2 2.4 0.5-0.2 0.3 5.3 6.4 12.4 13.5 7 7.1 15.5 15.9 18.7 19.5 3.3 3.6 5.1 5.4 4 4l-2-2.5c4.2 3.9 5.2 5.3 5 5.7-0.3 0.5 0.6 2 1.9 3.5 1.3 1.6 5.6 7.1 9.6 12.3 5.7 7.4 7.8 9.5 9.9 9.7 1.6 0.1 3.4-0.7 4.8-2.3 1.3-1.3 2.3-2 2.3-1.4 0 0.6-0.5 1.2-1 1.5q-1 0.5 0 2c0.5 0.8 1.5 1.3 2 1 0.5-0.3 1-1.4 1-2.5 0-1.1 0.5-1.8 1-1.5 0.5 0.3 0.8 0.9 0.5 1.5-0.3 0.6 1.1 1 3.2 1.1 2.1 0 3.2 0.2 2.5 0.5-0.6 0.2-1.2 1-1.2 1.6-0.1 1 0.2 1 1.5 0 1.2-1 1.7-0.9 2.5 0.5 0.5 1 1 1.5 1 1 0-0.4-0.6-1.6-1.3-2.7-1-1.7-0.9-2.2 0.3-3 1-0.6 1.7-0.5 2.2 0.5 0.5 0.8 0.5 2.1 0 2.7q-0.7 1.3 0.5 0.5c0.7-0.4 1.1-1.4 0.8-2.2-0.3-0.8 0.1-1.6 0.7-1.6 0.7-0.1 1.8 0 2.3 0.1 0.5 0.1 1.5 0.3 2 0.4 0.5 0.1 1.7 0.6 2.5 1.1 1.1 0.7 1.3 0.6 0.7-0.3-0.4-0.7 0.1-1.6 1.5-2.3 1.9-0.9 2.5-0.8 3.7 0.7 1.2 1.6 1.3 1.7 0.7 0.1-0.5-1.4 0-1.7 2.4-1.7 1.6 0 3.2-0.4 3.5-1 0.3-0.6 1-1 1.5-1 0.5 0 1 0.4 1 1 0 0.6-0.5 0.8-1 0.5-0.5-0.3-1.2-0.1-1.5 0.5-0.3 0.6 0.6 1 2 1 1.4 0 2.5-0.4 2.5-1 0-0.6 0.5-1 1-1 0.5 0 0.8 1 0.5 2.2-0.5 2.1-0.5 2.1 0.9-0.2 0.8-1.4 1.2-2.8 1-3.3-0.2-0.4 0.1-0.7 0.6-0.7 0.5 0 1 0.6 1 1.2 0 0.7 0.6 0.4 1.5-0.7 1.3-1.8 1.4-1.8 0.8-0.1-0.6 1.4-0.4 1.7 0.7 1.5 0.8-0.2 1.4 0.2 1.2 0.8-0.1 0.7 0.3 1.1 0.8 0.8 0.5-0.3 0.7-1.1 0.4-1.8-0.3-0.6 0.2-1.8 1-2.5 0.9-0.6 2.1-1 2.6-0.7 0.5 0.3 0.8 0.9 0.5 1.5-0.3 0.6 0 1.2 0.5 1.5 0.5 0.3 1.7-0.3 2.6-1.3 0.8-0.9 1.2-1 0.7-0.2-0.6 1-0.4 1.3 0.7 0.9 0.8-0.3 1.5-1.2 1.6-2 0-0.8-0.4-2.1-1-2.9-0.7-1-0.4-0.9 0.9 0.3 1.1 0.9 2.3 1.4 2.8 1 0.4-0.5 0.7-0.2 0.7 0.4 0 0.7-0.5 1.5-1 1.8-0.5 0.3-1 0.9-1 1.5 0 0.6 1.1 0.3 2.5-0.5 1.4-0.8 3-1.3 3.5-1 0.5 0.3 1.2-0.1 1.4-0.8 0.4-1 0.5-1 0.5 0 0.1 0.7 0.8 1.1 1.6 0.8 0.8-0.3 1.2-1.1 0.9-1.8-0.3-0.6 0.3-1.9 1.3-2.7 1.6-1.3 1.7-1.3 0.6 0-1 1.2-0.8 1.7 0.8 2.7 1.3 0.9 1.7 1.9 1.2 3-0.6 1.6-0.6 1.6 0.9 0.3 0.9-0.8 1.2-1.6 0.7-1.8-0.5-0.1-0.6-0.8-0.2-1.4 0.6-1 0.4-1-0.7-0.3-1.1 0.7-1.3 0.7-0.8-0.3 0.6-0.8 1.3-0.9 2.3-0.2 0.8 0.6 2.1 0.7 2.7 0.2q1.3-0.7 0.5 0.5c-0.4 0.8-0.1 1.3 0.8 1.3 0.8 0 1.5-0.7 1.5-1.5 0-0.8-1-1.7-2.3-1.9l-2.2-0.3c3.8-0.3 4.3-0.7 3.8-1.6q-0.8-1.2 0.5-0.5c0.6 0.5 1 1.2 0.7 1.8-0.3 0.6 0 1 0.5 1 0.5 0 0.7 0.6 0.3 1.2q-0.8 1.3 0.5 0.5c0.6-0.4 1-1.4 0.7-2.2-0.3-0.8 0-1.3 0.5-1 0.5 0.3 1.2-0.1 1.4-0.8 0.3-0.6-1.2-2.8-3.2-4.7-3.1-3-3.3-3-1.2-0.5l2.5 3c-4.2-3.9-5.2-5.4-4.9-6 0.2-0.6-1.7-3-4.3-5.5-4.7-4.4-4.7-4.4-1.3-0.5l3.5 4c-5.7-5.4-7.2-7.4-6.9-8 0.2-0.6-1.5-2.8-3.8-5-4-3.7-4.1-3.8-1.3-0.5 2.7 3.2 2.7 3.2-1.2-0.5-2.3-2.2-4-4.3-3.8-4.8 0.3-0.4-4.9-6.1-11.5-12.7-6.6-6.6-12.3-11.8-12.8-11.5-0.4 0.2-2.5-1.5-4.7-3.8-2.4-2.5-2.7-3-0.7-1.2 1.8 1.7 3.2 2.7 3.2 2.2 0-0.4-4.3-4.5-9.5-9.2-5.2-4.7-9.8-8.3-10.2-8-0.5 0.2-1.7-0.5-2.8-1.8l-2-2.2c3.2 2.3 2.8 1.8 1.3 0.2-1.5-1.5-3.3-2.5-3.8-2.2-0.5 0.3-1.6-0.3-2.3-1.3-1.1-1.5-1-1.6 0.8-0.3 1.1 0.7 0.8 0.2-0.8-1.3-1.5-1.4-3.2-2.4-3.7-2.1-0.5 0.3-1.6-0.3-2.3-1.3-1-1.4-1-1.6 0.3-0.7 0.9 0.6 0.4 0-1-1.3-1.4-1.3-8.7-7-16.3-12.8-7.5-5.7-14.2-10.2-14.7-9.9-0.5 0.3-1.3-0.1-1.7-0.8-0.6-0.8-0.4-0.9 0.7-0.3q1.5 0.9 0.5-0.1c-0.5-0.6-5.7-4.2-11.5-8-5.8-3.8-11.2-7.4-12-7.9-1.2-0.7-1.3-0.6-0.5 0.6 0.5 0.8-0.7 0-2.6-1.8-2.1-2.1-4-3.1-4.9-2.7-0.8 0.4-1.2 0.3-0.8-0.2 0.5-0.4-0.1-1.4-1.2-2.1-1.1-0.6-2.6-0.9-3.2-0.5-0.8 0.5-1 0.4-0.6-0.2 0.4-0.6-1.2-2.1-3.5-3.5-2.6-1.5-3.8-1.9-3.3-1 0.5 0.8-0.3 0.3-1.7-1.3-1.5-1.5-3.4-2.5-4.2-2.2-0.8 0.3-1.3 0.1-1-0.5 0.3-0.6-0.5-1.3-1.7-1.7-1.3-0.4-2.6-0.6-3-0.5-0.5 0.1-0.8-0.2-0.8-0.8 0-0.6-5-3.5-11-6.5-6-3-11.5-5.3-12-5-0.5 0.3-1-0.1-1-0.8 0-0.6-0.2-0.9-0.5-0.5-0.3 0.5-1.3 0.1-2.3-0.8-0.9-0.8-2.3-1.3-3-1-0.7 0.4-0.9 0.2-0.4-0.6 0.5-0.9 0.2-1-1.1-0.5-1 0.4-1.5 0.3-1.2-0.3 0.3-0.6-0.2-1.2-1-1.5-0.8-0.3-2-0.3-2.5 0-0.5 0.3-1 0.1-1-0.5 0-0.6-0.7-0.8-1.5-0.5-0.8 0.3-1.3 0.1-1-0.5 0.3-0.6-0.2-1.2-1-1.5-0.8-0.3-2-0.3-2.5 0-0.5 0.3-1 0.1-1-0.5 0-0.6-0.7-0.8-1.5-0.5q-1.5 0.5-0.7-0.7c0.5-0.9 0.2-1-1.1-0.5-0.9 0.4-1.7 0.3-1.7-0.3 0-0.6-0.7-0.8-1.5-0.5q-1.5 0.5-0.7-0.7c0.5-0.9 0.2-1-1.1-0.5-0.9 0.4-1.7 0.3-1.7-0.3 0-0.6-0.7-0.8-1.5-0.5q-1.5 0.5-0.7-0.7c0.5-0.9 0.2-1-1.1-0.5-0.9 0.4-1.7 0.3-1.7-0.3 0-0.6-0.7-0.8-1.5-0.5-0.8 0.3-1.5 0.1-1.5-0.5 0-0.6-0.7-0.8-1.5-0.5q-1.5 0.5-0.7-0.7c0.5-0.9 0.1-1-1.6-0.5-1.6 0.5-2 0.4-1.4-0.5 0.5-0.9 0.1-1-1.6-0.5-1.6 0.5-2 0.4-1.4-0.5 0.5-0.9 0.1-1-1.6-0.5-1.6 0.5-2 0.4-1.4-0.5 0.5-0.9 0-0.9-1.8-0.3-2.1 0.7-2.3 0.6-1.5-0.5 0.8-1.2 0.6-1.3-0.7-0.7-1 0.4-1.8 0.3-1.8-0.3 0-0.6-1-0.7-2.3-0.3-1.7 0.5-2 0.4-1.2-0.7 0.8-1.1 0.5-1.2-1.5-0.5-2 0.7-2.3 0.6-1.5-0.5 0.8-1.1 0.6-1.3-1.3-0.7-1.3 0.4-2.2 0.3-2.2-0.3 0-0.6-0.7-0.8-1.5-0.5-0.8 0.3-1.5 0.1-1.5-0.5 0-0.6-1-0.7-2.3-0.3-1.8 0.5-2 0.4-1.2-0.7 0.8-1.1 0.6-1.3-1.3-0.7-1.3 0.4-2.2 0.3-2.2-0.3 0-0.6-0.9-0.8-2-0.5-1.4 0.3-1.8 0.1-1.3-0.7 0.6-0.9 0.1-1-1.9-0.5-2.1 0.5-2.6 0.4-2-0.5 0.5-0.9 0-1-2-0.5-2.1 0.5-2.6 0.4-2-0.5 0.5-0.9 0-1-2-0.5-2.1 0.5-2.6 0.4-2-0.5 0.5-0.9 0-1-2-0.5-2.1 0.5-2.6 0.4-2-0.5 0.5-0.9 0-1-2-0.5-2.1 0.5-2.6 0.4-2-0.5 0.5-0.9 0-1-2-0.5-1.7 0.4-2.8 0.3-2.8-0.3 0-0.6-0.9-0.8-2-0.5-1.1 0.3-2 0.1-2-0.5 0-0.6-1.1-0.8-2.5-0.5-1.8 0.4-2.3 0.2-1.8-0.7 0.6-0.9 0-1-2.5-0.5-2.4 0.5-3 0.4-2.5-0.5 0.6-0.9 0.1-1-2-0.5-1.6 0.4-2.7 0.3-2.7-0.3 0-0.6-1.1-0.8-2.5-0.5-1.4 0.3-2.5 0.1-2.5-0.5 0-0.6-1.1-0.8-2.5-0.5-1.4 0.3-2.5 0.1-2.5-0.5 0-0.6-1.1-0.8-2.5-0.5-1.6 0.3-2.5 0.1-2.5-0.8 0-0.8-0.8-1-3-0.5-2.2 0.6-2.8 0.5-2.3-0.4 0.6-0.9-0.2-1-3-0.5-2.2 0.4-3.7 0.3-3.7-0.3 0-0.6-1.3-0.7-3.3-0.3-2.6 0.5-3 0.4-2.2-0.7 0.8-1.1 0.2-1.2-3.3-0.7-2.6 0.4-4.2 0.3-4.2-0.3 0-0.6-1.5-0.8-3.5-0.5-2.6 0.4-3.3 0.2-2.8-0.7 0.6-0.9-0.3-1-3.5-0.5-2.6 0.4-4.2 0.3-4.2-0.3 0-0.6-1.7-0.8-4-0.5-2.3 0.3-4 0.1-4-0.5 0-0.6-1.8-0.8-4.5-0.5-2.7 0.3-4.5 0.1-4.5-0.5 0-0.6-2.2-0.8-5.5-0.5-3.5 0.3-5.3 0.1-5-0.5 0.3-0.6-1.9-0.8-6.3-0.3-5.6 0.5-6.5 0.4-5.7-0.7 0.8-1.2-0.1-1.3-5.8-0.7-3.7 0.4-6.7 0.4-6.7-0.1 0-0.4-17.3-0.7-38.5-0.7-21.2 0-38.5 0.3-38.5 0.7z"/>
		<path id="Path 6" fill-rule="evenodd" class="s6" d="m702.9 844c0.5 0 0.7 0.5 0.5 1-0.2 0.5 0.1 1 0.6 1 0.5 0 1-0.3 1-0.8 0-0.4 1.5-0.8 3.3-0.9 2.3-0.1 2.8 0.1 1.7 0.8-0.8 0.5-2.3 0.9-3.2 0.9-1.2 0-1.7 0.6-1.4 1.8 0.2 0.9 0.8 1.8 1.5 1.9 0.6 0.2 0.9-0.4 0.6-1.2-0.3-0.9 0.1-1.5 1-1.5 0.9 0 1.4 0.8 1.3 2.1-0.2 1.2 0.4 2.4 1.2 2.7 1.2 0.4 1.3 0.2 0.3-0.9-0.6-0.8-1-2-0.7-2.7 0.3-0.9 0.9-0.9 2.7 0 1.2 0.6 2.3 1.1 2.5 1 0.1-0.1 0.8-0.2 1.5-0.2 1-0.1 1 0.2 0 1.5-1.1 1.2-1 1.6 0.2 2 0.9 0.3 1.6-0.2 1.8-1.3 0.2-0.9 1.2-1.8 2.3-1.8 1.8-0.1 1.8-0.1-0.1 1.2-1.8 1.3-1.8 1.4-0.2 1.4 0.9 0 2.2-0.8 2.8-1.7 0.9-1.6 1-1.5 0.5 0.5-0.5 1.7-0.2 2.2 1.4 2.2q2 0 1.5 1.5c-0.3 0.8 0 1.5 0.5 1.5 0.6 0 0.8-1.3 0.5-3-0.3-1.7-0.1-3 0.5-3 0.5 0 0.7-0.6 0.4-1.3-0.3-0.6 0.3-0.1 1.4 1.3 1.9 2.4 2 2.4 2.5 0.5 0.4-1.8 0.5-1.8 0.6 0.2 0 1.3-0.6 2.5-1.4 2.8-0.8 0.3-1.5 0-1.5-0.5 0-0.5-0.4-1-1-1-0.5 0-0.7 0.6-0.5 1.3 0.3 0.6 1.2 1.5 2.2 1.9 1 0.3 2.3 0.1 3-0.5 0.7-0.7 1.9-0.9 2.8-0.4 0.8 0.4 1.5 1.3 1.5 2 0.1 0.8-0.4 0.8-1.5-0.3-0.9-0.8-1.6-1-1.5-0.5 0 0.5 0.9 1.6 2 2.3 1.1 0.6 2.2 1.1 2.5 1 0.3-0.2 0-1.6-0.7-3.2-1-2.3-1-3 0-3.3 0.9-0.2 0.9-1 0.2-2.8-0.5-1.4-1-2.7-1-3 0-0.3 0.6 0.1 1.4 0.8 0.8 0.6 1.2 1.5 1 2-0.2 0.4 0.2 1.4 0.9 2.2 1 1.3 0.9 1.6-2.8 1.4l2 2c1.5 1.6 2.4 1.8 3.8 1.1 0.9-0.6 1.9-1 2.2-1 0.3 0 0.5 0.7 0.5 1.5 0 1.3 0.3 1.3 2.3 0 1.6-1 2.6-1.1 3.7-0.4 1.3 0.9 1.2 1-0.2 0.5-1.5-0.5-1.6-0.3-0.8 1.4 0.5 1.1 1.5 2 2 2 0.5 0 0.8-0.5 0.5-1-0.3-0.5 0.1-2.2 0.7-3.8 0.7-1.5 1.7-3 2.3-3.4 0.5-0.4 1.5-0.7 2-0.7 0.5 0 0.4 0.2-0.2 0.5-0.7 0.2-1 1-0.6 1.6q0.8 1.3-0.5 0.5c-0.7-0.4-1.4-0.1-1.7 0.8-0.3 0.8-0.2 1.4 0.3 1.4 0.4-0.1 1.7-0.1 3 0 1.2 0 2.2 0.7 2.2 1.6 0 0.8 0.5 1.5 1 1.5 0.5 0 0.8-0.5 0.5-1-0.3-0.5 0.1-1 0.8-1.1 1 0 1-0.1 0-0.5-0.7-0.2-1.1-0.9-0.8-1.4 0.3-0.5 1.2-1 2-1 0.9 0 1.2 0.5 0.8 1.2-0.4 0.8 0.1 0.7 1.2-0.2 1.7-1.4 1.7-1.3 1 1-0.6 1.8-0.6 2.3 0.3 1.7 0.7-0.4 1.2-1.5 1.2-2.5 0-1.4 0.4-1.2 2 0.8 1.8 2.2 2 2.3 1.7 0.5-0.1-1.1-0.6-2.6-1-3.3-0.4-0.6-0.5-1.2-0.2-1.2 0.3 0 1.2 0.2 2 0.5 0.8 0.3 1.5 1.3 1.5 2.2-0.1 1 0.6 2.5 1.5 3.3 1.3 1.2 1.8 1.2 2.7 0.2 0.9-0.9 0.7-1.2-1-1.2-1.3 0-2-0.5-1.8-1.3 0.3-0.6-0.1-1.8-0.7-2.5-0.9-0.9-0.8-1.6 0.5-3 1.4-1.4 1.7-1.4 1.6-0.2-0.1 0.8 0 2.3 0 3.2q0.2 1.8 1.7 1.1c0.9-0.4 2.1 0.1 3.1 1.3 1.4 1.8 1.5 1.8 1.2-0.2-0.2-1.2-1.2-3.2-2.3-4.5-1.1-1.2-1.3-1.8-0.5-1.3 0.8 0.5 1.8 0.9 2.3 0.9 0.4 0 1.6 1.5 2.7 3.2 1.1 1.8 2.1 3.2 2.3 3 0.1-0.1 0.9-1.1 1.7-2.1 0.8-1.1 1-1.7 0.5-1.4-0.5 0.4-1.7 0.3-2.5-0.2-1-0.6-0.4-0.8 2-0.7 1.9 0.1 4.1 0.6 4.8 1 0.6 0.4 1.8 0.4 2.5 0.1 0.9-0.5 0.8-0.9-0.3-1.6-1.3-0.8-1.3-0.9 0-0.5 0.8 0.2 1.5 1.5 1.5 2.9 0 1.5 0.3 3 0.7 3.5 0.3 0.4 0.9-0.4 1.2-2 0.4-1.7 1.4-2.9 2.9-3.3 1.2-0.4 2.8-0.4 3.5 0 0.6 0.3 0.9 1.1 0.5 1.8-0.5 0.7-7.8 4.6-16.3 8.7-8.5 4.1-16.5 7.5-17.7 7.5-1.1 0.1-1.9 0.4-1.7 0.8 0.2 0.5-0.3 1-1.1 1.3-0.8 0.3-2 0.5-2.5 0.5-0.5 0-0.7-0.6-0.3-1.3q0.8-1.2-0.5-0.5c-0.6 0.5-1 1.1-0.7 1.5 0.2 0.5-4.4 2.5-10.3 4.5-5.9 2.1-14.5 4.7-19.2 5.8-4.7 1.2-9.1 1.9-9.7 1.5-0.7-0.3-1.1-0.2-0.9 0.2 0.3 0.5-2.3 1.4-5.7 2.2-3.4 0.7-7 1.1-7.9 0.7q-1.8-0.6-1 0.6c0.5 0.8-0.3 1-2.9 0.7-2.1-0.2-3.4 0-3 0.5 0.3 0.6-1.1 0.8-3.6 0.5-2.2-0.2-3.9-0.1-3.7 0.3 0.2 0.5-3.1 1.1-7.3 1.4-4.3 0.4-8.5 0.3-9.3-0.2-1.1-0.6-1.3-0.5-0.7 0.3 0.5 1-2.5 1.4-13 1.9-7.6 0.4-19.6 0.4-26.8 0-7.1-0.3-15.6-0.9-18.7-1.3-3.4-0.5-5.4-1.2-5-1.8 0.4-0.6 0.1-0.7-0.8-0.1-0.8 0.5-4.8 0.6-8.7 0.2-4-0.3-7.2-1-7-1.4 0.2-0.4-1.1-0.6-2.8-0.4-2.4 0.3-3 0.1-2.6-0.9 0.4-1 0.2-1.1-0.9-0.5-0.8 0.5-3.9 0.6-6.7 0.2-2.9-0.3-5.1-0.9-4.9-1.4 0.2-0.4-1.2-0.5-3.3-0.3-2.6 0.3-3.4 0.1-2.8-0.7 0.4-0.8 0.2-1-0.5-0.6-0.7 0.3-7-0.7-14-2.3-7.7-1.7-12.4-3.2-12-3.8 0.4-0.6 0.1-0.7-0.8-0.1-1 0.5-4.4 0-9.5-1.4-4.4-1.3-8.3-2.6-8.7-2.9-0.4-0.3-0.3-1.3 0.2-2.1q1-1.5 1-0.3c0 0.7 0.5 1.3 1 1.3 0.5 0 0.7-0.5 0.3-1.2-0.6-0.8-0.2-1 1.5-0.5q2.2 0.7 2.2-0.6c0-0.6 0.3-0.9 0.7-0.5 0.4 0.4 1.9-0.2 3.3-1.3 2.4-1.9 2.6-2 3.8-0.2 1.1 1.7 1.2 1.7 1.2 0 0-0.9 0.3-1.7 0.8-1.7 0.4 0 0.5 1.2 0.2 2.6-0.4 2-0.9 2.4-2.5 2-1.6-0.5-1.8-0.4-0.7 0.7 0.7 0.6 1.3 2.3 1.3 3.7 0 2.3 0.1 2.3 0.8 0.5 0.5-1.1 0.7-2.2 0.5-2.5-0.2-0.3 0.5-1.4 1.6-2.5 1.1-1.1 1.7-2.3 1.5-2.8-0.3-0.4 1-0.8 2.9-1 1.9-0.1 3.2 0.1 3 0.5-0.2 0.5 0.2 1 0.9 1.3 0.6 0.3 0.2 0.3-1 0-1.3-0.3-2.3-0.2-2.3 0.2 0 0.5 0.9 0.9 2 1 1.1 0.2 2.2-0.2 2.5-0.7 0.3-0.5 1.4-1 2.5-1 1.1 0 2 0.5 2 1 0 0.5 1.1 1 2.5 1 1.7 0 2.3-0.4 1.8-1.2q-0.8-1.3 0.7-0.6c0.9 0.4 2-0.1 2.8-1.3 0.6-1 1.8-1.9 2.5-1.9 0.6 0 2 0.8 2.9 1.8 1.7 1.6 1.8 1.6 1.5-0.3-0.1-1.2 0.3-1.9 1.1-1.8 0.9 0.2 0.9-0.2 0.2-1.7-0.9-1.8-0.7-2 2.3-1.5 1.7 0.3 3.7 0.9 4.2 1.5 0.5 0.6 1.6 1 2.3 1 0.6 0 1.2-0.8 1.2-1.8 0-1.4-0.2-1.5-0.9-0.2-0.8 1.3-1.1 1.3-2.6 0-0.9-0.8-1.6-2-1.6-2.5 0.1-0.5 0.7-0.1 1.4 1 1 1.4 1.6 1.7 2 0.7 0.4-0.7 1.5-0.9 2.6-0.6 1.1 0.4 1.6 1.1 1.3 1.8-0.5 0.7-0.2 0.8 0.6 0.3 0.6-0.4 1-1.4 0.7-2.2-0.4-1.2-0.1-1.3 1.5-0.5 1.1 0.5 2 1.2 2 1.5 0 0.3-0.2 1.2-0.5 2-0.3 0.9-1 1.2-1.7 0.8q-1.3-0.8-0.5 0.5c0.4 0.6 1.6 1 2.7 0.7 1.2-0.3 1.7-0.9 1.3-1.6-0.5-0.6-0.1-1.5 0.7-2q1.5-0.9 0.3-0.9c-0.7 0-1.3-0.7-1.3-1.5 0-0.8 0.5-1.5 1-1.5 0.5 0 0.8 0.5 0.5 1-0.3 0.6 0.4 0.7 1.8 0.3 1.7-0.6 2-0.4 1.2 0.6-0.7 0.9-0.6 1.6 0.5 2.1 0.8 0.5 1.8 0.7 2.3 0.4 0.4-0.2 0.1-1.1-0.5-1.9-0.7-0.9-1.1-1.6-0.8-1.6 0.3 0 1.4 1 2.5 2.2 1.1 1.1 1.5 1.9 0.8 1.7-0.6-0.1-1.1 0-1.2 0.4-0.1 0.5 0.1 0.8 0.4 0.8 0.3 0 1.4-0.6 2.5-1.3 1.1-0.6 2-2.1 2-3.2 0-1.7 0.3-1.6 2.5 1 1.3 1.6 2.4 2.4 2.5 1.7 0-0.7 0.5-0.9 1.3-0.5q1.2 0.8 0.5-0.5c-0.5-0.6-1.5-1-2.3-0.7-0.8 0.3-1.3 0-1-0.5 0.3-0.5 1.2-0.8 2-0.5 0.8 0.3 2.2 0.3 3 0 0.8-0.3 1.3-1 1-1.5-0.3-0.5 0-1 0.5-1 0.5 0 1.6 1 2.4 2.2 1.4 2.2 1.4 2.2 1.9 0.3 0.2-1.1 0.1-2.8-0.4-3.8-0.6-1.2-0.5-1.6 0.4-1.2 0.6 0.2 1.5 1.5 1.9 2.7 0.6 1.8 1 2 2 1 0.6-0.6 1.6-1.2 2-1.2 0.4 0 0.8 0.5 0.8 1 0 0.5-0.5 0.8-1 0.5-0.5-0.3-1.3 0.7-1.6 2.2-0.3 1.6-0.3 3 0 3.3 0.4 0.3 0.6-0.5 0.6-1.8 0-1.9 0.4-2.1 2.8-1.7 2.2 0.4 2.4 0.4 0.7-0.4-1.1-0.5-1.4-1-0.7-1 0.7-0.1 1-1 0.7-2.6-0.4-1.9-0.1-2.5 1.3-2.5 1.4 0 1.5-0.2 0.2-0.9-1.1-0.6-1.2-1-0.2-1.5 0.7-0.3 1.4 0.2 1.7 1.4 0.3 1.1 1.2 2 2 2 0.8 0 1.5 0.5 1.5 1 0 0.5-0.7 0.8-1.5 0.5-0.8-0.3-1.5 0.1-1.5 0.7 0 0.7 0.3 1 0.7 0.6 0.5-0.4 1.6-0.3 2.6 0.2 0.9 0.6 2.4 0.8 3.2 0.5q1.5-0.5 0.8-2.3c-0.6-1.3-0.4-1.5 1-1 1 0.5 1.9 0.3 2.1-0.5 0.3-0.7 0.5-0.5 0.5 0.5 0.1 1.1 0.8 1.5 2.4 1.1 1.2-0.3 2.9-0.7 3.7-1 0.8-0.3 2.3-0.6 3.3-0.7 1 0 2.1 0.2 2.3 0.6 0.2 0.5 1.2 0.8 2.3 0.8 1 0 2.4-0.7 3-1.5 0.9-1.2 1.4-1.3 2.5-0.3 0.7 0.7 1.1 2 0.8 2.8-0.3 0.9-0.1 1.1 0.4 0.7 0.5-0.5 0.9-1.8 0.9-2.9 0-1.2 0.8-2.3 1.8-2.4 0.9-0.2 1.5 0.1 1.2 0.6-0.3 0.5 0 1.2 0.5 1.5 0.5 0.3 1 0 1-0.5q0-1 2 0c1.9 0.9 1.9 0.8 1-2-0.5-1.6-0.7-3-0.2-3 0.4 0 1.1 1.3 1.7 3 0.9 3 1 3 2.7 1 1-1.1 2.5-1.8 3.3-1.5 0.8 0.3 2 0.3 2.5 0q1-0.5 0-2c-0.8-1.2-1.3-1.3-3-0.3-1.6 1.1-2.2 1-3.2-0.1-1-1.1-1-1.2 0-0.7 0.6 0.3 1.2 0 1.3-0.7 0-1 0.1-1 0.5 0 0.3 1 0.7 1 2.1 0 1.3-1 1.7-1 2 0 0.2 1 1.1 1.1 3.6 0.3 2.6-0.8 2.9-0.7 1.5 0.3-1 0.7-1.7 1.4-1.8 1.7 0 0.3 0.9 0.5 2 0.5 1.1 0 2-0.6 2-1.3 0-0.6 0.5-1.2 1-1.2 0.5 0 0.8 0.5 0.5 1-0.3 0.6 0.5 0.8 2 0.5q2.5-0.5 3 1c0.3 0.8 1 1.5 1.5 1.5 0.5 0 0.7-0.6 0.3-1.2-0.6-0.9-0.3-1 1.2-0.4 1.7 0.7 1.8 0.6 0.8-0.8-0.7-0.9-1.1-2.1-0.8-2.6 0.3-0.5-0.3-1-1.2-1-1 0.1-2.3 0.8-2.9 1.8-1 1.5-1.2 1.5-2 0.2-0.6-1.1-0.6-1.3 0.4-0.7 0.7 0.4 1.3 0.2 1.3-0.6 0.1-0.6 0.1-1.5 0-2 0-0.4 0.4-0.5 0.9-0.2 0.5 0.3 1 0 1-0.5 0-0.5 0.4-1 0.9-1zm50.5 1c0.3 0 0.3 1.4 0 3-0.3 2.2 0 3 1.1 3 0.8 0 1.5 0.3 1.5 0.7 0 0.5-0.4 1.3-0.8 2-0.4 0.8-1.2 0.1-2.1-2-0.8-1.8-2.2-3.7-3-4.4-1.4-1-1.3-1.1 0.7-0.8 1.2 0.3 2.2 0 2.2-0.5 0-0.5 0.2-1 0.4-1zm-88.3 8.3c0.4 0.7 0.6 1.5 0.3 1.9-0.2 0.5-1.3 0.8-2.4 0.8-1.1 0-2.1-0.4-2.2-1-0.1-0.5 0.7-1.3 1.7-1.9 1.3-0.6 2.1-0.6 2.6 0.2z"/>
		<path id="Path 7" class="s0" d="m700.2 849c-0.7 1.1-0.8 1.8-0.2 1.5 0.5-0.3 1.2 0.2 1.5 1 0.3 0.8 0.9 1.5 1.5 1.5 0.5 0 0.7-0.6 0.2-1.2-0.5-0.9-0.2-1 1.3-0.4 1.7 0.7 1.8 0.6 0.7-0.8-0.6-0.9-1-2.1-0.7-2.6 0.3-0.5-0.3-1-1.3-1-1 0-2.3 0.9-3 2z"/>
		<path id="Path 8" class="s7" d="m916.6 391.2c0.7 0.9 0.4 1.1-0.9 0.5-1.4-0.6-1.7-0.2-1.7 2.6 0.1 2.9-0.1 3.1-1.5 1.7-1.5-1.4-1.6-1.3-0.9 0.5 0.6 1.5 0.5 1.8-0.4 1.3-0.7-0.5-1.6 0-2.2 1.2-0.5 1.1-0.7 2.7-0.3 3.6 0.6 1.1 0.2 1.7-1.5 2-1.3 0.2-2 0.9-1.6 1.7 0.3 0.6-0.2 2-1 3-0.9 0.9-1.5 2-1.5 2.5 0.1 0.4 0.1 1.3 0 2 0 0.6-0.8 1.2-1.6 1.2-0.9 0-1.3 0.6-1 1.5 0.3 0.8 1.3 1.5 2.2 1.5 1.6 0 1.6-0.2 0.3-1.1-1.3-0.9-1.2-1 0.2-0.5 1 0.3 2.1 0.6 2.5 0.6 0.5 0 0.2 0.4-0.5 0.8-1.1 0.6-1.1 0.9 0 1.9 1 0.9 1.3 0.5 1.3-1.7 0-2.1 0.3-2.6 1.2-1.9 0.7 0.5 1 1.5 0.5 2.1q-0.7 1.3 0.5 0.5c0.7-0.4 1.1-1.1 0.8-1.7-0.3-0.6 0.5-1.2 1.7-1.5 1.3-0.3 2.8-0.5 3.3-0.5 0.5 0 0.3 0.5-0.5 1.1-1.2 0.8-0.9 1 1.2 0.7 1.5-0.2 2.8 0 2.8 0.5 0 0.4 0.8 0 1.7-0.9 1-0.8 2.4-1.3 3-1 0.7 0.3 1.5 0.2 1.8-0.4 0.3-0.6 1.1-0.5 2 0.3 0.9 0.6 1.8 0.9 2.2 0.5 0.3-0.5 0.1-0.8-0.5-0.8-0.7 0-1.2-0.4-1.2-1 0-0.6 0.3-0.8 0.7-0.6 0.5 0.2 0.8-0.4 0.8-1.4 0-1-0.4-1.5-1-1.2-0.5 0.4-0.7 0-0.3-0.8 0.3-0.8-0.1-2.7-0.8-4.2-0.8-1.6-1.6-2.8-1.9-2.8-0.3 0-0.2 0.6 0.2 1.2q0.8 1.3-0.5 0.5c-0.6-0.4-1-1.3-0.7-1.9 0.3-0.7-0.2-2.2-1-3.3-0.9-1.1-1.3-1.3-0.8-0.5 0.5 1.1 0.4 1.3-0.5 0.8-0.6-0.5-1-1.2-0.7-1.8 0.3-0.6-0.3-2.6-1.3-4.5-1-1.9-2.1-3.5-2.6-3.5-0.4 0-0.4 0.6 0 1.2zm-276.3 92.9c-0.4 0.6-1.6 0.8-2.6 0.5-1-0.4-1.9 0-2.1 0.8-0.3 1.1 0 1.3 1.2 0.9 0.9-0.3 1.5-0.3 1.2 0-0.3 0.4-1.4 0.9-2.5 1.1-1.1 0.2-2.5 0-3-0.5-0.6-0.5-2.4 0-4.3 1.1-1.7 1.1-3 2.4-2.7 3 0.3 0.6 0 1-0.5 1-0.5 0-0.9-0.7-0.8-1.5 0.1-0.9-0.4-1.3-1.5-1-1 0.3-1.4 1-1 1.7q0.8 1.3-0.5 0.5c-0.6-0.4-1.4-0.3-1.7 0.3-0.3 0.6-1 0.8-1.5 0.5-0.5-0.3-1-0.1-1 0.5 0 0.6-1 1-2.2 1-1.3 0-2.5 0.6-2.7 1.3q-0.4 1.2-1.9-0.8c-1.4-2-1.4-2-0.8 0.3 0.5 1.8 0.3 2.1-1.2 1.5-0.9-0.3-2-1.1-2.4-1.7-0.4-0.6-0.8 0-0.8 1.4 0 1.6-0.3 2-0.8 1.2-0.5-1-1.5-1.1-3.2-0.6-1.4 0.4-2.7 0.7-3 0.7-0.3-0.1-0.5 0.9-0.5 2.2 0 1.3 0.6 3 1.4 3.7 1.2 1.1 1.3 1 0.7-0.4-0.5-1.5-0.2-1.7 2.1-1.3 1.6 0.3 3.5 0.8 4.3 1.2 0.8 0.3 2.2 0.6 3.1 0.7 1 0 1.4-0.3 1-0.8-0.3-0.6 0.4-0.6 1.9-0.1 2.1 0.7 2.3 0.6 1.6-0.6-0.8-1.1-0.7-1.2 0.5-0.2 1.1 1 1.7 1 2.7 0 1.1-1 1.2-0.9 0.7 0.3-0.4 1.1 0.2 1.5 2 1.5 1.4 0 2.5-0.6 2.5-1.2 0-0.7 0.6-1.6 1.2-2 0.9-0.6 1-0.3 0.5 1-0.5 1.2-0.2 1.7 0.8 1.7q1.5 0 0.9-1.7c-0.5-1.5-0.4-1.6 0.5-0.3 0.6 0.8 2 1.5 3.1 1.5 1.1 0 2-0.3 2-0.7 0-0.5 0.8-0.6 1.7-0.4 1 0.3 2.1 0.5 2.5 0.5 0.5 0.1 0.5 0.7 0 1.3q-0.7 1.3 0.5 0.5c0.7-0.4 1.3-1.4 1.3-2.2 0-0.9 0.5-1.2 1.2-0.7 0.9 0.5 1-0.1 0.5-2.5-0.5-2.5-0.4-3.1 0.5-2.5 0.9 0.5 1 0 0.5-2-0.5-2.1-0.4-2.6 0.5-2 0.9 0.5 1 0 0.5-2-0.4-1.8-0.3-2.6 0.3-2.3 0.6 0.3 0.9-0.6 0.8-2-0.1-1.4-0.3-2.5-0.4-2.5-0.2 0-0.7 0.5-1.1 1.1zm-46.5 15.5c-0.3 0.3-1.9 0.6-3.7 0.7-1.7 0.1-3.1 0.6-3.1 1.2 0 0.6 0.3 0.7 0.7 0.3 0.4-0.4 1.6-0.3 2.5 0.2q1.8 1 1.8 0 0-1 2 0 2 1 1.5 0c-0.3-0.6 0-1 0.5-1 0.5 0 1-0.4 1-1 0-0.6-0.6-1-1.3-1-0.8 0-1.6 0.3-1.9 0.6z"/>
		<path id="Path 9" class="s0" d="m739.9 400.6c-3 2-8.8 6.4-12.9 9.9-4.1 3.4-10.3 9.3-13.6 13.1-3.4 3.8-8.6 10.3-11.5 14.4-3 4.1-7.3 10.9-9.6 15-2.2 4.1-5.7 11.3-7.6 16-1.9 4.7-4.4 12-5.6 16.2-1.5 5.7-1.8 8.3-1.1 9.8 0.5 1.1 1.9 2 3 2 1.1 0 5.7-0.9 10.3-2 4.5-1 13.4-2.9 19.7-4 8.2-1.5 17.5-2.3 32.5-2.7 16.1-0.4 23.8-0.1 33 1.1 6.6 0.9 17.7 3 24.7 4.8 11.3 3 12.8 3.1 14.3 1.8 0.9-0.8 1.6-2.9 1.5-4.5 0-1.7-0.9-6.4-2.1-10.5-1.1-4.1-3.6-10.9-5.5-15-1.9-4.1-6.4-11.8-9.9-17-3.5-5.2-9.6-13.1-13.7-17.6-4-4.4-10.7-11.2-14.8-15-4.1-3.8-11-9.7-15.2-13.2-4.3-3.4-8.4-6.2-9.2-6.2-0.7 0-3.8 1.6-6.7 3.6zm-237.4 128c-1.6 0.3-7.5 1.4-13 2.5-5.5 1.2-15.2 3.9-21.5 6.1-6.3 2.2-12.3 4.7-13.3 5.6-1 0.9-1.8 2.5-1.7 3.4 0 1 2.2 7.5 4.8 14.5 2.7 7.1 7.8 18.7 11.4 25.8 3.6 7.1 8.7 16.6 11.4 21 2.7 4.4 8.4 12.5 12.5 18 4.2 5.5 11.8 14.4 17 19.8 5.7 5.9 10.2 9.7 11.4 9.7 1.1 0 2.7-0.5 3.6-1.2 0.9-0.7 2.8-6.4 4.3-12.8 1.5-6.3 4.5-16 6.6-21.5 2.2-5.5 6.2-13.8 9-18.5 2.8-4.7 6.9-10.8 9-13.5 2.1-2.8 7.1-8.3 11.2-12.3 4-4.1 10.6-9.8 14.6-12.8 5.6-4.2 7.2-6 7.2-7.9 0-1.6-1.2-3.5-3.2-5.3-1.8-1.5-6.7-4.7-10.8-7.2-4.1-2.4-10.2-5.5-13.5-6.8-3.3-1.4-9.1-3.3-13-4.4-5.3-1.5-11.1-2-24-2.3-9.3-0.2-18.3-0.1-20 0.1z"/>
		<path id="Path 10" class="s1" d="m545.3 542.6c-1.5 0.3-2.1 0.9-1.8 1.9 0.3 0.8 0.1 1.5-0.5 1.5-0.5 0-1-0.3-1-0.8 0-0.4-0.9-0.8-2-1-1.1-0.1-2 0.4-2 1 0 0.7-0.3 1-0.7 0.6-0.4-0.4-1.6-0.3-2.5 0.2-1 0.6-4.5 1.2-7.8 1.5-4.6 0.4-5.8 0.2-5.3-0.8 0.5-0.9 0.4-0.9-0.8 0.1-0.8 0.7-3.6 1.4-6.4 1.5-2.7 0.2-5.6 0.6-6.2 1-0.8 0.4-1.6 0-1.9-1.1-0.6-1.4-0.8-1.5-1.5-0.2-0.6 1.3-1.2 1.3-3.6 0.2-1.5-0.7-3-0.9-3.3-0.4-0.3 0.5-1.5 1.2-2.7 1.5-1.5 0.5-2.6 0.2-3.3-0.8-0.7-1.1-1.5-1.3-3-0.5-1.1 0.5-2.1 0.7-2.1 0.2-0.1-0.4-0.1-0.9-0.1-1.2 0-0.3-2.1-0.5-4.6-0.5-2.6 0-5.1-0.6-5.7-1.2-0.5-0.7-2-1.1-3.2-0.8-1.5 0.3-2 0.9-1.5 1.7q0.7 1.3-0.5 0.5c-0.7-0.4-2.2-0.5-3.3-0.2-1.3 0.3-1.7 1-1.2 1.7q0.7 1.3-0.8 0.7c-1-0.4-1.6 0-1.7 1.2-0.2 1.1 0.2 1.9 0.7 1.9 0.6 0 0.7 0.8 0.3 1.7-0.6 1.4-0.5 1.6 0.7 0.8 1.1-0.8 1.2-0.6 0.5 1.5-0.7 2.1-0.6 2.3 0.6 1.5 1-0.7 1.2-0.7 0.6 0.2-0.4 0.7-0.5 2.2-0.2 3.3 0.3 1.3 1 1.7 1.7 1.2 0.9-0.5 1-0.2 0.5 1-0.4 1-0.1 2.9 0.6 4.3 0.6 1.3 1.6 2.1 2.1 1.7 0.6-0.4 0.7 0.2 0.3 1.5-0.4 1.4-0.2 2.6 0.5 3q1.3 0.8 0.5-0.5-0.7-1.2 0.8-0.7 1.5 0.5 0.6 1.7-0.9 1.3 0.5 1.3c0.8 0 1.4-0.6 1.4-1.3 0-0.7 1.2-1.1 3.3-1 1.7 0.1 3.9-0.2 4.7-0.7 1.1-0.7 1.3-0.7 0.7 0.2-0.4 0.7-0.2 1.5 0.3 1.8 0.6 0.3 1-0.2 1-1 0-0.8 0.9-1.5 2-1.5 1.1 0 2.3-0.6 2.6-1.3 0.5-0.9 0.9-0.8 1.5 0.3 0.7 1.2 1 1.2 1.7 0.2 0.5-1 1.8-1.2 4.2-0.7 2.2 0.4 3.7 0.3 4-0.4 0.3-0.7 1.7-1.3 3.1-1.4 1.5-0.1 2.5 0.1 2.3 0.5-0.2 0.5 0.1 0.8 0.6 0.8 0.6 0 1-0.5 1-1 0-0.5 0.7-1 1.5-1 0.8 0 1.3 0.5 1 1-0.3 0.5-0.2 1 0.3 1 0.4 0 2.4-0.9 4.5-2 2-1.1 3.5-1.5 3.2-1-0.3 0.6 0.5 0.5 1.8-0.1 1.6-0.9 2.3-0.9 2.5 0 0.1 0.6 0.7 1.1 1.2 1.1 0.5 0 0.8-0.5 0.5-1-0.3-0.5 0.3-0.9 1.3-0.8 0.9 0.2 1.6-0.3 1.5-1-0.2-0.9 0.5-1 3-0.3 2.6 0.8 3.6 0.6 5.5-1 1.2-1 2.2-1.6 2.2-1.2 0 0.5-0.8 1.7-1.8 2.8-1 1.1-1.1 1.4-0.2 0.7 0.8-0.6 1.9-0.9 2.3-0.4 0.4 0.4 0.7 0 0.7-0.8 0-1.3 0.1-1.3 1 0 0.9 1.3 1.3 1.2 3-0.8 1.6-1.8 2.1-1.9 2.5-0.7 0.3 0.8 0.2 1.3-0.2 1.1-0.5-0.2-0.8 0.2-0.8 0.9 0 1.1 0.3 1 1.5-0.2 1-1 2.5-1.3 4.5-0.9q3 0.7 1.5-0.3c-1.2-0.7-1-1 1-1.5 2.1-0.5 2.4-0.4 1.7 1.1-0.8 1.5-0.6 1.7 1.2 1 1.3-0.4 2.2-0.3 2.4 0.5 0.1 0.6 1.8-0.3 3.7-2.2 1.9-1.8 2.6-2.6 1.5-1.9-1.8 1.3-1.9 1.2-0.7-0.4 0.6-0.9 1.7-1.5 2.2-1.2 0.5 0.3 2.5-0.8 4.3-2.5 1.7-1.6 2.6-3 2-3-0.7 0-1.1-0.5-0.8-1 0.3-0.5-3.1-2.8-7.5-5-5.3-2.6-8.6-3.7-9.7-3.3-1.4 0.6-1.6 0.5-0.8-0.7 0.8-1.2 0.6-1.3-0.7-0.7-1.2 0.4-1.8 0.2-1.8-0.6 0-0.6-0.7-0.3-1.5 0.8-0.9 1.1-1.6 1.5-1.6 1-0.1-0.5-0.2-1.3-0.2-1.8-0.1-0.4-0.3-0.6-0.7-0.6-0.3 0.1-1.5 0.3-2.7 0.5z"/>
		<path id="Path 11" class="s2" d="m781.3 477.8c0.7 0.7 0.8 1.3 0.2 1.2q-1 0 0 1.1c0.6 0.6 2 0.8 3.3 0.5 1.2-0.3 2.2-1.3 2.2-2.1 0-1.1-0.7-1.4-2.5-1-1.4 0.3-2.3 0.2-2.1-0.3 0.2-0.4-0.2-0.7-0.9-0.7-1 0-1.1 0.3-0.2 1.3zm17-0.1c-0.2 1-0.8 1-2.3 0.3q-2-1-1.5 0c0.3 0.5-0.5 0.9-1.7 0.8-1.3-0.1-2.8-0.5-3.3-0.9-0.6-0.5-1.2 0.2-1.5 1.7-0.4 2.2-0.2 2.4 2 2 1.7-0.4 2.4-0.2 2 0.6-0.4 0.9 0.4 1 2.8 0.5 2.4-0.5 3-0.4 2.5 0.5-0.6 0.9-0.1 1 2 0.5 1.7-0.4 2.5-0.3 2.2 0.3-0.3 0.6 0 1 0.5 1 0.5 0 1.7-0.2 2.5-0.5 0.8-0.3 1.5-0.9 1.5-1.5 0-0.6-0.5-0.7-1.2-0.3-0.9 0.6-0.9 0.1-0.3-1.7 0.6-1.8 0.6-2.3-0.3-1.8-0.7 0.5-1.4 0.3-1.7-0.2-0.3-0.6 0-1 0.5-1 0.5 0 0.9-0.4 0.8-0.8-0.1-0.4-1.3-0.8-2.7-0.8-1.4 0-2.7 0.6-2.8 1.3zm-291.9 60.3c0.4 0.6-1.1 0.8-4.1 0.3-3.6-0.5-4.6-0.4-4 0.5 0.5 0.9-0.2 1-2.5 0.5-2.5-0.5-3.1-0.4-2.5 0.5 0.5 0.9 0 1.1-1.8 0.7-1.4-0.3-2.5 0-2.5 0.5 0 0.6-1.1 0.7-2.7 0.3-2.1-0.5-2.6-0.4-2 0.5 0.5 0.9 0.1 1-1.5 0.5-1.9-0.6-2.1-0.4-1.3 0.7 0.8 1.1 0.6 1.2-1.2 0.7-1.3-0.4-2.7-0.5-3.3-0.2-0.5 0.3-0.8 1.1-0.5 1.7 0.3 0.8 2.4 1.3 5.4 1.3 2.7 0 4.9 0.2 4.9 0.5 0 0.3 0 0.8 0.1 1.2 0 0.5 1 0.3 2.1-0.2 1.5-0.8 2.3-0.6 3 0.5 0.7 1 1.8 1.3 3.3 0.8 1.2-0.3 2.4-1 2.7-1.5 0.3-0.5 1.8-0.3 3.3 0.4 2.4 1.1 3 1.1 3.6-0.2 0.7-1.3 0.9-1.2 1.5 0.2 0.3 1.1 1.1 1.5 1.9 1.1 0.6-0.4 3.5-0.8 6.2-1 2.8-0.1 5.6-0.8 6.4-1.5 1.2-1 1.3-1 0.8-0.1-0.5 1 0.7 1.2 5.3 0.8 3.3-0.3 6.8-0.9 7.8-1.5 0.9-0.5 2.1-0.6 2.5-0.2 0.4 0.4 0.7 0.1 0.7-0.6 0-0.6 0.9-1.1 2-1 1.1 0.2 2 0.6 2 1 0 0.5 0.5 0.8 1 0.8 0.5 0 0.8-0.7 0.5-1.5-0.3-0.9 0.1-1.5 1.3-1.5 0.9 0 2.4-0.5 3.2-1.1 1.1-0.8 0.9-0.8-1-0.3-2 0.6-2.3 0.5-1.5-0.6 0.8-1.1 0.5-1.3-1.7-0.7-2 0.5-2.6 0.4-2-0.5 0.5-0.8-0.2-0.9-2.8-0.3-2.9 0.7-3.3 0.6-2.5-0.5 0.8-1.1 0.2-1.2-3.5-0.5-3.4 0.6-4.3 0.5-3.7-0.3 0.5-0.9-2.4-1.2-11.4-1.2-7.8 0-11.9 0.4-11.5 1z"/>
		<path id="Path 12" class="s3" d="m791.1 459.4q-0.6 1.1 0.9 0.1c1.1-0.7 1.3-0.7 0.7 0.3-0.4 0.6-1.6 1-2.7 0.7-1.7-0.4-1.9-0.1-1.5 1.8 0.4 1.7 0.2 2-1 1.5-0.9-0.5-1.3-0.4-1 0.2 0.3 0.6 0 1.2-0.5 1.5-0.5 0.3-1 0.1-1-0.5 0-0.5-0.5-1-1-1-0.5 0-0.8 0.5-0.5 1 0.3 0.6-0.2 1.2-1 1.5-0.8 0.3-1.3 1.2-1 2 0.3 0.9 0 1.3-0.8 0.9-0.6-0.3-1.6 0.3-2 1.3-0.7 1.6-0.9 1.6-1.7 0.3-0.8-1.3-1-1.2-1 0.3 0 1.1-0.6 1.5-1.5 1.2-1.2-0.4-1.3 0-0.8 1.8 0.4 1.3 0.3 1.9-0.3 1.5-0.5-0.3-1.8 0-2.9 0.9-1.4 1-1.5 1.4-0.5 1.3 0.8-0.1 2.2-0.2 3-0.1 1.3 0.1 1.3 0.2 0 1.1-1.1 0.7-0.7 1 1.7 1 1.8 0 3.1-0.3 2.9-0.7-0.2-0.5 0.8-0.6 2.3-0.4 2 0.2 2.3 0.5 1.1 1.2-0.8 0.5-1 0.9-0.4 0.9 0.6 0 1.4-0.3 1.7-0.7 0.4-0.5 0.1-1.5-0.7-2.3-1.2-1.2-1.2-1.5-0.1-1.5 0.7 0 1.1 0.3 0.9 0.8-0.2 0.4 0.7 0.5 2.1 0.2 1.9-0.4 2.5-0.1 2.6 1.3 0 1.4 0.2 1.4 0.8-0.3 0.4-1.1 1-1.5 1.3-1 0.3 0.6 1.7 1 3.1 1 1.4 0 2.3-0.3 2.1-0.7-0.2-0.5 0.5-0.3 1.6 0.2 1.5 0.8 2.1 0.6 2.5-0.5 0.3-0.8 0.8-1.4 1.2-1.4 0.5 0.1 1.4 0.1 2 0 0.7 0 1.3-0.5 1.3-1.1 0-0.5-0.6-0.7-1.2-0.2-0.9 0.5-1 0.2-0.5-1 0.4-1.2-0.5-4.1-2.8-8.5-2-4-4.2-6.8-5.1-6.9-0.9 0-1.9 0.4-2.3 1z"/>
		<path id="Path 13" class="s4" d="m754.3 414.5c0.3 0.6 0 2-0.8 3.3-0.9 1.2-2.1 2-3 1.7-0.9-0.3-1.5 0.1-1.5 1 0 0.9-0.6 1.3-1.5 1-0.8-0.3-1.7-0.1-2 0.5-0.3 0.6-1.1 0.7-1.7 0.3q-1.3-0.8-0.5 0.5c0.4 0.6 1.2 1 1.7 0.7 0.6-0.3 1 0.2 1 1 0 0.9-0.5 1.2-1.1 0.8-0.6-0.5-1.5-0.1-2 0.7-0.7 1.2-0.9 1.1-0.9-0.5 0-1.5-0.4-1.1-1.5 1.3-0.8 1.7-1.9 3-2.5 2.7-0.5-0.3-1.1 0-1.2 0.5-0.2 0.6-1.4 1.3-2.8 1.5-1.4 0.3-2.8 0.8-3.2 1-0.5 0.3-0.5 1.1-0.1 1.8q0.8 1.2-0.5 0.5c-0.6-0.5-2-0.2-2.9 0.4-1.7 1.2-1.7 1.2 0-1 1-1.3 1.3-2.4 0.7-2.7-0.5-0.3-1.5 0.5-2.1 1.8-0.9 1.8-1.3 1.9-2 0.7-0.8-1.3-0.9-1.3-0.9 0 0.1 1.1-0.5 0.8-1.7-0.7l-1.8-2.2c-4.8 5-7.5 8.2-9.1 10.3-1.6 2.2-2.2 3.6-1.4 3.1 0.8-0.5 0 0.6-1.7 2.3-1.8 1.8-3.3 3.4-3.3 3.7 0 0.3 0.6 0.2 1.3-0.1 0.6-0.3 0.2 0.3-0.9 1.3-1.2 1-2.7 2.8-3.3 4-0.9 1.8-0.8 2.2 0.2 1.6 0.6-0.3 0 0.6-1.5 2-1.6 1.5-2.6 3.4-2.3 4.2 0.3 0.8 0 1.5-0.5 1.5-0.5 0-0.8 0.4-0.5 1 0.3 0.6 0 1-0.5 1-0.6 0-0.7 0.8-0.3 1.7 0.5 1.3 0.4 1.6-0.5 1-0.7-0.4-1.4-0.1-1.7 0.8-0.3 0.8-0.2 2.3 0.2 3.2 0.5 1.3 0.4 1.6-0.5 1q-1.2-0.7-2.2 2.5c-0.8 2.6-0.7 3.6 0.5 4.8 1.1 1.1 1.5 1.1 1.5 0.2 0-0.6 1-1.2 2.3-1.2 1.2 0 2.8 0.5 3.6 1.2 1.1 1 1.3 1 0.7 0-0.4-0.9 0.9-1.1 5.8-1 3.9 0.2 6.2-0.1 6-0.7-0.3-0.6 0.5-1 1.6-1 1.1 0 2 0.3 2 0.7 0 0.5 0.7 0.8 1.5 0.8 0.8 0 1.3-0.4 1-1-0.3-0.6 1.3-0.7 4.6-0.3 4.3 0.7 5 0.6 4.5-0.7-0.5-1.3 0.3-1.4 5.2-0.7 3.1 0.4 12.5 0.6 20.7 0.5 11.3-0.2 14.9-0.6 14.8-1.6-0.2-0.6-0.1-1.2 0.2-1.2 0.3 0 1.4 0.4 2.5 1 1.5 0.7 1.9 0.7 1.8-0.3-0.2-0.6 0.3-1.1 1-1 0.7 0.2 1-0.4 0.7-1.7-0.4-1.5-0.1-1.9 1-1.5 0.9 0.3 1.5-0.1 1.5-1.3 0-1.4 0.2-1.5 1-0.2 0.8 1.3 1 1.3 1.7-0.3 0.4-1 1.4-1.6 2.1-1.3 0.7 0.4 1 0 0.7-0.9-0.3-0.8 0.2-1.7 1-2 0.8-0.3 1.3-0.9 1-1.5-0.3-0.6 0-1 0.5-1 0.5 0 1 0.4 1 1 0 0.6 0.5 0.8 1 0.5 0.5-0.3 0.8-0.9 0.5-1.5-0.3-0.6 0.1-0.7 1-0.3 1.2 0.6 1.4 0.3 1-1.5-0.4-1.8-0.2-2.1 1.5-1.7 1.1 0.3 2.3-0.1 2.8-0.7 0.5-0.9 0.3-1-0.8-0.5-0.8 0.5-0.6 0.1 0.5-0.7 1.7-1.4 1.8-1.8 0.6-2.9-1.1-0.9-1.3-0.9-0.7 0 0.3 0.7 0.4 1.3 0.1 1.3-0.3 0-1.2-1.1-2-2.5-0.8-1.4-1-2.3-0.5-2 0.5 0.3 0.3-0.6-0.5-2-0.8-1.4-1.7-2.5-2-2.5-0.3 0-0.2 0.6 0.3 1.2q0.7 1.3-0.5 0.5c-0.7-0.4-1-1.3-0.7-2 0.3-0.6-0.3-1.9-1.2-2.7-1.6-1.3-1.7-1.3-0.9 0 0.7 1.1 0.6 1.3-0.3 0.7-0.6-0.4-1-1.1-0.7-1.7 0.3-0.6-2.3-4.1-5.7-7.8-3.5-3.7-9.2-9.5-12.8-12.8-3.6-3.2-7.6-6.8-8.9-7.9-1.4-1.1-2.2-1.6-1.8-1z"/>
		<path id="Path 14" class="s5" d="m741.5 410.8c-1.7 1.5-2.4 2.3-1.5 1.7 1.3-0.9 1.3-0.7 0.3 0.7-0.7 1-1.9 1.6-2.5 1.3-0.7-0.3-2.7 0.9-4.3 2.7l-3 3.3 6-5c-3.9 4.2-5.5 5.2-6 4.9-0.5-0.2-3.4 1.9-6.3 4.8l-5.3 5.3c3.5 4.2 4.2 4.5 4.1 3.5 0-1.3 0.1-1.3 0.9 0 0.7 1.2 1.1 1.1 2-0.8 0.6-1.2 1.6-2 2.1-1.7 0.6 0.3 0.3 1.4-0.8 2.7-1.6 2.2-1.6 2.2 0 1 1-0.6 2.4-0.9 3-0.5q1.3 0.8 0.5-0.5c-0.4-0.6-0.4-1.4 0-1.7 0.5-0.2 1.9-0.7 3.3-1 1.4-0.2 2.6-0.9 2.8-1.5 0.1-0.5 0.7-0.8 1.2-0.5 0.5 0.3 1.7-1 2.5-2.8 1.1-2.3 1.5-2.7 1.5-1.2 0 1.6 0.2 1.7 0.9 0.5 0.5-0.8 1.4-1.2 2-0.8 0.6 0.5 1.1 0.2 1.1-0.7 0-0.8-0.5-1.3-1-1-0.5 0.3-1.3-0.1-1.7-0.8q-0.8-1.2 0.5-0.5c0.6 0.5 1.4 0.3 1.7-0.2 0.3-0.6 1.2-0.8 2-0.5 0.9 0.3 1.5-0.1 1.5-1 0-0.8 0.6-1.3 1.3-0.9 0.6 0.3 1.8-0.1 2.4-0.8 0.7-0.7 1.2-2.2 1-3.3-0.1-1.1-0.6-2.6-1-3.3-0.4-0.6-1.4-1-2.2-0.7-0.8 0.3-2.1-0.3-2.7-1.3-1.2-1.6-1.1-1.6 0.7-0.2 1.9 1.4 1.9 1.4 0.5-0.3-0.8-1-2.2-1.8-3-1.7-0.8 0-2.9 1.3-4.5 2.8z"/>
		<path id="Path 15" class="s6" d="m535.6 579c-0.4 1.1-1.1 2-1.6 2-0.5 0-1-0.6-1-1.3 0-0.7-1.4-1.2-3.5-1.2-1.9 0-3.5 0.3-3.5 0.8 0 0.4-1 0.5-2.1 0.2-1.2-0.2-3 0-4 0.5-1.1 0.6-1.7 0.7-1.5 0.2 0.2-0.4-1.2-0.7-3-0.7-2 0-3.9 0.6-4.4 1.5q-1 1.5-1 0.2c0-0.8-1-1-3.3-0.6-1.7 0.4-3.7 1-4.2 1.4-0.6 0.5-2.5 0.6-4.3 0.4-1.7-0.2-3.4-0.1-3.6 0.3-0.2 0.5-2.7 0.7-5.5 0.5-2.8-0.1-5.1 0.1-5.1 0.5 0 0.5-1.5 0.6-3.3 0.4-3.1-0.3-3.1-0.3-1.2 1.4 1.1 0.9 1.4 1.4 0.7 1.1-0.8-0.4-0.8 0.3 0.3 2.4 1.3 2.6 1.7 2.8 3.2 1.8 0.9-0.7 1.4-0.8 1.1-0.3-0.3 0.5 0.6 1.1 2.1 1.2 1.4 0.1 3.5 0.3 4.6 0.5 1.1 0.1 1.9 0.6 1.8 1-0.2 0.4 0.6 1 1.7 1.3 1.7 0.4 1.9 0.1 1.4-2.3l-0.5-2.7c3.2 3.5 4.3 4.5 4.6 4.5 0.3 0 0.3-0.7 0-1.5-0.3-0.8-0.1-1.5 0.5-1.5 0.5 0 1 0.6 1 1.3-0.1 0.8 0.4 0.8 1.6-0.3 1-0.9 1.5-1 1.1-0.3-0.4 0.8 0.3 1.8 1.9 2.5 2.1 1.1 2.7 1.1 3.3-0.2 0.7-1.1 1-1.2 1.5-0.3 0.4 0.9 1.2 1 2.6 0.3q2-1 3.5 0c1 0.7 2 0.6 3.1-0.3 1.3-1 1.7-0.9 2.5 0.3q0.9 1.5 0.9 0.2c0-0.6 1-1.5 2.2-1.9 1.3-0.3 3.7-0.7 5.5-0.7 1.7-0.1 2.9 0.2 2.7 0.6-0.2 0.5 0.1 0.8 0.6 0.8 0.5 0 1-0.5 1-1 0-0.5 0.8-0.8 1.7-0.6 1 0.2 2.4-0.5 3-1.5 0.7-1.1 1.1-2.4 0.8-2.9-0.3-0.5 0.1-1.3 0.7-1.8 1-0.5 1-0.3 0.3 0.8-0.7 1.1-0.7 1.3 0.2 0.7 0.7-0.4 1.8-1.6 2.3-2.7 0.5-1.1 0.7-1.8 0.2-1.6-0.4 0.2-0.5-1-0.3-2.8 0.4-2.8 0.3-3-1.1-1.6-0.9 0.8-1.5 1.7-1.3 2 0.2 0.3-0.7 0.4-1.9 0.3-1.1-0.1-2.8-0.2-3.6-0.2-1.2 0-1.3-0.3-0.2-1.6 0.7-0.8 0.8-1.5 0.3-1.5-0.6 0-1.2 0.9-1.5 2z"/>
		<path id="Path 16" class="s7" d="m693 482c0 0.6-0.5 0.8-1 0.5-0.5-0.3-1-0.1-1 0.5 0 0.6 0.7 1.2 1.5 1.5 0.8 0.3 2.1 0.5 2.8 0.5 0.8 0.1 0.8-0.4-0.3-1.5-1.4-1.5-1.2-1.6 1.8-0.6 1.7 0.6 3.5 0.9 3.9 0.6 0.3-0.3 0-0.5-0.8-0.5-1.1 0-1.1-0.2 0.1-0.9 1-0.6 0.2-0.9-2.8-1-2.3 0-4.2 0.4-4.2 0.9z"/>
	</g>
</svg>