<svg version="1.2" xmlns="http://www.w3.org/2000/svg" viewBox="0 0 32 32" width="32" height="32">

	<style>
		.s0 { opacity: .14;fill: currentColor}
		.s1 { opacity: .43;fill: currentColor}
		.s2 { opacity: .28;fill: currentColor}
		.s3 { opacity: .25;fill: currentColor}
		.s4 { opacity: .34;fill: currentColor}
		.s5 { opacity: .07;fill: currentColor}
		.s6 { opacity: .86;fill: currentColor}
		.s7 { opacity: 1;fill: currentColor}
		.s8 { opacity: .77;fill: currentColor}
		.s9 { opacity: .72;fill: currentColor}
		.s10 { opacity: .88;fill: currentColor}
		.s11 { opacity: .68;fill: currentColor}
		.s12 { opacity: .57;fill: currentColor}
		.s13 { opacity: .4;fill: currentColor}
		.s14 { opacity: .48;fill: currentColor}
		.s15 { opacity: .93;fill: currentColor}
		.s16 { opacity: .44;fill: currentColor}
		.s17 { opacity: .61;fill: currentColor}
		.s18 { opacity: .3;fill: currentColor}
		.s19 { opacity: .1;fill: currentColor}
	</style>
	<g id="Background">
		<path id="Path 0" class="s0" d="m4 19h1v1h-1z"/>
		<path id="Path 1" class="s1" d="m6 18h1v1h-1z"/>
		<path id="Path 2" class="s0" d="m7 17h1v1h-1z"/>
		<path id="Path 3" class="s0" d="m9 16h1v1h-1z"/>
		<path id="Path 4" class="s2" d="m11 14h1v1h-1z"/>
		<path id="Path 5" class="s2" d="m13 12h1v1h-1z"/>
		<path id="Path 6" class="s3" d="m16 8h1v1h-1z"/>
		<path id="Path 7" class="s0" d="m17 6h1v1h-1z"/>
		<path id="Path 8" class="s0" d="m18 4h1v1h-1z"/>
		<path id="Path 9" class="s0" d="m19 3h1v1h-1z"/>
		<path id="Path 10" class="s4" d="m20 4v-1h2v1z"/>
		<path id="Path 11" class="s0" d="m22 3h1v1h-1z"/>
		<path id="Path 12" class="s5" d="m23 3h1v1h-1z"/>
		<path id="Path 13" class="s0" d="m26 5h1v1h-1z"/>
		<path id="Path 14" class="s2" d="m24 4h1v1h-1z"/>
		<path id="Path 15" class="s6" d="m19 4h1v1h-1z"/>
		<path id="Path 16" class="s7" d="m20 5v-1h2 1v1z"/>
		<path id="Path 17" class="s8" d="m23 4h1v1h-1z"/>
		<path id="Path 18" class="s9" d="m18 5h1v1h-1z"/>
		<path id="Path 19" class="s7" d="m18 6l1-1h1v1 1 1 1l1 1 2 2 1 1 1 1h1 1v1h-1-1l-1 1h-1-1l-1-1-1-1h-1l-1-1-1-1v-1-1-1-1l1-1z"/>
		<path id="Path 20" class="s10" d="m24 15h1v1h-1z"/>
		<path id="Path 21" class="s11" d="m21 15h1v1h-1z"/>
		<path id="Path 22" class="s10" d="m20 14h1v1h-1z"/>
		<path id="Path 23" class="s12" d="m18 13h1v1h-1z"/>
		<path id="Path 24" class="s1" d="m17 12h1v1h-1z"/>
		<path id="Path 25" class="s10" d="m20 6v-1h3v1h-1-1z"/>
		<path id="Path 26" class="s7" d="m23 6v-1h1 1v1h-1z"/>
		<path id="Path 27" class="s9" d="m25 5h1v1h-1z"/>
		<path id="Path 28" class="s13" d="m20 6h1v1h-1z"/>
		<path id="Path 29" class="s0" d="m21 6h1v1h-1z"/>
		<path id="Path 30" class="s3" d="m22 6h1v1h-1z"/>
		<path id="Path 31" class="s14" d="m23 6h1v1h-1z"/>
		<path id="Path 32" class="s6" d="m24 6h1v1h-1z"/>
		<path id="Path 33" class="s7" d="m25 7v-1h1l1 1v1l1 1v2l-1 1h-1l-1-1h-1l-1-1-1-1v-1h1 1l1 1v-1z"/>
		<path id="Path 34" class="s8" d="m27 11h1v1h-1z"/>
		<path id="Path 35" class="s15" d="m25 11h1v1h-1z"/>
		<path id="Path 36" class="s6" d="m23 10h1v1h-1z"/>
		<path id="Path 37" class="s6" d="m22 9h1v1h-1z"/>
		<path id="Path 38" class="s15" d="m25 8h1v1h-1z"/>
		<path id="Path 39" class="s9" d="m26 6h1v1h-1z"/>
		<path id="Path 40" class="s9" d="m17 7h1v1h-1z"/>
		<path id="Path 41" class="s3" d="m20 8v-1h1 1v1z"/>
		<path id="Path 42" class="s13" d="m22 7h1v1h-1z"/>
		<path id="Path 43" class="s0" d="m23 7h1v1h-1z"/>
		<path id="Path 44" class="s12" d="m24 7h1v1h-1z"/>
		<path id="Path 45" class="s12" d="m27 7h1v1h-1z"/>
		<path id="Path 46" class="s16" d="m20 9v-1h2v1h-1z"/>
		<path id="Path 47" class="s11" d="m24 8h1v1h-1z"/>
		<path id="Path 48" class="s15" d="m27 8h1v1h-1z"/>
		<path id="Path 49" class="s8" d="m16 9h1v1h-1z"/>
		<path id="Path 50" class="s9" d="m20 9h1v1h-1z"/>
		<path id="Path 51" class="s17" d="m16 10h1v1h-1z"/>
		<path id="Path 52" class="s18" d="m23 12l-2-2h1 1l1 1v1z"/>
		<path id="Path 53" class="s0" d="m16 11h1v1h-1z"/>
		<path id="Path 54" class="s11" d="m24 11h1v1h-1z"/>
		<path id="Path 55" class="s12" d="m14 12h1v1h-1z"/>
		<path id="Path 56" class="s1" d="m15 12h1v1h-1z"/>
		<path id="Path 57" class="s13" d="m23 12h1v1h-1z"/>
		<path id="Path 58" class="s19" d="m24 12h1v1h-1z"/>
		<path id="Path 59" class="s4" d="m25 12h1v1h-1z"/>
		<path id="Path 60" class="s17" d="m26 12h1v1h-1z"/>
		<path id="Path 61" class="s3" d="m27 12h1v1h-1z"/>
		<path id="Path 62" class="s9" d="m13 13h1v1h-1z"/>
		<path id="Path 63" class="s7" d="m14 14v-1h1 1l1 1v1l1 1h1l1 1v1l-1 1-1 1h-1-1-1l-1-1h-1l-1-1v-1-1h1l1 1h1v-1l-1-1z"/>
		<path id="Path 64" class="s14" d="m18 19h1v1h-1z"/>
		<path id="Path 65" class="s6" d="m14 19h1v1h-1z"/>
		<path id="Path 66" class="s17" d="m19 18h1v1h-1z"/>
		<path id="Path 67" class="s1" d="m12 18h1v1h-1z"/>
		<path id="Path 68" class="s9" d="m14 17h1v1h-1z"/>
		<path id="Path 69" class="s6" d="m15 16h1v1h-1z"/>
		<path id="Path 70" class="s6" d="m14 15h1v1h-1z"/>
		<path id="Path 71" class="s1" d="m16 13h1v1h-1z"/>
		<path id="Path 72" class="s9" d="m24 13h1v1h-1z"/>
		<path id="Path 73" class="s14" d="m25 13h1v1h-1z"/>
		<path id="Path 74" class="s3" d="m26 13h1v1h-1z"/>
		<path id="Path 75" class="s19" d="m27 13h1v1h-1z"/>
		<path id="Path 76" class="s0" d="m12 14h1v1h-1z"/>
		<path id="Path 77" class="s1" d="m13 14h1v1h-1z"/>
		<path id="Path 78" class="s2" d="m17 14h1v1h-1z"/>
		<path id="Path 79" class="s1" d="m19 14h1v1h-1z"/>
		<path id="Path 80" class="s4" d="m27 14h1v1h-1z"/>
		<path id="Path 81" class="s15" d="m11 15h1v1h-1z"/>
		<path id="Path 82" class="s12" d="m12 15h1v1h-1z"/>
		<path id="Path 83" class="s6" d="m17 15h1v1h-1z"/>
		<path id="Path 84" class="s1" d="m18 15h1v1h-1z"/>
		<path id="Path 85" class="s2" d="m20 15h1v1h-1z"/>
		<path id="Path 86" class="s17" d="m25 15h1v1h-1z"/>
		<path id="Path 87" class="s4" d="m26 15h1v1h-1z"/>
		<path id="Path 88" class="s19" d="m27 15h1v1h-1z"/>
		<path id="Path 89" class="s6" d="m11 16h1v1h-1z"/>
		<path id="Path 90" class="s12" d="m13 16h1v1h-1z"/>
		<path id="Path 91" class="s1" d="m14 16h1v1h-1z"/>
		<path id="Path 92" class="s14" d="m19 16h1v1h-1z"/>
		<path id="Path 93" class="s5" d="m21 16h1v1h-1z"/>
		<path id="Path 94" class="s13" d="m22 16h1v1h-1z"/>
		<path id="Path 95" class="s14" d="m23 16h1v1h-1z"/>
		<path id="Path 96" class="s3" d="m24 16h1v1h-1z"/>
		<path id="Path 97" class="s12" d="m8 17h1v1h-1z"/>
		<path id="Path 98" class="s9" d="m9 17h1v1h-1z"/>
		<path id="Path 99" class="s2" d="m11 17h1v1h-1z"/>
		<path id="Path 100" class="s6" d="m7 18h1v1h-1z"/>
		<path id="Path 101" class="s7" d="m7 19l1-1h1 1l1 1v1l1 1h1l1 1v2 1l-1 1v1h-1l-1 1h-1l-1-1v-1l-1-1h-1-1l-1-1-1-1v-1-1l1-1 1-1z"/>
		<path id="Path 102" class="s15" d="m11 27h1v1h-1z"/>
		<path id="Path 103" class="s15" d="m9 27h1v1h-1z"/>
		<path id="Path 104" class="s9" d="m13 25h1v1h-1z"/>
		<path id="Path 105" class="s6" d="m8 25h1v1h-1z"/>
		<path id="Path 106" class="s9" d="m5 24h1v1h-1z"/>
		<path id="Path 107" class="s16" d="m4 23h1v1h-1z"/>
		<path id="Path 108" class="s1" d="m10 18h1v1h-1z"/>
		<path id="Path 109" class="s9" d="m5 19h1v1h-1z"/>
		<path id="Path 110" class="s1" d="m11 19h1v1h-1z"/>
		<path id="Path 111" class="s2" d="m13 19h1v1h-1z"/>
		<path id="Path 112" class="s5" d="m19 19h1v1h-1z"/>
		<path id="Path 113" class="s8" d="m4 20h1v1h-1z"/>
		<path id="Path 114" class="s15" d="m11 20h1v1h-1z"/>
		<path id="Path 115" class="s1" d="m12 20h1v1h-1z"/>
		<path id="Path 116" class="s2" d="m14 20h1v1h-1z"/>
		<path id="Path 117" class="s12" d="m15 20h1v1h-1z"/>
		<path id="Path 118" class="s9" d="m16 20h1v1h-1z"/>
		<path id="Path 119" class="s13" d="m17 20h1v1h-1z"/>
		<path id="Path 120" class="s19" d="m3 21h1v1h-1z"/>
		<path id="Path 121" class="s12" d="m13 21h1v1h-1z"/>
		<path id="Path 122" class="s19" d="m16 21h1v1h-1z"/>
		<path id="Path 123" class="s5" d="m3 22h1v1h-1z"/>
		<path id="Path 124" class="s6" d="m14 24v-2h1v1 1z"/>
		<path id="Path 125" class="s0" d="m15 22h1v1h-1z"/>
		<path id="Path 126" class="s2" d="m14 24h1v1h-1z"/>
		<path id="Path 127" class="s0" d="m5 25h1v1h-1z"/>
		<path id="Path 128" class="s2" d="m6 25h1v1h-1z"/>
		<path id="Path 129" class="s1" d="m7 25h1v1h-1z"/>
		<path id="Path 130" class="s15" d="m8 26h1v1h-1z"/>
		<path id="Path 131" class="s0" d="m13 26h1v1h-1z"/>
		<path id="Path 132" class="s13" d="m8 27h1v1h-1z"/>
		<path id="Path 133" class="s1" d="m12 27h1v1h-1z"/>
		<path id="Path 134" class="s5" d="m9 28h1v1h-1z"/>
		<path id="Path 135" class="s19" d="m10 28h1v1h-1z"/>
		<path id="Path 136" class="s5" d="m11 28h1v1h-1z"/>
	</g>
</svg>