<svg version="1.2" xmlns="http://www.w3.org/2000/svg" viewBox="0 0 72 72" width="72" height="72">
	<title>Ability_power_icon</title>
	<style>
		.s0 { fill: currentColor }
	</style>
	<path id="Path 0" class="s0" d="m45.5 1.2c-1.6 0.6-4.8 2.3-7 3.9-2.2 1.5-10.1 8.9-17.5 16.3l-13.5 13.6c7.8 0.2 10.6 0.2 11.3 0.1 0.6 0 1.2 0.4 1.2 0.9 0 0.5-2.7 5.5-6 11-3.3 5.5-6 10.2-6 10.5 0 0.3-1.6 3.2-3.5 6.5-1.9 3.3-3.3 6.2-3 6.5 0.3 0.3 2-0.4 3.7-1.4 1.8-1 6-3.4 9.3-5.1 3.3-1.8 8.9-4.8 12.5-6.8 3.6-1.9 7.1-4 7.8-4.6 1-0.9 1.3-0.5 1.2 1.9 0 1.6 0.3 4.4 0.7 6.2l0.8 3.2c23.3-23.6 30.8-32.1 31.8-34.2 0.9-2 1.7-5.9 1.7-8.7 0-2.8-0.8-6.7-1.8-8.7-0.9-2-3.3-5-5.3-6.7-2-1.7-5.4-3.7-7.5-4.3-2.1-0.7-4.8-1.2-5.9-1.2-1.1 0-3.4 0.5-5 1.1z"/>
</svg>