<svg version="1.2" xmlns="http://www.w3.org/2000/svg" viewBox="0 0 72 72" width="72" height="72">
	<title>Health_icon</title>
	<style>
		.s0 { opacity: .99;fill: currentColor }
	</style>
	<path id="Path 0" class="s0" d="m11.5 5.2c-1.1 0.6-3.5 2.5-5.3 4.2-1.9 1.7-4 4.3-4.8 5.8-0.8 1.6-1.4 5.2-1.4 8.1 0 3.7 0.8 6.8 2.7 10.7 1.8 3.8 6.4 9.2 14.3 17.1 6.3 6.3 13.2 12.7 15.2 14.2 3.4 2.4 4 2.6 6 1.3 1.3-0.8 8.2-7.2 15.4-14.3 9-8.8 13.8-14.4 15.5-17.8 1.8-3.7 2.4-6.7 2.4-11.6 0-5.2-0.5-7.2-2.4-10-1.3-1.9-3.5-4.3-5-5.3-1.4-1.1-4.6-2.2-7.1-2.4-2.7-0.2-6.1 0.2-8.5 1.2-2.2 0.8-5.8 2.9-8 4.5l-4 2.9c-6.2-5.2-9.7-7.4-11.8-8.2-2-0.9-5.4-1.6-7.5-1.6-2 0-4.6 0.6-5.7 1.2z"/>
</svg>