<svg version="1.2" xmlns="http://www.w3.org/2000/svg" viewBox="0 0 72 72" width="72" height="72">

	<style>
		.s0 { opacity: .98;fill: currentColor }
	</style>
	<path id="Path 0" class="s0" d="m10 5v5h-10v10h10v10h10v-10h10v-10h-10v-10h-10zm28.9 15.1c-2.6 3-7.2 9-10.3 13.4-3.2 4.4-6.1 9.7-6.7 11.8-0.5 2-0.5 5.4-0.1 7.4 0.4 2.1 1.7 5.4 2.8 7.3 1.1 1.9 4.2 5 6.9 6.8 2.8 1.8 6.8 3.5 9 3.8 2.2 0.3 6 0 8.5-0.6 3.2-0.9 6-2.7 9.7-6.4 4.1-4.1 5.2-6 5.8-9.6 0.4-2.5 0.5-6.2 0.1-8.3-0.3-2.2-3.1-7.3-6.6-12.4-3.3-4.9-7.9-11-10.2-13.7l-4.3-4.8z"/>
</svg>