<svg version="1.2" xmlns="http://www.w3.org/2000/svg" viewBox="0 0 30 30" width="30" height="30">

	<style>
		.s0 { opacity: .9;fill: currentColor }
	</style>
	<path id="Path 0" class="s0" d="m0 2c0 1.8 0.7 2 6.8 2 5.5 0.1 7.1-0.3 8.7-2l2-2.1c-16.8 0.1-17.5 0.3-17.5 2.1zm13.4 5.3c-3.9 3.9-7.6 8-8.2 8.9-1 1.5-0.6 2.8 2.6 7.8l3.7 6c18.2 0 18.5-0.1 18.3-2.2-0.2-1.6-1.2-2.4-3.8-3-1.9-0.5-4.1-1.9-4.8-3.1-1.3-2-1-2.6 4-7.4l5.3-5.3c-7-7-9.2-9-9.5-9-0.3 0-3.7 3.3-7.6 7.3zm-8.2-1.5c-4.5 0.2-5.2 0.5-5.2 2.2 0 1.6 0.7 2 3.7 2 2.5 0.1 4.5-0.6 5.8-2 1.1-1.1 1.8-2.1 1.5-2.3-0.3-0.1-2.9-0.1-5.8 0.1zm-5.2 8.2c0 1.1 0.3 2 0.7 2 0.5 0.1 1.6-0.8 2.6-2 1.7-1.9 1.7-2-0.8-2-1.8 0-2.5 0.5-2.5 2z"/>
</svg>