<svg version="1.2" xmlns="http://www.w3.org/2000/svg" viewBox="0 0 72 72" width="72" height="72">
	<title>mpenflat</title>
	<style>
		.s0 { opacity: .9;fill: currentColor }
	</style>
	<path id="Path 0" fill-rule="evenodd" class="s0" d="m38 0.4c4.6 0.3 8.4 1.2 13 3.4 4 1.8 8.1 4.8 10.8 7.6 2.3 2.5 5 6.3 6.1 8.4 1 2 2.1 4.9 2.5 6.5 0.6 2.7 0.5 2.7-4.4 2.7-4.8 0-5-0.1-6-3.3-0.5-1.7-2.4-5-4.2-7.1-1.8-2.2-5.5-5-8.3-6.3-3.7-1.7-6.8-2.3-11.8-2.3-5.1 0-7.8 0.6-11.4 2.4-2.7 1.3-6 3.7-7.4 5.3-1.5 1.5-3.6 4.7-4.8 7-2 4.1-2.3 4.3-6.6 4.3-2.9 0-4.5-0.4-4.5-1.3 0-0.6 0.7-3 1.6-5.2 0.9-2.2 3-5.8 4.8-8 1.7-2.2 4-4.8 5.1-5.7 1.1-1 4.5-3 7.5-4.5 3-1.5 6.9-3.1 8.5-3.5 1.7-0.4 5.9-0.6 9.5-0.4zm-32.3 42.6c4.7 0 4.9 0.2 6.8 4.3 1.1 2.3 3.2 5.4 4.7 7 1.5 1.5 5.2 3.8 8 5.2 3.7 1.8 7 2.5 10.8 2.5 3.7 0 7.1-0.7 10.5-2.4 2.7-1.3 6.5-4.1 8.4-6.2 1.9-2.2 4-5.4 4.8-7.1 1.2-3.1 1.6-3.3 11.3-3.3l-1.1 3.8c-0.6 2-2.7 6.2-4.7 9.2-2.2 3.3-5.9 7-9.2 9.2-3.3 2.2-8.3 4.4-12.5 5.4-6 1.5-7.8 1.5-13 0.5-3.3-0.7-8-2.2-10.5-3.4-2.5-1.1-6.5-4.1-9.1-6.6-2.5-2.5-5.7-7.2-7.2-10.3-1.5-3.2-2.7-6.3-2.7-6.8 0-0.5 2.1-1 4.7-1zm32.3-25.4c1.9 0.3 5.3 1.6 7.5 2.9 2.2 1.3 4.8 3.7 7.5 8.5h-17c-10.7 0-17-0.4-17-1 0-0.6 1.7-2.7 3.8-4.8 2.1-2.2 5.4-4.3 7.7-4.9 2.2-0.7 5.6-0.9 7.5-0.7zm-19.2 25.4h34.2l-2.3 3.2c-1.2 1.7-3.6 4.1-5.2 5.2-2.3 1.6-4.5 2.1-9.5 2.1-5 0-7.2-0.5-9.5-2.1-1.7-1.1-4.1-3.5-5.4-5.2z"/>
</svg>