<svg version="1.2" xmlns="http://www.w3.org/2000/svg" viewBox="0 0 72 72" width="72" height="72">
	<title>Omnivamp_colored_icon</title>
	<style>
		.s0 { opacity: .98;fill: currentColor } 
	</style>
	<path id="Path 0" class="s0" d="m5.9 20.9c-0.6 1.1-1 5.1-1 9 0.1 4 0.8 8.7 1.7 10.9 0.8 2 2.4 5.5 3.4 7.7 1 2.2 2.1 4.8 2.4 5.8 0.3 0.9 1 1.5 1.6 1.2 0.6-0.3 1-6.7 1-16.3 0-15.4-0.1-15.7-2.5-17.9-1.4-1.3-3.2-2.3-4-2.3-0.8 0-1.9 0.9-2.6 1.9zm12.6-1.2c-0.5 0.3-0.8 1.6-0.7 2.7 0.1 1.2 1.3 3.1 2.7 4.3 1.4 1.3 2.9 2.1 3.5 1.8 0.6-0.3 1-1.7 1-3.3 0.1-1.5-0.7-3.5-1.7-4.4-1-1-2.3-1.8-2.9-1.8-0.6 0-1.4 0.3-1.9 0.7zm9 0.3c-0.3 0.6-0.1 2.1 0.5 3.5 0.6 1.4 1.3 2.5 1.7 2.5 0.5 0.1 1.4-0.6 2-1.5 0.9-1 1-2.1 0.3-3.5-0.6-1.1-1.7-2-2.5-2-0.7 0-1.6 0.4-2 1zm9.9 0.7c-0.3 1-0.1 2.9 0.5 4.3 1.1 2.2 1.4 2.3 2.6 1 0.8-0.8 1.6-2.6 1.7-4 0.2-1.9-0.2-2.6-1.9-2.8-1.4-0.2-2.4 0.3-2.9 1.5zm9.5 0.6c-1.2 1.3-2.2 3.3-2.1 4.5 0.1 1.2 0.9 2.4 1.7 2.7 0.8 0.3 2.2-0.1 3-0.7 0.9-0.7 1.6-2.7 1.6-4.5 0.1-1.7-0.3-3.4-0.9-3.7-0.5-0.3-2 0.5-3.3 1.7zm9.8-0.1c-1.2 1.8-1.6 5.8-1.9 17.8-0.3 13.3-0.1 15.5 1.2 15.5 0.8 0 1.6-0.9 1.7-2 0.2-1.1 1-2.7 1.8-3.5 0.9-0.8 1.5-2.4 1.5-3.5 0-1.1 0.6-2.7 1.5-3.5 0.9-1 1.7-4.1 2-8.5 0.3-3.9 0.2-8.6-0.3-10.5-0.6-2.8-1.3-3.6-3.3-3.8-1.8-0.2-3.1 0.4-4.2 2z"/>
</svg>