<svg version="1.2" xmlns="http://www.w3.org/2000/svg" viewBox="0 0 72 72" width="72" height="72">

	<style>
		.s0 { fill: currentColor }
	</style>
	<path id="Path 0" class="s0" d="m0 4.5v4.5h32.5l8.5-9h-41zm32.7 12.8c-9.1 9.4-17.9 18.8-19.6 20.7-1.7 1.9-3.1 4.1-3.1 4.8 0 0.6 4.2 7.5 9.2 15.2l9.3 14h43.5c0-6.1-0.7-7.7-2.8-9.4-1.9-1.8-4.3-2.6-8.2-3-5.3-0.5-5.6-0.7-9.2-5.8-2.1-2.9-3.8-5.8-3.8-6.3 0-0.5 5.6-6.5 12.3-13.2l12.2-12.3c-3.9-4.1-8.8-9.1-13.5-13.7-4.7-4.6-8.8-8.3-9.1-8.3-0.4 0-8.1 7.8-17.2 17.3zm-32.7 1.2v4.5h18.5l8.7-9h-27.2zm0 14c0 4 0.3 4.5 2.2 4.5 1.3 0 3.9-1.6 6-3.7l3.8-3.8c-5.8-1.1-8.5-1.5-9.8-1.5-2 0-2.2 0.5-2.2 4.5z"/>
</svg>