<svg version="1.2" xmlns="http://www.w3.org/2000/svg" viewBox="0 0 50 50" width="50" height="50">
	<title>role-icon-support</title>
	<style>
		.s0 { opacity: .9;fill:  currentColor}
	</style>
	<path id="Path 0" fill-rule="evenodd" class="s0" d="m4.2 1.5l1.9 5c1.1 2.8 3.4 6.5 5.2 8.3 1.7 1.8 3.9 3.5 4.7 3.7 1 0.3 2 2.9 2.8 7.2 1 5.5 1 7.1 0 8.1-0.7 0.7-2.1 1.3-3.1 1.2-0.9 0-2-0.8-2.3-1.8-0.4-0.9-0.2-2.5 0.5-3.5 0.8-1.3 0.8-2.1-0.2-3.2-0.6-0.9-2.3-1.5-3.7-1.5-1.4 0-3.1-0.6-3.8-1.5-1-1.2-1-1.6 0-1.9 0.7-0.3 0.5-0.5-0.5-0.5-0.9-0.1-2.2-1.1-2.8-2.4-1-1.8-0.8-2.4 0.7-3.5 1.8-1.2 1.8-1.2-0.4-1.2-1.7 0-2.2-0.5-2-2.5 0.1-1.4 0.8-4.2 1.6-6.3zm41.4 0.5c0.2 0 1.1 1.6 1.9 3.5 0.8 1.9 1.5 4.6 1.5 6 0 1.9-0.5 2.5-2.2 2.5-2.2 0-2.2 0.1-0.5 1.3 1.6 1.1 1.7 1.5 0.5 4-0.7 1.5-1.9 2.8-2.5 2.7-0.7 0-1.2 0.6-1 1.3 0.1 0.7-1 1.3-2.8 1.5-1.6 0.1-3.6 0.9-4.2 1.7-1 1.2-1 1.9-0.1 3.3 0.6 0.9 0.8 2.5 0.5 3.5-0.4 0.9-1.5 1.7-2.4 1.8-1 0-2.4-0.6-3.1-1.3-1-1-1-2.6 0-8.1 0.9-4.3 1.8-6.9 2.8-7.2 0.8-0.2 3.2-2.2 5.3-4.4 2-2.3 4.2-5.9 4.8-8.1 0.7-2.2 1.3-4 1.5-4zm-20.4 1.2c2.6 0.3 3.4 1 4.6 4.3 1.5 3.8 1.4 4.4-0.6 9.5-1.7 4.1-2.2 7.6-2.2 13.3 0 4.2 0.5 9 1 10.5 0.8 2 0.8 3.5-0.2 5.5-0.7 1.5-2 2.8-2.8 2.8-0.8 0-2.1-1.3-2.8-2.8-0.9-2-1-3.5-0.2-5.5 0.5-1.5 1-6.4 1-10.8 0-5.8-0.5-9.2-2-12.5-1.1-2.5-2-5.1-2-5.9-0.1-0.7 0.6-3 1.5-5 1.5-3.3 2-3.7 4.7-3.4zm-1.8 10.6c0.3 1.8 1.1 3.2 1.6 3.2 0.6 0 1.3-1.4 1.6-3.2 0.4-1.8 0.4-3.8 0-4.5-0.3-0.7-1-1.3-1.5-1.3-0.6 0-1.3 0.6-1.7 1.3-0.3 0.7-0.4 2.7 0 4.5z"/>
</svg>