<svg version="1.2" xmlns="http://www.w3.org/2000/svg" viewBox="0 0 291 291" width="291" height="291">
	<title>league-filled</title>
	<style>
		.s0 { fill: currentColor }
	</style>
	<path id="Path 0" class="s0" d="m52.9 22.3c2.1 3.4 7.5 12.2 12 19.5l8.2 13.2-0.1 186c-19.4 29.4-25 38.2-25 38.5 0 0.3 40.6 0.5 90.3 0.5h90.2l36.1-47.5-131.6-0.5v-216h-84zm105.1-5.5c-1 0.3-1.3 3.2-1.1 12.3 0.2 11.7 0.2 11.9 2.4 11.9 1.3 0 6.8 1.2 12.3 2.5 6.1 1.6 14.2 4.7 21 8 6 3 13.9 7.7 17.5 10.4 3.5 2.7 9.4 8 13 11.8 3.6 3.8 8.5 9.8 10.9 13.3 2.5 3.6 6.4 10.6 8.8 15.5 2.3 5 5.5 13.5 6.9 19 2.4 9 2.7 11.9 2.7 26.5 0 14.6-0.3 17.7-2.6 26.5-1.6 6-5 14.8-8.4 21.8l-5.8 11.7h27.5c5.2-12.7 7.7-19.8 8.8-24 1.2-4.1 2.8-11.5 3.7-16.5 0.8-4.9 1.5-13.9 1.5-20 0-6-0.7-15-1.6-20-0.9-4.9-2.7-12.7-4-17.2-1.3-4.5-4.5-12.6-7-18-2.5-5.4-7-13.3-9.9-17.8-3-4.4-8.7-11.5-12.7-15.9-4-4.3-10.9-10.6-15.3-14-4.4-3.4-10.7-7.8-14-9.8-3.3-2-9-5-12.5-6.6-3.6-1.6-9.5-3.9-13-5.2-3.6-1.2-11.3-3.2-17.2-4.4-5.8-1.2-11.2-2-11.9-1.8zm-116.4 49.7c-2.8 3.6-7.3 10.2-10.1 14.8-2.7 4.5-6.7 12.5-8.8 17.7-2.1 5.3-4.9 14.3-6.3 20-1.8 7.7-2.6 14.6-3 25.5-0.5 13.6-0.3 16.3 2.1 28 1.5 7.2 4.5 17.5 6.6 23 2.1 5.5 6.3 14 9.2 18.8 2.9 4.9 7.5 11.7 10.3 15.3 2.7 3.5 5.4 6.3 6 6.1 0.6-0.2 1.1-7.7 1.2-19.2l0.3-19c-5.4-12.4-7.9-20-9.2-25-1.8-7.3-2.2-11.7-2.2-24.5 0-12.7 0.4-17.1 2.2-24.5 1.3-4.9 3.8-12.6 5.7-17l3.5-8c-0.4-30.4-0.9-37.9-1.5-38.1-0.6-0.2-3.3 2.6-6 6.1z"/>
</svg>