<svg xmlns="http://www.w3.org/2000/svg"  viewBox="0 0 64 64" width="64px" height="64px"><path d="M 31.292969 2.1835938 A 1.0001 1.0001 0 0 0 30.455078 3.6269531 L 31.316406 5.4316406 A 1.0001 1.0001 0 1 0 33.121094 4.5722656 L 32.259766 2.765625 A 1.0001 1.0001 0 0 0 31.392578 2.1835938 A 1.0001 1.0001 0 0 0 31.292969 2.1835938 z M 26.984375 4.2382812 A 1.0001 1.0001 0 0 0 26.146484 5.6796875 L 27.007812 7.4863281 A 1.0007295 1.0007295 0 1 0 28.814453 6.625 L 27.953125 4.8203125 A 1.0001 1.0001 0 0 0 26.984375 4.2382812 z M 38.929688 5.2070312 A 1.0001 1.0001 0 0 0 38.558594 5.3027344 L 4.5703125 21.503906 A 1.0001 1.0001 0 0 0 4.0234375 22.617188 L 9.2636719 46.916016 A 1.0001 1.0001 0 0 0 10.240234 47.705078 L 17.228516 47.705078 A 1.0001 1.0001 0 0 0 18.226562 46.632812 L 17.345703 34.521484 L 20.226562 46.931641 A 1.0001 1.0001 0 0 0 21.199219 47.705078 L 28.505859 47.705078 A 1.0001 1.0001 0 0 0 29.505859 46.691406 L 29.269531 30.925781 L 31.966797 46.873047 A 1.0001 1.0001 0 0 0 32.953125 47.705078 L 40.576172 47.705078 A 1.0001 1.0001 0 0 0 41.574219 46.773438 L 42.908203 27.255859 L 44.34375 46.779297 A 1.0001 1.0001 0 0 0 45.341797 47.705078 L 55.507812 47.705078 A 1.0001 1.0001 0 0 0 56.501953 46.802734 L 59.996094 11.226562 A 1.0001 1.0001 0 0 0 59.238281 10.158203 L 39.226562 5.234375 A 1.0001 1.0001 0 0 0 38.929688 5.2070312 z M 22.675781 6.2910156 A 1.0001 1.0001 0 0 0 21.839844 7.7324219 L 22.699219 9.5390625 A 1.0001 1.0001 0 1 0 24.503906 8.6777344 L 23.644531 6.8730469 A 1.0001 1.0001 0 0 0 22.675781 6.2910156 z M 39.095703 7.2636719 L 57.919922 11.892578 L 54.599609 45.705078 L 46.271484 45.705078 L 44.433594 20.744141 A 1.0001 1.0001 0 0 0 43.160156 19.855469 L 42.048828 20.173828 A 1.0001 1.0001 0 0 0 41.326172 21.066406 L 39.642578 45.705078 L 33.798828 45.705078 L 30.285156 24.939453 A 1.0001 1.0001 0 0 0 29.025391 24.144531 L 27.912109 24.462891 A 1.0001 1.0001 0 0 0 27.1875 25.439453 L 27.490234 45.705078 L 21.994141 45.705078 L 18.044922 28.691406 A 1.0001 1.0001 0 0 0 16.794922 27.955078 L 15.683594 28.273438 A 1.0001 1.0001 0 0 0 14.960938 29.306641 L 16.154297 45.705078 L 11.048828 45.705078 L 6.1445312 22.96875 L 39.095703 7.2636719 z M 18.466797 8.34375 A 1.0001 1.0001 0 0 0 17.53125 9.7871094 L 18.390625 11.591797 A 1.0003096 1.0003096 0 1 0 20.197266 10.732422 L 19.335938 8.9257812 A 1.0001 1.0001 0 0 0 18.466797 8.34375 z M 14.158203 10.396484 A 1.0001 1.0001 0 0 0 14.058594 10.398438 A 1.0001 1.0001 0 0 0 13.222656 11.839844 L 14.083984 13.646484 A 1.0001 1.0001 0 1 0 15.888672 12.785156 L 15.027344 10.978516 A 1.0001 1.0001 0 0 0 14.158203 10.396484 z M 9.7519531 12.451172 A 1.0001 1.0001 0 0 0 8.9140625 13.892578 L 9.7734375 15.699219 A 1.0003094 1.0003094 0 1 0 11.580078 14.839844 L 10.720703 13.033203 A 1.0001 1.0001 0 0 0 9.7519531 12.451172 z M 5.5429688 14.503906 A 1.0001 1.0001 0 0 0 5.4433594 14.505859 A 1.0001 1.0001 0 0 0 4.6054688 15.947266 L 5.4667969 17.751953 A 1.0001 1.0001 0 1 0 7.2714844 16.892578 L 6.4121094 15.085938 A 1.0001 1.0001 0 0 0 5.5429688 14.503906 z M 30.681641 49.042969 A 1.0001 1.0001 0 0 0 29.798828 50.404297 L 32.339844 56.916016 A 1.0001 1.0001 0 0 0 33.025391 57.521484 L 53.671875 62.763672 A 1.0001 1.0001 0 0 0 54.912109 61.900391 L 56.025391 51.417969 A 1.0001 1.0001 0 0 0 55.082031 50.3125 L 30.783203 49.042969 A 1.0001 1.0001 0 0 0 30.681641 49.042969 z M 32.224609 51.119141 L 53.923828 52.255859 L 53.044922 60.541016 L 34.015625 55.710938 L 32.224609 51.119141 z"/></svg>