<svg xmlns="http://www.w3.org/2000/svg" version="1.1" viewBox="-5.0 -10.0 110.0 135.0">
 <path d="m54.855 68.004c0.0625-0.09375 0.035156-0.13281-0.078125-0.10938-0.20312 0.039063-0.35547 0.0625-0.44922 0.074219-0.45312 0.050781-0.79688 0.09375-1.0312 0.12891-0.23047 0.03125-0.44141 0.046875-0.625 0.046875-0.19141-0.003906-0.40625-0.003906-0.62891 0-0.50781 0.011719-1.1406-0.10938-1.543-0.17578-0.29688-0.050781-0.66016-0.16016-1.0977-0.32812-0.69531-0.26562-1.3828-0.79297-1.5742-1.5273-0.10547-0.40625 0.074219-0.9375 0.31641-1.25 0.24219-0.30469 0.5625-0.56641 0.96484-0.77344 0.48438-0.25 0.98047-0.44922 1.4883-0.58984 0.074219-0.019531 0.085938-0.058594 0.03125-0.11328-0.46094-0.45312-0.85156-0.98438-1.1758-1.5859-0.55078-1.0078-0.875-2.0938-0.96875-3.2422-0.003906-0.054688-0.03125-0.074219-0.082031-0.058594-0.71484 0.1875-1.4375 0.26562-2.168 0.21875-0.48438-0.027344-0.91797-0.10938-1.3008-0.25391-0.44531-0.16797-0.85938-0.36719-1.25-0.59375-0.33984-0.20312-0.76172-0.5-1.2734-0.88672-0.125-0.09375-0.375-0.25391-0.75-0.48047-0.37891-0.23438-0.83203-0.36328-1.3594-0.39062-0.17188-0.007812-0.53125-0.015625-1.0781-0.015625-0.39453 0-0.75391 0.03125-1.0703 0.085938-0.53906 0.085937-1.0273 0.1875-1.4805 0.28906-1.6992 0.39844-3.7539 0.91797-6.168 1.5703-1.3281 0.35156-2.5508 0.74219-3.6719 1.1602-0.46094 0.17188-0.875 0.33984-1.2383 0.5-1.082 0.48047-2.0508 0.95703-2.9102 1.4258-0.6875 0.38281-1.2617 0.68359-1.7188 0.91797-0.82422 0.42578-1.6836 0.76172-2.5781 1-0.21484 0.058594-0.46875 0.10938-0.75781 0.15625-0.42969 0.066406-0.71094 0.13672-1.0195 0.11328-0.34375-0.023437-0.67578-0.078125-1.0156-0.16016-0.62109-0.16016-1.1836-0.59375-1.4844-1.168-0.12109-0.22656-0.18359-0.49219-0.19922-0.79688-0.023437-0.51562 0.070313-1.0352 0.28906-1.5547 0.3125-0.74219 0.75-1.4492 1.3164-2.1211 0.37109-0.44141 0.66797-0.78125 0.89062-1.0117 1.0039-1.0547 2.1133-2.0469 3.3242-2.9766 1.2969-0.99609 2.6406-1.9219 4.0352-2.7812 0.64453-0.39844 1.3281-0.78906 2.0312-1.1641 1.2539-0.67188 2.4492-1.2812 3.582-1.8359 0.62109-0.30469 1.3203-0.63281 2.0938-0.98047 0.015625-0.011719 0.027344-0.027344 0.027344-0.042969 0.003906-0.019531-0.003906-0.035156-0.019531-0.046875-0.4375-0.30469-0.82812-0.66016-1.1797-1.0625-0.039062-0.039062-0.082031-0.050781-0.14062-0.023437-0.92578 0.47656-1.8828 1.0508-2.8633 1.7227-0.73047 0.49609-1.3906 1.0117-1.9883 1.5469-0.26562 0.23828-0.68359 0.25391-0.80469-0.14062-0.050781-0.17578 0.10156-0.36328 0.22656-0.47266 0.26562-0.25 0.61328-0.53906 1.0625-0.87109 0.89844-0.67578 1.8008-1.2656 2.6914-1.7695 0.53516-0.30469 0.9375-0.52734 1.2031-0.67188 0.035156-0.023438 0.042969-0.046875 0.015625-0.078125-0.20312-0.22656-0.37109-0.48047-0.51172-0.75781-0.11719-0.23438-0.22656-0.13281-0.41016-0.10156-1.0508 0.17578-1.9805 0.35156-2.7773 0.53125-0.44141 0.097656-1.0195 0.25781-1.7344 0.48438-0.20703 0.066406-0.61719 0.125-0.69531-0.17188-0.13281-0.48438 0.1875-0.54688 0.58203-0.66797 0.78516-0.23828 1.5-0.42188 2.1406-0.54297 0.91016-0.17578 1.6836-0.30469 2.3008-0.39453 0.074219-0.003906 0.09375-0.046875 0.070313-0.10938l-0.40625-0.95312c-0.023438-0.050781-0.058594-0.074219-0.10938-0.078125-0.375-0.003906-0.75-0.10547-1.1172-0.12109-0.34766-0.007812-0.76562-0.039062-1.25-0.09375-0.33203-0.035156-0.72656-0.050781-1.1719-0.050781-0.88281 0-1.3203-0.03125-2.0078 0.050781-0.32812 0.042969-0.70312 0.058594-1.125 0.042969-0.38281-0.011719-0.53125-0.19922-0.46484-0.56641 0.046875-0.24219 0.48828-0.28906 0.68359-0.29297 0.31641 0 0.59375-0.011719 0.83594-0.027344 0.29688-0.019531 0.57812-0.03125 0.83594-0.035156 0.30469 0 0.78906 0 1.457 0.003906 0.1875 0 0.40234 0.039063 0.55078 0.039063 0.26172 0 0.53125 0.015625 0.80859 0.050781 0.35547 0.042969 0.60938 0.066406 0.77734 0.074219 0.33594 0.015625 0.64062 0.050781 0.91016 0.10938 0.058594 0.007812 0.078125-0.011719 0.0625-0.070313-0.14062-0.5-0.26953-1.0547-0.37891-1.6719-0.046875-0.26562-0.089844-0.54688-0.10938-0.84375-0.015625-0.14844-0.039063-0.33594-0.074219-0.5625-0.019531-0.14453-0.035156-0.33203-0.035156-0.5625-0.007813-0.26562-0.011719-0.59766-0.011719-1 0-0.25391 0.027344-0.53516 0.066406-0.83203 0.027344-0.18359 0.0625-0.46484 0.10938-0.83203 0.03125-0.26172 0.14062-0.73047 0.33594-1.418 0.22266-0.80859 0.55469-1.5625 0.98828-2.2695 0.019531-0.03125 0.015625-0.054688-0.015625-0.074219-1.5195-0.79297-2.8633-1.832-4.0273-3.125-0.28516-0.31641-0.44531-0.55078-0.28125-0.96484 0.10938-0.26953 0.39844-0.34375 0.70312-0.41016 0.16797-0.03125 0.34375-0.050781 0.52734-0.0625 1.0781-0.035156 2.2383-0.042969 3.4844-0.015625 0.20312 0.003906 0.64453-0.035156 1.332-0.11328 0.46875-0.058594 0.90625-0.13672 1.3125-0.23047 0.60156-0.14453 1.3242-0.375 2.1641-0.69141 0.84766-0.3125 1.9062-0.59375 3.1758-0.83594 0.25-0.046875 0.52734-0.082031 0.82812-0.097656 0.39062-0.027344 0.98438-0.12109 1.4805-0.12109 0.28906-0.003906 0.58594-0.007812 0.875 0.023438 0.53906 0.0625 0.96094 0.097656 1.2578 0.11328 0.15625 0.011719 0.35938 0.035156 0.60156 0.089844 0.26953 0.050781 0.56641 0.054687 0.80469 0.11719 0.09375 0.023438 0.40234 0.085938 0.91797 0.17969 0.25 0.050781 0.56641 0.125 0.96484 0.22656 0.40625 0.10938 0.71875 0.19922 0.94531 0.27344 0.41797 0.12891 0.89062 0.3125 1.4336 0.54688 0.69141 0.30078 1.418 0.74219 2.1719 1.3281 0.80078 0.61719 1.5 1.2656 2.0938 1.9297 0.47266 0.53906 0.83984 1.0625 1.0938 1.5859 0.16016 0.33203 0.32422 0.69141 0.48047 1.082 0.09375 0.23828 0.21875 0.48047 0.375 0.73438 0.023437 0.035156 0.0625 0.0625 0.10938 0.074219 0.125 0.023437 0.25781 0.03125 0.39453 0.015625 0.36328-0.03125 0.73438-0.054688 1.1055-0.058594 0.33203-0.011719 0.61719-0.019531 0.85938-0.046875 0.46094-0.046875 0.76953-0.089844 1.1406-0.09375 0.70703-0.015625 1.5-0.015625 2.3789-0.011719 0.34375 0.007813 0.66016 0.027344 0.96484 0.0625 0.375 0.042969 0.69141 0.074219 0.96094 0.078125 0.21094 0.007813 0.5 0.039063 0.88281 0.089844 0.046875 0.011719 0.33594 0.046875 0.875 0.10938 0.44531 0.058594 1.0547 0.16016 1.832 0.31641 2.9492 0.60547 5.6367 1.7812 8.0586 3.5391 1.6797 1.2109 3.1953 2.6289 4.5469 4.25 0.85938 1.0234 1.5977 2.1094 2.2266 3.25 0.3125 0.56641 0.60938 1.2266 0.89844 1.9844 0.39844 1.0547 0.72656 2.1875 0.98438 3.375 0.03125 0.14062 0.070312 0.36328 0.11719 0.66406 0.058594 0.35938 0.125 0.58984 0.14062 0.89062 0.015625 0.25 0.042969 0.48047 0.078125 0.6875 0.046875 0.26172 0.070313 0.49219 0.070313 0.6875 0 0.32031 0.023437 0.73047 0.078125 1.2305 0.039062 0.39453 0.0625 0.79297 0.066406 1.1836 0.003906 0.62891 0.003906 1.2109 0 1.7539 0 0.26172-0.019531 0.56641-0.0625 0.93359-0.050781 0.42188-0.078125 0.73438-0.078125 0.92969-0.003906 0.20312-0.03125 0.41797-0.078125 0.64062-0.035156 0.17188-0.0625 0.39062-0.078125 0.64062-0.015625 0.28906-0.09375 0.5625-0.13672 0.87109-0.007812 0.089844 0.027344 0.125 0.10938 0.11328 0.46875-0.046875 0.9375-0.14844 1.4062-0.30078 0.72656-0.23438 1.3906-0.625 1.9336-1.168 0.75391-0.75781 1.2617-1.6797 1.5156-2.7656 0.0625-0.27344 0.12109-0.57812 0.16797-0.89844 0.039062-0.30859 0.054687-0.625 0.039062-0.94922-0.015625-0.34375-0.082031-0.78516-0.19141-1.3281-0.18359-0.84766-0.42578-1.668-0.74609-2.457-0.28906-0.73047-0.8125-1.6797-1.1133-2.3398-0.33203-0.72266-0.57422-1.4727-0.72266-2.2539-0.039063-0.20312-0.058594-0.36719-0.070313-0.48438-0.023437-0.58594-0.023437-1.1523 0.007813-1.6992 0.003906-0.16016 0.03125-0.31641 0.0625-0.46875 0.003906-0.015625 0.035156-0.17188 0.097656-0.46484 0.46875-2.2578 1.6445-4.0781 3.5273-5.4531 0.69141-0.50391 1.4141-0.91016 2.1641-1.2109 0.52734-0.21875 1.2031-0.42969 1.8242-0.44531 0.38672-0.007812 0.68359 0 0.89062 0.023438 0.5 0.046875 1.1289 0.28906 1.4336 0.70703 0.42578 0.58984 0.32031 1.1758-0.054688 1.7773-0.14453 0.22656-0.34766 0.46094-0.59766 0.69531-0.32422 0.30469-0.64453 0.57422-0.97266 0.8125-0.68359 0.50781-1.2266 0.89062-1.6172 1.168-0.16406 0.11328-0.42969 0.33984-0.79688 0.66797-0.47266 0.42969-0.80078 0.92969-0.98828 1.5039-0.058594 0.18359-0.09375 0.36328-0.10938 0.54688-0.027344 0.23828-0.078125 0.46484-0.058594 0.74609 0.03125 0.36719 0.074219 0.66406 0.13281 0.88281 0.23438 0.96484 0.65625 1.793 1.2344 2.8281 0.50391 0.90625 0.94141 1.8047 1.3672 2.7812 0.26172 0.60938 0.46484 1.2617 0.60156 1.9609 0.066406 0.31641 0.12891 0.6875 0.1875 1.1133 0.019531 0.12109 0.019531 0.57812 0.003906 1.3789-0.003906 0.24219-0.03125 0.44922-0.066406 0.62109-0.058594 0.24609-0.085938 0.53516-0.16406 0.81641-0.26953 1.0156-0.67969 2.0117-1.2344 2.9805-0.51953 0.92188-1.1641 1.7617-1.9414 2.5156-0.32422 0.31641-0.66016 0.60547-1.0156 0.85938-1.207 0.87891-2.6523 1.5312-4.1289 1.75-0.28125 0.042969-0.58594 0.11328-0.88672 0.125-0.70703 0.03125-1.3594 0.03125-1.957 0.003906-0.16406-0.003906-0.30859-0.015625-0.4375-0.035156-0.054688-0.011719-0.085938 0.011719-0.10547 0.050781-0.35938 0.80469-0.83984 1.5938-1.4336 2.2188-0.73438 0.77734-1.6016 1.3398-2.6094 1.6875-0.66406 0.23438-1.1914 0.375-1.5781 0.42969-0.50391 0.0625-0.94141 0.15625-1.4102 0.16016-0.16016 0-0.48828 0.011719-0.98828 0.027344-0.32422 0.007812-0.65234 0.007812-0.98438 0-0.59375-0.015625-1-0.027344-1.2109-0.027344-0.48828 0-0.95703-0.10547-1.4766-0.14062-0.21875-0.011719-0.43359-0.035156-0.63281-0.0625-0.90625-0.13672-1.4688-0.22266-1.6953-0.26172-0.82812-0.14062-1.7148-0.32812-2.6641-0.5625-0.34766-0.085937-0.69141-0.19531-1.0312-0.32812-0.070312-0.023437-0.125-0.003906-0.16016 0.058594-0.011719 0.027344-0.015625 0.035156-0.015625 0.042969-0.48047 0.84375-1.0977 1.5391-1.8555 2.0977-0.24219 0.18359-0.5 0.33984-0.75391 0.46484-0.29297 0.14453-0.56641 0.25-0.83203 0.31641-0.09375 0.027344-0.3125 0.066406-0.66406 0.125-0.21094 0.03125-0.4375 0.050781-0.66406 0.050781-0.58984 0-0.94531 0-1.0703-0.007812-0.10938-0.011719-0.36328-0.0625-0.76953-0.15625-0.66797-0.15625-1.2188-0.52734-1.5156-1.1484-0.09375-0.20312-0.15234-0.4375-0.17188-0.70312-0.042969-0.64062 0.10547-1.2188 0.44922-1.7344zm-8.2578-23.926c0.011719-0.015625 0.007813-0.03125-0.007812-0.042969-0.074219-0.035156-0.16406-0.0625-0.26562-0.070312-0.45312-0.054688-0.74219-0.085938-0.875-0.10547-0.30469-0.042969-0.59375-0.066406-0.87109-0.089844-0.59375-0.035156-1.0156-0.066406-1.2539-0.097656-0.21875-0.03125-0.48438-0.042969-0.80859-0.035156-0.12109 0-0.39062-0.011719-0.8125-0.039063-0.31641-0.015625-0.83984-0.007812-1.5586 0.015625-0.36719 0.015625-0.66016 0.039063-0.875 0.074219-0.046875 0.003906-0.125-0.003906-0.23438-0.035156-0.078125-0.023438-0.125-0.074219-0.14844-0.15234-0.046875-0.13672-0.042969-0.26562 0.015625-0.39062 0.003906-0.019531 0.019531-0.035156 0.039062-0.046875 0.38672-0.21484 0.77344-0.20312 1.2734-0.23438 0.23828-0.015625 0.47656-0.019531 0.70703-0.019531 0.82422 0.003906 1.293 0.007812 1.4102 0.007812 0.058594 0.007813 0.12109 0.011719 0.17969 0.015625 0.085937 0.007813 0.14453 0.011719 0.17578 0.011719 0.48438 0 0.89062 0.027344 1.2227 0.066406 0.22656 0.027344 0.5 0.046875 0.82422 0.054688 0.23828 0.007812 0.51562 0.03125 0.81641 0.070312 0.09375 0.011719 0.36719 0.042969 0.80469 0.089844 0.28516 0.03125 0.55469 0.078125 0.80469 0.14062 0.125 0.03125 0.21094 0.015625 0.25781-0.046875 0.44531-0.57422 0.80469-1.1094 1.0508-1.7031 0.015625-0.027344 0.066406-0.16016 0.17188-0.40625 0.074219-0.17578 0.14062-0.29297 0.20312-0.34766 0.125-0.11719 0.25391-0.17188 0.39453-0.17188 0.37109 0 0.57422 0.19141 0.60547 0.58594 0.011719 0.125-0.019531 0.30469-0.097656 0.52344-0.24219 0.66016-0.57031 1.2539-0.98047 1.7812-0.035156 0.046875-0.027344 0.078125 0.035156 0.085937 0.14844 0.03125 0.27734 0.09375 0.38281 0.1875 0.1875 0.16406 0.20703 0.40625 0.007812 0.5625-0.11719 0.10156-0.26953 0.13281-0.44141 0.10547-0.050781-0.011719-0.21484-0.035156-0.48828-0.089844-0.10156-0.015625-0.1875 0.015625-0.26172 0.10156-0.56641 0.62891-1.1719 1.1758-1.8086 1.6406-0.03125 0.019531-0.039062 0.046875-0.035156 0.078125s0.027344 0.050781 0.058594 0.066406c0.46094 0.16016 0.92969 0.35547 1.4141 0.57812 0.26562 0.12109 0.42969 0.21875 0.48438 0.28125 0.13672 0.16016 0.16406 0.33203 0.074219 0.50391-0.10938 0.21484-0.39453 0.22656-0.58984 0.13672-0.89844-0.42578-1.6641-0.73438-2.2969-0.93359-0.050781-0.015625-0.10156-0.007812-0.14453 0.015625-1.0312 0.64062-2.1289 1.1367-3.3086 1.4922-0.023437 0.007812-0.085937 0.019531-0.17969 0.039062-0.023438 0-0.039063 0.015625-0.046875 0.039063-0.007813 0.023437 0 0.046875 0.015625 0.0625 0.51953 0.59766 1.0156 1.25 1.4766 1.9531 0.28906 0.42969 0.51172 0.8125 0.68359 1.1445 0.29688 0.59375 0.55078 1.2227 0.76953 1.8867 0.042969 0.125 0.039063 0.25391-0.015625 0.38281-0.039062 0.10938-0.125 0.17969-0.25 0.20312-0.25781 0.054688-0.44141-0.0625-0.53906-0.34766-0.33984-0.9375-0.64844-1.6914-1.125-2.4727-0.32812-0.52734-0.53906-0.85547-0.63281-0.98047-0.35156-0.46484-0.75391-0.96875-1.1953-1.5156-0.070313-0.078125-0.15234-0.10938-0.25-0.089844-0.32031 0.058594-0.57031 0.13281-0.875 0.14062-0.15625 0.007813-0.375 0.023438-0.65234 0.042969-0.26172 0.019531-0.48047 0.03125-0.65625 0.03125-0.36328 0-0.90234-0.019531-1.6133-0.074219-0.3125-0.023437-0.52344-0.078125-0.90625-0.14453-1.0273-0.1875-2.0156-0.52734-2.9648-1.0195-0.14453-0.074219-0.30078-0.074219-0.46484 0.003906-2.457 1.1562-4.7109 2.3242-6.7695 3.5-0.43359 0.25-0.81641 0.48047-1.1445 0.68359-1.3516 0.82031-2.6562 1.7188-3.9219 2.6797-0.88281 0.67188-1.75 1.4219-2.6172 2.25-0.4375 0.42188-0.88281 0.90234-1.3516 1.4492-0.54297 0.63672-0.96094 1.2695-1.2344 1.8945-0.089844 0.20312-0.16406 0.43359-0.21484 0.68359-0.25391 1.1836 1.0742 1.4375 1.9102 1.3164 0.625-0.09375 1.1992-0.22656 1.7109-0.41016 1.1914-0.42578 2.1328-0.95703 3.4102-1.6523 1.1875-0.64844 2.3945-1.2227 3.6133-1.7227 0.375-0.15625 0.79297-0.30859 1.25-0.45703 1.1094-0.37109 2.0117-0.65234 2.6992-0.84375 1.3086-0.36719 3.1602-0.84375 5.5508-1.4453 0.43359-0.10156 0.86719-0.20312 1.3047-0.29688 0.88281-0.17969 1.5391-0.29688 1.9688-0.34375 0.25391-0.023437 0.78906-0.03125 1.6016-0.015625 0.25 0.007813 0.48438 0.027344 0.69531 0.074219 0.29688 0.0625 0.51953 0.12109 0.67578 0.17578 0.39453 0.13672 0.74609 0.30469 1.0352 0.50781 0.30859 0.21094 0.77734 0.53516 1.4023 0.97656 0.48047 0.33984 1.0156 0.60156 1.6055 0.77344 0.27344 0.082031 0.57031 0.13281 0.89062 0.14844 0.20312 0.011719 0.41406 0 0.64062-0.035156 0.20703-0.03125 0.42188-0.0625 0.63281-0.097656 0.14844-0.023438 0.36719-0.085938 0.64844-0.1875 0.12891-0.046875 0.23438-0.13672 0.33203-0.21094 0.23828-0.17969 0.51562-0.22266 0.75391-0.019531 0.074219 0.0625 0.125 0.16797 0.15234 0.3125 0.042969 0.19922 0.050781 0.3125 0.046875 0.34766-0.074219 0.26562-0.10938 0.44531-0.10547 0.53906 0.074219 1.3164 0.49219 2.5195 1.2422 3.6094 0.5625 0.80469 1.2969 1.4258 2.207 1.8516 0.27734 0.125 0.66797 0.27734 1.1758 0.44922 0.33594 0.10938 0.58984 0.4375 0.44531 0.78516-0.21484 0.51172-0.79297 0.41406-1.2031 0.27734-0.51172-0.16797-0.96484-0.36328-1.3555-0.59375-0.10547-0.0625-0.19141-0.09375-0.26562-0.10547-0.074219-0.003906-0.17188 0-0.29297 0.027344-0.83594 0.15625-1.5547 0.4375-2.1445 0.83984-0.16797 0.11328-0.48828 0.39453-0.35547 0.62891 0.23047 0.38672 0.84375 0.62109 1.2734 0.73828 0.10156 0.03125 0.32031 0.078125 0.64844 0.14062 0.21875 0.046875 0.4375 0.070313 0.65625 0.074219 0.71094 0.019531 1.3906 0.035156 2.0938-0.082031 0.19531-0.03125 0.44922-0.070313 0.77734-0.10938 0.125-0.015625 0.60938-0.125 1.4492-0.32812 0.14062-0.03125 0.22656-0.078125 0.25781-0.13281 0.49219-0.72266 0.79297-1.5039 0.91797-2.3359 0.046875-0.32422 0.050781-0.58984 0.011719-0.80469-0.046875-0.26562-0.13672-0.51953-0.26562-0.76953-0.35938-0.66797-0.82031-1.2148-1.3086-1.7148-0.74609-0.75781-1.2656-1.2695-1.8242-1.9609-0.92578-1.1484-1.7227-2.4297-2.3906-3.8438-0.16016-0.34375-0.29688-0.68359-0.41016-1.0273-0.125-0.37109-0.39062-1.3555 0-1.625 0.20312-0.13672 0.40234-0.15234 0.59766-0.046875 0.15625 0.089844 0.25 0.22266 0.28125 0.41797 0.078125 0.5 0.21094 0.95312 0.39062 1.3516 0.62109 1.375 1.3867 2.6328 2.293 3.7656 0.23438 0.29688 0.53516 0.63672 0.90234 1.0156 0.60938 0.63281 0.94141 0.97656 1.0039 1.0391 0.31641 0.32031 0.60938 0.64844 0.87891 0.97656 0.39844 0.49219 0.69922 1.0156 0.91406 1.5781 0.097656 0.27734 0.16016 0.5 0.17578 0.67188 0.019531 0.27344 0.027344 0.53125 0.019531 0.77734-0.003906 0.25-0.039062 0.50391-0.097656 0.76953-0.21484 0.94531-0.59766 1.8203-1.1445 2.6211-0.46484 0.67578-1.1172 1.1758-1.4062 1.9062-0.070313 0.17188-0.09375 0.40234-0.074219 0.69922 0.027344 0.32812 0.20312 0.5 0.49609 0.61328 0.34375 0.12891 0.67969 0.19922 1.0156 0.19922h0.74219c0.3125 0 0.5625-0.023438 0.74219-0.058594 0.36328-0.078125 0.69141-0.19922 0.98438-0.35547 1.3672-0.75 2.082-2.0938 2.7266-3.4883 0.16406-0.34766 0.30859-0.69922 0.4375-1.0469 0.37109-1.0039 0.71484-2.0352 1.0273-3.082 0.125-0.42969 0.23828-0.85547 0.33984-1.293 0.24219-1.0664 0.39062-1.7852 0.42969-2.1562 0.046875-0.375 0.074219-0.59766 0.085938-0.66797 0.046875-0.30469 0.070312-0.53125 0.082031-0.66406 0.015625-0.29688 0.015625-0.69922 0.042969-1.0391 0.039062-0.49219 0.039062-0.98438 0.003906-1.4688-0.03125-0.41016-0.03125-0.71094-0.046875-1.2383-0.011719-0.35938-0.10547-0.71484-0.12891-1.0508-0.023438-0.26172-0.058594-0.52344-0.10938-0.78125-0.10938-0.55469-0.21484-1.043-0.32031-1.4688-0.11328-0.46875 0.12109-0.89062 0.63672-0.85938 0.28125 0.019531 0.49609 0.26562 0.5625 0.51953 0.0625 0.25391 0.16016 0.67578 0.29297 1.2695 0.019531 0.09375 0.039062 0.21875 0.054687 0.37109 0.039063 0.31641 0.125 0.625 0.14062 0.93359 0.007813 0.13281 0.03125 0.38281 0.078125 0.74219 0.042969 0.28125 0.0625 0.52734 0.070313 0.74609 0.019531 1.0039 0.019531 2.0195-0.007813 3.0469-0.003906 0.23047-0.023437 0.45703-0.066406 0.6875-0.042969 0.24609-0.074219 0.48047-0.082031 0.6875-0.011719 0.23438-0.085938 0.5-0.12109 0.73828-0.046875 0.29688-0.074219 0.48438-0.089844 0.55469-0.23438 1.207-0.51953 2.3633-0.86719 3.4688-0.30859 0.97656-0.62109 1.8828-0.94922 2.7188-0.16016 0.41016-0.33203 0.80469-0.51172 1.1914-0.03125 0.074219-0.015625 0.11328 0.058594 0.13672 0.61328 0.17578 1.3477 0.35938 2.2148 0.53516 0.41016 0.089844 0.75391 0.11328 1.1328 0.20312 0.15234 0.035156 0.375 0.050781 0.53125 0.0625 0.10547 0.011719 0.24219 0.03125 0.39844 0.0625s0.33594 0.058594 0.54688 0.074219c0.22656 0.019531 0.41016 0.035156 0.54688 0.054687 0.54688 0.074219 0.90625 0.10938 1.0703 0.10547 0.48438-0.003906 0.9375 0.011719 1.3672 0.046875 0.38281 0.035156 0.79688 0.03125 1.0938 0.027344 0.11719 0 0.36719-0.011719 0.75391-0.03125 0.30859-0.023438 0.55859-0.039063 0.75391-0.046875 0.71484-0.042969 1.4531-0.19922 2.2188-0.46484 1.3359-0.45703 2.3555-1.3242 3.0586-2.5938 0.22266-0.40234 0.40625-0.78125 0.54297-1.1406 0.31641-0.82812 0.56641-1.7031 0.75-2.6133 0.17578-0.88281 0.28125-1.4609 0.3125-1.7188 0.039062-0.40234 0.078125-0.66797 0.097656-0.78906 0.050781-0.27344 0.066406-0.49219 0.078125-0.72656 0-0.10156 0.019531-0.28125 0.0625-0.54297 0.042969-0.28125 0.0625-0.53125 0.074219-0.75 0.019531-0.78516 0.019531-1.8125 0-3.0781-0.007813-0.29297-0.039063-0.68359-0.09375-1.1719-0.023438-0.18359-0.039063-0.3125-0.039063-0.39453-0.007812-0.36719-0.019531-0.64062-0.082031-0.99609-0.035156-0.19922-0.0625-0.39062-0.078125-0.57812-0.015625-0.19141-0.046875-0.38672-0.082031-0.57812-0.23438-1.2148-0.5-2.2539-0.79688-3.1211-0.35156-1.0234-0.73438-1.9219-1.1641-2.6797-0.53906-0.96875-1.2031-1.9336-1.9883-2.8828-0.9375-1.1328-1.9375-2.1094-3.0312-3.0469-2.7148-2.3047-5.8281-3.7891-9.3555-4.4531-0.34766-0.0625-0.96875-0.16016-1.8672-0.28516-0.32031-0.046875-0.5625-0.074219-0.73047-0.078125-0.23438-0.011719-0.48047-0.03125-0.73047-0.066406-0.31641-0.046875-0.67969-0.074219-1.0977-0.078125-0.51953-0.011719-1.0312-0.015625-1.5156-0.011719h-0.84766c-0.58594 0-1.1367 0.027344-1.6641 0.082031-0.41406 0.046875-0.73438 0.074219-0.95703 0.078125-0.31641 0.007813-0.64062 0.007813-0.96875 0.007813-0.36328 0-0.85938 0.12891-1.1289-0.17969-0.50781-0.5625-0.77344-1.2695-1.1016-2.0508-0.11719-0.28125-0.24219-0.51953-0.36719-0.71875-0.19922-0.30859-0.35547-0.52734-0.46875-0.66797-0.80469-0.94141-1.7422-1.7734-2.8047-2.5039-0.30469-0.20703-0.59766-0.37891-0.86719-0.51562-0.83594-0.41016-1.7188-0.73438-2.6484-0.95703-0.42188-0.10156-0.83203-0.19922-1.2422-0.28125-0.39844-0.085938-0.69531-0.10547-1.0234-0.17188-0.20312-0.046875-0.45703-0.078125-0.76953-0.10156-0.30859-0.019531-0.71484-0.10938-1.0625-0.11719-0.63672-0.023438-1.1562-0.023438-1.5586 0-0.36719 0.015625-0.72266 0.097656-1.0352 0.11719-0.21875 0.011719-0.47266 0.054688-0.77734 0.11719-0.76953 0.15625-1.4688 0.34375-2.1016 0.55078-0.33984 0.10938-0.91406 0.30859-1.7305 0.58203-0.53125 0.17969-1.0664 0.32422-1.6094 0.43359-0.39062 0.078125-0.82812 0.13672-1.3242 0.17188-0.67188 0.046875-1.3594 0.066406-2.0547 0.050781-0.48047-0.007812-0.78906-0.007812-0.92188-0.007812-0.33594 0.007812-0.63281 0.03125-0.89844 0.054687-0.09375 0.011719-0.10156 0.046875-0.035156 0.10938 0.25391 0.22656 0.42188 0.375 0.5 0.44531 0.84375 0.76562 1.8242 1.4297 2.875 1.9258 0.25 0.12109 0.44922 0.20703 0.58203 0.26953 0.27734 0.13281 0.64062 0.26172 1.0938 0.39844 0.21094 0.054687 0.43359 0.10156 0.72656 0.17969 0.22266 0.058594 0.37891 0.15234 0.46875 0.27734 0.10156 0.15234 0.125 0.3125 0.050781 0.48828-0.058594 0.14062-0.14062 0.23438-0.24609 0.27734-0.25391 0.10938-0.57031 0.050781-0.83594-0.003906-0.60938-0.14844-1.1641-0.3125-1.6562-0.51172-0.054688-0.019531-0.09375-0.011719-0.12109 0.042969-0.46875 0.82031-0.80859 1.7031-1.0156 2.6445-0.027344 0.12109-0.074219 0.36328-0.14453 0.73828-0.046875 0.26172-0.078125 0.51172-0.085938 0.74609-0.019531 0.60547-0.023437 1.1836-0.007812 1.7383 0.003906 0.41406 0.050781 0.85547 0.12891 1.3242 0.12109 0.70703 0.20703 1.1562 0.26172 1.3555 0.10938 0.40625 0.21094 0.75391 0.3125 1.0508 0.03125 0.09375 0.10156 0.14453 0.22656 0.16016 0.46484 0.058594 0.96094 0.16797 1.4805 0.32422 0.21875 0.066406 0.31641 0.21484 0.29297 0.44141-0.070313 0.5625-0.68359 0.22656-0.99609 0.16406-0.20312-0.039063-0.375-0.074219-0.51953-0.11719-0.023438-0.003906-0.042969 0-0.058594 0.023438-0.015625 0.015625-0.015625 0.035156-0.003906 0.054687l0.22656 0.54297c0.039063 0.082031 0.09375 0.11328 0.18359 0.097656 0.35547-0.070312 0.67578-0.0625 0.96484 0.027344 0.19141 0.058594 0.29688 0.18359 0.30078 0.35938 0.015625 0.46875-0.44141 0.37891-0.77734 0.35938-0.03125-0.003906-0.0625 0.003906-0.097656 0.015625-0.0625 0.027344-0.074219 0.0625-0.019531 0.11328 0.10156 0.10547 0.21875 0.25 0.34375 0.4375 0.03125 0.046875 0.082031 0.0625 0.16016 0.046875 0.17188-0.035156 0.29688-0.0625 0.37109-0.078125 0.046875-0.007812 0.13281-0.003906 0.26562 0.027344 0.17188 0.042969 0.26562 0.18359 0.25781 0.34375-0.003906 0.066406-0.023437 0.13672-0.070312 0.19141-0.070313 0.078125-0.16797 0.13672-0.29297 0.15625-0.042969 0.011719-0.050781 0.03125-0.019531 0.070313 0.007812 0.015625 0.03125 0.035156 0.0625 0.0625 0.64844 0.60938 1.375 1.0977 2.1602 1.4609 0.54297 0.25 1.0977 0.46094 1.6758 0.62109 0.23047 0.066406 0.54688 0.12109 0.77344 0.16797 0.23438 0.050781 0.42969 0.082031 0.58594 0.085937 0.29688 0.015625 0.58984 0.078125 0.93359 0.10156 0.62891 0.035156 1.2656 0.003906 1.9062-0.089844 0.027344 0 0.042969-0.015625 0.046875-0.042969 0.011719-0.019531 0-0.039062-0.015625-0.0625-0.3125-0.28125-0.65234-0.54688-1.0195-0.79688-0.19531-0.12891-0.30469-0.26953-0.21484-0.49219 0.089844-0.24609 0.26953-0.3125 0.54297-0.20312 0.10938 0.046875 0.36328 0.22266 0.76562 0.52344 0.15625 0.12109 0.42578 0.38281 0.81641 0.78125 0.11328 0.12109 0.19922 0.11719 0.36328 0.070313 0.91406-0.23438 1.8047-0.57031 2.6836-0.98438 0.046875-0.027344 0.046875-0.042969-0.003906-0.058594-0.78906-0.25-1.5156-0.46875-2.1992-0.65625-0.26172-0.074219-0.60938-0.15234-1.0508-0.23828-0.13281-0.027344-0.48438-0.10156-1.0586-0.21875-0.27734-0.054688-0.41797-0.29688-0.29297-0.55469 0.078125-0.16016 0.23438-0.22266 0.46484-0.1875 0.96875 0.16406 1.8867 0.35547 2.7539 0.59375 0.1875 0.046875 0.94531 0.27734 2.2812 0.67969 0.13281 0.039062 0.19531 0.007812 0.30469-0.0625 0.67188-0.46875 1.2656-0.94922 1.7891-1.4453 0.007813-0.003906 0.023438-0.023437 0.03125-0.050781zm41.578 9.7812c0.03125 0.33984 0.058594 0.58203 0.070313 0.72266 0.023437 0.30859 0.023437 0.60547 0.003906 0.90234-0.035156 0.44922-0.074219 0.74609-0.097656 0.90234-0.09375 0.50391-0.23047 0.99219-0.40625 1.4609-0.25 0.67188-0.62109 1.3086-1.1172 1.8984-0.87891 1.0469-1.9844 1.7266-3.3164 2.0508-0.089844 0.019531-0.32812 0.066406-0.71875 0.14062-0.28516 0.050781-0.55859 0.046875-0.84766 0.042969-0.0625 0-0.10547 0.03125-0.11719 0.09375-0.12891 0.67969-0.30078 1.3594-0.51953 2.0234-0.019531 0.0625 0 0.09375 0.0625 0.10156 0.31641 0.035156 0.64062 0.046875 0.96875 0.046875 0.30859-0.007813 0.56641-0.054688 0.84375-0.0625 0.19922-0.007813 0.41016-0.027344 0.62891-0.0625 2-0.33594 3.6836-1.2461 5.043-2.7305 0.32812-0.35938 0.64062-0.75391 0.9375-1.1914 0.45312-0.66406 0.875-1.5078 1.2617-2.5273 0.23438-0.61328 0.375-1.2188 0.41406-1.8242 0.015625-0.19141 0.015625-0.59766 0-1.2188-0.003906-0.23828-0.035156-0.48828-0.085937-0.75391-0.085938-0.43359-0.13672-0.67578-0.15234-0.73828-0.12891-0.53125-0.33203-1.1016-0.60938-1.7109-0.41797-0.91406-0.875-1.8164-1.3711-2.6914-0.47656-0.84375-0.89844-1.7695-1.1328-2.7383-0.085938-0.33594-0.125-0.69922-0.13281-1.0938-0.003906-0.52734 0.007813-0.89844 0.042969-1.1172 0.10547-0.69531 0.39453-1.3672 0.85938-2 0.13672-0.17969 0.34375-0.40625 0.625-0.67188 0.3125-0.29688 0.54297-0.49219 0.69922-0.60938 1.207-0.875 1.8203-1.3203 1.8438-1.3359 0.34766-0.26172 0.67969-0.54297 1-0.85156 0.097656-0.097656 0.4375-0.50391 0.31641-0.66016-0.046875-0.050781-0.089844-0.089844-0.125-0.097656-0.21484-0.078125-0.44922-0.125-0.70703-0.15625-0.13281-0.011719-0.32422 0-0.57422 0.03125-0.25391 0.035156-0.44922 0.070312-0.56641 0.10938-0.71484 0.20703-1.418 0.53516-2.1094 0.97656-1.9453 1.25-3.1328 2.9961-3.5703 5.2344-0.035156 0.18359-0.054687 0.35547-0.066406 0.51172-0.003906 0.125-0.019531 0.29688-0.050781 0.51953-0.046875 0.38281 0.035156 0.80859 0.0625 1.1484 0.007812 0.16016 0.039062 0.33594 0.085937 0.54688 0.18359 0.72656 0.39844 1.3359 0.64062 1.8203 0.48438 0.96094 0.79297 1.5742 0.91406 1.8516 0.35938 0.81641 0.67578 1.8125 0.95703 2.9883 0.050781 0.23047 0.089844 0.46484 0.11328 0.71875z"/>
 <path d="m42.496 37.859c-0.007813 0.027344 0.003906 0.046875 0.035156 0.050781 0.074219 0.015625 0.16016 0.023438 0.26953 0.011719 1.0273-0.089844 2-0.30859 2.918-0.66797 0.36328-0.14062 0.66016-0.28516 0.89062-0.42578 0.27734-0.17188 0.48828-0.33984 0.70703-0.34766 0.20312-0.011719 0.36719 0.035156 0.46875 0.14453 0.27734 0.27734 0.24219 0.66797-0.039062 0.93359-0.070313 0.0625-0.13672 0.11719-0.21094 0.16406-0.94141 0.625-2.0703 0.99609-3.1875 1.2031-0.40625 0.074219-0.61719 0.11719-0.64062 0.12109-0.21875 0.042969-0.42969 0.0625-0.64844 0.066406-0.60938 0.023438-1.6211 0.023438-1.7461-0.78906-0.03125-0.19531-0.011719-0.47656 0.035156-0.69531 0.19531-0.96875 0.32812-1.7109 0.40625-2.2422 0.042969-0.30469 0.074219-0.5 0.089844-0.58594 0.03125-0.14453 0.050781-0.26953 0.0625-0.375 0.035156-0.375 0.09375-0.76953 0.54688-0.79688 0.33203-0.015625 0.52734 0.14062 0.57812 0.47656 0.019531 0.16406 0.019531 0.33203-0.003906 0.49219-0.058594 0.35547-0.09375 0.58984-0.10156 0.70312-0.007812 0.11719-0.039062 0.29688-0.082031 0.55469-0.035156 0.20703-0.066406 0.39062-0.082031 0.55078-0.058594 0.42578-0.14062 0.91016-0.26562 1.4531z"/>
 <path d="m31.844 40.668c-0.26953 0.0625-0.53516-0.011719-0.79297-0.23047-0.25391-0.21484-0.42188-0.50391-0.50781-0.875-0.085938-0.37109-0.0625-0.70312 0.070312-1.0117 0.13281-0.30469 0.33594-0.48828 0.60938-0.55078 0.27344-0.066406 0.53906 0.011719 0.79297 0.22266 0.25391 0.21875 0.42188 0.51172 0.51172 0.875 0.082031 0.37109 0.0625 0.71094-0.074219 1.0156-0.12891 0.30469-0.33203 0.49219-0.60938 0.55469z"/>
 <path d="m38.535 41.797c-0.15625 0.035156-0.3125 0.035156-0.47266 0-0.15625-0.035156-0.30859-0.10938-0.45312-0.21875-0.14062-0.10547-0.26172-0.23828-0.36328-0.39453-0.10156-0.16406-0.17188-0.33594-0.21875-0.52344s-0.0625-0.375-0.042969-0.5625c0.015625-0.19141 0.0625-0.36328 0.14062-0.52344 0.074219-0.15625 0.17578-0.29297 0.30078-0.39844 0.125-0.10938 0.26562-0.17969 0.41797-0.21875 0.15625-0.035156 0.3125-0.035156 0.47266 0 0.16406 0.039063 0.3125 0.10938 0.45312 0.21484 0.14062 0.10938 0.26562 0.23828 0.36719 0.40234 0.10156 0.15625 0.17578 0.33203 0.21875 0.51953 0.046875 0.1875 0.0625 0.375 0.046875 0.5625s-0.0625 0.36328-0.14062 0.51953c-0.078125 0.16406-0.17969 0.29297-0.30469 0.40234-0.125 0.10547-0.26562 0.17578-0.42188 0.21875z"/>
 <path d="m33.785 44.707c-0.015625-0.007812-0.0625-0.039062-0.14062-0.082031-0.33594-0.18359-0.50391-0.51953-0.46094-0.89453 0.015625-0.16797 0.082031-0.29688 0.19531-0.39844 0.32422-0.26953 0.65234-0.23828 1.0898-0.21875 0.0625 0 0.26562 0.046875 0.60938 0.13281 0.25 0.0625 0.42188 0.14062 0.51953 0.23828 0.23047 0.23438 0.28125 0.51172 0.15625 0.83203-0.085937 0.22656-0.28125 0.35547-0.49219 0.47656-0.0625 0.03125-0.070313 0.078125-0.011719 0.125 0.13672 0.11719 0.29688 0.20703 0.48438 0.25781 0.066406 0.015625 0.15625 0.027344 0.26172 0.03125 0.23828 0.015625 0.42578 0.027344 0.53516 0.26172 0.12109 0.26562-0.14453 0.51172-0.39453 0.52734-0.47656 0.019531-0.91797-0.125-1.3359-0.4375-0.11719-0.09375-0.21094-0.1875-0.26953-0.28125-0.035156-0.054688-0.074219-0.058594-0.125-0.015625-0.25 0.22266-0.53516 0.375-0.86328 0.45703-0.26562 0.074219-0.64844 0.09375-0.76172-0.1875-0.066406-0.17188 0.011719-0.33984 0.17188-0.42578 0.089844-0.054688 0.23047-0.10156 0.42188-0.14062 0.097656-0.023438 0.23438-0.09375 0.40625-0.21094 0.019531-0.007812 0.019531-0.023437 0.003906-0.046875z"/>
 <path d="m15.965 68.703c0 0.6875-0.13672 1.3555-0.40234 1.9961-0.26172 0.64062-0.64062 1.2031-1.1289 1.6914-0.49219 0.48828-1.0547 0.86328-1.6953 1.1289-0.63281 0.26562-1.3008 0.39844-1.9922 0.39844-0.69531 0-1.3594-0.13281-2-0.39844-0.63672-0.26562-1.2031-0.64062-1.6953-1.1289-0.48828-0.48828-0.86328-1.0508-1.1289-1.6914s-0.39453-1.3086-0.39453-1.9961c0-0.69141 0.12891-1.3594 0.39453-2s0.64062-1.2031 1.1289-1.6914c0.49219-0.49219 1.0586-0.86719 1.6953-1.1328 0.64062-0.26562 1.3047-0.39453 2-0.39453 0.69141 0 1.3594 0.12891 1.9922 0.39453 0.64062 0.26562 1.2031 0.64062 1.6953 1.1328 0.48828 0.48828 0.86719 1.0508 1.1289 1.6914 0.26562 0.64062 0.40234 1.3086 0.40234 2zm-2.7656-3.082c0.007812-0.011719 0.007812-0.023438 0-0.03125-0.44531-0.36719-0.94531-0.60547-1.5-0.73047-0.60156-0.13672-1.2734-0.18359-1.8711-0.019531-0.24609 0.0625-0.48828 0.14062-0.73828 0.23828-0.058594 0.019531-0.074219 0.0625-0.058594 0.12109 0.16016 0.48828 0.28125 1.0039 0.35547 1.5391 0.066406 0.46094 0.078125 0.90234 0.035156 1.3281-0.12891 1.2734-0.53125 2.4648-1.1914 3.5742-0.039063 0.0625-0.027344 0.12109 0.03125 0.16016 0.47656 0.375 1.0039 0.63281 1.5781 0.76562 0.44531 0.10547 0.86719 0.13672 1.2656 0.09375 0.41406-0.039062 0.83203-0.14844 1.25-0.32812 0.035156-0.015625 0.046875-0.039062 0.023437-0.078125-0.26953-0.45312-0.45312-0.95312-0.53906-1.5039-0.042969-0.23438-0.078125-0.49609-0.11719-0.76953-0.0625-0.51172 0.015625-0.86719 0.089844-1.5156 0.03125-0.27344 0.074219-0.50781 0.12891-0.70312 0.21094-0.71875 0.47656-1.3555 0.97656-1.9141 0.078125-0.085937 0.17188-0.14844 0.28125-0.22656zm-5.2461 0.23438c-0.51172 0.5625-0.85547 1.1328-1.0195 1.7188-0.125 0.4375-0.17969 0.875-0.15625 1.3164 0.023437 0.63672 0.20312 1.2344 0.52344 1.7969 0.011719 0.019531 0.027344 0.027344 0.042969 0.011719 0.027344-0.027344 0.058594-0.074219 0.089844-0.13281 0.26953-0.53516 0.48828-1.1016 0.65625-1.7031 0.0625-0.23438 0.10938-0.47266 0.13281-0.71875 0.042969-0.35156 0.058594-0.59375 0.058594-0.72656-0.027344-0.53906-0.097656-1.0586-0.23438-1.5625-0.003906-0.03125-0.027344-0.042969-0.058594-0.039063-0.003906 0.007813-0.015625 0.015625-0.035156 0.039063zm5.4648 5.7266c0.023437 0.03125 0.050781 0.039063 0.078125 0.007813 0.19141-0.21875 0.34375-0.39844 0.45312-0.53906 0.34766-0.46094 0.55469-0.97656 0.6875-1.5312 0.035156-0.14844 0.0625-0.36328 0.066406-0.64453 0.003906-0.32422 0.003906-0.54297-0.011719-0.64453-0.078125-0.60938-0.28125-1.1719-0.60938-1.6836-0.046875-0.074219-0.10156-0.082031-0.17578-0.03125-0.15625 0.11328-0.29297 0.26953-0.40234 0.45703-0.17188 0.29688-0.30469 0.63672-0.41016 1.0117-0.097656 0.36328-0.15234 0.72266-0.15234 1.0664 0 0.58594-0.046875 1.1016 0.10938 1.6211 0.12109 0.40625 0.17188 0.65234 0.36719 0.91016z"/>
<text x="0.0" y="117.5" font-size="5.0" font-weight="bold" font-family="Arbeit Regular, Helvetica, Arial-Unicode, Arial, Sans-serif" fill="#000000">Created by Titik Kornia Sari</text><text x="0.0" y="122.5" font-size="5.0" font-weight="bold" font-family="Arbeit Regular, Helvetica, Arial-Unicode, Arial, Sans-serif" fill="#000000">from Noun Project</text></svg>