<svg version="1.2" xmlns="http://www.w3.org/2000/svg" viewBox="0 0 64 64" width="64" height="64">
	<title>icons8-cat-64 (2)</title>
	<style>
		.s0 { opacity: .82;fill: currentColor }
	</style>
	<path id="Path 0" fill-rule="evenodd" class="s0" d="m32.3 26c0.7-0.1 2.1 0.9 3.2 2 1.3 1.3 3.2 2 5.5 2 2.2 0 4.3-0.8 5.7-2.3 1.3-1.2 2.8-1.9 3.5-1.6 0.7 0.3 3.7 6.7 6.6 14.2 2.8 7.6 5.2 14.6 5.2 15.7 0 1.1-1 3.1-2.2 4.5-1.5 1.7-3.8 2.7-6.8 3.2-3.9 0.5-4.7 0.3-5.7-1.5-0.7-1.2-1.9-2.2-2.5-2.2-0.7 0.1-1.9 0.8-2.5 1.8-1.2 1.6-1.4 1.6-2.5 0-0.7-1-1.9-1.7-2.5-1.8-0.7 0-1.8 1-2.4 2.3-0.8 1.7-1.3 1.9-2.2 1-0.9-1-0.9-1.9 0.1-3.8 1.1-2.3 1.7-2.5 8-2.3 4 0.1 7.2 0.7 8 1.5 0.6 0.7 2.4 1.3 4 1.3 1.5 0.1 3.6-0.9 6.7-4.1l-10-25.9-2.5 1.7c-1.4 0.9-4.1 1.6-6 1.6-1.9 0-4.6-0.7-8.5-3.3l-4.8 12.8c-3.3 8.7-4.6 13.3-4 14.5 0.4 1 2 2.2 3.6 2.7 1.5 0.6 2.6 1.6 2.4 2.2-0.3 0.9-3.6 1.4-11.3 1.6-7.3 0.1-11.7-0.2-13.4-1.1-1.4-0.7-2.6-2.3-2.8-3.7-0.2-1.5 0.4-3.3 1.5-4.4 1.5-1.5 2.7-1.7 6.8-1.2 2.8 0.4 5.4 1 5.9 1.4 0.4 0.4 0.5 1.3 0.2 1.9-0.5 1-1.7 1.1-5.3 0.2-2.7-0.6-5.2-0.7-5.7-0.2-0.4 0.4-0.5 1.4-0.2 2 0.4 0.9 3.1 1.3 15.6 1.3l-0.6-2.8c-0.4-1.9 0.9-6.7 4.6-16.2 2.8-7.4 5.4-13.8 5.6-14.3 0.3-0.4 1-0.7 1.7-0.7zm3.7 15c0.6 0 1 0.5 1 1 0 0.5-0.4 1-1 1-0.5 0-1-0.5-1-1 0-0.5 0.5-1 1-1zm10 0c0.6 0 1 0.5 1 1 0 0.5-0.4 1-1 1-0.5 0-1-0.5-1-1 0-0.5 0.5-1 1-1z"/>
</svg>