<svg xmlns="http://www.w3.org/2000/svg" viewBox="0 0 32 40" x="0px" y="0px"><title>mal baru23</title><g data-name="Layer 7"><path d="M31,21.67a6.5,6.5,0,0,0-2.49-2.19,41,41,0,0,0-1.93-6.4c-1.21-3.3-2.71-7.14-5-9.83-1.81-2.11-5-1.86-7.56-1.41a.55.55,0,0,0-.76-.53,16,16,0,0,0-6.5,4.78c-1.94,2.57-2.19,5.64-2.5,8.75C4,16.51,3.78,18.25,3.61,20a6.41,6.41,0,0,0-2.48,2.08,5.24,5.24,0,0,0-.48,3.6c.37,2.5,2.51,3.5,4.83,3.52a4.73,4.73,0,0,0,1.58.65c3.34.72,7.08.59,10.49.78a12.81,12.81,0,0,0,8.36-2.31.46.46,0,0,0,.46.34c2.37,0,4.61-1,5-3.53A5.46,5.46,0,0,0,31,21.67ZM1.6,25.1a4.31,4.31,0,0,1,1.91-4,21.34,21.34,0,0,0,.1,4.95,5.09,5.09,0,0,0,.74,2A3.07,3.07,0,0,1,1.6,25.1ZM7,28.83c-3.75-1.14-2.47-7.26-2.18-10.22.33-3.37.23-7.38,1.77-10.45a11.55,11.55,0,0,1,4.32-4.49A12.4,12.4,0,0,0,9.43,8.28a.53.53,0,0,0,0,.21c-1.18,1.06-1.28,4.22.78,4.2,1,0,1.42-1,1.45-1.83a2,2,0,0,0-.3-1.32,4.11,4.11,0,0,0-1-.83.47.47,0,0,0,.07-.17c.36-2.14.79-4.31,2.6-5.72a.44.44,0,0,0,.07-.09.49.49,0,0,0,.5.19,20.38,20.38,0,0,1,2.66-.37,7.32,7.32,0,0,1,2,5.43c-1,1.21-1,4,1,4,1,0,1.42-1,1.45-1.83a2,2,0,0,0-.3-1.32A4.12,4.12,0,0,0,19.32,8a.58.58,0,0,0-.07-.21,7.8,7.8,0,0,0-1.77-5.24,4.73,4.73,0,0,1,3,1.16A14.6,14.6,0,0,1,23,7.52a45.43,45.43,0,0,1,3.7,9.13c.89,3.17,2.16,7.38-.41,10a8.83,8.83,0,0,1-2.71,1.88c-.59-2.14-.21-4.29-.38-6.49-.08-1.12-.36-3.36-1.58-4-1.41-.69-3.36,1-4.81,1.14-2.43.16-4.82-.57-7.26-.63-.09-.47-.85-.61-1-.06l0,.11a.53.53,0,0,0-.15.82A39.2,39.2,0,0,0,7.68,29C7.45,28.94,7.22,28.9,7,28.83ZM9.84,9.58c.3.18.69.4.81.68s0,1.29-.38,1.37C9.44,11.79,9.48,10.33,9.84,9.58Zm9-.71c.3.18.69.4.81.68s0,1.29-.38,1.37C18.44,11.08,18.48,9.62,18.84,8.88ZM16.58,29.57c-2.44-.16-5.34,0-7.9-.38a38.3,38.3,0,0,1,.7-9.58c1.95,0,3.83.47,5.78.6,1.63.11,2.7-.37,4.22-.52q1.31-1,2.51.72l.17.7a12.41,12.41,0,0,1,.11,3.59,13.76,13.76,0,0,0,.44,4.23A15.68,15.68,0,0,1,16.58,29.57Zm10.18-1.93c1.88-1.75,2.23-4.29,1.91-6.93a4.38,4.38,0,0,1,1.72,3.83C30.25,26.72,28.67,27.56,26.77,27.64Z"/></g><text x="0" y="47" fill="#000000" font-size="5px" font-weight="bold" font-family="'Helvetica Neue', Helvetica, Arial-Unicode, Arial, Sans-serif">Created by icon trip</text><text x="0" y="52" fill="#000000" font-size="5px" font-weight="bold" font-family="'Helvetica Neue', Helvetica, Arial-Unicode, Arial, Sans-serif">from the Noun Project</text></svg>