<svg xmlns="http://www.w3.org/2000/svg" viewBox="0 0 64 80" x="0px" y="0px"><path d="M52.922,10.079c-.399-2.57-2.43-4.601-5-5C47.476,2.207,44.994,0,42,0H12C8.691,0,6,2.692,6,6V48c0,2.994,2.207,5.476,5.078,5.922,.399,2.57,2.43,4.601,5,5,.446,2.871,2.927,5.078,5.922,5.078h30c3.309,0,6-2.691,6-6V16c0-2.994-2.207-5.476-5.078-5.922Zm-6.922,32.922H8V9h15.235l-10.731,6.132c-.312,.178-.504,.509-.504,.868v16c0,.359,.192,.69,.504,.868l14,8c.405,.247,.838,.088,.992,0l14-8c.312-.178,.504-.509,.504-.868V16c0-.359-.192-.69-.504-.868l-10.731-6.132h15.235V43ZM27,9.152l13,7.428v14.84l-13,7.428-13-7.428v-14.84l13-7.428ZM12,2h30c2.206,0,4,1.794,4,4v1H8v-1c0-2.206,1.794-4,4-4Zm-4,46v-3H46v3c0,2.206-1.794,4-4,4H12c-2.206,0-4-1.794-4-4Zm5.142,6h28.858c3.309,0,6-2.691,6-6V7.142c1.72,.447,3,2,3,3.858V53c0,2.206-1.794,4-4,4H17c-1.858,0-3.411-1.28-3.858-3Zm42.858,4c0,2.206-1.794,4-4,4H22c-1.858,0-3.411-1.28-3.858-3h28.858c3.309,0,6-2.691,6-6V12.142c1.72,.447,3,2,3,3.858V58Z"/><path d="M19,26c.552,0,1-.448,1-1v-4.969l3.889-2.461c.578,1.139,1.748,1.93,3.111,1.93,1.93,0,3.5-1.57,3.5-3.5s-1.57-3.5-3.5-3.5c-1.728,0-3.159,1.262-3.44,2.912l-5.094,3.223c-.29,.184-.465,.502-.465,.845v5.52c0,.552,.448,1,1,1Zm8-11.5c.827,0,1.5,.673,1.5,1.5s-.673,1.5-1.5,1.5-1.5-.673-1.5-1.5,.673-1.5,1.5-1.5Z"/><path d="M27,28.5c-1.93,0-3.5,1.57-3.5,3.5s1.57,3.5,3.5,3.5c1.728,0,3.159-1.262,3.44-2.912l5.094-3.223c.29-.184,.465-.502,.465-.845v-5.52c0-.552-.448-1-1-1s-1,.448-1,1v4.969l-3.889,2.461c-.578-1.139-1.748-1.93-3.111-1.93Zm0,5c-.827,0-1.5-.673-1.5-1.5s.673-1.5,1.5-1.5,1.5,.673,1.5,1.5-.673,1.5-1.5,1.5Z"/><circle cx="41.5" cy="48.5" r="1.5"/><circle cx="36.5" cy="48.5" r="1.5"/><circle cx="12.5" cy="48.5" r="1.5"/><text x="0" y="79" fill="#000000" font-size="5px" font-weight="bold" font-family="'Helvetica Neue', Helvetica, Arial-Unicode, Arial, Sans-serif">Created by Supanut Piyakanont</text><text x="0" y="84" fill="#000000" font-size="5px" font-weight="bold" font-family="'Helvetica Neue', Helvetica, Arial-Unicode, Arial, Sans-serif">from the Noun Project</text></svg>