<svg xmlns="http://www.w3.org/2000/svg" version="1.1" viewBox="-5.0 -10.0 80 105">
 <path d="m75.98 62.77c5.3398 1.7617 9.5117 3.9805 12.035 6.2773 2.0273 1.8398 3.0391 3.793 3.0391 5.6211 0 1.1602-0.49609 2.2461-1.4961 3.207-1.1367 1.0977-3.0234 2.0664-5.4492 2.8555-8.5469 2.7812-24.227 3.6406-33.789 3.6758-9.6758 0.03125-25.32-0.85547-33.836-3.6602-2.418-0.79688-4.293-1.7695-5.4258-2.8711-0.99219-0.96484-1.4844-2.0469-1.4844-3.207 0-1.418 0.59375-2.8945 1.7969-4.3398 1.5312-1.832 4.1094-3.6641 7.5312-5.2852 0.73047-0.34766 1.6016-0.035157 1.9453 0.69141s0.035156 1.5977-0.69531 1.9414c-2.957 1.4023-5.2188 2.9375-6.543 4.5234-0.69531 0.83203-1.1172 1.6523-1.1172 2.4688 0 0.57422 0.42578 1.0273 1.0273 1.4805 0.92188 0.69922 2.2578 1.2969 3.8789 1.8281 8.2812 2.7266 23.5 3.5469 32.91 3.5117 9.3086-0.035156 24.578-0.82422 32.898-3.5312 1.6289-0.53125 2.9727-1.1211 3.9023-1.8203 0.59766-0.44922 1.0273-0.89844 1.0273-1.4688 0-1.1562-0.80078-2.2969-2.082-3.4648-1.9141-1.7383-4.8867-3.3945-8.6328-4.8281 0.0625 0.16406 0.09375 0.33984 0.09375 0.51562 0 0.71875-0.25781 1.4375-0.82812 2.1172-0.58594 0.69531-1.5703 1.3906-2.9297 2.0078-4.4336 2-13.363 3.4141-23.652 3.4141-10.293 0-19.219-1.4141-23.656-3.4141-1.3594-0.61719-2.3398-1.3125-2.9258-2.0078-0.57031-0.67969-0.82813-1.3984-0.82813-2.1172 0-0.09375 0.007813-0.1875 0.027344-0.27734l5.2969-27.035c0.53516-2.7305 1.5742-5.332 3.0703-7.6758l0.003906-0.007813c2.2656-3.5078 4.7656-6.4805 7.5039-8.8945 0.60156-0.53516 1.5273-0.47656 2.0586 0.125 0.53125 0.60547 0.47656 1.5273-0.12891 2.0586-2.5508 2.2539-4.8711 5.0234-6.9805 8.2891-1.2969 2.0352-2.2031 4.2969-2.6641 6.6641 0 0-1.375 7.0195-2.7227 13.875 4.1992 2.0469 10.465 2.7617 14.344 2.8867v-3.2891c0-0.55469 0.3125-1.0586 0.80859-1.3047 3.5234-1.7617 7.3359-1.793 11.441-0.039063 0.53906 0.23047 0.88672 0.75781 0.88672 1.3438v3.418c3.6719-0.10547 9.6523-0.76562 13.836-2.668l-2.8516-7.125c-0.078125-0.10938-0.14844-0.22656-0.19922-0.35938l-1.1289-2.9609-0.089844-0.22656c-0.015625-0.042969-0.03125-0.082031-0.042969-0.125l-2.2617-5.9336c-0.28516-0.75391 0.089844-1.5977 0.84375-1.8828 0.75-0.28516 1.5938 0.089844 1.8828 0.84375l2.1562 5.6602 8.168 6.3555c0.03125 0.023437 0.074219 0.027343 0.10547 0.003906 0.035156-0.019531 0.050781-0.058594 0.042968-0.097656-0.59766-2.7812-1.3711-6.3945-1.9727-8.9883-0.003906-0.007813-0.003906-0.015626-0.007812-0.023438-0.57812-2.7031-1.6758-5.2734-3.2305-7.5586v-0.003906c-3.5117-5.2031-7.8086-9.1992-12.492-12.59l-0.003907-0.003906c-1.0547-0.76562-2.3633-1.0898-3.6484-0.89844-3.4336 0.52734-6.6016 1.6445-9.5195 3.3359-0.69531 0.40234-1.5898 0.16406-1.9922-0.53125s-0.16406-1.5898 0.53125-1.9922c3.2305-1.8711 6.7383-3.1133 10.543-3.6953l0.007812-0.003906c2.043-0.30078 4.125 0.21094 5.7891 1.4258 4.957 3.5859 9.4922 7.8164 13.203 13.32 1.7578 2.5938 3.0039 5.5039 3.6641 8.5703 0.60547 2.6094 1.3828 6.2344 1.9805 9.0234 0.26562 1.2383-0.26953 2.5078-1.3438 3.1797-1.0703 0.67578-2.4492 0.60547-3.4492-0.17188l-4.2461-3.3047zm-48.395-5.8164c-1.0586 5.4023-1.9648 10.016-1.9609 10.016 0.039062 0.11719 0.16016 0.20703 0.28516 0.32422 0.39844 0.37891 0.99219 0.72656 1.7383 1.0625 4.2109 1.9023 12.691 3.1562 22.457 3.1562 9.7617 0 18.246-1.2539 22.453-3.1562 0.74609-0.33594 1.3398-0.68359 1.7383-1.0625 0.097656-0.089844 0.19141-0.16406 0.25-0.25l-3.9883-9.9805c-4.582 2.0195-10.992 2.7695-14.918 2.8789v3.8867c0 0.51953-0.28125 1.0039-0.73438 1.2617-3.8594 2.2188-7.7344 2.0391-11.613 0.03125-0.48438-0.25-0.78906-0.75-0.78906-1.293v-4.0156c-3.9805-0.125-10.344-0.87891-14.918-2.8594zm25.137-2.3516c-2.582-0.91797-5.0156-0.94922-7.3008-0.046874v8.3516c2.4375 1.0625 4.8711 1.1758 7.3008 0.039062z" fill-rule="evenodd"/></svg>