<svg xmlns="http://www.w3.org/2000/svg" data-name="Layer 1" viewBox="0 0 64 80" x="0px" y="0px"><path d="M52.28,16c-1.75-3.44-6.62-5.45-14.48-6h-.08a1,1,0,0,0-.82,1.54,17.23,17.23,0,0,1,1.62,4.07c.71,2.26,1.51,4.83,3.2,6.72a6.82,6.82,0,0,0,5.21,2.52,7.78,7.78,0,0,0,3.75-1c.62.85,1.61,2.18,2.8,3.76l1.59-1.2c-1.3-1.73-2.35-3.15-2.94-4A7.3,7.3,0,0,0,52.28,16Zm-1.79.89a4.9,4.9,0,0,1,.23,3.65,35.63,35.63,0,0,0-9.14-8.1C47.43,13.39,49.68,15.31,50.49,16.89ZM43.21,21c-1.4-1.57-2.1-3.81-2.78-6-.13-.4-.25-.79-.38-1.18a33.67,33.67,0,0,1,9.43,8.37A4.89,4.89,0,0,1,43.21,21Z"/><path d="M45.5,2A16.52,16.52,0,0,0,29,18.5a16.26,16.26,0,0,0,1,5.64V27H26a1,1,0,0,0-1,1v4a1,1,0,0,0,1,1h4v4a1,1,0,0,0,1,1h4a1,1,0,0,0,1-1V33h1.65A16.5,16.5,0,1,0,45.5,2ZM35,31a1,1,0,0,0-1,1v4H32V32a1,1,0,0,0-1-1H27V29h4a1,1,0,0,0,1-1V24h2v4a1,1,0,0,0,1,1h4v2Zm10.5,2A14.31,14.31,0,0,1,41,32.26,1.09,1.09,0,0,0,41,32V28a1,1,0,0,0-1-1H36V23a1,1,0,0,0-1-1H31.44A14,14,0,0,1,31,18.5,14.5,14.5,0,1,1,45.5,33Z"/><path d="M5.16,61.93a.94.94,0,0,0,.37.07.92.92,0,0,0,.53-.16L8.93,60a7,7,0,0,1,4.43-1L25,59.84a28.51,28.51,0,0,0,10.52-1.28,25.18,25.18,0,0,0,4.6-2l13.51-6.91a1,1,0,0,0,.3-1.55L53.07,47A5.7,5.7,0,0,0,46.17,46a34.06,34.06,0,0,1-16.94,4.37H26.45l7-2.05a3.68,3.68,0,0,0,2.27-1.92,3.05,3.05,0,0,0,0-2.46A3.37,3.37,0,0,0,32.22,42L21.69,43.2A50.84,50.84,0,0,0,7.82,46.72L2.4,49a1,1,0,0,0-.59,1.17L4.56,61.24A1,1,0,0,0,5.16,61.93ZM8.58,48.57a49.25,49.25,0,0,1,13.33-3.38L32.44,44a1.39,1.39,0,0,1,1.44.65,1.06,1.06,0,0,1,0,.87,1.75,1.75,0,0,1-1,.85l-13.64,4a1,1,0,0,0-.71,1.1,1,1,0,0,0,1,.86h0l9.77,0a36.1,36.1,0,0,0,17.93-4.64,3.68,3.68,0,0,1,4.39.66l.07.08L39.21,54.79A23,23,0,0,1,35,56.66a26.69,26.69,0,0,1-9.78,1.19l-11.64-.76a8.8,8.8,0,0,0-5.67,1.25L6.17,59.41,4,50.47Z"/><polygon points="14 8 18 8 18 6 14 6 14 2 12 2 12 6 8 6 8 8 12 8 12 12 14 12 14 8"/><polygon points="56 39 56 41 54 41 54 43 56 43 56 45 58 45 58 43 60 43 60 41 58 41 58 39 56 39"/><polygon points="10 38 10 35 13 35 13 33 10 33 10 30 8 30 8 33 5 33 5 35 8 35 8 38 10 38"/></svg>