<svg xmlns="http://www.w3.org/2000/svg" xmlns:xlink="http://www.w3.org/1999/xlink" version="1.1" x="0px" y="0px" viewBox="10 10 60 85" style="enable-background:new 0 0 100 100;" xml:space="preserve"><path d="M88,78.4h-8.6l7.3-7.3c0.8-0.8,0.8-2,0-2.8L82.4,64c-2.3-2.3-6.1-2.3-8.5,0L66,72v-7.6c0-1.1-0.9-2-2-2h-6c-3.3,0-6,2.7-6,6  v9.8l-5-0.4c2.2-2.4,2.1-6-0.2-8.3l-4.2-4.2c-0.8-0.8-2-0.8-2.8,0l-11,11l-16.3-1.4c-1.7-0.2-3.3,0.4-4.6,1.6  C6.7,77.4,6,79.1,6,80.7v5.6c0,3.3,2.7,6,6,6h38.4H54h10h0.6H92c1.1,0,2-0.9,2-2v-6C94,81.1,91.3,78.4,88,78.4z M76.8,66.9  c0.8-0.8,2-0.8,2.8,0l2.8,2.8L73.2,79c0,0,0,0,0,0L66,86.1v-5.7v-2.7L76.8,66.9z M41.2,69.5l2.8,2.8c0.8,0.8,0.8,2,0,2.8l-2.2,2.2  L34,76.6L41.2,69.5z M50.4,88.4H12c-1.1,0-2-0.9-2-2v-5.6c0-0.6,0.2-1.1,0.6-1.5s1-0.6,1.5-0.5l41.7,3.6c0,0,0.1,0,0.1,0  c0,0,0.1,0,0.1,0c0,0,0.1,0,0.1,0c0.1,0,0.2,0,0.3,0c0,0,0,0,0.1,0c0.1,0,0.2-0.1,0.3-0.1c0,0,0,0,0,0c0.1,0,0.2-0.1,0.3-0.2  c0,0,0,0,0,0c0.1-0.1,0.2-0.1,0.2-0.2c0,0,0,0,0.1-0.1c0.1-0.1,0.1-0.1,0.2-0.2c0,0,0-0.1,0.1-0.1c0-0.1,0.1-0.1,0.1-0.2  c0-0.1,0-0.1,0.1-0.2c0-0.1,0-0.1,0.1-0.2c0-0.1,0-0.1,0-0.2c0,0,0-0.1,0-0.1c0,0,0-0.1,0-0.1c0,0,0-0.1,0-0.1v-12c0-1.1,0.9-2,2-2  h4v10.4v3.6v8h-8H50.4z M90,88.4H69.4l6-6H88c1.1,0,2,0.9,2,2V88.4z M34.8,55.6h8.9h14.8h8.9c4.6,0,8.9-2.3,11.4-6.2  c2.4-3.7,2.8-8.3,1-12.2c-0.2-0.4-0.3-0.7-0.5-1.1L67.9,15.7c-0.4-0.6-1-1-1.8-1s-1.4,0.4-1.8,1l-3.9,7.1L52.8,8.7  c-0.4-0.6-1-1-1.8-1s-1.4,0.4-1.8,1l-7.8,14.1l-3.9-7.1c-0.4-0.6-1-1-1.8-1s-1.4,0.4-1.8,1L22.9,36.1c-0.2,0.4-0.4,0.7-0.5,1.1  c-1.8,4-1.4,8.5,1,12.2C25.9,53.3,30.2,55.6,34.8,55.6z M43.6,51.6c-1.1,0-2.1-0.6-2.7-1.5c-0.6-0.9-0.7-1.9-0.2-2.8  c0-0.1,0.1-0.2,0.1-0.3l3.3-6.1l0.8,1.5c0.4,0.6,1,1,1.8,1c0,0,0,0,0,0c0.7,0,1.4-0.4,1.8-1l2.6-4.7l2.6,4.7c0.4,0.6,1,1,1.8,1  c0,0,0,0,0,0c0.7,0,1.4-0.4,1.8-1l0.8-1.5l3.3,6.1c0.1,0.1,0.1,0.2,0.1,0.3c0.4,0.9,0.3,1.9-0.2,2.8c-0.6,0.9-1.6,1.5-2.7,1.5H43.6z   M26,38.8c0.1-0.3,0.3-0.5,0.4-0.8l9.5-17.2l3.9,7.1c0.4,0.6,1,1,1.8,1c0,0,0,0,0,0c0.7,0,1.4-0.4,1.8-1L51,13.8l7.8,14.1  c0.4,0.6,1,1,1.8,1c0,0,0,0,0,0c0.7,0,1.4-0.4,1.8-1l3.9-7.1L75.6,38c0.1,0.3,0.3,0.5,0.4,0.8c1.2,2.8,1,5.8-0.7,8.4  c-1.8,2.8-4.8,4.4-8,4.4h-2.4c0.9-1.9,1-4,0.2-5.9c-0.1-0.2-0.2-0.4-0.3-0.6l-5.1-9.3c-0.4-0.6-1-1-1.8-1s-1.4,0.4-1.8,1l-0.8,1.5  l-2.6-4.7c-0.4-0.6-1-1-1.8-1s-1.4,0.4-1.8,1l-2.6,4.7l-0.8-1.5c-0.4-0.6-1-1-1.8-1s-1.4,0.4-1.8,1l-5.1,9.3  c-0.1,0.2-0.2,0.4-0.3,0.6c-0.9,1.9-0.8,4.1,0.2,5.9h-2.4c-3.3,0-6.3-1.6-8-4.4C25,44.6,24.8,41.6,26,38.8z"/></svg>