<svg xmlns="http://www.w3.org/2000/svg" xmlns:xlink="http://www.w3.org/1999/xlink" version="1.1" x="0px" y="0px" viewBox="0 0 66 82.5" style="enable-background:new 0 0 66 66;" xml:space="preserve"><path d="M46.22,50.99c-0.45,0-0.81,0.36-0.81,0.81v3.1c0,0.45,0.36,0.81,0.81,0.81s0.81-0.36,0.81-0.81v-3.1  C47.03,51.35,46.67,50.99,46.22,50.99z"/><path d="M42.85,34.66c2.13,0,3.87-1.74,3.87-3.87c0-2.13-1.74-3.87-3.87-3.87c-2.13,0-3.87,1.74-3.87,3.87  C38.98,32.92,40.72,34.66,42.85,34.66z M42.85,28.54c1.24,0,2.25,1.01,2.25,2.24c0,1.24-1.01,2.25-2.25,2.25  c-1.24,0-2.24-1.01-2.24-2.25C40.61,29.55,41.61,28.54,42.85,28.54z"/><path d="M33.96,40.91h17.78c0.45,0,0.81-0.36,0.81-0.81v-2.97c0-0.45-0.36-0.81-0.81-0.81H33.96c-0.45,0-0.81,0.36-0.81,0.81v2.97  C33.15,40.55,33.51,40.91,33.96,40.91z M34.77,37.94h16.15v1.35H34.77V37.94z"/><path d="M62.72,61.83h-2.38V35.37l1.9,1.4c0.15,0.11,0.31,0.16,0.48,0.16c0.25,0,0.5-0.11,0.65-0.33c0.27-0.36,0.19-0.87-0.17-1.14  l-4.62-3.4v-8.32h1.07c1.27,0,2.3-1.03,2.3-2.3c0-1.27-1.03-2.3-2.3-2.3h-1.17v-3.33h1.43c0.45,0,0.81-0.36,0.81-0.81  c0-0.45-0.36-0.81-0.81-0.81h-2.24H53.2h-2.24c-0.45,0-0.81,0.36-0.81,0.81c0,0.45,0.36,0.81,0.81,0.81h1.43v3.33h-1.07  c-1.27,0-2.3,1.03-2.3,2.3c0,1.27,1.03,2.3,2.3,2.3h1.07v3.74l-9.06-6.68c-0.29-0.21-0.68-0.21-0.97,0L22.49,35.46  c-0.36,0.27-0.44,0.78-0.17,1.14c0.27,0.36,0.77,0.44,1.14,0.17l1.9-1.4v14.8c-3.97-0.08-7.41,0.33-10.33,0.97V40.23l4.37-7.25  l2,1.5c0.15,0.11,0.32,0.16,0.49,0.16c0.25,0,0.49-0.11,0.65-0.32c0.27-0.36,0.2-0.87-0.16-1.14l-1.56-1.18l3.62-1.46  c0.42-0.17,0.62-0.64,0.45-1.06c-0.17-0.42-0.64-0.62-1.06-0.45l-4.96,1.99c-0.02,0.01-0.04,0.02-0.06,0.03  c-0.03,0.02-0.06,0.04-0.09,0.06c-0.05,0.04-0.1,0.08-0.15,0.13c-0.01,0.02-0.04,0.03-0.05,0.04c-0.01,0.01-0.01,0.02-0.02,0.03  c-0.01,0.01-0.02,0.02-0.03,0.04l-3.45,5.71v-6.58l9.29-11.29c0.28-0.35,0.23-0.86-0.11-1.14c-0.35-0.29-0.86-0.23-1.14,0.11  L13.58,29.7c-0.12,0.15-0.19,0.33-0.19,0.52v5.35l-2.36-0.63l-2.26-6.25l0.69-3.87C9.53,24.5,9.39,24.18,9.12,24l-5.39-3.64  c-0.37-0.25-0.88-0.15-1.13,0.22c-0.25,0.37-0.15,0.88,0.22,1.13l4.96,3.35l-0.64,3.56c-0.03,0.14-0.01,0.29,0.04,0.42l2.48,6.85  c0.09,0.25,0.3,0.44,0.55,0.51l3.19,0.86v5.23h-2.08L9.65,40.3c-0.27-0.35-0.78-0.42-1.14-0.15c-0.36,0.27-0.42,0.78-0.15,1.14  l1.92,2.5c0.15,0.2,0.39,0.32,0.64,0.32h2.48v7.43c-6.75,1.79-10.3,4.7-10.52,4.89c-0.18,0.15-0.29,0.38-0.29,0.62v5.59  c0,0.45,0.36,0.81,0.81,0.81l59.32,0c0.45,0,0.81-0.36,0.81-0.81C63.54,62.19,63.17,61.83,62.72,61.83z M54.02,15.81h2.85v3.33  h-2.85V15.81z M50.64,21.44c0-0.37,0.3-0.68,0.68-0.68h1.89h4.47h1.99c0.37,0,0.68,0.3,0.68,0.68s-0.3,0.68-0.68,0.68h-1.88H53.2  h-1.89C50.94,22.12,50.64,21.81,50.64,21.44z M54.02,23.74h2.95v7.12l-2.95-2.18V23.74z M52.7,29.73c0.01,0.01,0.01,0.02,0.03,0.03  l3.72,2.73l2.28,1.68v27.65h-8.46V50.06c0-4.08-3.32-7.4-7.4-7.4s-7.4,3.32-7.4,7.4v11.77H27V51c0-0.03-0.01-0.06-0.02-0.09V34.17  l15.87-11.71L52.7,29.73z M37.07,61.82V50.06c0-3.19,2.59-5.78,5.78-5.78c3.19,0,5.78,2.59,5.78,5.78v11.76H37.07z M4.21,57.44  c1.49-1.1,8.73-5.89,21.14-5.65v10.04H4.21V57.44z"/><path d="M10.5,14.21c2,0,3.63-1.63,3.63-3.63c0-2-1.63-3.63-3.63-3.63c-2,0-3.63,1.63-3.63,3.63C6.87,12.58,8.5,14.21,10.5,14.21z   M10.5,8.58c1.11,0,2,0.9,2,2c0,1.1-0.9,2-2,2c-1.1,0-2-0.9-2-2C8.49,9.48,9.39,8.58,10.5,8.58z"/><path d="M10.5,5.61c0.45,0,0.81-0.36,0.81-0.81V3.36c0-0.45-0.36-0.81-0.81-0.81S9.68,2.91,9.68,3.36V4.8  C9.68,5.24,10.05,5.61,10.5,5.61z"/><path d="M5.83,7.07C5.99,7.22,6.2,7.3,6.4,7.3s0.42-0.08,0.57-0.24c0.32-0.32,0.32-0.83,0-1.15L5.97,4.9  c-0.32-0.32-0.83-0.32-1.15,0s-0.32,0.83,0,1.15L5.83,7.07z"/><path d="M3.28,11.4h1.43c0.45,0,0.81-0.36,0.81-0.81c0-0.45-0.36-0.81-0.81-0.81H3.28c-0.45,0-0.81,0.36-0.81,0.81  C2.46,11.03,2.83,11.4,3.28,11.4z"/><path d="M5.83,14.1l-1.01,1.01c-0.32,0.32-0.32,0.83,0,1.15c0.16,0.16,0.37,0.24,0.57,0.24c0.21,0,0.42-0.08,0.58-0.24l1.01-1.01  c0.32-0.32,0.32-0.83,0-1.15C6.66,13.78,6.15,13.78,5.83,14.1z"/><path d="M9.68,16.37v1.43c0,0.45,0.36,0.81,0.81,0.81s0.81-0.36,0.81-0.81v-1.43c0-0.45-0.36-0.81-0.81-0.81S9.68,15.92,9.68,16.37z  "/><path d="M15.16,14.1c-0.32-0.32-0.83-0.32-1.15,0c-0.32,0.32-0.32,0.83,0,1.15l1.01,1.01c0.16,0.16,0.37,0.24,0.58,0.24  c0.21,0,0.42-0.08,0.58-0.24c0.32-0.32,0.32-0.83,0-1.15L15.16,14.1z"/><path d="M15.47,10.58c0,0.45,0.36,0.81,0.81,0.81h1.43c0.45,0,0.81-0.36,0.81-0.81c0-0.45-0.36-0.81-0.81-0.81h-1.43  C15.83,9.77,15.47,10.13,15.47,10.58z"/><path d="M14.59,7.3c0.21,0,0.42-0.08,0.58-0.24l1.01-1.01c0.32-0.32,0.32-0.83,0-1.15c-0.32-0.32-0.83-0.32-1.15,0l-1.01,1.01  c-0.32,0.32-0.32,0.83,0,1.15C14.17,7.22,14.38,7.3,14.59,7.3z"/><text x="0" y="81" fill="#000000" font-size="5px" font-weight="bold" font-family="'Helvetica Neue', Helvetica, Arial-Unicode, Arial, Sans-serif">Created by Design Circle</text><text x="0" y="86" fill="#000000" font-size="5px" font-weight="bold" font-family="'Helvetica Neue', Helvetica, Arial-Unicode, Arial, Sans-serif">from the Noun Project</text></svg>