<svg xmlns="http://www.w3.org/2000/svg" xmlns:xlink="http://www.w3.org/1999/xlink" version="1.1" x="0px" y="0px" viewBox="0 0 64 80" style="enable-background:new 0 0 64 64;" xml:space="preserve"><g><path d="M10,42c0,2.2,1.8,4,4,4c0.3,0,0.6-0.1,1-0.1c3.3,4.1,7.9,6.8,13.1,7.8C28.4,55.5,30,57,32,57c2,0,3.6-1.5,3.9-3.4   c5.2-0.9,9.8-3.7,13.1-7.8c0.3,0.1,0.6,0.1,1,0.1c2.2,0,4-1.8,4-4c0-1.1-0.5-2.1-1.2-2.9c0.8-2.3,1.2-4.7,1.2-7.1   c0-2.5-0.4-4.8-1.2-7.1c0.7-0.7,1.2-1.7,1.2-2.9c0-2.2-1.8-4-4-4c-0.3,0-0.6,0.1-1,0.1c-3.3-4.1-7.9-6.8-13.1-7.8   C35.6,8.5,34,7,32,7c-2,0-3.6,1.5-3.9,3.4c-5.2,0.9-9.8,3.7-13.1,7.8C14.6,18,14.3,18,14,18c-2.2,0-4,1.8-4,4   c0,1.1,0.5,2.1,1.2,2.9C10.4,27.1,10,29.5,10,32c0,2.5,0.4,4.8,1.2,7.1C10.5,39.9,10,40.9,10,42z M12,42c0-1.1,0.9-2,2-2   c0.4,0,0.7,0.1,1,0.3c0,0,0,0,0,0c0,0,0,0,0,0c0.6,0.4,1,1,1,1.7c0,0,0,0,0,0s0,0,0,0c0,1.1-0.9,2-2,2C12.9,44,12,43.1,12,42z    M17.9,23h6l-4.1,7l-3-5.2C17.3,24.3,17.7,23.7,17.9,23z M26.2,23h11.6l5.2,9l-5.2,9H26.2L21,32L26.2,23z M32,15   c0.4,0,0.7-0.1,1.1-0.2l3.6,6.2h-9.3l3.6-6.2C31.3,14.9,31.6,15,32,15z M46.1,23c0.2,0.7,0.5,1.3,1.1,1.8l-3,5.2l-4.1-7H46.1z    M46.1,41h-6l4.1-7l3,5.2C46.7,39.7,46.3,40.3,46.1,41z M33.1,49.2C32.7,49.1,32.4,49,32,49c-0.4,0-0.7,0.1-1.1,0.2L27.3,43h9.3   L33.1,49.2z M23.9,41h-6c-0.2-0.7-0.5-1.3-1.1-1.8l3-5.2L23.9,41z M16.7,44.9c0.5-0.5,0.9-1.2,1.1-1.9H25l4.2,7.2   c-0.4,0.4-0.7,0.9-0.9,1.5C23.7,50.8,19.7,48.4,16.7,44.9z M32,55c-1.1,0-2-0.9-2-2c0-0.7,0.4-1.3,0.9-1.7c0,0,0.1,0,0.1,0   c0,0,0,0,0,0c0.3-0.2,0.6-0.3,1-0.3c0.4,0,0.7,0.1,1,0.3c0,0,0,0,0,0c0,0,0,0,0.1,0c0.5,0.3,0.9,0.9,0.9,1.5c0,0.1,0,0.1,0,0.2   C34,54.1,33.1,55,32,55z M35.7,51.6c-0.2-0.6-0.5-1.1-0.9-1.5L39,43h7.2c0.2,0.7,0.6,1.4,1.1,1.9C44.3,48.4,40.3,50.8,35.7,51.6z    M50,44c-0.2,0-0.4,0-0.6-0.1c0,0,0,0,0,0c-0.1-0.1-0.3-0.1-0.4-0.2c-0.6-0.4-1-1-1-1.7c0,0,0,0,0,0s0,0,0,0c0-0.7,0.4-1.3,0.9-1.7   c0,0,0,0,0.1,0c0,0,0,0,0,0c0.3-0.2,0.6-0.3,1-0.3c1.1,0,2,0.9,2,2S51.1,44,50,44z M52,32c0,2.1-0.3,4.2-1,6.1   c-0.3-0.1-0.7-0.1-1-0.1c-0.4,0-0.7,0.1-1.1,0.2L45.3,32l3.6-6.2c0.3,0.1,0.7,0.2,1.1,0.2c0.4,0,0.7-0.1,1-0.1   C51.7,27.8,52,29.9,52,32z M52,22c0,1.1-0.9,2-2,2c-1.1,0-2-0.9-2-2c0,0,0,0,0,0s0,0,0,0c0-1.1,0.9-2,2-2C51.1,20,52,20.9,52,22z    M47.3,19.1c-0.5,0.5-0.9,1.2-1.1,1.9H39l-4.2-7.2c0.4-0.4,0.7-0.9,0.9-1.5C40.3,13.2,44.3,15.6,47.3,19.1z M32,9c1.1,0,2,0.9,2,2   s-0.9,2-2,2s-2-0.9-2-2S30.9,9,32,9z M28.3,12.4c0.2,0.6,0.5,1.1,0.9,1.5L25,21h-7.2c-0.2-0.7-0.6-1.4-1.1-1.9   C19.7,15.6,23.7,13.2,28.3,12.4z M14,20c1.1,0,2,0.9,2,2c0,0,0,0,0,0s0,0,0,0c0,0.7-0.4,1.4-1,1.7c0,0,0,0,0,0c0,0,0,0,0,0   c-0.3,0.2-0.6,0.3-1,0.3c-1.1,0-2-0.9-2-2S12.9,20,14,20z M12,32c0-2.1,0.3-4.2,1-6.1c0.3,0.1,0.7,0.1,1,0.1c0.4,0,0.7-0.1,1.1-0.2   l3.6,6.2l-3.6,6.2C14.7,38.1,14.4,38,14,38c-0.4,0-0.7,0.1-1,0.1C12.3,36.2,12,34.1,12,32z"/></g></svg>