<svg version="1.2" xmlns="http://www.w3.org/2000/svg" viewBox="0 0 72 72" width="72" height="72">
	<title>mr</title>
	<style>
		.s0 { opacity: .9;fill: #efe5d1 } 
	</style>
	<path id="Path 0" fill-rule="evenodd" class="s0" d="m38 0.5c3.9 0.2 8.7 1.3 12 2.7 3 1.3 7.5 4.2 9.9 6.4 2.4 2.1 5.4 5.7 6.7 7.9 1.3 2.2 3 6.2 3.9 9 0.8 2.7 1.5 6.5 1.5 8.2 0 1.8-0.7 6.1-1.6 9.5-0.8 3.5-3.2 8.8-5.2 11.8-2.2 3.3-5.9 7-9.2 9.2-3.3 2.2-8.3 4.4-12.5 5.4-6 1.5-7.8 1.5-13 0.5-3.3-0.7-8-2.2-10.5-3.4-2.5-1.1-6.5-4.1-9.1-6.6-2.5-2.5-5.8-7.3-7.4-10.6-2.4-5.1-2.9-7.3-2.9-14.5-0.1-6.1 0.4-9.8 1.8-13 1-2.5 3.2-6.3 5-8.5 1.7-2.2 4-4.8 5.1-5.7 1.1-1 4.5-3 7.5-4.5 3-1.5 6.9-3.1 8.5-3.5 1.6-0.4 5.9-0.6 9.5-0.3zm-20.3 16.4c-1.6 1.4-4 4.9-5.4 7.6-2.3 4.4-2.5 5.9-2.1 12.5 0.3 4.7 1.2 8.8 2.4 11 1 1.9 3.1 4.7 4.7 6.2 1.5 1.6 5.1 3.9 8 5.3 3.6 1.8 6.9 2.5 10.7 2.5 3.7 0 7.1-0.7 10.5-2.4 2.8-1.3 6.5-4.1 8.4-6.2 1.9-2.2 4.2-5.8 5.3-8.1 1-2.5 1.8-6.7 1.8-9.8 0-3.2-0.8-7.3-1.9-9.7-1-2.4-3.1-5.8-4.7-7.7-1.6-1.9-5.1-4.5-7.9-5.8-3.8-1.7-6.7-2.3-12-2.2-5.1 0-8.1 0.6-11 2.1-2.2 1.1-5.3 3.2-6.8 4.7zm20.3 0.7c1.9 0.3 5.2 1.5 7.4 2.7 2.3 1.3 4.9 4 6.4 6.7 2.1 3.8 2.5 5.4 2 10-0.2 3.1-1.3 6.8-2.5 8.5-1.1 1.6-3.5 4.1-5.4 5.5-2.8 2.1-4.5 2.5-9.9 2.5-5.4 0-7.1-0.4-9.9-2.5-1.9-1.4-4.3-3.9-5.4-5.5-1.2-1.7-2.2-5.3-2.5-8.5-0.4-4.1 0-6.5 1.4-9.4 1.1-2.2 3.3-5 4.9-6.2 1.6-1.2 4.6-2.7 6.5-3.3 1.9-0.5 5.1-0.7 7-0.5z"/>
</svg>