<svg version="1.2" xmlns="http://www.w3.org/2000/svg" viewBox="0 0 298 298" width="298" height="298">
	<title>-1</title>
	<style>
		.s0 { opacity: 1;fill: currentColor }
	</style>
	<path id="Path 0" class="s0" d="m137 59.3c-4.7 1.2-11 3.5-14 5.1-3 1.6-8.2 4.7-11.5 7.1-3.3 2.3-8.2 6.6-10.9 9.6-2.7 3-6.4 7.8-8.3 10.7-1.8 2.8-4.5 8.7-5.9 13-2.5 7.2-2.7 9.5-3.5 33.2-0.5 16.4-1.4 28.2-2.4 33-1 4.7-2.9 9.8-5.2 13.5-2.8 4.7-3.4 6.6-2.9 9 0.3 1.7 2.9 7.5 5.6 13 2.7 5.5 7.4 12.9 10.3 16.5 3 3.6 7.6 8 10.3 9.7 2.7 1.8 7.3 4.2 10.2 5.3 2.8 1.1 6.3 2 7.7 2 1.4 0 2.5-0.3 2.5-0.7 0-0.5-0.9-2.1-1.9-3.8-1.1-1.7-2.9-5.8-4-9.2-1.3-4-2.3-10.2-2.7-17-0.5-8.7-0.2-12.9 1.5-21.3 1.2-5.8 2.1-12.3 2.1-14.5 0.1-3.9-0.1-4.1-6.7-8.1-4.6-2.8-7.9-5.7-10.1-9-3-4.6-3.3-5.5-3.2-12.9 0-6.2 0.5-8.7 2-11.2 1.4-2.3 3-3.5 5.3-3.8 1.8-0.3 6.1 0.3 10.2 1.5 3.8 1.1 9 3.4 11.5 4.9 2.5 1.6 6.6 5.1 9.1 7.8 2.5 2.6 5.3 6.3 6.2 8.1 1.5 2.7 1.7 6.7 1.7 26.7v23.5l8.1 6.5 8.4-6.1c1-43.6 1.5-49.6 2.7-51.9 0.9-1.7 3.7-5.2 6.4-7.9 2.7-2.6 7.2-6.1 9.9-7.7 2.8-1.5 7.9-3.6 11.5-4.5 3.8-1 7.7-1.5 9.3-1.1 1.9 0.5 3.3 1.9 4.7 5 1.2 2.5 2.1 6.4 2.2 9.7 0 3-0.6 7.1-1.4 9-0.8 1.9-3 5.2-4.9 7.4-1.9 2.1-5.8 5.2-8.7 7-2.9 1.7-5.5 3.8-5.7 4.6-0.3 0.8 0.6 6.8 2 13.3 1.7 7.8 2.5 14.8 2.5 21.2 0 5.2-0.5 11.9-1.1 14.8-0.6 2.8-2.6 8.5-4.5 12.5l-3.4 7.2c4.3 0 8-1.1 11-2.3 3-1.2 7.7-3.8 10.4-5.7 2.7-1.9 7.3-6.7 10.3-10.5 3-3.8 7.6-11.2 10.1-16.4q4.7-9.4 4.6-13c0-2.3-1.6-6.1-4.3-10.6l-4.2-7c-1.5-27.9-2.3-43-2.8-51.5-0.8-13.6-1.2-16.3-3.7-22.4-1.6-3.7-5.2-9.8-7.9-13.4-2.8-3.7-8.2-9.3-12-12.5-3.8-3.2-10.4-7.5-14.5-9.7-4.1-2.1-10.2-4.5-13.5-5.4-3.3-0.8-8.3-1.7-11-2-3.5-0.4-7.5 0.1-13.5 1.7z"/>
	<g id="g1">
	</g>
</svg>