<svg xmlns="http://www.w3.org/2000/svg" xmlns:xlink="http://www.w3.org/1999/xlink" version="1.1" x="0px" y="0px" viewBox="0 0 100 125" style="enable-background:new 0 0 100 100;" xml:space="preserve"><style type="text/css">
	.st0{fill:none;stroke:#000000;stroke-width:2;stroke-linecap:round;stroke-linejoin:round;stroke-miterlimit:10;}
	.st1{fill:none;stroke:#000000;stroke-width:2;stroke-miterlimit:10;}
	.st2{stroke:#000000;stroke-width:0.5;stroke-linecap:round;stroke-linejoin:round;stroke-miterlimit:10;}
</style><path d="M66,49.1c-0.2-0.5-0.8-0.8-1.3-0.6c-4.2,1.6-7.4,5.1-8.5,9.5c-0.1,0.5,0.2,1.1,0.7,1.2c0.1,0,0.2,0,0.2,0  c0.4,0,0.9-0.3,1-0.8c0.9-3.7,3.6-6.7,7.2-8.1C65.9,50.2,66.2,49.7,66,49.1z"/><path d="M79.2,75.8H62.4c-0.6,0-1,0.4-1,1s0.4,1,1,1h16.8c0.6,0,1-0.4,1-1S79.7,75.8,79.2,75.8z"/><path d="M78.9,44.7v-6.9c0-1.4-1.2-2.6-2.6-2.6h-0.2v-0.5c0-2-1.6-3.7-3.7-3.7h-3.2c-2,0-3.7,1.6-3.7,3.7v0.5h-0.2  c-1.4,0-2.6,1.2-2.6,2.6v6.9C55.6,47.9,51,54.9,51,62.7c0,5.8,2.5,11.3,6.9,15V79c0,1.1,0.9,2,2,2h21.8c0.5,0,1.1-0.2,1.4-0.6  s0.6-0.9,0.6-1.4l0-1.2c4.7-4,7.2-10.1,6.8-16.3C90.1,54.2,85.5,47.7,78.9,44.7z M67.5,34.8c0-0.9,0.7-1.7,1.7-1.7h3.2  c0.9,0,1.7,0.7,1.7,1.7v0.5h-6.5V34.8z M67.5,37.3h6.5v4c0,0.9-0.7,1.7-1.7,1.7h-3.2c-0.9,0-1.7-0.7-1.7-1.7V37.3z M82.1,76.5  c-0.2,0.2-0.4,0.5-0.4,0.8l0,1.7l-21.8,0v-1.7c0-0.3-0.1-0.6-0.4-0.8c-4.2-3.4-6.5-8.4-6.5-13.8c0-7.3,4.4-13.7,11.1-16.5  c0.4-0.2,0.6-0.5,0.6-0.9v-7.5c0-0.3,0.3-0.6,0.6-0.6h0.2v4c0,2,1.6,3.7,3.7,3.7h3.2c2,0,3.7-1.6,3.7-3.7v-4h0.2  c0.3,0,0.6,0.3,0.6,0.6v7.5c0,0.4,0.2,0.8,0.6,0.9c6.3,2.6,10.6,8.6,11.1,15.3C88.9,67.4,86.6,72.8,82.1,76.5z"/><path d="M29.4,74.7H16.3v-28c0-0.6-0.4-1-1-1s-1,0.4-1,1v29c0,0.6,0.4,1,1,1h14.2c0.6,0,1-0.4,1-1S30,74.7,29.4,74.7z"/><path d="M41.3,32.4l0-3.2h1.4c0.6,0,1-0.4,1-1v-4.5c0-0.6-0.4-1-1-1H16.6c-0.6,0-1,0.4-1,1v4.5c0,0.6,0.4,1,1,1h1.6v3.1l-5,4  c-1.5,1.2-2.4,3-2.4,5v36.1c0,1.8,1.5,3.3,3.3,3.3h30.2c1.8,0,3.3-1.5,3.3-3.3V41c0-1.7-0.7-3.4-2-4.6L41.3,32.4z M17.6,24.7h24.2  v2.5H17.6V24.7z M26,39.6c0.4,0.1,0.8,0.2,1.3,0.3c-0.1,0.4-0.2,0.9-0.1,1.3c0.1,0.8,0.6,1.5,1.2,2c0.5,0.4,1.1,0.6,1.8,0.6  c0.2,0,0.3,0,0.5,0c1.6-0.3,2.8-1.8,2.5-3.5c0,0,0,0,0,0c-0.3-1.6-1.8-2.8-3.5-2.5c-0.4,0.1-0.7,0.2-1.1,0.4c0,0-0.1,0-0.1,0  c-0.4,0-0.7-0.1-1.1-0.2l2.1-2.3l6.1,3.6l3.6,23l-10.8,1.7l-3.6-23L26,39.6z M29.3,40c0.2-0.2,0.4-0.4,0.7-0.4c0.1,0,0.1,0,0.2,0  c0.5,0,0.9,0.4,1,0.9c0.1,0.6-0.3,1.1-0.9,1.2c-0.6,0.1-1.1-0.3-1.2-0.9C29.1,40.5,29.2,40.3,29.3,40z M36.3,37.2l-6.4-3.8  c-0.4-0.2-0.9-0.2-1.3,0.2l-3.3,3.7c-4.2-1.4-5-4.1-5.1-4.6v-3.4h19.1l0,3.3C38.4,35.5,37,36.8,36.3,37.2z M45.5,77.3  c0,0.7-0.6,1.3-1.3,1.3H14c-0.7,0-1.3-0.6-1.3-1.3V41.3c0-1.3,0.6-2.6,1.6-3.4l4.3-3.4c0.7,1.3,2.1,3.2,5.2,4.5l-0.9,1  c-0.2,0.2-0.3,0.5-0.2,0.8l3.8,24.5c0.1,0.5,0.5,0.8,1,0.8c0.1,0,0.1,0,0.2,0l12.8-2c0.3,0,0.5-0.2,0.7-0.4c0.2-0.2,0.2-0.5,0.2-0.7  l-3.7-24.2c0.9-0.6,2.1-1.9,3.1-4.1l3.4,3.3c0.9,0.8,1.3,2,1.3,3.1V77.3z"/><text x="0" y="115" fill="#000000" font-size="5px" font-weight="bold" font-family="'Helvetica Neue', Helvetica, Arial-Unicode, Arial, Sans-serif">Created by Made by Made</text><text x="0" y="120" fill="#000000" font-size="5px" font-weight="bold" font-family="'Helvetica Neue', Helvetica, Arial-Unicode, Arial, Sans-serif">from the Noun Project</text></svg>