<svg xmlns="http://www.w3.org/2000/svg" viewBox="0 0 512 640" x="0px" y="0px"><g><path d="m437.67,73.48c-59.61,2.41-112.12-28.61-145.67-55.07-20.88-16.46-51.19-16.49-72.09-.08-33.68,26.45-86.27,57.47-145.57,55.18-32.6-1.28-58.65,23.59-59.22,53.69-2.11,113.05,23.35,215.37,103.51,295.2,30.3,30.17,67.91,56.32,111.79,77.72,16.01,7.82,35.14,7.82,51.16,0,43.89-21.4,81.5-47.55,111.8-77.73,80.18-79.85,105.62-182.19,103.5-295.22-.57-30.11-26.49-55.04-59.21-53.69Zm-175.67-55.07c8.08,1.05,15.93,4.19,22.57,9.42,35.14,27.71,90.3,60.2,153.58,57.64,10.25-.42,20.01,2.38,28.1,7.94l-42.05,46.04c-4.81-3.75-10.82-6.15-17.44-6.59-59.9-3.96-112.38-37.41-132.17-51.6-3.79-2.73-8.11-4.49-12.59-5.34V18.41ZM71.96,85.47c1.84,0,4.05.16,8.66.16,60.13,0,112.71-31.16,146.7-57.86,6.68-5.24,14.56-8.37,22.68-9.38v57.49c-4.55.82-8.94,2.59-12.79,5.35-19.82,14.17-72.35,47.58-132.02,51.62-6.61.44-12.59,2.85-17.4,6.59l-41.98-45.95c7.59-5.23,16.63-8.02,26.15-8.02Zm178.04,408.12c-4.94-.63-9.79-2.04-14.32-4.25C44.41,396.05,25.05,238.11,27.12,127.42c.18-9.52,3.63-18.54,9.8-25.88l42.98,47.05c-2.55,4.53-3.94,9.74-3.8,15.26,3,125.73,52.79,213.75,164.88,272,2.87,1.49,5.91,2.52,9.02,3.11v54.63Zm-105.35-150.59c-39.09-50.47-51.51-105.79-55.24-153h333.17c-3.73,47.21-16.14,102.53-55.23,153h-222.7Zm131.67,146.34c-4.53,2.21-9.38,3.62-14.32,4.25v-54.63c3.11-.59,6.15-1.62,9.02-3.11,112.04-58.22,161.86-146.21,164.89-271.98.13-5.53-1.26-10.75-3.81-15.28l43.03-47.1c6.13,7.32,9.57,16.35,9.75,25.9,2.08,110.7-17.28,268.65-208.56,361.95Z"/><path d="m297.54,238.89l-15-3.74c-.66-.17-1.22-.57-1.58-1.15l-8.19-13.1c-7.75-12.41-25.8-12.38-33.54,0l-8.19,13.1c-.36.58-.92.98-1.58,1.15l-15,3.74c-14.16,3.53-19.76,20.69-10.36,31.9l9.93,11.84c.44.52.65,1.18.6,1.86l-1.07,15.41c-1.02,14.57,13.57,25.2,27.13,19.72l14.34-5.79c.62-.25,1.32-.25,1.94,0l14.34,5.79c13.53,5.47,28.15-5.12,27.13-19.72l-1.07-15.41c-.05-.68.16-1.34.6-1.86l9.93-11.84c9.39-11.19,3.83-28.36-10.36-31.9Z"/></g><text x="0" y="527" fill="#000000" font-size="5px" font-weight="bold" font-family="'Helvetica Neue', Helvetica, Arial-Unicode, Arial, Sans-serif">Created by Flowicon</text><text x="0" y="532" fill="#000000" font-size="5px" font-weight="bold" font-family="'Helvetica Neue', Helvetica, Arial-Unicode, Arial, Sans-serif">from the Noun Project</text></svg>