<svg xmlns="http://www.w3.org/2000/svg" xmlns:xlink="http://www.w3.org/1999/xlink" version="1.1" x="0px" y="0px" viewBox="0 0 32 40" style="enable-background:new 0 0 32 32;" xml:space="preserve"><style type="text/css">
	.st0{display:none;}
	.st1{display:inline;}
</style><g><path d="M28.999,4.783l0.943-0.412c0.078-0.034,0.078-0.145,0-0.179L28.999,3.78c-0.023-0.01-0.041-0.028-0.05-0.05l-0.412-0.943   c-0.034-0.078-0.145-0.078-0.179,0l-0.412,0.943c-0.01,0.023-0.028,0.041-0.05,0.05l-0.943,0.412c-0.078,0.034-0.078,0.145,0,0.179   l0.943,0.412c0.023,0.01,0.041,0.028,0.05,0.05l0.412,0.943c0.034,0.078,0.145,0.078,0.179,0l0.412-0.943   C28.958,4.811,28.976,4.793,28.999,4.783z"/><circle cx="24.944" cy="3.229" r="0.293"/><path d="M6.824,3.239L7.393,2.99c0.047-0.021,0.047-0.088,0-0.108L6.824,2.633c-0.014-0.006-0.025-0.017-0.03-0.03L6.544,2.034   c-0.021-0.047-0.088-0.047-0.108,0L6.187,2.602c-0.006,0.014-0.017,0.025-0.03,0.03L5.588,2.882c-0.047,0.021-0.047,0.088,0,0.108   l0.569,0.249c0.014,0.006,0.025,0.017,0.03,0.03l0.249,0.569c0.021,0.047,0.088,0.047,0.108,0l0.249-0.569   C6.799,3.256,6.81,3.245,6.824,3.239z"/><circle cx="2.751" cy="4.811" r="0.751"/><path d="M22.926,13.826l-4.375-4.375c-0.337-0.337-0.927-0.337-1.264,0l-4.375,4.375c-0.166,0.166-0.261,0.396-0.261,0.632   c0,0.239,0.093,0.464,0.261,0.632l4.375,4.379c0.168,0.168,0.393,0.261,0.632,0.261s0.463-0.093,0.632-0.261l4.375-4.379   c0.168-0.168,0.261-0.393,0.261-0.632C23.187,14.222,23.092,13.992,22.926,13.826z M22.125,14.085h-1.53l-2.301-2.297v-1.534   L22.125,14.085z M17.919,16.445l-1.987-1.987l1.987-1.984l1.987,1.984L17.919,16.445z M17.544,10.254v1.534l-2.301,2.297h-1.53   L17.544,10.254z M13.717,14.835h1.531l2.296,2.296v1.535L13.717,14.835z M18.294,18.665v-1.534l2.295-2.296h1.531L18.294,18.665z"/><path d="M16.539,26.92h1.477c0.207,0,0.375-0.168,0.375-0.375s-0.168-0.375-0.375-0.375h-1.477c-0.207,0-0.375,0.168-0.375,0.375   S16.332,26.92,16.539,26.92z"/><path d="M25.567,25.3c0.526-0.156,0.912-0.616,0.944-1.188c0.008-0.019,0.019-0.034,0.019-0.068V8.195   c0-1.508-1.227-2.735-2.735-2.735H9.683H8.205c-1.508,0-2.735,1.227-2.735,2.735v18.353c0,0.027,0.003,0.04,0.009,0.043   c0.011,1.006,0.403,1.952,1.116,2.664c0.723,0.722,1.687,1.12,2.715,1.12H25.2c0.73,0,1.325-0.599,1.325-1.335   c0-0.609-0.414-1.102-0.967-1.262c-0.242-0.375-0.383-0.798-0.383-1.238C25.175,26.095,25.318,25.672,25.567,25.3z M24.454,26.17   h-4.876c-0.207,0-0.375,0.168-0.375,0.375s0.168,0.375,0.375,0.375h4.876c0.034,0.271,0.108,0.533,0.214,0.785h-9.762v-2.33h9.765   C24.563,25.629,24.488,25.895,24.454,26.17z M10.724,27.705H9.31c-0.349,0-0.677-0.153-0.901-0.42   c-0.221-0.264-0.31-0.598-0.249-0.942c0.094-0.552,0.627-0.968,1.24-0.968h1.324V27.705z M11.474,25.375h2.683v2.982l-1.149-0.686   c-0.118-0.07-0.266-0.07-0.384,0l-1.149,0.686V25.375z M25.78,8.195v14.659c-0.177-0.088-0.369-0.149-0.58-0.149H10.058V6.21   h13.737C24.889,6.21,25.78,7.101,25.78,8.195z M8.205,6.21h1.103v16.495c-1.27,0.001-2.39,0.631-3.087,1.588V8.195   C6.22,7.101,7.111,6.21,8.205,6.21z M25.2,29.625H9.31c-0.828,0-1.604-0.32-2.185-0.9c-0.58-0.581-0.9-1.354-0.9-2.175   c0-1.707,1.384-3.095,3.085-3.095H25.2c0.322,0,0.575,0.257,0.575,0.585s-0.252,0.585-0.575,0.585H9.4   c-0.973,0-1.824,0.684-1.979,1.589c-0.099,0.556,0.052,1.122,0.413,1.552c0.367,0.438,0.905,0.688,1.476,0.688h1.414v0.563   c0,0.135,0.072,0.259,0.19,0.326c0.117,0.067,0.261,0.065,0.377-0.004l1.524-0.91l1.524,0.91c0.059,0.035,0.125,0.053,0.192,0.053   c0.064,0,0.128-0.016,0.185-0.049c0.118-0.067,0.19-0.191,0.19-0.326v-0.563H25.2c0.322,0,0.575,0.257,0.575,0.585   S25.522,29.625,25.2,29.625z"/></g><text x="0" y="47" fill="#000000" font-size="5px" font-weight="bold" font-family="'Helvetica Neue', Helvetica, Arial-Unicode, Arial, Sans-serif">Created by Rikas Dzihab</text><text x="0" y="52" fill="#000000" font-size="5px" font-weight="bold" font-family="'Helvetica Neue', Helvetica, Arial-Unicode, Arial, Sans-serif">from the Noun Project</text></svg>