<svg xmlns="http://www.w3.org/2000/svg" viewBox="0 0 64 80" x="0px" y="0px"><path d="m10.65,23.65l6.58-3.46,6.58,3.46-1.26-7.32,5.32-5.19-7.35-1.07-3.29-6.66-3.29,6.66-7.35,1.07,5.32,5.19-1.26,7.32Zm.23-11.11l4.38-.64,1.96-3.97,1.96,3.97,4.38.64-3.17,3.09.75,4.36-3.92-2.06-3.92,2.06.75-4.36-3.17-3.09Zm46.47,37.98c0-.6-.01-1.12,0-1.67h-.03c-.07-.82-.3-1.01-.97-1,0,0-15.88.16-15.88.16v-11.02h-14.91v-10.63H8.88v34.22h48.54l-.05-10.07Zm-46.48,8.07v-30.22h12.68v10.63h14.91v11.04l16.89-.17c.01,2.04.04,6.68.05,8.73H10.88ZM27.25,17.58c8.85-2.68,18.04-.63,8.65,13,12.34-4.5,21.33-1.61,15.98,13.59l-1.89-.65c4.34-12.3-1.03-15.35-13.4-11.04-.83.3-1.72.04-2.27-.66-.54-.7-.58-1.63-.08-2.36,4.3-6.36,3.84-8.79,3.19-9.67-1.58-2.14-7.61-.9-9.6-.29l-.58-1.91Z"/><text x="0" y="79" fill="#000000" font-size="5px" font-weight="bold" font-family="'Helvetica Neue', Helvetica, Arial-Unicode, Arial, Sans-serif">Created by Gendis Studio</text><text x="0" y="84" fill="#000000" font-size="5px" font-weight="bold" font-family="'Helvetica Neue', Helvetica, Arial-Unicode, Arial, Sans-serif">from the Noun Project</text></svg>