<svg xmlns="http://www.w3.org/2000/svg" xmlns:xlink="http://www.w3.org/1999/xlink" version="1.1" x="0px" y="0px" viewBox="0 0 3873 4841.25" style="enable-background:new 0 0 3873 3873;" xml:space="preserve"><g><path d="M3022.6,1215.8L2006.9,574.1c-42.8-27-98-27-140.8,0L850.5,1215.8c-78.4,49.5-182.6,26.3-232.4-52.4   c-49.6-78.5-26.1-182.7,52.4-232.4l1141-720.9c75.5-47.8,172.9-48.7,249.8,0l1141,720.9c78.5,49.6,102,153.8,52.4,232.4   C3205.7,1240.9,3102.2,1266.2,3022.6,1215.8z M3087.2,1113.5c10.7,6.8,23.4,9,35.7,6.2c41.1-9.4,50.3-63.8,14.8-86.3l-1141-720.9   c-36.6-23.1-84-23.1-120.6,0l-1141,720.9c-22.1,14-28.7,43.3-14.8,65.4c14,22.1,43.3,28.7,65.4,14.8l1015.6-641.7   c82.9-52.4,188.1-51.9,270,0L3087.2,1113.5z"/></g><g><path d="M854.5,2640.8c-33.4,0-60.5-27.1-60.5-60.5V1141.7c0-33.4,27.1-60.5,60.5-60.5s60.5,27.1,60.5,60.5v1438.6   C915.1,2613.7,888,2640.8,854.5,2640.8z"/></g><g><path d="M3018.4,2640.8c-33.4,0-60.5-27.1-60.5-60.5V1141.7c0-33.4,27.1-60.5,60.5-60.5s60.5,27.1,60.5,60.5v1438.6   C3079,2613.7,3051.9,2640.8,3018.4,2640.8z"/></g><g><path d="M3396.3,2985.6H476.7c-33.4,0-60.5-27.1-60.5-60.5v-344.8c0-33.4,27.1-60.5,60.5-60.5h2919.5c33.4,0,60.5,27.1,60.5,60.5   v344.8C3456.8,2958.5,3429.7,2985.6,3396.3,2985.6z M537.2,2864.6h2798.5v-223.8H537.2V2864.6z"/></g><g><path d="M665.2,3699c-33.4,0-60.5-27.1-60.5-60.5v-713.4c0-33.4,27.1-60.5,60.5-60.5s60.5,27.1,60.5,60.5v713.4   C725.7,3671.9,698.6,3699,665.2,3699z"/></g><g><path d="M978.7,3699c-33.4,0-60.5-27.1-60.5-60.5v-713.4c0-33.4,27.1-60.5,60.5-60.5s60.5,27.1,60.5,60.5v713.4   C1039.2,3671.9,1012.1,3699,978.7,3699z"/></g><g><path d="M2894.3,3699c-33.4,0-60.5-27.1-60.5-60.5v-713.4c0-33.4,27.1-60.5,60.5-60.5s60.5,27.1,60.5,60.5v713.4   C2954.8,3671.9,2927.7,3699,2894.3,3699z"/></g><g><path d="M3207.8,3699c-33.4,0-60.5-27.1-60.5-60.5v-713.4c0-33.4,27.1-60.5,60.5-60.5s60.5,27.1,60.5,60.5v713.4   C3268.3,3671.9,3241.2,3699,3207.8,3699z"/></g><g><path d="M3396.3,3699H476.7c-33.4,0-60.5-27.1-60.5-60.5s27.1-60.5,60.5-60.5h2919.5c33.4,0,60.5,27.1,60.5,60.5   S3429.7,3699,3396.3,3699z"/></g><g><path d="M1768.8,2640.8c-33.4,0-60.5-27.1-60.5-60.5v-942.4h-532.5v942.4c0,33.4-27.1,60.5-60.5,60.5s-60.5-27.1-60.5-60.5V1577.4   c0-33.4,27.1-60.5,60.5-60.5h653.6c33.4,0,60.5,27.1,60.5,60.5v1002.9C1829.3,2613.7,1802.2,2640.8,1768.8,2640.8z"/></g><g><path d="M2757.7,2166.7h-709.5c-33.4,0-60.5-27.1-60.5-60.5v-528.9c0-33.4,27.1-60.5,60.5-60.5h709.5c33.4,0,60.5,27.1,60.5,60.5   v528.9C2818.3,2139.7,2791.2,2166.7,2757.7,2166.7z M2108.8,2045.7h588.4v-407.8h-588.4L2108.8,2045.7L2108.8,2045.7z"/></g><g><path d="M2403,2166.7c-33.4,0-60.5-27.1-60.5-60.5v-528.9c0-33.4,27.1-60.5,60.5-60.5s60.5,27.1,60.5,60.5v528.9   C2463.5,2139.7,2436.4,2166.7,2403,2166.7z"/></g><g><path d="M2757.7,1902.3h-709.5c-33.4,0-60.5-27.1-60.5-60.5s27.1-60.5,60.5-60.5h709.5c33.4,0,60.5,27.1,60.5,60.5   C2818.3,1875.2,2791.2,1902.3,2757.7,1902.3z"/></g><g><path d="M1320.8,2207.1c-33.4,0-60.5-27.1-60.5-60.5v-135.4c0-33.4,27.1-60.5,60.5-60.5s60.5,27.1,60.5,60.5v135.4   C1381.3,2180,1354.2,2207.1,1320.8,2207.1z"/></g><g><path d="M1936.5,1316.8c-156.3,0-283.5-127.2-283.5-283.5s127.2-283.5,283.5-283.5S2220,877,2220,1033.3   S2092.8,1316.8,1936.5,1316.8z M1936.5,870.8c-89.6,0-162.5,72.9-162.5,162.5s72.9,162.5,162.5,162.5s162.5-72.9,162.5-162.5   S2026.1,870.8,1936.5,870.8z"/></g><text x="0" y="3888" fill="#000000" font-size="5px" font-weight="bold" font-family="'Helvetica Neue', Helvetica, Arial-Unicode, Arial, Sans-serif">Created by Graphixs_Art</text><text x="0" y="3893" fill="#000000" font-size="5px" font-weight="bold" font-family="'Helvetica Neue', Helvetica, Arial-Unicode, Arial, Sans-serif">from the Noun Project</text></svg>