<svg version="1.2" xmlns="http://www.w3.org/2000/svg" viewBox="0 0 62 58" width="62" height="58">
	<title>tab-border</title>
	<style>
		.s0 { fill: currentColor;stroke: currentColor;paint-order:stroke fill markers;stroke-linejoin: round;stroke-width: 2 }
	</style>
	<path id="Path 0" class="s0" d="m9 6.3c0 0.6 0.7 4.4 1.6 8.2 0.8 3.9 2.9 9.7 4.7 12.9 1.8 3.3 5.3 8.3 7.8 11 2.6 2.8 7.5 6.8 11 8.9 3.5 2.1 8.7 4.4 11.4 5.1 2.7 0.8 6.5 1.7 8.3 2 1.7 0.3 3.2 0.3 3.2-0.1 0-0.5-2.8-1.4-6.2-2.1-3.5-0.6-9.2-2.6-12.8-4.3-3.8-1.8-9-5.5-12.3-8.8-3.8-3.6-7.1-8.1-9.3-12.6-2.3-4.5-3.9-9.6-4.5-14.3-0.6-3.9-1.5-7.2-2-7.2-0.5 0-0.9 0.6-0.9 1.3z"/>
</svg>