<svg version="1.2" xmlns="http://www.w3.org/2000/svg" viewBox="0 0 32 32" width="32" height="32">
	<title>trait_icon_assassin</title>
	<style>
		.s0 { opacity: .85;fill: currentColor}
	</style>
	<path id="Path 0" fill-rule="evenodd" class="s0" d="m15.4 1c1.9 0 3.9 0.8 5.3 2.2 1.1 1.3 2.6 4.3 3.3 6.8 0.6 2.5 1.8 5.6 2.7 7 1.3 2.1 1.3 2.9 0.1 5.4-0.7 1.6-2.5 4-4 5.3-1.6 1.2-3.2 2.3-3.8 2.3-0.6 0-0.1-1.9 1-4.3 1.1-2.3 2-5.3 2-6.7 0-2.2-0.3-2.1-2.3 1.5-1.4 2.5-3 4-4.2 4-1.2 0-2.8-1.5-4.2-4-2-3.6-2.3-3.7-2.3-1.5 0 1.4 0.9 4.4 2 6.8 1.1 2.3 1.6 4.2 1 4.2-0.6 0-2.2-1.1-3.8-2.3-1.5-1.3-3.3-3.7-4-5.3-1.2-2.5-1.2-3.3 0.1-5.4 0.9-1.4 2.1-4.5 2.7-7 0.7-2.5 2.1-5.5 3.3-6.8 1.2-1.3 3.2-2.2 5.1-2.2zm-2.7 13.8c2.6-1.1 3.6-1.1 6 0.1 2.6 1.2 2.7 1.2 1.3-0.3-0.8-0.9-2.9-1.7-4.6-1.6-1.8 0-3.8 0.7-4.5 1.6-1.3 1.3-1.1 1.4 1.8 0.2z"/>
</svg>