<svg version="1.2" xmlns="http://www.w3.org/2000/svg" viewBox="0 0 32 32" width="32" height="32">
	<title>trait_icon_5_coven</title>
	<style>
		.s0 { opacity: 1;fill: currentColor }
		.s1 { opacity: .72;fill: currentColor }
		.s2 { opacity: .1;fill: currentColor }
		.s3 { opacity: .58;fill: currentColor }
		.s4 { opacity: .44;fill: currentColor }
		.s5 { opacity: .99;fill: currentColor }
		.s6 { opacity: .87;fill: currentColor }
		.s7 { opacity: .28;fill: currentColor }
		.s8 { opacity: .65;fill: currentColor }
		.s9 { opacity: .78;fill: currentColor }
		.s10 { opacity: .18;fill: currentColor }
		.s11 { opacity: .85;fill: currentColor }
		.s12 { opacity: .51;fill: currentColor }
		.s13 { opacity: .33;fill: currentColor }
	</style>
	<g id="Background">
		<path id="Path 0" fill-rule="evenodd" class="s0" d="m17 3l1-1h1l1 1h1l1 1v1l1 1v2l1 1v1h-2v-1l-2-2h-1l-1 1v3l1 1v1l2 2v1l1 1v3l-3 3h-9l-2-2v-5l3-3v-7l1-1h1l1-1h1l1-1zm8 13v-1h3v1zm3 0h1l1 1v5l-1 1v1l-4 4h-1l-1 1h-1l-1 1h-3l-1 1h-1l-3-1h-4l-1-1h-1l-1-1h-1l-3-3v-2l-1-1v-2l1-1h1v1l1 2 1 1h3l2 2h2l1 1h5l5-5h3l2-2zm-25 2h1v1h-1z"/>
		<path id="Path 1" class="s1" d="m17 2h1v1h-1zm2 0h1v1h-1zm4 5h1v1h-1zm-13 3h1v1h-1zm8 1h1v1h-1zm-8 1h1v1h-1zm-1 2h1v1h-1zm20 2h1v1h-1zm1 4h1v1h-1zm-13 3h1v1h-1zm-8 1h1v1h-1zm3 1h1v1h-1zm5 0h1v1h-1zm-5 5h1v1h-1zm6 0h1v1h-1z"/>
		<path id="Path 2" class="s2" d="m22 4h1v1h-1zm-4 4h1v1h-1zm-9 5h1v1h-1zm16 1h1v1h-1zm2 0h1v1h-1zm-6 1h1v1h-1zm3 0h1v1h-1zm-21 2h1v1h-1zm19 0h1v1h-1zm-21 1h1v1h-1zm21 1h1v1h-1zm-15 1h1v1h-1zm0 3v-1h1 1v1h-1zm3 0h1v1h-1zm8 0h1v1h-1zm-17 1h1v1h-1zm26 2h1v1h-1zm-4 3h1v1h-1zm-14 1h1v1h-1z"/>
		<path id="Path 3" fill-rule="evenodd" class="s3" d="m10 10v-2h1v2zm0 1h1v1h-1zm-2 4h1v1h-1zm13 1h1v1h-1zm9 1h1v1h-1zm-26 5l-1-2h1zm18-1h1v1h-1zm-21 2h1v1h-1zm10 0h1v1h-1zm8 1h1v1h-1zm-6 1h1v1h-1zm3 0h1v1h-1zm6 4h1v1h-1zm-11 1h1v1h-1zm8 0h1v1h-1z"/>
		<path id="Path 4" class="s4" d="m21 3h1v1h-1zm-10 2h1v1h-1zm-1 2h1v1h-1zm10 7h1v1h-1zm10 7h1v1h-1zm-26 1h1v1h-1zm4 1h1v1h-1zm21 0h1v1h-1zm-19 1h1v1h-1zm4 2v-1h2v1zm-9 2h1v1h-1zm2 1h1v1h-1zm3 1h1v1h-1zm10 0h1v1h-1z"/>
		<path id="Path 5" class="s5" d="m13 4h1v1h-1zm12 13v-1h3v1h-1zm-11 7v-1h2v1z"/>
		<path id="Path 6" class="s6" d="m22 5h1v1h-1zm-12 8h1v1h-1zm20 7v-2h1v2zm-14 3h1v1h-1zm-3 8v-1l3 1z"/>
		<path id="Path 7" class="s7" d="m16 2h1v1h-1zm4 0h1v1h-1zm3 4h1v1h-1zm-5 4h1v1h-1zm8 4h1v1h-1zm-4 4h1v1h-1zm1 2h1v1h-1zm-18 3v-1h2v1zm16-1h1v1h-1zm-1 1h1v1h-1z"/>
		<path id="Path 8" class="s8" d="m23 10h1v1h-1zm5 5h1v1h-1zm-4 1h1v1h-1zm-17 1h1v1h-1zm-6 2h1v1h-1zm26 0h1v1h-1z"/>
		<path id="Path 9" class="s9" d="m15 3h1v1h-1zm8 5h1v1h-1zm-4 5h1v1h-1zm8 4h1v1h-1zm-25 1h1v1h-1zm1 1h1v1h-1zm23 1h1v1h-1zm-14 4v-1h2v1z"/>
		<path id="Path 10" class="s10" d="m19 7h1v1h-1zm3 3h1v1h-1zm-3 2h1v1h-1zm-12 4h1v1h-1zm0 3h1v1h-1zm19 8h1v1h-1zm-5 3h1v1h-1z"/>
		<path id="Path 11" class="s11" d="m18 25h1v1h-1z"/>
		<path id="Path 12" class="s12" d="m14 3h1v1h-1zm-7 15h1v1h-1zm18 2h1v1h-1zm-1 8h1v1h-1z"/>
		<path id="Path 13" class="s13" d="m12 4h1v1h-1zm15 14h1v1h-1zm-3 2h1v1h-1z"/>
		<path id="Path 14" class="s1" d="m20 7h1v1h-1zm1 13h1v1h-1zm-13 1h1v1h-1zm12 0h1v1h-1zm-19 1h1v1h-1zm8 0h1v1h-1zm10 0h1v1h-1zm-16 4h1v1h-1zm22 1h1v1h-1zm-17 2h1v1h-1z"/>
		<path id="Path 15" class="s3" d="m2 25h1v1h-1z"/>
		<path id="Path 16" class="s6" d="m29 22h1v1h-1zm-12 8h1v1h-1z"/>
		<path id="Path 17" class="s8" d="m21 8h1v1h-1zm7 16h1v1h-1zm-24 3h1v1h-1z"/>
		<path id="Path 18" class="s9" d="m17 9h1v1h-1z"/>
		<path id="Path 19" class="s11" d="m27 25h1v1h-1zm-1 1h1v1h-1zm-20 2h1v1h-1zm17 0h1v1h-1zm-2 1h1v1h-1z"/>
		<path id="Path 20" class="s12" d="m18 7h1v1h-1z"/>
	</g>
</svg>