<svg xmlns="http://www.w3.org/2000/svg" data-name="17 Cottage" viewBox="0 0 512 640" x="0px" y="0px"><path d="M510.72,443.66L262.72,59.66c-1.47-2.28-4-3.66-6.72-3.66s-5.25,1.38-6.72,3.66L1.28,443.66c-1.59,2.46-1.71,5.59-.31,8.17,1.4,2.57,4.1,4.17,7.03,4.17H504c2.93,0,5.62-1.6,7.03-4.17,1.4-2.57,1.28-5.71-.31-8.17Zm-310.72-3.66H64.02l10.33-16h125.64v16Zm80-112h-48c-4.42,0-8,3.58-8,8v72H84.69L256,142.75l171.31,265.25h-139.31v-72c0-4.42-3.58-8-8-8Zm-8,16v64h-32v-64h32Zm24,96h-80v-16h80v16Zm16,0v-16h125.64l10.33,16h-135.98Zm155.02,0L262.72,123.66c-1.47-2.28-4-3.66-6.72-3.66s-5.25,1.38-6.72,3.66L44.98,440H22.69L256,78.75l233.31,361.25h-22.29Z"/><path d="M304,376c0,4.42,3.58,8,8,8h40c4.42,0,8-3.58,8-8v-40c0-4.42-3.58-8-8-8h-40c-4.42,0-8,3.58-8,8v40Zm16-32h24v24h-24v-24Z"/><path d="M200,328h-40c-4.42,0-8,3.58-8,8v40c0,4.42,3.58,8,8,8h40c4.42,0,8-3.58,8-8v-40c0-4.42-3.58-8-8-8Zm-8,40h-24v-24h24v24Z"/><path d="M256,264c-4.42,0-8,3.58-8,8v8c0,4.42,3.58,8,8,8s8-3.58,8-8v-8c0-4.42-3.58-8-8-8Z"/><path d="M296,288c4.42,0,8-3.58,8-8v-8c0-4.42-3.58-8-8-8s-8,3.58-8,8v8c0,4.42,3.58,8,8,8Z"/><path d="M216,264c-4.42,0-8,3.58-8,8v8c0,4.42,3.58,8,8,8s8-3.58,8-8v-8c0-4.42-3.58-8-8-8Z"/><text x="0" y="527" fill="#000000" font-size="5px" font-weight="bold" font-family="'Helvetica Neue', Helvetica, Arial-Unicode, Arial, Sans-serif">Created by Edy Subiyanto</text><text x="0" y="532" fill="#000000" font-size="5px" font-weight="bold" font-family="'Helvetica Neue', Helvetica, Arial-Unicode, Arial, Sans-serif">from the Noun Project</text></svg>