<svg xmlns="http://www.w3.org/2000/svg" xmlns:xlink="http://www.w3.org/1999/xlink" version="1.1" x="0px" y="0px" viewBox="0 0 100 125" style="enable-background:new 0 0 100 100;" xml:space="preserve"><g><path d="M60.16,33.16h0.63c8.01,0,14.53-6.52,14.53-14.53c0-6.41-4.27-12.01-10.29-13.86V3.62c0-0.88-0.72-1.6-1.6-1.6H36.58   c-0.88,0-1.6,0.72-1.6,1.6v1.15c-6.02,1.85-10.29,7.44-10.29,13.86c0,8.01,6.52,14.53,14.53,14.53h0.62   c2.31,2.13,5.27,3.55,8.56,3.9v10.3h-5.11c-0.88,0-1.6,0.72-1.6,1.6c0,0.88,0.72,1.6,1.6,1.6h13.42c0.88,0,1.6-0.72,1.6-1.6   c0-0.88-0.72-1.6-1.6-1.6H51.6v-10.3C54.89,36.71,57.85,35.28,60.16,33.16z M72.11,18.63c0,5.51-3.96,10.1-9.18,11.11   c1.32-2.23,2.09-4.83,2.09-7.61V8.11C69.22,9.81,72.11,13.96,72.11,18.63z M38.19,5.23h23.63v16.9c0,6.51-5.3,11.81-11.81,11.81   s-11.81-5.3-11.81-11.81V5.23z M27.89,18.63c0-4.67,2.89-8.82,7.09-10.52v14.02c0,2.78,0.77,5.37,2.09,7.61   C31.85,28.73,27.89,24.14,27.89,18.63z"/><path d="M1.6,97.98h32.27h32.27H98.4c0.88,0,1.6-0.72,1.6-1.6V80.07c0-0.88-0.72-1.6-1.6-1.6H67.73V54.74c0-0.88-0.72-1.6-1.6-1.6   H33.87c-0.88,0-1.6,0.72-1.6,1.6v13.14H1.6c-0.88,0-1.6,0.72-1.6,1.6v26.89C0,97.26,0.72,97.98,1.6,97.98z M96.8,81.67v13.1H67.73   v-13.1H96.8z M35.47,56.34h29.06v23.73v14.71H35.47V69.49V56.34z M3.2,71.09h29.06v23.69H3.2V71.09z"/></g><text x="0" y="115" fill="#000000" font-size="5px" font-weight="bold" font-family="'Helvetica Neue', Helvetica, Arial-Unicode, Arial, Sans-serif">Created by MUHAMAD KHOTIBUL UMAM</text><text x="0" y="120" fill="#000000" font-size="5px" font-weight="bold" font-family="'Helvetica Neue', Helvetica, Arial-Unicode, Arial, Sans-serif">from the Noun Project</text></svg>